<?xml version="1.0" encoding="utf-8"?>
<!-- Generator: Adobe Illustrator 16.0.0, SVG Export Plug-In . SVG Version: 6.00 Build 0)  -->
<!DOCTYPE svg PUBLIC "-//W3C//DTD SVG 1.1//EN" "http://www.w3.org/Graphics/SVG/1.1/DTD/svg11.dtd">
<svg version="1.1" id="Layer_1" xmlns="http://www.w3.org/2000/svg" xmlns:xlink="http://www.w3.org/1999/xlink" x="0px" y="0px"
	 width="449px" height="289px" viewBox="0 0 449 289" enable-background="new 0 0 449 289" xml:space="preserve">
<g>
	<path fill="#F9EFD8" stroke="#787878" stroke-miterlimit="10" d="M320.4,137.9c0-2-1.6-3.7-3.7-3.7c-1.4,0-2.6,0.8-3.2,2
		c-0.1,0-0.3,0-0.4,0c-2,0-3.7,1.6-3.7,3.7s1.6,3.7,3.7,3.7c0.7,0,1.3-0.2,1.8-0.5c0.5,0.3,1.2,0.5,1.8,0.5c2,0,3.7-1.6,3.7-3.7
		c0-0.3,0-0.7-0.1-1C320.4,138.6,320.4,138.3,320.4,137.9z"/>
	<path fill="#F9EFD8" stroke="#787878" stroke-miterlimit="10" d="M309,137.6c0-2-1.6-3.7-3.7-3.7c-1.4,0-2.6,0.8-3.2,2
		c-0.1,0-0.3,0-0.4,0c-2,0-3.7,1.6-3.7,3.7s1.6,3.7,3.7,3.7c0.7,0,1.3-0.2,1.8-0.5c0.5,0.3,1.2,0.5,1.8,0.5c2,0,3.7-1.6,3.7-3.7
		c0-0.3,0-0.7-0.1-1C309,138.2,309,137.9,309,137.6z"/>
	<path fill="#F9EFD8" stroke="#787878" stroke-miterlimit="10" d="M295.9,132.7c0-2-1.6-3.7-3.7-3.7c-1.4,0-2.6,0.8-3.2,2
		c-0.1,0-0.3,0-0.4,0c-2,0-3.7,1.6-3.7,3.7s1.6,3.7,3.7,3.7c0.7,0,1.3-0.2,1.8-0.5c0.5,0.3,1.2,0.5,1.8,0.5c2,0,3.7-1.6,3.7-3.7
		c0-0.3,0-0.7-0.1-1C295.8,133.3,295.9,133,295.9,132.7z"/>
	<path fill="#F9EFD8" stroke="#787878" stroke-miterlimit="10" d="M305.1,130.3c0-2-1.6-3.7-3.7-3.7c-1.4,0-2.6,0.8-3.2,2
		c-0.1,0-0.3,0-0.4,0c-2,0-3.7,1.6-3.7,3.7s1.6,3.7,3.7,3.7c0.7,0,1.3-0.2,1.8-0.5c0.5,0.3,1.2,0.5,1.8,0.5c2,0,3.7-1.6,3.7-3.7
		c0-0.3,0-0.7-0.1-1C305.1,130.9,305.1,130.6,305.1,130.3z"/>
	<path fill="#F9EFD8" stroke="#787878" stroke-miterlimit="10" d="M310.9,125.6c0-2-1.6-3.7-3.7-3.7c-1.4,0-2.6,0.8-3.2,2
		c-0.1,0-0.3,0-0.4,0c-2,0-3.7,1.6-3.7,3.7s1.6,3.7,3.7,3.7c0.7,0,1.3-0.2,1.8-0.5c0.5,0.3,1.2,0.5,1.8,0.5c2,0,3.7-1.6,3.7-3.7
		c0-0.3,0-0.7-0.1-1C310.9,126.3,310.9,126,310.9,125.6z"/>
	<path fill="#F9EFD8" stroke="#787878" stroke-miterlimit="10" d="M317.9,123.1c0-2-1.6-3.7-3.7-3.7c-1.4,0-2.6,0.8-3.2,2
		c-0.1,0-0.3,0-0.4,0c-2,0-3.7,1.6-3.7,3.7s1.6,3.7,3.7,3.7c0.7,0,1.3-0.2,1.8-0.5c0.5,0.3,1.2,0.5,1.8,0.5c2,0,3.7-1.6,3.7-3.7
		c0-0.3,0-0.7-0.1-1C317.9,123.8,317.9,123.4,317.9,123.1z"/>
	<path fill="#F9EFD8" stroke="#787878" stroke-miterlimit="10" d="M321.3,128c0-2-1.6-3.7-3.7-3.7c-1.4,0-2.6,0.8-3.2,2
		c-0.1,0-0.3,0-0.4,0c-2,0-3.7,1.6-3.7,3.7s1.6,3.7,3.7,3.7c0.7,0,1.3-0.2,1.8-0.5c0.5,0.3,1.2,0.5,1.8,0.5c2,0,3.7-1.6,3.7-3.7
		c0-0.3,0-0.7-0.1-1C321.2,128.7,321.3,128.4,321.3,128z"/>
	<path fill="#F8EBCD" stroke="#787878" stroke-miterlimit="10" d="M312.4,131.4C312.4,131.4,312.3,131.4,312.4,131.4
		c-0.4-1.5-1.7-2.7-3.4-2.7c-1.8,0-3.2,1.4-3.4,3.1c-1.3,0.7-2.1,1.8-2.1,3c0,2.1,2.5,3.8,5.5,3.8c1,0,1.9-0.2,2.7-0.5
		c0.2,0,0.5,0.1,0.7,0.1c1.9,0,3.4-1.5,3.4-3.4C315.8,132.9,314.2,131.4,312.4,131.4z"/>
	<path fill="#F8EBCD" stroke="#787878" stroke-miterlimit="10" d="M300.7,122.1C300.7,122.1,300.7,122.1,300.7,122.1
		c-0.4-1.5-1.7-2.7-3.4-2.7c-1.8,0-3.2,1.4-3.4,3.1c-1.3,0.7-2.1,1.8-2.1,3c0,2.1,2.5,3.8,5.5,3.8c1,0,1.9-0.2,2.7-0.5
		c0.2,0,0.5,0.1,0.7,0.1c1.9,0,3.4-1.5,3.4-3.4C304.1,123.6,302.6,122.1,300.7,122.1z"/>
	<path fill="#F8EBCD" stroke="#787878" stroke-miterlimit="10" d="M324,126.5C324,126.5,324,126.5,324,126.5
		c-0.4-1.5-1.7-2.7-3.4-2.7c-1.8,0-3.2,1.4-3.4,3.1c-1.3,0.7-2.1,1.8-2.1,3c0,2.1,2.5,3.8,5.5,3.8c1,0,1.9-0.2,2.7-0.5
		c0.2,0,0.5,0.1,0.7,0.1c1.9,0,3.4-1.5,3.4-3.4C327.4,128,325.9,126.5,324,126.5z"/>
	<path fill="#F8EBCD" stroke="#787878" stroke-miterlimit="10" d="M302.3,132.6C302.3,132.6,302.3,132.6,302.3,132.6
		c-0.4-1.5-1.7-2.7-3.4-2.7c-1.8,0-3.2,1.4-3.4,3.1c-1.3,0.7-2.1,1.8-2.1,3c0,2.1,2.5,3.8,5.5,3.8c1,0,1.9-0.2,2.7-0.5
		c0.2,0,0.5,0.1,0.7,0.1c1.9,0,3.4-1.5,3.4-3.4C305.7,134.1,304.2,132.6,302.3,132.6z"/>
	<path fill="#F8EBCD" stroke="#787878" stroke-miterlimit="10" d="M298.7,129.2C298.7,129.2,298.7,129.2,298.7,129.2
		c-0.4-1.5-1.7-2.7-3.4-2.7c-1.8,0-3.2,1.4-3.4,3.1c-1.3,0.7-2.1,1.8-2.1,3c0,2.1,2.5,3.8,5.5,3.8c1,0,1.9-0.2,2.7-0.5
		c0.2,0,0.5,0.1,0.7,0.1c1.9,0,3.4-1.5,3.4-3.4C302.1,130.7,300.6,129.2,298.7,129.2z"/>
	<path fill="#F8EBCD" stroke="#787878" stroke-miterlimit="10" d="M306.3,124.3C306.2,124.3,306.2,124.3,306.3,124.3
		c-0.4-1.5-1.7-2.7-3.4-2.7c-1.8,0-3.2,1.4-3.4,3.1c-1.3,0.7-2.1,1.8-2.1,3c0,2.1,2.5,3.8,5.5,3.8c1,0,1.9-0.2,2.7-0.5
		c0.2,0,0.5,0.1,0.7,0.1c1.9,0,3.4-1.5,3.4-3.4C309.6,125.8,308.1,124.3,306.3,124.3z"/>
	<path fill="#F8EBCD" stroke="#787878" stroke-miterlimit="10" d="M332.4,132.6C332.4,132.6,332.3,132.6,332.4,132.6
		c-0.4-1.5-1.7-2.7-3.4-2.7c-1.8,0-3.2,1.4-3.4,3.1c-1.3,0.7-2.1,1.8-2.1,3c0,2.1,2.5,3.8,5.5,3.8c1,0,1.9-0.2,2.7-0.5
		c0.2,0,0.5,0.1,0.7,0.1c1.9,0,3.4-1.5,3.4-3.4C335.8,134.1,334.2,132.6,332.4,132.6z"/>
	<path fill="#F8EBCD" stroke="#787878" stroke-miterlimit="10" d="M341.6,129.2C341.6,129.2,341.6,129.2,341.6,129.2
		c-0.4-1.5-1.7-2.7-3.4-2.7c-1.8,0-3.2,1.4-3.4,3.1c-1.3,0.7-2.1,1.8-2.1,3c0,2.1,2.5,3.8,5.5,3.8c1,0,1.9-0.2,2.7-0.5
		c0.2,0,0.5,0.1,0.7,0.1c1.9,0,3.4-1.5,3.4-3.4C345,130.7,343.5,129.2,341.6,129.2z"/>
	<path fill="#F8EBCD" stroke="#787878" stroke-miterlimit="10" d="M335.5,124.3C335.5,124.3,335.5,124.4,335.5,124.3
		c-0.4-1.5-1.7-2.7-3.4-2.7c-1.8,0-3.2,1.4-3.4,3.1c-1.3,0.7-2.1,1.8-2.1,3c0,2.1,2.5,3.8,5.5,3.8c1,0,1.9-0.2,2.7-0.5
		c0.2,0,0.5,0.1,0.7,0.1c1.9,0,3.4-1.5,3.4-3.4C338.9,125.9,337.4,124.3,335.5,124.3z"/>
	<path fill="#F8EBCD" stroke="#787878" stroke-miterlimit="10" d="M327,121.6C327,121.6,327,121.6,327,121.6
		c-0.4-1.5-1.7-2.7-3.4-2.7c-1.8,0-3.2,1.4-3.4,3.1c-1.3,0.7-2.1,1.8-2.1,3c0,2.1,2.5,3.8,5.5,3.8c1,0,1.9-0.2,2.7-0.5
		c0.2,0,0.5,0.1,0.7,0.1c1.9,0,3.4-1.5,3.4-3.4C330.4,123.1,328.9,121.6,327,121.6z"/>
	<path fill="#F8EBCD" stroke="#787878" stroke-miterlimit="10" d="M329.3,117.2C329.3,117.2,329.3,117.2,329.3,117.2
		c-0.4-1.5-1.7-2.7-3.4-2.7c-1.8,0-3.2,1.4-3.4,3.1c-1.3,0.7-2.1,1.8-2.1,3c0,2.1,2.5,3.8,5.5,3.8c1,0,1.9-0.2,2.7-0.5
		c0.2,0,0.5,0.1,0.7,0.1c1.9,0,3.4-1.5,3.4-3.4C332.7,118.7,331.2,117.2,329.3,117.2z"/>
	<path fill="#F8EBCD" stroke="#787878" stroke-miterlimit="10" d="M320.9,116.6C320.9,116.6,320.9,116.6,320.9,116.6
		c-0.4-1.5-1.7-2.7-3.4-2.7c-1.8,0-3.2,1.4-3.4,3.1c-1.3,0.7-2.1,1.8-2.1,3c0,2.1,2.5,3.8,5.5,3.8c1,0,1.9-0.2,2.7-0.5
		c0.2,0,0.5,0.1,0.7,0.1c1.9,0,3.4-1.5,3.4-3.4C324.3,118.1,322.8,116.6,320.9,116.6z"/>
	<path fill="#F8EBCD" stroke="#787878" stroke-miterlimit="10" d="M313,117.2C313,117.2,312.9,117.2,313,117.2
		c-0.4-1.5-1.7-2.7-3.4-2.7c-1.8,0-3.2,1.4-3.4,3.1c-1.3,0.7-2.1,1.8-2.1,3c0,2.1,2.5,3.8,5.5,3.8c1,0,1.9-0.2,2.7-0.5
		c0.2,0,0.5,0.1,0.7,0.1c1.9,0,3.4-1.5,3.4-3.4C316.4,118.7,314.9,117.2,313,117.2z"/>
	<path fill="#F8EBCD" stroke="#787878" stroke-miterlimit="10" d="M311.1,111.6C311.1,111.6,311.1,111.6,311.1,111.6
		c-0.4-1.5-1.7-2.7-3.4-2.7c-1.8,0-3.2,1.4-3.4,3.1c-1.3,0.7-2.1,1.8-2.1,3c0,2.1,2.5,3.8,5.5,3.8c1,0,1.9-0.2,2.7-0.5
		c0.2,0,0.5,0.1,0.7,0.1c1.9,0,3.4-1.5,3.4-3.4C314.5,113.1,313,111.6,311.1,111.6z"/>
	<path fill="#F8EBCD" stroke="#787878" stroke-miterlimit="10" d="M317.7,138.4C317.7,138.4,317.7,138.4,317.7,138.4
		c0.4,1.5,1.7,2.7,3.4,2.7c1.8,0,3.2-1.4,3.4-3.1c1.3-0.7,2.1-1.8,2.1-3c0-2.1-2.5-3.8-5.5-3.8c-1,0-1.9,0.2-2.7,0.5
		c-0.2,0-0.5-0.1-0.7-0.1c-1.9,0-3.4,1.5-3.4,3.4C314.3,136.9,315.8,138.4,317.7,138.4z"/>
	<path fill="#F8EBCD" stroke="#787878" stroke-miterlimit="10" d="M312.2,130.9C312.2,130.9,312.2,130.9,312.2,130.9
		c0.4,1.5,1.7,2.7,3.4,2.7c1.8,0,3.2-1.4,3.4-3.1c1.3-0.7,2.1-1.8,2.1-3c0-2.1-2.5-3.8-5.5-3.8c-1,0-1.9,0.2-2.7,0.5
		c-0.2,0-0.5-0.1-0.7-0.1c-1.9,0-3.4,1.5-3.4,3.4C308.8,129.4,310.3,130.9,312.2,130.9z"/>
	<path fill="#F8EBCD" stroke="#787878" stroke-miterlimit="10" d="M309.7,143.3C309.7,143.3,309.7,143.3,309.7,143.3
		c0.4,1.5,1.7,2.7,3.4,2.7c1.8,0,3.2-1.4,3.4-3.1c1.3-0.7,2.1-1.8,2.1-3c0-2.1-2.5-3.8-5.5-3.8c-1,0-1.9,0.2-2.7,0.5
		c-0.2,0-0.5-0.1-0.7-0.1c-1.9,0-3.4,1.5-3.4,3.4C306.3,141.8,307.8,143.3,309.7,143.3z"/>
	<path fill="#F8EBCD" stroke="#787878" stroke-miterlimit="10" d="M310,110.6C310.1,110.7,310.1,110.7,310,110.6c-0.9,1.3-1,3,0,4.3
		c1.1,1.4,3.1,1.6,4.5,0.7c1.3,0.6,2.7,0.5,3.7-0.2c1.6-1.3,1.4-4.3-0.5-6.6c-0.6-0.8-1.3-1.3-2-1.8c-0.1-0.2-0.2-0.4-0.4-0.6
		c-1.2-1.5-3.3-1.7-4.8-0.5C309.1,107.1,308.9,109.2,310,110.6z"/>
	<path fill="#F8EBCD" stroke="#787878" stroke-miterlimit="10" d="M313.6,117.8C313.6,117.8,313.6,117.8,313.6,117.8
		c0.4,1.5,1.7,2.7,3.4,2.7c1.8,0,3.2-1.4,3.4-3.1c1.3-0.7,2.1-1.8,2.1-3c0-2.1-2.5-3.8-5.5-3.8c-1,0-1.9,0.2-2.7,0.5
		c-0.2,0-0.5-0.1-0.7-0.1c-1.9,0-3.4,1.5-3.4,3.4C310.2,116.3,311.7,117.8,313.6,117.8z"/>
	<path fill="#F8EBCD" stroke="#787878" stroke-miterlimit="10" d="M300.8,124.2C300.8,124.2,300.8,124.2,300.8,124.2
		c0.4,1.5,1.7,2.7,3.4,2.7c1.8,0,3.2-1.4,3.4-3.1c1.3-0.7,2.1-1.8,2.1-3c0-2.1-2.5-3.8-5.5-3.8c-1,0-1.9,0.2-2.7,0.5
		c-0.2,0-0.5-0.1-0.7-0.1c-1.9,0-3.4,1.5-3.4,3.4C297.4,122.7,298.9,124.2,300.8,124.2z"/>
	<path fill="#F8EBCD" stroke="#787878" stroke-miterlimit="10" d="M325,128.8C325,128.8,325,128.8,325,128.8
		c-0.7,1.4-0.5,3.2,0.7,4.3c1.3,1.2,3.3,1.1,4.6,0c1.4,0.4,2.8,0.1,3.6-0.8c1.4-1.5,0.7-4.5-1.5-6.5c-0.7-0.6-1.5-1.1-2.3-1.4
		c-0.1-0.2-0.3-0.4-0.5-0.5c-1.4-1.2-3.5-1.1-4.8,0.2C323.5,125.4,323.6,127.6,325,128.8z"/>
	<g>
		<polygon fill="#B83944" points="338.4,213.5 314.7,224.2 291.4,213.5 284.8,133.6 314.1,143.6 345,133.6 		"/>
		<polygon fill="#C4C6C5" points="300.1,217.5 295.8,215.6 289.7,135.3 295.6,137.2 		"/>
		<polygon fill="#C4C6C5" points="309.6,222.1 305.4,220.2 301.2,139.2 307.1,141.1 		"/>
		<polygon fill="#C4C6C5" points="329.6,217.2 333.9,215.3 340,135 334.1,136.9 		"/>
		<polygon fill="#C4C6C5" points="320.1,221.8 324.3,219.8 328.5,138.9 322.6,140.8 		"/>
	</g>
</g>
</svg>
