<?xml version="1.0" encoding="utf-8"?>
<!-- Generator: Adobe Illustrator 16.0.0, SVG Export Plug-In . SVG Version: 6.00 Build 0)  -->
<!DOCTYPE svg PUBLIC "-//W3C//DTD SVG 1.1//EN" "http://www.w3.org/Graphics/SVG/1.1/DTD/svg11.dtd">
<svg version="1.1" id="Layer_1" xmlns="http://www.w3.org/2000/svg" xmlns:xlink="http://www.w3.org/1999/xlink" x="0px" y="0px"
	 width="449px" height="289px" viewBox="0 0 449 289" enable-background="new 0 0 449 289" xml:space="preserve">
<path fill="#3D3131" d="M165.2,240.4"/>
<g>
	<path fill="#3D3131" d="M209.7,240.4"/>
	<g opacity="0.2">
	</g>
	<g>
		<path fill="#DADBDB" stroke="#666766" stroke-miterlimit="10" d="M359.8,129.2h-83.4c-0.4,1.7,0.3,3,1.4,4.1l38,38
			c0.1,0.1,0.3,0.2,0.4,0.3v29l-17.5,4.5c-0.5,0.6-1.1,1-0.9,2h40.4c0.2-0.8-0.1-1.4-0.7-2l-17.6-4.6v-29.3c0,0,0,0,0,0l38-38
			C359,132.2,360.1,131.4,359.8,129.2z"/>
		<path fill="#96C64B" d="M290.1,137.7l25,24.2c0,0,2.1,1.8,4.2-0.6c2.1-2.4,26.7-24.8,26.7-24.8s-7.8-1.1-15.1,0
			c-7.3,1.1-11,0.6-16.9,0.3c-5.8-0.3-8.6-1.2-14.9-0.8C292.8,136.3,290.1,137.7,290.1,137.7z"/>
	</g>
	<g>
		<circle fill="#6BAF44" cx="304.3" cy="142.7" r="2.8"/>
		<path fill="none" stroke="#B0D466" stroke-linecap="round" stroke-linejoin="round" stroke-miterlimit="10" d="M302.7,142.7
			c0-0.9,0.7-1.7,1.7-1.7"/>
	</g>
	<g>
		<circle fill="#6BAF44" cx="317.6" cy="154.1" r="1.5"/>
		<path fill="none" stroke="#B0D466" stroke-linecap="round" stroke-linejoin="round" stroke-miterlimit="10" d="M316.7,154.2
			c0-0.5,0.4-0.9,0.9-0.9"/>
	</g>
	<g>
		<circle fill="#6BAF44" cx="323" cy="142.7" r="1.5"/>
		<path fill="none" stroke="#B0D466" stroke-linecap="round" stroke-linejoin="round" stroke-miterlimit="10" d="M322.1,142.8
			c0-0.5,0.4-0.9,0.9-0.9"/>
	</g>
	<g>
		<circle fill="#6BAF44" cx="331.2" cy="140.8" r="1.5"/>
		<path fill="none" stroke="#B0D466" stroke-linecap="round" stroke-linejoin="round" stroke-miterlimit="10" d="M330.4,140.9
			c0-0.5,0.4-0.9,0.9-0.9"/>
	</g>
</g>
</svg>
