<?xml version="1.0" encoding="utf-8"?>
<!-- Generator: Adobe Illustrator 16.0.0, SVG Export Plug-In . SVG Version: 6.00 Build 0)  -->
<!DOCTYPE svg PUBLIC "-//W3C//DTD SVG 1.1//EN" "http://www.w3.org/Graphics/SVG/1.1/DTD/svg11.dtd">
<svg version="1.1" id="Layer_1" xmlns="http://www.w3.org/2000/svg" xmlns:xlink="http://www.w3.org/1999/xlink" x="0px" y="0px"
	 width="449px" height="289px" viewBox="0 0 449 289" enable-background="new 0 0 449 289" xml:space="preserve">
<g>
	<path fill="#F27070" d="M149.3,162.3l35.6-84.6H205v84.6h12.9v20.2H205v28.8h-20.1v-28.8h-35.6V162.3z M184.9,162.3v-41.7
		l-16.6,41.7H184.9z"/>
	<path fill="#F27070" d="M299.7,181c0,8.9-3.1,16.4-9.4,22.6c-6.3,6.2-13.8,9.3-22.6,9.3h-1.6c-8.9,0-16.4-3.1-22.6-9.4
		c-6.2-6.2-9.3-13.7-9.3-22.5v-12.1c0-8.2,2.7-15.3,8.2-21.4c2.3-2.6,5.1-4.8,8.2-6.5c-5.4-2.8-9.6-7.4-12.6-13.8
		c-1.5-3.3-2.2-7.5-2.2-12.6v-7.2c0-8.7,2.6-15.8,7.7-21.5c5.7-6.4,13.2-9.6,22.6-9.6h1.6c9.4,0,17,3.2,22.7,9.6
		c5.1,5.8,7.7,12.9,7.7,21.5v7.2c0,8.3-2.5,15.2-7.5,20.7c-2.2,2.4-4.7,4.3-7.4,5.8c6,3.3,10.6,8.4,13.8,15.2
		c1.7,3.5,2.6,7.7,2.6,12.7V181z M280.2,112.8c-0.1-9.1-3-14.9-8.6-17.2c-1.3-0.6-2.8-0.8-4.6-0.8c-3.5,0-6.3,1-8.5,2.9
		c-1.8,1.6-3,3.6-3.8,6c-0.7,2.4-1,5.5-0.9,9.2c0.2,5.8,1.1,10,2.8,12.5c2.1,3.4,5.6,5.1,10.4,5.1c4.8,0,8.3-1.8,10.5-5.4
		C279.4,121.9,280.3,117.9,280.2,112.8z M279.6,171.5c0-8-1.8-13.3-5.4-16c-1.7-1.3-4.1-1.9-7.1-1.9c-5.3,0-8.9,2.3-10.9,6.8
		c-1.1,2.8-1.7,6.5-1.7,11.1v6.4c0,4.4,1.3,8,4,10.7c2.3,2.3,5.1,3.5,8.5,3.6c5.5-0.3,9.3-3,11.4-8.1c0.8-1.7,1.2-3.8,1.2-6.2V171.5
		z"/>
</g>
</svg>
