<?xml version="1.0" encoding="utf-8"?>
<!-- Generator: Adobe Illustrator 16.0.0, SVG Export Plug-In . SVG Version: 6.00 Build 0)  -->
<!DOCTYPE svg PUBLIC "-//W3C//DTD SVG 1.1//EN" "http://www.w3.org/Graphics/SVG/1.1/DTD/svg11.dtd">
<svg version="1.1" id="Layer_1" xmlns="http://www.w3.org/2000/svg" xmlns:xlink="http://www.w3.org/1999/xlink" x="0px" y="0px"
	 width="449px" height="289px" viewBox="0 0 449 289" enable-background="new 0 0 449 289" xml:space="preserve">
<g>
	<g id="Your_Icon_4_">
		<g>
			<path fill="#454545" d="M151.6,165.6c-0.8,0.5-0.8,0.8,0,1c1,0.2,2.1,1.3,1.4,4.8c-1.1,5.4-4.7,18.7-5.7,22.6
				c-1.8,6.7,2,13.2,9.7,15.2c11.9,3.2,16.5-0.8,17.9-14.5l0,0c0,0,0.1-1,0.3-2.7c0-0.1,0-0.2-0.2-0.3c-0.2,0-2.9-0.8-3.6-1
				c-0.1,0-0.2,0-0.3,0.1c-0.4,0.5-1,0.7-1.7,0.6c-1-0.2-1.6-1.1-1.4-2.1c0.2-1,1.1-1.6,2.1-1.4c0.7,0.1,1.3,0.7,1.4,1.4
				c0,0.1,0.1,0.2,0.2,0.2c0.6,0.2,3.2,0.9,3.4,0.9c0.2,0.1,0.2-0.1,0.2-0.2c0.1-1.1,0.3-2.3,0.4-3.7c0-0.1,0-0.3-0.2-0.3
				c-0.2,0-2.5-0.7-3.2-0.9c-0.1,0-0.2,0-0.2,0.1c-0.4,0.5-1,0.7-1.7,0.6c-1-0.2-1.6-1.1-1.4-2.1c0.2-1,1.1-1.6,2.1-1.4
				c0.7,0.1,1.3,0.7,1.4,1.4c0,0.1,0.1,0.2,0.2,0.2c0.6,0.2,2.9,0.8,3,0.8c0.1,0,0.2-0.1,0.2-0.2c1.9-17.6,6-53.8,7.1-59.1
				c0.5-2.5,3.3-4,5.8-3.4l2.7,0.7c0.7,0.2,1.4-0.2,1.5-0.9c0.2-0.7-0.2-1.4-0.9-1.5l-2.7-0.7c-3.9-1-7.8,1.3-8.9,5.1l-0.5,2
				c0,0,0,0.1,0,0.2l-17.5,65.6l0,0c0,0,0,0,0,0l-0.3,1.1c-0.5,1.7-0.9,2-1.7,1.8c-0.9-0.2-0.5-1.7-0.1-3.4
				c0.8-3.5,3.4-13.1,4.3-16.6c1.5-5.7,1.2-9.6,0.4-12.5c-0.3-0.9-1.6-3-0.9-5.5c0.1-0.3,0.1-0.6-0.4-0.3
				C161.8,158.7,154.7,163.4,151.6,165.6z M178,150.5c-0.1,0.6-0.7,1-1.3,0.9c-0.6-0.1-1-0.7-0.9-1.3c0.1-0.6,0.7-1,1.3-0.9
				C177.7,149.3,178.1,149.9,178,150.5z M170.5,179.2c0.1-0.6,0.7-1,1.3-0.9c0.6,0.1,1,0.7,0.9,1.3c-0.1,0.6-0.7,1-1.3,0.9
				C170.8,180.4,170.4,179.8,170.5,179.2z M171.3,174.7c0.1-0.6,0.7-1,1.3-0.9c0.6,0.1,1,0.7,0.9,1.3c-0.1,0.6-0.7,1-1.3,0.9
				C171.6,175.9,171.2,175.3,171.3,174.7z M170.1,193.9c0.4,0.4,0.6,1,0.5,1.6c-0.2,1-1.1,1.6-2.1,1.4c-1-0.2-1.6-1.1-1.4-2.1
				c0.1-0.6,0.5-1,0.9-1.3c0.3-0.2,0.7-0.3,1.1-0.2C169.5,193.4,169.8,193.6,170.1,193.9z"/>
			<path fill="#454545" d="M147,164.8c0.2,0.4,0.6,0.6,1,0.7c0.5,0.1,1,0.1,1.4-0.2l12.9-8.7c3-2,3-2,3.1-2.7c0.2-0.9-0.4-1.8-1.4-2
				c-0.5-0.1-1,0-1.3,0.3c-0.5,0.4-11.2,7.5-15.2,10.3C146.7,163,146.5,164,147,164.8z"/>
			<path fill="#454545" d="M194.6,125c0.7,0.2,0,0,1.8,0.5c1.9,0.5,6.5,0,6.6-0.7c0.2-0.7-3.6-3.4-5.4-3.9c-1.9-0.5-1.1-0.3-1.8-0.5
				c-0.7-0.2-1.5,0.3-1.7,0.9c-0.1,0.3,0,0-0.1,0.6c-0.1,0.5-0.2,0.9-0.2,0.9c-0.2,0.6-0.1,0.3-0.1,0.6
				C193.5,123.9,193.9,124.8,194.6,125z"/>
		</g>
	</g>
	<circle fill="#DADBDB" cx="168.7" cy="195.5" r="2.2"/>
	<circle fill="#DADBDB" cx="170" cy="189.7" r="2.1"/>
	<circle fill="#DADBDB" cx="170.9" cy="184.2" r="1.9"/>
	<circle fill="#DADBDB" cx="171.6" cy="179.4" r="1.4"/>
	<circle fill="#DADBDB" cx="172.3" cy="175" r="1.2"/>
	<circle fill="#DADBDB" cx="177" cy="150.3" r="1.2"/>
</g>
</svg>
