<?xml version="1.0" encoding="utf-8"?>
<!-- Generator: Adobe Illustrator 16.0.0, SVG Export Plug-In . SVG Version: 6.00 Build 0)  -->
<!DOCTYPE svg PUBLIC "-//W3C//DTD SVG 1.1//EN" "http://www.w3.org/Graphics/SVG/1.1/DTD/svg11.dtd">
<svg version="1.1" id="Layer_1" xmlns="http://www.w3.org/2000/svg" xmlns:xlink="http://www.w3.org/1999/xlink" x="0px" y="0px"
	 width="449px" height="289px" viewBox="0 0 449 289" enable-background="new 0 0 449 289" xml:space="preserve">
<g>
	<path fill="#F27070" d="M182.7,192.3c9.2,0,13.8-4.3,13.8-12.9v-7.9c0-13.7-7.2-20.5-21.5-20.5v-17.2c7.7,0,13.5-2.2,17.2-6.5
		c3.4-3.9,5.1-9.4,5.1-16.4v-3.1c0-8.7-3.8-13.1-11.5-13.1c-4.3,0-7.4,1.6-9.4,4.9c-1.5,2.5-2.2,5.7-2.2,9.6v3.5h-19.7v-3.1
		c0-9.5,2.4-17.3,7.2-23.2c5.5-6.8,13.2-10.2,23.1-10.2c9.4,0,17,3.2,22.7,9.6c5.1,5.8,7.7,12.9,7.7,21.5v5.6
		c0,8.3-2.5,15.5-7.5,21.5c-2.1,2.6-4.6,4.7-7.5,6.5c6,3.3,10.6,8.4,13.8,15.2c1.7,3.5,2.6,7.7,2.6,12.7v10.5
		c0,9.9-3.4,18-10.1,24.3c-6.5,6.1-14.2,9.2-23.3,9.2c-8.9,0-16.4-3.1-22.6-9.4c-6.2-6.2-9.3-13.7-9.3-22.5v-3.3l19.2-1.5l0.4,4.7
		c0.3,3.3,1.5,6.1,3.6,8.2C176.6,191.2,179.3,192.3,182.7,192.3z"/>
	<path fill="#F27070" d="M297.6,181c0,8.9-3.1,16.4-9.4,22.6c-6.3,6.2-13.7,9.3-22.5,9.3c-8.9,0-16.4-3.1-22.6-9.3
		c-6.2-6.2-9.3-13.7-9.3-22.5v-72.9c0-8.9,3.1-16.4,9.4-22.6c6.2-6.2,13.8-9.3,22.6-9.3c8.9,0,16.4,3.1,22.6,9.4
		c6.2,6.3,9.3,13.8,9.3,22.6V181z M276.8,107.7c0-3.2-1.1-5.9-3.4-8.2c-2.3-2.3-5-3.4-8.2-3.4c-3.2,0-5.9,1.1-8.1,3.4
		c-2.2,2.3-3.4,5-3.4,8.2v73c0,3.2,1.1,5.9,3.4,8.2c2.2,2.3,5,3.4,8.1,3.4c3.2,0,5.9-1.1,8.2-3.4c2.3-2.3,3.4-5,3.4-8.2V107.7z"/>
</g>
<path fill="#3D3131" d="M209.7,240.4"/>
</svg>
