<?xml version="1.0" encoding="utf-8"?>
<!-- Generator: Adobe Illustrator 16.0.0, SVG Export Plug-In . SVG Version: 6.00 Build 0)  -->
<!DOCTYPE svg PUBLIC "-//W3C//DTD SVG 1.1//EN" "http://www.w3.org/Graphics/SVG/1.1/DTD/svg11.dtd">
<svg version="1.1" id="Layer_1" xmlns="http://www.w3.org/2000/svg" xmlns:xlink="http://www.w3.org/1999/xlink" x="0px" y="0px"
	 width="449px" height="289px" viewBox="0 0 449 289" enable-background="new 0 0 449 289" xml:space="preserve">
<path fill="#3D3131" d="M209.7,240.4"/>
<g>
	<path fill="#EBA9A1" d="M272.6,163.3l-0.4,0l-22.1,0.5l3.7,22.7l1.6,6.6c0,0,10.1,9.8,13,10.9c1.3,0.5,9,0.2,10.4-0.3
		c2.5-0.9,11.8-11.1,11.8-11.1l1.4-6.8l2.7-27.8L272.6,163.3z"/>
	<path fill="#EBA9A1" d="M254.2,175.5c0,1.5-1.2,2.8-2.7,2.8c0,0-1.7-0.1-1.9-2.6l-1.7-8.7c0-1.5,1.2-2.8,2.7-2.8l0.7,0
		c1.5,0,2.8,1.2,2.8,2.7L254.2,175.5z"/>
	<path fill="#EBA9A1" d="M290.7,174.8c0,1.5,1.3,2.7,2.8,2.7c0,0,1.7-0.2,1.8-2.7l1.4-8.8c0-1.5-1.3-2.7-2.8-2.7l-0.7,0
		c-1.5,0-2.7,1.3-2.7,2.8L290.7,174.8z"/>
	<polygon fill="#3D3131" points="250.6,165.9 252.8,176.1 253.7,176.1 253.5,165.9 	"/>
	<polygon fill="#3D3131" points="295.3,157.9 291.6,174.7 290.7,174.7 290.5,160 	"/>
	<path fill="#C88A85" d="M280,188.3c0.5,3.7-2.1,7.1-5.8,7.6c-3.7,0.5-7.2-2-7.7-5.7"/>
	<g>
		<path fill="#454545" d="M252.2,164.7l-2.9-18c-1.6-9.8,15.7-21.8,14.9-20.7l4.5-0.7c1.4-0.2,19.1,5.1,20.7,14.9l2.9,18"/>
		<path fill="#454545" d="M306,156.1c0.2,1-0.5,1.9-1.5,2.1l-63.8,10.4c-1,0.2-1.9-0.5-2.1-1.5l0,0c-0.2-1,0.5-1.9,1.5-2.1
			l63.8-10.4C304.9,154.4,305.8,155.1,306,156.1L306,156.1z"/>
	</g>
	
		<line fill="none" stroke="#454545" stroke-width="2" stroke-linecap="round" stroke-miterlimit="10" x1="278.7" y1="208.9" x2="278.5" y2="224.6"/>
	
		<line fill="none" stroke="#454545" stroke-width="2" stroke-linecap="round" stroke-miterlimit="10" x1="285.8" y1="202.1" x2="295.3" y2="214.6"/>
	
		<line fill="none" stroke="#454545" stroke-width="2" stroke-linecap="round" stroke-miterlimit="10" x1="292" y1="195.7" x2="307" y2="200.3"/>
</g>
</svg>
