<?xml version="1.0" encoding="utf-8"?>
<!-- Generator: Adobe Illustrator 16.0.0, SVG Export Plug-In . SVG Version: 6.00 Build 0)  -->
<!DOCTYPE svg PUBLIC "-//W3C//DTD SVG 1.1//EN" "http://www.w3.org/Graphics/SVG/1.1/DTD/svg11.dtd">
<svg version="1.1" id="Layer_1" xmlns="http://www.w3.org/2000/svg" xmlns:xlink="http://www.w3.org/1999/xlink" x="0px" y="0px"
	 width="449px" height="289px" viewBox="0 0 449 289" enable-background="new 0 0 449 289" xml:space="preserve">
<g>
	<path fill="#DADBDB" d="M143,211.4V108.6h-17.2V94.5c4.8-0.6,9.4-2.4,13.8-5.5c4.4-3.1,7.5-6.8,9.4-11.2h14.1v133.6H143z"/>
	<path fill="#DADBDB" d="M202.3,97.9v28.7c2-2.8,4.8-5,8.4-6.6c1.9-0.8,4.2-1.2,6.7-1.2c8.8,0,15.3,3.1,19.5,9.3
		c3.6,5.3,5.4,12.9,5.4,22.6v28.8c0,9.9-3.1,18-9.4,24.3c-6,6.1-13.5,9.2-22.6,9.2c-8.8,0-16.1-3.2-21.9-9.6
		c-5.6-6.1-8.4-13.6-8.4-22.4v-3.2l19.3-1.5l0.4,4.6c0.5,5.3,2.7,8.9,6.5,10.7c1.1,0.6,2.3,0.9,3.6,0.9c8.2,0,12.4-4.3,12.4-12.9
		v-32.7c0-3.9-1.4-7.1-4.3-9.7c-1.4-1.2-3.2-1.8-5.7-1.8c-3.6,0-6.2,1.4-7.9,4.2c-1.4,2.4-2.1,5-2.1,7.7v3.6h-20.1v-73h58.9v20.2
		H202.3z"/>
	<path fill="#DADBDB" d="M323.2,180.9c0,8.9-3.1,16.4-9.4,22.6c-6.3,6.2-13.7,9.3-22.5,9.3c-8.9,0-16.4-3.1-22.6-9.3
		c-6.2-6.2-9.3-13.7-9.3-22.5v-72.9c0-8.9,3.1-16.4,9.4-22.6c6.2-6.2,13.8-9.3,22.6-9.3c8.9,0,16.4,3.1,22.6,9.4
		c6.2,6.3,9.3,13.8,9.3,22.6V180.9z M302.3,107.6c0-3.2-1.1-5.9-3.4-8.2c-2.3-2.3-5-3.4-8.2-3.4c-3.2,0-5.9,1.1-8.1,3.4
		c-2.2,2.3-3.4,5-3.4,8.2v73c0,3.2,1.1,5.9,3.4,8.2c2.2,2.3,5,3.4,8.1,3.4c3.2,0,5.9-1.1,8.2-3.4c2.3-2.3,3.4-5,3.4-8.2V107.6z"/>
</g>
</svg>
