<?xml version="1.0" encoding="utf-8"?>
<!-- Generator: Adobe Illustrator 16.0.0, SVG Export Plug-In . SVG Version: 6.00 Build 0)  -->
<!DOCTYPE svg PUBLIC "-//W3C//DTD SVG 1.1//EN" "http://www.w3.org/Graphics/SVG/1.1/DTD/svg11.dtd">
<svg version="1.1" id="Layer_1" xmlns="http://www.w3.org/2000/svg" xmlns:xlink="http://www.w3.org/1999/xlink" x="0px" y="0px"
	 width="449px" height="289px" viewBox="0 0 449 289" enable-background="new 0 0 449 289" xml:space="preserve">
<g>
	<polygon fill="#DADBDB" points="287.3,145 291.6,144.7 318.4,189.8 330.8,208.4 330.6,213.9 327.9,214.5 296.8,189.4 291.6,180.9 
		272.4,199.7 270.1,196.4 277.1,149.1 278.7,144.9 	"/>
	<path fill="#454545" d="M290.7,143.3c0,0-4.9-2.4-5.9-6.2c-0.9-3.9-13.3-60.2-14.2-63.2c0,0-2.6-7.3,1.8-8.2c0,0-3-11.8-4.3-17.1
		c-1.6-4.9-5.6-2-5.6,0c0,0-2.3,14.1-3.6,21.5c0,0,4.3,1,5.3,5.2c0.9,4.2,13.3,67.1,13.3,67.1s-0.7,3.7-2.4,4.9c0,0-6.6,61-7.5,76.6
		c0,0,2.7,8.2,8.1-2.5c2.9-5.7,13.2-26.7,13.2-26.7s3-5.4,8.2-1.9c5.2,3.6,18.2,13.7,23.9,18.3c5.8,4.5,9.8,8.2,11.8,3.8
		C335,210.5,292.3,146.3,290.7,143.3z M299.4,188.8c0,0-1.6-7.7-2-9.1c-0.4-1.9-1.1-2.3-2.6-1.9c-4.3,0.9-11.5,2.5-11.5,2.5l-9.6,13
		l3.7-42.7c4.9-1.1,12.3-2.6,12.3-2.6l39,64.6L299.4,188.8z"/>
	<path fill="#454545" d="M305.5,177.9c1.1-0.2,2.1,0.4,2.4,1.5c0.2,1.1-0.4,2.1-1.5,2.4c-1.1,0.2-2.1-0.4-2.4-1.5
		C303.7,179.2,304.4,178.1,305.5,177.9z"/>
	<path fill="#454545" d="M302,184.2c1.1-0.2,2.1,0.4,2.4,1.5c0.2,1.1-0.4,2.1-1.5,2.4c-1.1,0.2-2.1-0.4-2.4-1.5
		C300.3,185.5,301,184.4,302,184.2z"/>
	<path fill="#454545" d="M309,184.6c1.1-0.2,2.1,0.4,2.4,1.5c0.2,1.1-0.4,2.1-1.5,2.4c-1.1,0.2-2.1-0.4-2.4-1.5
		C307.3,186,307.9,184.9,309,184.6z"/>
	<path fill="#454545" d="M313.2,191.5c0.7-0.2,1.4,0.3,1.6,1c0.2,0.7-0.3,1.4-1,1.6c-0.7,0.2-1.4-0.3-1.6-1
		C312,192.4,312.5,191.7,313.2,191.5z"/>
	<g>
		
			<rect x="274.2" y="62.9" transform="matrix(0.9776 -0.2105 0.2105 0.9776 -18.8571 60.4465)" fill="#F27070" width="0.5" height="111.7"/>
		
			<rect x="275.2" y="58.7" transform="matrix(0.9777 -0.2101 0.2101 0.9777 -18.2008 60.4593)" fill="#F27070" width="0.5" height="114.4"/>
		
			<rect x="276.2" y="54.5" transform="matrix(0.9777 -0.2101 0.2101 0.9777 -17.5777 60.6037)" fill="#F27070" width="0.5" height="117"/>
		
			<rect x="277.3" y="51.4" transform="matrix(0.9773 -0.2117 0.2117 0.9773 -17.1432 61.2527)" fill="#F27070" width="0.5" height="118.5"/>
	</g>
	
		<rect x="281" y="157.5" transform="matrix(0.9777 -0.2099 0.2099 0.9777 -27.3221 63.7587)" fill="#454545" width="11.4" height="6.1"/>
	
		<rect x="278.8" y="167.7" transform="matrix(0.9777 -0.2098 0.2098 0.9777 -29.406 64.4256)" fill="#454545" width="20.2" height="6.1"/>
	<g>
		<circle fill="#454545" cx="258.5" cy="65.5" r="1.1"/>
		
			<rect x="259.1" y="64.6" transform="matrix(0.9777 -0.2098 0.2098 0.9777 -7.8536 56.0974)" fill="#454545" width="2.7" height="0.8"/>
	</g>
	<g>
		<circle fill="#454545" cx="259" cy="61.5" r="1.1"/>
		
			<rect x="259.6" y="60.7" transform="matrix(0.9778 -0.2097 0.2097 0.9778 -7.0083 56.0844)" fill="#454545" width="2.7" height="0.8"/>
	</g>
	<g>
		<circle fill="#454545" cx="259.5" cy="57.6" r="1.1"/>
		
			<rect x="260.1" y="56.8" transform="matrix(0.9777 -0.2098 0.2098 0.9777 -6.1747 56.1474)" fill="#454545" width="2.7" height="0.8"/>
	</g>
	<g>
		<circle fill="#454545" cx="260.5" cy="53.6" r="1.1"/>
		
			<rect x="261.1" y="52.7" transform="matrix(0.9778 -0.2097 0.2097 0.9778 -5.3119 56.2147)" fill="#454545" width="2.7" height="0.8"/>
	</g>
</g>
</svg>
