<?xml version="1.0" encoding="utf-8"?>
<!-- Generator: Adobe Illustrator 16.0.0, SVG Export Plug-In . SVG Version: 6.00 Build 0)  -->
<!DOCTYPE svg PUBLIC "-//W3C//DTD SVG 1.1//EN" "http://www.w3.org/Graphics/SVG/1.1/DTD/svg11.dtd">
<svg version="1.1" id="Layer_1" xmlns="http://www.w3.org/2000/svg" xmlns:xlink="http://www.w3.org/1999/xlink" x="0px" y="0px"
	 width="449px" height="289px" viewBox="0 0 449 289" enable-background="new 0 0 449 289" xml:space="preserve">
<g>
	<g>
		<rect x="206.3" y="166.2" fill="#FFFFFF" width="55.101" height="73.7"/>
		<g>
			<rect x="206.3" y="166.2" fill="none" stroke="#212121" stroke-width="3" stroke-miterlimit="10" width="55.101" height="73.7"/>
			<path fill="none" stroke="#212121" stroke-miterlimit="10" d="M210.3,166.2l19.9-20.4c0,0,2.3-2.5,3.6-2.5c1.2,0,3.4,2.4,3.4,2.4
				l20.1,20.5"/>
			<g>
				<g>
					<defs>
						<rect id="SVGID_1_" x="210.2" y="170" width="47.3" height="66.2"/>
					</defs>
					<clipPath id="SVGID_2_">
						<use xlink:href="#SVGID_1_"  overflow="visible"/>
					</clipPath>
					<g transform="matrix(1 0 0 1 1.525879e-005 1.525879e-005)" clip-path="url(#SVGID_2_)">
						<g>
							<path fill-rule="evenodd" clip-rule="evenodd" fill="#FDFDFD" d="M261.332,203.248c0,12.625-0.002,25.25,0.011,37.875
								c0,0.369-0.072,0.441-0.439,0.441c-17.981-0.012-35.961-0.012-53.942,0c-0.367,0-0.439-0.072-0.439-0.441
								c0.011-25.285,0.011-50.571,0-75.857c0-0.369,0.072-0.441,0.439-0.441c17.981,0.012,35.961,0.012,53.942,0
								c0.367,0,0.439,0.072,0.439,0.441C261.33,177.927,261.332,190.587,261.332,203.248z"/>
							<path fill-rule="evenodd" clip-rule="evenodd" fill="#F4B518" d="M260.366,240.909c-0.303,0.008-0.604,0.022-0.907,0.022
								c-17.231,0.002-34.463,0.003-51.694,0.003c-0.124,0-0.249-0.016-0.373-0.023c-0.365-0.235-0.329-0.611-0.321-0.967
								c0.067-2.997,0.042-5.995,0.055-8.993c0.008-2.046-0.116-4.091-0.054-6.137c0.089-2.926,0.055-5.852,0.041-8.777
								c-0.007-1.396,0.016-2.793-0.043-4.189c-0.047-1.13,0.06-2.259,0.059-3.389c-0.002-1.542-0.098-3.082-0.019-4.626
								c0.022-0.427,0.16-0.575,0.561-0.575c3.307-0.002,6.613,0,9.919-0.001c0.435,0,0.681,0.162,0.676,0.625
								c-0.001,0.163,0.022,0.323,0.136,0.453c0.264,0.366,0.176,0.791,0.194,1.197c0.024,0.548,0.079,0.608,0.63,0.623
								c0.356,0.01,0.714,0.005,1.07,0.003c0.333-0.001,0.636,0.058,0.871,0.326c0.215,0.246,0.516,0.211,0.8,0.211
								c2.052,0.003,4.104,0.001,6.157,0.002c2.14,0.001,3.34,0.865,4.041,2.908c0.084,0.494,0.153,0.985,0.062,1.492
								c-0.055,0.302,0.028,0.574,0.372,0.682c1.377,0.43,2.729,0.958,4.221,0.862c0.662-0.042,1.317-0.079,1.954-0.27
								c0.938-0.28,1.798-0.169,2.563,0.475c0.755,0.958,1.029,2.118,1.321,3.261c0.469,1.831,0.687,3.693,0.606,5.591
								c-0.038,0.898,0.086,1.005,0.976,0.94c0.586-0.043,1.173-0.092,1.754-0.189c1.353-0.018,2.685-0.237,4.021-0.406
								c0.47-0.06,0.972,0.054,1.397-0.25c0.217-0.121,0.422-0.258,0.541-0.489c0.319-0.611,0.394-1.257,0.277-1.931
								c-0.137-0.795-0.269-1.59-0.537-2.354c-0.521-1.738-1.318-3.368-1.956-5.06c-0.328-0.871-0.696-1.726-0.672-2.691
								c0.028-1.087,0.668-2.013,1.684-2.378c0.39-0.14,0.798-0.192,1.194-0.297c0.086-0.022,0.185-0.053,0.205-0.148
								c0.029-0.137-0.09-0.183-0.184-0.227c-0.194-0.09-0.402-0.146-0.604-0.217c-0.89-0.313-1.335-0.967-1.445-1.883
								c-0.003-0.129-0.046-0.248-0.068-0.372c-0.057-0.324,0.092-0.468,0.402-0.48c0.125-0.006,0.25-0.009,0.375-0.009
								c3.001-0.001,6.002-0.003,9.003,0.001c0.897,0.001,1.007,0.118,1.007,1.031c0,11.954,0,23.908,0,35.862
								C260.634,240.438,260.681,240.736,260.366,240.909z"/>
							<path fill-rule="evenodd" clip-rule="evenodd" fill="#0E0E0E" d="M207.075,194.682c-0.008-0.179-0.022-0.357-0.022-0.536
								c-0.002-9.332,0.001-18.663-0.013-27.994c-0.001-0.467,0.083-0.63,0.595-0.629c7.59,0.021,15.181,0.017,22.771,0.02
								c0.178,0,0.354,0.022,0.531,0.034c0.712-0.174,1.359,0.066,2.007,0.311c0.166,0.062,0.259,0.182,0.288,0.356
								c0.027,0.167,0.061,0.344,0.299,0.241c0.177-0.076,0.339-0.213,0.24-0.412c-0.292-0.594,0.087-0.561,0.468-0.535
								c0.777,0.05,1.583,0.123,2.331,0.081c1.048-0.059,2.097-0.015,3.142-0.078c0.208-0.013,0.434-0.055,0.61,0.121
								c0.039,0.038,0.092,0.074,0.142,0.054c0.98-0.399,2.002-0.156,3-0.164c4.128-0.034,8.255-0.004,12.382-0.027
								c0.522-0.003,0.773,0.181,0.951,0.646c0.357,0.939,0.501,1.911,0.433,2.899c-0.049,0.711-0.088,1.448-0.054,2.13
								c0.038,0.776,0.197,1.645,0.982,2.261c0.596,0.468,1.03,1.17,1.563,1.747c0.271,0.292,0.582,0.524,0.865,0.793
								c0.085,0.163,0.035,0.339,0.047,0.508c-0.235,0.388-0.544,0.34-0.858,0.124c-0.221-0.151-0.42-0.344-0.572-0.561
								c-0.453-0.641-0.903-1.281-1.479-1.843c-0.013,0.306-0.063,0.646,0.062,0.95c0.275,0.676,0.267,1.45,0.724,2.06
								c0.056,0.073,0.076,0.16,0.048,0.254c-0.243,0.817-0.004,1.576,0.289,2.327c0.032,0.083,0.104,0.145,0.158,0.216
								c0.033,0.042,0.062,0.087,0.088,0.134c0.341,0.6,0.457,1.279,0.692,1.913c0.236,0.633,0.323,1.353,0.843,1.861
								c0.013,0.224,0.009,0.447,0.003,0.67c-0.229,0.301-0.525,0.297-0.801,0.113c-0.348-0.23-0.679-0.439-1.124-0.427
								c-0.3,0.009-0.453-0.328-0.786-0.444c0.024,0.439,0.097,0.851-0.108,1.249c-0.153,0.299-0.315,0.414-0.662,0.389
								c-0.504-0.036-0.928-0.176-1.294-0.542c-0.195-0.194-0.417-0.396-0.783-0.422c0.11,0.467-0.026,0.958,0.339,1.357
								c0.19,0.208,0.118,0.452-0.059,0.631c-0.243,0.246-0.438,0.515-0.563,0.84c-0.044,0.117-0.127,0.227-0.272,0.223
								c-0.146-0.004-0.218-0.119-0.254-0.242c-0.258-0.876-0.979-1.114-1.746-1.292c-0.105-0.024-0.219-0.046-0.286,0.07
								c-0.061,0.104-0.03,0.215,0.024,0.308c0.247,0.418,0.521,0.814,0.917,1.108c0.114,0.085,0.241,0.152,0.35,0.248
								c0.493,0.435,0.481,0.649-0.058,1.025c0.021,0.058,0.074,0.074,0.119,0.103c0.373,0.242,0.417,0.605,0.343,0.997
								c-0.051,0.272-0.265,0.369-0.518,0.376c-0.427,0.012-0.773-0.142-0.96-0.548c-0.32-0.7-0.381-0.726-1.117-0.436
								c-0.383,0.15-0.772,0.28-1.17,0.386c-0.282,0.074-0.53,0.037-0.729-0.197c-0.251-0.292-0.278-0.583-0.057-0.919
								c0.712-1.076,0.434-1.954-0.755-2.426c-0.032-0.014-0.063-0.031-0.094-0.048c-0.159-0.141-0.507-0.135-0.428-0.463
								c0.088-0.36,0.289-0.675,0.664-0.784c0.381-0.111,0.737-0.267,1.085-0.45c0.048-0.025,0.095-0.053,0.108-0.11
								c-0.451-0.172-0.962-0.073-1.185,0.296c-0.246,0.41-0.524,0.41-0.896,0.209c-0.307-0.166-0.567-0.367-0.745-0.674
								c-0.089-0.152-0.169-0.317-0.396-0.431c-0.117,0.324-0.417,0.425-0.701,0.568c-0.404,0.205-0.711,0.153-0.977-0.213
								c-0.184-0.255-0.537-0.289-0.726-0.54c-0.126-0.167-0.332-0.321-0.265-0.557c0.07-0.247,0.339-0.228,0.533-0.298
								c0.135-0.049,0.285,0.024,0.453-0.058c-0.151-0.157-0.296-0.204-0.476-0.084c-0.029,0.02-0.061,0.04-0.084,0.066
								c-0.418,0.466-0.724-0.333-1.093-0.108c-0.497,0.302-0.731,0.036-0.994-0.346c-0.532-0.775-1.332-1.023-2.033-0.658
								c0.48,0.521,0.999,0.993,1.523,1.458c0.265,0.234,0.603,0.313,0.938,0.37c0.409,0.072,0.794,0.216,1.17,0.379
								c0.39,0.169,0.427,0.376,0.154,0.705c-0.275,0.333-0.592,0.512-1.031,0.294c-0.163-0.08-0.334-0.214-0.496,0.059
								c-0.237,0.398-1.461,0.742-1.87,0.567c-0.243-0.104-0.229-0.3-0.19-0.497c0.071-0.354,0.037-0.58-0.421-0.577
								c-0.305,0.003-0.564-0.202-0.808-0.39c-0.025-0.048-0.029-0.099-0.011-0.149c0.076-0.079,0.175-0.102,0.276-0.119
								c0.221,0.023,0.304-0.208,0.482-0.263c0.123-0.024,0.295,0.05,0.305-0.186c0.01-0.252-0.154-0.162-0.281-0.168
								c-0.086-0.004-0.164-0.063-0.254-0.041c-0.008,0.018-0.021,0.031-0.028,0.047c-0.074,0.165-0.009,0.459-0.278,0.448
								c-0.263-0.011-0.197-0.292-0.249-0.469c-0.011-0.033-0.019-0.068-0.037-0.099c-0.034-0.028-0.071-0.05-0.114-0.062
								c-0.067-0.01-0.135-0.014-0.203-0.016c-0.188,0.011-0.382-0.033-0.56,0.065c-0.186,0.234,0.057,0.745-0.479,0.753
								c-0.438-0.125-0.146-0.567-0.364-0.842c-0.176,0.401-0.124,0.706,0.206,0.953c0.635,0.555,0.664,1.346,0.689,2.075
								c0.034,1.029,0.153,2.058,0.091,3.091c-0.026,0.428,0.021,0.859-0.018,1.287c-0.036,0.408-0.149,0.448-0.548,0.232
								c-0.298-0.328-0.402-0.754-0.57-1.147c-0.117-0.271,0.02-0.486,0.179-0.688c0.231-0.293,0.345-0.622,0.332-0.998
								c-0.021-0.685-0.328-1.102-0.98-1.312c-0.119-0.038-0.24-0.07-0.364-0.09c-1.248-0.194-1.354-0.104-1.354,1.138
								c0,0.843-0.005,1.687,0.003,2.529c0.002,0.258-0.064,0.559,0.326,0.631c0.381,0.07,0.434-0.22,0.537-0.462
								c0.221-0.177,0.33-0.021,0.383,0.157c0.105,0.357,0.383,0.357,0.676,0.456c0.504,0.169,0.932,0.032,1.382-0.115
								c0.286-0.062,0.582,0.011,0.865-0.065c0.114-0.05,0.138-0.145,0.152-0.26c0.026-0.22-0.078-0.577,0.178-0.614
								c0.396-0.057,0.807-0.369,1.221-0.043c0.135,0.159,0.165,0.348,0.151,0.548c-0.025,0.255-0.172,0.434-0.384,0.55
								c-0.31,0.17-0.272,0.391-0.104,0.624c0.25,0.348,0.424,0.723,1.013,0.693c0.349-0.018,0.806,0.165,1.043,0.566
								c0.075,0.127,0.199,0.207,0.354,0.216c0.108,0.006,0.221-0.004,0.271-0.121c0.041-0.093-0.007-0.179-0.067-0.245
								c-0.209-0.229-0.459-0.396-0.747-0.51c-0.132-0.053-0.282-0.106-0.259-0.293c0.02-0.163,0.148-0.237,0.283-0.295
								c0.187-0.08,0.388-0.121,0.571-0.025c0.491,0.257,0.889,0.039,1.203-0.291c0.251-0.263,0.511-0.356,0.85-0.348
								c0.393,0.01,0.786-0.002,1.179-0.001c0.436,0.001,0.532,0.114,0.313,0.461c-0.275,0.434-0.184,0.679,0.257,0.883
								c0.3,0.139,0.396,0.451,0.501,0.736c0.221,0.598,0.223,0.619,0.833,0.402c0.419-0.148,0.795-0.21,1.122,0.217
								c0.25-0.344,0.228-0.643,0.034-0.961c-0.234-0.386-0.438-0.785-0.37-1.264c0.025-0.183,0.045-0.368,0.271-0.411
								c0.213-0.042,0.345,0.067,0.404,0.262c0.111,0.359,0.452,0.549,0.626,0.865c0.119,0.219,0.341,0.159,0.531,0.11
								c0.661-0.168,1.301-0.391,1.851-0.813c0.279-0.215,0.569-0.331,0.938-0.31c0.415,0.025,0.836-0.01,0.921-0.578
								c0.023-0.16,0.155-0.294,0.349-0.271c0.238,0.028,0.313,0.224,0.351,0.421c0.122,0.627-0.079,1.206-0.282,1.784
								c-0.012,0.033-0.025,0.068-0.047,0.097c-0.399,0.52-0.382,0.94,0.121,1.442c0.331,0.331,0.436,0.88,0.784,1.249
								c0.098,0.104,0.098,0.269,0.087,0.413c-0.012,0.14,0.002,0.312-0.17,0.358c-0.141,0.038-0.222-0.089-0.297-0.188
								c-0.087-0.113-0.178-0.229-0.237-0.357c-0.188-0.397-0.483-0.608-0.906-0.757c-0.545-0.19-0.986-0.639-1.602-0.694
								c-0.12-0.011-0.188-0.155-0.265-0.255c-0.235-0.304-0.544-0.455-0.928-0.446c-0.107,0.002-0.215,0.011-0.32-0.013
								c-0.534-0.115-0.565-0.104-0.388,0.4c0.234,0.666,0.189,1.364-0.293,1.784c-0.638,0.555-1.313,1.19-2.277,1.161
								c-0.199-0.007-0.411-0.037-0.502-0.244c-0.085-0.192,0.106-0.279,0.21-0.393c0.074-0.08,0.149-0.164,0.168-0.271
								c0.088-0.49,0.422-0.622,0.86-0.621c0.185,0.001,0.367-0.032,0.442-0.234c0.08-0.217,0.074-0.421-0.232-0.386
								c-0.378,0.045-0.745,0.044-1.112-0.069c-0.3-0.093-0.399,0.083-0.38,0.342c0.025,0.341,0.038,0.68-0.018,1.019
								c-0.026,0.161-0.029,0.384-0.181,0.426c-0.488,0.135-0.912,0.463-1.434,0.479c-0.125,0.004-0.247-0.023-0.361,0.049
								c-0.656,0.417-1.402,0.324-2.122,0.373c-0.106,0.007-0.215-0.018-0.315-0.057c-0.188-0.074-0.381-0.167-0.378-0.4
								c0.003-0.247,0.211-0.31,0.409-0.352c0.702-0.146,1.371-0.385,2.009-0.716c0.105-0.055,0.25-0.058,0.287-0.216
								c-0.093-0.181-0.299-0.257-0.444-0.241c-0.563,0.062-1.128-0.15-1.687,0.026c-0.291,0.093-0.59,0.134-0.897,0.133
								c-0.625-0.003-1.052-0.287-1.275-0.876c-0.089-0.234-0.17-0.475-0.471-0.574c-0.16,0.907,0.082,1.686,0.652,2.371
								c0.309,0.371,0.209,0.887-0.223,1.108c-0.101,0.052-0.235,0.101-0.303,0.023c-0.249-0.287-0.682-0.193-0.904-0.387
								c-0.538-0.466-0.835-0.074-1.149,0.232c-0.201,0.195-0.415,0.262-0.672,0.271c-1.033,0.012-2.066-0.003-3.1,0.008
								c-0.652,0.007-1.326,0.08-1.572-0.859c-0.223,0.888-0.834,0.862-1.464,0.864c-0.94,0.004-1.891-0.104-2.816,0.159
								c-0.086,0.015-0.179,0.033-0.263,0.01c-0.296-0.082-0.464-0.026-0.583,0.31c-0.114,0.321-0.344,0.59-0.778,0.341
								c-0.315-0.181-0.377,0.007-0.308,0.284c0.043,0.173,0.087,0.345,0.103,0.522c0.014,0.152-0.002,0.291-0.201,0.305
								c-0.437-0.195-0.9-0.311-1.329-0.544c-0.497-0.271-0.705-0.128-0.791,0.415c-0.062,0.391-0.47,0.737-0.992,0.739
								c-0.344,0.002-0.563,0.141-0.758,0.386c-0.276,0.1-0.554,0.09-0.832,0.019c-0.175-0.153-0.343-0.429-0.549-0.028
								c-0.155,0.074-0.311,0.069-0.469,0.014c-0.319-0.221-0.636-0.193-0.951,0.012c-0.281,0.076-0.565,0.065-0.85,0.029
								c-0.224-0.055-0.401-0.188-0.458-0.408c-0.103-0.393-0.256-0.737-0.6-0.981c-0.121-0.086-0.171-0.235-0.06-0.379
								c0.109-0.143,0.261-0.127,0.386-0.051c0.629,0.388,1.308,0.539,2.042,0.498c0.217-0.012,0.408,0.113,0.602,0.205
								c0.614,0.289,1.227,0.341,1.829-0.036c0.108-0.067,0.229-0.149,0.348-0.085c0.238,0.131,0.432,0.262,0.514-0.16
								c0.072-0.366-0.031-0.62-0.387-0.698c-0.344-0.075-0.695-0.162-1.058-0.09c-0.332,0.066-0.672,0.105-1.007,0.123
								c-0.77,0.04-1.624,0.331-2.116-0.628c-0.189,0.226,0.022,0.577-0.264,0.647c-0.333,0.083-0.347-0.291-0.502-0.462
								c-0.18-0.198-0.375-0.381-0.542-0.593c-0.196-0.251-0.457-0.167-0.686-0.064c-0.395,0.179-0.603,0.077-0.778-0.333
								c-0.289-0.679-0.815-1.12-1.555-1.27c-0.052-0.019-0.101-0.045-0.147-0.075c-0.268-0.142-0.561-0.26-0.542-0.648
								c0.004-0.069-0.033-0.153-0.115-0.161c-0.475-0.044-0.899-0.287-1.409-0.238c-1.88,0.178-3.752,0.429-5.637,0.558
								C207.373,194.765,207.212,194.809,207.075,194.682z"/>
							<path fill-rule="evenodd" clip-rule="evenodd" fill="#E7AC1F" d="M229.06,197.165c1.128-0.382,2.297-0.236,3.45-0.242
								c0.459-0.002,0.722-0.098,0.724-0.597c0.001-0.178,0.074-0.332,0.272-0.334c0.233-0.003,0.286,0.182,0.29,0.373
								c0.009,0.438,0.24,0.563,0.654,0.562c1.266-0.008,2.531,0.018,3.797,0.03c0.827-0.055,1.644,0.035,2.457,0.183
								c0.594,0.106,1.179,0.237,1.708,0.545c0.074,0.043,0.141,0.097,0.2,0.158c0.232,0.708,0.674,1.277,1.176,1.812
								c0.229,0.244,0.476,0.425,0.827,0.403c1.13,0.137,2.266,0.176,3.396,0.284c0.266,0.025,0.528,0.069,0.792,0.099
								c0.536,0.059,0.866,0.368,1.108,0.814c0.06,0.069,0.104,0.146,0.138,0.231c0.087,0.384,0.116,0.773-0.051,1.14
								c-0.144,0.313-0.05,0.426,0.269,0.418c0.21-0.006,0.421,0.001,0.632-0.005c0.584,0.008,1.167,0.004,1.75,0.002
								c0.504-0.023,1.008-0.012,1.512-0.004c1.77,0,3.539-0.014,5.309,0.005c0.065-0.001,0.131-0.001,0.196,0.001
								c0.096,0,0.191,0.001,0.287,0.002c0.238,0.03,0.512-0.069,0.692,0.184c0.008,12.368,0.018,24.736,0.015,37.104
								c0,0.207,0.21,0.599-0.294,0.577c0.147-0.265,0.221-0.536,0.221-0.853c-0.009-11.9-0.011-23.801,0.001-35.702
								c0-0.795-0.152-0.958-0.948-0.952c-3.216,0.021-6.432,0.008-9.66,0.008c0.027,0.299,0.055,0.59,0.081,0.882
								c-0.239-0.034-0.306-0.235-0.367-0.417c-0.124-0.363-0.388-0.49-0.742-0.499c-0.214-0.006-0.429-0.008-0.643-0.008
								c-8.596,0-17.19-0.002-25.786,0.001c-1.107,0-2.212,0.057-3.318,0.096c-0.483,0.017-0.75,0.145-0.722,0.668
								c0.006,0.125-0.038,0.248-0.127,0.346c-0.337-0.115-0.243-0.407-0.234-0.639c0.013-0.328-0.105-0.436-0.433-0.435
								c-3.357,0.01-6.715,0.014-10.073-0.004c-0.488-0.003-0.439,0.277-0.439,0.588c0.001,6.604,0,13.208,0,19.812
								c0,5.384,0.001,10.768-0.002,16.151c0,0.341-0.004,0.674,0.218,0.959c-0.22,0.049-0.345-0.029-0.355-0.266
								c-0.01-0.25-0.037-0.501-0.033-0.751c0.079-4.985,0.017-9.97,0.002-14.954c-0.008-2.977,0.036-5.952,0.035-8.929
								c0-3.297-0.031-6.595-0.035-9.892c-0.001-0.967,0.044-1.935,0.069-2.901c0.175-0.197,0.413-0.197,0.645-0.197
								c3.001,0.001,6.002-0.02,9.002,0.008c0.267,0.022,0.536,0.03,0.802,0.011c0.214-0.015,0.513,0.123,0.616-0.166
								c0.096-0.271,0.08-0.57-0.131-0.813c-0.158-0.183-0.235-0.394-0.252-0.637c-0.056-0.781,0.31-1.23,1.099-1.275
								c1.138-0.064,2.278-0.083,3.418-0.117c1.652-0.051,3.304-0.165,4.947-0.358c0.691-0.082,1.262-0.974,1.06-1.625
								c-0.12-0.39,0.159-0.553,0.379-0.745C228.763,197.212,228.935,197.241,229.06,197.165z"/>
							<path fill-rule="evenodd" clip-rule="evenodd" fill="#181919" d="M216.825,203.201c-2.839,0.009-5.678,0.02-8.518,0.027
								c-0.411,0.001-0.822-0.007-1.232-0.011c0-1.588,0-3.177,0-4.765c0.3-0.167,0.517,0.051,0.729,0.187
								c0.53,0.339,1.033,0.416,1.598,0.052c0.293-0.189,0.661-0.252,0.962-0.456c0.252-0.172,0.512-0.074,0.754,0.074
								c0.118,0.072,0.244,0.199,0.389,0.106c0.155-0.098,0.061-0.261,0.037-0.395c-0.104-0.59-0.321-0.702-0.984-0.71
								c-1.019-0.014-2.011,0.25-3.027,0.242c-0.158-0.002-0.321,0.06-0.458-0.07c0-0.934,0-1.868,0.001-2.802
								c1.836-0.169,3.66-0.454,5.504-0.536c0.336-0.016,0.658-0.112,0.999-0.124c0.41-0.014,0.736,0.417,1.18,0.186
								c0.055-0.029,0.167,0.156,0.127,0.255c-0.159,0.4,0.054,0.536,0.388,0.614c0.027,0.007,0.036,0.095,0.053,0.145
								c-0.311,0.34-0.312,0.586-0.003,0.911c0.112,0.117,0.26,0.189,0.38,0.296c0.135,0.119,0.177,0.27,0.12,0.438
								c-0.058,0.174-0.19,0.279-0.369,0.232c-0.25-0.066-0.411,0.054-0.568,0.207c-0.093,0.09-0.333,0.037-0.287,0.246
								c0.036,0.165,0.195,0.247,0.354,0.298c0.488,0.152,0.926-0.128,1.014-0.657c0.029-0.175,0.003-0.367,0.24-0.425
								c0.033-0.008,0.112,0.007,0.092,0c-0.424-0.148-0.304-0.721-0.72-0.898c-0.227-0.097-0.456-0.32-0.253-0.648
								c0.939,0.014,1.434,0.641,1.787,1.389c0.128,0.271,0.141,0.384,0.458,0.211c0.401-0.218,0.821-0.355,1.083,0.264
								c0.122,0.287,0.581,0.361,0.583,0.777c0,0.036,0.112,0.11,0.158,0.101c0.146-0.031,0.108-0.161,0.094-0.262
								c-0.025-0.177-0.228-0.42,0.054-0.498c0.226-0.063,0.445,0.094,0.509,0.363c0.064,0.275,0.24,0.338,0.509,0.358
								c0.769,0.057,1.517-0.092,2.273-0.169c0.492-0.05,0.99-0.055,1.416,0.245c0.24,0.169,0.245,1.069,0.022,1.249
								c-0.153,0.123-0.271,0.015-0.345-0.118c-0.122-0.22-0.232-0.268-0.455-0.09c-0.58,0.466-1.219,0.365-1.839,0.102
								c-0.296-0.126-0.567-0.296-0.909-0.26c-0.658,0.071-1.25-0.104-1.787-0.491c-0.092-0.066-0.215-0.167-0.329-0.025
								c-0.066,0.082-0.04,0.191,0.047,0.229c0.471,0.203,0.624,0.593,0.671,1.067c0.014,0.142,0.156,0.233,0.289,0.299
								c0.005,0.316-0.23,0.265-0.417,0.265c-0.322,0.001-0.638,0.027-0.958,0.079c-0.284,0.045-0.441,0.191-0.43,0.449
								c0.022,0.472-0.213,0.989,0.312,1.385c0.207,0.155,0.137,0.514,0.046,0.767c-0.083,0.231-0.327,0.16-0.517,0.182
								C217.376,203.118,217.078,202.996,216.825,203.201z"/>
							<path fill-rule="evenodd" clip-rule="evenodd" fill="#191919" d="M260.563,176.05c-0.639-0.118-0.885-0.717-1.301-1.101
								c-0.383-0.354-0.813-0.697-0.979-1.24c-0.023-0.076-0.11-0.172-0.182-0.188c-0.589-0.121-0.719-0.548-0.772-1.066
								c-0.022-0.225-0.102-0.476-0.238-0.648c-0.169-0.213-0.199-0.439-0.146-0.653c0.287-1.173,0.108-2.358,0.075-3.532
								c-0.018-0.653-0.328-1.282-0.584-1.893c-0.089-0.213-0.352-0.129-0.54-0.129c-2.716-0.004-5.432-0.003-8.147-0.003
								c-2.197,0-4.396,0.001-6.594-0.001c-0.271,0-0.563-0.047-0.531,0.383c0.006,0.087-0.05,0.186-0.156,0.18
								c-0.104-0.005-0.138-0.104-0.153-0.193c-0.062-0.354-0.31-0.376-0.602-0.372c-0.769,0.012-1.536,0.006-2.305,0.004
								c-0.268-0.001-0.531-0.033-0.688,0.28c-0.084,0.169-0.255,0.142-0.335-0.02c-0.132-0.264-0.351-0.264-0.59-0.263
								c-0.675,0.005-1.35,0.002-2.058,0.002c0.07,0.279,0.389,0.419,0.308,0.688c-0.071,0.24-0.327,0.336-0.526,0.43
								c-0.268,0.126-0.55,0.057-0.449-0.316c0.087-0.328-0.064-0.335-0.293-0.412c-0.6-0.204-1.171-0.515-1.839-0.41
								c1.676-0.016,3.352-0.045,5.026-0.046c8.052-0.004,16.103-0.001,24.153,0.002c0.156,0,0.321-0.053,0.468,0.049
								c0.072,0.115,0.049,0.243,0.049,0.367c0.001,3.23,0.001,6.461-0.002,9.691C260.631,175.777,260.68,175.93,260.563,176.05z"/>
							<path fill-rule="evenodd" clip-rule="evenodd" fill="#1D1D1D" d="M260.563,176.05c0.008-3.489,0.015-6.979,0.021-10.469
								c0.182,0.138,0.086,0.332,0.086,0.496c0.005,12.204,0.003,24.409,0,36.613c0,0.18-0.016,0.358-0.024,0.537
								c-0.234-0.008-0.469-0.017-0.704-0.025c-0.172-0.19,0.32-0.636-0.291-0.679c0.078,0.229,0.301,0.441,0.07,0.677
								c-0.035,0.002-0.069,0.004-0.104,0.005c-0.204-0.128-0.486-0.113-0.627-0.361c-0.064-0.113-0.171-0.131-0.254-0.011
								c-0.215,0.311-0.478,0.231-0.758,0.114c-0.256-0.106-0.488-0.1-0.758,0.046c-0.511,0.275-1.093,0.247-1.591,0.017
								c-0.369-0.171-0.695-0.325-1.104-0.244c-0.195,0.039-0.366-0.133-0.573-0.096c-0.013,0.213,0.385,0.268,0.196,0.537
								c-0.5-0.001-1-0.002-1.501-0.003c-0.016-0.022-0.03-0.046-0.046-0.068c0.002-0.056,0.019-0.107,0.047-0.155
								c0.288-0.668,0.267-0.805-0.208-1.24c-0.095-0.086-0.192-0.173-0.145-0.317c0.04-0.121,0.154-0.159,0.259-0.146
								c0.377,0.049,0.384-0.175,0.394-0.46c0.022-0.637-0.096-1.292,0.193-1.902c0.03-0.063,0.04-0.138,0.072-0.202
								c0.085-0.165,0.196-0.325,0.401-0.294c0.232,0.035,0.257,0.26,0.225,0.424c-0.127,0.645,0.138,1.234,0.223,1.848
								c0.097,0.694,0.391,1.259,1.102,1.513c0.254,0.091,0.437,0.309,0.688,0.405c0.051,0.014,0.101,0.029,0.15,0.044
								c0.458,0.031,0.778-0.441,1.272-0.305c-0.022-0.229-0.175-0.287-0.298-0.271c-0.429,0.06-0.8-0.124-1.19-0.232
								c-0.818-0.226-1.495-0.987-1.601-1.822c-0.05-0.39,0.122-0.587,0.507-0.556c0.25,0.021,0.532,0.058,0.682,0.266
								c0.295,0.414,0.731,0.53,1.166,0.696c0.676,0.259,1.301,0.602,1.563,1.356c0.056,0.158,0.16,0.308,0.354,0.243
								c0.199-0.066,0.1-0.24,0.078-0.369c-0.129-0.781-0.395-1.521-0.697-2.248c-0.072-0.175-0.218-0.277-0.362-0.383
								c-0.2-0.146-0.348-0.329-0.253-0.592c0.104-0.29,0.31-0.505,0.631-0.498c0.748,0.018,1.458,0.158,1.948,0.813
								c0.164,0.226,0.21,0.538,0.491,0.686c0.19-0.069,0.141-0.234,0.141-0.363c0.005-1.344,0.004-2.687,0.004-4.03
								c0-0.239-0.033-0.466-0.191-0.655c-0.247-0.296-0.226-0.584,0.013-0.873c0.094-0.112,0.198-0.262,0.138-0.39
								c-0.327-0.691-0.147-1.522-0.632-2.207c-0.153,0.145-0.303,0.369-0.557,0.192c-0.207-0.145-0.274-0.374-0.155-0.567
								c0.442-0.719,0.103-1.352-0.2-1.974c-0.171-0.351-0.221-0.664-0.053-1.02c0.167-0.355,0.123-0.693-0.126-1.006
								c-0.229-0.285-0.298-0.604-0.167-0.957c0.093-0.254,0.003-0.493-0.066-0.734c-0.052-0.184-0.068-0.375,0.161-0.44
								c0.192-0.055,0.314,0.084,0.354,0.246c0.079,0.312,0.284,0.47,0.56,0.598c0.318,0.148,0.503,0.445,0.679,0.739
								c0.022,0.048,0.036,0.098,0.044,0.149c-0.29,0.406-0.158,0.879-0.201,1.323c-0.012,0.116-0.172,0.298,0.083,0.338
								c0.222,0.034,0.335-0.077,0.31-0.312c-0.019-0.792-0.018-1.582-0.011-2.373c0.017-0.165,0.031-0.332,0.145-0.467
								c0-0.246,0-0.493-0.001-0.739c-0.165-0.22-0.168-0.491-0.111-0.72c0.115-0.465-0.412-0.854-0.124-1.325
								c0.01-0.017-0.119-0.056-0.179-0.094c-0.139-0.091-0.256-0.217-0.3-0.366c-0.153-0.526-0.353-1.012-0.878-1.275l0,0
								c-0.218-0.21-0.192-0.53-0.346-0.772c-0.058-0.092-0.065-0.213,0.028-0.296c0.116-0.102,0.258-0.061,0.336,0.034
								c0.276,0.338,0.64,0.441,1.049,0.546c0.354,0.091,0.33,0.541,0.428,0.817c-0.022-0.208-0.042-0.455-0.032-0.702
								c0.01-0.268-0.064-0.489-0.302-0.645c-0.187-0.122-0.3-0.301-0.333-0.527c-0.029-0.203,0.01-0.379,0.253-0.371
								c0.374,0.012,0.37-0.229,0.386-0.495c0.023-0.387-0.099-0.79,0.125-1.154C260.564,176.396,260.563,176.224,260.563,176.05z"
								/>
							<path fill-rule="evenodd" clip-rule="evenodd" fill="#0E0E0E" d="M207.074,197.483c0.772-0.22,1.582-0.057,2.372-0.284
								c0.435-0.125,0.973-0.041,1.463-0.027c0.492,0.013,1.064,0.848,0.898,1.282c-0.07,0.182-0.304,0.305-0.441,0.186
								c-0.475-0.414-0.821-0.381-1.373-0.013c-0.842,0.563-1.804,0.688-2.669-0.092c-0.06-0.054-0.166-0.057-0.25-0.082
								C207.075,198.13,207.074,197.807,207.074,197.483z"/>
							<path fill-rule="evenodd" clip-rule="evenodd" fill="#151515" d="M218.355,204.479c-0.074-1.216-0.074-1.215,1.115-1.216
								c9.729-0.009,19.457-0.017,29.186-0.025c0.945-0.001,0.944,0,1.29,0.877c0.025,0.064,0.076,0.118,0.114,0.178
								c0.201,0.924,0.766,1.47,1.678,1.699c0.267,0.067,0.708,0.066,0.681,0.458c-0.028,0.39-0.463,0.31-0.737,0.354
								c-1.06,0.174-1.946,0.571-2.357,1.666c-0.218,0.579-0.186,1.162-0.031,1.741c0.422,1.578,1.151,3.038,1.737,4.554
								c0.282,0.731,0.601,1.451,0.766,2.224c0.052,0.072,0.047,0.147,0.015,0.225c-0.444-0.045-0.851-0.183-1.182-0.499
								c-0.185-0.177-0.387-0.331-0.652-0.333c-0.698-0.005-1.212-0.39-1.683-0.837c-0.326-0.311-0.674-0.586-1.049-0.829
								c-0.122-0.08-0.262-0.155-0.393-0.038c-0.158,0.144-0.061,0.298,0.027,0.434c0.118,0.182,0.276,0.33,0.436,0.473
								c0.335,0.302,0.669,0.578,0.602,1.119c-0.034,0.271,0.287,0.387,0.434,0.583c0.098,0.13,0.234,0.267,0.125,0.43
								c-0.12,0.18-0.315,0.14-0.484,0.061c-0.29-0.136-0.562-0.308-0.846-0.456c-0.65-0.341-1.335-0.546-2.038-0.738
								c-0.778-0.212-0.937-0.621-0.662-1.379c0.067-0.186,0.095-0.346-0.066-0.488c-0.241-0.212-0.466-0.445-0.743-0.614
								c-0.091-0.055-0.189-0.128-0.294-0.056c-0.101,0.07-0.091,0.19-0.071,0.297c0.073,0.394,0.208,0.765,0.468,1.072
								c0.214,0.254,0.323,0.501,0.144,0.826c-0.146,0.265-0.05,0.483,0.19,0.646c0.251,0.17,0.484,0.369,0.783,0.456
								c0.086,0.025,0.195,0.041,0.243,0.105c0.608,0.817,1.459,0.511,2.232,0.465c0.458-0.027,0.852-0.001,1.165,0.362
								c0.377,0.438,0.911,0.177,1.357,0.311c0.105,0.031,0.111-0.043,0.108-0.123c-0.013-0.468,0.29-0.407,0.585-0.346
								c0.104,0.021,0.204,0.1,0.307,0.091c0.435-0.038,0.63,0.161,0.71,0.585c0.053,0.281,0.329,0.456,0.506,0.679
								c0.068,0.389,0.216,0.789-0.426,0.861c-0.235,0.026-0.361,0.284-0.048,0.438c0.393,0.193,0.15,0.346-0.028,0.434
								c-0.3,0.146-0.568,0.28-0.61,0.665c-0.018,0.167-0.189,0.225-0.328,0.223c-0.376-0.006-0.74,0.065-1.109,0.118
								c-0.341,0.049-0.58-0.035-0.775-0.386c-0.246-0.441-0.602-0.825-1.29-0.77c0.387,0.504,0.86,0.788,1.3,1.185
								c-0.616,0.176-1.18,0.17-1.734,0.237c-0.179,0.021-0.302-0.081-0.433-0.173c0.034,0.096,0.124,0.203-0.074,0.23
								c-0.171,0.023-0.355-0.061-0.515,0.062c-0.682,0.144-1.376,0.17-2.068,0.188c-0.803,0.022-0.835-0.014-0.814-0.843
								c0.027-1.074,0.055-2.146-0.117-3.212c-0.266-1.643-0.555-3.279-1.213-4.819c-0.146-0.342-0.344-0.659-0.519-0.988
								c-0.464-0.48-1.051-0.624-1.691-0.624c-0.187,0-0.438,0.062-0.327-0.288c0.091-0.188,0.277-0.269,0.432-0.385
								c1.051-0.792,1.273-1.485,0.881-2.749c-0.144-0.372-0.326-0.709-0.754-0.817c-0.069-0.016-0.143-0.027-0.204-0.061
								c-0.678-0.368-0.979-0.435-1.365,0.688c-0.121,0.354-0.212,0.718-0.426,1.032c-0.179,0.149-0.266,0.467-0.561,0.404
								c-0.257-0.054-0.41-0.253-0.407-0.54c-0.025-0.393,0.026-0.789-0.047-1.178c-0.106-0.56-0.302-0.732-0.864-0.742
								c-0.867-0.014-1.745-0.093-2.541,0.381c-0.306,0-0.447-0.181-0.495-0.461c-0.019-0.106-0.019-0.216-0.047-0.319
								c-0.038-0.135-0.067-0.332-0.248-0.286c-0.192,0.049-0.117,0.229-0.063,0.359c0.063,0.148,0.126,0.295,0.174,0.45
								c0.22,0.723-0.144,1.408-0.129,2.117c0.003,0.124-0.087,0.249-0.246,0.226c-0.275-0.04-0.185-0.309-0.271-0.467
								c-0.271-0.602-0.509-1.227-0.979-1.709c-0.692-0.709-1.548-1.092-2.532-1.102c-2.316-0.023-4.634-0.018-6.951-0.017
								c-0.281,0-0.531,0.001-0.636-0.336c-0.076-0.243-0.299-0.215-0.495-0.216c-0.535-0.002-1.07-0.013-1.604,0.004
								c-0.325,0.01-0.428-0.116-0.435-0.44C218.425,205.391,218.542,204.924,218.355,204.479z"/>
							<path fill-rule="evenodd" clip-rule="evenodd" fill="#282218" d="M232.066,209.661c0.152,0.086,0.074,0.43,0.31,0.362
								c0.203-0.059,0.116-0.32,0.098-0.479c-0.062-0.523,0.313-1,0.131-1.543c-0.065-0.196-0.04-0.426-0.206-0.587
								c-0.169-0.163-0.17-0.353-0.063-0.534c0.072-0.123,0.217-0.227,0.359-0.152c0.172,0.091,0.304,0.237,0.326,0.459
								c0.028,0.293-0.142,0.686,0.351,0.767c0.088,0.229-0.079,0.367-0.188,0.524c-0.841,1.219-0.471,2.614,0.852,3.275
								c0.677,0.338,1.409,0.385,2.133,0.437c0.872,0.063,1.747,0.03,2.604-0.194c0.186-0.049,0.38-0.122,0.565,0.01
								c-0.089,0.334,0.166,0.234,0.312,0.234c0.431-0.001,0.838,0.084,1.221,0.285c0.174,0.091,0.35,0.178,0.396,0.396
								c-0.853-0.635-1.758-0.592-2.744-0.332c-1.763,0.463-3.501,0.229-5.192-0.41c-0.117-0.044-0.233-0.088-0.354-0.123
								c-0.968-0.285-0.982-0.286-0.87-1.271C232.15,210.402,232.024,210.037,232.066,209.661z"/>
							<path fill-rule="evenodd" clip-rule="evenodd" fill="#272625" d="M251.773,217.196c0.008-0.069,0.015-0.139,0.022-0.208
								c0.434,1.201,0.749,2.422,0.542,3.716c-0.042,0.259-0.079,0.536-0.325,0.707c-0.234,0.051-0.373,0.201-0.441,0.427
								c-0.467,0.426-1.066,0.308-1.613,0.372c-1.317,0.156-2.629,0.374-3.96,0.385c0.13-0.209,0.377-0.04,0.537-0.167
								c-0.135-0.131-0.358,0.038-0.567-0.295c0.927,0.189,1.761,0.393,2.568,0.076c-0.462-0.231-0.804-0.669-1.234-0.998
								c-0.262-0.2,0.074-0.283,0.21-0.325c0.37-0.115,1.09,0.259,1.336,0.801c0.225,0.498,0.517,0.546,0.961,0.403
								c0.148-0.048,0.317-0.037,0.477-0.039c0.311-0.006,0.604,0.02,0.577-0.46c-0.012-0.196,0.146-0.396,0.419-0.408
								c0.16-0.008,0.308-0.082,0.453-0.237c-1.081,0.044-0.184-0.575-0.397-0.886c0.667,0.239,0.667,0.239,0.663-0.593
								C251.209,218.782,251.59,217.979,251.773,217.196z"/>
							<path fill-rule="evenodd" clip-rule="evenodd" fill="#A77B14" d="M231.403,216.332c-0.318,0.042-0.426-0.158-0.454-0.485
								c-0.152,0.405-0.31,0.674-0.692,0.316c-0.066-0.063-0.104-0.015-0.161-0.012c-0.617,0.028-0.671-0.052-0.631-0.664
								c0.021-0.303,0.169-0.396,0.409-0.31c0.203,0.073,0.365,0.167,0.574,0.003c0.105-0.083,0.271,0.009,0.331,0.101
								c0.309,0.473,0.189-0.144,0.315-0.119c0.317-0.115,0.579-0.037,0.641,0.307C231.795,215.798,231.895,216.194,231.403,216.332
								z"/>
							<path fill-rule="evenodd" clip-rule="evenodd" fill="#A47517" d="M237.425,215.865c-0.193,0.062,0.135,0.429-0.188,0.295
								c-0.146-0.062-0.545,0.217-0.476-0.258c0.033-0.226-0.106-0.522,0.084-0.668c0.268-0.204,0.476,0.015,0.634,0.243
								c0.132-0.286,0.328-0.471,0.606-0.199c0.187,0.183,0.184,0.45,0.092,0.705c-0.059,0.163-0.144,0.307-0.32,0.319
								C237.568,216.323,237.52,216.045,237.425,215.865z"/>
							<path fill-rule="evenodd" clip-rule="evenodd" fill="#DBAB32" d="M233.439,216.214c-0.41,0.258-0.859,0.069-1.287,0.114
								c0.082-0.223,0.314-0.244,0.483-0.329c0.167-0.084,0.181-0.198,0.196-0.338c0.012-0.108,0.013-0.233-0.119-0.26
								c-0.145-0.028-0.164,0.104-0.188,0.206c-0.023,0.104-0.022,0.212-0.04,0.317c-0.038,0.23-0.204,0.276-0.394,0.264
								c-0.186-0.012-0.204-0.152-0.215-0.308c-0.019-0.251,0.044-0.491,0.072-0.736c0.535-0.133,1.068-0.195,1.597,0.023
								C233.171,215.481,233.336,215.852,233.439,216.214z"/>
							<path fill-rule="evenodd" clip-rule="evenodd" fill="#9C6F0C" d="M231.949,215.145c0.094,0.042,0.319,0.137,0.204,0.174
								c-0.419,0.135,0.089,0.48-0.184,0.626c-0.048,0.025,0.045,0.153,0.147,0.166c0.113,0.014,0.222,0.002,0.239-0.138
								c0.017-0.123,0.018-0.249,0.016-0.374c-0.003-0.233,0.021-0.458,0.332-0.412c0.252,0.037,0.392,0.202,0.271,0.457
								c-0.085,0.182-0.009,0.343,0,0.578c-0.335-0.256-0.568-0.022-0.823,0.107c-0.031-0.001-0.063,0.001-0.094,0.003
								c-0.438-0.141-0.535-0.659-0.221-1.174C231.875,215.153,231.912,215.149,231.949,215.145z"/>
							<path fill-rule="evenodd" clip-rule="evenodd" fill="#9F740E" d="M234.644,215.666c0.009,0.271-0.017,0.476-0.255,0.583
								c-0.252,0.113-0.417,0.087-0.414-0.238c0.001-0.106,0-0.214,0.006-0.32c0.013-0.219-0.072-0.521,0.29-0.507
								C234.581,215.195,234.682,215.421,234.644,215.666z"/>
							<path fill-rule="evenodd" clip-rule="evenodd" fill="#8A600D" d="M236.227,215.217c0.174,0.292,0.107,0.49,0.125,0.679
								c0.01,0.099,0.037,0.229-0.081,0.282c-0.13,0.058-0.182-0.066-0.234-0.152c-0.248-0.406-0.171,0.115-0.314,0.095
								c0-0.262,0-0.528,0-0.781C235.897,215.113,236.085,215.99,236.227,215.217z"/>
							<path fill-rule="evenodd" clip-rule="evenodd" fill="#A2720D" d="M235.281,215.213c-0.294,0.264-0.299,0.795-0.063,1.044
								c-0.153,0.119-0.322,0.106-0.408-0.043c-0.156-0.274-0.118-0.59-0.041-0.877C234.83,215.113,235.032,215.158,235.281,215.213
								z"/>
							<path fill-rule="evenodd" clip-rule="evenodd" fill="#DBAB32" d="M231.838,215.158c-0.094,0.423-0.334,0.874,0.221,1.174
								c-0.219,0-0.437,0-0.655,0c0.369-0.234,0.238-0.604,0.202-0.913c-0.029-0.254-0.295-0.258-0.511-0.257
								C231.341,214.957,231.59,215.043,231.838,215.158z"/>
							<path fill-rule="evenodd" clip-rule="evenodd" fill="#AB7604" d="M233.439,216.214c-0.416-0.226-0.116-0.654-0.255-0.969
								c-0.035-0.08,0.229-0.073,0.362-0.077C233.444,215.51,233.437,215.861,233.439,216.214z"/>
							<path fill-rule="evenodd" clip-rule="evenodd" fill="#A17A08" d="M236.562,215.194c0.16,0.404,0.144,0.688,0.029,1.073
								C236.388,215.892,236.414,215.607,236.562,215.194z"/>
							<path fill-rule="evenodd" clip-rule="evenodd" fill="#151515" d="M251.571,221.838c-0.098-0.37,0.063-0.526,0.441-0.427
								C251.961,221.653,251.776,221.756,251.571,221.838z"/>
							<path fill-rule="evenodd" clip-rule="evenodd" fill="#151515" d="M260.152,186.063c-0.335-0.297-0.523-0.757-1.058-0.832
								c-0.228-0.032-0.221-0.329-0.247-0.546c-0.015-0.128-0.098-0.25-0.258-0.186c-0.139,0.056-0.091,0.173-0.042,0.272
								c0.171,0.35,0.247,0.684,0.027,1.062c-0.116,0.198,0.021,0.435,0.176,0.583c0.407,0.39,0.39,0.824,0.154,1.271
								c-0.144,0.271-0.106,0.464,0.041,0.733c0.221,0.402,0.335,0.863,0.508,1.293c0.071,0.179,0.003,0.298-0.086,0.443
								c-0.101,0.165-0.16,0.355-0.231,0.538c-0.078,0.201,0.055,0.319,0.204,0.375c0.188,0.07,0.243-0.085,0.271-0.235
								c0.022-0.121,0.015-0.29,0.18-0.274c0.152,0.015,0.147,0.181,0.146,0.306c-0.002,0.156,0.063,0.275,0.172,0.378
								c0.194,0.18,0.278,0.325,0.146,0.641c-0.114,0.274,0.103,0.625,0.229,0.924c0.128,0.301,0.183,0.567-0.121,0.813
								c-0.252,0.204-0.277,0.452-0.003,0.675c0.205,0.167,0.221,0.388,0.22,0.629c-0.005,1.434,0.001,2.867-0.007,4.301
								c-0.001,0.165,0.098,0.403-0.115,0.479c-0.225,0.081-0.351-0.146-0.456-0.297c-0.13-0.188-0.253-0.392-0.278-0.632
								c-0.077-0.121-0.144-0.248-0.213-0.372c-0.313-0.556-0.851-0.784-1.471-0.598c-0.223,0.066-0.448,0.117-0.671,0.183
								c-0.256,0.075-0.487,0.105-0.669-0.152c-0.059-0.084-0.153-0.188-0.267-0.103c-0.125,0.094-0.059,0.227-0.006,0.341
								c0.029,0.065,0.072,0.124,0.111,0.184c0.141,0.217,0.104,0.4-0.156,0.44c-0.369,0.057-0.563,0.28-0.688,0.599
								c-0.123,0.313-0.316,0.369-0.638,0.271c-0.324-0.1-0.648-0.187-0.958-0.327c-0.258-0.116-0.31-0.344-0.308-0.578
								c0.003-0.247,0.216-0.305,0.414-0.343c0.195-0.037,0.37-0.135,0.558-0.188c0.464-0.129,0.693-0.404,0.645-0.901
								c-0.018-0.178,0.001-0.362,0.087-0.525c0.149-0.284,0.297-0.459,0.659-0.202c0.501,0.354,1.134,0.189,1.707,0.361
								c-0.043-0.156-0.152-0.244-0.153-0.378c-0.002-0.212,0.059-0.39,0.308-0.271c0.341,0.162,0.746,0.121,1.058,0.361
								c0.087,0.066,0.199,0.114,0.282,0c0.073-0.101,0.04-0.257-0.045-0.289c-0.708-0.271-0.931-1.058-1.535-1.431
								c-0.244-0.15-0.504-0.274-0.727-0.457c-0.328-0.271-0.657-0.5-1.11-0.274c-0.107,0.053-0.244-0.02-0.385-0.001
								c0.122,0.316,0.402,0.42,0.63,0.579c0.28,0.196,0.47,0.438,0.439,0.806c-0.032,0.39-0.359,0.513-0.621,0.684
								c-0.208,0.135-0.372-0.015-0.521-0.147c-0.271-0.239-0.463-0.545-0.679-0.83c-0.188-0.246-0.396-0.462-0.678-0.598
								c-0.758-0.365-1.051-0.236-1.299,0.561c-0.064,0.206-0.079,0.402,0.084,0.549c0.286,0.259,0.324,0.586,0.304,0.935
								c-0.022,0.385,0.087,0.745,0.171,1.112c0.054,0.236,0.045,0.493-0.218,0.602c-0.261,0.108-0.494-0.019-0.676-0.207
								c-0.198-0.206-0.159-0.413,0.033-0.614c0.144-0.149,0.274-0.347,0.041-0.496c-0.227-0.146-0.354,0.042-0.441,0.238
								c-0.052,0.113-0.103,0.247-0.263,0.214c-0.147-0.029-0.173-0.169-0.202-0.29c-0.056-0.23-0.096-0.46,0.102-0.654
								c0.273-0.271,0.152-0.449-0.166-0.418c-0.409,0.039-0.767-0.063-1.144-0.18c-0.398-0.125-0.77,0.046-1.122,0.238
								c-0.628,0.342-1.269,0.313-1.911,0.049c0.196,0.074,0.275,0.256,0.374,0.424c0.327,0.563,0.411,0.585,0.956,0.269
								c0.047-0.026,0.091-0.058,0.139-0.082c0.639-0.332,1.319-0.011,1.403,0.702c0.053,0.444,0.115,0.89,0.13,1.338
								c0.009,0.298,0.059,0.646-0.301,0.792c-0.338,0.139-0.515-0.148-0.72-0.34c-0.03-0.043-0.052-0.089-0.069-0.139
								c-0.039-0.25-0.088-0.492-0.336-0.633c-0.255-0.146-0.281-0.435-0.415-0.733c-0.194,0.487-0.479,0.877-0.359,1.398
								c0.069,0.303-0.217,0.419-0.386,0.592c-0.444,0.143-0.896,0.429-1.306-0.07c-0.281-0.381-0.639-0.701-0.743-1.214
								c-0.052-0.253-0.39-0.348-0.594-0.521c-0.4-0.339-0.412-0.432-0.056-0.795c0.073-0.075,0.188-0.134,0.141-0.26
								c-0.045-0.122-0.172-0.109-0.276-0.115c-0.327-0.019-0.641,0.041-0.935,0.19c-0.207,0.105-0.408,0.228-0.652,0.219
								c-0.276-0.01-0.246,0.197-0.263,0.372c-0.106,0.241-0.283,0.31-0.524,0.218c-0.29-0.173,0.104-0.469-0.147-0.682
								c-0.028,0.205,0.002,0.387,0.012,0.567c-0.013,0.021-0.026,0.042-0.039,0.063c-1.188-0.538-2.463-0.653-3.736-0.78
								c-0.156-0.016-0.323,0.021-0.466-0.08c0.263-0.038,0.829-0.517,0.918-0.758c0.118-0.319,0.372-0.15,0.453-0.037
								c0.242,0.337,0.531,0.442,0.924,0.364c0.069-0.014,0.205,0.045,0.227,0.103c0.126,0.328,0.287,0.403,0.511,0.096
								c0.175-0.242,0.405-0.408,0.058-0.794c-0.428-0.474-0.874-1.032-0.712-1.791c0.028-0.132-0.017-0.283-0.045-0.422
								c-0.035-0.171-0.146-0.387,0.048-0.479c0.166-0.079,0.331,0.09,0.448,0.224c0.104,0.119,0.208,0.252,0.265,0.397
								c0.316,0.812,0.618,1.018,1.495,0.923c0.543-0.06,1.044-0.237,1.638-0.168c0.363,0.042,0.746,0.052,1.113,0.165
								c0.122,0.037,0.257,0.064,0.261,0.224c0.003,0.154-0.133,0.205-0.246,0.248c-0.775,0.299-1.503,0.73-2.347,0.83
								c-0.146,0.017-0.308,0.021-0.321,0.208c-0.013,0.182,0.158,0.226,0.286,0.271c0.114,0.042,0.247,0.072,0.364,0.055
								c0.715-0.104,1.507,0.13,2.11-0.476c0.022-0.023,0.079-0.048,0.095-0.036c0.41,0.295,0.68-0.104,1.012-0.199
								c0.661-0.19,0.825-0.429,0.743-1.13c-0.013-0.105-0.039-0.211-0.044-0.317c-0.029-0.619,0.068-0.699,0.664-0.506
								c0.317,0.104,0.628,0.117,0.944,0.027c0.222-0.064,0.504-0.097,0.492,0.192c-0.011,0.252,0.058,0.659-0.381,0.718
								c-0.176,0.024-0.357-0.001-0.535,0.014c-0.181,0.015-0.347,0.063-0.425,0.265c-0.18,0.464-0.282,0.626-0.514,0.833
								c0.431,0.295,0.867,0.124,1.26-0.01c0.497-0.171,0.793-0.715,1.349-0.816c-0.17-0.489,0.74-0.639,0.357-1.283
								c-0.137-0.229-0.248-0.67-0.211-1.04c0.011-0.104-0.014-0.226,0.104-0.283c0.129-0.063,0.245-0.035,0.327,0.087
								c0.115,0.172,0.268,0.212,0.466,0.17c0.513-0.109,0.886,0.112,1.145,0.54c0.07,0.115,0.131,0.238,0.268,0.226
								c0.836-0.075,1.31,0.729,2.081,0.864c0.232,0.041,0.383,0.542,0.575,0.829c0.065,0.098,0.066,0.25,0.255,0.284
								c0.056-0.206,0.116-0.499-0.014-0.597c-0.646-0.485-0.563-1.521-1.404-1.846c-0.138-0.054-0.149-0.154-0.021-0.289
								c0.616-0.648,0.828-1.452,0.829-2.326c0-0.215,0.003-0.507-0.246-0.526c-0.269-0.021-0.275,0.269-0.288,0.482
								c-0.036,0.6-0.639,0.433-0.814,0.396c-0.614-0.125-0.979,0.258-1.385,0.525c-0.581,0.384-1.238,0.5-1.88,0.684
								c-0.075,0.021-0.24-0.015-0.242-0.037c-0.052-0.503-0.7-0.615-0.727-1.129c-0.006-0.124-0.073-0.196-0.204-0.195
								c-0.164,0-0.194,0.106-0.218,0.245c-0.094,0.563,0.16,1.026,0.473,1.431c0.283,0.366-0.1,0.655-0.021,0.993
								c0.022,0.1-0.278,0.172-0.342,0.029c-0.305-0.688-0.774-0.285-1.162-0.176c-0.612,0.173-0.616,0.174-0.786-0.422
								c-0.102-0.357-0.182-0.736-0.665-0.875c-0.438-0.126-0.466-0.463-0.167-0.883c0.07-0.1,0.12-0.213,0.2-0.356
								c-0.614,0-1.189,0.005-1.765-0.002c-0.195-0.002-0.299,0.061-0.416,0.241c-0.275,0.422-0.948,0.579-1.417,0.37
								c-0.169-0.075-0.306-0.045-0.46,0.015c-0.115,0.045-0.277,0.055-0.281,0.202c-0.006,0.187,0.18,0.128,0.286,0.158
								c0.271,0.076,0.449,0.291,0.663,0.446c0.201,0.146,0.422,0.399,0.173,0.618c-0.229,0.201-0.688,0.234-0.793-0.066
								c-0.191-0.549-0.766-0.395-1.041-0.727c-0.009-0.011-0.038-0.017-0.048-0.01c-0.824,0.524-0.747-0.447-1.079-0.701
								c-0.25-0.191-0.389-0.619,0.179-0.774c0.196-0.053,0.314-0.23,0.334-0.449c0.195,0.021,0.211,0.217,0.315,0.327
								c0.327,0.346,0.851,0.236,1.001-0.213c0.084-0.251,0.109-0.52,0.186-0.771c0.051-0.167,0.045-0.409,0.326-0.396
								c0.152,0.329-0.018,0.795,0.51,1.035c-0.178-0.896,0.198-1.667,0.415-2.471c-0.057,0.231,0.025,0.598-0.427,0.354
								c-0.045-0.024-0.054-0.02-0.079,0.035c-0.051,0.11-0.075,0.252-0.254,0.187c-0.198-0.46,0.103-0.86,0.151-1.291
								c0.024-0.214,0.29-0.514-0.107-0.61c-0.32-0.079-0.584,0.053-0.659,0.44c-0.091,0.472-0.163,0.948-0.297,1.41
								c-0.056,0.192-0.072,0.504-0.334,0.461c-0.226-0.038-0.25-0.313-0.208-0.54c0.132-0.257,0.136-0.492-0.122-0.681
								c-0.179-0.195-0.214-0.446-0.261-0.692c-0.068-0.365-0.274-0.538-0.645-0.438c-0.391,0.105-0.22,0.389-0.155,0.61
								c0.211,0.721,0.353,1.459,0.567,2.179c0.055,0.187,0.122,0.381-0.039,0.556c-0.387-0.145-0.729,0.149-1.112,0.114
								c-0.134-0.012-0.053,0.166-0.071,0.256c-0.046,0.233,0.1,0.5-0.116,0.707c-0.18-0.21-0.157-0.467-0.158-0.715
								c-0.005-0.947-0.001-1.895-0.003-2.841c0-0.179,0.004-0.357-0.022-0.535c-0.028-0.2-0.112-0.336-0.34-0.329
								c-0.215,0.008-0.322,0.128-0.349,0.331c-0.053,0.409-0.022,0.821-0.025,1.231c-0.006,0.732,0.002,1.465-0.004,2.197
								c-0.001,0.232,0.008,0.469-0.16,0.661c-0.018,0-0.04-0.006-0.053,0.003c-0.447,0.288-0.899,0.247-1.405,0.131
								c-0.38-0.087-0.699-0.1-0.698-0.588c0-0.13-0.096-0.179-0.212-0.191c-0.088-0.075-0.12-0.18-0.121-0.288
								c-0.002-0.194-0.031-0.432,0.21-0.493c0.205-0.053,0.31,0.135,0.399,0.292c0.063,0.108,0.104,0.228,0.152,0.343
								c0.301,0.716,0.537,0.804,1.28,0.478c0.158,0.113,0.336,0.306,0.335-0.105c-0.004-1.077,0.078-2.163-0.033-3.229
								c-0.066-0.633-0.017-1.264-0.102-1.893c-0.07-0.52-0.307-0.942-0.616-1.34c0.058-0.076,0.138-0.102,0.229-0.104
								c0.314,0.059,0.631,0.053,0.948,0.03c0.197-0.014,0.389,0.022,0.541,0.168c0.434,0.008,0.741,0.465,1.262,0.292
								c0.189-0.063,0.13,0.351,0.12,0.539c-0.028,0.575,0.038,0.656,0.605,0.557c0.314-0.055,0.623-0.14,0.936-0.205
								c0.132-0.028,0.242-0.06,0.224-0.233c-0.057-0.515,0.243-0.467,0.52-0.283c0.463,0.309,0.782,0.166,1.099-0.22
								c0.2-0.245,0.161-0.355-0.126-0.457c-0.486-0.17-0.972-0.331-1.479-0.434c-0.387-0.079-0.661-0.37-0.98-0.579
								c-0.477-0.312-0.683-0.897-1.234-1.095c-0.101-0.035-0.196-0.101-0.174-0.236c0.024-0.146,0.135-0.187,0.261-0.229
								c0.766-0.261,1.735,0.085,2.165,0.85c0.255,0.454,0.479,0.619,0.87,0.178c0.165-0.186,0.288-0.086,0.379,0.065
								c0.201,0.335,0.393,0.441,0.684,0.074c0.178-0.225,0.717-0.074,0.834,0.206c0.041,0.098,0.018,0.182-0.081,0.216
								c-0.063,0.021-0.146,0.024-0.209,0.003c-0.328-0.114-0.787-0.077-0.84,0.17c-0.055,0.254,0.27,0.584,0.623,0.701
								c0.098,0.032,0.234,0.07,0.271,0.146c0.241,0.518,0.565,0.479,1.024,0.267c0.328-0.151,0.557-0.275,0.436-0.731
								c0.377,0.149,0.557,0.38,0.691,0.653c0.122,0.25,0.304,0.429,0.542,0.573c0.409,0.246,0.757,0.415,0.968-0.232
								c0.084-0.256,1.217-0.457,1.411-0.275c0.245,0.229,0.014,0.396-0.148,0.43c-0.402,0.082-0.685,0.43-1.121,0.438
								c-0.378,0.007-0.506,0.36-0.651,0.639c-0.197,0.377,0.32,0.171,0.336,0.388c-0.283,0.219-0.616,0.125-0.93,0.143
								c-0.545,0.03-0.609,0.079-0.614,0.637c-0.01,1.039-0.007,2.078-0.001,3.117c0.002,0.254-0.007,0.526,0.359,0.539
								c0.367,0.013,0.378-0.248,0.387-0.51c0.003-0.107-0.001-0.216,0.015-0.322c0.029-0.192,0.031-0.431,0.289-0.448
								c0.273-0.018,0.352,0.192,0.37,0.427c-0.291,0.108-0.314,0.356-0.34,0.603c0.008-0.194,0.126-0.326,0.274-0.442
								c0.127-0.011,0.185,0.079,0.242,0.167c0.407,0.63,0.552,0.681,1.316,0.463c0.087-0.057,0.27,0.097,0.256-0.021
								c-0.026-0.21-0.261-0.075-0.395-0.131c-0.255-0.203-0.424-0.438-0.283-0.784c0.18,0.17,0.355,0.235,0.621,0.143
								c0.468-0.163,0.943-0.296,1.4-0.497c0.584-0.257,0.885-0.098,1.005,0.506c0.092,0.46,0.42,0.573,0.818,0.595
								c0.26,0.015,0.473-0.043,0.468-0.366c-0.006-0.38,0.023-0.788-0.523-0.822c-0.094-0.006-0.187-0.03-0.195-0.141
								c-0.011-0.146,0.106-0.147,0.212-0.179c0.596-0.177,0.656-0.328,0.171-0.693c-0.516-0.389-0.968-0.813-1.313-1.356
								c-0.128-0.201-0.278-0.451-0.12-0.645c0.179-0.219,0.433-0.061,0.679,0.006c0.501,0.136,0.99,0.243,1.322,0.701
								c0.135,0.186,0.338,0.319,0.312,0.592c-0.01,0.11,0.029,0.24,0.154,0.243c0.126,0.004,0.146-0.131,0.174-0.236
								c0.082-0.321,0.238-0.579,0.518-0.782c0.223-0.161,0.335-0.386,0.006-0.593c-0.232-0.146-0.209-0.39-0.217-0.626
								c-0.007-0.189,0.07-0.396-0.084-0.565c-0.065-0.072-0.217-0.113-0.141-0.245c0.086-0.149,0.257-0.134,0.387-0.098
								c0.425,0.12,0.752,0.41,1.04,0.721c0.362,0.391,0.844,0.176,1.256,0.302c0.153,0.047,0.451-0.824,0.367-1.069
								c-0.04-0.117-0.104-0.229-0.129-0.35c-0.026-0.128,0.008-0.255,0.141-0.318c0.114-0.056,0.231,0.006,0.289,0.08
								c0.266,0.345,0.54,0.597,1.034,0.441c0.114-0.036,0.333,0.128,0.447,0.252c0.275,0.3,0.586,0.372,0.957,0.247
								c0,0.146-0.001,0.291-0.001,0.437c-0.245,0.069-0.392,0.194-0.322,0.486C260.282,185.743,260.304,185.924,260.152,186.063z"
								/>
							<path fill-rule="evenodd" clip-rule="evenodd" fill="#E1A823" d="M231.381,188.291c0-0.645,0.008-1.29-0.004-1.935
								c-0.006-0.276,0.095-0.395,0.373-0.375c0.194,0.014,0.392,0,0.588,0.001c0.843,0.002,1.638,0.158,2.013,1.024
								c0.418,0.968,0.421,1.957-0.163,2.875c-0.454,0.713-1.205,0.744-1.947,0.77c-0.857,0.029-0.858,0.035-0.859-0.801
								C231.38,189.331,231.381,188.812,231.381,188.291z"/>
							<path fill-rule="evenodd" clip-rule="evenodd" fill="#E7AA21" d="M249.943,190.375c-0.289,0.381-1.058,0.352-1.268-0.051
								c-0.106-0.204-0.205-0.412-0.308-0.619l0.003,0.01c-0.025-0.103-0.042-0.209-0.079-0.307
								c-0.038-0.099-0.089-0.215-0.217-0.201c-0.189,0.02-0.129,0.183-0.135,0.295c-0.01,0.178-0.025,0.36,0.001,0.535
								c0.076,0.497-0.16,0.595-0.605,0.593c-0.392-0.002-0.48-0.147-0.477-0.503c0.016-1.215,0.023-2.43-0.001-3.644
								c-0.009-0.421,0.156-0.524,0.534-0.503c0.389,0.021,0.78-0.004,1.171-0.008c1.128,0.378,1.406,0.775,1.314,1.851
								c-0.025,0.297-0.105,0.574-0.329,0.764c-0.324,0.275-0.272,0.537-0.039,0.822c0.052,0.281,0.155,0.538,0.341,0.758
								C249.932,190.214,249.96,190.284,249.943,190.375z"/>
							<path fill-rule="evenodd" clip-rule="evenodd" fill="#E4AB20" d="M238.047,190.271c0.022,0.198,0,0.379-0.261,0.337
								c-0.324-0.052-0.737,0.2-0.949-0.247c-0.138-0.289-0.238-0.595-0.367-0.888c-0.047-0.108-0.084-0.277-0.231-0.256
								c-0.197,0.028-0.131,0.221-0.138,0.351c-0.007,0.123,0.016,0.248,0.025,0.372c-0.115,0.246,0.204,0.707-0.437,0.7
								c-0.536-0.007-0.7-0.137-0.679-0.688c0.046-1.162,0.028-2.328,0.005-3.492c-0.008-0.38,0.108-0.51,0.483-0.479
								c0.372,0.031,0.75-0.014,1.122,0.018c1.233,0.103,1.933,1.49,1.171,2.443c-0.359,0.45-0.315,0.754-0.081,1.165
								C237.833,189.823,237.868,190.084,238.047,190.271z"/>
							<path fill-rule="evenodd" clip-rule="evenodd" fill="#EAAC1D" d="M222.77,185.98c0.378-0.107,0.561,0.106,0.666,0.53
								c0.295,1.198,0.635,2.385,0.936,3.581c0.039,0.156,0.309,0.472-0.072,0.496c-0.317,0.021-0.828,0.275-0.948-0.263
								c-0.109-0.486-0.331-0.58-0.777-0.549c-0.331,0.022-0.47,0.125-0.528,0.448c-0.062,0.341-0.745,0.558-1.034,0.36
								c-0.15-0.104-0.063-0.228-0.035-0.336c0.343-1.314,0.698-2.626,1.035-3.942C222.119,185.895,222.429,186.003,222.77,185.98z"
								/>
							<path fill-rule="evenodd" clip-rule="evenodd" fill="#191919" d="M260.564,176.57c0.005,0.413,0.014,0.825,0.015,1.238
								c0,0.646-0.002,0.646-0.647,0.509c-0.028,0.347,0.013,0.634,0.4,0.746c0.158,0.046,0.241,0.151,0.242,0.313
								c0.003,0.543,0.001,1.086-0.054,1.636c-0.202-0.323-0.206-0.698-0.345-1.034c-0.086-0.209-0.173-0.317-0.372-0.265
								c-0.364,0.096-0.573-0.071-0.743-0.362c-0.068-0.118-0.173-0.313-0.311-0.231c-0.206,0.122,0.013,0.26,0.06,0.396
								c0.07,0.201,0.11,0.412,0.163,0.62c-0.369-0.428-0.673-0.879-0.558-1.489c0.027-0.142,0.061-0.302-0.032-0.416
								c-0.201-0.248-0.445-0.467,0.034-0.685c0.089-0.041,0.06-0.165-0.008-0.277c-0.588-0.988-0.855-2.063-0.828-3.214
								c0.002-0.086-0.009-0.199,0.104-0.217c0.132-0.02,0.197,0.087,0.2,0.196c0.009,0.29,0.21,0.455,0.398,0.605
								c0.584,0.463,0.778,1.224,1.346,1.709C259.937,176.61,260.186,176.774,260.564,176.57z"/>
							<path fill-rule="evenodd" clip-rule="evenodd" fill="#E6AB22" d="M226.524,189.368c-0.221,0.21-0.261,0.409-0.3,0.595
								c-0.12,0.567-0.466,0.723-1.012,0.666c-0.341-0.036-0.339-0.156-0.226-0.406c0.229-0.505,0.428-1.025,0.68-1.519
								c0.168-0.327,0.136-0.599-0.021-0.912c-0.238-0.48-0.434-0.983-0.655-1.473c-0.109-0.241-0.023-0.311,0.218-0.335
								c0.729-0.072,0.828-0.013,1.075,0.715c0.045,0.135,0.097,0.268,0.181,0.5c0.146-0.31,0.282-0.541,0.364-0.791
								c0.097-0.296,0.243-0.428,0.575-0.425c0.742,0.008,0.754,0.006,0.436,0.685c-0.724,1.544-0.722,1.543-0.008,3.182
								c0.098,0.224,0.36,0.489,0.204,0.68c-0.179,0.219-0.539,0.087-0.818,0.082c-0.341-0.006-0.324-0.333-0.422-0.548
								C226.702,189.855,226.629,189.638,226.524,189.368z"/>
							<path fill-rule="evenodd" clip-rule="evenodd" fill="#E2A823" d="M241.599,187.893c-0.014,0.199,0.007,0.391,0.171,0.599
								c0.238-0.678,0.316-1.358,0.473-2.019c0.089-0.378,0.794-0.652,1.095-0.419c0.167,0.131,0.068,0.293,0.029,0.44
								c-0.145,0.534-0.319,1.06-0.385,1.612c0.051,0.313,0.01,0.604-0.217,0.846c-0.216,0.38-0.224,0.82-0.348,1.228
								c-0.081,0.266-0.121,0.533-0.502,0.474c-0.337-0.053-0.797,0.145-0.847-0.453c-0.006-0.063-0.063-0.121-0.098-0.182
								c0.009-0.181-0.022-0.353-0.115-0.511c-0.246-0.987-0.504-1.972-0.728-2.964c-0.033-0.149-0.303-0.47,0.092-0.499
								c0.339-0.025,0.807-0.285,0.99,0.291c0.097,0.304,0.083,0.638,0.255,0.92C241.654,187.438,241.632,187.664,241.599,187.893z"
								/>
							<path fill-rule="evenodd" clip-rule="evenodd" fill="#E5AB23" d="M219.09,188.796c0-0.449-0.013-0.897,0.005-1.346
								c0.013-0.322-0.101-0.479-0.429-0.435c-0.489,0.067-0.43-0.265-0.447-0.577c-0.021-0.37,0.148-0.457,0.481-0.447
								c0.642,0.021,1.286,0.025,1.927,0.002c0.405-0.016,0.417,0.218,0.417,0.513c0,0.283,0.025,0.574-0.396,0.512
								c-0.402-0.061-0.483,0.145-0.476,0.497c0.018,0.879-0.01,1.759,0.02,2.638c0.016,0.451-0.216,0.474-0.561,0.477
								c-0.356,0.003-0.583-0.042-0.55-0.488C219.116,189.694,219.089,189.244,219.09,188.796z"/>
							<path fill-rule="evenodd" clip-rule="evenodd" fill="#201711" d="M216.825,203.201c0.169-0.406,0.522-0.155,0.786-0.22
								c0.174-0.043,0.453,0.091,0.48-0.193c0.022-0.233,0.174-0.544-0.199-0.693c-0.287-0.115-0.211-0.391-0.202-0.611
								c0.018-0.426-0.191-0.981,0.094-1.238c0.228-0.204,0.768-0.054,1.168-0.071c0.237-0.011,0.516,0.088,0.664-0.212
								c0.322,0,0.644,0,0.966,0c0.285-0.157,0.57-0.158,0.855,0c0.18-0.001,0.359-0.001,0.539-0.002
								c0.143-0.112,0.286-0.112,0.429-0.001c0.321-0.001,0.641-0.002,0.962-0.003c0.086-0.071,0.183-0.118,0.296-0.127
								c0.211,0.001,0.416-0.027,0.593-0.158c0.508-0.025,1.018-0.096,1.526-0.062c0.6,0.04,1.056-0.197,1.448-0.617
								c0.107-0.304,0.021-0.581-0.134-0.838c-0.136-0.226,0.065-0.333,0.156-0.462c0.109-0.156,0.224-0.015,0.31,0.061
								c0.403,0.354,0.702,0.038,0.734-0.258c0.056-0.509,0.236-0.519,0.604-0.341c0.044,0.021,0.105,0.008,0.159,0.011
								c-0.164,0.105-0.339,0.197-0.488,0.319c-0.199,0.162-0.529,0.326-0.036,0.561c0.177,0.083,0.136,0.293,0.056,0.432
								c-0.224,0.386-0.427,0.787-0.732,1.121c-0.155,0.169-0.352,0.241-0.57,0.261c-2.151,0.187-4.31,0.253-6.467,0.331
								c-0.678,0.025-1.355,0.072-2.032,0.112c-0.358,0.022-0.746,0.157-0.825,0.485c-0.088,0.367-0.219,0.828,0.136,1.166
								c0.348,0.33,0.19,0.738,0.192,1.114c0.001,0.186-0.209,0.157-0.345,0.156C217.573,203.223,217.199,203.21,216.825,203.201z"
								/>
							<path fill-rule="evenodd" clip-rule="evenodd" fill="#E1A724" d="M228.604,188.28c0-0.627,0.016-1.254-0.007-1.88
								c-0.013-0.348,0.136-0.451,0.443-0.407c0.267,0.037,0.647-0.136,0.644,0.387c-0.01,1.289-0.015,2.579,0.002,3.868
								c0.006,0.44-0.27,0.374-0.534,0.37c-0.279-0.005-0.582,0.068-0.561-0.404c0.03-0.644,0.008-1.289,0.008-1.934
								C228.6,188.28,228.602,188.28,228.604,188.28z"/>
							<path fill-rule="evenodd" clip-rule="evenodd" fill="#E1A723" d="M238.494,190.586c-0.004-1.377,0.01-2.754-0.019-4.129
								c-0.01-0.474,0.261-0.45,0.579-0.47c0.352-0.021,0.514,0.067,0.508,0.468c-0.021,1.376-0.007,2.753-0.007,4.13
								C239.202,190.645,238.848,190.632,238.494,190.586z"/>
							<path fill-rule="evenodd" clip-rule="evenodd" fill="#181919" d="M223.696,199.951c-0.11,0.001-0.22,0.003-0.33,0.005
								c-0.017-0.333,0.163-0.454,0.467-0.424c0.334,0.033,0.631-0.041,0.896-0.257c0.2-0.163,0.338-0.343,0.183-0.596
								c-0.191-0.312,0.032-0.387,0.245-0.429c0.188-0.038,0.403-0.058,0.577,0.048c0.474,0.288,1.053,0.341,1.495,0.693
								c-0.005,0.283-0.551,0.762-0.912,0.747c-0.697-0.027-1.393,0.108-2.089,0.007
								C224.09,199.919,223.838,199.788,223.696,199.951z"/>
							<path fill-rule="evenodd" clip-rule="evenodd" fill="#191919" d="M258.973,180.136c0.045,0.027,0.092,0.082,0.135,0.079
								c0.704-0.051,0.617,0.521,0.77,0.936c0.092,0.249,0.161,0.612,0.577,0.569c0.099-0.01,0.144,0.104,0.114,0.125
								c-0.434,0.327,0.055,0.633,0.02,0.952c-0.041,0.369-0.018,0.745-0.022,1.119c-0.198-0.046-0.423-0.115-0.45-0.329
								c-0.102-0.797-0.619-1.461-0.699-2.252C259.37,180.884,259.031,180.566,258.973,180.136z"/>
							<path fill-rule="evenodd" clip-rule="evenodd" fill="#5A4E2B" d="M235.473,182.966c-0.313,0.114-0.148,0.398-0.224,0.651
								c-0.261-0.154-0.534-0.22-0.793-0.021c-0.152,0.118-0.297,0.11-0.431-0.019c-0.226-0.219-0.185-0.495-0.123-0.755
								c0.036-0.155,0.188-0.354,0.335-0.27c0.385,0.223,0.778-0.112,1.146,0.071C235.526,182.709,235.609,182.809,235.473,182.966z
								"/>
							<path fill-rule="evenodd" clip-rule="evenodd" fill="#63552E" d="M230.46,183.051c-0.186,0.164,0.011,0.365-0.035,0.534
								c-0.441-0.073-0.875,0.028-1.327-0.121c0.046-0.252,0.005-0.679,0.31-0.806c0.258-0.107,0.158,0.363,0.381,0.518
								c-0.05-0.517,0.212-0.646,0.646-0.548C230.571,182.761,230.503,182.906,230.46,183.051z"/>
							<path fill-rule="evenodd" clip-rule="evenodd" fill="#262110" d="M239.349,183.799c-0.498-0.107-1.021,0.136-1.508-0.111
								c-0.058-0.07-0.062-0.141,0.003-0.21c0.215,0.01,0.325-0.071,0.327-0.309c0.002-0.186-0.081-0.4,0.114-0.548
								c0.155,0.147,0.048,0.37,0.204,0.633c-0.284-0.748,0.315-0.482,0.532-0.638c0.072-0.002,0.145-0.003,0.216-0.005
								c0.185,0.347,0.11,0.721,0.112,1.086C239.349,183.731,239.349,183.766,239.349,183.799z"/>
							<path fill-rule="evenodd" clip-rule="evenodd" fill="#564D2E" d="M233.214,183.382c-0.152,0.06-0.173,0.279-0.356,0.299
								c-0.136,0.015-0.304-0.139-0.248-0.16c0.55-0.213,0.04-0.35-0.028-0.499c-0.077-0.171-0.081-0.293,0.092-0.408
								c0.283-0.188,0.403,0.038,0.556,0.198c0.128,0.083-0.002,0.259,0.122,0.344c0.005,0.028,0.007,0.057,0.004,0.085
								C233.384,183.364,233.33,183.404,233.214,183.382z"/>
							<path fill-rule="evenodd" clip-rule="evenodd" fill="#55482C" d="M237.844,183.478c-0.001,0.07-0.002,0.141-0.003,0.21
								c-0.07,0.006-0.141,0.012-0.21,0.018c-0.297-0.165-0.455-0.833-0.256-1.077c0.09-0.111,0.212-0.131,0.335-0.094
								c0.155,0.047,0.056,0.158,0.058,0.254C237.773,183.019,237.815,183.248,237.844,183.478z"/>
							<path fill-rule="evenodd" clip-rule="evenodd" fill="#78623A" d="M239.779,182.614c0.197-0.048,0.35,0.457,0.593,0.044
								c0.037-0.062,0.147,0.049,0.154,0.146c0.009,0.105,0.014,0.212,0.006,0.317c-0.01,0.135,0.065,0.313-0.075,0.392
								c-0.149,0.085-0.174-0.208-0.338-0.168c-0.231-0.097-0.131,0.276-0.358,0.225
								C239.698,183.258,239.693,182.937,239.779,182.614z"/>
							<path fill-rule="evenodd" clip-rule="evenodd" fill="#685829" d="M228.93,183.485c-0.269-0.512-0.461-0.055-0.706,0.063
								c-0.022-0.313-0.144-0.627,0.06-0.866c0.047-0.055,0.391,0.235,0.596-0.023C229.059,182.919,228.918,183.205,228.93,183.485z
								"/>
							<path fill-rule="evenodd" clip-rule="evenodd" fill="#63522D" d="M227.91,183.642c-0.316-0.189-0.517-0.173-0.708-0.084
								c-0.022-0.056-0.055-0.096-0.045-0.116c0.122-0.271,0.052-0.784,0.365-0.767C227.787,182.689,227.74,183.204,227.91,183.642z
								"/>
							<path fill-rule="evenodd" clip-rule="evenodd" fill="#5A4F2F" d="M236.783,182.513c0.293,0.063,0.305,0.068,0.188,0.335
								c-0.046,0.104,0.03,0.12,0.059,0.172c0.293,0.523,0.241,0.624-0.344,0.657c-0.076-0.254,0.03-0.524-0.101-0.783
								C236.507,182.741,236.62,182.59,236.783,182.513z"/>
							<path fill-rule="evenodd" clip-rule="evenodd" fill="#2B2009" d="M236.783,182.513c-0.095,0.157-0.209,0.379-0.063,0.49
								c0.364,0.273,0.103,0.459-0.035,0.674c-0.049-0.001-0.098-0.002-0.146-0.003c-0.438-0.262-0.479-0.762-0.095-1.161
								C236.557,182.513,236.67,182.513,236.783,182.513z"/>
							<path fill-rule="evenodd" clip-rule="evenodd" fill="#71623E" d="M232.155,182.721c0,0.246,0.002,0.493-0.002,0.739
								c-0.001,0.026-0.038,0.053-0.059,0.078c-0.342-0.248-0.342-0.248-0.581-0.058c0.027-0.28-0.063-0.56-0.001-0.708
								C231.808,182.459,231.867,183.661,232.155,182.721z"/>
							<path fill-rule="evenodd" clip-rule="evenodd" fill="#5B5032" d="M236.444,182.513c-0.226,0.243,0.188,0.596-0.155,0.851
								c-0.084,0.063,0.305,0.087,0.25,0.311c-0.149,0.007-0.307,0.052-0.43-0.082c-0.128-0.362-0.456-0.732,0.04-1.071
								C236.247,182.518,236.346,182.515,236.444,182.513z"/>
							<path fill-rule="evenodd" clip-rule="evenodd" fill="#5B5032" d="M235.473,182.966c0.028-0.129-0.038-0.233-0.089-0.341
								c0.17-0.034,0.34-0.069,0.51-0.104c-0.063,0.357,0.241,0.704,0.03,1.066c-0.113,0.104-0.28,0.162-0.366,0.043
								c-0.137-0.188,0.154-0.119,0.176-0.213C235.784,183.195,235.438,183.188,235.473,182.966z"/>
							<path fill-rule="evenodd" clip-rule="evenodd" fill="#625E33" d="M239.021,182.616c-0.002,0.035-0.003,0.07-0.007,0.105
								c-0.04,0.351-0.657-0.265-0.467,0.224c0.137,0.352-0.136,0.393-0.182,0.594c-0.137-0.301-0.08-0.612-0.081-0.918
								C238.531,182.619,238.776,182.617,239.021,182.616z"/>
							<path fill-rule="evenodd" clip-rule="evenodd" fill="#2B2410" d="M239.779,182.614c0,0.279,0,0.56,0,0.847
								c0.149,0.059,0.096-0.493,0.34-0.115c-0.15,0.118-0.158,0.436-0.464,0.334c-0.552-0.221-0.351-0.666-0.313-1.063
								c0.241,0.178,0.005,0.49,0.208,0.705C239.805,183.139,239.531,182.783,239.779,182.614z"/>
							<path fill-rule="evenodd" clip-rule="evenodd" fill="#2B2009" d="M235.924,183.588c-0.007-0.142,0.043-0.354-0.03-0.411
								c-0.298-0.239-0.102-0.439,0-0.655c0.085,0,0.17-0.001,0.255-0.001c-0.28,0.347,0.032,0.717-0.039,1.071
								C236.048,183.591,235.985,183.589,235.924,183.588z"/>
							<path fill-rule="evenodd" clip-rule="evenodd" fill="#493B1E" d="M231.197,182.613c0.46,0.281,0.123,0.663,0.143,1.001
								c-0.228-0.228-0.12-0.513-0.152-0.772C231.135,182.763,231.13,182.687,231.197,182.613z"/>
							<path fill-rule="evenodd" clip-rule="evenodd" fill="#382B13" d="M231.197,182.613c-0.003,0.075-0.006,0.151-0.009,0.228
								c-0.208,0.003-0.198,0.153-0.208,0.299c-0.011,0.151,0.055,0.325-0.108,0.439c-0.144-0.147-0.101-0.335-0.1-0.509
								c0.002-0.168-0.008-0.321-0.185-0.404c-0.014-0.02-0.027-0.039-0.042-0.06C230.765,182.416,230.981,182.511,231.197,182.613z
								"/>
							<path fill-rule="evenodd" clip-rule="evenodd" fill="#181919" d="M222.404,199.959c-0.143,0-0.286,0.001-0.429,0.001
								c0.022-0.172-0.071-0.432,0.239-0.411C222.474,199.567,222.379,199.803,222.404,199.959z"/>
							<path fill-rule="evenodd" clip-rule="evenodd" fill="#181919" d="M221.437,199.962c-0.285,0-0.57,0-0.855,0
								C220.867,199.614,221.151,199.614,221.437,199.962z"/>
							<path fill-rule="evenodd" clip-rule="evenodd" fill="#615E36" d="M239.342,182.617c0.022,0.379-0.063,0.79,0.313,1.063
								c-0.103,0.005-0.204,0.011-0.306,0.017c-0.246-0.34-0.069-0.725-0.112-1.086
								C239.272,182.609,239.308,182.611,239.342,182.617z"/>
							<path fill-rule="evenodd" clip-rule="evenodd" fill="#534B34" d="M233.351,183.155c-0.138-0.08-0.109-0.219-0.122-0.344
								c0.013-0.142,0.112-0.205,0.227-0.257c0.088-0.04,0.176-0.034,0.229,0.046c0.066,0.098-0.001,0.165-0.085,0.2
								C233.439,182.867,233.349,182.977,233.351,183.155z"/>
							<path fill-rule="evenodd" clip-rule="evenodd" fill="#534B34" d="M233.214,183.382c0.047-0.047,0.094-0.095,0.141-0.142
								c0.129,0.106,0.258,0.213,0.454,0.376C233.475,183.722,233.294,183.684,233.214,183.382z"/>
							<path fill-rule="evenodd" clip-rule="evenodd" fill="#382B13" d="M230.46,183.051c-0.008-0.142-0.017-0.282-0.025-0.423
								c0.037-0.007,0.074-0.014,0.111-0.021l0.039,0.028c0.451,0.236,0.187,0.617,0.188,0.944c-0.187-0.143-0.08-0.348-0.113-0.523
								C230.604,182.768,230.527,183.052,230.46,183.051z"/>
							<path fill-rule="evenodd" clip-rule="evenodd" fill="#756550" d="M230.772,183.579c-0.056-0.316,0.13-0.681-0.188-0.944
								c0.141,0.014,0.374-0.14,0.305,0.216c-0.046,0.235-0.015,0.485-0.018,0.729l-0.05,0.01L230.772,183.579z"/>
							<path fill-rule="evenodd" clip-rule="evenodd" fill="#151515" d="M249.429,199.315c0.018,0.002,0.035,0.005,0.053,0.006
								c0.251,0.014,0.348,0.51,0.671,0.246c0.26-0.213,0.146-0.546,0.12-0.813c-0.036-0.391-0.073-0.779-0.106-1.171
								c-0.053-0.625-0.692-0.919-1.231-0.6c-0.123,0.073-0.246,0.147-0.355,0.238c-0.329,0.272-0.558,0.101-0.755-0.17
								c-0.216-0.295-0.211-0.793-0.75-0.786c-0.082,0.002-0.084-0.109-0.039-0.171c0.103-0.139,0.201-0.065,0.321-0.002
								c0.604,0.321,1.241,0.332,1.836,0.025c0.274-0.142,0.552-0.237,0.837-0.326c0.083-0.026,0.188-0.051,0.263-0.023
								c0.478,0.176,0.95,0.325,1.476,0.23c0.136-0.024,0.331,0.074,0.393,0.236c0.073,0.197-0.117,0.271-0.234,0.371
								c-0.254,0.217-0.253,0.218-0.02,0.865c0.155-0.246,0.044-0.691,0.503-0.638c0.182,0.021,0.382,0.006,0.427,0.232
								c0.036,0.185,0.094,0.397-0.119,0.534c-0.162,0.104-0.394,0.181-0.199,0.438c0.15,0.201,0.396,0.316,0.607,0.243
								c0.251-0.088,0.188-0.359,0.113-0.563c-0.118-0.324-0.187-0.65-0.166-0.997c0.021-0.357,0.046-0.703-0.33-0.946
								c-0.179-0.115-0.24-0.354-0.088-0.574c0.021-0.029,0.027-0.068,0.05-0.095c0.212-0.263,0.06-0.814,0.542-0.833
								c0.541-0.021,1.063,0.148,1.439,0.58c0.281,0.32,0.517,0.683,0.799,1.003c0.291,0.332,0.61,0.313,0.921-0.088
								c0.208-0.27,0.158-0.586-0.116-0.812c-0.178-0.146-0.396-0.24-0.576-0.384c-0.138-0.109-0.255-0.251-0.36-0.394
								c-0.057-0.077-0.13-0.188-0.017-0.287c0.084-0.072,0.168-0.042,0.239,0.021c0.117,0.101,0.285,0.188,0.39,0.096
								c0.453-0.396,0.76-0.043,1.064,0.2c0.296,0.235,0.613,0.427,0.951,0.583c0.138,0.063,0.248,0.146,0.319,0.271
								c0.224,0.396,0.401,0.82,0.931,0.924c0.129,0.024,0.249,0.205,0.328,0.34c0.123,0.208-0.015,0.387-0.148,0.525
								c-0.146,0.151-0.271,0.008-0.354-0.099c-0.311-0.4-0.886-0.115-1.195-0.525c-0.149,0.329,0.047,0.467,0.236,0.604
								c0.081,0.059,0.139,0.133,0.09,0.223c-0.058,0.107-0.14,0.042-0.225,0.009c-0.433-0.169-0.89-0.208-1.349-0.227
								c-0.178-0.007-0.349,0.004-0.503-0.129c-0.305-0.26-0.501-0.174-0.566,0.232c-0.006,0.035-0.001,0.072-0.004,0.107
								c-0.067,0.99-0.318,1.264-1.298,1.402c-0.159,0.022-0.365,0-0.369,0.213c-0.003,0.184,0.033,0.391,0.284,0.457
								c0.152,0.04,0.29,0.137,0.437,0.202c0.666,0.293,0.723,0.275,1.088-0.318c0.148-0.242,0.265-0.514,0.653-0.404
								c0.133,0.038,0.302-0.058,0.119-0.254c-0.085-0.091-0.196-0.18-0.23-0.29c-0.056-0.18-0.132-0.422,0.079-0.531
								c0.199-0.104,0.439-0.074,0.513,0.205c0.067,0.252,0.189,0.244,0.395,0.16c0.593-0.242,1.212-0.318,1.847-0.228
								c0.312,0.045,0.374,0.353,0.521,0.552c0.106,0.145,0.101,0.371,0.146,0.562c-0.493-0.491-1.117-0.651-1.78-0.729
								c-0.31-0.036-0.447,0.162-0.592,0.37c-0.14,0.199-0.033,0.379,0.124,0.449c0.718,0.322,0.663,1.087,0.94,1.649
								c0.188,0.384,0.2,0.854,0.299,1.285c0.034,0.145,0.197,0.322-0.056,0.392c-0.216,0.06-0.531,0.125-0.61-0.152
								c-0.316-1.104-1.211-1.406-2.158-1.664c-0.187-0.051-0.376-0.156-0.445-0.352c-0.148-0.415-0.535-0.381-0.845-0.446
								c-0.195-0.041-0.355,0.073-0.308,0.363c0.146,0.88,0.741,1.539,1.604,1.776c0.366,0.101,0.699,0.296,1.109,0.193
								c0.238-0.06,0.391,0.154,0.51,0.33c0.099,0.147,0.04,0.343-0.142,0.284c-0.458-0.146-0.785,0.064-1.126,0.301
								c-0.1,0.068-0.204,0.04-0.278-0.063c0.009-0.052,0.029-0.1,0.057-0.144c0.079-0.127,0.122-0.254-0.012-0.372
								c-0.056-0.049-0.132-0.074-0.186-0.016c-0.107,0.116,0.001,0.224,0.034,0.333c0.021,0.067,0.039,0.132-0.001,0.197
								c-0.555-0.45-1.385-0.499-1.729-1.28c-0.156-0.355-0.224-0.719-0.272-1.078c-0.069-0.513-0.361-1.009-0.153-1.558
								c0.038-0.1,0.081-0.328-0.132-0.336c-0.144-0.005-0.221,0.149-0.276,0.292c-0.266,0.673-0.215,1.381-0.21,2.077
								c0.003,0.38,0.016,0.677-0.496,0.517c-0.085-0.026-0.188-0.045-0.217,0.071c-0.026,0.107,0.067,0.15,0.146,0.194
								c0.575,0.323,0.632,0.986,0.122,1.424c-0.038-0.063-0.049-0.132-0.046-0.204c0.02-0.655,0.02-0.661-0.655-0.743
								c-0.338-0.041-0.596-0.201-0.802-0.486c-0.028,0.426,0.301,0.739,0.277,1.154c-0.008,0.154,0.221,0.126,0.358,0.141
								c0.291,0.032,0.606-0.086,0.867,0.14c0.001,0.039,0.002,0.078,0.003,0.117c-0.608,0.04-1.217,0.048-1.826-0.006
								c-0.157-0.146-0.208-0.506-0.568-0.204c-0.155,0.13-0.303-0.096-0.276-0.258c0.058-0.348,0.014-0.702,0.063-1.032
								c0.258-0.086,0.289,0.193,0.459,0.229c-0.056-0.32-0.109-0.631-0.553-0.452c-0.031-0.035-0.063-0.069-0.094-0.104
								c-0.057-0.092-0.108-0.196-0.084-0.3c0.108-0.458,0.138-0.811-0.512-0.51c-0.105,0.049-0.286-0.031-0.332-0.119
								c-0.237-0.457-0.692-0.541-1.105-0.701c0.212-0.229,0.326-0.444,0.235-0.805c-0.114-0.446,0.354-0.783,0.382-1.233
								c0.004-0.074,0.128-0.114,0.225-0.086c0.105,0.031,0.124,0.124,0.118,0.212c-0.022,0.364,0.132,0.6,0.466,0.753
								c0.268,0.123,0.164,0.399,0.184,0.62c-0.045,0.027-0.093,0.049-0.143,0.065c-0.115,0.038-0.246,0.06-0.235,0.228
								c0.002,0.036,0.019,0.074,0.051,0.085c0.18,0.063,0.18-0.117,0.253-0.196C249.378,199.363,249.399,199.336,249.429,199.315z"
								/>
							<path fill-rule="evenodd" clip-rule="evenodd" fill="#906D22" d="M226.586,201.691c-1.271-0.122-2.547-0.067-3.822-0.072
								c-1.425-0.005-2.85-0.023-4.274,0.001c-0.236,0.004-0.284-0.024-0.266-0.231c0.015-0.167-0.057-0.319,0.262-0.313
								c1.334,0.032,2.669,0.007,4.004,0.007c2.24,0,4.48,0.01,6.721,0.004c2.475-0.007,4.949-0.038,7.424-0.04
								c2.939-0.002,5.88,0.019,8.82,0.025c1.194,0.003,2.389,0.006,3.582-0.017c0.232-0.004,0.256,0.015,0.149,0.213
								c-0.063,0.118,0.298,0.407-0.154,0.378c-1.589-0.104-3.18,0.056-4.771-0.055c-0.798-0.056-1.606,0.043-2.412,0.021
								c-0.986-0.025-1.975,0.04-2.961,0.016c-1.565-0.039-3.13-0.024-4.695,0c-1.687,0.026-3.374-0.008-5.062-0.013
								c-0.026,0-0.053,0.044-0.079,0.067C228.23,201.755,227.408,201.779,226.586,201.691z"/>
							<path fill-rule="evenodd" clip-rule="evenodd" fill="#141614" d="M236.291,200.145c-0.642,0-1.284-0.007-1.926,0.003
								c-0.269,0.004-0.39-0.091-0.381-0.375c0.014-0.502,0.01-1.004,0-1.506c-0.005-0.255,0.057-0.398,0.354-0.396
								c1.213,0.01,2.425,0.008,3.638-0.002c0.376-0.004,0.563,0.123,0.532,0.533c-0.042,0.552,0.223,1.262-0.093,1.616
								c-0.324,0.365-1.044,0.092-1.59,0.126C236.648,200.155,236.47,200.146,236.291,200.145L236.291,200.145z"/>
							<path fill-rule="evenodd" clip-rule="evenodd" fill="#151512" d="M230.348,197.921c0.764-0.14,1.53-0.06,2.296-0.038
								c0.253,0.008,0.271,0.181,0.271,0.373c-0.002,0.359-0.002,0.718-0.002,1.077c0.001,0.784,0.001,0.784-0.744,0.834
								c-0.487,0.086-0.976,0.134-1.471,0.065c-0.258-0.035-0.474-0.151-0.483-0.415
								C230.188,199.183,230.052,198.534,230.348,197.921z"/>
							<path fill-rule="evenodd" clip-rule="evenodd" fill="#151515" d="M247.819,199.746c0.463-0.009,0.935-0.073,1.11,0.551
								c0.04,0.144,0.304,0.322,0.467,0.086c0.129-0.187,0.258-0.286,0.411-0.125c0.134,0.14,0.322,0.342,0.186,0.563
								c-0.112,0.181-0.14,0.358-0.141,0.555c-0.431-0.858-1.245-0.811-2.021-0.891c-1.111-0.113-2.232-0.117-3.335-0.311
								c-0.626-0.514-0.998-1.244-1.549-1.823c-0.134-0.141-0.197-0.344-0.385-0.437c-0.037-0.032-0.075-0.065-0.113-0.098
								l0.017-0.023c0.033-0.043,0.065-0.04,0.097,0.003c0.211,0.014,0.428,0.045,0.539-0.206c0.442,0.02,0.582,0.336,0.661,0.696
								c0.062,0.28,0.093,0.587,0.375,0.73c0.501,0.256,1.023,0.46,1.421,0.893c0.146,0.159,0.356,0.106,0.525-0.046
								c0.156-0.141,0.308-0.307,0.556-0.226c0.018,0.152,0.074,0.333,0.244,0.276C247.191,199.813,247.533,199.937,247.819,199.746
								z"/>
							<path fill-rule="evenodd" clip-rule="evenodd" fill="#1B1A17" d="M240.585,200.149c-1.226-0.007-1.226-0.007-1.224-1.233
								c0.001-0.789,0.107-0.857,0.805-0.479c0.569,0.308,1.068,0.705,1.44,1.247c0.079,0.116,0.211,0.239,0.157,0.379
								c-0.064,0.17-0.249,0.076-0.378,0.083C241.119,200.16,240.852,200.149,240.585,200.149z"/>
							<path fill-rule="evenodd" clip-rule="evenodd" fill="#2C281F" d="M254.149,203.207c-0.001-0.205-0.17-0.253-0.307-0.329
								c-0.111-0.063-0.241-0.128-0.18-0.28c0.063-0.157,0.241-0.21,0.359-0.133c0.312,0.205,0.614,0.206,0.957,0.099
								c0.175-0.055,0.338,0.079,0.483,0.184c0.656,0.473,1.114,0.48,1.804,0.021c0.307-0.205,0.599-0.042,0.849,0.083
								c0.294,0.146,0.459,0.168,0.538-0.195c0.062-0.282,0.297-0.27,0.351-0.077c0.099,0.352,0.426,0.405,0.613,0.626
								C257.795,203.206,255.973,203.206,254.149,203.207z"/>
							<path fill-rule="evenodd" clip-rule="evenodd" fill="#251F17" d="M229.883,200.163c-0.193-0.003-0.387,0.001-0.579-0.011
								c-0.186-0.012-0.417,0.067-0.529-0.141c-0.123-0.229,0.069-0.4,0.182-0.568c0.274-0.409,0.566-0.808,0.852-1.21
								c0.052,0.005,0.107-0.005,0.15,0.036C230.311,198.613,230.263,199.806,229.883,200.163z"/>
							<path fill-rule="evenodd" clip-rule="evenodd" fill="#514221" d="M242.562,197.915c0.512,0.112,0.646,0.625,0.957,0.943
								c0.378,0.387,0.655,0.873,0.977,1.316c-0.271,0.038-0.475-0.078-0.653-0.271
								C243.296,199.319,242.688,198.773,242.562,197.915z"/>
							<path fill-rule="evenodd" clip-rule="evenodd" fill="#C99D37" d="M229.883,200.163c0.131-0.649,0.281-1.3-0.075-1.93
								c0.18-0.104,0.36-0.209,0.54-0.313c0,0.59,0.009,1.18-0.006,1.77c-0.007,0.287,0.082,0.42,0.389,0.419
								c0.479,0,0.958,0.037,1.438,0.058c-0.642,0.071-1.28,0.502-1.931,0.001C230.162,200.11,230.003,200.162,229.883,200.163z"/>
							<path fill-rule="evenodd" clip-rule="evenodd" fill="#151515" d="M249.946,201.48c0.215-0.01,0.224-0.444,0.364-0.314
								c0.246,0.228,0.376,0.591,0.379,0.941c0.002,0.194-0.152,0.192-0.299,0.061c-0.121-0.109-0.056-0.325-0.279-0.406
								c0,0.388,0,0.76,0,1.144c0.236,0.009,0.313-0.244,0.56-0.259c0.046,0.166,0.099,0.358,0.151,0.552
								c-0.052,0.009-0.103,0.023-0.154,0.025c-0.905,0.035-0.892,0.038-0.736-0.846C249.982,202.087,249.943,201.78,249.946,201.48
								z"/>
							<path fill-rule="evenodd" clip-rule="evenodd" fill="#CC9A33" d="M226.586,201.691c0.636-0.099,1.275-0.146,1.913-0.067
								c0.184,0.022,0.399-0.198,0.553,0.06c-0.598,0.437-1.272,0.159-1.912,0.189C226.97,201.881,226.691,201.985,226.586,201.691z
								"/>
							<path fill-rule="evenodd" clip-rule="evenodd" fill="#151515" d="M259.721,203.2c0.005-0.213,0.03-0.431-0.217-0.548
								c-0.074-0.035-0.173-0.085-0.128-0.195c0.047-0.116,0.163-0.133,0.269-0.116c0.215,0.033,0.38,0.134,0.517,0.323
								c0.237,0.327-0.282,0.306-0.22,0.538C259.868,203.202,259.794,203.201,259.721,203.2z"/>
							<path fill-rule="evenodd" clip-rule="evenodd" fill="#0E0E0E" d="M211.571,195.113c0.356-0.059,0.682,0.07,0.92,0.418
								c0.047,0.069,0.191,0.162,0.194,0.159c0.313-0.354,0.842-0.26,1.169-0.569c0.129-0.123,0.229-0.463,0.411-0.262
								c0.156,0.174,0.369,0.478,0.131,0.808c-0.509,0.705-0.91,0.845-1.735,0.449c-0.343-0.164-0.639-0.165-0.97-0.052
								c-0.084,0.029-0.168,0.066-0.255,0.08c-0.294,0.046-0.609,0.151-0.863-0.083c-0.122-0.113-0.128-0.333-0.025-0.452
								c0.211-0.246,0.393-0.576,0.812-0.498C211.411,195.121,211.466,195.113,211.571,195.113z"/>
							<path fill-rule="evenodd" clip-rule="evenodd" fill="#0E0E0E" d="M215.326,195.221c-0.005,0.146-0.008,0.339,0.13,0.385
								c0.669,0.225,0.58,1.102,1.24,1.391c-0.416-0.161-0.682-0.305-0.586,0.359c0.046,0.324-0.363,0.659-0.823,0.668
								c-0.43,0.009-0.939-0.287-0.978-0.584c-0.004-0.033,0.004-0.067,0.007-0.102c0.447,0.121,0.596-0.575,1.047-0.395
								c0.156,0.062,0.268,0.113,0.35-0.061c0.08-0.167,0.043-0.316-0.138-0.4c-0.325-0.15-0.541-0.384-0.637-0.741
								C214.842,195.38,214.906,195.176,215.326,195.221L215.326,195.221z"/>
							<path fill-rule="evenodd" clip-rule="evenodd" fill="#0E0E0E" d="M213.303,198.24c-0.221-0.025-0.512,0.064-0.526-0.294
								c-0.007-0.172,0.141-0.261,0.296-0.235c0.258,0.042,0.618,0.099,0.675,0.323C213.81,198.279,213.478,198.211,213.303,198.24z
								"/>
							<path fill-rule="evenodd" clip-rule="evenodd" fill="#151515" d="M260.574,201.169c0,0.219,0.004,0.362,0,0.505
								c-0.006,0.168-0.079,0.205-0.243,0.154c-0.56-0.174-0.936-0.807-0.813-1.39c0.081-0.379,0.294-0.454,0.607-0.234
								C260.494,200.462,260.693,200.782,260.574,201.169z"/>
							<path fill-rule="evenodd" clip-rule="evenodd" fill="#0E0E0E" d="M260.152,186.063c-0.005-0.195-0.014-0.385-0.062-0.58
								c-0.105-0.429,0.016-0.519,0.474-0.391c0.001,0.858,0.002,1.717,0.003,2.575c-0.402-0.067-0.699-0.676-0.521-1.079
								c0.061-0.135,0.239-0.235,0.105-0.419C260.152,186.134,260.152,186.098,260.152,186.063z"/>
							<path fill-rule="evenodd" clip-rule="evenodd" fill="#191919" d="M260.152,186.169c0.121,0.087,0.15,0.233,0.081,0.329
								c-0.393,0.543,0.087,0.82,0.334,1.17c0.026,0.59-0.475,0.268-0.649,0.287c-0.32,0.036-0.057-0.233-0.042-0.373
								c0.016-0.158,0.099-0.337,0.05-0.469C259.785,186.732,259.938,186.449,260.152,186.169z"/>
							<path fill-rule="evenodd" clip-rule="evenodd" fill="#151515" d="M255.862,202.763c-0.027-0.044-0.057-0.088-0.082-0.134
								c-0.101-0.182-0.376-0.361-0.077-0.57c0.185-0.129,0.379-0.028,0.501,0.148c0.205,0.299,0.022,0.446-0.234,0.557
								C255.935,202.764,255.898,202.764,255.862,202.763z"/>
							<path fill-rule="evenodd" clip-rule="evenodd" fill="#F8B914" d="M239.338,212.006c-1.335,0.413-2.693,0.436-4.066,0.256
								c-0.646-0.085-1.25-0.268-1.791-0.64c-1.002-0.688-1.2-2.223-0.418-3.24c0.106-0.14,0.206-0.285,0.31-0.428
								c0.924-0.703,1.998-0.437,3.024-0.473c0.215-0.007,0.284,0.185,0.366,0.341c0.306,0.581,0.304,1.198,0.219,1.826
								c-0.159,0.841-0.719,1.347-1.405,1.739c0.895-0.334,1.597-0.934,2.146-1.729c0.158-0.416,0.322-0.829,0.472-1.248
								c0.288-0.81,0.516-0.919,1.297-0.606c0.129,0.053,0.263,0.095,0.394,0.143c0.345,0.199,0.553,0.521,0.753,0.849
								c0.517,1.191,0.153,2.343-0.941,2.987C239.575,211.854,239.457,211.932,239.338,212.006z"/>
							<path fill-rule="evenodd" clip-rule="evenodd" fill="#212121" d="M251.773,217.196c-0.035,0.39,0.178,0.799-0.159,1.168
								c-0.132,0.146-0.016,0.354,0.121,0.528c0.126,0.161,0.18,0.38,0.265,0.574c-0.383-0.15-0.564-0.469-0.632-0.845
								c-0.033-0.188-0.042-0.306-0.276-0.245c-0.159,0.041-0.316-0.008-0.464-0.087c-0.158-0.085-0.336-0.187-0.504-0.073
								c-0.245,0.166,0.045,0.254,0.081,0.381c0.042,0.147-0.098,0.241-0.164,0.201c-0.437-0.269-0.958,0.064-1.385-0.216
								c-0.045-0.029-0.106-0.048-0.132-0.089c-0.399-0.638-1.008-0.467-1.578-0.403c-0.376,0.042-0.78-0.122-1.131,0.147
								c-0.029,0.022-0.163-0.025-0.183-0.069c-0.297-0.692-1.064-0.717-1.574-1.109c-0.375-0.29-0.586-0.521-0.259-0.952
								c0.155-0.204,0.075-0.343-0.084-0.505c-0.365-0.368-0.522-0.845-0.608-1.344c-0.025-0.153-0.041-0.337,0.125-0.438
								c0.151-0.094,0.28,0.021,0.388,0.1c0.329,0.243,0.653,0.494,0.964,0.76c0.208,0.179,0.113,0.367-0.008,0.572
								c-0.307,0.516-0.171,0.947,0.388,1.146c0.321,0.115,0.634,0.334,1.021,0.201c0.087-0.029,0.242,0.061,0.333,0.136
								c0.517,0.423,1.22,0.493,1.724,0.938c0.097,0.085,0.253,0.118,0.343,0.01c0.112-0.137-0.048-0.221-0.125-0.304
								c-0.276-0.297-0.703-0.506-0.474-1.054c0.05-0.118-0.146-0.258-0.27-0.368c-0.28-0.249-0.565-0.504-0.788-0.803
								c-0.114-0.151-0.314-0.399-0.036-0.609c0.206-0.155,0.376-0.124,0.62,0.021c0.68,0.407,1.127,1.102,1.845,1.449
								c0.048,0.023,0.091,0.091,0.132,0.087c0.848-0.076,1.38,0.683,2.146,0.81C251.614,216.942,251.555,217.231,251.773,217.196z"
								/>
							<path fill-rule="evenodd" clip-rule="evenodd" fill="#322D1B" d="M237.723,209.659c-0.358,0.96-1.546,1.855-2.5,1.799
								c0.851-0.422,1.379-1.048,1.759-1.81C237.139,210.104,237.234,210.105,237.723,209.659z"/>
							<path fill-rule="evenodd" clip-rule="evenodd" fill="#B58E25" d="M240.638,208.796c-0.251-0.283-0.502-0.566-0.753-0.849
								C240.29,208.092,240.534,208.381,240.638,208.796z"/>
							<path fill-rule="evenodd" clip-rule="evenodd" fill="#E4BC3A" d="M230.582,216.004c-0.155-0.067-0.201-0.17-0.188-0.275
								c0.013-0.097,0.04-0.236,0.182-0.219c0.122,0.015,0.179,0.124,0.144,0.24C230.692,215.843,230.627,215.924,230.582,216.004z"
								/>
							<path fill-rule="evenodd" clip-rule="evenodd" fill="#D6AD24" d="M237.848,216.118c-0.206-0.236-0.293-0.435-0.109-0.66
								c0.047-0.058,0.13-0.067,0.186-0.003C238.114,215.677,238.012,215.875,237.848,216.118z"/>
							<path fill-rule="evenodd" clip-rule="evenodd" fill="#DFB840" d="M234.238,215.401c0.25,0.215,0.291,0.386,0.062,0.615
								C234.133,215.824,234.198,215.644,234.238,215.401z"/>
							<path fill-rule="evenodd" clip-rule="evenodd" fill="#E6AA1F" d="M246.507,189.732c0.011,0.879,0.011,0.879-0.938,0.878
								c-0.411,0-0.822-0.014-1.231,0.004c-0.312,0.014-0.457-0.083-0.454-0.422c0.011-1.272,0.008-2.547-0.003-3.819
								c-0.003-0.289,0.102-0.378,0.379-0.354c0.191,0.016,0.394,0.043,0.58-0.049c0.384-0.271,0.77-0.248,1.156-0.005
								c0.538-0.017,0.441,0.369,0.446,0.7c0.005,0.397-0.284,0.311-0.521,0.345c-0.3,0.044-0.634-0.15-0.9,0.126
								c0.066,0.437,0.365,0.512,0.74,0.505c0.377-0.007,0.659,0.125,0.695,0.564c0.039,0.469-0.109,0.635-0.581,0.704
								c-0.263,0.038-0.738-0.15-0.709,0.303c0.025,0.403,0.487,0.199,0.758,0.253C246.144,189.507,246.403,189.442,246.507,189.732
								z"/>
							<path fill-rule="evenodd" clip-rule="evenodd" fill="#151515" d="M246.64,199.639c-0.122,0.07-0.258,0.125-0.363,0.215
								c-0.481,0.409-0.743,0.412-1.107-0.075c-0.163-0.217-0.339-0.313-0.59-0.39c-0.533-0.162-0.958-0.451-0.948-1.114
								c0.004-0.348-0.293-0.501-0.529-0.684c-0.156-0.302-0.265-0.567,0.273-0.44c0.161,0.038,0.308-0.013,0.45-0.114
								c0.396-0.284,0.851-0.337,1.322-0.308c0.16,0.011,0.353-0.004,0.375,0.208c0.018,0.162-0.067,0.338-0.225,0.395
								c-0.583,0.209-0.318,0.389-0.008,0.613c0.358,0.259,0.776,0.461,0.771,1.032C246.058,199.308,246.527,199.342,246.64,199.639
								z"/>
							<path fill-rule="evenodd" clip-rule="evenodd" fill="#0E0E0E" d="M256.214,192.954c0.45,0.212,0.832,0.142,1.185-0.349
								c0.174-0.243,0.439,0.068,0.531,0.252c0.294,0.585,0.476,1.227,0.887,1.755c0.071,0.092,0.048,0.205-0.035,0.293
								c-0.12,0.129-0.226,0.052-0.322-0.034c-0.503-0.447-1.231-0.552-1.661-1.122c-0.188-0.248-0.497-0.143-0.755-0.133
								c-0.226,0.009-0.532,0.238-0.588-0.173c-0.049-0.364,0.323-0.358,0.545-0.471
								C256.044,192.95,256.105,192.962,256.214,192.954z"/>
							<path fill-rule="evenodd" clip-rule="evenodd" fill="#0E0E0E" d="M246.507,189.732c-0.364-0.222-0.764-0.088-1.146-0.103
								c-0.295-0.012-0.413-0.107-0.409-0.41c0.003-0.296,0.06-0.492,0.413-0.452c0.141,0.016,0.286-0.014,0.426,0.003
								c0.374,0.044,0.536-0.065,0.54-0.49c0.005-0.462-0.23-0.471-0.566-0.47c-0.87,0.002-0.87-0.007-0.742-0.675
								c0.571,0.022,1.203-0.112,1.521,0.684c0.207-0.573-0.169-1.098,0.115-1.695c0.149,0.576,0.126,1.059,0.071,1.515
								c-0.063,0.533,0.292,1.128-0.225,1.609c-0.11,0.104,0.12,0.125,0.165,0.2C246.774,189.625,246.857,189.811,246.507,189.732z"
								/>
							<path fill-rule="evenodd" clip-rule="evenodd" fill="#0E0E0E" d="M257.019,188.143c0.178,0.021,0.247,0.163,0.358,0.246
								c0.33,0.248,0.496,0.781,1.07,0.612c0.073-0.021,0.158,0.078,0.162,0.18c0.005,0.105-0.068,0.165-0.155,0.193
								c-0.146,0.049-0.393,0.046-0.324,0.262c0.154,0.491-0.234,0.599-0.48,0.845c-0.34,0.34-0.557,0.109-0.651-0.148
								c-0.23-0.63-0.188-1.303-0.158-1.965C256.845,188.254,256.922,188.175,257.019,188.143z"/>
							<path fill-rule="evenodd" clip-rule="evenodd" fill="#0E0E0E" d="M245.996,185.965c-0.386,0.056-0.771,0.043-1.156,0.005
								c-0.223-0.043-0.47,0.033-0.685-0.162c0.126-0.257,0.458-0.374,0.512-0.691c0.008-0.046,0.114-0.114,0.166-0.107
								c0.646,0.09,1.296-0.138,1.971,0.027c-0.075,0.241-0.262,0.258-0.451,0.271c-0.137,0.01-0.303-0.027-0.34,0.172
								c-0.045,0.239,0.147,0.241,0.307,0.283C246.255,185.91,246.041,185.804,245.996,185.965z"/>
							<path fill-rule="evenodd" clip-rule="evenodd" fill="#0E0E0E" d="M242.765,188.952c0.031-0.293,0.074-0.582,0.217-0.846
								c0.176-0.127,0.146-0.353,0.281-0.559c0.098,0.095,0.032,0.381,0.228,0.313c0.295-0.1,0.053-0.422,0.246-0.678
								c-0.034,0.544,0.093,0.978-0.243,1.451c-0.203,0.286-0.052,0.821-0.074,1.243c-0.008,0.147,0.091,0.378-0.1,0.423
								c-0.202,0.048-0.224-0.252-0.334-0.323C242.539,189.692,242.824,189.293,242.765,188.952z"/>
							<path fill-rule="evenodd" clip-rule="evenodd" fill="#0E0E0E" d="M246.911,196.514c0.363-0.014,0.635,0.113,0.683,0.508
								c0.021,0.166,0.094,0.386-0.068,0.497c-0.146,0.101-0.224-0.124-0.347-0.173c-0.096-0.038-0.201-0.076-0.301-0.073
								c-0.33,0.011-0.451-0.183-0.438-0.466C246.453,196.508,246.693,196.514,246.911,196.514z"/>
							<path fill-rule="evenodd" clip-rule="evenodd" fill="#0E0E0E" d="M249.998,199.362c-0.263-0.656-0.576-1.296-0.636-2.041
								C249.911,197.563,250.168,198.35,249.998,199.362z"/>
							<path fill-rule="evenodd" clip-rule="evenodd" fill="#0E0E0E" d="M257.415,192.402c-0.354-0.366-0.348-0.782-0.338-1.187
								c0.003-0.125,0.14-0.221,0.279-0.164c0.164,0.067,0.226,0.234,0.21,0.395C257.537,191.741,257.476,192.033,257.415,192.402z"
								/>
							<path fill-rule="evenodd" clip-rule="evenodd" fill="#0E0E0E" d="M254.931,189.063c-0.181-0.026-0.696-0.717-0.651-0.864
								c0.034-0.111,0.072-0.29,0.221-0.254c0.252,0.062,0.316,0.318,0.41,0.524c0.078,0.172,0.191,0.343,0.133,0.546
								C255.034,189.044,254.955,189.053,254.931,189.063z"/>
							<path fill-rule="evenodd" clip-rule="evenodd" fill="#0E0E0E" d="M239.94,185.37c-0.205-0.15-0.417-0.286-0.472-0.547
								c-0.036-0.171,0.056-0.291,0.232-0.258c0.259,0.049,0.447,0.214,0.485,0.482C240.208,185.203,240.067,185.288,239.94,185.37z
								"/>
							<path fill-rule="evenodd" clip-rule="evenodd" fill="#1D1D1D" d="M259.48,194.237c-0.033,0.161-0.137,0.249-0.27,0.207
								c-0.247-0.078-0.426-0.265-0.517-0.503c-0.041-0.108,0.088-0.235,0.188-0.186
								C259.115,193.869,259.376,193.969,259.48,194.237z"/>
							<path fill-rule="evenodd" clip-rule="evenodd" fill="#151515" d="M249.429,199.315c-0.013,0.207,0.056,0.471-0.246,0.516
								c-0.24,0.036-0.316-0.183-0.309-0.354c0.019-0.388,0.261-0.402,0.555-0.271C249.429,199.243,249.429,199.279,249.429,199.315
								z"/>
							<path fill-rule="evenodd" clip-rule="evenodd" fill="#0E0E0E" d="M247.441,198.554c-0.13,0.002-0.251-0.02-0.243-0.158
								c0.015-0.237,0.148-0.403,0.387-0.443c0.121-0.02,0.217,0.074,0.195,0.193C247.745,198.341,247.665,198.523,247.441,198.554z
								"/>
							<path fill-rule="evenodd" clip-rule="evenodd" fill="#0E0E0E" d="M242.562,197.797l-0.049,0.002l-0.048-0.005
								c-0.152-0.293-0.222-0.591-0.042-0.942C242.789,197.145,242.82,197.447,242.562,197.797z"/>
							<path fill-rule="evenodd" clip-rule="evenodd" fill="#0E0E0E" d="M248.099,191.422c0.025-0.163,0.146-0.189,0.272-0.179
								c0.21,0.019,0.303,0.198,0.332,0.357c0.028,0.153-0.142,0.17-0.266,0.165C248.222,191.757,248.147,191.601,248.099,191.422z"
								/>
							<path fill-rule="evenodd" clip-rule="evenodd" fill="#0E0E0E" d="M249.943,190.375c-0.075-0.05-0.1-0.122-0.093-0.208
								c0.14-0.16,0.33-0.175,0.466-0.052c0.143,0.13,0.127,0.354-0.015,0.475C250.038,190.813,250.112,190.371,249.943,190.375z"/>
							<path fill-rule="evenodd" clip-rule="evenodd" fill="#0E0E0E" d="M256.114,187.655c-0.014,0.166-0.134,0.195-0.23,0.174
								c-0.179-0.041-0.338-0.131-0.337-0.355c0.001-0.12,0.042-0.226,0.181-0.204C255.952,187.303,256.035,187.488,256.114,187.655
								z"/>
							<path fill-rule="evenodd" clip-rule="evenodd" fill="#0E0E0E" d="M246.8,199.146c-0.153-0.033-0.254-0.095-0.259-0.243
								c-0.005-0.155,0.046-0.285,0.213-0.315c0.175-0.03,0.201,0.098,0.205,0.23C246.963,198.96,246.953,199.098,246.8,199.146z"/>
							<path fill-rule="evenodd" clip-rule="evenodd" fill="#0E0E0E" d="M252.16,193.909c0.329,0.23,0.486,0.508,0.231,1.009
								C252.313,194.509,252.282,194.196,252.16,193.909z"/>
							<path fill-rule="evenodd" clip-rule="evenodd" fill="#0E0E0E" d="M248.368,189.705c0.032,0.241-0.171,0.364-0.3,0.622
								c0-0.357,0-0.636,0-0.922c0.175,0.021,0.134,0.275,0.303,0.31L248.368,189.705z"/>
							<path fill-rule="evenodd" clip-rule="evenodd" fill="#0E0E0E" d="M256.143,192.016c-0.045,0.146-0.156,0.184-0.286,0.18
								c-0.128-0.004-0.276-0.039-0.261-0.189c0.019-0.181,0.21-0.155,0.334-0.166C256.023,191.832,256.138,191.879,256.143,192.016
								z"/>
							<path fill-rule="evenodd" clip-rule="evenodd" fill="#0E0E0E" d="M256.366,190.729c-0.142-0.009-0.174-0.113-0.174-0.219
								c0-0.11-0.063-0.274,0.115-0.299c0.121-0.018,0.174,0.099,0.188,0.208C256.51,190.545,256.507,190.669,256.366,190.729z"/>
							<path fill-rule="evenodd" clip-rule="evenodd" fill="#0E0E0E" d="M241.45,186.016c0.04,0.305,0.08,0.609,0.135,1.024
								C241.345,186.653,241.342,186.333,241.45,186.016z"/>
							<path fill-rule="evenodd" clip-rule="evenodd" fill="#0E0E0E" d="M241.599,187.893c-0.113-0.197-0.139-0.414-0.134-0.637
								C241.783,187.463,241.824,187.657,241.599,187.893z"/>
							<path fill-rule="evenodd" clip-rule="evenodd" fill="#0E0E0E" d="M238.38,185.127c0.215-0.254,0.386-0.284,0.584-0.066
								C238.802,185.252,238.626,185.216,238.38,185.127z"/>
							<path fill-rule="evenodd" clip-rule="evenodd" fill="#0E0E0E" d="M242.273,196.501c-0.119-0.025-0.212-0.082-0.209-0.206
								c0.002-0.09,0.057-0.179,0.169-0.134c0.099,0.039,0.179,0.119,0.185,0.234C242.422,196.492,242.336,196.49,242.273,196.501z"
								/>
							<path fill-rule="evenodd" clip-rule="evenodd" fill="#1D1D1D" d="M259.392,192.399c0.001,0.07,0.001,0.159-0.081,0.168
								c-0.141,0.017-0.158-0.115-0.186-0.209c-0.021-0.073,0.024-0.137,0.114-0.133C259.346,192.23,259.388,192.3,259.392,192.399z
								"/>
							<path fill-rule="evenodd" clip-rule="evenodd" fill="#171313" d="M232.465,188.281c-0.001-0.286-0.007-0.573,0.001-0.859
								c0.012-0.405,0.234-0.523,0.579-0.308c0.138,0.086,0.249,0.202,0.305,0.363c0.188,0.542,0.191,1.089,0.017,1.632
								c-0.068,0.212-0.218,0.368-0.434,0.448c-0.293,0.108-0.488,0.079-0.471-0.309
								C232.476,188.928,232.465,188.604,232.465,188.281z"/>
							<path fill-rule="evenodd" clip-rule="evenodd" fill="#2E2311" d="M247.91,187.599c0.093-0.238-0.172-0.664,0.341-0.633
								c0.379,0.022,0.554,0.265,0.552,0.652s-0.194,0.645-0.557,0.654C247.713,188.285,248.03,187.82,247.91,187.599z"/>
							<path fill-rule="evenodd" clip-rule="evenodd" fill="#181415" d="M236.953,187.604c-0.02,0.326-0.131,0.544-0.432,0.633
								c-0.257,0.076-0.419,0.027-0.421-0.277c0-0.142-0.02-0.286,0.004-0.424c0.036-0.221-0.165-0.602,0.312-0.562
								C236.805,187.007,236.939,187.282,236.953,187.604z"/>
							<path fill-rule="evenodd" clip-rule="evenodd" fill="#2E1C08" d="M222.649,187.728c0.223,0.331,0.227,0.618,0.284,0.886
								c0.05,0.233-0.08,0.32-0.296,0.321c-0.236,0.001-0.257-0.146-0.217-0.321C222.482,188.346,222.557,188.082,222.649,187.728z"
								/>
							<path fill-rule="evenodd" clip-rule="evenodd" fill="#0E0E0E" d="M223.696,199.951c0.074-0.34,0.348-0.155,0.532-0.205
								C224.153,200.084,223.886,199.916,223.696,199.951z"/>
							<path fill-rule="evenodd" clip-rule="evenodd" fill="#241202" d="M234.411,183.109c-0.007,0.122-0.003,0.279-0.151,0.291
								c-0.156,0.012-0.17-0.143-0.172-0.265c-0.002-0.12-0.015-0.272,0.149-0.284C234.404,182.839,234.408,182.984,234.411,183.109
								z"/>
							<path fill-rule="evenodd" clip-rule="evenodd" fill="#151515" d="M252.645,203.087c-0.25,0-0.501-0.013-0.75,0.002
								c-0.425,0.026-0.848,0.074-0.65-0.593c0.036-0.121-0.017-0.259-0.134-0.329c-0.213-0.128-0.181-0.33-0.181-0.524
								c0-0.127-0.003-0.28,0.144-0.312c0.123-0.026,0.169,0.112,0.209,0.209c0.131,0.32,0.373,0.495,0.708,0.463
								C252.809,201.926,252.97,202.114,252.645,203.087L252.645,203.087z"/>
							<path fill-rule="evenodd" clip-rule="evenodd" fill="#151515" d="M252.96,200.977c-0.035,0.201-0.131,0.263-0.303,0.172
								c-0.267-0.139-0.544-0.261-0.795-0.424c-0.25-0.161-0.492-0.291-0.795-0.182c-0.223,0.079-0.405-0.013-0.502-0.188
								c-0.104-0.188,0.106-0.267,0.214-0.374c0.1-0.101,0.188-0.211,0.287-0.312c0.076-0.078,0.197-0.173,0.264-0.046
								c0.291,0.558,0.961,0.582,1.352,0.997C252.79,200.736,252.936,200.813,252.96,200.977z"/>
							<path fill-rule="evenodd" clip-rule="evenodd" fill="#151515" d="M252.008,198.577c0.21,0.127,0.427,0.281,0.509,0.555
								c0.03,0.099-0.056,0.187-0.153,0.162c-0.287-0.071-0.431-0.301-0.527-0.558C251.793,198.623,251.873,198.578,252.008,198.577
								z"/>
							<path fill-rule="evenodd" clip-rule="evenodd" fill="#151515" d="M257.225,199.376c-0.011,0.176-0.107,0.255-0.241,0.244
								c-0.134-0.01-0.309-0.044-0.318-0.21c-0.009-0.148,0.116-0.264,0.267-0.271C257.094,199.129,257.152,199.281,257.225,199.376
								z"/>
							<path fill-rule="evenodd" clip-rule="evenodd" fill="#151515" d="M257.257,195.15c0.241,0.068,0.207,0.283,0.274,0.434
								c0.03,0.068-0.004,0.153-0.092,0.148c-0.234-0.014-0.247-0.211-0.28-0.379C257.141,195.262,257.181,195.188,257.257,195.15z"
								/>
							<path fill-rule="evenodd" clip-rule="evenodd" fill="#151515" d="M257.609,200.584c0.052-0.114,0.117-0.243,0.257-0.224
								c0.116,0.017,0.141,0.144,0.135,0.257c-0.007,0.124-0.063,0.205-0.198,0.185C257.687,200.784,257.616,200.71,257.609,200.584
								z"/>
							<path fill-rule="evenodd" clip-rule="evenodd" fill="#272625" d="M248.137,216.943c0.628-0.468,1.117-0.438,1.677,0.011
								c0.288,0.231,0.736,0.271,1.089,0.458c0.073,0.038,0.192,0.015,0.191,0.136c0,0.101-0.089,0.14-0.17,0.182
								c-0.595,0.302-1.121,0.112-1.651-0.192C248.917,217.332,248.687,216.915,248.137,216.943z"/>
							<path fill-rule="evenodd" clip-rule="evenodd" fill="#151515" d="M244.497,198.426c-0.036,0.179-0.039,0.432-0.284,0.421
								c-0.214-0.009-0.138-0.245-0.143-0.39c-0.006-0.19-0.008-0.454,0.218-0.462C244.476,197.988,244.479,198.244,244.497,198.426
								z"/>
						</g>
					</g>
				</g>
			</g>
		</g>
	</g>
	<circle cx="233.8" cy="143.3" r="1.7"/>
</g>
</svg>
