<?xml version="1.0" encoding="utf-8"?>
<!-- Generator: Adobe Illustrator 16.0.0, SVG Export Plug-In . SVG Version: 6.00 Build 0)  -->
<!DOCTYPE svg PUBLIC "-//W3C//DTD SVG 1.1//EN" "http://www.w3.org/Graphics/SVG/1.1/DTD/svg11.dtd">
<svg version="1.1" id="Layer_1" xmlns="http://www.w3.org/2000/svg" xmlns:xlink="http://www.w3.org/1999/xlink" x="0px" y="0px"
	 width="449px" height="289px" viewBox="0 0 449 289" enable-background="new 0 0 449 289" xml:space="preserve">
<g>
	<g>
		<rect x="313.3" y="67.3" fill="#FFFFFF" width="60.7" height="81.2"/>
		<g>
			<rect x="313.3" y="67.3" fill="none" stroke="#212121" stroke-width="3" stroke-miterlimit="10" width="60.7" height="81.2"/>
			<path fill="none" stroke="#212121" stroke-miterlimit="10" d="M317.7,67.3l22-22.4c0,0,2.6-2.8,3.899-2.8
				c1.301,0,3.801,2.6,3.801,2.6l22.1,22.6"/>
			<g>
				<g>
					<defs>
						<rect id="SVGID_1_" x="317.6" y="71.4" width="52.101" height="72.9"/>
					</defs>
					<clipPath id="SVGID_2_">
						<use xlink:href="#SVGID_1_"  overflow="visible"/>
					</clipPath>
					<g clip-path="url(#SVGID_2_)">
						<g>
							<path fill-rule="evenodd" clip-rule="evenodd" fill="#FEFEFE" d="M311.211,65.91c21.544,0,43.089,0,64.633-0.008
								c0.3,0,0.367,0.068,0.367,0.37c-0.008,27.787-0.008,55.574,0,83.361c0,0.301-0.067,0.369-0.367,0.369
								c-21.424-0.009-42.849-0.009-64.272,0c-0.3,0-0.368-0.068-0.368-0.369C311.212,121.725,311.211,93.817,311.211,65.91z"/>
							<path fill-rule="evenodd" clip-rule="evenodd" fill="#050707" d="M311.451,108.354c0-13.719,0.001-27.438-0.01-41.157
								c0-0.386,0.088-0.481,0.474-0.481c21.05,0.01,42.101,0.01,63.15,0.001c0.343,0,0.412,0.102,0.412,0.427
								c-0.008,27.465-0.008,54.93,0.002,82.395c0.001,0.385-0.161,0.38-0.443,0.38c-20.917-0.005-41.834-0.005-62.751-0.005
								c-0.834,0-0.834,0-0.834-0.845C311.451,135.498,311.451,121.926,311.451,108.354z"/>
							<path fill-rule="evenodd" clip-rule="evenodd" fill="#FDCB0E" d="M312.494,67.705c1.279-0.009,2.559-0.025,3.838-0.026
								c19.276-0.001,38.553-0.001,57.829,0c0.092,0,0.184,0.019,0.275,0.029c0.044,0.184,0.046,0.371,0.046,0.559
								c-0.001,26.712,0,53.425-0.001,80.137c0,0.558,0.057,0.504-0.482,0.504c-20.355,0.001-40.71,0.001-61.064,0
								c-0.545,0-0.481,0.047-0.481-0.505c0-26.752,0-53.505,0.001-80.257C312.454,67.998,312.418,67.846,312.494,67.705z"/>
							<path fill-rule="evenodd" clip-rule="evenodd" fill="#DFC756" d="M312.494,67.705c-0.001,26.847-0.003,53.693-0.004,80.54
								c0,0.081,0.009,0.162-0.001,0.241c-0.037,0.292,0.07,0.396,0.377,0.39c1.054-0.019,2.107-0.007,3.161-0.007
								c19.288-0.001,38.576-0.001,57.864-0.003c0.545,0,0.548-0.003,0.548-0.532c0.001-14.871,0.001-29.741,0.001-44.611
								c0-11.829-0.002-23.659,0.014-35.488c0-0.177-0.191-0.351-0.018-0.527c0.161,0.086,0.085,0.238,0.085,0.356
								c0.003,18.368,0.001,36.736,0.001,55.104c0,8.414,0.002,16.827,0.002,25.241c0,0.66,0.038,0.553-0.559,0.554
								c-14.087,0.003-28.174,0.002-42.261,0.002c-6.271,0-12.54-0.003-18.81,0.01c-0.387,0.001-0.513-0.069-0.513-0.494
								c0.014-14.228,0.013-28.456,0.013-42.684c0-12.446-0.002-24.893,0.004-37.339C312.399,68.209,312.29,67.933,312.494,67.705z"
								/>
							<path fill-rule="evenodd" clip-rule="evenodd" fill="#0C803F" d="M360.183,102.644c0.257,0.403,0.514,0.806,0.77,1.209
								c0.612,0.962,0.551,2.333-0.094,3.276c-0.833,1.218-2.22,1.624-3.575,1.2c-0.532-0.166-1.028-0.508-1.35-1.004
								c-0.221-0.341-0.373-0.288-0.594-0.009c-0.118,0.148-0.217,0.339-0.428,0.394c-0.203,0.199-0.395-0.055-0.622-0.021
								c0.013,0.194,0.054,0.405-0.177,0.505c-0.168,0.019-0.269,0.229-0.466,0.167c-0.487,0.072-0.975,0.104-1.462-0.004
								c-0.051-0.007-0.103-0.013-0.153-0.02c-0.182-0.167-0.41-0.235-0.637-0.305c-0.833-0.392-1.236-1.106-1.447-1.958
								c-0.261-1.053,0.1-1.954,0.696-2.793c0.202-0.284,0.4-0.571,0.6-0.857c0.053-0.066,0.125-0.089,0.206-0.094
								c2.765-0.008,5.529-0.004,8.294-0.002C359.97,102.321,360.087,102.467,360.183,102.644z"/>
							<path fill-rule="evenodd" clip-rule="evenodd" fill="#10509F" d="M348.339,107.533c-0.286,0.274-0.565,0.558-0.958,0.68
								c-0.157,0.197-0.369,0.259-0.609,0.25c-0.44,0.001-0.881,0.004-1.32-0.001c-0.239-0.007-0.455-0.066-0.612-0.264
								c-0.472-0.207-0.831-0.55-1.126-0.962c-0.143-0.199-0.31-0.247-0.441-0.047c-0.3,0.452-0.744,0.718-1.177,1.003
								c-0.17,0.23-0.417,0.267-0.677,0.271c-0.438,0.001-0.875,0.004-1.313-0.001c-0.207-0.01-0.407-0.034-0.534-0.231
								c-1.016-0.427-1.608-1.193-1.803-2.277c-0.1-0.385-0.106-0.769,0.005-1.152c0.23-0.951,0.76-1.721,1.438-2.402
								c0.143-0.101,0.307-0.074,0.464-0.074c2.524-0.001,5.048-0.002,7.572,0c0.156,0,0.32-0.03,0.464,0.071
								c0.277,0.12,0.362,0.398,0.494,0.63c0.26,0.461,0.646,0.843,0.817,1.362c0.234,0.704,0.232,1.403-0.028,2.089
								c-0.077,0.205-0.097,0.459-0.312,0.599C348.533,107.203,348.498,107.415,348.339,107.533z"/>
							<path fill-rule="evenodd" clip-rule="evenodd" fill="#EC1F29" d="M335.552,102.401c0.067,0.015,0.118,0.048,0.157,0.11
								c0.401,0.626,0.907,1.195,1.157,1.907c0.322,0.919,0.225,1.813-0.311,2.633c-0.261,0.4-0.563,0.774-1.015,0.982
								c-0.272,0.089-0.572,0.108-0.798,0.316l-0.033,0.013l-0.036-0.001c-0.486,0.092-0.974,0.096-1.46-0.002
								c-0.077-0.01-0.154-0.02-0.231-0.029c-0.08-0.246-0.328-0.2-0.498-0.29c-0.413-0.104-0.668-0.421-0.914-0.727
								c-0.208-0.257-0.339-0.335-0.566-0.015c-0.165,0.233-0.369,0.456-0.645,0.581c-0.323,0.048-0.573,0.405-0.95,0.227
								c0.025,0.076,0.146,0.132,0.05,0.234c-0.049,0.006-0.099,0.013-0.147,0.019c-0.488,0.078-0.977,0.098-1.464,0
								c-0.05-0.007-0.099-0.015-0.147-0.022c-0.053-0.122-0.008-0.339-0.274-0.236c-0.114,0.043-0.252-0.013-0.37-0.067
								c-1.232-0.577-1.875-2.298-1.37-3.616c0.284-0.745,0.789-1.346,1.22-1.996c0.055-0.065,0.128-0.089,0.21-0.094
								c2.685-0.009,5.369-0.002,8.053-0.003C335.301,102.326,335.437,102.313,335.552,102.401z"/>
							<path fill-rule="evenodd" clip-rule="evenodd" fill="#090808" d="M333.186,135.349c0.437-0.062,0.628-0.355,0.884-0.579
								c0.319-0.278,0.591-0.6,0.899-0.885c0.057-0.052,0.282-0.233,0.032-0.386c-0.084-0.052-0.021-0.147-0.006-0.219
								c0.024-0.109,0.157-0.245,0.049-0.318c-0.134-0.09-0.318-0.159-0.491-0.061c-0.47,0.266-1.018,0.408-1.365,0.871
								c-0.104,0.139-0.222,0.262-0.436,0.165c-0.16-0.072-0.207-0.217-0.15-0.32c0.075-0.138-0.099-0.333,0.24-0.454
								c0.305-0.109,0.675-0.274,0.959-0.528c0.084-0.075,0.269-0.266,0.47-0.113c0.041,0.031,0.082,0.018,0.133-0.024
								c0.418-0.339,1.459,0.061,1.621,0.613c0.059,0.201,0.041,0.381-0.045,0.579c-0.137,0.316-0.446,0.53-0.496,0.897
								c-0.017,0.125-0.172,0.001-0.242,0.081c0.078,0.139,0.221,0.161,0.354,0.22c0.412,0.181,0.448,0.431,0.137,0.772
								c-0.053,0.057-0.015,0.119-0.002,0.179c0.08,0.391-0.155,0.852-0.532,0.948c-0.146,0.038-0.175,0.149-0.264,0.216
								c-0.127,0.097-0.21,0.313-0.41,0.099c-0.018-0.018-0.088-0.02-0.099-0.005c-0.325,0.477-0.711,0.017-1.063,0.07
								c-0.08,0.012-0.059-0.067-0.064-0.11c-0.012-0.077,0.024-0.184-0.06-0.217c-0.14-0.055-0.063,0.106-0.116,0.143
								c-0.084,0.059-0.106-0.027-0.147-0.068c-0.185-0.187-0.274-0.445-0.492-0.614c-0.12-0.093,0.177-0.667,0.346-0.688
								c0.164-0.021,0.169,0.125,0.177,0.214c0.054,0.621,0.583,0.723,1.009,0.86c0.302,0.098,0.513-0.207,0.646-0.471
								c0.064-0.127,0.069-0.284,0.101-0.428c0.029-0.14,0.146-0.311,0.017-0.413c-0.127-0.101-0.3,0.042-0.394,0.116
								C333.968,135.82,333.613,135.677,333.186,135.349z"/>
							<path fill-rule="evenodd" clip-rule="evenodd" fill="#0F8040" d="M345.78,81.027c-0.034,0.237,0.186,0.404,0.175,0.635
								c0.05,0.078,0.069,0.169,0.11,0.25c0.102-0.173,0.137-0.37,0.194-0.559c0.128-0.069,0.167-0.195,0.209-0.321
								c0.077-0.229,0.245-0.297,0.471-0.261c0.21,0.033,0.278,0.145,0.334,0.362c0.068,0.271,0.067,0.581,0.286,0.857
								c0.189-0.305,0.196-0.642,0.322-0.934c0.063-0.144,0.092-0.354,0.272-0.343c0.202,0.011,0.432,0.033,0.595,0.183
								c0.128,0.119,0.02,0.216-0.075,0.295c-0.229,0.192-0.334,0.429-0.321,0.734c0.023,0.519-0.291,0.963-0.345,1.471
								c-0.018,0.161-0.173,0.284-0.352,0.27c-0.173-0.013-0.395-0.08-0.387-0.276c0.015-0.335-0.203-0.6-0.21-0.919
								c-0.093-0.09-0.026-0.235-0.144-0.369c-0.121,0.413-0.378,0.748-0.369,1.177c0.002,0.095-0.004,0.188-0.119,0.22
								c-0.03,0.028-0.06,0.056-0.09,0.084c-0.246,0.18-0.41,0.059-0.551-0.15c-0.195-0.761-0.509-1.492-0.604-2.28
								c-0.005-0.039-0.009-0.089-0.034-0.111c-0.506-0.447-0.001-0.408,0.236-0.498C345.628,80.614,345.671,80.848,345.78,81.027z"
								/>
							<path fill-rule="evenodd" clip-rule="evenodd" fill="#0A080A" d="M342.432,137.068c-0.731,0.293-1.43,0.108-2.123-0.151
								c-0.065-0.412-0.521-0.626-0.531-1.064c-0.005-0.195,0.468-0.708,0.729-0.707c0.285,0.001,0.447-0.288,0.733-0.24
								c0.075,0.013,0.094-0.077,0.096-0.147c0.002-0.054,0.008-0.108,0.001-0.16c-0.081-0.683,0.027-1.353,0.157-2.029
								c-0.001,0,0.031-0.014,0.032-0.012c0.111,0.211,0.267,0.315,0.519,0.364c0.238,0.047,0.384,0.78,0.331,1.082
								c-0.152,0.866-0.308,1.737-0.072,2.615c0.006,0.022,0.07,0.029,0.106,0.043C342.497,136.793,342.546,136.926,342.432,137.068
								z"/>
							<path fill-rule="evenodd" clip-rule="evenodd" fill="#080809" d="M349.387,135.617c0.188,0.357,0.325,0.698,0.032,1.091
								c-0.089,0.119-0.016,0.359-0.016,0.543c0,0.131-0.032,0.263-0.188,0.239c-0.101-0.016-0.31-0.02-0.2-0.24
								c0.034-0.068,0.038-0.116-0.02-0.174c-0.411-0.415-0.392-0.953-0.324-1.456c0.029-0.216-0.12-0.469,0.094-0.674
								c0.069-0.066-0.059-0.121-0.126-0.154c-0.121-0.058-0.233,0.004-0.35,0.026c-0.168,0.032-0.418,0.049-0.452-0.095
								c-0.037-0.16-0.018-0.433,0.171-0.531c0.121-0.063,0.206-0.378,0.465-0.107c0.11,0.116,0.34-0.217,0.24-0.439
								c-0.162-0.366,0.048-0.766-0.113-1.133c-0.034-0.077,0.051-0.073,0.122-0.084c0.615-0.101,0.998,0.332,0.885,1.014
								c-0.054,0.321,0.158,0.575,0.476,0.545c0.227-0.021,0.446-0.024,0.662,0.052c0.099,0.035,0.279-0.006,0.222,0.192
								c-0.037,0.128-0.02,0.308-0.232,0.321c-0.238,0.014-0.467,0.109-0.711,0.078c-0.181-0.023-0.318,0.029-0.322,0.248
								c-0.065,0.154-0.018,0.359-0.247,0.44C349.343,135.357,349.32,135.496,349.387,135.617z"/>
							<path fill-rule="evenodd" clip-rule="evenodd" fill="#0D813F" d="M349.163,82.462c-0.003-0.305,0.008-0.611-0.011-0.915
								c-0.03-0.466,0.207-0.709,0.607-0.901c0.569-0.273,1.102-0.309,1.637,0.053c0.466,0.31,0.511,0.426,0.31,0.798
								c-0.347,0.447-0.876,0.586-1.355,0.81c-0.243,0.124-0.23,0.287-0.072,0.473c0.499,0.197,0.698-0.224,0.984-0.474
								c0.089-0.078,0.138-0.236,0.321-0.173c0.175,0.061,0.167,0.224,0.235,0.345c0.06,0.107-0.002,0.177-0.075,0.24
								c-0.279,0.237-0.561,0.473-0.841,0.708c-0.296,0.168-0.573,0.442-0.947,0.167c-0.133-0.003-0.255-0.03-0.329-0.157
								C349.433,83.13,349.194,82.846,349.163,82.462z"/>
							<path fill-rule="evenodd" clip-rule="evenodd" fill="#0B080B" d="M344.355,135.732c0.052-0.182-0.068-0.471,0.268-0.546
								c0.021-0.004,0.043-0.029,0.051-0.049c0.115-0.307,0.354-0.415,0.677-0.732c0.249-0.244,0.464-0.278,0.733-0.229
								c0.185,0.034,0.142-0.194,0.327-0.191c0.396,0.006,0.611,0.252,0.783,0.523c0.169,0.265,0.284,0.58,0.117,0.909
								c-0.079,0.155,0.067,0.101,0.116,0.11c0.114,0.023,0.139,0.145,0.085,0.166c-0.271,0.107-0.135,0.314-0.149,0.488
								c-0.007,0.09-0.016,0.222-0.072,0.26c-0.342,0.226-0.501,0.632-0.851,0.85c-0.06,0.037-0.113,0.055-0.175,0.066
								C345.232,137.546,344.323,136.786,344.355,135.732z"/>
							<path fill-rule="evenodd" clip-rule="evenodd" fill="#0B090A" d="M354.262,134.556c-0.101,0.33-0.328,0.393-0.625,0.291
								c-0.336-0.115-0.675-0.138-1.013-0.027c-0.148,0.049-0.309,0.124-0.282,0.331c0.026,0.2,0.202,0.127,0.315,0.153
								c0.536,0.124,1.021,0.358,1.43,0.724c0.251,0.225,0.167,0.588-0.139,0.75c-0.616,0.328-1.256,0.616-1.968,0.493
								c-0.18-0.031-0.517,0.133-0.582-0.252c-0.054-0.311,0.085-0.477,0.405-0.438c0.307,0.038,0.612,0.085,0.919,0.128
								c0.093,0.013,0.168,0.014,0.254-0.061c0.279-0.243,0.246-0.3-0.075-0.491c-0.413-0.245-1.019-0.184-1.225-0.784
								c-0.039-0.112-0.252-0.276-0.178-0.351c0.227-0.232,0.154-0.699,0.553-0.759c0.211-0.032,0.436-0.133,0.654-0.027
								c0.188,0.09,0.212-0.178,0.362-0.158c0.399,0.054,0.825-0.085,1.199,0.163C354.358,134.348,354.354,134.452,354.262,134.556z
								"/>
							<path fill-rule="evenodd" clip-rule="evenodd" fill="#1968AD" d="M339.883,82.967c0.396-0.085,0.794-0.032,1.184,0.021
								c0.257,0.035,0.458-0.063,0.518-0.247c0.057-0.171-0.17-0.243-0.334-0.301c-0.466-0.164-0.945-0.312-1.22-0.78
								c-0.167-0.457-0.037-0.755,0.485-1.11c0.579,0.075,1.119-0.225,1.703-0.167c0.259,0.026,0.482,0.08,0.521,0.338
								c0.042,0.284-0.242,0.527-0.542,0.459c-0.387-0.087-0.755-0.178-1.148-0.023c-0.155,0.061-0.271,0.13-0.259,0.295
								c0.014,0.161,0.159,0.164,0.294,0.201c0.562,0.156,1.145,0.285,1.511,0.812c0.096,0.163,0.098,0.326-0.001,0.489
								c-0.11,0.187-0.363,0.155-0.488,0.32c-0.133,0.131-0.338,0.048-0.477,0.162l-0.004-0.002
								c-0.183,0.173-0.456-0.016-0.637,0.162c-0.358,0.063-0.712-0.051-1.069-0.029c-0.019,0.001-0.041-0.084-0.063-0.129
								C339.748,83.274,339.729,83.116,339.883,82.967z"/>
							<path fill-rule="evenodd" clip-rule="evenodd" fill="#EB2128" d="M332.173,81.829c0.152,0.355,0.021,0.757,0.179,1.112
								c0.462,0.158,0.575,0.316,0.462,0.643c-0.654,0.039-1.297,0.225-1.958,0.148c-0.283-0.033-0.513-0.216-0.729-0.373
								c-0.276-0.2-0.203-0.545,0.118-0.699c0.268-0.128,0.543-0.237,0.815-0.354c0.416-0.146,0.416-0.146,0.335-0.885
								c-0.183-0.278-0.343-0.063-0.476,0.044c-0.142,0.115-0.25,0.272-0.366,0.417c-0.146,0.184-0.313,0.23-0.438,0.01
								c-0.094-0.165-0.332-0.346-0.01-0.56c0.328-0.218,0.629-0.479,0.93-0.736c0.374-0.317,0.473-0.321,0.822,0.026
								c0.096,0.326,0.22,0.646,0.223,0.992C332.08,81.704,332.121,81.767,332.173,81.829z"/>
							<path fill-rule="evenodd" clip-rule="evenodd" fill="#ED2327" d="M333.797,110.285c-0.173,0-0.346,0-0.519,0
								c-0.598,0-0.609-0.012-0.601-0.633c0.005-0.292,0.054-0.579,0.008-0.875c-0.034-0.223,0.017-0.403,0.335-0.289
								c0.633,0.227,1.279,0.213,1.914,0.003c0.271-0.09,0.315,0.023,0.273,0.24c-0.079,0.404-0.181,0.804-0.257,1.209
								c-0.053,0.277-0.202,0.375-0.477,0.35C334.251,110.268,334.023,110.285,333.797,110.285z"/>
							<path fill-rule="evenodd" clip-rule="evenodd" fill="#0C803F" d="M358.13,110.283c-0.12,0-0.239,0-0.359,0
								c-0.707,0.001-0.707,0.001-0.742-0.696c0-0.013-0.004-0.027-0.001-0.04c0.062-0.342-0.143-0.782,0.084-1.01
								c0.216-0.217,0.598,0.062,0.909,0.103c0.43,0.058,0.849-0.045,1.261-0.147c0.218-0.054,0.313-0.017,0.267,0.21
								c-0.091,0.456-0.198,0.909-0.293,1.365c-0.039,0.188-0.166,0.218-0.325,0.216
								C358.663,110.281,358.396,110.283,358.13,110.283z"/>
							<path fill-rule="evenodd" clip-rule="evenodd" fill="#ED2427" d="M328.728,110.284c-0.159,0-0.319,0-0.479,0
								c-0.57,0-0.588-0.012-0.696-0.565c-0.063-0.326-0.125-0.652-0.178-0.98c-0.034-0.216,0.012-0.32,0.276-0.238
								c0.622,0.192,1.253,0.205,1.873-0.019c0.246-0.089,0.346-0.025,0.34,0.24c-0.008,0.413-0.006,0.826-0.001,1.24
								c0.002,0.237-0.103,0.336-0.34,0.326C329.259,110.276,328.993,110.285,328.728,110.284z"/>
							<path fill-rule="evenodd" clip-rule="evenodd" fill="#14823F" d="M351.88,109.634c-0.006-0.05-0.012-0.099-0.018-0.148
								c-0.106-0.206-0.013-0.455-0.14-0.657c-0.068-0.291-0.015-0.446,0.326-0.315c0.612,0.234,1.227,0.152,1.83-0.024
								c0.246-0.072,0.332-0.03,0.354,0.234c0.038,0.442-0.008,0.878-0.031,1.316c-0.011,0.211-0.146,0.25-0.33,0.247
								c-0.584-0.01-1.168-0.01-1.752-0.015C351.925,110.103,351.944,109.853,351.88,109.634z"/>
							<path fill-rule="evenodd" clip-rule="evenodd" fill="#114FA1" d="M341.955,110.265c-0.611,0.006-1.224,0.013-1.836,0.015
								c-0.087,0-0.203,0.025-0.235-0.097c-0.151-0.574-0.356-1.139-0.308-1.748c0.194-0.073,0.365,0.004,0.537,0.08
								c0.439,0.072,0.878,0.108,1.313-0.029c0.133-0.064,0.272-0.053,0.412-0.044c0.204,0.059,0.188,0.229,0.187,0.386
								c-0.001,0.435,0.012,0.869-0.007,1.303C342.008,110.182,341.987,110.226,341.955,110.265z"/>
							<path fill-rule="evenodd" clip-rule="evenodd" fill="#134FA0" d="M347.076,110.122c-0.015,0.173-0.145,0.159-0.262,0.158
								c-0.607-0.004-1.214-0.011-1.821-0.016c-0.167-0.565-0.081-1.137-0.044-1.708c0.003-0.048,0.063-0.079,0.111-0.102
								c0.158-0.043,0.313-0.01,0.465,0.033c0.402,0.115,0.802,0.085,1.207,0.006c0.207-0.04,0.423-0.17,0.638-0.012
								c0.057,0.397-0.201,0.751-0.155,1.146C347.112,109.777,347.158,109.968,347.076,110.122z"/>
							<path fill-rule="evenodd" clip-rule="evenodd" fill="#E92526" d="M335.066,80.458c-0.088-0.421,0.115-0.833,0.021-1.267
								c-0.052-0.237,0.249-0.284,0.434-0.311c0.182-0.027,0.186,0.146,0.197,0.282c0.086,0.971,0.089,1.945,0.074,2.919
								c-0.005,0.336,0.006,0.667,0.098,0.992c0.037,0.129,0.096,0.267-0.021,0.376c-0.118,0.11-0.219-0.029-0.328-0.051
								c-0.16-0.031-0.382-0.232-0.406,0.139c-0.002,0.035-0.038,0.087-0.05,0.034c-0.022-0.098-0.169-0.069-0.152-0.138
								c0.077-0.323-0.152-0.612-0.088-0.93c0.01-0.049-0.013-0.125,0.015-0.148c0.406-0.34,0.217-0.711,0.073-1.087
								c-0.027-0.071-0.011-0.159-0.015-0.239C335.216,80.905,335.13,80.678,335.066,80.458z"/>
							<path fill-rule="evenodd" clip-rule="evenodd" fill="#EB2226" d="M333.458,79.734c-0.005-0.146-0.001-0.292-0.017-0.437
								c-0.034-0.316,0.211-0.383,0.417-0.42c0.26-0.047,0.242,0.181,0.246,0.354c0.022,1.067,0.051,2.133,0.062,3.2
								c0.002,0.232,0.074,0.446,0.094,0.672c0.034,0.398-0.019,0.44-0.378,0.298c-0.086-0.034-0.169-0.076-0.253-0.114
								c-0.142,0.09-0.246,0.034-0.335-0.086c-0.045-0.248-0.091-0.495-0.134-0.742c-0.012-0.07,0.005-0.164,0.069-0.167
								c0.373-0.016,0.179-0.297,0.225-0.464c-0.08-0.155-0.033-0.347-0.141-0.495l-0.001-0.001c-0.204-0.247,0.13-0.409,0.1-0.654
								C333.376,80.372,333.395,80.047,333.458,79.734z"/>
							<path fill-rule="evenodd" clip-rule="evenodd" fill="#118040" d="M354.275,79.095c0.139-0.148,0.304-0.269,0.509-0.183
								c0.211,0.088,0.131,0.303,0.126,0.463c-0.028,1.056,0.108,2.11,0.023,3.165c-0.018,0.215,0.118,0.378,0.144,0.577
								c0.033,0.259-0.026,0.396-0.316,0.312c-0.062-0.066-0.146-0.063-0.224-0.069c-0.486-0.035-0.499-0.08-0.548-0.569
								c-0.033-0.339,0.229-0.587,0.199-0.911c-0.016-0.182,0.057-0.375-0.069-0.544l0.001,0c-0.054-0.046-0.104-0.123-0.068-0.171
								c0.266-0.354,0.109-0.756,0.141-1.136c0.009-0.105-0.003-0.212,0.072-0.3l0.001,0c0.089-0.119,0.064-0.243-0.002-0.355
								C354.204,79.272,354.196,79.185,354.275,79.095z"/>
							<path fill-rule="evenodd" clip-rule="evenodd" fill="#11813E" d="M352.361,82.544c-0.002-0.054-0.005-0.107-0.007-0.161
								c0.132-0.045,0.256-0.064,0.233-0.277c-0.027-0.253,0.024-0.515-0.075-0.763l-0.001,0c-0.016-0.022-0.041-0.053-0.033-0.069
								c0.337-0.602,0.033-1.251,0.131-1.876c0.038-0.247,0.075-0.392,0.302-0.47c0.386-0.129,0.384,0.134,0.386,0.387
								c0.008,1.158,0.014,2.316,0.02,3.474c0.053,0.16,0.116,0.319,0.113,0.49c-0.004,0.204-0.101,0.254-0.276,0.154l0,0
								c-0.01-0.009-0.02-0.026-0.029-0.025C352.519,83.432,352.354,83.064,352.361,82.544z"/>
							<path fill-rule="evenodd" clip-rule="evenodd" fill="#11823F" d="M356.681,80.464c0.03,0.425-0.142,0.844-0.035,1.272
								c0.028,0.118-0.033,0.21-0.151,0.245c-0.168,0.049-0.298-0.051-0.377-0.166c-0.1-0.145-0.127-0.332-0.375-0.313
								c-0.101,0.007-0.113-0.127-0.103-0.226c0.078-0.717,0.158-1.432,0.406-2.119c0.155-0.43,0.307-0.498,0.637-0.238
								c0.27,0.175,0.296,0.411,0.158,0.679C356.701,79.872,356.814,80.191,356.681,80.464z"/>
							<path fill-rule="evenodd" clip-rule="evenodd" fill="#1B6AAB" d="M338.429,82.949c-0.056-0.394-0.157-0.775-0.171-1.181
								c-0.013-0.384,0.133-0.723,0.17-1.087c0.016-0.147,0.156-0.195,0.23-0.139c0.244,0.184,0.555,0.334,0.553,0.713
								c-0.002,0.503-0.009,1.006-0.015,1.509c-0.002,0.15,0.046,0.283,0.112,0.418c0.132,0.271,0.125,0.474-0.267,0.44
								c-0.149-0.013-0.311,0.122-0.449-0.037C338.442,83.398,338.58,83.136,338.429,82.949z"/>
							<path fill-rule="evenodd" clip-rule="evenodd" fill="#0A0908" d="M339.177,137.309c-0.533-0.008-0.494-0.017-0.627-0.597
								c-0.129-0.56-0.177-1.113-0.15-1.683c0.011-0.229,0.156-0.417,0.134-0.665c-0.014-0.157,0.118-0.242,0.335-0.11
								c0.537,0.327,0.421,0.845,0.404,1.31c-0.016,0.455-0.019,0.892,0.132,1.329C339.525,137.244,339.475,137.313,339.177,137.309
								z"/>
							<path fill-rule="evenodd" clip-rule="evenodd" fill="#0A0809" d="M343.839,135.153c0.01,0.627-0.09,1.215,0.156,1.774
								c0.058,0.132,0.009,0.415-0.052,0.381c-0.238-0.132-0.569,0.297-0.725-0.132c-0.163-0.45-0.161-0.931-0.248-1.395
								c-0.09-0.476,0.058-0.928,0.124-1.387c0.029-0.203,0.151-0.322,0.354-0.113C343.697,134.539,344.02,134.762,343.839,135.153z
								"/>
							<path fill-rule="evenodd" clip-rule="evenodd" fill="#B8D95D" d="M351.376,102.409c-0.044,0.004-0.088,0.009-0.132,0.014
								c0.004-0.212,0.165-0.174,0.289-0.174c2.739-0.003,5.479-0.004,8.219-0.004c0.261,0,0.425,0.116,0.431,0.399
								c-0.096-0.078-0.191-0.156-0.287-0.234c-0.079-0.07-0.177-0.045-0.268-0.045c-2.661-0.001-5.323-0.001-7.984,0
								C351.553,102.365,351.456,102.339,351.376,102.409z"/>
							<path fill-rule="evenodd" clip-rule="evenodd" fill="#FEA548" d="M327.042,102.403c-0.045,0.006-0.091,0.013-0.137,0.02
								c0.006-0.209,0.162-0.175,0.289-0.175c2.7-0.002,5.401-0.002,8.102-0.002c0.092,0,0.189-0.012,0.246,0.088
								c-0.142,0.057-0.29,0.029-0.435,0.029c-2.545,0.002-5.089,0-7.634,0.003C327.33,102.366,327.181,102.328,327.042,102.403z"/>
							<path fill-rule="evenodd" clip-rule="evenodd" fill="#C34300" d="M327.042,102.403c0.098-0.096,0.223-0.078,0.341-0.078
								c2.72,0.002,5.439,0.005,8.159,0.008c0.005,0.022,0.009,0.045,0.01,0.067C332.716,102.401,329.879,102.402,327.042,102.403z"
								/>
							<path fill-rule="evenodd" clip-rule="evenodd" fill="#4B4D15" d="M347.711,102.397c-2.833,0.001-5.666,0.002-8.5,0.003
								c0.005-0.025,0.012-0.05,0.021-0.074c0.097-0.066,0.206-0.039,0.31-0.039c2.618-0.002,5.235-0.002,7.853,0
								c0.104,0,0.214-0.027,0.31,0.041C347.712,102.35,347.714,102.373,347.711,102.397z"/>
							<path fill-rule="evenodd" clip-rule="evenodd" fill="#CBCE95" d="M347.704,102.328c-2.824,0-5.648-0.001-8.472-0.001
								c0.099-0.135,0.243-0.08,0.367-0.08c2.593-0.003,5.185-0.003,7.776-0.001C347.489,102.246,347.619,102.203,347.704,102.328z"
								/>
							<path fill-rule="evenodd" clip-rule="evenodd" fill="#BCBE69" d="M347.37,108.482c-0.282,0.057-0.564,0.119-0.848,0.168
								c-0.466,0.081-0.915-0.027-1.364-0.132c-0.263-0.1-0.206,0.101-0.21,0.231c-0.016,0.505,0.024,1.012-0.021,1.517
								c-0.175-0.071-0.105-0.229-0.106-0.347c-0.001-0.574,0.011-1.148,0.019-1.722c0.197-0.023,0.33,0.185,0.53,0.152
								c0.496,0.074,0.992,0.069,1.489,0.003c0.199,0.048,0.337-0.134,0.522-0.14C347.377,108.303,347.373,108.393,347.37,108.482z"
								/>
							<path fill-rule="evenodd" clip-rule="evenodd" fill="#A3B334" d="M354.119,81.337c0.243,0.258,0.228,0.849-0.025,1.028
								c-0.128,0.091,0.021,0.187,0.003,0.272c-0.099,0.456,0.063,0.692,0.542,0.674c0.087-0.003,0.114,0.044,0.122,0.118
								c-0.143,0.016-0.272,0.022-0.395,0.142c-0.194,0.19-0.396,0.11-0.402-0.17c-0.014-0.531-0.151-1.073,0.123-1.591
								C354.154,81.683,354.111,81.497,354.119,81.337z"/>
							<path fill-rule="evenodd" clip-rule="evenodd" fill="#C0BD73" d="M341.955,110.265l-0.007-0.028
								c0.086-0.527,0.021-1.058,0.037-1.587c0.005-0.171-0.089-0.206-0.233-0.135c-0.109,0.007-0.22,0.009-0.314,0.078
								c-0.455,0.069-0.911,0.059-1.368,0.007c-0.164-0.055-0.329-0.11-0.493-0.165c-0.038-0.067-0.05-0.135-0.005-0.204
								c0.157,0.003,0.276,0.148,0.441,0.117c0.497,0.078,0.993,0.071,1.49,0.004c0.219,0.027,0.386-0.139,0.592-0.161
								c0.006,0.592,0.017,1.184,0.014,1.776C342.107,110.08,342.172,110.254,341.955,110.265z"/>
							<path fill-rule="evenodd" clip-rule="evenodd" fill="#2A8536" d="M355.868,82.998c0.005-0.074,0.006-0.127,0.013-0.18
								c0.018-0.138-0.208-0.353,0.106-0.398c0.223-0.032,0.514,0.257,0.508,0.481c-0.001,0.065-0.008,0.132-0.021,0.196
								c-0.038,0.207-0.097,0.381-0.372,0.357C355.741,83.424,355.904,83.156,355.868,82.998z"/>
							<path fill-rule="evenodd" clip-rule="evenodd" fill="#739F36" d="M352.911,78.927c-0.172,0.124-0.247,0.272-0.236,0.503
								c0.021,0.476-0.052,0.956,0.063,1.428c0.055,0.225-0.209,0.296-0.227,0.485c-0.255-0.063-0.161-0.335-0.095-0.35
								c0.287-0.065,0.108-0.208,0.095-0.333c-0.053-0.497,0.1-0.989,0.026-1.493C352.511,78.983,352.708,78.888,352.911,78.927z"/>
							<path fill-rule="evenodd" clip-rule="evenodd" fill="#3D7495" d="M338.849,80.134c-0.122-0.332-0.287-0.508-0.427-0.704
								c-0.07-0.097-0.252-0.194-0.075-0.312c0.123-0.081,0.289-0.088,0.421,0.071C338.989,79.458,338.938,79.732,338.849,80.134z"
								/>
							<path fill-rule="evenodd" clip-rule="evenodd" fill="#A9B731" d="M346.428,83.5c0.147-0.399,0.124-0.84,0.317-1.232
								c0.056-0.114-0.035-0.35,0.173-0.326c0.213,0.024,0.218,0.229,0.164,0.413c-0.012,0.038-0.016,0.079-0.022,0.118
								c-0.351,0.15-0.4,0.47-0.464,0.793C346.58,83.349,346.723,83.603,346.428,83.5z"/>
							<path fill-rule="evenodd" clip-rule="evenodd" fill="#1F1407" d="M338.353,132.814c0.205-0.034,0.367-0.116,0.517,0.087
								c0.15,0.206,0.169,0.433,0.182,0.668c0.003,0.059-0.036,0.103-0.095,0.104c-0.05,0-0.107-0.008-0.12-0.076
								C338.778,133.293,338.492,133.134,338.353,132.814z"/>
							<path fill-rule="evenodd" clip-rule="evenodd" fill="#1D1307" d="M342.935,132.834c0.482-0.108,0.809,0.245,0.689,0.726
								c-0.013,0.053-0.017,0.107-0.083,0.114c-0.058,0.006-0.11-0.016-0.124-0.074
								C343.345,133.292,343.058,133.117,342.935,132.834z"/>
							<path fill-rule="evenodd" clip-rule="evenodd" fill="#739F36" d="M352.361,82.544c0.299,0.161-0.005,0.499,0.182,0.665
								c0.159,0.142,0.469-0.109,0.604,0.185c0.006,0.012,0.004,0.026,0.006,0.039c-0.169,0.051-0.39-0.117-0.517,0.156
								c-0.036,0.077-0.26,0.02-0.258-0.108C352.386,83.167,352.243,82.857,352.361,82.544z"/>
							<path fill-rule="evenodd" clip-rule="evenodd" fill="#A3B334" d="M354.265,79.73c-0.049,0.536,0.2,1.099-0.145,1.607
								c-0.213-0.013-0.201-0.197-0.146-0.289c0.198-0.334,0.118-0.693,0.141-1.043C354.121,79.89,354.094,79.755,354.265,79.73z"/>
							<path fill-rule="evenodd" clip-rule="evenodd" fill="#14823F" d="M354.113,108.194c-0.028-0.127,0.234-0.208,0.041-0.375
								c-0.099-0.085,0.005-0.192,0.083-0.268c0.092-0.087,0.156-0.041,0.231,0.035c0.121,0.122,0.281,0.133,0.443,0.124
								C354.7,107.961,354.44,108.135,354.113,108.194z"/>
							<path fill-rule="evenodd" clip-rule="evenodd" fill="#ED2427" d="M329.459,108.341c-0.011-0.12-0.098-0.139-0.194-0.157
								c-0.121-0.022-0.145-0.122-0.106-0.214c0.061-0.141,0.177-0.059,0.224-0.003c0.163,0.195,0.365,0.111,0.495,0.022
								c0.161-0.11,0.311-0.121,0.482-0.11C330.089,108.091,329.807,108.28,329.459,108.341z"/>
							<path fill-rule="evenodd" clip-rule="evenodd" fill="#739F36" d="M352.513,81.343c0.245,0.118,0.095,0.357,0.149,0.533
								c0.06,0.188-0.014,0.405,0.065,0.653c-0.166-0.065-0.27-0.105-0.373-0.146C352.305,82.021,352.622,81.715,352.513,81.343z"/>
							<path fill-rule="evenodd" clip-rule="evenodd" fill="#A0A959" d="M340.516,80.55c-0.271,0.322-0.577,0.628-0.485,1.11
								c-0.315-0.137-0.216-0.486-0.138-0.604C340.03,80.847,340.137,80.497,340.516,80.55z"/>
							<path fill-rule="evenodd" clip-rule="evenodd" fill="#7A982D" d="M356.681,80.464c0.038-0.317-0.037-0.641,0.129-0.952
								c0.107-0.2,0.002-0.413-0.127-0.592c0.239-0.033,0.363,0.071,0.309,0.311C356.896,79.644,356.879,80.077,356.681,80.464z"/>
							<path fill-rule="evenodd" clip-rule="evenodd" fill="#EC891C" d="M333.458,79.734c-0.037,0.534,0.179,1.091-0.146,1.599
								c-0.053-0.001-0.126-0.008-0.115-0.07C333.279,80.752,333.37,80.244,333.458,79.734z"/>
							<path fill-rule="evenodd" clip-rule="evenodd" fill="#F58F25" d="M332.173,81.829c-0.08-0.011-0.207-0.05-0.19-0.107
								c0.12-0.389-0.214-0.719-0.126-1.098C332.169,80.971,332.154,81.404,332.173,81.829z"/>
							<path fill-rule="evenodd" clip-rule="evenodd" fill="#ED2427" d="M327.056,108.035c0.131-0.004,0.262-0.009,0.393-0.013
								c0.134-0.003,0.262-0.217,0.378-0.069c0.104,0.132-0.142,0.233-0.126,0.385C327.456,108.3,327.243,108.196,327.056,108.035z"
								/>
							<path fill-rule="evenodd" clip-rule="evenodd" fill="#ED2327" d="M333.214,108.358c0.486,0,0.974,0.001,1.46,0.002
								C334.187,108.553,333.7,108.557,333.214,108.358z"/>
							<path fill-rule="evenodd" clip-rule="evenodd" fill="#ED791F" d="M332.813,83.584c0.024-0.298-0.074-0.498-0.403-0.524
								c-0.063-0.005-0.063-0.067-0.059-0.119c0.306-0.106,0.438,0.213,0.667,0.302C333.119,83.282,333.038,83.553,332.813,83.584z"
								/>
							<path fill-rule="evenodd" clip-rule="evenodd" fill="#14823F" d="M352.186,108.357c0.487,0.001,0.975,0.003,1.462,0.004
								C353.16,108.525,352.672,108.574,352.186,108.357z"/>
							<path fill-rule="evenodd" clip-rule="evenodd" fill="#44532E" d="M344.927,110.268c-0.008-0.526-0.016-1.052-0.022-1.579
								c-0.003-0.186,0.013-0.348,0.254-0.17c-0.206,0.001-0.174,0.154-0.174,0.281c0.002,0.488,0.006,0.977,0.009,1.464
								l-0.033,0.007L344.927,110.268z"/>
							<path fill-rule="evenodd" clip-rule="evenodd" fill="#ED2427" d="M327.848,108.36c0.487,0,0.976,0,1.464,0
								C328.823,108.528,328.335,108.572,327.848,108.36z"/>
							<path fill-rule="evenodd" clip-rule="evenodd" fill="#B0AC45" d="M339.883,82.967c-0.009,0.157-0.018,0.314-0.026,0.471
								c-0.157-0.005-0.324,0.026-0.32-0.232C339.54,82.938,339.694,82.94,339.883,82.967z"/>
							<path fill-rule="evenodd" clip-rule="evenodd" fill="#EA6520" d="M331.395,81.421c0.104,0.091,0.061,0.22,0.083,0.332
								c0.104,0.506,0.104,0.506-0.418,0.554C331.457,82.12,331.378,81.752,331.395,81.421z"/>
							<path fill-rule="evenodd" clip-rule="evenodd" fill="#ED2327" d="M334.743,108.349c0.138-0.431,0.499-0.295,0.798-0.316
								C335.298,108.197,335.055,108.361,334.743,108.349z"/>
							<path fill-rule="evenodd" clip-rule="evenodd" fill="#A6B63A" d="M349.163,82.462c0.025,0.006,0.073,0.012,0.073,0.021
								c0.017,0.365,0.303,0.619,0.391,0.953C349.348,83.171,349.072,82.905,349.163,82.462z"/>
							<path fill-rule="evenodd" clip-rule="evenodd" fill="#EC8317" d="M333.294,83.201c0.112,0.028,0.224,0.057,0.335,0.086
								c-0.055,0.124-0.035,0.292-0.187,0.353c-0.041,0.016-0.125-0.035-0.169-0.076C333.144,83.44,333.314,83.325,333.294,83.201z"
								/>
							<path fill-rule="evenodd" clip-rule="evenodd" fill="#84A32C" d="M351.706,81.497c0.191-0.381-0.112-0.569-0.31-0.798
								c0.23,0.042,0.437,0.136,0.469,0.392C351.883,81.234,351.974,81.449,351.706,81.497z"/>
							<path fill-rule="evenodd" clip-rule="evenodd" fill="#F07F23" d="M335.066,80.458c0.227,0.145,0.149,0.381,0.124,0.565
								c-0.019,0.13-0.178-0.016-0.273,0.007C334.967,80.839,335.017,80.648,335.066,80.458z"/>
							<path fill-rule="evenodd" clip-rule="evenodd" fill="#879C2A" d="M349.956,83.593c0.358,0.187,0.628-0.131,0.947-0.167
								C350.556,83.817,350.325,83.857,349.956,83.593z"/>
							<path fill-rule="evenodd" clip-rule="evenodd" fill="#957130" d="M342.432,137.068c-0.007-0.135-0.014-0.271-0.021-0.406
								c0.06,0.159,0.376-0.138,0.342,0.199C342.729,137.079,342.618,137.124,342.432,137.068z"/>
							<path fill-rule="evenodd" clip-rule="evenodd" fill="#9AB63B" d="M346.26,81.354c0.01,0.132,0.017,0.261-0.045,0.389
								c-0.051,0.103-0.077,0.217-0.136,0.389c-0.087-0.181-0.148-0.311-0.124-0.469C346.213,81.714,346.102,81.4,346.26,81.354z"/>
							<path fill-rule="evenodd" clip-rule="evenodd" fill="#739F36" d="M353.153,83.433c0.168-0.006,0.29-0.057,0.224-0.26
								c-0.041-0.126-0.083-0.249-0.061-0.384c0.192,0.16,0.181,0.381,0.152,0.59C353.438,83.595,353.335,83.607,353.153,83.433z"/>
							<path fill-rule="evenodd" clip-rule="evenodd" fill="#76672A" d="M349.387,135.617c-0.051-0.181-0.241-0.405,0.162-0.435
								c0.058-0.004,0.102-0.198,0.152-0.305C349.813,135.217,349.436,135.346,349.387,135.617z"/>
							<path fill-rule="evenodd" clip-rule="evenodd" fill="#D7CB79" d="M337.706,105.94c-0.003,0.013-0.002,0.03-0.01,0.038
								c-0.014,0.012-0.032,0.019-0.048,0.027c-0.009-0.394-0.117-0.794,0.063-1.178C337.759,105.199,337.771,105.57,337.706,105.94
								z"/>
							<path fill-rule="evenodd" clip-rule="evenodd" fill="#82A22E" d="M345.78,81.027c-0.132-0.161-0.264-0.322-0.395-0.482
								C345.895,80.394,345.727,80.802,345.78,81.027z"/>
							<path fill-rule="evenodd" clip-rule="evenodd" fill="#14823F" d="M351.396,108.032c0.269-0.017,0.527-0.013,0.637,0.305
								C351.795,108.288,351.576,108.2,351.396,108.032z"/>
							<path fill-rule="evenodd" clip-rule="evenodd" fill="#808F65" d="M340.988,83.596c0.147-0.31,0.427-0.099,0.637-0.162
								C341.471,83.719,341.206,83.563,340.988,83.596z"/>
							<path fill-rule="evenodd" clip-rule="evenodd" fill="#756816" d="M337.706,105.94c0.002-0.371,0.003-0.742,0.005-1.113
								c0.021-0.01,0.041-0.018,0.063-0.025c-0.002,0.384-0.003,0.768-0.005,1.152C337.747,105.953,337.726,105.949,337.706,105.94z
								"/>
							<path fill-rule="evenodd" clip-rule="evenodd" fill="#ED2327" d="M332.484,108.04c0.207,0.026,0.527-0.146,0.498,0.29
								C332.819,108.227,332.604,108.215,332.484,108.04z"/>
							<path fill-rule="evenodd" clip-rule="evenodd" fill="#6A9263" d="M338.429,82.949c0.277,0.154,0.09,0.429,0.164,0.636
								C338.365,83.418,338.412,83.18,338.429,82.949z"/>
							<path fill-rule="evenodd" clip-rule="evenodd" fill="#81A427" d="M351.723,108.829c0.259,0.173,0.117,0.433,0.14,0.657
								C351.696,109.292,351.7,109.062,351.723,108.829z"/>
							<path fill-rule="evenodd" clip-rule="evenodd" fill="#A3B334" d="M354.275,79.095c-0.036,0.211,0.191,0.426-0.01,0.635
								c-0.018-0.124-0.016-0.244-0.101-0.36C354.086,79.262,354.073,79.119,354.275,79.095z"/>
							<path fill-rule="evenodd" clip-rule="evenodd" fill="#8DB02F" d="M345.787,83.434c0.159,0.14,0.335,0.219,0.551,0.15
								C346.09,83.855,345.948,83.816,345.787,83.434z"/>
							<path fill-rule="evenodd" clip-rule="evenodd" fill="#8DAB2C" d="M351.88,109.634c0.148,0.187,0.132,0.437,0.24,0.639
								C351.782,110.157,351.882,109.876,351.88,109.634z"/>
							<path fill-rule="evenodd" clip-rule="evenodd" fill="#9CB231" d="M350.278,82.78c-0.245-0.014-0.16-0.208-0.163-0.332
								c-0.003-0.147,0.127-0.142,0.235-0.141C350.217,82.448,350.242,82.613,350.278,82.78z"/>
							<path fill-rule="evenodd" clip-rule="evenodd" fill="#A4A848" d="M342.594,82.954c0-0.163,0.001-0.326,0.001-0.489
								C342.833,82.628,342.826,82.792,342.594,82.954z"/>
							<path fill-rule="evenodd" clip-rule="evenodd" fill="#A37A1D" d="M354.262,134.556c0.002-0.105,0.004-0.209,0.006-0.314
								c0.1,0.007,0.246-0.024,0.263,0.098C354.553,134.512,354.361,134.492,354.262,134.556z"/>
							<path fill-rule="evenodd" clip-rule="evenodd" fill="#65775C" d="M348.339,107.533c0.077-0.181,0.114-0.392,0.344-0.456
								C348.656,107.296,348.527,107.437,348.339,107.533z"/>
							<path fill-rule="evenodd" clip-rule="evenodd" fill="#EC891C" d="M333.313,81.334c0.276,0.099,0.089,0.332,0.142,0.495
								C333.304,81.694,333.296,81.518,333.313,81.334z"/>
							<path fill-rule="evenodd" clip-rule="evenodd" fill="#AD9B3C" d="M347.076,110.122c0.032-0.168-0.107-0.385,0.139-0.493
								C347.257,109.818,347.223,109.986,347.076,110.122z"/>
							<path fill-rule="evenodd" clip-rule="evenodd" fill="#929F58" d="M341.629,83.436c0.12-0.171,0.291-0.187,0.477-0.162
								C342.019,83.54,341.791,83.392,341.629,83.436z"/>
							<path fill-rule="evenodd" clip-rule="evenodd" fill="#4C6E00" d="M351.376,102.409c0.135-0.122,0.302-0.082,0.457-0.082
								c2.551-0.002,5.103-0.003,7.653,0c0.138,0,0.296-0.058,0.409,0.082C357.056,102.41,354.216,102.409,351.376,102.409z"/>
							<path fill-rule="evenodd" clip-rule="evenodd" fill="#485236" d="M346.858,108.354c-0.497,0.137-0.993,0.16-1.489-0.003
								C345.865,108.352,346.362,108.353,346.858,108.354z"/>
							<path fill-rule="evenodd" clip-rule="evenodd" fill="#4C5230" d="M341.503,108.353c-0.497,0.141-0.993,0.158-1.489-0.004
								C340.51,108.35,341.006,108.352,341.503,108.353z"/>
							<path fill-rule="evenodd" clip-rule="evenodd" fill="#E5BF24" d="M341.44,136.69c-0.184-0.106-0.347-0.173-0.476-0.28
								c-0.439-0.361-0.381-0.562,0.139-0.811c0.29-0.139,0.278,0.043,0.331,0.202c0.009,0.024,0.006,0.053,0.006,0.08
								C341.44,136.134,341.44,136.387,341.44,136.69z"/>
							<path fill-rule="evenodd" clip-rule="evenodd" fill="#DEC41E" d="M349.938,81.509c-0.029-0.222,0.038-0.316,0.233-0.315
								c0.074,0,0.168-0.023,0.221-0.071c0.187-0.173,0.332-0.101,0.479,0.05c0.188,0.194-0.077,0.24-0.128,0.339
								c-0.129,0.249-0.419,0.256-0.65,0.288C349.854,81.832,349.992,81.58,349.938,81.509z"/>
							<path fill-rule="evenodd" clip-rule="evenodd" fill="#F9CA0F" d="M345.817,136.804c-0.569-0.031-0.854-0.532-0.488-1.291
								c0.119-0.247,0.272-0.527,0.556-0.594c0.193-0.046,0.022-0.258,0.227-0.288c0.423-0.062,0.586-0.017,0.615,0.417
								c0.033,0.507-0.004,1.031-0.298,1.479C346.305,136.717,346.121,136.846,345.817,136.804z"/>
							<path fill-rule="evenodd" clip-rule="evenodd" fill="#F99C2A" d="M331.542,82.7c0.204-0.055,0.239,0.065,0.245,0.19
								c0.018,0.397-0.4,0.137-0.532,0.344c-0.037,0.059-0.188-0.038-0.162-0.147C331.152,82.847,331.304,82.691,331.542,82.7z"/>
							<path fill-rule="evenodd" clip-rule="evenodd" fill="#504F2D" d="M341.752,108.515c0.104-0.071,0.27-0.134,0.265,0.038
								c-0.015,0.561,0.116,1.13-0.068,1.684c0-0.473,0-0.946,0-1.419C341.948,108.675,341.977,108.512,341.752,108.515z"/>
							<path fill-rule="evenodd" clip-rule="evenodd" fill="#737926" d="M340.069,108.601c0.456-0.002,0.913-0.005,1.369-0.007
								C340.982,108.746,340.526,108.72,340.069,108.601z"/>
						</g>
					</g>
				</g>
			</g>
		</g>
	</g>
	<circle cx="343.6" cy="42.1" r="1.7"/>
</g>
</svg>
