<?xml version="1.0" encoding="utf-8"?>
<!-- Generator: Adobe Illustrator 16.0.0, SVG Export Plug-In . SVG Version: 6.00 Build 0)  -->
<!DOCTYPE svg PUBLIC "-//W3C//DTD SVG 1.1//EN" "http://www.w3.org/Graphics/SVG/1.1/DTD/svg11.dtd">
<svg version="1.1" id="Layer_1" xmlns="http://www.w3.org/2000/svg" xmlns:xlink="http://www.w3.org/1999/xlink" x="0px" y="0px"
	 width="449px" height="289px" viewBox="0 0 449 289" enable-background="new 0 0 449 289" xml:space="preserve">
<path fill="#3D3131" d="M209.7,240.4"/>
<path fill="#454545" d="M334.6,207l9.5,3.7l1.5-3.9l-9.5-3.7c-0.9-0.4-1.4-1.4-1-2.3c0.4-0.9,1.4-1.4,2.3-1l9.3,3.6
	c2.4-9-2.3-18.5-11.2-21.9c-8.9-3.4-18.8,0.5-23,8.7l9.9,3.8c0.9,0.4,1.4,1.4,1,2.3s-1.4,1.4-2.3,1l-10-3.9l-1.5,3.9l10,3.9
	c0.9,0.4,1.4,1.4,1,2.3c-0.4,0.9-1.4,1.4-2.3,1l-10-3.9l-1.5,3.9l10,3.9c0.9,0.4,1.4,1.4,1,2.3s-1.4,1.4-2.3,1l-10-3.9l-1.5,3.9
	l10,3.9c0.9,0.4,1.4,1.4,1,2.3c-0.4,0.9-1.4,1.4-2.3,1l-10-3.9l-1.5,3.9l10,3.9c0.9,0.4,1.4,1.4,1,2.3c-0.4,0.9-1.4,1.4-2.3,1
	l-9.9-3.8c-2.4,9,2.3,18.5,11.2,22c8.9,3.4,18.8-0.5,23-8.7l-9.3-3.6c-0.9-0.4-1.4-1.4-1-2.3c0.4-0.9,1.4-1.4,2.3-1l9.5,3.7l1.5-3.9
	l-9.5-3.7c-0.9-0.4-1.4-1.4-1-2.3c0.4-0.9,1.4-1.4,2.3-1l9.5,3.7l1.5-3.9l-9.5-3.7c-0.9-0.4-1.4-1.4-1-2.3c0.4-0.9,1.4-1.4,2.3-1
	l9.5,3.7l1.5-3.9l-9.5-3.7c-0.9-0.4-1.4-1.4-1-2.3C332.6,207.1,333.6,206.7,334.6,207z M313.4,238.6c-1.1-0.4-1.7-1.7-1.2-2.8
	c0.4-1.1,1.7-1.7,2.8-1.2c1.1,0.4,1.7,1.7,1.2,2.8C315.8,238.5,314.5,239,313.4,238.6z"/>
</svg>
