<?xml version="1.0" encoding="utf-8"?>
<!-- Generator: Adobe Illustrator 16.0.0, SVG Export Plug-In . SVG Version: 6.00 Build 0)  -->
<!DOCTYPE svg PUBLIC "-//W3C//DTD SVG 1.1//EN" "http://www.w3.org/Graphics/SVG/1.1/DTD/svg11.dtd">
<svg version="1.1" id="Layer_1" xmlns="http://www.w3.org/2000/svg" xmlns:xlink="http://www.w3.org/1999/xlink" x="0px" y="0px"
	 width="264.3px" height="384.2px" viewBox="0 0 264.3 384.2" enable-background="new 0 0 264.3 384.2" xml:space="preserve">
<g>
	<g>
		<g>
			<circle fill="#FFFAE6" cx="100.312" cy="126.01" r="100.297"/>
			<path fill="#DDDDDD" d="M150.918,209.364c-45.961,27.905-106.055,13.215-133.96-32.747
				C-10.945,130.655,3.745,70.562,49.705,42.654c45.963-27.903,106.057-13.212,133.962,32.749
				C211.57,121.365,196.88,181.459,150.918,209.364z M51.147,45.029C6.492,72.138-7.781,130.523,19.33,175.177
				c27.111,44.655,85.496,58.925,130.149,31.815c44.654-27.111,58.926-85.496,31.814-130.148
				C154.185,32.19,95.799,17.919,51.147,45.029z"/>
		</g>
		<g>
			<g>
				<circle fill="#EDEBD4" cx="95.51" cy="127.784" r="69.9"/>
				<path fill="#F6D777" d="M156.628,90.678c20.396,33.595,9.696,77.357-23.896,97.752c-33.592,20.396-77.356,9.698-97.751-23.896
					c-20.394-33.591-9.696-77.355,23.896-97.751C92.469,46.389,136.234,57.089,156.628,90.678z"/>
				<path fill="#EF6A54" d="M134.653,191.593c-35.282,21.421-81.414,10.144-102.833-25.139
					c-21.42-35.28-10.143-81.411,25.14-102.832c35.28-21.422,81.411-10.144,102.833,25.135
					C181.21,124.041,169.933,170.173,134.653,191.593z M60.798,69.946C29.002,89.249,18.84,130.82,38.144,162.615
					c19.303,31.793,60.876,41.959,92.669,22.653c31.794-19.301,41.955-60.875,22.652-92.669
					C134.163,60.806,92.592,50.644,60.798,69.946z"/>
				<g>
					<circle fill="#EF6A54" cx="63.167" cy="159.345" r="13.165"/>
					<circle fill="#F38476" cx="63.167" cy="159.346" r="10.479"/>
					<g>
						<g>
							<circle fill="#F6A39B" cx="61.399" cy="156.433" r="3.406"/>
							<circle fill="#F6A39B" cx="64.935" cy="162.257" r="3.406"/>
						</g>
						<g>
							<circle fill="#F6A39B" cx="66.079" cy="157.577" r="3.407"/>
							<circle fill="#F6A39B" cx="60.256" cy="161.112" r="3.406"/>
						</g>
					</g>
				</g>
				<g>
					<path fill="#EF6A54" d="M64.157,103.714c3.774,6.214,1.795,14.312-4.419,18.084c-6.214,3.774-14.313,1.796-18.086-4.422
						c-3.772-6.213-1.792-14.311,4.422-18.083C52.287,95.517,60.385,97.499,64.157,103.714z"/>
					<circle fill="#F38476" cx="52.905" cy="110.545" r="10.478"/>
					<g>
						<g>
							<circle fill="#F6A39B" cx="51.138" cy="107.633" r="3.406"/>
							<circle fill="#F6A39B" cx="54.672" cy="113.456" r="3.406"/>
						</g>
						<g>
							<circle fill="#F6A39B" cx="55.817" cy="108.776" r="3.406"/>
							<circle fill="#F6A39B" cx="49.994" cy="112.313" r="3.405"/>
						</g>
					</g>
				</g>
				<g>
					<circle fill="#EF6A54" cx="118.508" cy="166.458" r="13.165"/>
					<circle fill="#F38476" cx="118.509" cy="166.458" r="10.479"/>
					<g>
						<g>
							<circle fill="#F6A39B" cx="116.742" cy="163.546" r="3.407"/>
							<circle fill="#F6A39B" cx="120.277" cy="169.369" r="3.406"/>
						</g>
						<g>
							<circle fill="#F6A39B" cx="121.421" cy="164.69" r="3.407"/>
							<circle fill="#F6A39B" cx="115.597" cy="168.226" r="3.406"/>
						</g>
					</g>
				</g>
				<g>
					<circle fill="#EF6A54" cx="93.479" cy="127.039" r="13.163"/>
					<circle fill="#F38476" cx="93.479" cy="127.038" r="10.479"/>
					<g>
						<g>
							<circle fill="#F6A39B" cx="91.712" cy="124.127" r="3.407"/>
							<circle fill="#F6A39B" cx="95.246" cy="129.951" r="3.406"/>
						</g>
						<g>
							<path fill="#F6A39B" d="M98.158,128.183c-1.607,0.976-3.702,0.465-4.679-1.143c-0.975-1.607-0.463-3.704,1.145-4.682
								c1.607-0.974,3.702-0.461,4.68,1.146C100.278,125.112,99.767,127.206,98.158,128.183z"/>
							<circle fill="#F6A39B" cx="90.566" cy="128.806" r="3.406"/>
						</g>
					</g>
				</g>
				<g>
					<path fill="#EF6A54" d="M147.965,107.861c3.772,6.216,1.794,14.311-4.422,18.086c-6.213,3.771-14.31,1.794-18.083-4.421
						c-3.772-6.215-1.793-14.312,4.42-18.085C136.096,99.667,144.193,101.647,147.965,107.861z"/>
					<path fill="#F38476" d="M145.67,109.255c3.002,4.946,1.428,11.391-3.521,14.397c-4.946,3-11.391,1.426-14.395-3.52
						c-3.003-4.946-1.428-11.391,3.519-14.396C136.22,102.732,142.667,104.308,145.67,109.255z"/>
					<g>
						<g>
							<path fill="#F6A39B" d="M137.857,110.013c0.975,1.61,0.465,3.706-1.146,4.68c-1.606,0.978-3.701,0.466-4.678-1.145
								c-0.977-1.605-0.462-3.7,1.143-4.677C134.785,107.895,136.879,108.406,137.857,110.013z"/>
							<circle fill="#F6A39B" cx="138.48" cy="117.604" r="3.406"/>
						</g>
						<g>
							<path fill="#F6A39B" d="M141.392,115.835c-1.608,0.979-3.702,0.465-4.679-1.144c-0.979-1.608-0.464-3.701,1.146-4.679
								c1.604-0.975,3.701-0.464,4.678,1.146C143.512,112.766,143,114.862,141.392,115.835z"/>
							<circle fill="#F6A39B" cx="133.801" cy="116.46" r="3.407"/>
						</g>
					</g>
				</g>
				<g>
					<circle fill="#EF6A54" cx="99.01" cy="81.898" r="13.165"/>
					<circle fill="#F38476" cx="99.011" cy="81.899" r="10.479"/>
					<g>
						<g>
							<circle fill="#F6A39B" cx="97.243" cy="78.988" r="3.406"/>
							<path fill="#F6A39B" d="M103.689,83.044c0.977,1.604,0.466,3.704-1.144,4.678c-1.607,0.976-3.703,0.464-4.678-1.145
								c-0.975-1.606-0.463-3.704,1.143-4.678C100.618,80.922,102.715,81.436,103.689,83.044z"/>
						</g>
						<g>
							<circle fill="#F6A39B" cx="101.923" cy="80.13" r="3.406"/>
							<circle fill="#F6A39B" cx="96.099" cy="83.666" r="3.406"/>
						</g>
					</g>
				</g>
				
					<rect x="68.949" y="78.421" transform="matrix(0.9993 0.0379 -0.0379 0.9993 3.2021 -2.6986)" fill="#738035" width="7.625" height="9.335"/>
				
					<rect x="88.656" y="177.602" transform="matrix(0.1221 -0.9925 0.9925 0.1221 -99.7271 251.7977)" fill="#738035" width="7.621" height="9.336"/>
				
					<rect x="117.785" y="131.462" transform="matrix(-0.1455 -0.9894 0.9894 -0.1455 4.6018 276.2349)" fill="#738035" width="7.624" height="9.337"/>
				
					<rect x="146.63" y="132.914" transform="matrix(-0.6868 -0.7268 0.7268 -0.6868 153.7642 341.4212)" fill="#738035" width="7.623" height="9.337"/>
				
					<rect x="104.964" y="99.998" transform="matrix(0.5734 -0.8192 0.8192 0.5734 -39.3489 133.7583)" fill="#738035" width="7.622" height="9.336"/>
				
					<rect x="66.202" y="123.122" transform="matrix(0.4644 -0.8856 0.8856 0.4644 -75.6748 130.4541)" fill="#738035" width="7.623" height="9.336"/>
				
					<rect x="75.761" y="98.817" transform="matrix(0.8549 -0.5188 0.5188 0.8549 -41.5417 56.1344)" fill="#738035" width="7.624" height="7.015"/>
				
					<rect x="38.545" y="134.686" transform="matrix(0.8547 -0.5191 0.5191 0.8547 -65.5845 42.0673)" fill="#738035" width="7.626" height="7.019"/>
				
					<rect x="125.05" y="78.062" transform="matrix(0.8548 -0.5189 0.5189 0.8548 -23.6204 78.7036)" fill="#738035" width="7.624" height="7.016"/>
				
					<rect x="82.724" y="150.816" transform="matrix(0.8546 -0.5192 0.5192 0.8546 -67.5496 67.3633)" fill="#738035" width="7.625" height="7.018"/>
				
					<rect x="138.041" y="152.641" transform="matrix(0.8547 -0.5191 0.5191 0.8547 -60.4469 96.3183)" fill="#738035" width="7.623" height="7.017"/>
				<path fill="#CBC4BD" d="M61.647,83.878l-10.069,8.843c0,0-1.004-6.464,2.252-8.711C56.727,82.01,61.647,83.878,61.647,83.878z"
					/>
				<path fill="#CBC4BD" d="M53.662,142.608l1.211-13.343c0,0,5.181,3.997,4.369,7.868
					C58.517,140.579,53.662,142.608,53.662,142.608z"/>
				<path fill="#CBC4BD" d="M100.728,163.509l-8.804,10.104c0,0-1.854-6.277,1.074-8.936
					C95.604,162.313,100.728,163.509,100.728,163.509z"/>
				<path fill="#CBC4BD" d="M111.719,130.174l0.622-13.388c0,0,5.354,3.767,4.711,7.671
					C116.478,127.929,111.719,130.174,111.719,130.174z"/>
				<path fill="#CBC4BD" d="M132.557,140.748l13.376-0.823c0,0-3.17,5.725-7.118,5.507
					C135.302,145.237,132.557,140.748,132.557,140.748z"/>
				<path fill="#CBC4BD" d="M116.806,93.333l13.377-0.823c0,0-3.168,5.723-7.119,5.505
					C119.552,97.822,116.806,93.333,116.806,93.333z"/>
			</g>
			<path fill="#FFFAE6" d="M92.974,125.045l13.331,76.471c0,0,14.858,3.173,38.444-8.533c8.734-4.332,16.314-16.709,16.314-16.709
				L92.974,125.045z"/>
			<g>
				<defs>
					<polygon id="SVGID_1_" points="100.745,137.844 118.028,223.21 169.082,192.212 					"/>
				</defs>
				<clipPath id="SVGID_2_">
					<use xlink:href="#SVGID_1_"  overflow="visible"/>
				</clipPath>
				<g clip-path="url(#SVGID_2_)">
					<path fill="#EDEBD4" d="M162.528,102.314c20.035,33.002,9.523,75.991-23.475,96.026c-32.998,20.032-75.989,9.524-96.025-23.476
						c-20.034-32.995-9.521-75.987,23.475-96.024C99.502,58.808,142.494,69.317,162.528,102.314z"/>
					<path fill="#F6D777" d="M163.895,101.487c20.395,33.589,9.697,77.356-23.894,97.751c-33.593,20.395-77.357,9.695-97.753-23.897
						c-20.393-33.592-9.695-77.357,23.896-97.75C99.737,57.196,143.5,67.893,163.895,101.487z"/>
					<path fill="#EF6A54" d="M141.919,202.399c-35.282,21.423-81.411,10.144-102.834-25.139
						C17.667,141.979,28.943,95.848,64.224,74.428c35.282-21.422,81.414-10.145,102.833,25.137
						C188.478,134.848,177.203,180.979,141.919,202.399z M68.064,80.751c-31.795,19.304-41.957,60.875-22.654,92.671
						c19.305,31.793,60.875,41.955,92.669,22.652c31.795-19.303,41.958-60.874,22.653-92.67
						C141.431,71.611,99.859,61.448,68.064,80.751z"/>
					<g>
						<circle fill="#EF6A54" cx="70.434" cy="170.15" r="13.164"/>
						<circle fill="#F38476" cx="70.434" cy="170.151" r="10.479"/>
						<g>
							<g>
								<circle fill="#F6A39B" cx="68.667" cy="167.238" r="3.406"/>
								<circle fill="#F6A39B" cx="72.202" cy="173.062" r="3.406"/>
							</g>
							<g>
								<circle fill="#F6A39B" cx="73.346" cy="168.382" r="3.406"/>
								<circle fill="#F6A39B" cx="67.523" cy="171.917" r="3.406"/>
							</g>
						</g>
					</g>
					<g>
						<path fill="#EF6A54" d="M71.423,114.518c3.774,6.218,1.795,14.313-4.419,18.088c-6.214,3.771-14.312,1.791-18.085-4.422
							c-3.773-6.215-1.793-14.312,4.421-18.086C59.554,106.326,67.651,108.305,71.423,114.518z"/>
						<path fill="#F38476" d="M69.129,115.91c3.003,4.951,1.427,11.394-3.521,14.397c-4.946,3.003-11.392,1.429-14.395-3.519
							c-3.003-4.948-1.429-11.393,3.52-14.396C59.68,109.389,66.125,110.964,69.129,115.91z"/>
						<g>
							<g>
								<circle fill="#F6A39B" cx="58.405" cy="118.439" r="3.406"/>
								<circle fill="#F6A39B" cx="61.939" cy="124.262" r="3.407"/>
							</g>
							<g>
								<circle fill="#F6A39B" cx="63.085" cy="119.582" r="3.405"/>
								<circle fill="#F6A39B" cx="57.26" cy="123.118" r="3.406"/>
							</g>
						</g>
					</g>
					<g>
						<path fill="#EF6A54" d="M137.027,170.432c3.775,6.214,1.795,14.311-4.418,18.084c-6.215,3.774-14.312,1.794-18.086-4.421
							c-3.771-6.214-1.792-14.313,4.422-18.085C125.158,162.238,133.254,164.217,137.027,170.432z"/>
						<path fill="#F38476" d="M134.732,171.823c3.004,4.95,1.428,11.394-3.517,14.396c-4.949,3.004-11.393,1.43-14.397-3.52
							c-3.003-4.945-1.428-11.392,3.52-14.395C125.284,165.302,131.729,166.876,134.732,171.823z"/>
						<g>
							<g>
								<circle fill="#F6A39B" cx="124.008" cy="174.351" r="3.407"/>
								<circle fill="#F6A39B" cx="127.543" cy="180.174" r="3.407"/>
							</g>
							<g>
								<circle fill="#F6A39B" cx="128.688" cy="175.495" r="3.407"/>
								<circle fill="#F6A39B" cx="122.864" cy="179.03" r="3.406"/>
							</g>
						</g>
					</g>
					<g>
						<path fill="#EF6A54" d="M111.998,131.013c3.772,6.212,1.793,14.311-4.421,18.083c-6.214,3.775-14.312,1.794-18.083-4.419
							c-3.775-6.217-1.794-14.313,4.419-18.085C100.126,122.816,108.226,124.797,111.998,131.013z"/>
						<circle fill="#F38476" cx="100.746" cy="137.844" r="10.48"/>
						<g>
							<g>
								<circle fill="#F6A39B" cx="98.978" cy="134.931" r="3.407"/>
								<path fill="#F6A39B" d="M105.425,138.988c0.976,1.607,0.462,3.702-1.145,4.681c-1.608,0.974-3.702,0.46-4.678-1.145
									c-0.978-1.608-0.464-3.703,1.143-4.68C102.352,136.867,104.448,137.381,105.425,138.988z"/>
							</g>
							<g>
								<circle fill="#F6A39B" cx="103.657" cy="136.075" r="3.407"/>
								<circle fill="#F6A39B" cx="97.834" cy="139.612" r="3.407"/>
							</g>
						</g>
					</g>
					<g>
						<path fill="#EF6A54" d="M155.231,118.667c3.774,6.215,1.794,14.313-4.418,18.084c-6.217,3.775-14.313,1.796-18.088-4.421
							c-3.772-6.213-1.792-14.311,4.424-18.084C143.361,110.472,151.458,112.451,155.231,118.667z"/>
						<circle fill="#F38476" cx="143.979" cy="125.499" r="10.48"/>
						<g>
							<g>
								<circle fill="#F6A39B" cx="142.211" cy="122.586" r="3.405"/>
								<circle fill="#F6A39B" cx="145.749" cy="128.409" r="3.406"/>
							</g>
							<g>
								<path fill="#F6A39B" d="M148.662,126.641c-1.611,0.978-3.704,0.466-4.682-1.143c-0.978-1.609-0.464-3.703,1.145-4.68
									c1.606-0.975,3.701-0.461,4.678,1.147C150.778,123.571,150.266,125.664,148.662,126.641z"/>
								<circle fill="#F6A39B" cx="141.069" cy="127.265" r="3.407"/>
							</g>
						</g>
					</g>
					<g>
						<circle fill="#EF6A54" cx="106.277" cy="92.703" r="13.166"/>
						<circle fill="#F38476" cx="106.277" cy="92.704" r="10.479"/>
						<g>
							<g>
								<circle fill="#F6A39B" cx="104.51" cy="89.793" r="3.406"/>
								<circle fill="#F6A39B" cx="108.046" cy="95.614" r="3.407"/>
							</g>
							<g>
								<path fill="#F6A39B" d="M110.959,93.845c-1.61,0.978-3.705,0.467-4.68-1.142c-0.977-1.61-0.466-3.702,1.144-4.679
									c1.607-0.976,3.701-0.465,4.677,1.142C113.077,90.777,112.564,92.871,110.959,93.845z"/>
								<path fill="#F6A39B" d="M105.134,97.382c-1.609,0.978-3.704,0.465-4.681-1.145c-0.976-1.606-0.463-3.701,1.145-4.676
									c1.609-0.976,3.704-0.468,4.68,1.142C107.254,94.313,106.743,96.406,105.134,97.382z"/>
							</g>
						</g>
					</g>
					
						<rect x="76.216" y="89.225" transform="matrix(0.9993 0.0376 -0.0376 0.9993 3.5867 -2.9424)" fill="#738035" width="7.624" height="9.336"/>
					
						<rect x="95.92" y="188.405" transform="matrix(0.1221 -0.9925 0.9925 0.1221 -104.0727 268.4896)" fill="#738035" width="7.623" height="9.337"/>
					
						<rect x="125.051" y="142.266" transform="matrix(-0.1456 -0.9893 0.9893 -0.1456 2.2573 295.8205)" fill="#738035" width="7.626" height="9.339"/>
					
						<rect x="153.894" y="143.719" transform="matrix(-0.6869 -0.7267 0.7267 -0.6869 158.2065 364.9263)" fill="#738035" width="7.624" height="9.335"/>
					
						<rect x="112.23" y="110.803" transform="matrix(0.5736 -0.8191 0.8191 0.5736 -45.1057 144.2923)" fill="#738035" width="7.624" height="9.335"/>
					
						<rect x="73.468" y="133.925" transform="matrix(0.464 -0.8858 0.8858 0.464 -81.3503 142.7448)" fill="#738035" width="7.623" height="9.339"/>
					
						<rect x="83.027" y="109.621" transform="matrix(0.8547 -0.5191 0.5191 0.8547 -46.1086 61.5135)" fill="#738035" width="7.625" height="7.017"/>
					
						<rect x="45.812" y="145.49" transform="matrix(0.8549 -0.5188 0.5188 0.8549 -70.1016 47.367)" fill="#738035" width="7.623" height="7.017"/>
					
						<rect x="132.316" y="88.866" transform="matrix(0.8548 -0.5189 0.5189 0.8548 -28.1727 84.0532)" fill="#738035" width="7.623" height="7.017"/>
					
						<rect x="89.99" y="161.623" transform="matrix(0.8548 -0.519 0.519 0.8548 -72.078 72.6596)" fill="#738035" width="7.625" height="7.019"/>
					
						<rect x="145.306" y="163.444" transform="matrix(0.8547 -0.5192 0.5192 0.8547 -65.0055 101.6786)" fill="#738035" width="7.626" height="7.02"/>
					<path fill="#CBC4BD" d="M68.915,94.686l-10.07,8.842c0,0-1.004-6.465,2.251-8.713C63.993,92.815,68.915,94.686,68.915,94.686z"
						/>
					<path fill="#CBC4BD" d="M60.929,153.417l1.212-13.347c0,0,5.18,3.998,4.367,7.867
						C65.783,151.382,60.929,153.417,60.929,153.417z"/>
					<path fill="#CBC4BD" d="M107.996,174.314l-8.806,10.104c0,0-1.854-6.276,1.072-8.935
						C102.868,173.117,107.996,174.314,107.996,174.314z"/>
					<path fill="#CBC4BD" d="M118.985,140.979l0.622-13.384c0,0,5.354,3.765,4.711,7.667
						C123.745,138.733,118.985,140.979,118.985,140.979z"/>
					<path fill="#CBC4BD" d="M139.823,151.553l13.376-0.825c0,0-3.165,5.728-7.118,5.511
						C142.57,156.044,139.823,151.553,139.823,151.553z"/>
					<path fill="#CBC4BD" d="M124.074,104.137l13.375-0.824c0,0-3.167,5.729-7.118,5.51
						C126.82,108.631,124.074,104.137,124.074,104.137z"/>
				</g>
			</g>
		</g>
	</g>
	<g>
		<g>
			<g>
				<path fill="#FFC5B8" d="M171.319,128.918c0.817,0.621,0.508,5.782,1.246,12.168c0.554,4.815,1.693,7.384,1.762,7.563
					c2.866,7.839,8.301,3.685,7.636-1.125c-2.852-20.663-19.888-52.09-19.888-52.09c-0.579-2.608-0.079-4.23,2.398-5.383
					c2.268-1.052,3.831,1.676,5.471,3.637c8.342,9.999,16.149,32.628,17.02,32.435c0.874-0.192,1.246-1.103,1.028-2.085
					c0,0-2.411-10.006-4.849-19.465c-2.278-8.845-10.863-27.233-10.863-27.233c-0.578-2.608,0.677-5.103,3.329-5.692
					c1.319-0.292,4.249,2.649,4.539,3.946c0,0,7.719,14.18,11.762,25.417c1.833,5.104,6.494,20.72,6.494,20.72
					c0.221,0.98,0.945,1.646,1.814,1.456c0.873-0.191,1.247-1.105,1.028-2.087c0,0-3.86-13.809-5.444-18.511
					c-1.842-5.462-8.257-22.144-8.257-22.144c-0.578-2.606,0.01-3.591,2.151-5.268c2.379-1.863,4.364,0.813,5.719,3.524
					c0,0,7.771,16.417,9.832,21.958c1.726,4.635,4.02,13.458,5.306,18.736c0.24,0.978,0.941,1.651,1.813,1.457
					c0.874-0.191,1.247-1.103,1.029-2.085c0,0-1.21-6.079-1.889-8.365c-1.423-4.791-6.524-19.941-6.524-19.941
					c-0.578-2.61-0.239-4.902,2.414-5.491c2.499-0.553,3.204,1.047,4.508,3.955c0,0,8.649,21.864,10.953,29.498
					c12.67,42.015-0.858,46.961,5.188,67.453c0.814,2.767-4.741,5.114-5.228,8.582c-0.739,5.26-10.998-9.16-18.255-7.654
					c-2.01,0.419-1.523,26.585-2.549,26.552c-0.896-0.029-2.055-21.798-19.055-33.426c-6.842-4.682-15.738-10.773-17.721-19.523
					C159.324,134.251,167.185,127.329,171.319,128.918z"/>
			</g>
		</g>
		<path fill="#F9AFAF" d="M170.025,95.009l-2.498-4.073c-1.07-1.746-2.966-2.419-4.231-1.496l0,0
			c-1.267,0.92-1.424,3.088-0.353,4.835l2.5,4.073c0,0,1.283,0.101,2.73-0.953C169.723,96.266,170.025,95.009,170.025,95.009z"/>
		<path fill="#F9AFAF" d="M180.412,78.046l-2.286-4.627c-0.975-1.986-2.946-2.926-4.394-2.1l0,0
			c-1.446,0.827-1.827,3.108-0.846,5.094l2.281,4.63c0,0,1.366,0.258,3.024-0.688C179.964,79.343,180.412,78.046,180.412,78.046z"/>
		<path fill="#F9AFAF" d="M195.045,80.421l-1.982-4.576c-0.851-1.965-2.358-2.235-3.896-1.811c-1.706,0.473-2.159,2.412-1.307,4.376
			l1.979,4.575c0,0,1.312,0.333,2.955-0.478C194.554,81.639,195.045,80.421,195.045,80.421z"/>
		<path fill="#F9AFAF" d="M210.866,90.419l-1.334-3.806c-0.572-1.639-2.009-2.591-3.214-2.129l0,0
			c-1.201,0.462-1.712,2.161-1.139,3.8l1.331,3.812c0,0,1.038,0.361,2.412-0.166C210.395,91.362,210.866,90.419,210.866,90.419z"/>
		<path fill="#F9AFAF" d="M170.318,127.451c0.92,1.422-0.64,5.87-0.64,5.87l-3.54,0.236c0,0,0.424-5.38,2.413-6.473
			C169.038,126.813,169.866,126.752,170.318,127.451z"/>
		<path fill="#FFC5B8" d="M264.418,301.376c4.43,8.206-44.732-1.339-44.732-1.339L189.54,152.175l30.177-6.691
			C219.716,145.484,239.716,255.627,264.418,301.376z"/>
	</g>
	<g>
		<g>
			<g>
				<g>
					<path fill="#FFC5B8" d="M119.518,195.248c-0.136,1.018,3.738,4.443,7.739,9.476c3.02,3.794,4.031,6.412,4.111,6.587
						c3.528,7.563-3.252,8.479-6.188,4.61c-12.62-16.604-22.845-50.863-22.845-50.863c-1.439-2.25-2.94-3.041-5.505-2.099
						c-2.346,0.86-1.519,3.896-1.287,6.442c1.191,12.964,11.703,34.474,10.952,34.954c-0.751,0.482-1.661,0.104-2.205-0.744
						c0,0-5.383-8.772-10.359-17.177c-4.656-7.859-11.616-26.925-11.616-26.925c-1.438-2.25-4.091-3.124-6.38-1.657
						c-1.14,0.727-1.125,4.877-0.409,5.998c0,0,4.59,15.479,9.694,26.277c2.317,4.903,10.085,19.227,10.085,19.227
						c0.542,0.85,0.501,1.835-0.247,2.313c-0.753,0.481-1.664,0.104-2.204-0.744c0,0-7.056-12.485-9.266-16.929
						c-2.57-5.16-9.852-21.479-9.852-21.479c-1.438-2.25-2.552-2.531-5.25-2.197c-2.998,0.369-2.507,3.668-1.543,6.536
						c0,0,6.141,17.098,8.606,22.468c2.065,4.495,6.693,12.35,9.526,16.988c0.522,0.858,0.501,1.832-0.25,2.313
						c-0.752,0.481-1.662,0.103-2.204-0.744c0,0-3.451-5.151-4.589-7.244c-2.388-4.391-9.517-18.703-9.517-18.703
						c-1.438-2.251-3.301-3.629-5.591-2.167c-2.156,1.381-1.522,3.011-0.382,5.986c0,0,9.376,21.563,13.157,28.584
						c20.804,38.635,33.857,32.551,44.101,51.297c1.387,2.533,6.97,0.255,9.768,2.36c4.245,3.192,1.278-14.257,7.47-18.33
						c1.716-1.131,19.9,17.688,20.602,16.941c0.611-0.654-13.984-16.847-10.219-37.096c1.517-8.148,3.485-18.752-1.315-26.332
						C131.767,190.518,121.314,191.199,119.518,195.248z"/>
				</g>
			</g>
		</g>
		<path fill="#F9AFAF" d="M96.421,170.391l-1.122-4.646c-0.482-1.992,0.384-3.808,1.929-4.053l0,0
			c1.546-0.245,3.192,1.175,3.672,3.165l1.121,4.647c0,0-0.835,0.979-2.604,1.256C97.522,171.064,96.421,170.391,96.421,170.391z"/>
		<path fill="#F9AFAF" d="M77.077,165.769l-1.665-4.886c-0.717-2.096,0.007-4.152,1.615-4.594l0,0
			c1.607-0.441,3.492,0.901,4.206,2.996l1.666,4.885c0,0-0.782,1.152-2.62,1.658C78.308,166.369,77.077,165.769,77.077,165.769z"/>
		<path fill="#F9AFAF" d="M68.425,177.808l-1.841-4.635c-0.789-1.99,0.082-3.249,1.469-4.037c1.539-0.876,3.231,0.172,4.021,2.163
			l1.841,4.635c0,0-0.689,1.161-2.422,1.753C69.636,178.322,68.425,177.808,68.425,177.808z"/>
		<path fill="#F9AFAF" d="M64.338,196.074l-1.758-3.635c-0.753-1.563-0.415-3.252,0.762-3.781l0,0
			c1.176-0.522,2.742,0.316,3.498,1.877l1.756,3.632c0,0-0.476,0.992-1.819,1.593C65.334,196.402,64.338,196.074,64.338,196.074z"/>
		<path fill="#F9C7C5" d="M175.909,382.942c2.686,8.933,30.639-32.619,30.639-32.619l-83.423-125.749l-26.045,16.646
			C97.079,241.219,160.955,333.148,175.909,382.942z"/>
		<path fill="#F9AFAF" d="M119.187,193.501c0.357,1.656,4.607,3.692,4.607,3.692l2.668-2.34c0,0-4.109-3.495-6.291-2.863
			C119.641,192.149,119.012,192.689,119.187,193.501z"/>
	</g>
</g>
</svg>
