<?xml version="1.0" encoding="utf-8"?>
<!-- Generator: Adobe Illustrator 16.0.0, SVG Export Plug-In . SVG Version: 6.00 Build 0)  -->
<!DOCTYPE svg PUBLIC "-//W3C//DTD SVG 1.1//EN" "http://www.w3.org/Graphics/SVG/1.1/DTD/svg11.dtd">
<svg version="1.1" id="Layer_1" xmlns="http://www.w3.org/2000/svg" xmlns:xlink="http://www.w3.org/1999/xlink" x="0px" y="0px"
	 width="63.2px" height="96.2px" viewBox="0 0 63.2 96.2" enable-background="new 0 0 63.2 96.2" xml:space="preserve">
<g>
	<polygon opacity="0.1" fill="#010101" points="47.5,8.9 56.9,0.3 58.8,1.5 55.2,13.7 	"/>
	<path opacity="0.1" fill="#010101" d="M54.7,14.1l-45.3,72c-1.6,2.5-3.8,3-5.9,1.7l-0.4-0.2c-2.1-1.3-3.5-3.9-1.9-6.4l45.3-72"/>
	<line fill="none" stroke="#454545" stroke-width="3" stroke-linecap="round" x1="61.7" y1="1.5" x2="60" y2="4.2"/>
	<polygon fill="#DEDEDD" points="50.7,11.4 60,2.9 62,4.1 58.4,16.3 	"/>
	<path fill="#F68851" d="M4.8,92.4c-2.1-1.3-2.3-4.3-0.8-6.8L49.8,13c1.6-2.5,4.9-4.5,7.1-3.2l0.4,0.2c2.1,1.3,2.4,5.5,0.8,8
		L12.3,90.6c-1.6,2.5-5,3.3-7.1,2L4.8,92.4z"/>
	<path fill="#505050" d="M2.7,94.8c-2.6-1.6-3.6-4.5-1.9-7.2l17.9-28.4c1.7-2.7,5.3-4,7.9-2.4l0.8,0.5c2.6,1.6,2.6,5,0.9,7.7
		L10.5,93.5c-1.7,2.7-4.3,3.4-6.9,1.8L2.7,94.8z"/>
	<g>
		<path fill="#505050" d="M13,93.6c-0.3-0.2-0.4-0.5-0.2-0.8l17.3-27.5c0.2-0.3,0.5-0.4,0.8-0.2l0.4,0.2c0.3,0.2,0.4,0.5,0.2,0.8
			L14.2,93.6c-0.2,0.3-0.5,0.4-0.8,0.2L13,93.6z"/>
		<path fill="#505050" d="M7,90c-0.8-0.5-1-1.4-0.5-2.2l0,0C7,87,8,86.8,8.7,87.2l5.5,3.3c0.8,0.5,1,1.4,0.5,2.2l0,0
			c-0.5,0.8-1.5,1-2.2,0.5L7,90z"/>
	</g>
</g>
</svg>
