<?xml version="1.0" encoding="utf-8"?>
<!-- Generator: Adobe Illustrator 16.0.0, SVG Export Plug-In . SVG Version: 6.00 Build 0)  -->
<!DOCTYPE svg PUBLIC "-//W3C//DTD SVG 1.1//EN" "http://www.w3.org/Graphics/SVG/1.1/DTD/svg11.dtd">
<svg version="1.1" id="Layer_1" xmlns="http://www.w3.org/2000/svg" xmlns:xlink="http://www.w3.org/1999/xlink" x="0px" y="0px"
	 width="497.1px" height="244.4px" viewBox="0 0 497.1 244.4" enable-background="new 0 0 497.1 244.4" xml:space="preserve">
<g>
	<g>
		<circle fill="#FF6F6F" cx="378.028" cy="191.819" r="32.231"/>
		<g>
			<path fill="#E5C0B5" d="M375.459,156.606c3.246-0.885,9.813,4.785,15.984-1.271c6.169-6.052,3.396-10.611,3.396-10.611
				s-2.28-0.816-11.704-2.554c-9.427-1.738-18.752-4.244-27.368-0.138c-8.613,4.104-22,14.896-28.442,14.327
				c-6.447-0.573-21.986-1.317-50.788-9.898c-28.796-8.583-259.878-80.719-259.878-80.719L0,128.229
				c0,0,263.946,45.717,314.79,75.428c14.072,8.223,3.853,26.256,52.205,39.043c0,0,39.946,11.379,56.055-24.744
				c11.063-24.811-8.798-27.304-12.666-21.183c-3.885,6.149,3.385,13.389-14.117,25.437c-14.793,10.184-66.432-7.647-52.789-40.723
				C353.319,157.628,375.459,156.606,375.459,156.606z"/>
		</g>
		<circle fill="none" stroke="#354654" stroke-width="3" stroke-miterlimit="10" cx="378.029" cy="191.82" r="33.049"/>
	</g>
	<g>
		<path fill="#CE6824" d="M443.737,198.862c0,3.573-0.526,7.852-2.381,7.852H421.99c-1.854,0-4.253-4.277-4.253-7.852v-1.095
			c0-3.575,2.397-6.055,4.253-6.055h19.366c1.854,0,2.381,2.479,2.381,6.055V198.862z"/>
		<circle fill="#5B2F24" stroke="#CE6824" stroke-width="10" cx="382.177" cy="198.314" r="36.682"/>
		<path opacity="0.8" fill="#FFFFFF" enable-background="new    " d="M415.035,198.777c0,17.753-14.662,32.145-32.748,32.145
			c-18.087,0-32.748-14.392-32.748-32.145c0-17.755-5.085,27.825,32.748,27.825C420.717,226.602,415.035,181.022,415.035,198.777z"
			/>
	</g>
	<circle fill="#7C4940" cx="365.894" cy="198.314" r="3.64"/>
	<circle fill="#7C4940" cx="382.178" cy="211.047" r="2.237"/>
	<g>
		<path fill="#DDDDDD" d="M466.267,143.613l-85.973-26.805c-2.66-0.828-4.146-3.668-3.316-6.332l13.932-44.675
			c0.83-2.666,3.668-4.158,6.327-3.329l85.971,26.803c2.662,0.83,4.146,3.671,3.317,6.336l-13.933,44.675
			C471.766,142.951,468.926,144.441,466.267,143.613z"/>
		
			<rect x="405.409" y="62.81" transform="matrix(0.2977 -0.9547 0.9547 0.2977 205.9901 486.6951)" fill="#4F4F4F" width="56.751" height="81.068"/>
		
			<line fill="none" stroke="#999999" stroke-width="2" stroke-linecap="round" stroke-miterlimit="10" x1="480.388" y1="103.703" x2="472.342" y2="129.5"/>
		<g>
			<g>
				<defs>
					
						<rect id="SVGID_1_" x="405.389" y="62.872" transform="matrix(0.2977 -0.9547 0.9547 0.2977 205.9211 486.7221)" width="56.75" height="81.068"/>
				</defs>
				<clipPath id="SVGID_2_">
					<use xlink:href="#SVGID_1_"  overflow="visible"/>
				</clipPath>
				<g transform="matrix(1 0 0 1 0 1.525879e-005)" clip-path="url(#SVGID_2_)">
					<g>
						<path fill-rule="evenodd" clip-rule="evenodd" fill="#D8191E" d="M382.411,117.115c0-0.071,0-0.141,0-0.212
							c0.569-2.514,1.449-4.936,2.196-7.396c1.436-4.729,2.92-9.444,4.379-14.167c1.01-3.272,2.03-6.541,3.043-9.813
							c1.315-4.25,2.635-8.498,3.943-12.749c0.945-3.07,1.914-6.134,2.848-9.208c0.066-0.22,0.139-0.439,0.33-0.591
							c0.07,0,0.141,0,0.212,0c2.516,0.56,4.933,1.453,7.394,2.196c4.291,1.297,8.566,2.646,12.849,3.97
							c3.625,1.12,7.248,2.248,10.873,3.37c4.366,1.351,8.73,2.708,13.099,4.055c3.188,0.982,6.371,1.978,9.558,2.962
							c4.788,1.48,9.574,2.969,14.363,4.446c3.221,0.994,6.439,1.996,9.658,2.996c2.478,0.77,4.957,1.532,7.434,2.305
							c0.248,0.078,0.521,0.123,0.701,0.345c0.117,0.312-0.118,0.584-0.097,0.885c-0.019,0.135-0.067,0.26-0.131,0.38
							c-0.183,0.426-0.358,0.854-0.401,1.323c-0.019,0.131-0.066,0.251-0.128,0.367c-0.154,0.321-0.275,0.651-0.298,1.01
							c-0.017,0.129-0.064,0.247-0.125,0.36c-0.197,0.404-0.317,0.834-0.421,1.27c-0.011,0.049-0.025,0.097-0.042,0.145
							c-0.133,0.432-0.336,0.844-0.367,1.305c-0.018,0.13-0.065,0.249-0.127,0.363c-0.152,0.32-0.273,0.649-0.296,1.007
							c-0.017,0.129-0.064,0.247-0.125,0.36c-0.196,0.404-0.316,0.834-0.42,1.27c-0.011,0.049-0.025,0.097-0.042,0.145
							c-0.133,0.432-0.337,0.844-0.367,1.305c-0.018,0.13-0.066,0.249-0.127,0.364c-0.154,0.322-0.274,0.653-0.296,1.014
							c-0.019,0.131-0.067,0.251-0.129,0.367c-0.181,0.425-0.355,0.852-0.398,1.319c-0.019,0.131-0.066,0.251-0.128,0.367
							c-0.153,0.321-0.275,0.651-0.298,1.01c-0.017,0.129-0.064,0.247-0.125,0.36c-0.197,0.404-0.317,0.834-0.421,1.27
							c-0.011,0.049-0.025,0.097-0.042,0.145c-0.133,0.432-0.336,0.844-0.366,1.305c-0.018,0.13-0.066,0.249-0.127,0.363
							c-0.153,0.32-0.273,0.649-0.297,1.007c-0.017,0.129-0.064,0.247-0.125,0.36c-0.196,0.404-0.316,0.834-0.42,1.269
							c-0.011,0.05-0.025,0.098-0.042,0.146c-0.133,0.432-0.337,0.844-0.367,1.305c-0.018,0.13-0.066,0.249-0.127,0.364
							c-0.154,0.322-0.274,0.653-0.296,1.014c-0.019,0.131-0.067,0.251-0.129,0.367c-0.181,0.425-0.355,0.852-0.398,1.319
							c-0.018,0.131-0.066,0.251-0.128,0.367c-0.153,0.321-0.275,0.651-0.298,1.01c-0.017,0.129-0.064,0.247-0.125,0.36
							c-0.197,0.404-0.316,0.834-0.42,1.27c-0.011,0.049-0.026,0.097-0.043,0.145c-0.133,0.432-0.336,0.844-0.366,1.305
							c-0.018,0.13-0.066,0.249-0.127,0.363c-0.153,0.32-0.273,0.649-0.296,1.007c-0.018,0.129-0.064,0.247-0.126,0.36
							c-0.196,0.404-0.316,0.834-0.42,1.27c-0.011,0.049-0.025,0.097-0.042,0.145c-0.133,0.433-0.336,0.845-0.367,1.306
							c-0.018,0.13-0.066,0.249-0.127,0.363c-0.154,0.322-0.274,0.654-0.296,1.015c-0.019,0.131-0.067,0.251-0.129,0.367
							c-0.181,0.426-0.355,0.853-0.398,1.319c-0.018,0.131-0.066,0.251-0.128,0.367c-0.153,0.32-0.275,0.65-0.298,1.01
							c-0.017,0.129-0.064,0.247-0.125,0.36c-0.196,0.404-0.316,0.834-0.42,1.27c-0.011,0.05-0.026,0.098-0.043,0.145
							c-0.133,0.433-0.336,0.845-0.366,1.306c-0.018,0.13-0.066,0.248-0.127,0.363c-0.152,0.319-0.273,0.648-0.296,1.007
							c-0.017,0.129-0.064,0.247-0.126,0.359c-0.196,0.404-0.316,0.834-0.42,1.27c-0.011,0.05-0.025,0.098-0.042,0.146
							c-0.133,0.432-0.336,0.844-0.367,1.305c-0.018,0.131-0.066,0.249-0.127,0.364c-0.153,0.322-0.274,0.653-0.296,1.015
							c-0.018,0.131-0.067,0.251-0.128,0.367c-0.181,0.425-0.356,0.852-0.399,1.319c-0.018,0.131-0.066,0.252-0.128,0.367
							c-0.155,0.323-0.276,0.657-0.298,1.02c-0.019,0.133-0.068,0.254-0.13,0.371c-0.178,0.436-0.374,0.866-0.387,1.35
							c-0.02,0.226-0.071,0.439-0.24,0.605c-0.07,0-0.142,0-0.212,0c-2.136-0.479-4.193-1.223-6.282-1.861
							c-4.86-1.484-9.711-3.005-14.567-4.506c-3.22-0.995-6.438-1.999-9.658-2.995c-4.299-1.331-8.597-2.666-12.896-3.993
							c-3.17-0.979-6.336-1.971-9.507-2.947c-4.25-1.31-8.497-2.628-12.746-3.942c-3.254-1.007-6.506-2.019-9.76-3.026
							c-3.236-1.002-6.469-2.019-9.711-3.003C382.989,117.441,382.646,117.392,382.411,117.115z"/>
						<path fill-rule="evenodd" clip-rule="evenodd" fill="#FEFEFE" d="M469.582,140.422c0.047-0.105,0.094-0.212,0.141-0.317
							c0.078-0.474,0.32-0.901,0.39-1.377c0.047-0.106,0.093-0.212,0.14-0.318c0.058-0.363,0.237-0.693,0.284-1.06
							c0.046-0.105,0.093-0.212,0.14-0.317c0.101-0.472,0.288-0.916,0.415-1.38l-0.007,0.011c0.114-0.468,0.321-0.908,0.405-1.386
							c0.047-0.105,0.094-0.212,0.14-0.317c0.058-0.363,0.237-0.693,0.284-1.06c0.047-0.105,0.094-0.212,0.14-0.318
							c0.102-0.471,0.289-0.916,0.416-1.379l-0.008,0.01c0.114-0.468,0.322-0.908,0.405-1.385c0.047-0.105,0.094-0.212,0.141-0.318
							c0.057-0.362,0.236-0.692,0.283-1.059c0.047-0.106,0.094-0.212,0.141-0.318c0.078-0.474,0.32-0.9,0.39-1.377
							c0.046-0.105,0.093-0.212,0.14-0.317c0.057-0.363,0.237-0.693,0.283-1.06c0.047-0.106,0.094-0.212,0.141-0.318
							c0.101-0.471,0.288-0.916,0.415-1.38l-0.007,0.011c0.114-0.468,0.321-0.908,0.405-1.385c0.047-0.106,0.093-0.212,0.14-0.318
							c0.058-0.363,0.237-0.693,0.284-1.059c0.047-0.106,0.093-0.212,0.14-0.318c0.101-0.471,0.289-0.916,0.416-1.38l-0.008,0.011
							c0.114-0.468,0.322-0.908,0.405-1.385c0.047-0.106,0.094-0.212,0.14-0.318c0.058-0.363,0.237-0.693,0.284-1.059
							c0.047-0.106,0.094-0.212,0.14-0.318c0.079-0.473,0.32-0.9,0.391-1.377c0.046-0.106,0.093-0.212,0.14-0.318
							c0.057-0.363,0.237-0.693,0.283-1.059c0.047-0.106,0.094-0.212,0.141-0.318c0.101-0.471,0.288-0.916,0.415-1.379l-0.007,0.01
							c0.114-0.468,0.321-0.908,0.405-1.385c0.047-0.106,0.093-0.212,0.14-0.318c0.058-0.363,0.237-0.693,0.284-1.06
							c0.046-0.106,0.093-0.212,0.14-0.318c0.101-0.471,0.288-0.917,0.415-1.379l-0.007,0.01c0.114-0.467,0.321-0.908,0.405-1.385
							c0.047-0.106,0.094-0.212,0.14-0.318c0.058-0.363,0.237-0.693,0.284-1.059c0.047-0.106,0.094-0.212,0.14-0.318
							c0.079-0.473,0.32-0.9,0.39-1.377c0.047-0.106,0.094-0.212,0.141-0.318c0.057-0.363,0.237-0.693,0.283-1.059
							c0.047-0.106,0.094-0.212,0.141-0.318c0.101-0.471,0.288-0.916,0.415-1.379l-0.008,0.01c0.115-0.468,0.322-0.908,0.406-1.385
							c0.046-0.106,0.093-0.212,0.14-0.318c0.058-0.363,0.237-0.693,0.284-1.059c0.046-0.106,0.093-0.212,0.14-0.318
							c0.101-0.471,0.288-0.916,0.415-1.38l-0.007,0.011c0.114-0.468,0.321-0.908,0.405-1.385c0.047-0.106,0.093-0.212,0.14-0.318
							c0.058-0.363,0.237-0.693,0.284-1.059c0.047-0.106,0.093-0.212,0.14-0.318c0.079-0.473,0.32-0.9,0.39-1.377
							c0.047-0.106,0.094-0.212,0.141-0.318c0.028-0.285,0.199-0.537,0.195-0.83c-1.361-0.566-2.802-0.892-4.193-1.365
							c-1.426-0.485-2.886-0.867-4.324-1.314c-3.104-0.966-6.204-1.951-9.309-2.917c-2.484-0.773-4.976-1.525-7.461-2.295
							c-2.991-0.928-5.978-1.871-8.97-2.796c-2.47-0.763-4.947-1.5-7.416-2.266c-3.465-1.075-6.924-2.169-10.389-3.247
							c-2.435-0.758-4.875-1.498-7.312-2.253c-3.596-1.114-7.19-2.237-10.786-3.353c-2.501-0.776-5.002-1.551-7.505-2.321
							c-2.699-0.831-5.399-1.656-8.1-2.48c-0.069-0.021-0.136-0.025-0.153-0.108c28.551,0,57.102,0.001,85.652-0.01
							c0.396,0,0.486,0.089,0.486,0.486c-0.011,26.626-0.011,53.252,0,79.878c0,0.397-0.09,0.488-0.486,0.487
							c-5.456-0.016-10.912-0.011-16.368-0.011c0.041-0.211,0.082-0.423,0.122-0.635c0.079-0.474,0.32-0.901,0.39-1.377
							c0.047-0.106,0.094-0.212,0.141-0.318C469.355,141.118,469.536,140.788,469.582,140.422z"/>
						<path fill-rule="evenodd" clip-rule="evenodd" fill="#FEFEFE" d="M382.411,117.115c2.208,0.677,4.418,1.347,6.623,2.033
							c3.563,1.108,7.119,2.232,10.683,3.338c2.469,0.765,4.947,1.5,7.415,2.266c3.008,0.933,6.008,1.888,9.014,2.824
							c2.026,0.632,4.058,1.246,6.084,1.873c3.434,1.063,6.865,2.128,10.298,3.192c2.044,0.633,4.088,1.265,6.131,1.897
							c3.434,1.063,6.865,2.129,10.299,3.191c2.501,0.775,5.003,1.546,7.505,2.321c2.976,0.922,5.949,1.849,8.925,2.769
							c1.021,0.315,2.064,0.561,3.048,0.991c-28.516,0-57.031,0-85.546,0.011c-0.397,0-0.487-0.09-0.487-0.487
							C382.415,134.595,382.411,125.855,382.411,117.115z"/>
						<path fill-rule="evenodd" clip-rule="evenodd" fill="#FEFEFE" d="M399.15,62.98c-0.671,2.172-1.339,4.345-2.014,6.516
							c-1.115,3.594-2.239,7.185-3.352,10.779c-0.77,2.483-1.522,4.973-2.292,7.456c-0.926,2.99-1.867,5.975-2.793,8.964
							c-0.77,2.484-1.522,4.973-2.292,7.456c-0.926,2.99-1.871,5.974-2.791,8.965c-0.39,1.266-0.73,2.547-1.206,3.786
							c0-17.802,0.003-35.604-0.014-53.407c-0.001-0.482,0.142-0.527,0.556-0.526C388.353,62.985,393.751,62.98,399.15,62.98z"/>
						<path fill-rule="evenodd" clip-rule="evenodd" fill="#FEFEFE" d="M433.169,100.787c-0.005-0.156,0.01-0.313-0.135-0.431
							c-0.452-0.365-0.246-0.69,0.036-1.05c0.31-0.396,0.596-0.815,0.846-1.251c0.146-0.256,0.236-0.274,0.472-0.105
							c1.148,0.828,2.309,1.639,3.468,2.453c0.493,0.347,0.987,0.692,1.489,1.027c0.418,0.279,0.243,0.749,0.362,1.122
							c0.019,0.06-0.22,0.164-0.395,0.188c-0.396,0.056-0.674,0.222-0.51,0.724c0.098,0.303,0.061,0.601-0.385,0.596
							c-0.523-0.005-0.661,0.307-0.507,0.728c0.154,0.426-0.071,0.552-0.39,0.587c-0.441,0.049-0.569,0.264-0.467,0.671
							c0.088,0.347,0.063,0.588-0.405,0.626c-0.522,0.043-0.564,0.439-0.441,0.847c0.088,0.293-0.016,0.353-0.282,0.446
							c-0.541,0.189-0.887-0.02-1.336-0.319c-1.417-0.942-2.771-1.973-4.193-2.905c-0.618-0.406-0.604-0.403-0.214-1.039
							c0.267-0.432,0.523-0.868,0.816-1.284c0.156-0.222,0.303-0.29,0.557-0.193c0.38,0.145,0.744,0.108,1.068-0.159
							C432.865,101.666,433.194,101.302,433.169,100.787z"/>
						<path fill-rule="evenodd" clip-rule="evenodd" fill="#FEFDFD" d="M430.318,116.424c0.622,0.388,1.124,0.685,1.606,1.011
							c0.154,0.104,0.425,0.219,0.307,0.463c-0.091,0.19-0.337,0.202-0.552,0.188c-0.569-0.038-1.139-0.069-1.768-0.106
							c0.501,0.437,1.049,0.69,1.542,1.024c0.144,0.097,0.439,0.148,0.259,0.454c-0.192,0.324-0.372,0.134-0.571,0.007
							c-0.777-0.496-1.553-0.993-2.343-1.468c-0.173-0.104-0.373-0.208-0.301-0.399c0.066-0.177,0.243-0.228,0.508-0.207
							c0.57,0.043,1.155,0.13,1.795,0.026c-0.563-0.36-1.061-0.697-1.579-1c-0.184-0.108-0.268-0.257-0.209-0.413
							c0.047-0.124,0.201-0.181,0.395-0.168c0.968,0.061,1.939,0.071,2.908,0.134c0.134,0.009,0.436-0.027,0.409,0.28
							c-0.022,0.277-0.226,0.275-0.44,0.264C431.684,116.481,431.083,116.458,430.318,116.424z"/>
						<path fill-rule="evenodd" clip-rule="evenodd" fill="#FEFCFC" d="M437.302,96.904c0.229,0.545,0.485,0.944,0.737,1.349
							c0.112,0.18,0.321,0.472,0.008,0.622c-0.291,0.138-0.433-0.067-0.493-0.377c-0.036-0.189-0.23-0.342-0.316-0.528
							c-0.14-0.302-0.331-0.415-0.667-0.319c-0.438,0.125-0.883,0.229-1.33,0.309c-0.176,0.031-0.421,0.16-0.518-0.162
							c-0.103-0.339,0.153-0.322,0.345-0.372c0.416-0.109,0.832-0.219,1.25-0.318c0.104-0.024,0.272,0.074,0.267-0.128
							c-0.005-0.15-0.016-0.315-0.224-0.372c-0.266-0.073-0.521-0.182-0.786-0.259c-0.249-0.073-0.42-0.221-0.333-0.481
							c0.096-0.287,0.389-0.164,0.551-0.12c0.645,0.175,1.272,0.408,1.91,0.609c0.702,0.222,1.409,0.43,2.113,0.647
							c0.225,0.069,0.481,0.197,0.382,0.448c-0.073,0.186-0.312,0.261-0.592,0.161C438.879,97.352,438.132,97.154,437.302,96.904z"
							/>
						<path fill-rule="evenodd" clip-rule="evenodd" fill="#FEFCFC" d="M438.215,87.45c0.909,0.282,1.891,0.585,2.87,0.892
							c0.506,0.158,1.008,0.332,1.518,0.479c0.146,0.042,0.214,0.079,0.182,0.243c-0.036,0.179-0.127,0.232-0.295,0.18
							c-0.277-0.086-0.562-0.154-0.831-0.258c-0.3-0.116-0.49-0.084-0.576,0.267c-0.205,0.837-0.865,1.241-1.768,0.804
							c-0.321-0.156-0.694-0.204-1.033-0.329c-0.695-0.255-0.954-0.808-0.724-1.501c0.055-0.164,0.146-0.321,0.167-0.488
							C437.76,87.469,437.93,87.448,438.215,87.45z"/>
						<path fill-rule="evenodd" clip-rule="evenodd" fill="#FEFDFD" d="M435.494,111.589c-0.255-0.063-0.576-0.089-0.843-0.225
							c-0.307-0.155-0.403-0.016-0.502,0.216c-0.397,0.936-0.577,1.046-1.56,0.81c-0.619-0.148-1.228-0.349-1.83-0.557
							c-0.166-0.058-0.453-0.11-0.362-0.41c0.099-0.325,0.362-0.285,0.604-0.208c0.602,0.19,1.197,0.399,1.798,0.593
							c0.297,0.096,0.569,0.085,0.781-0.199c0.296-0.396,0.25-0.579-0.22-0.731c-0.686-0.223-1.379-0.423-2.059-0.661
							c-0.166-0.058-0.499-0.085-0.39-0.374c0.08-0.212,0.334-0.167,0.55-0.099c1.223,0.388,2.452,0.755,3.669,1.159
							c0.161,0.054,0.331,0.051,0.496,0.126c0.187,0.085,0.261,0.139,0.246,0.358C435.855,111.661,435.679,111.571,435.494,111.589z
							"/>
						<path fill-rule="evenodd" clip-rule="evenodd" fill="#FEFBFB" d="M439.404,94.72c-0.03,0.621-0.621,1.245-1.41,1.012
							c-0.525-0.155-1.047-0.327-1.561-0.519c-0.561-0.21-0.784-0.729-0.588-1.292c0.209-0.603,0.746-0.91,1.316-0.746
							c0.475,0.137,0.95,0.271,1.419,0.429C439.097,93.777,439.432,94.248,439.404,94.72z"/>
						<path fill-rule="evenodd" clip-rule="evenodd" fill="#FEFCFC" d="M437.948,90.359c0.477,0.156,1.149,0.309,1.759,0.597
							c0.518,0.245,0.675,0.945,0.441,1.425c-0.272,0.56-0.784,0.772-1.405,0.58c-0.441-0.137-0.884-0.271-1.321-0.42
							c-0.56-0.192-0.855-0.674-0.775-1.237C436.723,90.762,437.175,90.381,437.948,90.359z"/>
						<path fill-rule="evenodd" clip-rule="evenodd" fill="#FDFAFA" d="M430.914,112.675c0.607,0.204,1.4,0.281,2.055,0.709
							c0.416,0.271,0.488,0.798,0.319,1.211c-0.159,0.39-0.462,0.772-1.014,0.728c-0.714-0.058-1.381-0.281-2.013-0.593
							c-0.445-0.22-0.627-0.744-0.503-1.216C429.897,112.987,430.233,112.707,430.914,112.675z"/>
						<path fill-rule="evenodd" clip-rule="evenodd" fill="#FDFBFB" d="M435.005,108.851c0.026,0.461-0.267,0.708-0.626,0.906
							c-0.19,0.105-0.361,0.022-0.444-0.136c-0.084-0.158,0.029-0.27,0.182-0.369c0.419-0.273,0.459-0.638,0.103-0.836
							c-0.293-0.163-0.464,0.111-0.661,0.241c-0.287,0.187-0.5,0.477-0.856,0.569c-0.513,0.133-1.083-0.177-1.235-0.691
							c-0.159-0.534,0.155-1.096,0.673-1.284c0.184-0.067,0.31-0.049,0.407,0.085c0.12,0.167-0.02,0.269-0.139,0.365
							c-0.081,0.065-0.157,0.134-0.238,0.2c-0.239,0.194-0.23,0.442-0.054,0.638c0.172,0.19,0.409,0.206,0.641,0.028
							c0.272-0.209,0.545-0.428,0.846-0.587C434.37,107.573,435.008,107.98,435.005,108.851z"/>
						<path fill-rule="evenodd" clip-rule="evenodd" fill="#F3B8B9" d="M426.801,117.583c-0.672-0.253-1.013-0.776-0.953-1.461
							c0.064-0.743,0.469-1.214,1.172-1.365c0.227,0.271,0.588,0.114,0.853,0.267c0.042,0.03,0.078,0.066,0.111,0.106
							c0.128,0.228,0.268,0.452,0.339,0.703c0.084,0.292,0.123,0.585-0.224,0.757c-0.157-0.101-0.14-0.272-0.164-0.424
							c-0.031-0.196-0.119-0.33-0.337-0.333c-0.234-0.003-0.266,0.178-0.326,0.347c-0.073,0.206-0.003,0.419-0.056,0.624
							c-0.178,0.152-0.354,0.082-0.54,0.009c-0.191-0.075-0.252-0.161-0.109-0.345c0.244-0.313,0.323-0.688,0.394-1.122
							c-0.269,0.072-0.275,0.534-0.628,0.364c-0.018-0.008-0.071,0.217-0.13,0.325c0.524,0.113,0.016,0.792,0.506,0.924
							c-0.385,0.194,0.061,0.229,0.067,0.349C426.828,117.394,426.873,117.484,426.801,117.583z"/>
						<path fill-rule="evenodd" clip-rule="evenodd" fill="#EE999A" d="M430.603,107.581c0.629,0.404,0.625,1.458,0.042,2.057
							c-0.515,0.527-1.26,0.576-1.654,0.346c-0.569-0.333-0.919-0.841-0.804-1.542c0.032-0.197-0.032-0.276-0.18-0.261
							c-0.367,0.038-0.627-0.292-1.095-0.188c0.405-0.444,0.746-0.146,1.025-0.081c0.259,0.061,0.339,0.019,0.495-0.166
							c0.313-0.37,0.649-0.753,1.23-0.609c0.034,0.035,0.052,0.078,0.053,0.127c-0.227,0.303-0.699,0.245-0.887,0.605
							c-0.369,0.602-0.386,1.141-0.044,1.514c0.619,0.678,1.49,0.443,1.837-0.496c0.174-0.335,0.123-0.658-0.058-0.97
							c-0.06-0.103-0.146-0.194-0.086-0.327C430.518,107.549,430.559,107.546,430.603,107.581z"/>
						<path fill-rule="evenodd" clip-rule="evenodd" fill="#DB1E20" d="M432.29,101.864c-0.172-0.071-0.328,0.168-0.505,0.026
							c-0.419-0.202-0.661-0.577-0.905-0.945c-0.092-0.139-0.2-0.294-0.051-0.467l-0.008,0.005c0.254-0.115,0.518-0.198,0.79-0.261
							c0.539-0.125,0.921-0.006,1.143,0.371c0.241,0.409,0.178,0.702-0.249,1.154C432.435,101.789,432.355,101.813,432.29,101.864z"
							/>
						<path fill-rule="evenodd" clip-rule="evenodd" fill="#ED9596" d="M426.801,117.583c-0.037-0.078-0.075-0.156-0.113-0.234
							c0.046-0.074,0.118-0.089,0.197-0.087c0.697,0.132,1.007,0.01,1.288-0.512c0.325-0.602,0.229-1.102-0.318-1.649l0.007,0.006
							c-0.061-0.074-0.069-0.147,0.003-0.22c0.469,0.009,0.665,0.398,0.792,0.716c0.243,0.61,0.05,1.214-0.397,1.669
							C427.868,117.669,427.362,117.837,426.801,117.583z"/>
						<path fill-rule="evenodd" clip-rule="evenodd" fill="#EF9D9E" d="M427.326,108.53c0.317,0.198,0.327,0.517,0.009,0.902
							c-0.098,0.118-0.256,0.179-0.083,0.371c0.047,0.052,0.028,0.25-0.116,0.311c-0.149,0.062-0.303,0.001-0.379-0.107
							c-0.153-0.218-0.139-0.485-0.106-0.739c0.016-0.122,0.146-0.1,0.211-0.06c0.135,0.083,0.261,0.087,0.401,0.026
							c-0.177-0.104-0.351-0.205-0.523-0.309c-0.009-0.005-0.005-0.033-0.007-0.058c0.221-0.144,0.405,0.148,0.628,0.059
							c-0.013-0.275-0.329-0.176-0.423-0.349c0.128-0.094,0.266-0.045,0.399-0.041L427.326,108.53z"/>
						<path fill-rule="evenodd" clip-rule="evenodd" fill="#F2B2B3" d="M432.426,101.752c0.031-0.062,0.048-0.139,0.096-0.184
							c0.305-0.295,0.341-0.658,0.129-0.982c-0.237-0.363-0.633-0.358-1.035-0.286c-0.27,0.048-0.479,0.349-0.794,0.184
							c0.932-0.618,1.877-0.678,2.176,0.438C433.047,101.543,432.873,101.795,432.426,101.752z"/>
						<path fill-rule="evenodd" clip-rule="evenodd" fill="#EE9899" d="M428.269,106.168c-0.033-0.306-0.222-0.21-0.298-0.295
							c-0.082-0.09-0.255-0.023-0.299-0.177c0.479-0.047,0.833,0.091,0.776,0.318c-0.064,0.256-0.02,0.66-0.448,0.634
							c-0.172-0.01-0.537,0.028-0.486-0.256C427.58,106.014,427.898,105.934,428.269,106.168z"/>
						<path fill-rule="evenodd" clip-rule="evenodd" fill="#EB8889" d="M429.136,100.866c0.247-0.052,0.457-0.11,0.121-0.355
							c0.423-0.096,0.728,0.173,1.077,0.213c0.092,0.011,0.091,0.188,0.008,0.196C429.958,100.955,429.569,101.367,429.136,100.866z
							"/>
						<path fill-rule="evenodd" clip-rule="evenodd" fill="#ED9394" d="M430.514,99c-0.2-0.087-0.398-0.174-0.593-0.259
							c0.161-0.277,0.454,0.169,0.611-0.125c-0.386-0.172,0.267-0.188,0.052-0.366c-0.139-0.115-0.418-0.008-0.447-0.327
							c0.263-0.018,0.595-0.027,0.689,0.191c0.141,0.324-0.099,0.624-0.319,0.879L430.514,99z"/>
						<path fill-rule="evenodd" clip-rule="evenodd" fill="#E35759" d="M432.426,101.752c0.527-0.045,0.379-0.556,0.572-0.83
							c0.057-0.045,0.113-0.09,0.171-0.135c0.202,0.59-0.102,0.965-0.545,1.28c-0.006-0.241-0.191-0.187-0.334-0.204
							C432.336,101.826,432.381,101.789,432.426,101.752z"/>
						<path fill-rule="evenodd" clip-rule="evenodd" fill="#F2B4B5" d="M428.757,102.344c0.241-0.21,0.356-0.712,0.934-0.3
							c0.04,0.043-0.609,0.005-0.167,0.23c0.024,0.012,0.055,0.118-0.093,0.156C429.04,102.531,429.047,102.555,428.757,102.344z"/>
						<path fill-rule="evenodd" clip-rule="evenodd" fill="#F2B4B5" d="M430.829,100.478c0.135,0.507,0.381,0.937,0.851,1.208
							c0.084,0.048,0.136,0.102,0.105,0.204c-0.444-0.088-1.15-0.879-1.147-1.296C430.638,100.474,430.741,100.478,430.829,100.478z
							"/>
						<path fill-rule="evenodd" clip-rule="evenodd" fill="#ED9596" d="M424.371,117.199c0.104,0.042,0.174,0.099,0.227,0.086
							c0.272-0.068,0.557,0.091,0.563,0.266c0.01,0.268-0.302,0.053-0.461,0.119c-0.034,0.014-0.117-0.106-0.187-0.152
							c-0.055-0.037-0.126-0.05-0.186-0.081c-0.09-0.046-0.242,0.213-0.269-0.032C424.027,117.115,424.354,117.429,424.371,117.199z
							"/>
						<path fill-rule="evenodd" clip-rule="evenodd" fill="#EFA2A3" d="M430.507,98.994c0.038,0.224-0.453,0.309-0.187,0.643
							c-0.253-0.184-0.511-0.362-0.757-0.554c-0.062-0.048-0.234-0.075-0.116-0.221c0.081-0.099,0.17-0.02,0.219,0.036
							c0.256,0.286,0.559,0.124,0.848,0.103L430.507,98.994z"/>
						<path fill-rule="evenodd" clip-rule="evenodd" fill="#F1AFAF" d="M424.426,116.24c0.179-0.32,0.58-0.379,0.799-0.129
							c0.114,0.131,0.019,0.228-0.021,0.329c-0.041,0.105-0.131,0.171-0.24,0.072c-0.067-0.06-0.296,0.057-0.203-0.186
							c0.029-0.075,0.044-0.166-0.038-0.237C424.594,116.081,424.616,116.379,424.426,116.24z"/>
						<path fill-rule="evenodd" clip-rule="evenodd" fill="#F0A7A8" d="M427.058,106.565c0.285,0.363,0.709,0.21,1.156,0.291
							c-0.24,0.126-0.744,0.197,0.038,0.48C427.579,107.25,427.294,106.944,427.058,106.565z"/>
						<path fill-rule="evenodd" clip-rule="evenodd" fill="#F1ACAD" d="M425.618,114.478c-0.197,0.167-0.059,0.332-0.005,0.542
							c-0.307-0.122-0.54-0.254-0.735-0.497C425.132,114.401,425.372,114.598,425.618,114.478z"/>
						<path fill-rule="evenodd" clip-rule="evenodd" fill="#F2B3B3" d="M429.568,99.872c0.14-0.028-0.029,0.511,0.288,0.166
							c0.106-0.115,0.261-0.007,0.323,0.042c0.107,0.085,0.073,0.244-0.059,0.311c-0.066,0.034-0.009-0.154-0.152-0.139
							C429.393,100.313,429.392,100.305,429.568,99.872z"/>
						<path fill-rule="evenodd" clip-rule="evenodd" fill="#F0A5A6" d="M425.394,115.974c-0.184-0.384-0.546-0.12-0.827-0.309
							C425.415,115.495,425.415,115.495,425.394,115.974z"/>
						<path fill-rule="evenodd" clip-rule="evenodd" fill="#EB8586" d="M427.337,108.537c-0.142-0.095-0.284-0.189-0.426-0.284
							c0.315-0.093,0.547,0.024,0.79,0.123c-0.087,0.195-0.239,0.15-0.375,0.154L427.337,108.537z"/>
						<path fill-rule="evenodd" clip-rule="evenodd" d="M478.507,111.71c-0.023,0.495-0.221,0.937-0.415,1.379
							C478.09,112.587,478.271,112.14,478.507,111.71z"/>
						<path fill-rule="evenodd" clip-rule="evenodd" d="M471.091,135.652c-0.022,0.495-0.221,0.937-0.415,1.38
							C470.674,136.53,470.854,136.083,471.091,135.652z"/>
						<path fill-rule="evenodd" clip-rule="evenodd" d="M472.469,131.203c-0.023,0.494-0.221,0.937-0.416,1.379
							C472.051,132.08,472.231,131.633,472.469,131.203z"/>
						<path fill-rule="evenodd" clip-rule="evenodd" d="M478.905,110.335c0.032,0.511-0.214,0.94-0.405,1.385
							C478.507,111.221,478.713,110.78,478.905,110.335z"/>
						<path fill-rule="evenodd" clip-rule="evenodd" d="M471.489,134.277c0.032,0.511-0.214,0.94-0.405,1.386
							C471.091,135.163,471.297,134.722,471.489,134.277z"/>
						<path fill-rule="evenodd" clip-rule="evenodd" d="M479.884,107.26c-0.022,0.494-0.221,0.937-0.415,1.379
							C479.467,108.138,479.647,107.691,479.884,107.26z"/>
						<path fill-rule="evenodd" clip-rule="evenodd" d="M472.866,129.828c0.032,0.511-0.214,0.94-0.405,1.385
							C472.469,130.714,472.674,130.273,472.866,129.828z"/>
						<path fill-rule="evenodd" clip-rule="evenodd" d="M473.82,126.756c0.022,0.503-0.203,0.935-0.39,1.377
							C473.415,127.633,473.631,127.198,473.82,126.756z"/>
						<path fill-rule="evenodd" clip-rule="evenodd" d="M474.799,123.68c-0.022,0.495-0.221,0.938-0.415,1.38
							C474.382,124.558,474.563,124.111,474.799,123.68z"/>
						<path fill-rule="evenodd" clip-rule="evenodd" d="M475.197,122.306c0.032,0.511-0.214,0.939-0.405,1.385
							C474.799,123.192,475.005,122.751,475.197,122.306z"/>
						<path fill-rule="evenodd" clip-rule="evenodd" d="M480.282,105.885c0.032,0.511-0.214,0.94-0.405,1.385
							C479.884,106.771,480.09,106.33,480.282,105.885z"/>
						<path fill-rule="evenodd" clip-rule="evenodd" d="M476.177,119.231c-0.023,0.495-0.221,0.937-0.416,1.38
							C475.759,120.109,475.939,119.662,476.177,119.231z"/>
						<path fill-rule="evenodd" clip-rule="evenodd" d="M476.574,117.857c0.032,0.511-0.214,0.94-0.405,1.385
							C476.177,118.742,476.382,118.302,476.574,117.857z"/>
						<path fill-rule="evenodd" clip-rule="evenodd" d="M477.528,114.784c0.022,0.502-0.203,0.934-0.391,1.377
							C477.123,115.661,477.339,115.227,477.528,114.784z"/>
						<path fill-rule="evenodd" clip-rule="evenodd" d="M484.943,90.842c0.023,0.502-0.203,0.934-0.39,1.377
							C484.539,91.719,484.755,91.284,484.943,90.842z"/>
						<path fill-rule="evenodd" clip-rule="evenodd" d="M481.235,102.813c0.023,0.502-0.203,0.934-0.39,1.377
							C480.831,103.69,481.047,103.256,481.235,102.813z"/>
						<path fill-rule="evenodd" clip-rule="evenodd" d="M483.99,93.914c0.032,0.511-0.214,0.94-0.405,1.385
							C483.592,94.8,483.798,94.359,483.99,93.914z"/>
						<path fill-rule="evenodd" clip-rule="evenodd" d="M483.592,95.289c-0.022,0.495-0.221,0.937-0.415,1.38
							C483.175,96.167,483.355,95.719,483.592,95.289z"/>
						<path fill-rule="evenodd" clip-rule="evenodd" d="M482.215,99.739c-0.023,0.495-0.221,0.937-0.415,1.379
							C481.798,100.616,481.979,100.169,482.215,99.739z"/>
						<path fill-rule="evenodd" clip-rule="evenodd" d="M482.613,98.364c0.032,0.511-0.214,0.939-0.406,1.385
							C482.215,99.25,482.421,98.809,482.613,98.364z"/>
						<path fill-rule="evenodd" clip-rule="evenodd" d="M469.158,141.8c0.023,0.502-0.202,0.934-0.39,1.377
							C468.754,142.677,468.97,142.242,469.158,141.8z"/>
						<path fill-rule="evenodd" clip-rule="evenodd" d="M470.112,138.727c0.022,0.502-0.203,0.934-0.39,1.377
							C469.707,139.604,469.923,139.17,470.112,138.727z"/>
						<path fill-rule="evenodd" clip-rule="evenodd" fill="#F9DDDD" d="M424.773,116.757c-0.069,0.107-0.065,0.283-0.271,0.259
							c-0.156-0.018-0.146-0.12-0.141-0.226c0.005-0.122,0.009-0.274,0.167-0.261C424.632,116.537,424.774,116.594,424.773,116.757z
							"/>
						<path fill-rule="evenodd" clip-rule="evenodd" fill="#EB8889" d="M425.844,114.242c-0.266,0.119-0.505,0.124-0.743-0.121
							C425.414,113.94,425.625,114.132,425.844,114.242z"/>
						<path fill-rule="evenodd" clip-rule="evenodd" fill="#DE3033" d="M427.864,114.887c-0.001,0.073-0.002,0.146-0.003,0.22
							c-0.272-0.136-0.742,0.202-0.842-0.35c0.026-0.055,0.058-0.054,0.093-0.009c0.236,0.123,0.519,0.008,0.753,0.143
							L427.864,114.887z"/>
						<path fill-rule="evenodd" clip-rule="evenodd" fill="#FBE9E9" d="M429.66,107.289c0.001-0.051,0.002-0.102,0.003-0.153
							c0.365,0.039,0.759,0.017,0.939,0.445l-0.051-0.005l-0.05,0.01C430.161,107.659,429.931,107.415,429.66,107.289z"/>
						<path fill-rule="evenodd" clip-rule="evenodd" d="M481.659,101.436c0.08,0.4-0.146,0.718-0.283,1.059
							C481.322,102.102,481.517,101.776,481.659,101.436z"/>
						<path fill-rule="evenodd" clip-rule="evenodd" d="M484.414,92.537c0.08,0.4-0.146,0.718-0.284,1.059
							C484.076,93.203,484.271,92.877,484.414,92.537z"/>
						<path fill-rule="evenodd" clip-rule="evenodd" d="M480.706,104.509c0.08,0.4-0.146,0.718-0.284,1.059
							C480.368,105.175,480.563,104.848,480.706,104.509z"/>
						<path fill-rule="evenodd" clip-rule="evenodd" d="M475.621,120.929c0.08,0.4-0.146,0.718-0.284,1.059
							C475.283,121.595,475.478,121.269,475.621,120.929z"/>
						<path fill-rule="evenodd" clip-rule="evenodd" d="M477.951,113.407c0.08,0.4-0.146,0.718-0.283,1.059
							C477.614,114.074,477.809,113.747,477.951,113.407z"/>
						<path fill-rule="evenodd" clip-rule="evenodd" d="M476.998,116.48c0.08,0.4-0.146,0.718-0.284,1.059
							C476.66,117.146,476.855,116.82,476.998,116.48z"/>
						<path fill-rule="evenodd" clip-rule="evenodd" d="M473.29,128.451c0.08,0.399-0.146,0.718-0.283,1.059
							C472.952,129.117,473.147,128.791,473.29,128.451z"/>
						<path fill-rule="evenodd" clip-rule="evenodd" d="M471.913,132.9c0.08,0.4-0.146,0.718-0.284,1.06
							C471.575,133.567,471.771,133.24,471.913,132.9z"/>
						<path fill-rule="evenodd" clip-rule="evenodd" d="M483.037,96.987c0.079,0.4-0.146,0.718-0.284,1.059
							C482.699,97.653,482.894,97.327,483.037,96.987z"/>
						<path fill-rule="evenodd" clip-rule="evenodd" d="M479.329,108.958c0.079,0.4-0.146,0.718-0.284,1.06
							C478.991,109.624,479.186,109.298,479.329,108.958z"/>
						<path fill-rule="evenodd" clip-rule="evenodd" d="M470.536,137.349c0.079,0.4-0.146,0.718-0.284,1.06
							C470.198,138.016,470.393,137.69,470.536,137.349z"/>
						<path fill-rule="evenodd" clip-rule="evenodd" fill="#F6CCCC" d="M429.14,101.612c0.169-0.204,0.486,0.147,0.546-0.232
							c0.012-0.075,0.093-0.027,0.119,0.006s0.049,0.097,0.034,0.132C429.668,101.943,429.402,101.666,429.14,101.612z"/>
						<path fill-rule="evenodd" clip-rule="evenodd" d="M469.582,140.422c0.08,0.4-0.146,0.718-0.283,1.06
							C469.245,141.089,469.439,140.762,469.582,140.422z"/>
						<path fill-rule="evenodd" clip-rule="evenodd" d="M474.243,125.379c0.08,0.399-0.145,0.718-0.283,1.06
							C473.906,126.045,474.101,125.719,474.243,125.379z"/>
						<path fill-rule="evenodd" clip-rule="evenodd" fill="#F7D0D1" d="M426.03,113.77c-0.142-0.257-0.523-0.144-0.725-0.513
							C425.615,113.46,426.02,113.312,426.03,113.77z"/>
						<path fill-rule="evenodd" clip-rule="evenodd" fill="#F3B8B9" d="M427.865,114.89c-0.257-0.018-0.546,0.14-0.753-0.143
							C427.39,114.658,427.654,114.635,427.865,114.89z"/>
						<path fill-rule="evenodd" clip-rule="evenodd" d="M485.279,89.694c0.136,0.324-0.104,0.56-0.195,0.83
							C485.024,90.218,485.159,89.958,485.279,89.694z"/>
						<path fill-rule="evenodd" clip-rule="evenodd" fill="#DA1A1D" d="M435.668,104.018c-0.795-0.142-1.552-0.418-2.313-0.68
							c-0.165-0.057-0.393-0.131-0.317-0.341c0.085-0.235,0.319-0.212,0.538-0.14c0.567,0.187,1.134,0.374,1.708,0.539
							c0.266,0.077,0.552,0.22,0.808-0.051c0.176-0.186,0.27-0.432,0.258-0.652c-0.01-0.205-0.284-0.151-0.454-0.202
							c-0.705-0.211-1.406-0.438-2.102-0.682c-0.119-0.042-0.409-0.008-0.277-0.314c0.098-0.229,0.288-0.188,0.447-0.143
							c0.475,0.137,0.941,0.301,1.412,0.45c0.195,0.062,0.393,0.121,0.594,0.162c0.203,0.042,0.446,0.277,0.599,0.087
							c0.158-0.198,0.198-0.501,0.259-0.765c0.046-0.198-0.155-0.147-0.25-0.179c-0.749-0.247-1.506-0.47-2.248-0.733
							c-0.146-0.052-0.491-0.053-0.35-0.373c0.106-0.24,0.307-0.162,0.526-0.091c0.851,0.274,1.713,0.511,2.569,0.766
							c0.303,0.09,0.414,0.231,0.282,0.588c-0.237,0.645-0.396,1.318-0.587,1.98C436.621,103.762,436.226,104.034,435.668,104.018z"
							/>
						<path fill-rule="evenodd" clip-rule="evenodd" fill="#DA1B1E" d="M433.776,105.113c0.539,0.392,0.99,0.716,1.438,1.045
							c0.138,0.102,0.27,0.213,0.402,0.323c0.139,0.114,0.12,0.215,0.001,0.348c-0.114,0.125-0.184,0.094-0.304,0.013
							c-0.742-0.507-1.511-0.977-2.23-1.515c-0.344-0.257-0.704-0.483-1.056-0.726c-0.397-0.275-0.603-0.632-0.558-1.138
							c0.018-0.207,0.134-0.302,0.274-0.317c0.183-0.02,0.256,0.149,0.276,0.313c0.08,0.647,0.634,1.147,1.27,1.136
							c0.833-0.015,1.665-0.046,2.497-0.042c0.172,0.001,0.438-0.031,0.466,0.281c0.036,0.389-0.298,0.257-0.438,0.265
							C435.178,105.132,434.538,105.113,433.776,105.113z"/>
						<path fill-rule="evenodd" clip-rule="evenodd" fill="#DA1B1E" d="M438.085,88.741c0.002-0.679,0.08-0.739,0.653-0.555
							c0.476,0.152,0.958,0.287,1.426,0.458c0.181,0.066,0.525,0.022,0.456,0.356c-0.066,0.32-0.235,0.719-0.605,0.671
							c-0.601-0.076-1.196-0.256-1.737-0.556C438.127,89.034,437.992,88.915,438.085,88.741z"/>
						<path fill-rule="evenodd" clip-rule="evenodd" fill="#DA1A1D" d="M436.844,93.661c0.609,0.201,1.209,0.368,1.779,0.604
							c0.187,0.077,0.302,0.339,0.191,0.587c-0.11,0.25-0.325,0.361-0.582,0.292c-0.531-0.143-1.059-0.303-1.579-0.481
							c-0.262-0.09-0.367-0.31-0.308-0.587C436.403,93.803,436.656,93.789,436.844,93.661z"/>
						<path fill-rule="evenodd" clip-rule="evenodd" fill="#DB1B1E" d="M439.203,92.414c-0.615-0.091-1.213-0.293-1.794-0.535
							c-0.243-0.101-0.27-0.395-0.191-0.59c0.071-0.181,0.224-0.381,0.519-0.325c0.573,0.109,1.118,0.301,1.665,0.494
							c0.287,0.101,0.319,0.387,0.277,0.589C439.644,92.215,439.56,92.537,439.203,92.414z"/>
						<path fill-rule="evenodd" clip-rule="evenodd" fill="#DA1A1D" d="M432.182,114.726c-0.501-0.172-1.114-0.278-1.673-0.562
							c-0.255-0.129-0.271-0.33-0.207-0.563c0.074-0.273,0.257-0.493,0.538-0.446c0.607,0.101,1.207,0.26,1.757,0.558
							c0.286,0.155,0.204,0.431,0.155,0.65C432.704,114.58,432.557,114.77,432.182,114.726z"/>
						<path fill-rule="evenodd" clip-rule="evenodd" fill="#DD2C2D" d="M426.695,117.011c-0.522-0.149-0.316-0.572-0.308-0.926
							c-0.185,0.077-0.083,0.337-0.337,0.352c-0.031-0.416,0.035-0.789,0.313-1.114c0.182,0.094,0.05,0.285,0.172,0.372
							c0.22-0.109-0.011-0.679,0.501-0.487c0.052,0.02,0.191-0.005,0.13,0.091c-0.27,0.424-0.118,1.026-0.59,1.36
							c0.206,0.114,0.409,0.21,0.648,0.142c0.019,0.02,0.036,0.039,0.055,0.058c-0.015,0.501-0.049,0.515-0.541,0.219
							C426.725,117.055,426.71,117.033,426.695,117.011z"/>
						<path fill-rule="evenodd" clip-rule="evenodd" fill="#DB1C1F" d="M427.226,116.8c-0.408-0.327-0.07-0.677,0.001-0.996
							c0.069-0.31,0.386,0.04,0.588-0.125c0.075-0.061,0.247,0.204,0.261,0.386c0.013,0.174-0.001,0.35-0.004,0.525
							c-0.005,0.025-0.011,0.05-0.017,0.075c-0.394,0.475-0.425,0.48-0.833,0.127L427.226,116.8z"/>
						<path fill-rule="evenodd" clip-rule="evenodd" fill="#DE3033" d="M427.854,115.101c0.631,0.308,0.804,0.923,0.465,1.658
							c-0.296,0.643-0.802,0.846-1.411,0.566c0.019-0.016,0.037-0.032,0.056-0.047c0.477-0.063,0.856-0.279,1.11-0.697l-0.003,0.01
							c0.313-0.275,0.194-0.621,0.065-0.896C428.045,115.499,427.973,115.287,427.854,115.101z"/>
						<path fill-rule="evenodd" clip-rule="evenodd" fill="#DE3033" d="M426.908,117.324c-0.073,0.008-0.146,0.016-0.221,0.024
							c-0.1-0.084-0.2-0.169-0.33-0.278c0.134-0.024,0.235-0.042,0.338-0.06l-0.004-0.006c0.085,0.099,0.299,0.114,0.212,0.326
							L426.908,117.324z"/>
						<path fill-rule="evenodd" clip-rule="evenodd" fill="#DB2124" d="M430.745,108.869c-0.117,0.589-0.491,0.965-1.011,1.015
							c-0.461,0.044-1.044-0.267-1.211-0.647c-0.23-0.526-0.129-1.094,0.261-1.46c0.159-0.053,0.183,0.063,0.213,0.172
							c0.006,0.111-0.035,0.209-0.083,0.305c-0.193,0.526-0.095,0.875,0.317,1.121c0.341,0.204,0.736,0.095,1.081-0.299
							c0.103-0.118,0.194-0.249,0.374-0.251C430.706,108.839,430.726,108.854,430.745,108.869z"/>
						<path fill-rule="evenodd" clip-rule="evenodd" fill="#DC2325" d="M428.927,108.007c-0.01-0.1-0.041-0.187-0.143-0.23
							c0.166-0.387,0.526-0.428,0.876-0.487c0.344-0.081,0.568,0.177,0.842,0.297c0.209,0.404,0.574,0.778,0.243,1.284
							c-0.021-0.013-0.04-0.027-0.061-0.041c-0.169-0.08-0.162-0.252-0.211-0.397c-0.104-0.307-0.256-0.575-0.615-0.639
							c-0.045-0.01-0.09-0.024-0.134-0.039c-0.252-0.087-0.437,0.031-0.605,0.198C429.063,107.999,429.004,108.036,428.927,108.007z
							"/>
						<path fill-rule="evenodd" clip-rule="evenodd" fill="#F4C3C3" d="M431.806,100.697c0.201,0.164-0.238,0.454,0.169,0.512
							c0.087,0.013,0.24,0.066,0.268-0.074c0.037-0.187,0.003-0.37-0.414-0.376c0.375-0.144,0.542-0.145,0.606,0.108
							c0.056,0.221-0.019,0.383-0.219,0.515c-0.222,0.147-0.396,0.015-0.503-0.11C431.558,101.093,431.559,100.868,431.806,100.697z
							"/>
						<path fill-rule="evenodd" clip-rule="evenodd" fill="#F5C6C7" d="M426.903,117.33c-0.004-0.152-0.238-0.154-0.212-0.326
							c0.212-0.084,0.31,0.134,0.493,0.215c0.015-0.165,0.025-0.296,0.037-0.428c0.382,0.32,0.593-0.042,0.853-0.212
							C427.947,117.009,427.462,117.32,426.903,117.33z"/>
						<path fill-rule="evenodd" clip-rule="evenodd" fill="#DA1B1D" d="M428.927,108.007c0.032-0.035,0.064-0.07,0.098-0.105
							c0.224-0.158,0.463-0.264,0.746-0.211l-0.007-0.002c0.381,0.04,0.573,0.298,0.7,0.619c0.131,0.332,0.015,0.473-0.333,0.411
							c-0.216-0.038-0.416-0.203-0.572-0.116c0.046-0.038,0.179-0.002,0.294,0.045c0.18,0.072,0.475,0.051,0.449,0.342
							c-0.026,0.289-0.23,0.466-0.525,0.509c-0.715,0.104-1.12-0.461-0.959-1.333C428.854,108.112,428.89,108.059,428.927,108.007z"
							/>
						<path fill-rule="evenodd" clip-rule="evenodd" fill="#EFA2A3" d="M428.817,108.164c0.083,0.294,0.003,0.601,0.175,0.903
							c0.203,0.355,0.512,0.344,0.793,0.319c0.199-0.017,0.528-0.217,0.438-0.429c-0.086-0.199-0.434-0.283-0.699-0.212
							c-0.119,0.031-0.214,0.162-0.37,0.138c0.313-0.428,0.413-0.471,0.855-0.315c0.133,0.046,0.273,0.16,0.385,0.038
							c0.116-0.126-0.072-0.246-0.084-0.378c-0.029-0.335-0.395-0.329-0.546-0.541c0.419-0.031,0.765,0.247,0.844,0.681
							c0.028,0.153,0.052,0.307,0.077,0.46c-0.309,0.328-0.474,0.822-1.068,0.797C428.85,109.594,428.428,108.847,428.817,108.164z"
							/>
						<path fill-rule="evenodd" clip-rule="evenodd" fill="#F4C1C1" d="M429.771,107.69c-0.249,0.07-0.498,0.141-0.746,0.211
							C429.209,107.603,429.442,107.479,429.771,107.69z"/>
					</g>
				</g>
			</g>
		</g>
		<polyline opacity="0.15" fill="#444444" enable-background="new    " points="475.779,86.699 480.939,88.308 464.051,142.482 
			386.656,118.355 		"/>
	</g>
	<g>
		<g>
			<g>
				<path fill="#E5C0B5" d="M377.511,104.777c-0.682-0.938-6.731-1.284-13.828-1.506c-5.351-0.167-8.194-1.298-8.393-1.361
					c-8.694-2.683-4.027-9.813,1.313-9.508c22.956,1.296,57.758,18.891,57.758,18.891c2.896,0.434,4.702-0.354,6.006-3.524
					c1.19-2.898-1.831-4.536-3.995-6.338c-11.05-9.188-36.147-16.372-35.923-17.468c0.221-1.093,1.239-1.65,2.33-1.487
					c0,0,11.104,1.896,21.604,3.882c9.815,1.857,30.194,10.453,30.194,10.453c2.894,0.431,5.679-1.379,6.354-4.703
					c0.339-1.656-2.905-4.943-4.348-5.161c0,0-15.701-7.977-28.164-11.748c-5.658-1.712-22.983-5.774-22.983-5.774
					c-1.089-0.164-1.824-0.983-1.603-2.074c0.222-1.09,1.238-1.65,2.327-1.487c0,0,15.327,3.271,20.544,4.718
					c6.057,1.68,24.549,7.788,24.549,7.788c2.893,0.433,3.994-0.396,5.878-3.211c2.09-3.122-0.866-5.279-3.869-6.653
					c0,0-18.188-7.804-24.33-9.747c-5.143-1.625-14.934-3.504-20.795-4.521c-1.083-0.19-1.826-0.983-1.604-2.074
					c0.222-1.091,1.239-1.65,2.329-1.488c0,0,6.752,0.839,9.287,1.433c5.313,1.238,22.119,5.891,22.119,5.891
					c2.896,0.431,5.449-0.229,6.126-3.556c0.64-3.133-1.135-3.831-4.356-5.123c0,0-24.239-8.298-32.712-10.315
					c-46.607-11.091-52.229,6.073-74.964,0.828c-3.07-0.707-5.729,6.379-9.59,7.346c-5.854,1.47,10.092,12.547,8.35,21.636
					c-0.482,2.518-29.576,4.713-29.547,5.97c0.024,1.097,24.223,0.199,37.005,19.86c5.145,7.915,11.84,18.208,21.558,19.705
					C371.167,118.824,386.776,113.543,377.511,104.777z"/>
			</g>
		</g>
		<path fill="#F4D4CE" d="M414.799,101.407l3.938,2.3c1.686,0.984,2.218,3.126,1.182,4.782l0,0
			c-1.033,1.656-3.246,2.199-4.933,1.213l-3.937-2.297c0,0-0.002-1.511,1.182-3.401
			C413.499,101.972,414.799,101.407,414.799,101.407z"/>
		<path fill="#F4D4CE" d="M433.858,86.885l5.125,2.313c2.2,0.989,3.228,3.313,2.297,5.18l0,0c-0.934,1.869-3.474,2.58-5.672,1.587
			l-5.126-2.314c0,0-0.278-1.653,0.787-3.789C432.411,87.572,433.858,86.885,433.858,86.885z"/>
		<path fill="#F4D4CE" d="M431.224,69.093l4.384,1.683c1.879,0.723,2.042,2.498,1.517,4.416c-0.586,2.135-2.532,2.979-4.41,2.26
			l-4.386-1.684c0,0-0.235-1.526,0.678-3.634C429.983,69.873,431.224,69.093,431.224,69.093z"/>
		<path fill="#F4D4CE" d="M420.36,50.754l4.226,1.233c1.817,0.528,2.864,2.19,2.34,3.724l0,0c-0.524,1.526-2.42,2.336-4.234,1.809
			l-4.229-1.229c0,0-0.395-1.24,0.205-2.983C419.31,51.43,420.36,50.754,420.36,50.754z"/>
		<path fill="#E5C0B5" d="M186.234,7.438c-9.087-4.571,1.096,54.866,1.096,54.866l164.171,21.273l7.705-37.824
			C359.206,45.755,236.895,32.927,186.234,7.438z"/>
		<path fill="#F4D4CE" d="M380.81,106.58c-0.711-1.573-6.17-1.605-6.17-1.605s-0.743,2.186-0.562,4.028
			c0.289,2.93,0.753,4.077,0.753,4.077S383.779,113.149,380.81,106.58z"/>
	</g>
</g>
</svg>
