<?xml version="1.0" encoding="utf-8"?>
<!-- Generator: Adobe Illustrator 16.0.0, SVG Export Plug-In . SVG Version: 6.00 Build 0)  -->
<!DOCTYPE svg PUBLIC "-//W3C//DTD SVG 1.1//EN" "http://www.w3.org/Graphics/SVG/1.1/DTD/svg11.dtd">
<svg version="1.1" id="Layer_1" xmlns="http://www.w3.org/2000/svg" xmlns:xlink="http://www.w3.org/1999/xlink" x="0px" y="0px"
	 width="85.8px" height="110.9px" viewBox="0 0 85.8 110.9" enable-background="new 0 0 85.8 110.9" xml:space="preserve">
<path fill="#DEDEDD" d="M85.5,23.4L53.6,107.6c-1,2.6-3.899,3.898-6.5,2.898L3.3,94c-2.6-1-3.9-3.898-2.9-6.5L32.3,3.3
	c1-2.6,3.9-3.898,6.5-2.898L82.6,17C85.201,17.9,86.5,20.8,85.5,23.4z"/>
<rect x="14.893" y="12.849" transform="matrix(-0.9349 -0.3548 0.3548 -0.9349 64.726 118.6682)" fill="#505050" width="56.701" height="81.101"/>
<line fill="none" stroke="#989898" stroke-width="2" stroke-linecap="round" stroke-miterlimit="10" x1="46.5" y1="6.9" x2="71.8" y2="16.5"/>
<g>
	<g>
		<defs>
			
				<rect id="SVGID_1_" x="14.893" y="12.849" transform="matrix(-0.9349 -0.3548 0.3548 -0.9349 64.7261 118.6693)" width="56.7" height="81.102"/>
		</defs>
		<clipPath id="SVGID_2_">
			<use xlink:href="#SVGID_1_"  overflow="visible"/>
		</clipPath>
		<g transform="matrix(1 0 0 1 0 -4.768372e-007)" clip-path="url(#SVGID_2_)">
			<g>
				<path fill-rule="evenodd" clip-rule="evenodd" fill="#D82027" d="M84.86,25.553c-1.039,2.763-2.077,5.525-3.115,8.288
					c-0.315,0.139-0.585-0.03-0.859-0.133c-3.509-1.316-7.016-2.635-10.523-3.954C56.518,24.55,42.673,19.347,28.831,14.139
					c-0.309-0.116-0.674-0.156-0.847-0.506c1.038-2.763,2.077-5.525,3.115-8.288c0.233-0.031,0.423,0.099,0.624,0.175
					c17.518,6.582,35.036,13.167,52.551,19.754C84.476,25.349,84.705,25.377,84.86,25.553z"/>
				<path fill-rule="evenodd" clip-rule="evenodd" fill="#F3F4F4" d="M72.861,57.473c-2.975,7.914-5.95,15.829-8.925,23.743
					c-0.638,0.095-1.148-0.246-1.675-0.511c-0.201-0.102-0.198-0.331-0.152-0.535c0.049-0.215,0.141-0.416,0.218-0.621
					c2.412-6.421,4.826-12.841,7.239-19.262c0.39-1.036,0.257-1.336-0.759-1.718c-5.431-2.042-10.863-4.081-16.292-6.129
					c-0.589-0.222-1.151-0.313-1.708,0.059c-1.111,0.63-2.276,1.096-3.582,1.106c-0.261-0.063-0.513,0.008-0.768,0.051
					c-2.784-0.321-5.106-1.436-6.662-3.872c-0.355-0.556-0.664-1.131-0.832-1.776c-0.137-0.525-0.504-0.846-0.995-1.03
					c-5.613-2.113-11.227-4.226-16.844-6.329c-0.676-0.253-1.037-0.052-1.318,0.694c-1.167,3.095-2.329,6.192-3.493,9.288
					c-1.297,3.45-2.593,6.901-3.892,10.352c-0.316,0.839-0.431,0.896-1.279,0.566c-0.344-0.134-0.752-0.17-0.966-0.542
					c2.975-7.914,5.95-15.829,8.925-23.744c0.36-0.132,0.663,0.068,0.973,0.184c6.046,2.268,12.089,4.541,18.134,6.813
					c11.248,4.228,22.497,8.456,33.744,12.688C72.279,57.073,72.662,57.119,72.861,57.473z"/>
				<path fill-rule="evenodd" clip-rule="evenodd" fill="#F3F4F4" d="M1.125,85.089C4.1,77.175,7.075,69.26,10.05,61.344
					c0.36-0.132,0.663,0.068,0.973,0.185c6.045,2.268,12.089,4.54,18.133,6.813c11.249,4.229,22.498,8.456,33.745,12.688
					c0.327,0.123,0.71,0.169,0.909,0.522c-2.976,7.915-5.95,15.83-8.926,23.744c-0.638,0.095-1.148-0.246-1.674-0.511
					c-0.202-0.102-0.199-0.331-0.152-0.536c0.048-0.214,0.14-0.415,0.217-0.62c2.413-6.421,4.826-12.841,7.239-19.262
					c0.39-1.036,0.257-1.336-0.758-1.718c-5.432-2.042-10.864-4.081-16.293-6.129c-0.588-0.223-1.151-0.313-1.708,0.06
					c-1.112,0.629-2.276,1.096-3.582,1.105c-0.261-0.063-0.513,0.008-0.768,0.051c-2.784-0.321-5.107-1.436-6.662-3.872
					c-0.355-0.556-0.664-1.131-0.832-1.775c-0.137-0.525-0.505-0.846-0.996-1.03c-5.613-2.113-11.227-4.226-16.844-6.329
					c-0.676-0.253-1.037-0.052-1.318,0.694c-1.167,3.095-2.329,6.191-3.493,9.288c-1.297,3.45-2.593,6.901-3.892,10.352
					c-0.316,0.839-0.431,0.896-1.28,0.566C1.747,85.497,1.338,85.461,1.125,85.089z"/>
				<path fill-rule="evenodd" clip-rule="evenodd" fill="#F3F4F4" d="M81.618,34.177c-2.877,7.653-5.754,15.307-8.63,22.96
					c-0.639,0.094-1.148-0.247-1.675-0.512c-0.201-0.101-0.198-0.331-0.152-0.535c0.049-0.215,0.14-0.416,0.217-0.621
					c2.413-6.421,4.827-12.841,7.24-19.262c0.39-1.036,0.257-1.336-0.759-1.718c-5.431-2.042-10.863-4.081-16.292-6.129
					c-0.589-0.222-1.151-0.313-1.708,0.06c-1.112,0.629-2.276,1.096-3.582,1.105c-0.261-0.063-0.513,0.008-0.768,0.051
					c-2.784-0.321-5.106-1.436-6.662-3.872c-0.355-0.556-0.664-1.131-0.832-1.776c-0.138-0.525-0.505-0.846-0.995-1.03
					c-5.614-2.113-11.227-4.226-16.844-6.329c-0.677-0.253-1.038-0.052-1.319,0.694c-1.167,3.095-2.329,6.192-3.493,9.288
					c-1.297,3.451-2.593,6.901-3.892,10.352c-0.316,0.839-0.431,0.896-1.28,0.566c-0.343-0.134-0.751-0.17-0.965-0.542
					c2.876-7.653,5.753-15.307,8.63-22.96c0.314-0.139,0.584,0.03,0.859,0.133c3.509,1.316,7.016,2.635,10.524,3.954
					c13.844,5.204,27.688,10.407,41.53,15.615C81.08,33.787,81.445,33.826,81.618,34.177z"/>
				<path fill-rule="evenodd" clip-rule="evenodd" fill="#F3F4F4" d="M54.758,105.633c-0.568,1.513-1.144,3.021-1.698,4.539
					c-0.088,0.241-0.156,0.279-0.396,0.18c-0.606-0.254-1.229-0.471-1.845-0.702c-0.128-0.326,0.031-0.612,0.128-0.908
					c0.151-0.464,0.393-0.899,0.447-1.393c-0.007-0.294-0.254-0.331-0.45-0.405c-5.647-2.127-11.298-4.248-16.946-6.377
					c-0.583-0.22-1.053,0.01-1.517,0.29c-0.907,0.548-1.876,0.843-2.942,0.794c-2.314-0.87-4.629-1.74-6.944-2.61
					c-0.859-0.649-1.334-1.562-1.681-2.543c-0.225-0.638-0.563-1.075-1.241-1.326C14.18,93.132,8.7,91.057,3.212,89.005
					c-0.256-0.096-0.526-0.351-0.823-0.068c-0.287,0.429-0.396,0.932-0.594,1.397c-0.114,0.267-0.19,0.56-0.479,0.707
					c-0.616-0.231-1.227-0.478-1.851-0.688c-0.245-0.082-0.272-0.155-0.18-0.396c0.583-1.506,1.144-3.021,1.712-4.533
					c0.36-0.132,0.663,0.068,0.973,0.185c6.027,2.26,12.052,4.526,18.078,6.791c11.267,4.235,22.535,8.47,33.801,12.71
					C54.176,105.233,54.559,105.279,54.758,105.633z"/>
				<path fill-rule="evenodd" clip-rule="evenodd" fill="#8D5DA4" d="M51.696,107.305c-0.292,0.781-0.584,1.563-0.876,2.344
					c-6.944-2.61-13.888-5.221-20.832-7.831c0.055-0.192,0.235-0.21,0.381-0.236c0.874-0.161,1.683-0.499,2.432-0.959
					c0.463-0.284,0.869-0.242,1.35-0.061c4.396,1.667,8.798,3.316,13.199,4.97c1.249,0.47,2.499,0.938,3.747,1.411
					C51.317,107.026,51.561,107.077,51.696,107.305z"/>
				<path fill-rule="evenodd" clip-rule="evenodd" fill="#8D5DA4" d="M1.316,91.041c0.295-0.78,0.59-1.56,0.885-2.34
					c0.252-0.084,0.469,0.039,0.69,0.121c5.688,2.137,11.373,4.277,17.063,6.405c0.427,0.16,0.691,0.395,0.84,0.837
					c0.287,0.85,0.673,1.657,1.223,2.378c0.09,0.118,0.215,0.248,0.13,0.43C15.204,96.261,8.26,93.651,1.316,91.041z"/>
				<path fill-rule="evenodd" clip-rule="evenodd" fill="#CC2127" d="M81.618,34.177c-0.208-0.066-0.42-0.122-0.623-0.199
					C63.482,27.397,45.969,20.815,28.458,14.23c-0.204-0.077-0.4-0.174-0.6-0.261c0.042-0.112,0.084-0.224,0.126-0.336
					c17.919,6.736,35.839,13.472,53.76,20.208C81.702,33.953,81.66,34.065,81.618,34.177z"/>
				<path fill-rule="evenodd" clip-rule="evenodd" fill="#DDDEDE" d="M47.265,53.475c1.175-0.036,2.224-0.51,3.286-0.938
					c0.472-0.271,0.472-0.271,0.586,0.005c-0.093,0.192-0.271,0.285-0.446,0.381c-4.184,2.274-9.669,0.501-11.596-3.856
					c-0.508-1.149-1.199-1.752-2.346-2.17c-5.092-1.852-10.153-3.79-15.225-5.696c-0.187-0.07-0.376-0.132-0.56-0.208
					c-0.366-0.152-0.611-0.063-0.742,0.324c-0.07,0.207-0.156,0.409-0.233,0.615c-2.391,6.358-4.779,12.718-7.174,19.075
					c-0.13,0.347-0.194,0.744-0.57,0.948c-0.748-0.163-1.482-0.364-2.11-0.832c0.014-0.037,0.028-0.074,0.042-0.112
					c0.467,0.175,0.937,0.34,1.398,0.527c0.283,0.115,0.455,0.057,0.543-0.243c0.045-0.152,0.111-0.299,0.167-0.447
					c2.426-6.455,4.853-12.909,7.279-19.363c0.457-1.215,0.733-1.337,1.97-0.873c5.41,2.034,10.817,4.074,16.232,6.093
					c0.77,0.287,1.173,0.765,1.465,1.554c0.737,1.994,2.083,3.512,4.073,4.358c1.055,0.449,2.125,0.904,3.315,0.872
					C46.833,53.463,47.05,53.512,47.265,53.475z"/>
				<path fill-rule="evenodd" clip-rule="evenodd" fill="#DDDEDE" d="M56.317,29.395c1.175-0.036,2.224-0.51,3.286-0.938
					c0.472-0.271,0.472-0.271,0.586,0.005c-0.093,0.193-0.271,0.285-0.446,0.381c-4.184,2.274-9.669,0.501-11.596-3.856
					c-0.508-1.149-1.199-1.752-2.347-2.17c-5.092-1.852-10.153-3.79-15.225-5.696c-0.187-0.07-0.376-0.132-0.56-0.208
					c-0.366-0.152-0.611-0.063-0.742,0.324c-0.07,0.208-0.156,0.41-0.233,0.615c-2.39,6.359-4.779,12.718-7.174,19.075
					c-0.13,0.346-0.194,0.744-0.57,0.947c-0.748-0.163-1.481-0.364-2.11-0.832c0.014-0.037,0.028-0.075,0.042-0.112
					c0.466,0.174,0.937,0.34,1.398,0.527c0.283,0.115,0.455,0.056,0.543-0.243c0.045-0.153,0.111-0.299,0.167-0.448
					c2.426-6.454,4.852-12.909,7.278-19.363c0.457-1.215,0.734-1.337,1.97-0.873c5.41,2.033,10.817,4.073,16.231,6.092
					c0.77,0.287,1.173,0.765,1.465,1.554c0.738,1.994,2.084,3.512,4.073,4.358c1.056,0.449,2.126,0.904,3.315,0.873
					C55.885,29.383,56.102,29.432,56.317,29.395z"/>
				<path fill-rule="evenodd" clip-rule="evenodd" fill="#DDDEDE" d="M38.214,77.555c1.174-0.036,2.224-0.511,3.286-0.939
					c0.472-0.271,0.472-0.271,0.585,0.005c-0.093,0.193-0.27,0.286-0.446,0.381c-4.184,2.274-9.669,0.502-11.596-3.856
					c-0.508-1.148-1.199-1.752-2.347-2.17c-5.092-1.852-10.153-3.789-15.225-5.695c-0.187-0.07-0.376-0.133-0.56-0.209
					c-0.366-0.152-0.611-0.063-0.742,0.324c-0.07,0.207-0.156,0.409-0.233,0.614c-2.39,6.359-4.779,12.719-7.174,19.075
					c-0.13,0.347-0.194,0.744-0.57,0.948c-0.748-0.163-1.481-0.364-2.109-0.832c0.014-0.037,0.028-0.074,0.042-0.112
					c0.466,0.175,0.937,0.34,1.398,0.527c0.283,0.115,0.455,0.057,0.543-0.243c0.045-0.152,0.111-0.299,0.167-0.448
					c2.426-6.454,4.852-12.908,7.278-19.362c0.457-1.215,0.734-1.338,1.97-0.873c5.41,2.033,10.817,4.073,16.232,6.093
					c0.77,0.287,1.173,0.765,1.465,1.554c0.737,1.994,2.083,3.513,4.073,4.358c1.056,0.449,2.126,0.904,3.315,0.873
					C37.782,77.543,37.999,77.592,38.214,77.555z"/>
				<path fill-rule="evenodd" clip-rule="evenodd" fill="#DDDEDE" d="M51.164,52.4c-0.204,0.046-0.408,0.091-0.612,0.137
					c0.485-0.559,1.097-0.601,1.731-0.363c5.651,2.116,11.302,4.239,16.947,6.372c0.763,0.287,0.913,0.704,0.605,1.527
					c-1.131,3.022-2.27,6.042-3.404,9.063c-1.353,3.599-2.695,7.2-4.069,10.791c-0.191,0.499-0.111,0.721,0.397,0.856
					c0.402,0.107,0.785,0.287,1.177,0.435c-0.015,0.038-0.028,0.075-0.042,0.112c-0.785-0.088-1.498-0.366-2.154-0.801
					c-0.118-0.423,0.099-0.781,0.236-1.147c2.374-6.33,4.755-12.656,7.131-18.984c0.459-1.222,0.498-1.107-0.688-1.554
					c-5.263-1.981-10.527-3.956-15.789-5.941C52.146,52.719,51.642,52.598,51.164,52.4z"/>
				<path fill-rule="evenodd" clip-rule="evenodd" fill="#DDDEDE" d="M60.212,28.318c-0.203,0.046-0.406,0.092-0.609,0.139
					c0.484-0.56,1.097-0.6,1.73-0.363c5.652,2.116,11.303,4.238,16.948,6.371c0.763,0.288,0.913,0.704,0.604,1.528
					c-1.131,3.022-2.269,6.042-3.404,9.062c-1.353,3.599-2.695,7.201-4.069,10.791c-0.19,0.499-0.11,0.721,0.398,0.856
					c0.402,0.107,0.785,0.287,1.177,0.436c-0.015,0.037-0.028,0.074-0.043,0.111c-0.784-0.088-1.497-0.366-2.153-0.801
					c-0.118-0.423,0.099-0.781,0.236-1.148c2.374-6.33,4.755-12.657,7.131-18.985c0.458-1.22,0.497-1.106-0.689-1.553
					c-5.263-1.981-10.528-3.956-15.79-5.941C61.195,28.637,60.69,28.519,60.212,28.318z"/>
				<path fill-rule="evenodd" clip-rule="evenodd" fill="#DDDEDE" d="M42.107,76.474c-0.203,0.047-0.405,0.095-0.607,0.142
					c0.485-0.559,1.097-0.6,1.731-0.362c5.652,2.115,11.302,4.238,16.948,6.37c0.763,0.288,0.913,0.704,0.604,1.528
					c-1.131,3.022-2.269,6.042-3.404,9.063c-1.353,3.599-2.695,7.2-4.069,10.791c-0.19,0.498-0.111,0.721,0.398,0.856
					c0.401,0.107,0.784,0.287,1.176,0.435c-0.014,0.038-0.028,0.075-0.042,0.112c-0.784-0.088-1.498-0.366-2.154-0.801
					c-0.117-0.422,0.099-0.78,0.236-1.146c2.378-6.34,4.763-12.678,7.143-19.017c0.444-1.182,0.476-1.08-0.672-1.513
					c-5.293-1.993-10.589-3.979-15.881-5.976C43.049,76.781,42.561,76.679,42.107,76.474z"/>
				<path fill-rule="evenodd" clip-rule="evenodd" fill="#040707" d="M84.86,25.553C66.94,18.817,49.02,12.081,31.1,5.345
					c0.188-0.194,0.342,0.009,0.487,0.063c3.532,1.317,7.059,2.645,10.587,3.971C56.249,14.67,70.323,19.96,84.395,25.259
					C84.559,25.32,84.824,25.272,84.86,25.553z"/>
				<path fill-rule="evenodd" clip-rule="evenodd" fill="#FAFBFB" d="M54.758,105.633c-17.92-6.735-35.84-13.472-53.76-20.208
					c0.014-0.037,0.028-0.074,0.042-0.111c0.768,0.122,1.431,0.564,2.188,0.72c0.269-0.009,0.504,0.107,0.746,0.198
					c16.003,6.014,32.005,12.029,48.006,18.045c0.241,0.091,0.496,0.158,0.694,0.339c0.672,0.388,1.466,0.491,2.127,0.906
					C54.787,105.558,54.772,105.595,54.758,105.633z"/>
				<path fill-rule="evenodd" clip-rule="evenodd" fill="#FAFBFB" d="M63.81,81.552c-17.921-6.735-35.84-13.472-53.76-20.208
					c0.014-0.037,0.028-0.074,0.042-0.111c0.768,0.122,1.43,0.564,2.187,0.72c0.29-0.007,0.542,0.122,0.802,0.22
					c15.965,5.999,31.931,12,47.895,18.003c0.26,0.098,0.534,0.167,0.749,0.359c0.673,0.388,1.467,0.491,2.128,0.906
					C63.837,81.478,63.824,81.515,63.81,81.552z"/>
				<path fill-rule="evenodd" clip-rule="evenodd" fill="#FAFBFB" d="M72.861,57.473c-17.92-6.736-35.84-13.473-53.76-20.208
					c0.014-0.037,0.028-0.075,0.042-0.112c0.768,0.122,1.431,0.564,2.188,0.72c0.289-0.007,0.542,0.122,0.802,0.22
					c15.965,6,31.93,12,47.895,18.003c0.259,0.098,0.534,0.167,0.749,0.359c0.673,0.388,1.467,0.491,2.127,0.906
					C72.889,57.398,72.875,57.435,72.861,57.473z"/>
				<path fill-rule="evenodd" clip-rule="evenodd" fill="#D0CED2" d="M22.148,98.872c-0.658-0.953-1.243-1.943-1.557-3.069
					c-0.073-0.262-0.289-0.308-0.489-0.383c-5.967-2.24-11.934-4.479-17.901-6.719c0.189-0.209,0.396-0.117,0.604-0.039
					c5.785,2.175,11.569,4.351,17.356,6.521c0.374,0.141,0.589,0.41,0.7,0.763c0.364,1.153,1.015,2.143,1.734,3.095
					C22.446,98.984,22.297,98.927,22.148,98.872z"/>
				<path fill-rule="evenodd" clip-rule="evenodd" fill="#D0CED2" d="M51.696,107.305c-5.965-2.246-11.93-4.49-17.893-6.742
					c-0.283-0.106-0.5-0.103-0.774,0.067c-0.937,0.581-1.975,0.926-3.042,1.188c-0.149-0.056-0.299-0.112-0.448-0.168
					c1.168-0.245,2.322-0.524,3.344-1.187c0.379-0.245,0.773-0.213,1.198-0.053c5.688,2.149,11.381,4.285,17.072,6.427
					C51.386,106.926,51.681,106.957,51.696,107.305z"/>
				<path fill-rule="evenodd" clip-rule="evenodd" fill="#9F9F9F" d="M21.283,37.942c-0.713-0.263-1.427-0.526-2.14-0.789
					c0.014-0.038,0.028-0.075,0.042-0.112c0.706,0.25,1.412,0.499,2.118,0.748c0.016,0.017,0.032,0.033,0.048,0.05
					C21.353,37.888,21.329,37.922,21.283,37.942z"/>
				<path fill-rule="evenodd" clip-rule="evenodd" fill="#9F9F9F" d="M12.232,62.022c-0.713-0.264-1.427-0.526-2.14-0.789
					c0.014-0.037,0.028-0.075,0.042-0.112c0.706,0.252,1.412,0.505,2.118,0.757c0.011,0.026,0.022,0.052,0.034,0.078
					C12.268,61.978,12.25,62,12.232,62.022z"/>
				<path fill-rule="evenodd" clip-rule="evenodd" fill="#9F9F9F" d="M63.852,81.441c-0.71-0.272-1.42-0.544-2.13-0.816
					c0.001-0.028,0.002-0.057,0.003-0.085c0.025-0.013,0.051-0.025,0.076-0.037c0.698,0.275,1.396,0.551,2.093,0.826
					C63.879,81.366,63.866,81.404,63.852,81.441z"/>
				<path fill-rule="evenodd" clip-rule="evenodd" fill="#9F9F9F" d="M3.182,86.102c-0.714-0.263-1.428-0.526-2.142-0.789
					c0.014-0.037,0.028-0.075,0.042-0.112c0.697,0.256,1.395,0.512,2.092,0.768c0.019,0.021,0.038,0.043,0.057,0.064
					C3.215,86.056,3.198,86.079,3.182,86.102z"/>
				<path fill-rule="evenodd" clip-rule="evenodd" fill="#9F9F9F" d="M54.8,105.521c-0.711-0.272-1.421-0.545-2.132-0.816
					c0.003-0.028,0.006-0.058,0.009-0.086c0.028-0.004,0.057-0.008,0.085-0.012c0.693,0.268,1.387,0.534,2.08,0.802
					C54.829,105.446,54.814,105.484,54.8,105.521z"/>
				<path fill-rule="evenodd" clip-rule="evenodd" fill="#9F9F9F" d="M72.903,57.361c-0.71-0.272-1.419-0.544-2.129-0.816
					c0.001-0.03,0.003-0.06,0.005-0.09c0.027-0.013,0.054-0.026,0.081-0.039c0.695,0.277,1.391,0.556,2.085,0.833
					C72.931,57.286,72.917,57.324,72.903,57.361z"/>
				<path fill-rule="evenodd" clip-rule="evenodd" fill="#FEFDFD" d="M34.511,13.057c-0.104,0.003-0.297-0.051-0.411,0.021
					c-0.794,0.5-1.087-0.335-1.591-0.587c-0.209-0.104-0.064-0.275,0.031-0.397c0.775-1.008,1.544-2.021,2.333-3.017
					c0.314-0.397,0.576-0.176,0.921,0.113c0.362,0.304,0.678,0.748,1.186,0.869c0.109,0.026,0.276-0.038,0.292,0.113
					c0.044,0.414,0.211,0.61,0.653,0.485c0.127-0.036,0.159,0.101,0.163,0.197c0.013,0.352,0.162,0.419,0.525,0.432
					c0.463,0.016,0.397,0.489,0.241,0.707c-0.788,1.097-1.625,2.158-2.447,3.23c-0.118,0.154-0.243,0.086-0.361-0.004
					c-0.299-0.231-0.589-0.474-0.896-0.692c-0.212-0.151-0.081-0.312-0.057-0.479C35.158,13.599,34.978,13.278,34.511,13.057z"/>
				<path fill-rule="evenodd" clip-rule="evenodd" fill="#FDFAFA" d="M49.644,18.505c-0.031,0.123-0.089,0.229-0.235,0.22
					c-0.151-0.009-0.212-0.131-0.188-0.25c0.06-0.301-0.023-0.466-0.334-0.575c-0.286-0.1-0.393,0.033-0.52,0.228
					c-0.066,0.102-0.182,0.174-0.306,0.096c-0.119-0.075-0.129-0.207-0.054-0.313c0.5-0.712,1.006-1.42,1.515-2.126
					c0.06-0.083,0.154-0.13,0.26-0.076c0.102,0.053,0.118,0.155,0.108,0.256C49.809,16.812,49.726,17.658,49.644,18.505z"/>
				<path fill-rule="evenodd" clip-rule="evenodd" fill="#FDFBFB" d="M61.191,21.518c-0.091,0.242-0.161,0.494-0.277,0.723
					c-0.188,0.368-0.506,0.506-0.896,0.357c-0.39-0.149-0.549-0.468-0.427-0.862c0.152-0.493,0.334-0.98,0.546-1.45
					c0.169-0.376,0.503-0.507,0.893-0.359s0.535,0.463,0.431,0.864C61.394,21.039,61.282,21.276,61.191,21.518z"/>
				<path fill-rule="evenodd" clip-rule="evenodd" fill="#FEFBFB" d="M43.814,15.383c-0.093,0.247-0.184,0.493-0.278,0.738
					c-0.047,0.118-0.124,0.221-0.265,0.165c-0.107-0.042-0.115-0.154-0.078-0.254c0.263-0.707,0.526-1.414,0.796-2.118
					c0.092-0.24,0.269-0.165,0.446-0.109c0.365,0.115,0.67,0.292,0.667,0.725c-0.001,0.282-0.071,0.628-0.297,0.749
					c-0.441,0.236-0.375,0.605-0.394,0.969c-0.008,0.158,0.03,0.357-0.194,0.361c-0.233,0.003-0.185-0.214-0.196-0.359
					C43.999,15.972,44.067,15.681,43.814,15.383z"/>
				<path fill-rule="evenodd" clip-rule="evenodd" fill="#FEFBFB" d="M61.899,22.025c-0.139,0.369-0.222,0.6-0.313,0.827
					c-0.051,0.129-0.108,0.287-0.289,0.206c-0.139-0.062-0.094-0.2-0.052-0.313c0.25-0.669,0.505-1.337,0.753-2.007
					c0.081-0.219,0.216-0.243,0.421-0.174c0.377,0.127,0.719,0.284,0.716,0.752c-0.001,0.262-0.068,0.573-0.265,0.705
					c-0.391,0.263-0.448,0.607-0.429,1.013c0.008,0.162,0.023,0.358-0.2,0.353c-0.229-0.005-0.175-0.222-0.189-0.368
					C62.025,22.745,62.114,22.451,61.899,22.025z"/>
				<path fill-rule="evenodd" clip-rule="evenodd" fill="#FEFCFD" d="M48.09,16.595c-0.091,0.242-0.164,0.493-0.278,0.722
					c-0.097,0.194-0.079,0.607-0.362,0.513c-0.316-0.105-0.004-0.398,0.024-0.608c0.013-0.096,0.059-0.19,0.102-0.279
					c0.09-0.185,0.035-0.284-0.158-0.355c-0.193-0.071-0.344-0.104-0.404,0.151c-0.014,0.058-0.031,0.119-0.064,0.167
					c-0.141,0.204-0.088,0.69-0.424,0.567c-0.277-0.102,0.018-0.452,0.091-0.675c0.173-0.528,0.379-1.045,0.582-1.563
					c0.061-0.153,0.086-0.438,0.306-0.359c0.276,0.1,0.06,0.336,0.016,0.507c-0.045,0.172-0.11,0.341-0.187,0.502
					c-0.116,0.243,0.032,0.301,0.216,0.376c0.199,0.082,0.288,0.016,0.35-0.171c0.074-0.226,0.163-0.448,0.252-0.669
					c0.051-0.127,0.108-0.289,0.288-0.203c0.133,0.063,0.089,0.204,0.048,0.317c-0.131,0.354-0.265,0.707-0.397,1.06
					C48.088,16.594,48.089,16.595,48.09,16.595z"/>
				<path fill-rule="evenodd" clip-rule="evenodd" fill="#FEFCFD" d="M55.462,19.418c-0.133,0.353-0.264,0.707-0.399,1.059
					c-0.037,0.095-0.103,0.187-0.218,0.156c-0.151-0.041-0.148-0.167-0.108-0.286c0.07-0.207,0.138-0.416,0.229-0.614
					c0.106-0.232-0.002-0.311-0.202-0.384c-0.188-0.069-0.294-0.043-0.356,0.157c-0.059,0.189-0.135,0.374-0.21,0.558
					c-0.051,0.126-0.105,0.3-0.281,0.222c-0.165-0.073-0.094-0.237-0.045-0.366c0.257-0.688,0.517-1.376,0.776-2.063
					c0.042-0.112,0.097-0.249,0.24-0.212c0.195,0.049,0.135,0.209,0.09,0.339c-0.077,0.225-0.151,0.453-0.251,0.669
					c-0.105,0.232,0.002,0.311,0.202,0.384c0.188,0.069,0.293,0.042,0.356-0.157c0.066-0.208,0.147-0.412,0.23-0.613
					c0.058-0.138,0.097-0.364,0.303-0.272c0.191,0.085,0.073,0.278,0.021,0.421c-0.12,0.336-0.25,0.67-0.375,1.004
					C55.464,19.418,55.463,19.418,55.462,19.418z"/>
				<path fill-rule="evenodd" clip-rule="evenodd" fill="#FEFBFC" d="M43.218,14.594c-0.091,0.242-0.182,0.484-0.273,0.726
					c-0.162,0.426-0.45,0.691-0.914,0.512c-0.433-0.168-0.474-0.545-0.327-0.948c0.191-0.523,0.387-1.043,0.587-1.563
					c0.054-0.14,0.093-0.374,0.291-0.301c0.247,0.092,0.082,0.306,0.029,0.458c-0.137,0.395-0.307,0.778-0.432,1.175
					c-0.079,0.253-0.385,0.602,0.043,0.758c0.381,0.139,0.395-0.292,0.496-0.525c0.149-0.347,0.257-0.711,0.408-1.057
					c0.079-0.182,0.087-0.559,0.343-0.46c0.317,0.122,0.019,0.405-0.027,0.61C43.395,14.189,43.295,14.389,43.218,14.594z"/>
				<path fill-rule="evenodd" clip-rule="evenodd" fill="#FEFBFB" d="M51.989,18.122c0.07-0.186,0.14-0.373,0.21-0.559
					c0.292-0.777,0.356-0.801,1.095-0.426c0.12,0.062,0.3,0.101,0.215,0.284c-0.078,0.171-0.246,0.104-0.364,0.04
					c-0.338-0.182-0.52-0.114-0.638,0.273c-0.083,0.271-0.055,0.399,0.224,0.475c0.14,0.038,0.358,0.079,0.27,0.3
					c-0.067,0.169-0.243,0.103-0.364,0.04c-0.276-0.145-0.401-0.069-0.521,0.224c-0.135,0.331,0.014,0.417,0.271,0.505
					c0.16,0.055,0.392,0.117,0.292,0.356c-0.104,0.25-0.305,0.087-0.46,0.037c-0.724-0.232-0.724-0.235-0.461-0.936
					C51.834,18.532,51.912,18.327,51.989,18.122z"/>
				<path fill-rule="evenodd" clip-rule="evenodd" fill="#FDF6F6" d="M51.474,16.339c0.201,0.088,0.326,0.237,0.388,0.437
					c0.035,0.116,0.058,0.239-0.082,0.311c-0.13,0.067-0.226,0.033-0.29-0.101c-0.097-0.202-0.237-0.352-0.462-0.19
					c-0.223,0.161-0.055,0.362,0.006,0.539c0.098,0.282,0.251,0.55,0.306,0.838c0.076,0.396-0.086,0.711-0.501,0.826
					c-0.36,0.1-0.624-0.05-0.774-0.386c-0.056-0.124-0.116-0.273,0.038-0.375c0.167-0.111,0.249,0.004,0.316,0.142
					c0.094,0.189,0.231,0.276,0.431,0.148c0.202-0.131,0.126-0.314,0.063-0.48c-0.106-0.279-0.243-0.547-0.336-0.831
					c-0.094-0.291-0.009-0.55,0.232-0.749C51.008,16.303,51.234,16.269,51.474,16.339z"/>
				<path fill-rule="evenodd" clip-rule="evenodd" fill="#FDF6F6" d="M57.384,20.781c-0.05-0.162-0.088-0.314-0.142-0.46
					c-0.096-0.261-0.237-0.512-0.293-0.78c-0.087-0.415,0.124-0.701,0.521-0.811c0.361-0.101,0.621,0.065,0.76,0.407
					c0.052,0.128,0.096,0.274-0.083,0.357c-0.143,0.066-0.225-0.002-0.282-0.125c-0.087-0.181-0.212-0.311-0.42-0.197
					c-0.257,0.14-0.106,0.345-0.044,0.522c0.105,0.3,0.271,0.587,0.323,0.895c0.07,0.425-0.121,0.743-0.579,0.823
					c-0.378,0.065-0.604-0.134-0.725-0.473c-0.04-0.113-0.059-0.239,0.08-0.312c0.137-0.072,0.219-0.013,0.281,0.114
					C56.949,21.08,57.143,21.043,57.384,20.781z"/>
				<path fill-rule="evenodd" clip-rule="evenodd" fill="#FEFCFC" d="M40.35,13.719c0.07-0.187,0.11-0.393,0.217-0.555
					c0.148-0.225,0.018-0.735,0.542-0.601c0.43,0.109,0.817,0.313,0.733,0.848c-0.066,0.422-0.246,0.941-0.741,0.848
					c-0.568-0.108-0.671,0.153-0.782,0.554c-0.035,0.127-0.082,0.313-0.263,0.256c-0.229-0.072-0.111-0.258-0.063-0.398
					C40.107,14.352,40.231,14.037,40.35,13.719z"/>
				<path fill-rule="evenodd" clip-rule="evenodd" fill="#FDF9F9" d="M45.191,15.496c0.098-0.26,0.174-0.53,0.299-0.776
					c0.139-0.272,0.394-0.388,0.697-0.346c0.259,0.036,0.419,0.21,0.513,0.444c0.044,0.11,0.089,0.237-0.033,0.324
					c-0.146,0.105-0.238,0.033-0.333-0.104c-0.313-0.456-0.5-0.218-0.646,0.137c-0.099,0.238-0.188,0.48-0.272,0.723
					c-0.141,0.398-0.41,0.875,0.416,0.729c0.105-0.019,0.198,0.06,0.222,0.16c0.023,0.104-0.049,0.184-0.138,0.24
					c-0.241,0.154-0.487,0.152-0.73,0.014c-0.279-0.158-0.371-0.42-0.299-0.71C44.957,16.046,45.086,15.774,45.191,15.496z"/>
				<path fill-rule="evenodd" clip-rule="evenodd" fill="#FDF7F8" d="M32.45,9.345c-1.073,0.573-1.405,1.388-0.938,2.494
					c-0.538-0.153-0.951-1.213-0.77-1.702C30.919,9.661,31.939,9.119,32.45,9.345z"/>
				<path fill-rule="evenodd" clip-rule="evenodd" fill="#FDF9F9" d="M64.013,22.009c0.234-0.219,0.401-0.386,0.581-0.538
					c0.086-0.072,0.198-0.159,0.308-0.03c0.091,0.106,0.082,0.221-0.027,0.312c-0.618,0.516-1.115,1.111-1.3,1.923
					c-0.027,0.119-0.124,0.214-0.265,0.143c-0.106-0.054-0.111-0.171-0.064-0.259c0.392-0.732,0.421-1.506,0.29-2.303
					c-0.023-0.138,0.04-0.234,0.177-0.259c0.166-0.03,0.201,0.104,0.218,0.217C63.965,21.447,63.981,21.683,64.013,22.009z"/>
				<path fill-rule="evenodd" clip-rule="evenodd" fill="#FEFCFC" d="M58.651,20.804c0.09-0.242,0.18-0.483,0.272-0.724
					c0.077-0.201,0.207-0.407-0.136-0.501c-0.122-0.033-0.211-0.14-0.132-0.267c0.076-0.121,0.208-0.079,0.322-0.036
					c0.261,0.097,0.52,0.197,0.78,0.292c0.117,0.043,0.24,0.104,0.209,0.243c-0.032,0.141-0.169,0.162-0.285,0.105
					c-0.271-0.133-0.334,0.038-0.407,0.241c-0.195,0.541-0.402,1.077-0.606,1.614c-0.043,0.112-0.1,0.244-0.244,0.206
					c-0.195-0.053-0.132-0.209-0.085-0.339C58.44,21.36,58.547,21.082,58.651,20.804z"/>
				<path fill-rule="evenodd" clip-rule="evenodd" fill="#FEFBFB" d="M56.375,19.711c-0.131,0.352-0.262,0.703-0.396,1.054
					c-0.042,0.111-0.097,0.237-0.243,0.205c-0.153-0.035-0.148-0.167-0.104-0.283c0.275-0.741,0.554-1.48,0.835-2.218
					c0.036-0.095,0.108-0.183,0.22-0.153c0.151,0.041,0.146,0.169,0.104,0.286C56.656,18.972,56.514,19.341,56.375,19.711z"/>
				<path fill-rule="evenodd" clip-rule="evenodd" fill="#DDDEDE" d="M47.265,53.475c-0.213,0.123-0.43,0.104-0.647,0.012
					C46.832,53.37,47.048,53.386,47.265,53.475z"/>
				<path fill-rule="evenodd" clip-rule="evenodd" fill="#DDDEDE" d="M38.214,77.555c-0.213,0.123-0.43,0.103-0.647,0.012
					C37.78,77.451,37.997,77.466,38.214,77.555z"/>
				<path fill-rule="evenodd" clip-rule="evenodd" fill="#DDDEDE" d="M56.317,29.395c-0.214,0.123-0.43,0.104-0.647,0.012
					C55.883,29.291,56.099,29.306,56.317,29.395z"/>
				<path fill-rule="evenodd" clip-rule="evenodd" fill="#F68F1E" d="M51.164,52.4c0.222-0.128,0.433-0.119,0.678-0.026
					c5.839,2.203,11.678,4.404,17.526,6.582c0.523,0.195,0.341,0.458,0.223,0.771c-2.519,6.699-5.037,13.399-7.555,20.1
					c-0.084,0.224-0.156,0.451-0.234,0.677l-0.056,0.01c-0.214,0.051-0.386-0.076-0.567-0.145
					C45.054,74.31,28.932,68.25,12.81,62.186c-0.182-0.068-0.395-0.085-0.522-0.265l-0.036-0.043
					c0.616-1.621,1.237-3.239,1.848-4.861c1.994-5.297,3.991-10.593,5.963-15.897c0.186-0.5,0.363-0.564,0.85-0.38
					c5.739,2.177,11.485,4.333,17.234,6.483c0.348,0.13,0.53,0.31,0.646,0.679c1.608,5.095,7.612,7.377,12.189,4.649
					C51.049,52.512,51.104,52.451,51.164,52.4z"/>
				<path fill-rule="evenodd" clip-rule="evenodd" fill="#23BFF0" d="M60.212,28.318c0.223-0.126,0.435-0.116,0.68-0.024
					c5.837,2.202,11.675,4.402,17.521,6.58c0.517,0.192,0.35,0.453,0.229,0.771c-2.519,6.697-5.036,13.396-7.553,20.094
					c-0.084,0.224-0.154,0.452-0.23,0.678l-0.056,0.021c-0.214,0.049-0.386-0.077-0.567-0.146
					c-16.129-6.06-32.256-12.122-48.382-18.187c-0.182-0.068-0.395-0.086-0.523-0.264c0,0-0.029-0.05-0.029-0.051
					c0.092-0.221,0.189-0.439,0.273-0.662c2.511-6.677,5.028-13.351,7.517-20.035c0.207-0.556,0.409-0.607,0.934-0.408
					c5.699,2.165,11.408,4.306,17.119,6.439c0.393,0.146,0.586,0.354,0.718,0.761c1.634,5.051,7.615,7.297,12.169,4.588
					C60.1,28.432,60.153,28.369,60.212,28.318z"/>
				<path fill-rule="evenodd" clip-rule="evenodd" fill="#8D5DA4" d="M42.107,76.474c0.246-0.13,0.48-0.1,0.74-0.002
					c5.795,2.186,11.59,4.371,17.395,6.53c0.547,0.203,0.434,0.463,0.288,0.849c-2.521,6.69-5.036,13.383-7.55,20.076
					c-0.084,0.223-0.146,0.453-0.218,0.68c-0.021-0.001-0.042-0.002-0.063-0.004c-0.232,0.031-0.423-0.1-0.624-0.175
					C35.986,98.384,19.898,92.337,3.811,86.286c-0.202-0.075-0.431-0.103-0.585-0.279c-0.018-0.013-0.035-0.025-0.052-0.038
					c0.096-0.219,0.201-0.433,0.285-0.655c2.505-6.659,5.008-13.319,7.512-19.979c0.275-0.732,0.277-0.733,0.987-0.467
					c5.69,2.139,11.378,4.28,17.072,6.409c0.389,0.146,0.596,0.345,0.727,0.759c1.591,5.021,7.581,7.3,12.123,4.629
					C41.963,76.614,42.031,76.538,42.107,76.474z"/>
				<path fill-rule="evenodd" clip-rule="evenodd" fill="#5E3F6E" d="M3.226,86.007c12.686,4.767,25.372,9.532,38.058,14.3
					c3.805,1.43,7.61,2.864,11.415,4.297c-0.001,0.036-0.011,0.07-0.03,0.102c-0.15-0.052-0.303-0.1-0.452-0.155
					C36.019,98.462,19.821,92.373,3.624,86.284c-0.149-0.057-0.295-0.121-0.442-0.182C3.188,86.067,3.203,86.035,3.226,86.007z"/>
				<path fill-rule="evenodd" clip-rule="evenodd" fill="#A96227" d="M12.288,61.922c16.486,6.196,32.973,12.394,49.458,18.591
					c0.002,0.039-0.006,0.077-0.023,0.112c-0.151-0.052-0.304-0.099-0.453-0.155c-16.198-6.088-32.396-12.177-48.595-18.267
					c-0.149-0.056-0.295-0.12-0.442-0.181C12.242,61.983,12.26,61.95,12.288,61.922z"/>
				<path fill-rule="evenodd" clip-rule="evenodd" fill="#0B80A4" d="M21.332,37.84c16.491,6.199,32.981,12.397,49.473,18.597
					c-0.002,0.038-0.012,0.074-0.03,0.108c-0.151-0.052-0.304-0.099-0.452-0.154c-16.199-6.089-32.398-12.178-48.597-18.268
					c-0.149-0.056-0.295-0.121-0.442-0.181C21.292,37.904,21.308,37.87,21.332,37.84z"/>
				<path fill-rule="evenodd" clip-rule="evenodd" fill="#DA2A31" d="M34.007,11.302c0.413-1.107,0.413-1.107,1.548-0.678
					c0.909,0.344,1.002,0.553,0.657,1.475c-0.105,0.28-0.209,0.559-0.317,0.838c-0.05,0.132-0.115,0.294-0.284,0.237
					c-0.192-0.065-0.091-0.231-0.048-0.354c0.134-0.375,0.274-0.747,0.417-1.119c0.098-0.252,0.099-0.488-0.186-0.598
					c-0.349-0.134-0.32,0.208-0.394,0.375c-0.167,0.382-0.299,0.78-0.455,1.168c-0.043,0.108-0.115,0.233-0.262,0.172
					c-0.152-0.063-0.088-0.201-0.05-0.306c0.156-0.431,0.313-0.86,0.481-1.286c0.085-0.215,0.097-0.363-0.17-0.461
					c-0.251-0.094-0.359-0.017-0.441,0.216c-0.15,0.432-0.318,0.858-0.484,1.285c-0.042,0.105-0.082,0.253-0.235,0.213
					c-0.197-0.051-0.137-0.212-0.093-0.339C33.792,11.859,33.902,11.581,34.007,11.302z"/>
				<path fill-rule="evenodd" clip-rule="evenodd" fill="#DA282F" d="M37.014,12.656c0.398-0.331,0.578-0.665,0.808-0.956
					c0.06-0.076,0.155-0.153,0.256-0.102c0.152,0.077,0.086,0.216,0.021,0.303c-0.562,0.744-1.127,1.487-1.708,2.217
					c-0.112,0.141-0.316,0.161-0.499,0.159c-0.13-0.001-0.239-0.055-0.237-0.206c0.001-0.129,0.107-0.138,0.209-0.155
					c0.517-0.088,0.702-0.464,0.75-0.923c0.054-0.513,0.07-1.031,0.114-1.545c0.011-0.129,0.033-0.31,0.227-0.271
					c0.141,0.027,0.131,0.179,0.125,0.297C37.063,11.827,37.041,12.18,37.014,12.656z"/>
				<path fill-rule="evenodd" clip-rule="evenodd" fill="#DB3238" d="M49.319,16.874c-0.048,0.247,0.125,0.549-0.149,0.735
					c-0.038,0.026-0.188-0.024-0.204-0.068C48.85,17.214,49.193,17.104,49.319,16.874z"/>
				<path fill-rule="evenodd" clip-rule="evenodd" fill="#D82128" d="M60.855,21.384c-0.075,0.203-0.146,0.408-0.229,0.608
					c-0.081,0.192-0.229,0.264-0.431,0.197c-0.197-0.065-0.303-0.208-0.235-0.409c0.146-0.429,0.307-0.854,0.478-1.273
					c0.08-0.195,0.249-0.24,0.443-0.161c0.195,0.079,0.267,0.229,0.202,0.427C61.015,20.98,60.931,21.18,60.855,21.384z"/>
				<path fill-rule="evenodd" clip-rule="evenodd" fill="#DA272E" d="M44.116,14.545c0.123-0.129,0.043-0.469,0.374-0.326
					c0.282,0.123,0.275,0.349,0.179,0.595c-0.088,0.226-0.237,0.384-0.493,0.295C43.753,14.962,44.17,14.727,44.116,14.545z"/>
				<path fill-rule="evenodd" clip-rule="evenodd" fill="#DA272E" d="M62.144,21.337c0.128-0.116,0.026-0.462,0.354-0.347
					c0.288,0.1,0.305,0.326,0.211,0.579c-0.094,0.251-0.254,0.426-0.534,0.305C61.834,21.727,62.17,21.518,62.144,21.337z"/>
				<path fill-rule="evenodd" clip-rule="evenodd" fill="#DA272E" d="M40.85,13.342c0.141-0.15,0.064-0.49,0.395-0.343
					c0.283,0.125,0.272,0.352,0.176,0.596c-0.089,0.227-0.24,0.382-0.496,0.292C40.5,13.738,40.955,13.502,40.85,13.342z"/>
			</g>
		</g>
	</g>
</g>
<polyline opacity="0.25" fill="#454545" enable-background="new    " points="29.3,10.5 31.2,5.5 84.201,25.6 55.5,101.4 "/>
</svg>
