<?xml version="1.0" encoding="utf-8"?>
<!-- Generator: Adobe Illustrator 16.0.0, SVG Export Plug-In . SVG Version: 6.00 Build 0)  -->
<!DOCTYPE svg PUBLIC "-//W3C//DTD SVG 1.1//EN" "http://www.w3.org/Graphics/SVG/1.1/DTD/svg11.dtd">
<svg version="1.1" id="Layer_1" xmlns="http://www.w3.org/2000/svg" xmlns:xlink="http://www.w3.org/1999/xlink" x="0px" y="0px"
	 width="355.7px" height="233.8px" viewBox="0 0 355.7 233.8" enable-background="new 0 0 355.7 233.8" xml:space="preserve">
<g>
	<g>
		<g>
			<circle fill="#FFFAE6" cx="85.843" cy="144.801" r="68.614"/>
			<path fill="none" stroke="#CECECE" stroke-width="2" stroke-miterlimit="10" d="M151.852,144.798
				c0,36.459-29.552,66.014-66.008,66.014s-66.01-29.555-66.01-66.014c0-36.454,29.555-66.008,66.01-66.008
				C122.3,78.791,151.852,108.345,151.852,144.798z"/>
		</g>
		<ellipse fill="#BCBCBC" cx="86.577" cy="149.682" rx="55.611" ry="48.184"/>
		<g>
			<circle fill="#3F140E" cx="81.124" cy="135.263" r="53.602"/>
			<g>
				<path fill="#F4DCA6" d="M84.427,134.728l0.026,0.008L84.427,134.728z"/>
				<path fill="#F4DCA6" d="M116.784,168.271c7.471-5.288,9.917-11.521,10.685-15.568c3.858-8.941,4.998-18.885,3.242-28.488
					c0.536-12.32-6.275-19.999-12.028-24.245c-3.781-4.147-8.147-7.515-12.875-10.071c-5.381-4.743-9.822-5.167-12.543-4.724
					c-8.701-1.977-17.893-1.588-26.531,1.29C55.556,87.453,50.521,93.7,48.497,97.392c-8.179,7.73-13.188,17.789-14.79,28.354
					c-5.208,8.795-1.12,17.694,1.641,22.057c1.66,5.336,4.261,10.475,7.839,15.17c3.671,4.816,8.064,8.759,12.913,11.804
					c8.931,15.666,25.394,8.69,27.875,7.524c9.876-0.32,19.749-3.584,28.192-10.02C113.813,171.025,115.341,169.679,116.784,168.271
					z M92.133,88.438c0.272-0.042,0.563-0.016,0.869,0.079l0.195,0.063l3.116,5.358l-0.14,0.256
					c-0.021,0.042-0.557,0.993-1.643,1.156c-0.128,0.017-0.265,0.025-0.398,0.02l-0.295-0.009l-3.014-5.538l0.045-0.19
					C90.957,89.246,91.327,88.558,92.133,88.438z M78.301,98.685c0.254,0.089,0.502,0.245,0.731,0.473l0.145,0.144l0.268,6.194
					l-0.246,0.163c-0.037,0.027-0.951,0.619-1.987,0.26c-0.122-0.044-0.248-0.101-0.365-0.167l-0.257-0.147l-0.099-6.302
					l0.128-0.151C76.882,98.854,77.527,98.416,78.301,98.685z M46.813,102.15c-2.979,11.474-9.193,18.737-9.193,18.737
					c-0.371,0.356-0.708,0.709-1.044,1.067C38.329,114.757,41.766,107.934,46.813,102.15z M60.18,95.747l6.025-1.459l0.208,0.208
					c0.035,0.032,0.792,0.814,0.636,1.902c-0.019,0.129-0.048,0.263-0.091,0.387l-0.097,0.282l-6.163,1.313l-0.171-0.101
					c-0.346-0.196-0.899-0.746-0.786-1.553c0.039-0.271,0.145-0.54,0.322-0.81L60.18,95.747z M76.961,86.931
					c-0.747-0.119-1.478-0.218-2.188-0.3c4.927-0.791,9.933-0.789,14.821-0.024C85.975,88.2,76.961,86.931,76.961,86.931z
					 M56.218,112.804l-0.085-0.175c-0.171-0.364-0.319-1.126,0.229-1.73c0.187-0.202,0.424-0.36,0.725-0.484l0.191-0.075
					l5.795,2.196l0.056,0.287c0.009,0.043,0.191,1.12-0.547,1.929c-0.085,0.095-0.189,0.189-0.292,0.266l-0.238,0.183
					L56.218,112.804z M45.879,133.805c-0.129,0.019-0.267,0.028-0.401,0.021l-0.295-0.011l-3.023-5.53l0.043-0.193
					c0.095-0.387,0.461-1.075,1.268-1.194c0.27-0.04,0.559-0.017,0.869,0.079l0.196,0.061l3.12,5.354l-0.141,0.26
					C47.496,132.691,46.962,133.64,45.879,133.805z M111.763,136.166c0.043,0.008,1.083,0.344,1.458,1.373
					c0.044,0.123,0.082,0.252,0.102,0.389l0.052,0.289l-4.82,4.066l-0.197-0.009c-0.4-0.013-1.146-0.233-1.425-0.999
					c-0.092-0.258-0.124-0.544-0.094-0.865l0.018-0.201l4.623-4.131L111.763,136.166z M105.22,123.063l0.19-0.073l5.806,2.176
					l0.056,0.289c0.01,0.041,0.198,1.117-0.535,1.932c-0.092,0.097-0.192,0.188-0.298,0.27l-0.237,0.178l-5.838-2.373l-0.083-0.18
					c-0.181-0.355-0.33-1.121,0.221-1.729C104.681,123.349,104.924,123.188,105.22,123.063z M113.777,104.156
					c0.271-0.037,0.56-0.003,0.865,0.1l0.195,0.065l2.986,5.433l-0.146,0.254c-0.021,0.042-0.579,0.979-1.667,1.114
					c-0.131,0.019-0.267,0.021-0.399,0.013l-0.296-0.015l-2.882-5.605l0.049-0.191C112.584,104.937,112.965,104.258,113.777,104.156
					z M89.914,126.919c3.571,4.688,2.665,11.408-2.021,14.98c-4.69,3.573-11.411,2.669-14.984-2.021
					c-3.574-4.688-2.667-11.408,2.023-14.981C79.62,121.328,86.34,122.233,89.914,126.919z M55.909,151.026l4.714,4.026
					l-0.048,0.291c-0.006,0.044-0.194,1.115-1.165,1.633c-0.113,0.057-0.241,0.109-0.368,0.15l-0.284,0.09l-4.681-4.227l-0.02-0.197
					c-0.041-0.394,0.081-1.164,0.803-1.547c0.239-0.127,0.52-0.199,0.845-0.213L55.909,151.026z M68.754,141.139l0.262-0.138
					c0.038-0.021,1.012-0.512,2.006-0.049c0.117,0.057,0.236,0.129,0.343,0.205l0.237,0.178l-0.569,6.277l-0.145,0.131
					c-0.293,0.272-0.979,0.646-1.72,0.291c-0.246-0.111-0.47-0.297-0.675-0.551l-0.131-0.158L68.754,141.139z M98.395,106.795
					l0.189-0.077l5.813,2.161l0.058,0.289c0.008,0.048,0.2,1.118-0.533,1.933c-0.093,0.098-0.192,0.192-0.296,0.27l-0.238,0.181
					l-5.845-2.361l-0.086-0.178c-0.172-0.356-0.325-1.118,0.22-1.73C97.858,107.083,98.096,106.919,98.395,106.795z M85.354,112.359
					l0.269,0.122c0.041,0.019,1.029,0.474,1.277,1.543c0.027,0.129,0.046,0.266,0.051,0.399l0.012,0.298l-5.284,3.433l-0.195-0.027
					c-0.394-0.062-1.106-0.373-1.292-1.17c-0.059-0.266-0.059-0.554,0.014-0.872l0.047-0.202L85.354,112.359z M57.264,131.292
					c0.307-0.256,1.011-0.584,1.729-0.193c0.241,0.129,0.458,0.318,0.648,0.584l0.117,0.167l-0.726,6.155l-0.265,0.119
					c-0.042,0.021-1.037,0.457-2.003-0.063c-0.113-0.064-0.229-0.139-0.333-0.223l-0.232-0.188l0.913-6.236L57.264,131.292z
					 M45.238,144.848c0.043-0.007,1.132-0.036,1.833,0.808c0.081,0.104,0.16,0.217,0.221,0.332l0.147,0.258l-3.19,5.445
					l-0.185,0.055c-0.379,0.123-1.158,0.162-1.679-0.474c-0.172-0.206-0.302-0.466-0.378-0.784l-0.051-0.197l2.985-5.433
					L45.238,144.848z M44.847,161.707c-2.335-3.063-4.226-6.33-5.704-9.717c6.467,5.605,14.495,17.334,14.495,17.334
					c0.207,0.586,0.421,1.131,0.644,1.678C50.797,168.417,47.606,165.326,44.847,161.707z M118.136,123.188
					c-0.154-0.36-0.265-1.133,0.313-1.711c0.195-0.192,0.442-0.345,0.748-0.451l0.193-0.065l5.688,2.467l0.037,0.293
					c0.009,0.047,0.14,1.128-0.637,1.9c-0.091,0.096-0.198,0.18-0.307,0.256l-0.248,0.164l-5.707-2.67L118.136,123.188z
					 M65.316,172.062c-0.322,0.234-1.044,0.521-1.745,0.089c-0.226-0.14-0.433-0.347-0.608-0.62l-0.108-0.174l1.09-6.102
					l0.273-0.104c0.043-0.022,1.065-0.399,1.997,0.177c0.112,0.068,0.214,0.155,0.318,0.242l0.222,0.201l-1.278,6.178
					L65.316,172.062z M78.822,162.347l-0.185-0.071c-0.373-0.137-1.014-0.582-1.04-1.397c-0.012-0.275,0.045-0.555,0.175-0.855
					l0.086-0.184l5.681-2.481l0.236,0.172c0.042,0.021,0.922,0.664,0.964,1.761c-0.001,0.131-0.01,0.267-0.026,0.398l-0.045,0.294
					L78.822,162.347z M97.836,153.878c-0.039,0.023-0.986,0.565-2.005,0.146c-0.115-0.051-0.236-0.113-0.346-0.186l-0.255-0.162
					l0.253-6.303l0.143-0.14c0.279-0.284,0.944-0.687,1.703-0.37c0.253,0.104,0.488,0.271,0.708,0.512l0.133,0.15l-0.085,6.2
					L97.836,153.878z M129.425,132.266c0.083,4.853-0.583,9.692-1.963,14.343c-0.489-4.883,1.173-11.732,1.173-11.732
					C128.934,133.99,129.193,133.121,129.425,132.266z M120.947,144.346l3.201-5.306l0.295-0.002
					c0.044-0.002,1.131,0.012,1.797,0.885c0.081,0.104,0.152,0.219,0.21,0.34l0.136,0.264l-3.405,5.305l-0.194,0.055
					c-0.378,0.104-1.161,0.113-1.656-0.536c-0.166-0.218-0.278-0.485-0.35-0.8L120.947,144.346z M88.461,174.968
					c-0.388,0.07-1.163,0.009-1.602-0.684c-0.146-0.23-0.236-0.506-0.278-0.83l-0.021-0.199l3.653-5.012l0.294,0.028
					c0.041-0.002,1.127,0.108,1.714,1.037c0.065,0.108,0.13,0.233,0.178,0.353l0.114,0.274l-3.854,4.993L88.461,174.968z
					 M104.101,161.744l-0.087-0.181c-0.18-0.349-0.344-1.114,0.195-1.729c0.181-0.205,0.416-0.375,0.713-0.504l0.186-0.08
					l5.843,2.065l0.059,0.29c0.015,0.045,0.218,1.113-0.497,1.945c-0.09,0.092-0.188,0.187-0.292,0.269l-0.233,0.188
					L104.101,161.744z M87.174,180c5.395-3.002,14.763-5.059,14.763-5.059c1.773-0.488,3.422-1.016,4.965-1.588
					C100.758,177.117,94.005,179.305,87.174,180z"/>
			</g>
		</g>
	</g>
	<g>
		<g>
			<g>
				<path fill="#FFC5B8" d="M127.098,163.237c1.116,0.44,6.085-2.993,12.915-6.12c5.146-2.361,8.404-2.773,8.623-2.814
					c9.57-1.881,8.706,6.063,3.498,8.313c-22.376,9.653-64.096,11.646-64.096,11.646c-2.955,1-4.275,2.482-3.927,5.652
					c0.319,2.903,3.993,2.816,6.948,3.269c15.04,2.284,42.381-3.604,42.712-2.618c0.338,0.988-0.347,1.911-1.461,2.29
					c0,0-11.459,3.644-22.388,6.933c-10.218,3.076-33.793,5.625-33.793,5.625c-2.955,1-4.689,3.766-3.671,6.772
					c0.505,1.493,5.217,2.646,6.688,2.146c0,0,18.844-0.865,32.523-3.625c6.208-1.254,24.636-6.049,24.636-6.049
					c1.113-0.373,2.217-0.052,2.553,0.934c0.335,0.986-0.349,1.916-1.464,2.291c0,0-16.138,4.498-21.796,5.761
					c-6.573,1.466-27.125,5.147-27.125,5.147c-2.955,1-3.583,2.185-3.962,5.34c-0.423,3.502,3.454,3.869,6.981,3.578
					c0,0,21.111-2.164,27.895-3.457c5.678-1.084,15.882-4.129,21.938-6.039c1.122-0.353,2.219-0.057,2.553,0.932
					c0.335,0.986-0.35,1.912-1.462,2.29c0,0-6.809,2.47-9.503,3.175c-5.648,1.477-23.877,5.546-23.877,5.546
					c-2.958,1.005-5.044,2.729-4.025,5.738c0.958,2.831,2.986,2.567,6.68,2.11c0,0,27.084-4.588,36.108-6.906
					c49.658-12.762,46.412-29.276,70.55-35.637c3.261-0.859,2.242-7.834,5.414-10.414c4.811-3.924-15.811-5.448-18.693-13.614
					c-0.802-2.263,25.643-17.608,24.99-18.617c-0.57-0.878-23.03,11.138-44.938,1.188c-8.819-4.006-20.292-9.209-30.236-5.896
					C125.167,148.019,123.009,160.067,127.098,163.237z"/>
			</g>
			<path fill="#F9AFAF" d="M92.427,182.462l-5.583-0.03c-2.394-0.015-4.213-1.499-4.059-3.324l0,0
				c0.154-1.821,2.225-3.293,4.619-3.278l5.585,0.031c0,0,0.877,1.223,0.699,3.307C93.499,181.401,92.427,182.462,92.427,182.462z"
				/>
			<path fill="#F9AFAF" d="M81.759,203.109l-6.008,0.518c-2.575,0.227-4.707-1.178-4.756-3.121l0,0
				c-0.053-1.945,1.998-3.709,4.577-3.93l6.006-0.521c0,0,1.087,1.21,1.145,3.438C82.783,201.876,81.759,203.109,81.759,203.109z"/>
			<path fill="#F9AFAF" d="M92.988,216.296l-5.772,0.787c-2.478,0.338-3.661-1.004-4.168-2.797c-0.56-1.99,1.103-3.615,3.583-3.953
				l5.771-0.793c0,0,1.125,1.109,1.309,3.24C93.908,215.069,92.988,216.296,92.988,216.296z"/>
			<path fill="#F9AFAF" d="M112.556,226.057l-4.613,0.971c-1.982,0.419-3.806-0.44-4.072-1.922l0,0
				c-0.264-1.479,1.124-3.022,3.108-3.442l4.614-0.975c0,0,0.993,0.816,1.294,2.512
				C113.213,225.015,112.556,226.057,112.556,226.057z"/>
			<path fill="#F9AFAF" d="M125.023,163.123c1.979,0.06,5.482-4.189,5.482-4.189l-1.908-3.684c0,0-5.119,3.682-5.01,6.33
				C123.613,162.228,124.054,163.093,125.023,163.123z"/>
			<path fill="#FFC5B8" d="M355.794,151.914c10.883-0.541-28.412-43.896-28.412-43.896l-166.014,59.353l11.573,34.209
				C172.942,201.58,295.121,154.912,355.794,151.914z"/>
		</g>
		<g>
			<g>
				<path fill="#FFC5B8" d="M94.07,98.265c0.795-0.896,6.782-0.083,14.287-0.383c5.66-0.221,8.75-1.329,8.963-1.39
					c9.385-2.647,5.02-9.346-0.64-8.993c-24.321,1.509-62.432,18.604-62.432,18.604c-3.089,0.446-4.933-0.279-6.059-3.266
					c-1.028-2.734,2.288-4.319,4.718-6.055c12.38-8.84,39.428-15.956,39.28-16.988c-0.146-1.029-1.177-1.546-2.34-1.381
					c0,0-11.87,1.933-23.103,3.945c-10.506,1.874-32.683,10.269-32.683,10.269c-3.089,0.445-5.888-1.236-6.338-4.379
					c-0.225-1.563,3.456-4.72,4.994-4.941c0,0,17.197-7.751,30.645-11.475c6.105-1.692,24.709-5.752,24.709-5.752
					c1.161-0.17,2.004-0.955,1.856-1.984c-0.151-1.034-1.179-1.551-2.341-1.382c0,0-16.429,3.286-22.047,4.723
					c-6.525,1.664-26.521,7.676-26.521,7.676c-3.086,0.445-4.184-0.328-5.947-2.969c-1.961-2.934,1.332-5.013,4.603-6.352
					c0,0,19.813-7.616,26.444-9.533c5.552-1.601,16.033-3.503,22.3-4.539c1.156-0.191,2.004-0.954,1.853-1.984
					c-0.146-1.034-1.174-1.548-2.338-1.383c0,0-7.189,0.879-9.914,1.469c-5.705,1.239-23.807,5.853-23.807,5.853
					c-3.088,0.447-5.729-0.151-6.182-3.292c-0.425-2.958,1.499-3.642,5.003-4.906c0,0,26.229-8.161,35.328-10.176
					c50.056-11.075,54.635,5.116,79.037-0.129c3.299-0.707,5.543,5.971,9.542,6.838c6.063,1.324-11.639,12.014-10.517,20.6
					c0.31,2.381,30.836,4.105,30.711,5.297c-0.113,1.039-25.575,0.487-40.618,19.269c-6.051,7.562-13.929,17.395-24.3,18.931
					C99.234,112.711,91.857,102.946,94.07,98.265z"/>
			</g>
			<path fill="#F9AFAF" d="M54.453,96.803l-4.967,2.553c-2.13,1.094-3.078,3.246-2.114,4.8l0,0c0.963,1.554,3.474,1.928,5.604,0.832
				l4.965-2.552c0,0,0.231-1.487-0.873-3.265C55.886,97.262,54.453,96.803,54.453,96.803z"/>
			<path fill="#F9AFAF" d="M35.601,83.216l-5.594,2.256c-2.4,0.964-3.668,3.175-2.83,4.935l0,0c0.835,1.759,3.46,2.402,5.858,1.434
				l5.593-2.254c0,0,0.424-1.571-0.531-3.583C37.072,83.85,35.601,83.216,35.601,83.216z"/>
			<path fill="#F9AFAF" d="M39.649,66.375l-5.504,1.909c-2.361,0.82-2.81,2.55-2.451,4.379c0.4,2.032,2.618,2.727,4.981,1.908
				l5.507-1.909c0,0,0.5-1.499-0.299-3.482C41.027,67.054,39.649,66.375,39.649,66.375z"/>
			<path fill="#F9AFAF" d="M52.69,48.821l-4.558,1.218c-1.956,0.526-3.194,2.113-2.763,3.559l0,0
				c0.436,1.438,2.372,2.184,4.33,1.662l4.555-1.218c0,0,0.515-1.179,0.02-2.824C53.74,49.45,52.69,48.821,52.69,48.821z"/>
			<path fill="#FFC5B8" d="M321.154,4.92c9.949-4.443-5.479,51.999-5.479,51.999L122.763,79.078l-5.149-35.746
				C117.614,43.332,265.689,29.689,321.154,4.92z"/>
			<path fill="#F9AFAF" d="M92.271,99.305c1.74-0.946,6.784,1.258,6.784,1.258l-0.032,4.147c0,0-6.229-0.966-7.334-3.38
				C91.42,100.74,91.42,99.77,92.271,99.305z"/>
		</g>
	</g>
</g>
</svg>
