<?xml version="1.0" encoding="utf-8"?>
<!-- Generator: Adobe Illustrator 16.0.0, SVG Export Plug-In . SVG Version: 6.00 Build 0)  -->
<!DOCTYPE svg PUBLIC "-//W3C//DTD SVG 1.1//EN" "http://www.w3.org/Graphics/SVG/1.1/DTD/svg11.dtd">
<svg version="1.1" id="Layer_1" xmlns="http://www.w3.org/2000/svg" xmlns:xlink="http://www.w3.org/1999/xlink" x="0px" y="0px"
	 width="280.216px" height="382.5px" viewBox="0 0 280.216 382.5" enable-background="new 0 0 280.216 382.5" xml:space="preserve">
<g>
	<g>
		<g>
			<path fill="#513B25" d="M138.721,187.604c-1.526,3.343-5.471,4.813-8.813,3.287l-72.536-33.128
				c-3.341-1.527-4.812-5.472-3.286-8.813l56.762-124.282c1.526-3.34,5.471-4.813,8.813-3.285l72.537,33.128
				c3.34,1.525,4.811,5.472,3.285,8.811L138.721,187.604z"/>
			<path fill="#513B25" d="M222.85,226.031c-1.525,3.339-5.471,4.811-8.811,3.284l-72.537-33.129
				c-3.34-1.526-4.813-5.47-3.285-8.812l56.762-124.281c1.525-3.34,5.471-4.813,8.813-3.288l72.535,33.131
				c3.342,1.524,4.813,5.472,3.287,8.812L222.85,226.031z"/>
		</g>
		<g>
			<path fill="#FFFFFF" d="M141.032,181.756c-1.426,3.119-5.105,4.491-8.225,3.068l-67.7-30.92
				c-3.118-1.424-4.491-5.107-3.067-8.226l51.575-112.923c1.424-3.116,5.106-4.489,8.224-3.064L189.54,60.61
				c3.117,1.423,4.49,5.106,3.066,8.225L141.032,181.756z"/>
			<path d="M136.012,185.899c-1.17,0.11-2.355-0.093-3.43-0.582l-67.701-30.92c-3.385-1.547-4.881-5.56-3.335-8.943l51.575-112.923
				c1.001-2.189,3.113-3.69,5.513-3.916c1.17-0.11,2.356,0.092,3.43,0.582l67.701,30.92c3.385,1.545,4.881,5.559,3.336,8.943
				l-51.576,112.92C140.524,184.172,138.413,185.674,136.012,185.899z M118.735,29.694c-2.015,0.189-3.788,1.448-4.627,3.287
				L62.533,145.904c-1.297,2.841-0.042,6.209,2.799,7.506l67.7,30.92c0.902,0.412,1.898,0.582,2.879,0.489
				c2.015-0.189,3.787-1.45,4.627-3.288l51.576-112.922c1.297-2.842,0.041-6.209-2.801-7.505l-67.7-30.921
				C120.711,29.771,119.716,29.602,118.735,29.694z"/>
		</g>
		<g>
			<g>
				<path fill="#FFFFFF" d="M220.024,217.835c-1.424,3.116-5.107,4.491-8.225,3.066l-67.701-30.92
					c-3.117-1.425-4.492-5.106-3.066-8.226l51.574-112.921c1.424-3.118,5.105-4.491,8.225-3.067l67.699,30.92
					c3.119,1.425,4.492,5.107,3.068,8.225L220.024,217.835z"/>
				<path d="M215.002,221.977c-1.168,0.109-2.355-0.091-3.43-0.581l-67.699-30.921c-3.385-1.546-4.881-5.56-3.336-8.943
					l51.576-112.922c0.998-2.189,3.111-3.691,5.512-3.917c1.168-0.109,2.355,0.092,3.43,0.582l67.699,30.919
					c3.387,1.547,4.883,5.56,3.336,8.943L220.516,218.06C219.516,220.25,217.403,221.751,215.002,221.977z M197.727,65.773
					c-2.016,0.189-3.787,1.448-4.627,3.287l-51.576,112.92c-1.297,2.842-0.041,6.21,2.801,7.508l67.699,30.92
					c0.902,0.412,1.896,0.581,2.877,0.488c2.016-0.189,3.789-1.449,4.629-3.287l51.574-112.923c1.299-2.841,0.043-6.208-2.799-7.505
					l-67.699-30.92C199.704,65.85,198.708,65.681,197.727,65.773z"/>
			</g>
			
				<rect x="109.399" y="51.972" transform="matrix(0.9096 0.4154 -0.4154 0.9096 41.4348 -54.45)" fill="#C4C4C4" width="72.925" height="32.067"/>
			<g>
				
					<rect x="100.081" y="81.186" transform="matrix(0.9096 0.4154 -0.4154 0.9096 45.3201 -40.5325)" fill="#C4C4C4" width="31.479" height="5.424"/>
				
					<rect x="95.915" y="90.306" transform="matrix(0.9096 0.4154 -0.4154 0.9096 48.7317 -37.9774)" fill="#C4C4C4" width="31.48" height="5.425"/>
				
					<rect x="91.749" y="99.429" transform="matrix(0.9096 0.4155 -0.4155 0.9096 52.1526 -35.4254)" fill="#C4C4C4" width="31.48" height="5.424"/>
				
					<rect x="87.584" y="108.55" transform="matrix(0.9096 0.4154 -0.4154 0.9096 55.5593 -32.8681)" fill="#C4C4C4" width="31.479" height="5.423"/>
				
					<rect x="83.417" y="117.671" transform="matrix(0.9096 0.4155 -0.4155 0.9096 58.9795 -30.3152)" fill="#C4C4C4" width="31.48" height="5.424"/>
				
					<rect x="79.251" y="126.793" transform="matrix(0.9096 0.4154 -0.4154 0.9096 62.3794 -27.7569)" fill="#C4C4C4" width="31.479" height="5.423"/>
				
					<rect x="75.085" y="135.915" transform="matrix(0.9096 0.4155 -0.4155 0.9096 65.8025 -25.2034)" fill="#C4C4C4" width="31.479" height="5.424"/>
				
					<rect x="70.919" y="145.036" transform="matrix(0.9096 0.4154 -0.4154 0.9096 69.2143 -22.6483)" fill="#C4C4C4" width="31.48" height="5.423"/>
			</g>
			<g>
				
					<rect x="136.954" y="98.027" transform="matrix(0.9096 0.4154 -0.4154 0.9096 55.6514 -54.3301)" fill="#C4C4C4" width="31.478" height="5.423"/>
				
					<rect x="132.788" y="107.15" transform="matrix(0.9096 0.4155 -0.4155 0.9096 59.0689 -51.7775)" fill="#C4C4C4" width="31.478" height="5.421"/>
				
					<rect x="128.622" y="116.27" transform="matrix(0.9096 0.4154 -0.4154 0.9096 62.4771 -49.2199)" fill="#C4C4C4" width="31.478" height="5.422"/>
				
					<rect x="124.456" y="125.392" transform="matrix(0.9096 0.4155 -0.4155 0.9096 65.9037 -46.6707)" fill="#C4C4C4" width="31.479" height="5.423"/>
				
					<rect x="120.291" y="134.512" transform="matrix(0.9096 0.4154 -0.4154 0.9096 69.2994 -44.1091)" fill="#C4C4C4" width="31.479" height="5.424"/>
				
					<rect x="116.124" y="143.635" transform="matrix(0.9096 0.4155 -0.4155 0.9096 72.7208 -41.5564)" fill="#C4C4C4" width="31.481" height="5.423"/>
				
					<rect x="111.958" y="152.755" transform="matrix(0.9096 0.4154 -0.4154 0.9096 76.1219 -38.9977)" fill="#C4C4C4" width="31.478" height="5.425"/>
				
					<rect x="107.792" y="161.878" transform="matrix(0.9096 0.4154 -0.4154 0.9096 79.5431 -36.4445)" fill="#C4C4C4" width="31.477" height="5.423"/>
			</g>
			<g>
				
					<rect x="195.334" y="84.104" transform="matrix(0.9096 0.4154 -0.4154 0.9096 55.1443 -79.8426)" fill="#C4C4C4" width="31.48" height="5.424"/>
				
					<rect x="191.168" y="93.227" transform="matrix(0.9096 0.4155 -0.4155 0.9096 58.5623 -77.2916)" fill="#C4C4C4" width="31.48" height="5.423"/>
				
					<rect x="187.096" y="102.139" transform="matrix(0.9096 0.4155 -0.4155 0.9096 61.9018 -74.7977)" fill="#C4C4C4" width="31.479" height="5.423"/>
				
					<rect x="183.025" y="111.054" transform="matrix(0.9096 0.4154 -0.4154 0.9096 65.2277 -72.2934)" fill="#C4C4C4" width="31.48" height="5.424"/>
				
					<rect x="178.954" y="119.967" transform="matrix(0.9096 0.4155 -0.4155 0.9096 68.5675 -69.7993)" fill="#C4C4C4" width="31.478" height="5.423"/>
				
					<rect x="174.883" y="128.881" transform="matrix(0.9096 0.4154 -0.4154 0.9096 71.8977 -67.2994)" fill="#C4C4C4" width="31.48" height="5.423"/>
				
					<rect x="170.812" y="137.794" transform="matrix(0.9096 0.4154 -0.4154 0.9096 75.2329 -64.8028)" fill="#C4C4C4" width="31.48" height="5.424"/>
				
					<rect x="166.741" y="146.709" transform="matrix(0.9096 0.4154 -0.4154 0.9096 78.5676 -62.3051)" fill="#C4C4C4" width="31.478" height="5.422"/>
				
					<rect x="162.67" y="155.622" transform="matrix(0.9096 0.4154 -0.4154 0.9096 81.9035 -59.8087)" fill="#C4C4C4" width="31.48" height="5.424"/>
				
					<rect x="158.598" y="164.537" transform="matrix(0.9096 0.4155 -0.4155 0.9096 85.2573 -57.3186)" fill="#C4C4C4" width="31.479" height="5.421"/>
				
					<rect x="154.527" y="173.45" transform="matrix(0.9096 0.4154 -0.4154 0.9096 88.5742 -54.8146)" fill="#C4C4C4" width="31.48" height="5.424"/>
				
					<rect x="150.457" y="182.363" transform="matrix(0.9096 0.4154 -0.4154 0.9096 91.909 -52.3181)" fill="#C4C4C4" width="31.48" height="5.423"/>
			</g>
			<g>
				
					<rect x="229.946" y="99.227" transform="matrix(0.9096 0.4154 -0.4154 0.9096 64.5544 -92.8544)" fill="#C4C4C4" width="31.478" height="5.422"/>
				
					<rect x="225.78" y="108.347" transform="matrix(0.9096 0.4155 -0.4155 0.9096 67.9724 -90.3043)" fill="#C4C4C4" width="31.478" height="5.423"/>
				
					<rect x="221.709" y="117.261" transform="matrix(0.9096 0.4154 -0.4154 0.9096 71.3026 -87.8032)" fill="#C4C4C4" width="31.48" height="5.424"/>
				
					<rect x="217.638" y="126.176" transform="matrix(0.9096 0.4154 -0.4154 0.9096 74.6375 -85.3053)" fill="#C4C4C4" width="31.478" height="5.423"/>
				
					<rect x="213.567" y="135.089" transform="matrix(0.9096 0.4154 -0.4154 0.9096 77.9723 -82.8088)" fill="#C4C4C4" width="31.478" height="5.422"/>
				
					<rect x="209.496" y="144.002" transform="matrix(0.9096 0.4154 -0.4154 0.9096 81.302 -80.3084)" fill="#C4C4C4" width="31.48" height="5.424"/>
				
					<rect x="205.424" y="152.917" transform="matrix(0.9096 0.4155 -0.4155 0.9096 84.6501 -77.8194)" fill="#C4C4C4" width="31.48" height="5.422"/>
				
					<rect x="201.353" y="161.83" transform="matrix(0.9096 0.4154 -0.4154 0.9096 87.9789 -75.3185)" fill="#C4C4C4" width="31.48" height="5.424"/>
				
					<rect x="197.281" y="170.743" transform="matrix(0.9096 0.4154 -0.4154 0.9096 91.3075 -72.8183)" fill="#C4C4C4" width="31.482" height="5.424"/>
				
					<rect x="193.211" y="179.657" transform="matrix(0.9096 0.4155 -0.4155 0.9096 94.6561 -70.3277)" fill="#C4C4C4" width="31.48" height="5.424"/>
				
					<rect x="189.14" y="188.572" transform="matrix(0.9096 0.4155 -0.4155 0.9096 97.9918 -67.8308)" fill="#C4C4C4" width="31.48" height="5.423"/>
				
					<rect x="185.069" y="197.484" transform="matrix(0.9096 0.4154 -0.4154 0.9096 101.311 -65.3274)" fill="#C4C4C4" width="31.477" height="5.424"/>
			</g>
		</g>
	</g>
	<g>
		<g>
			<g>
				<path fill="#E5C0B5" d="M210.573,155.346c0.781,0.838-0.016,6.772-1.131,13.699c-0.842,5.224-0.277,8.193-0.252,8.396
					c0.973,8.939,8.766,5.748,9.471,0.51c3.047-22.517-7.502-59.578-7.502-59.578c0.123-2.894,1.227-4.498,4.545-5.167
					c3.037-0.612,4.059,2.626,5.402,5.063c6.844,12.444,9.109,38.141,10.211,38.128c1.104-0.009,1.836-0.893,1.883-1.98
					c0,0,0.242-11.132,0.283-21.689c0.037-9.873-4.482-31.255-4.482-31.255c0.125-2.889,2.402-5.252,5.754-5.283
					c1.672-0.019,4.252,3.745,4.191,5.187c0,0,4.797,16.728,6.121,29.526c0.6,5.811,1.293,23.382,1.293,23.382
					c-0.045,1.087,0.613,1.954,1.715,1.943c1.098-0.011,1.832-0.892,1.879-1.979c0,0-0.301-15.484-0.727-20.817
					c-0.494-6.19-2.955-25.277-2.955-25.277c0.123-2.888,1.135-3.802,4.217-5.101c3.422-1.443,4.961,1.829,5.73,5.002
					c0,0,4.162,19.108,4.896,25.432c0.613,5.293,0.6,15.146,0.49,21.024c-0.02,1.084,0.609,1.956,1.709,1.943
					c1.102-0.013,1.834-0.893,1.883-1.98c0,0,0.451-6.709,0.35-9.279c-0.205-5.389-1.568-22.566-1.568-22.566
					c0.125-2.891,1.244-5.242,4.6-5.275c3.158-0.033,3.504,1.817,4.152,5.187c0,0,3.508,25.073,3.877,33.673
					c2.023,47.298-15.684,49.534-14.855,72.576c0.111,3.111-7.262,4.361-8.924,7.927c-2.523,5.405-10.281-12.143-19.426-12.155
					c-2.533-0.004-10.117,27.813-11.332,27.549c-1.059-0.23,4.348-23.539-12.332-39.627c-6.715-6.475-15.447-14.899-15.076-24.609
					C195.754,158.867,203.805,144.714,210.573,155.346z"/>
			</g>
		</g>
		<path fill="#F4D4CE" d="M220.833,119.799l-1.494-4.25c-0.639-1.822-2.615-2.74-4.418-2.046l0,0
			c-1.801,0.693-2.74,2.739-2.102,4.56l1.49,4.25c0,0,1.467,0.283,3.521-0.508C220.04,120.955,220.833,119.799,220.833,119.799z"/>
		<path fill="#F4D4CE" d="M238.495,104.031l-1.283-5.408c-0.549-2.321-2.609-3.754-4.596-3.199l0,0
			c-1.988,0.553-3.154,2.885-2.604,5.206l1.285,5.406c0,0,1.553,0.581,3.826-0.054C237.557,105.305,238.495,104.031,238.495,104.031
			z"/>
		<path fill="#F4D4CE" d="M255.264,109.92l-0.811-4.566c-0.348-1.959-2.041-2.451-4-2.3c-2.18,0.168-3.367,1.898-3.018,3.855
			l0.811,4.571c0,0,1.436,0.515,3.65,0.023C254.274,110.977,255.264,109.92,255.264,109.92z"/>
		<path fill="#F4D4CE" d="M271.02,123.897l-0.404-4.33c-0.172-1.862-1.59-3.189-3.174-2.969l0,0
			c-1.58,0.226-2.721,1.911-2.547,3.771l0.398,4.334c0,0,1.129,0.615,2.934,0.359C270.167,124.791,271.02,123.897,271.02,123.897z"
			/>
		<path fill="#E5C0B5" d="M269.159,359.175c2.734,9.673-53.025-11.348-53.025-11.348l10.133-163.271l38.141-0.386
			C264.407,184.17,253.926,305.245,269.159,359.175z"/>
		<path fill="#F4D4CE" d="M209.442,151.807c1.395,0.986,0.402,6.289,0.402,6.289s-2.26,0.31-4.016-0.211
			c-2.787-0.83-3.813-1.494-3.813-1.494S203.625,147.694,209.442,151.807z"/>
	</g>
	<g>
		<g>
			<g>
				<path fill="#E5C0B5" d="M121.493,117.452c-1.01,0.541-2.166,6.416-3.341,13.333c-0.886,5.216-2.377,7.847-2.466,8.031
					c-3.8,8.149-10.149,2.618-9.129-2.568c4.367-22.298,26.289-53.988,26.289-53.988c0.814-2.778,0.288-4.653-2.64-6.355
					c-2.677-1.558-4.688,1.18-6.745,3.055c-10.487,9.577-20.907,33.175-21.947,32.807c-1.039-0.363-1.449-1.435-1.143-2.48
					c0,0,3.355-10.615,6.716-20.625c3.145-9.358,14.309-28.146,14.309-28.146c0.813-2.775-0.584-5.746-3.747-6.855
					c-1.576-0.556-5.231,2.177-5.638,3.561c0,0-9.928,14.292-15.303,25.981c-2.439,5.309-8.756,21.721-8.756,21.721
					c-0.307,1.043-1.209,1.652-2.248,1.288c-1.037-0.364-1.449-1.435-1.142-2.479c0,0,5.271-14.563,7.391-19.474
					c2.462-5.703,10.938-22.98,10.938-22.98c0.813-2.773,0.15-3.964-2.35-6.187c-2.774-2.468-5.286,0.135-7.035,2.89
					c0,0-10.095,16.751-12.826,22.5c-2.285,4.814-5.446,14.146-7.234,19.746c-0.332,1.033-1.208,1.655-2.246,1.29
					c-1.038-0.366-1.448-1.437-1.143-2.481c0,0,1.731-6.496,2.656-8.896c1.93-5.036,8.752-20.86,8.752-20.86
					c0.813-2.776,0.511-5.364-2.655-6.476c-2.979-1.049-3.901,0.593-5.602,3.573c0,0-11.396,22.608-14.514,30.63
					c-17.148,44.127-1.105,51.947-9.309,73.494c-1.107,2.911,5.47,6.469,5.896,10.379c0.648,5.929,13.645-8.186,22.305-5.252
					c2.4,0.812,0.622,29.588,1.855,29.73c1.078,0.122,3.465-23.686,24.438-33.544c8.442-3.968,19.422-9.131,22.199-18.442
					C134.387,125.558,131.324,109.565,121.493,117.452z"/>
			</g>
		</g>
		<path fill="#F4D4CE" d="M123.228,80.495l2.782-3.544c1.192-1.518,3.36-1.75,4.841-0.513l0,0c1.481,1.236,1.714,3.476,0.522,4.993
			l-2.781,3.543c0,0-1.479-0.203-3.169-1.615C123.605,81.845,123.228,80.495,123.228,80.495z"/>
		<path fill="#F4D4CE" d="M111.584,59.879l2.957-4.706c1.267-2.022,3.679-2.714,5.381-1.549l0,0
			c1.703,1.163,2.057,3.747,0.788,5.767l-2.958,4.705c0,0-1.656,0.049-3.604-1.283C112.062,61.387,111.584,59.879,111.584,59.879z"
			/>
		<path fill="#F4D4CE" d="M93.813,60.055l2.237-4.064c0.96-1.741,2.721-1.662,4.527-0.888c2.01,0.861,2.576,2.881,1.616,4.622
			l-2.239,4.066c0,0-1.526,0.023-3.465-1.154C94.408,61.374,93.813,60.055,93.813,60.055z"/>
		<path fill="#F4D4CE" d="M74.394,68.212l1.777-3.97c0.763-1.707,2.532-2.507,3.961-1.787l0,0c1.423,0.721,1.96,2.685,1.197,4.391
			l-1.772,3.974c0,0-1.269,0.218-2.894-0.605C74.914,69.333,74.394,68.212,74.394,68.212z"/>
		<path fill="#F4D4CE" d="M123.702,114.466c-1.636,0.483-2.405,5.823-2.405,5.823s2.039,1.021,3.869,1.094
			c2.907,0.112,4.092-0.188,4.092-0.188S130.534,112.445,123.702,114.466z"/>
		<path fill="#E5C0B5" d="M0.385,291.555c-5.702,8.277,53.857,6.333,53.857,6.333L97.23,140.051l-35.987-12.647
			C61.243,127.403,32.175,245.402,0.385,291.555z"/>
	</g>
</g>
</svg>
