<?xml version="1.0" encoding="utf-8"?>
<!-- Generator: Adobe Illustrator 16.0.0, SVG Export Plug-In . SVG Version: 6.00 Build 0)  -->
<!DOCTYPE svg PUBLIC "-//W3C//DTD SVG 1.1//EN" "http://www.w3.org/Graphics/SVG/1.1/DTD/svg11.dtd">
<svg version="1.1" id="Layer_1" xmlns="http://www.w3.org/2000/svg" xmlns:xlink="http://www.w3.org/1999/xlink" x="0px" y="0px"
	 width="315.5px" height="436.5px" viewBox="0 0 315.5 436.5" enable-background="new 0 0 315.5 436.5" xml:space="preserve">
<g>
	<g>
		<polyline opacity="0.2" fill="#444444" enable-background="new    " points="64.8,212.9 48.4,215 27.8,57.4 252.1,28.1 		"/>
		<path fill="#DDDDDD" d="M21,56.8L271.5,24c7.8-1,14.9,4.6,15.9,12.4l17.3,131.9c1,7.9-4.4,15.1-12.2,16.1L42,217.2
			c-7.8,1-14.9-4.6-15.9-12.4L8.8,72.9C7.8,65,13.3,57.8,21,56.8z"/>
		
			<line fill="none" stroke="#999999" stroke-width="2" stroke-linecap="round" stroke-miterlimit="10" x1="33" y1="173.6" x2="23.1" y2="98.1"/>
		<path fill="#FF6F6F" d="M184.7,111.7c-0.101,0-0.2,0-0.3,0c-0.4,0.1-0.9,0.3-1.2,0.6c-0.3,0.3-0.601,0.8-0.601,1.2l0.601,4.8
			c0.1,0.8,1,1.3,1.7,1.4c0.1,0,0.399,0,0.5,0c0.399-0.1,0.8-0.3,1-0.6c0.3-0.3,0.3-0.8,0.3-1.2l-0.601-4.8
			C186.1,112.3,185.5,111.7,184.7,111.7z"/>
		<path fill="#FF6F6F" d="M123.1,119.7c-0.1,0-0.1,0-0.2,0c-0.9,0.1-1.6,0.9-1.5,1.8l0.6,4.8c0.1,0.8,0.8,1.3,1.6,1.4
			c0.1,0,0.3,0,0.4,0c0.4-0.1,0.7-0.3,1-0.6c0.3-0.3,0.2-0.7,0.2-1.2l-0.6-4.8C124.4,120.3,123.9,119.7,123.1,119.7z"/>
		<path fill="#FF6F6F" d="M105.8,122.1c-0.1,0-0.1,0-0.2,0l-1.6,0.2l1,7.9l1.6-0.2c0.9-0.1,1.4-1,1.3-1.9l-0.6-4.6
			C107.2,122.7,106.6,122.1,105.8,122.1z"/>
		<path fill="#FF6F6F" d="M114.6,120.8c-0.1,0-0.2,0-0.3,0c-0.9,0.1-1.6,0.9-1.5,1.8l0.6,4.8c0.1,0.8,0.8,1.3,1.6,1.4
			c0.1,0,0.3,0,0.4,0c0.9-0.1,1.5-0.9,1.4-1.8l-0.6-4.8C116,121.4,115.3,120.9,114.6,120.8z"/>
		<path fill="none" d="M123.3,118c-0.2,0-0.4,0-0.6,0c-1.8,0.2-3.1,1.9-2.9,3.7l0.6,4.8c0.2,1.6,1.6,2.8,3.2,2.8c0.2,0,0.4,0,0.6,0
			c0.9-0.1,1.6-0.6,2.1-1.2c0.5-0.7,0.7-1.6,0.6-2.4l-0.6-4.8C126.1,119.3,124.9,118.1,123.3,118z"/>
		<path fill="none" d="M136.6,126.5l-3.8-5.1l2.5-3.6c0.3-0.4,0.2-0.9-0.2-1.2c-0.1-0.1-0.3-0.1-0.5-0.1c-0.3,0-0.6,0.1-0.8,0.4
			l-3.3,4.8l-1.1-8.6c-0.1-0.4-0.4-0.7-0.8-0.7h-0.1c-0.2,0-0.6,0.2-0.7,0.3c-0.1,0.2-0.4,0.4-0.3,0.6l1.9,14.5
			c0.1,0.4,0.5,0.7,1,0.7c0.1,0,0.2,0,0.2,0c0.2,0,0.5-0.1,0.6-0.3c0.1-0.2,0.2-0.4,0.2-0.6l-0.4-3.4l0.9-1.3l3.4,4.6
			c0.2,0.2,0.4,0.3,0.6,0.3c0.2,0,0.4-0.1,0.6-0.2s0.3-0.3,0.3-0.6C136.8,126.9,136.8,126.7,136.6,126.5z"/>
		<path fill="none" d="M105.8,120.4c-0.2,0-0.3,0-0.5,0l-2,0.3l-0.5-4.1c-0.1-0.4-0.2-0.7-0.6-0.8l0,0c-0.2,0-0.4,0.1-0.6,0.3
			c-0.1,0.2-0.2,0.4-0.2,0.6l1.9,14.4c0.1,0.4,0.4,0.8,0.9,0.8c0.1,0,0.2,0.1,0.2,0.1l2.5-0.3c1.8-0.2,2.9-2.1,2.7-3.9l-0.6-4.6
			C108.7,121.7,107.5,120.5,105.8,120.4z"/>
		<path fill="none" d="M114.6,119.1c-0.2,0-0.4,0-0.5,0c-0.9,0.1-1.8,0.6-2.3,1.3c-0.5,0.7-0.9,1.6-0.8,2.4l0.6,4.8
			c0.2,1.6,1.6,2.8,3.2,2.8c0.2,0,0.4,0,0.6,0c0.9-0.1,1.6-0.6,2.2-1.3c0.5-0.7,0.8-1.6,0.6-2.4l-0.6-4.8
			C117.5,120.4,116.2,119.2,114.6,119.1z"/>
		<path fill="none" d="M162.2,110.2l-2.7,1.7l-2-2.5l-2.7,1.7l-2-2.5l-2.7,1.7l-2-2.5l-2.7,1.7l-2-2.5l-2.7,1.7l-3.6,20.5l7.8,1.3
			c0.3-1.7,1.6-3,3.4-3.2c2.2-0.3,4.2,1.2,4.5,3.4v0.1c0.1,0.3,0.1,0.7,0,1.1l7.9,1.3l3.5-20.5L162.2,110.2z M153.4,124.7
			c0,0.2,0,0.4-0.1,0.6c-0.1,0.2-0.3,0.3-0.5,0.3c-0.1,0-0.2,0-0.2,0c-0.4,0-0.8-0.3-0.9-0.7l-1-7.3c-0.1-0.7-0.6-1.3-1.4-1.3
			c-0.1,0-0.1,0-0.2,0l-1.8,0.2l1.1,8.8c0,0.2,0.1,0.4-0.1,0.6c-0.1,0.2-0.2,0.3-0.4,0.3c0,0-0.1,0-0.2,0c-0.4,0-0.8-0.3-0.8-0.7
			l-1.1-8.8l-3.1,0.4l1.1,8.8c0,0.2,0,0.4-0.1,0.6c-0.1,0.2-0.2,0.3-0.5,0.3c-0.1,0-0.1,0-0.2,0c-0.4,0-0.7-0.3-0.8-0.7l-1.3-9.6
			c-0.1-0.5,0.3-0.8,0.7-0.9l7.1-0.9c0.2,0,0.3,0,0.4,0c1.6,0.1,2.7,1.2,2.9,2.7L153.4,124.7z M160.6,114.1l-1.6,9.7l-0.5,3.1
			c-0.1,0.7-0.5,1.3-0.9,1.8c-0.5,0.5-1.1,0.8-1.8,0.9c-0.1,0-0.1,0-0.2,0c-0.4,0-0.7-0.3-0.8-0.7c0-0.2,0-0.4,0.2-0.6
			c0.1-0.2,0.3-0.3,0.6-0.3c0.7-0.1,1.2-0.6,1.3-1.3l0.5-2.9l-3.9-8.7c-0.2-0.4,0-0.9,0.4-1.1c0.1,0,0.2-0.1,0.4-0.1
			c0.3,0,0.6,0.2,0.7,0.5l2.9,6.5l1.2-7c0.101-0.4,0.4-0.7,0.9-0.7h0.1C160.4,113.3,160.7,113.7,160.6,114.1z"/>
		<path fill="none" d="M184.8,110c-0.2,0-0.399,0-0.6,0c-1.8,0.2-3.2,1.9-2.9,3.7l0.601,4.8c0.199,1.6,1.6,2.8,3.199,2.8
			c0.2,0,0.4,0,0.601,0c0.899-0.1,1.7-0.6,2.2-1.3s0.8-1.6,0.699-2.4l-0.6-4.8C187.8,111.2,186.5,110,184.8,110z"/>
		<path fill="none" d="M176.1,111.2c-0.199,0-0.399,0-0.6,0l-1.6,0.2l-0.5-4.1c-0.101-0.4-0.4-0.7-0.801-0.7c-0.1,0-0.1,0-0.199,0
			c-0.2,0-0.4,0.1-0.601,0.3c-0.1,0.2-0.2,0.4-0.2,0.6l1.9,14.5c0.1,0.4,0.4,0.7,0.8,0.7c0,0-0.1,0,0,0c0.5-0.1,0.601-0.5,0.601-0.9
			L173.8,113l1.9-0.3c0.1,0,0,0,0.1,0c0.8,0,1.2,0.7,1.3,1.4l0.9,7.2c0.1,0.4,0.6,0.7,1,0.7c0,0,0.2,0,0.3,0c0.5-0.1,0.9-0.5,0.8-1
			l-0.899-7.1C179,112.5,177.7,111.3,176.1,111.2z"/>
		<path fill="none" d="M200,108c-0.1,0-0.1,0-0.2,0c-0.399,0.1-0.7,0.4-0.7,0.7c0,0-0.399,3.8-0.8,6.6v0.1v-0.1
			c-1.1-2.7-2.5-6.2-2.5-6.2c-0.1-0.3-0.399-0.5-0.7-0.5c-0.1,0-0.1,0-0.199,0c-0.4,0-0.7,0.3-0.7,0.7c0,0-0.4,3.8-0.8,6.6v0.1v-0.1
			c-1.101-2.7-2.5-6.2-2.5-6.2c-0.101-0.3-0.4-0.5-0.7-0.5c-0.101,0-0.2,0-0.3,0.1c-0.4,0.2-0.601,0.6-0.5,1.1l3.699,9.3
			c0.101,0.3,0.4,0.5,0.7,0.5h0.101c0.399-0.1,0.699-0.3,0.699-0.7c0,0,0.5-3.8,0.801-6.6v-0.1v0.1c1.1,2.7,2.5,6.2,2.5,6.2
			c0.1,0.3,0.399,0.5,0.699,0.5h0.101c0.399-0.1,0.7-0.3,0.7-0.7l1.199-10c0-0.2,0-0.4-0.199-0.6C200.4,108.1,200.2,108,200,108z"/>
		<path fill="none" d="M169.5,117.7l-2.5-1.3c-0.4-0.2-0.6-0.5-0.7-0.9c-0.1-0.4,0-0.8,0.3-1.1c0.301-0.3,0.7-0.5,1.101-0.5
			c0.399,0,0.8,0.2,1,0.5c0.1,0.2,0.399,0.3,0.6,0.3s0.4,0,0.601-0.2c0.199-0.1,0.3-0.3,0.3-0.6c0-0.2,0-0.5-0.2-0.6
			c-0.5-0.7-1.4-1.2-2.4-1.2l0,0c-0.899,0-1.8,0.4-2.399,1.1c-0.601,0.7-0.9,1.6-0.7,2.5c0.2,0.9,0.8,1.7,1.6,2.1l2.5,1.3
			c0.4,0.2,0.7,0.6,0.801,1c0.1,0.4,0,0.9-0.301,1.2c-0.3,0.3-0.699,0.5-1.199,0.5c-0.4,0-0.801-0.2-1.101-0.6
			c-0.1-0.2-0.399-0.3-0.6-0.3s-0.4,0.1-0.601,0.2c-0.199,0.1-0.3,0.3-0.3,0.5c0,0.2,0,0.5,0.2,0.6c0.6,0.7,1.4,1.2,2.4,1.2h0.1
			c1,0,1.9-0.4,2.5-1.1c0.6-0.7,0.9-1.7,0.7-2.6C170.9,118.9,170.3,118.1,169.5,117.7z"/>
		<path fill="#FF6F6F" d="M159.9,113.2L159.9,113.2c-0.5,0-0.9,0.3-0.9,0.7l-1.2,7l-2.9-6.5c-0.1-0.3-0.4-0.4-0.7-0.5
			c-0.1,0-0.2,0-0.4,0.1c-0.4,0.2-0.6,0.7-0.4,1.1l3.9,8.7l-0.5,2.9c-0.1,0.7-0.6,1.2-1.3,1.3c-0.2,0-0.4,0.1-0.6,0.3
			c-0.1,0.2-0.2,0.4-0.2,0.6c0.1,0.4,0.4,0.7,0.8,0.7c0.1,0,0.1,0,0.2,0c0.7-0.1,1.3-0.4,1.8-0.9c0.5-0.4,0.8-1,0.9-1.8l0.5-3.1
			l1.6-9.7C160.7,113.7,160.4,113.3,159.9,113.2z"/>
		<path fill="#FF6F6F" d="M149.5,114.7c-0.2,0-0.3,0-0.4,0l-7.1,0.9c-0.5,0.1-0.8,0.4-0.7,0.9l1.3,9.6c0,0.4,0.4,0.7,0.8,0.7
			c0,0,0.1,0,0.2,0c0.2,0,0.3-0.1,0.5-0.3c0.1-0.2,0.1-0.4,0.1-0.6l-1.1-8.8l3.1-0.4l1.1,8.8c0.1,0.4,0.4,0.7,0.8,0.7
			c0,0,0.1,0,0.2,0c0.2,0,0.3-0.1,0.4-0.3c0.1-0.2,0.1-0.4,0.1-0.6l-1.1-8.8l1.8-0.2c0.1,0,0.1,0,0.2,0c0.8,0,1.3,0.6,1.4,1.3l1,7.3
			c0.1,0.4,0.5,0.7,0.9,0.7h0.2c0.2,0,0.3-0.1,0.5-0.3c0.1-0.2,0.1-0.4,0.1-0.6l-1-7.3C152.2,115.9,151,114.8,149.5,114.7z"/>
		<g>
			<g>
				<g>
					<g>
						<g>
							<defs>
								
									<rect id="SVGID_1_" x="48.759" y="43.892" transform="matrix(0.9921 -0.1258 0.1258 0.9921 -13.8409 21.1572)" width="223.606" height="152.505"/>
							</defs>
							<clipPath id="SVGID_2_">
								<use xlink:href="#SVGID_1_"  overflow="visible"/>
							</clipPath>
							<g clip-path="url(#SVGID_2_)">
								
									<rect x="44.385" y="41.599" transform="matrix(-0.9922 0.1245 -0.1245 -0.9922 334.6275 220.1835)" fill="#C6BBA7" width="232.098" height="157.896"/>
								<path fill="#7CC7EE" d="M178.226,134.283c2.776-0.338,5.551-0.678,8.329-1.017c1.256,10.016,2.528,20.026,3.742,30.044
									c0.133,1.11,0.498,1.305,1.499,1.174c9.224-1.195,18.459-2.328,27.686-3.515c0.898-0.114,1.257,0.049,1.379,1.064
									c1.223,10.057,2.496,20.109,3.754,30.162c-30.196,3.788-60.394,7.577-90.589,11.366c-2.584-20.564-5.162-41.13-7.776-61.69
									c-0.122-0.964,0.25-1.099,1.006-1.193c5.704-0.701,11.402-1.437,17.103-2.163c0.448-0.049,0.895-0.097,1.342-0.146
									c0.62,3.554,1.301,7.099,1.823,10.668c0.163,1.113,0.555,1.219,1.458,1.051c3.976-0.734,7.957-1.429,11.941-2.121
									c5.135-0.896,10.278-1.775,15.416-2.659c1.455-0.252,1.458-0.249,1.169-1.796c-0.036-0.192-0.117-0.377-0.145-0.569
									c-0.379-2.8-1.092-5.544-1.336-8.366C176.759,134.478,177.493,134.38,178.226,134.283z M140.105,188.349
									c-0.005,0.001-0.01,0.001-0.016,0.002c0.088,0.702,0.21,1.4,0.256,2.104c0.054,0.849,0.423,1.178,1.249,1.071
									c3.75-0.485,7.504-0.954,11.257-1.411c0.842-0.102,1.023-0.549,0.912-1.372c-0.105-0.789-0.326-1.274-1.189-1.158
									c-0.899,0.121-1.8,0.262-2.703,0.318c-0.431,0.028-1.127,0.485-1.26-0.242c-0.146-0.791-0.726-1.746,0.316-2.441
									c1.01-0.674,1.945-1.471,2.966-2.127c0.87-0.559,1.102-1.269,0.869-2.275c-0.231-1.005-0.43-1.129-1.289-0.52
									c-1.178,0.837-2.375,1.657-3.476,2.593c-0.563,0.479-0.802,0.377-1.262-0.118c-1.121-1.208-3.128-1.525-4.646-0.835
									c-1.557,0.707-2.405,2.201-2.268,4.071C139.876,186.794,140.007,187.571,140.105,188.349z M207.597,183.22
									c0-0.002,0-0.003,0-0.005c1.875-0.234,3.747-0.493,5.627-0.694c0.876-0.094,1.019-0.564,0.911-1.365
									c-0.102-0.781-0.327-1.263-1.202-1.136c-1.235,0.178-2.475,0.333-3.715,0.449c-0.392,0.035-0.977,0.417-1.144-0.293
									c-0.145-0.613-0.4-1.317,0.354-1.782c0.417-0.259,0.794-0.593,1.188-0.894c1.029-0.784,2.077-1.549,3.087-2.362
									c0.568-0.457,0.718-2.101,0.208-2.567c-0.697-0.641-1.087,0.186-1.51,0.497c-1.381,1.016-2.744,2.063-4.041,3.189
									c-0.655,0.571-1.188,0.568-1.923,0.193c-1.362-0.695-2.762-1.307-4.16-1.917c-0.446-0.194-1.045-0.779-1.384-0.099
									c-0.328,0.651-0.19,1.472,0.355,2.062c0.223,0.242,0.572,0.375,0.884,0.514c1.323,0.593,2.633,1.224,3.986,1.732
									c0.891,0.333,0.818,1.073,0.827,1.729c0.009,0.72-0.669,0.472-1.055,0.539c-1.039,0.182-2.096,0.307-3.147,0.408
									c-0.885,0.083-1.125,0.538-1.017,1.422c0.114,0.908,0.489,1.214,1.358,1.087
									C203.915,183.654,205.758,183.451,207.597,183.22z M173.319,154.925c1.878-0.235,3.752-0.477,5.631-0.703
									c0.625-0.075,1.104-0.225,0.995-1.063c-0.302-2.257-0.574-4.518-0.851-6.78c-0.099-0.797-0.599-0.903-1.233-0.836
									c-0.657,0.068-0.946,0.44-0.869,1.104c0.094,0.819,0.214,1.634,0.318,2.453c0.356,2.784,0.351,2.752-2.342,3.105
									c-0.773,0.103-0.991-0.155-1.037-0.897c-0.062-0.938-0.201-1.874-0.334-2.806c-0.111-0.776-0.618-0.887-1.263-0.8
									c-0.65,0.087-0.939,0.423-0.828,1.111c0.057,0.349,0.095,0.701,0.14,1.05c0.372,2.846,0.369,2.825-2.449,3.048
									c-0.606,0.048-0.805-0.142-0.862-0.73c-0.126-1.291-0.338-2.572-0.433-3.863c-0.065-0.896-0.519-1.162-1.271-1.08
									c-0.738,0.081-1.014,0.494-0.896,1.291c0.295,2.02,0.557,4.045,0.791,6.073c0.099,0.846,0.458,1.146,1.279,1.026
									C169.64,155.362,171.482,155.157,173.319,154.925z M177.253,185.808c0,0.002,0,0.003,0.001,0.005
									c1.802-0.227,3.601-0.479,5.405-0.666c0.878-0.09,1.275-0.396,1.165-1.407c-0.116-1.064-0.615-1.341-1.526-1.167
									c-0.296,0.054-0.601,0.083-0.901,0.113c-1.013,0.104-2.293,0.64-2.97,0.191c-0.791-0.524-0.403-2.027-0.634-3.086
									c-0.009-0.038-0.014-0.079-0.014-0.117c-0.029-0.991-0.592-1.159-1.392-1.001c-1.037,0.203-0.752,0.987-0.671,1.665
									c0.381,3.181,0.38,3.164-2.615,3.41c-0.58,0.049-0.819-0.086-0.876-0.708c-0.107-1.172-0.293-2.337-0.424-3.508
									c-0.084-0.736-0.347-1.145-1.169-1.045c-0.847,0.102-1.069,0.538-0.956,1.354c0.258,1.868,0.508,3.737,0.699,5.611
									c0.097,0.938,0.517,1.185,1.363,1.063C173.571,186.246,175.415,186.039,177.253,185.808z M143.72,156.046
									c-0.001-0.001-0.001-0.002-0.001-0.004c1.614-0.202,3.227-0.42,4.845-0.601c0.721-0.082,0.949-0.439,0.873-1.18
									c-0.133-1.297-0.266-1.464-1.577-1.306c-2.966,0.357-5.935,0.725-8.894,1.144c-0.771,0.11-1.116-0.059-1.16-0.91
									c-0.044-0.86-0.229-1.714-0.3-2.574c-0.06-0.735-0.465-0.928-1.075-0.864c-0.606,0.064-1.15,0.226-1.047,1.05
									c0.407,3.275,0.821,6.548,1.219,9.824c0.103,0.842,0.674,0.878,1.251,0.789c0.52-0.083,1.026-0.244,0.875-1.044
									c-0.164-0.885-0.185-1.801-0.361-2.684c-0.158-0.796,0.125-1.023,0.846-1.089
									C140.719,156.459,142.217,156.235,143.72,156.046z"/>
								<path fill="#E8E7E3" d="M235.14,31.629c9.765-1.225,19.534-2.438,29.293-3.698c0.773-0.1,0.944,0.042,1.045,0.843
									c2.554,20.595,5.144,41.186,7.728,61.777c-9.574,1.203-19.147,2.407-28.724,3.612c-1.464,0.183-1.464,0.185-1.276,1.7
									c1.139,9.165,2.277,18.328,3.416,27.492c-0.326,0.34,0.089,0.835-0.285,1.294c-0.184-2.464-1.147-4.588-1.956-6.757
									c-0.327-0.875-0.812-1.602-1.644-2.149c-1.718-1.129-3.488-0.935-5.232-0.393c-2.221,0.689-4.34,1.777-6.593,2.299
									c-2.957,0.685-5.638,2.164-8.647,2.745c-1.964,0.378-3.839,1.435-5.809,2.031c-0.19,0.057-0.326,0.299-0.487,0.457
									c-0.162-1.163-0.334-2.325-0.481-3.489c-0.905-7.103-1.803-14.21-2.705-21.315c-1.301-10.434-2.602-20.868-3.903-31.302
									l-0.001,0.001c3.225-0.392,6.444-0.783,9.669-1.175c-0.255,2.194-0.464,4.398-0.778,6.583
									c-0.356,2.488-0.571,5.003-0.986,7.475c-0.314,1.87-0.038,3.647,0.044,5.464c0.127,0.016,0.255,0.03,0.382,0.044
									c0.901-6.602,1.802-13.205,2.703-19.809c0.388-2.93,0.775-5.86,1.163-8.792c0.043-0.267,0.13-0.534,0.121-0.801
									c-0.036-1.003,0.36-1.232,1.293-0.991c1.009,0.259,2.063,0.324,3.097,0.474c4.181,0.662,8.361,1.323,12.543,1.984
									c4.146,0.636,8.288,1.294,12.438,1.887c0.778,0.11,0.96,0.379,0.798,1.138c-0.196,0.941-0.247,1.913-0.395,2.869
									c-0.547,3.55-1.061,7.109-1.49,10.678c-0.603,5.042-1.536,10.033-1.947,15.105c-0.057,0.706,0.009,1.571-1.47,1.352
									c-7.439-1.108-14.866-2.314-22.303-3.46c-1.678-0.259-3.361-0.506-5.045-0.743c-0.324-0.045-0.746-0.151-0.879,0.283
									c-0.131,0.422,0.261,0.641,0.541,0.8c0.529,0.3,1.076,0.591,1.647,0.776c2.813,0.907,5.762,0.978,8.639,1.496
									c3.158,0.568,6.341,1.013,9.518,1.486c2.635,0.392,5.26,1.152,7.964,0.676c1.444-0.254,2.513-1.031,3.111-2.396
									c0.767-1.751,1.042-3.679,1.24-5.546c0.308-2.91,0.757-5.796,1.118-8.695c0.52-4.17,1.186-8.319,1.531-12.515
									c0.154-1.877-0.84-3.667-2.485-4.539c-1.511-0.798-3.157-0.916-4.786-1.234c-2.56-0.502-5.15-0.704-7.705-1.192
									C237.158,47.516,236.149,39.573,235.14,31.629z M229.339,70.229c2.757,2.669,5.358,5.192,7.969,7.704
									c0.304,0.29,0.631,0.584,1,0.76c0.859,0.414,1.36,0.129,1.498-0.85c0.388-2.741,0.73-5.49,1.136-8.229
									c0.108-0.77-0.19-1.066-0.865-1.206c-0.854-0.176-1.166,0.244-1.267,1.039c-0.242,1.914-0.512,3.821-0.792,5.911
									c-2.395-2.339-4.618-4.52-6.856-6.689c-0.608-0.59-1.201-1.225-1.894-1.689c-0.941-0.632-1.586-0.293-1.748,0.838
									c-0.357,2.517-0.682,5.04-1.034,7.557c-0.113,0.792,0.092,1.277,0.942,1.396c0.814,0.115,1.07-0.293,1.161-1.034
									C228.811,73.961,229.067,72.192,229.339,70.229z"/>
								<path fill="#EF4835" d="M118.328,78.084c-1.257-9.967-2.514-19.935-3.773-29.902c-0.058-0.466-0.135-0.932-0.202-1.398
									c30.196-3.789,60.394-7.578,90.59-11.367c1.312,10.452,2.624,20.904,3.936,31.356l0.001-0.001
									c-10.068,1.273-20.138,2.545-30.208,3.818c-2.472,0.314-4.942,0.631-7.412,0.946c-0.339,0.031-0.678,0.106-1.014,0.087
									c-1.121-0.064-1.386,0.476-1.421,1.599c-0.221,6.776-0.532,13.546-0.809,20.32c-0.07,1.778-0.061,1.765-1.73,1.671
									c-3.172-0.177-6.344-0.363-9.518-0.494c-1.919-0.078-3.835-0.381-5.759-0.17c-0.574-0.237-1.183-0.205-1.781-0.236
									c-3.604-0.189-7.208-0.38-10.812-0.548c-0.454-0.021-0.826-0.066-0.981-0.579c0.269-0.899,0.314-1.806,0.06-2.723
									c0.353-1.886,0.231-3.807,0.335-5.712c0.147-2.694,0.225-5.393,0.346-8.09c0.032-0.703-0.177-1.009-0.918-0.884
									c-0.969,0.165-1.953,0.231-2.929,0.351C128.994,76.78,123.66,77.433,118.328,78.084z M184.366,53.959
									c0.483,4.174,3.715,6.86,7.686,6.386c4.051-0.482,6.608-3.84,6.115-8.023c-0.482-4.076-3.792-6.773-7.77-6.332
									C186.437,46.43,183.885,49.801,184.366,53.959z M159.703,77.925c-0.314-2.583-1.661-4.167-4.155-4.584
									c-2.805-0.468-5.656-0.371-8.483-0.563c-0.488-0.033-0.666,0.25-0.788,0.658c-0.367,1.222,0.063,1.886,1.304,1.955
									c2.303,0.128,4.608,0.226,6.912,0.362c0.955,0.056,1.882,0.203,2.459,1.18c0.699,1.18,0.736,2.367,0.15,3.579
									c-0.6,1.234-1.672,1.476-2.874,1.413c-2.378-0.124-4.76-0.226-7.135-0.397c-1.02-0.074-1.213,0.514-1.27,1.349
									c-0.059,0.881,0.369,1.175,1.156,1.207c2.305,0.092,4.609,0.204,6.91,0.339C157.874,84.659,160.206,82.063,159.703,77.925z
									 M156.274,55.872c2.665,1.476,5.189,2.882,7.72,4.275c0.902,0.495,1.787,1.045,2.732,1.426
									c1.048,0.421,1.721-0.106,1.593-1.133c-0.34-2.727-0.72-5.449-1.029-8.179c-0.104-0.935-0.495-1.194-1.354-1.035
									c-0.795,0.147-0.823,0.648-0.74,1.292c0.246,1.92,0.484,3.84,0.749,5.951c-1.623-0.896-3.02-1.675-4.423-2.444
									c-1.845-1.013-3.69-2.026-5.54-3.026c-0.551-0.298-1.142-0.482-1.731-0.131c-0.617,0.367-0.342,0.973-0.284,1.487
									c0.275,2.418,0.589,4.833,0.855,7.252c0.09,0.809,0.278,1.333,1.244,1.21c0.965-0.123,1.024-0.666,0.906-1.482
									C156.712,59.565,156.515,57.786,156.274,55.872z M131.142,61.968c1.835-0.23,3.667-0.479,5.505-0.683
									c0.819-0.09,1.118-0.485,0.983-1.327c-0.123-0.752-0.235-1.358-1.239-1.224c-3.739,0.505-7.484,0.967-11.231,1.409
									c-0.916,0.108-1.083,0.588-0.979,1.439c0.11,0.89,0.467,1.232,1.346,1.104C127.393,62.416,129.27,62.206,131.142,61.968z"/>
								<path fill="#E8E7E3" d="M224.613,192.195c-1.258-10.053-2.53-20.104-3.753-30.162c-0.122-1.015-0.48-1.178-1.379-1.063
									c-9.227,1.187-18.462,2.32-27.687,3.513c-1,0.131-1.365-0.063-1.498-1.172c-1.213-10.02-2.487-20.03-3.742-30.045
									l-0.012,0.016c8.78-1.09,17.557-2.183,26.337-3.272c1.527,4.804,3.059,9.604,4.577,14.408
									c0.675,2.139,1.174,4.365,2.464,6.231c0.773,1.122,0.61,2.667,1.787,3.728c-0.111-0.669-0.165-1.212-0.351-1.769
									c-1.07-3.219-2.108-6.451-3.145-9.682c-1.404-4.383-2.798-8.77-4.194-13.156c-0.347-1.068-0.687-2.139-1.036-3.206
									c-0.218-0.663-0.111-1.026,0.644-1.257c0.844-0.257,1.755-0.38,2.511-0.912c4.257-1.391,8.518-2.77,12.768-4.179
									c3.966-1.313,7.928-2.639,11.875-4.007c0.651-0.227,0.72,0.002,1.003,0.55c0.465,0.897,0.531,1.869,0.833,2.787
									c1.062,3.263,2.093,6.536,3.188,9.786c0.781,2.323,1.389,4.709,2.414,6.94c0.516,2.692,1.533,5.226,2.364,7.817
									c0.568,1.771,0.583,1.765-1.026,2.417c-1.396,0.457-2.794,0.904-4.186,1.37c-3.969,1.329-7.937,2.659-11.9,4.002
									c-3.035,1.027-6.066,2.065-9.086,3.138c-0.301,0.108-0.926,0.076-0.828,0.599c0.104,0.538,0.628,0.204,0.972,0.234
									c1.89,0.167,3.589-0.479,5.34-1.107c2.646-0.95,5.311-1.87,8.002-2.705c3.683-1.146,7.256-2.659,11.03-3.517
									c0.373-0.084,0.601-0.278,0.806-0.561c0.174,1.285,0.358,2.568,0.52,3.854c1.532,12.198,3.062,24.396,4.589,36.593
									C244.747,189.668,234.68,190.932,224.613,192.195z M226.525,135.991c3.432,1.085,6.58,2.085,9.733,3.07
									c0.577,0.18,1.172,0.38,1.764,0.409c1.028,0.048,1.408-0.451,1.103-1.445c-0.818-2.655-1.693-5.29-2.534-7.936
									c-0.224-0.703-0.631-0.93-1.304-0.696c-0.706,0.244-0.958,0.679-0.685,1.439c0.289,0.812,0.562,1.631,0.794,2.462
									c0.297,1.064,0.795,2.074,0.93,3.257c-3.468-1.091-6.834-2.157-10.206-3.208c-0.395-0.123-0.813-0.244-1.217-0.246
									c-1.003-0.006-1.37,0.508-1.058,1.513c0.77,2.47,1.583,4.926,2.367,7.393c0.227,0.714,0.592,1.061,1.353,0.784
									c0.772-0.282,0.933-0.736,0.651-1.54C227.637,139.595,227.137,137.913,226.525,135.991z M201.22,147.526
									c-1.228,0.929-2.32,1.826-3.481,2.613c-0.875,0.595-1.014,1.356-0.818,2.333c0.179,0.901,0.558,1.043,1.238,0.483
									c1.384-1.144,2.81-2.238,4.147-3.437c0.64-0.573,1.146-0.616,1.895-0.224c1.661,0.867,3.375,1.628,5.069,2.424
									c0.739,0.347,1.134,0.229,1.081-0.751c-0.054-1.021-0.433-1.662-1.4-2.028c-1.416-0.539-2.79-1.198-4.271-1.845
									c0.381-0.29,0.674-0.51,0.966-0.736c1.022-0.798,2.058-1.582,3.063-2.404c0.611-0.501,0.849-2.077,0.332-2.556
									c-0.741-0.683-1.148,0.204-1.597,0.547c-1.269,0.979-2.521,1.989-3.698,3.083c-0.698,0.651-1.287,0.648-2.094,0.229
									c-1.561-0.811-3.171-1.521-4.762-2.264c-0.809-0.377-1.104-0.084-1.059,0.81c0.047,1.014,0.409,1.68,1.391,2.04
									C198.54,146.328,199.822,146.931,201.22,147.526z M240.918,174.379c-0.382,0.171-0.693,0.3-0.998,0.45
									c-2.717,1.343-5.437,2.677-8.144,4.045c-0.751,0.381-0.994,1.504-0.515,2.346c0.494,0.865,1.072,0.224,1.545-0.022
									c3.398-1.758,6.768-3.569,10.174-5.311c0.873-0.446,1.036-1.046,0.927-1.985c-0.111-0.942-0.526-1.361-1.388-1.559
									c-3.729-0.854-7.447-1.758-11.17-2.632c-1.451-0.34-1.774,0.057-1.392,1.56c0.182,0.719,0.694,0.854,1.266,0.978
									C234.404,172.947,237.582,173.646,240.918,174.379z"/>
								<path fill="#7CC7EE" d="M254.811,188.406c-1.526-12.198-3.056-24.396-4.588-36.593c-0.161-1.286-0.346-2.569-0.521-3.853
									c-0.048-0.484-0.1-0.97-0.146-1.455c1.608-0.651,1.594-0.646,1.024-2.416c-0.83-2.592-1.848-5.125-2.364-7.817
									c-0.363-3.032-0.726-6.065-1.09-9.096c-0.061-0.504-0.181-1.008,0.025-1.504c9.996-1.255,19.993-2.511,29.988-3.767
									c2.58,20.565,5.155,41.132,7.76,61.695c0.101,0.79,0.041,1.057-0.825,1.163
									C274.314,185.942,264.563,187.183,254.811,188.406z M274.344,172.558c-0.093-0.74-0.149-1.488-0.285-2.219
									c-0.698-3.811-3.578-5.962-7.368-5.531c-3.811,0.436-6.142,3.165-5.932,7.029c0.077,1.407,0.346,2.805,0.448,4.214
									c0.077,1.062,0.5,1.425,1.532,1.282c2.956-0.413,5.925-0.753,8.89-1.123C274.789,175.814,274.788,175.813,274.344,172.558z
									 M263.929,143.553c1.878-0.236,3.754-0.483,5.635-0.7c0.659-0.077,1.062-0.294,0.953-1.101
									c-0.299-2.22-0.576-4.443-0.841-6.668c-0.081-0.705-0.466-0.948-1.087-0.889c-0.64,0.061-1.096,0.32-0.997,1.11
									c0.1,0.78,0.191,1.561,0.289,2.341c0.372,2.96,0.371,2.937-2.498,3.195c-0.613,0.055-0.796-0.136-0.848-0.727
									c-0.08-0.939-0.23-1.873-0.338-2.809c-0.104-0.903-0.655-1.102-1.384-0.918c-1.249,0.314-0.661,1.313-0.585,2.032
									c0.307,2.848,0.327,2.81-2.38,3.118c-0.754,0.085-0.898-0.195-0.959-0.857c-0.116-1.25-0.325-2.494-0.446-3.745
									c-0.079-0.835-0.504-1.055-1.234-0.965c-0.728,0.088-0.958,0.503-0.864,1.214c0.261,2.027,0.527,4.053,0.756,6.083
									c0.098,0.872,0.504,1.107,1.307,0.988C260.244,143.985,262.088,143.781,263.929,143.553z"/>
								<path fill="#F5998E" d="M277.14,121.907c-9.995,1.255-19.992,2.511-29.987,3.765c-0.483-0.698-0.303-1.556-0.531-2.316
									c-1.139-9.164-2.277-18.328-3.416-27.492c-0.188-1.515-0.188-1.517,1.277-1.7c9.575-1.206,19.148-2.409,28.724-3.612
									C274.517,101.002,275.829,111.454,277.14,121.907z M259.965,111.739c1.876-0.235,3.748-0.483,5.626-0.7
									c0.755-0.087,1.044-0.433,0.934-1.243c-0.294-2.099-0.557-4.203-0.79-6.309c-0.092-0.794-0.432-1.099-1.197-1.001
									c-0.754,0.095-1.053,0.452-0.931,1.255c0.194,1.28,0.278,2.578,0.508,3.85c0.154,0.85-0.134,1.064-0.895,1.149
									c-2.93,0.326-5.85,0.728-8.777,1.077c-0.873,0.102-1.522,0.261-1.408,1.464c0.127,1.303,0.851,1.247,1.757,1.119
									C256.513,112.153,258.24,111.958,259.965,111.739z"/>
								<path fill="#F5998E" d="M208.878,66.775c-1.312-10.452-2.623-20.904-3.936-31.356c10.066-1.263,20.133-2.526,30.198-3.789
									c1.009,7.944,2.018,15.887,3.028,23.831c-0.088,0.588,0.329,1.194-0.042,1.772c-4.182-0.661-8.363-1.322-12.544-1.984
									c0.229-0.125,0.497-0.208,0.682-0.383c2.758-2.574,2.922-7.54,0.358-10.423c-2.607-2.929-7.351-3.036-10.13-0.355
									c-2.925,2.819-3.184,9.56,2.483,12.201c0.54,0.252,1.339,0.788,2.097,0.278c-0.388,2.931-0.775,5.86-1.162,8.792
									c-0.456,0.081-0.91,0.161-1.363,0.242C215.322,65.992,212.102,66.383,208.878,66.775z"/>
								<path fill="#7CC7EE" d="M105.894,126.923c0.272-0.045,0.544-0.089,0.815-0.133c0.925,0.29,0.485,1.347,0.993,1.872
									c-0.289,0.568-0.106,1.156-0.035,1.733c1.468,11.734,2.929,23.47,4.435,35.201c0.142,1.11-0.097,1.509-1.198,1.643
									c-9.204,1.112-18.402,2.27-27.595,3.461c-0.987,0.127-1.297-0.104-1.424-1.146c-1.535-12.518-3.104-25.033-4.712-37.542
									c-0.146-1.128,0.101-1.511,1.193-1.597c1.732-0.136,3.45-0.441,5.175-0.676c0.386-0.038,0.772-0.075,1.16-0.112l0.011,0.022
									c0.081,0.073,0.163,0.147,0.245,0.221c0.266,0.857,0.56,1.709,0.792,2.576c0.243,0.907,0.625,1.121,1.55,0.792
									c5.869-2.084,11.763-4.091,17.65-6.12c0.213-0.074,0.442-0.098,0.665-0.145
									C105.708,126.957,105.801,126.939,105.894,126.923z M88.639,160.647c0.016-0.002,0.032-0.002,0.049-0.003
									c0.088,0.701,0.197,1.401,0.259,2.106c0.075,0.878,0.458,1.25,1.342,1.135c3.679-0.484,7.36-0.942,11.043-1.386
									c0.837-0.102,1.175-0.446,1.069-1.383c-0.112-0.984-0.543-1.298-1.43-1.158c-0.747,0.118-1.51,0.141-2.25,0.3
									c-0.837,0.18-1.263,0-1.292-0.991c-0.025-0.779-0.179-1.564-0.354-2.327c-0.5-2.174-2.363-3.462-4.644-3.25
									c-2.308,0.217-3.894,1.779-3.969,4.022C88.43,158.687,88.575,159.667,88.639,160.647z M93.302,142.591
									c1.837-0.231,3.672-0.472,5.512-0.686c0.785-0.093,1.125-0.439,0.999-1.315c-0.293-2.059-0.545-4.124-0.78-6.189
									c-0.087-0.776-0.405-1.121-1.182-1.028c-0.763,0.089-1.042,0.458-0.921,1.255c0.194,1.281,0.287,2.576,0.511,3.85
									c0.143,0.828-0.107,1.066-0.888,1.152c-3.042,0.333-6.074,0.756-9.112,1.12c-0.919,0.11-1.202,0.578-1.069,1.509
									c0.131,0.938,0.604,1.146,1.422,1.03C89.626,143.032,91.464,142.821,93.302,142.591z"/>
								<path fill="#7CC7EE" d="M212.881,130.009c-8.78,1.09-17.558,2.182-26.336,3.272c-1.246-9.96-2.491-19.921-3.733-29.881
									c-0.064-0.505-0.109-1.013-0.167-1.519c7.313-0.908,14.625-1.812,21.936-2.727c2.736-0.342,5.468-0.717,8.203-1.078
									c0.901,7.106,1.8,14.212,2.703,21.316c0.148,1.165,0.32,2.325,0.48,3.488c0.059,0.504,0.114,1.01,0.171,1.513
									c-0.756,0.531-1.666,0.654-2.513,0.912c-0.752,0.23-0.858,0.593-0.642,1.257c0.351,1.067,0.69,2.137,1.037,3.207
									C213.641,129.85,213.262,129.93,212.881,130.009z M201.107,112.378c0.026,0.436-0.289,0.492-0.469,0.651
									c-2.354,2.069-4.7,4.151-7.079,6.187c-0.849,0.726-0.695,1.609-0.441,2.467c0.282,0.945,1.065,0.443,1.653,0.452
									c0.227,0.004,0.451-0.044,0.678-0.071c3.264-0.408,6.526-0.827,9.791-1.217c0.84-0.101,1.285-0.365,1.166-1.404
									c-0.125-1.099-0.629-1.246-1.534-1.12c-2.597,0.363-5.201,0.667-8.083,1.028c0.398-0.332,0.595-0.487,0.779-0.651
									c2.414-2.117,4.817-4.243,7.236-6.35c0.854-0.743,0.557-1.661,0.292-2.489c-0.249-0.78-0.969-0.418-1.488-0.355
									c-3.567,0.429-7.127,0.903-10.695,1.318c-0.886,0.104-1.133,0.513-1.046,1.399c0.093,0.98,0.517,1.273,1.424,1.147
									C195.887,113.013,198.492,112.706,201.107,112.378z"/>
								<path fill="#F5998E" d="M176.024,134.576c0.245,2.82,0.958,5.566,1.338,8.365c0.026,0.193,0.107,0.377,0.144,0.568
									c0.289,1.547,0.286,1.546-1.169,1.796c-5.14,0.885-10.281,1.764-15.416,2.659c-3.983,0.693-7.965,1.387-11.942,2.122
									c-0.904,0.168-1.295,0.062-1.457-1.052c-0.522-3.568-1.204-7.113-1.825-10.667c-1.089-6.347-2.185-12.694-3.276-19.042
									c0.075-0.091,0.148-0.181,0.223-0.272c1.354-0.13,2.674-0.448,4.011-0.691c4.344-0.79,8.718-1.402,13.059-2.197
									c3.82-0.701,7.678-1.176,11.459-2.079c0.583-0.14,1.237-0.402,1.404,0.711c0.624,4.104,1.22,8.221,2.049,12.284
									C175.136,129.576,175.184,132.152,176.024,134.576z M160.121,136.77c-0.001,0.003-0.001,0.006,0,0.008
									c1.898-0.335,3.794-0.669,5.691-1.008c0.499-0.089,1.102-0.231,0.979-0.885c-0.411-2.223-0.365-4.576-1.506-6.6
									c-1.284-2.275-4.299-2.585-5.929-0.692c-0.878,1.021-0.878,1.021-2.208,0.572c-2.229-0.747-4.33,0.757-4.465,3.228
									c-0.097,1.784,0.469,3.49,0.682,5.239c0.118,0.958,0.62,1.233,1.509,1.061C156.617,137.354,158.37,137.075,160.121,136.77z"
									/>
								<path fill="#F5998E" d="M212.781,98.076c-2.734,0.361-5.465,0.736-8.201,1.078c-7.311,0.916-14.624,1.819-21.936,2.727
									c-1.242-9.849-2.484-19.695-3.729-29.542c-0.072-0.584-0.162-1.165-0.244-1.748c10.07-1.272,20.14-2.545,30.208-3.818
									C210.18,77.208,211.48,87.643,212.781,98.076z M195.866,90.192c0,0.001,0,0.002,0,0.003
									c1.878-0.235,3.754-0.475,5.633-0.705c0.775-0.095,1.134-0.452,0.993-1.329c-0.25-1.511-0.367-3.044-0.65-4.548
									c-0.639-3.394-3.28-5.501-6.633-5.37c-3.836,0.15-6.308,2.369-6.631,5.992c-0.182,2.017,0.324,3.982,0.546,5.968
									c0.083,0.744,0.664,0.751,1.226,0.681C192.188,90.653,194.026,90.422,195.866,90.192z"/>
								<path fill="#F5998E" d="M118.328,78.084c5.332-0.651,10.666-1.305,16-1.955c0.976-0.119,1.961-0.186,2.93-0.349
									c0.74-0.125,0.951,0.181,0.918,0.883c-0.12,2.697-0.199,5.396-0.347,8.09c-0.103,1.904,0.019,3.826-0.334,5.712
									c-1.091,0.574-2.083,0.168-3.101-0.304c-1.694-0.781-3.408-1.526-5.13-2.242c-0.49-0.203-1.081-0.781-1.547-0.221
									c-0.446,0.537-0.138,1.283,0.051,1.909c0.167,0.55,0.71,0.676,1.162,0.858c1.539,0.62,3.083,1.221,4.763,1.883
									c-0.305,0.216-0.511,0.36-0.717,0.51c-1.265,0.91-2.544,1.8-3.789,2.74c-0.633,0.477-0.839,1.988-0.312,2.542
									c0.712,0.744,1.15-0.127,1.598-0.459c1.594-1.176,3.157-2.392,4.697-3.639c0.681-0.553,1.388-0.905,2.264-0.854
									c0.155,0.512,0.529,0.556,0.98,0.578c3.604,0.168,7.208,0.358,10.812,0.548c0.598,0.032,1.207-0.001,1.783,0.235
									c0.112,0.754,0.226,1.506,0.336,2.259c0.317,2.613,0.604,5.229,0.963,7.833c0.112,0.811-0.09,1.1-0.882,1.198
									c-9.42,1.159-18.839,2.343-28.256,3.547c-0.762,0.097-0.98-0.17-1.071-0.908C120.857,98.347,119.589,88.217,118.328,78.084z
									"/>
								<path fill="#CAC8C4" d="M107.7,128.663c-0.505-0.525-0.065-1.583-0.992-1.873c1.083-0.78,2.374-1.05,3.582-1.516
									c1.23-0.475,2.504-0.829,3.766-1.222c0.581-0.182,0.696-0.452,0.519-1.116c-1.046-3.893-2.516-7.64-3.677-11.492
									c-0.655-2.168-1.398-4.307-2.1-6.46c-0.195-0.599-0.443-0.841-1.149-0.592c-3.197,1.132-6.427,2.167-9.636,3.267
									c-4.138,1.417-8.27,2.86-12.407,4.292c-1.315,0.456-2.634,0.908-3.954,1.359c-0.239,0.083-0.551,0.28-0.706-0.033
									c-0.173-0.351,0.153-0.571,0.395-0.738c3.08-2.121,6.51-3.366,10.036-4.465c2.278-0.71,4.496-1.752,6.772-2.417
									c2.1-0.613,4.061-1.933,6.43-1.658c0.857,0.1,1.758-0.347,2.651-0.46c1.635-0.206,2.849,0.882,3.683,2.38
									c1.484,2.666,2.047,5.675,3.313,8.429c0.937,2.04,1.685,4.288,1.879,6.623c0.158,1.904-0.339,3.486-1.975,4.523
									c-1.713,1.085-3.627,1.674-5.52,2.294C108.104,127.955,107.871,128.221,107.7,128.663z"/>
								<path fill="#CAC8C4" d="M176.024,134.576c-0.841-2.424-0.889-5-1.397-7.493c-0.828-4.064-1.425-8.179-2.05-12.284
									c-0.167-1.113-0.82-0.851-1.403-0.711c-3.782,0.903-7.64,1.379-11.459,2.079c-4.34,0.796-8.716,1.409-13.058,2.198
									c-1.335,0.244-2.658,0.562-4.011,0.691c0.282-1.253,1.263-1.605,2.284-1.955c2.813-0.965,5.825-0.895,8.653-1.623
									c4.363-1.122,8.834-1.465,13.214-2.362c1.311-0.268,2.607-0.231,3.904-0.408c1.258-0.172,3.026,1.114,3.693,2.345
									c0.762,1.403,1.005,2.956,1.231,4.467c0.606,4.096,1.639,8.117,2.063,12.247c0.086,0.837,0.446,1.656,0.533,2.516
									C177.493,134.38,176.759,134.478,176.024,134.576z"/>
								<path fill="#CAC8C4" d="M151.347,96.81c-0.111-0.753-0.225-1.507-0.336-2.26c1.922-0.211,3.84,0.093,5.757,0.17
									c3.176,0.129,6.346,0.317,9.518,0.494c1.672,0.093,1.66,0.106,1.732-1.671c0.276-6.772,0.587-13.544,0.807-20.319
									c0.036-1.123,0.302-1.663,1.423-1.599c0.334,0.019,0.674-0.056,1.013-0.087c-0.249,5.981-0.481,11.964-0.764,17.943
									c-0.076,1.633-0.305,3.254-0.813,4.814c-0.393,1.201-2.866,2.759-4.563,2.666c-2.855-0.161-5.718-0.228-8.564-0.423
									c-1.355-0.091-2.738-0.021-4.088-0.279C151.958,96.162,151.576,96.315,151.347,96.81z"/>
								<path fill="#413333" d="M101.833,112.842c0.164,0.712-0.282,1.064-0.744,1.435c-1.871,1.502-1.865,1.508-1.151,3.813
									c0.72,2.318,0.72,2.32,3.138,2.351c0.496,0.006,1.045-0.043,1.338,0.451c0.29,0.489,0.641,1.054,0.393,1.652
									c-0.251,0.609-0.855,0.364-1.313,0.356c-3.7-0.058-7.4-0.17-11.102-0.199c-1.097-0.009-1.783-0.352-2.071-1.52
									c-0.173-0.699-0.096-1.226,0.448-1.667c3.193-2.59,6.379-5.195,9.591-7.762
									C101.111,111.156,101.676,111.602,101.833,112.842z M92.841,120.541c1.884-0.005,3.534-0.014,5.185-0.014
									c0.552,0,0.496-0.332,0.373-0.705c-0.29-0.885-0.586-1.767-0.92-2.78C95.942,118.202,94.496,119.293,92.841,120.541z"/>
								<path fill="#413333" d="M86.815,100.224c-1.755-0.697-3.34-1.333-4.934-1.951c-0.562-0.218-1.054-0.504-1.143-1.179
									c-0.071-0.528-0.359-1.152,0.096-1.566c0.446-0.405,0.931,0.055,1.367,0.237c1.301,0.543,2.682,0.966,3.863,1.72
									c2.331,1.486,4.727,1.042,7.142,0.642c1.017-0.17,1.353,0.252,1.442,1.236c0.072,0.803-0.206,1.297-0.94,1.258
									c-3.824-0.2-6.622,1.901-9.313,4.279c-0.258,0.228-0.516,0.474-0.816,0.623c-0.511,0.252-0.881,1.209-1.615,0.495
									c-0.535-0.52-0.314-2.027,0.325-2.539c0.713-0.571,1.457-1.102,2.201-1.635C85.227,101.317,85.976,100.808,86.815,100.224z"
									/>
								<path fill="#413333" d="M67.594,202.774c-2.054,0.257-3.769,0.464-5.483,0.693c-0.69,0.091-1.393,0.091-1.493-0.793
									c-0.104-0.907,0.624-1.007,1.293-1.087c1.714-0.204,3.426-0.426,5.445-0.679c-0.861-0.812-1.5-1.438-2.167-2.033
									c-0.515-0.464-0.843-0.977-0.337-1.605c0.531-0.661,1.074-0.287,1.577,0.124c1.437,1.164,2.852,2.358,4.319,3.48
									c0.515,0.394,0.478,0.649,0.125,1.106c-1.151,1.492-2.269,3.015-3.4,4.526c-0.381,0.509-0.818,0.862-1.431,0.381
									c-0.587-0.461-0.465-0.994-0.101-1.542C66.446,204.583,66.931,203.807,67.594,202.774z"/>
								<path fill="#CAC8C4" d="M142.423,119.326c1.091,6.348,2.185,12.696,3.275,19.042c-0.447,0.049-0.894,0.097-1.342,0.147
									c-0.238-2.014-0.216-4.08-1.105-5.973c-0.064-0.137-0.091-0.302-0.102-0.456c-0.236-3.014-0.991-5.946-1.361-8.938
									C141.619,121.796,141.718,120.508,142.423,119.326z"/>
								<path fill="#CAC8C4" d="M84.7,129.628c-0.387,0.037-0.771,0.075-1.159,0.112c0.146-2.506-1.282-4.56-1.858-6.855
									c-0.559-2.241-1.822-4.328-1.497-6.779c0.694,1.07,0.974,2.305,1.367,3.488c0.992,2.995,1.958,6,2.925,9.004
									C84.585,128.93,84.63,129.284,84.7,129.628z"/>
								<path fill="#CAC8C4" d="M84.956,129.87c-0.081-0.073-0.162-0.147-0.244-0.22C84.793,129.723,84.874,129.797,84.956,129.87z"
									/>
								<path fill="#CAC8C4" d="M105.894,126.923c-0.093,0.016-0.186,0.033-0.28,0.05c0.06-0.03,0.119-0.068,0.183-0.088
									C105.824,126.877,105.862,126.91,105.894,126.923z"/>
								<path fill="#413333" d="M140.105,188.349c-0.098-0.778-0.229-1.557-0.285-2.337c-0.137-1.872,0.711-3.366,2.268-4.072
									c1.52-0.689,3.526-0.374,4.646,0.835c0.459,0.496,0.699,0.597,1.262,0.119c1.1-0.938,2.297-1.758,3.476-2.594
									c0.858-0.61,1.057-0.486,1.289,0.519c0.232,1.007-0.001,1.716-0.869,2.276c-1.021,0.657-1.956,1.452-2.966,2.126
									c-1.042,0.694-0.462,1.649-0.316,2.442c0.132,0.726,0.829,0.269,1.26,0.241c0.903-0.057,1.803-0.197,2.703-0.319
									c0.863-0.116,1.084,0.371,1.189,1.158c0.111,0.824-0.069,1.271-0.912,1.373c-3.753,0.458-7.507,0.925-11.256,1.411
									c-0.826,0.107-1.195-0.221-1.249-1.07c-0.048-0.703-0.168-1.402-0.256-2.104
									C140.095,188.351,140.101,188.35,140.105,188.349z M144.401,188.607c2.24-0.282,2.461-0.664,1.671-2.916
									c-0.052-0.147-0.098-0.298-0.171-0.434c-0.332-0.629-0.833-1.007-1.528-1.036c-0.817-0.033-1.62,0.052-2.059,0.891
									c-0.588,1.12-0.357,2.361,0.027,3.41c0.26,0.703,1.202,0.059,1.834,0.11C144.25,188.64,144.327,188.617,144.401,188.607z"/>
								<path fill="#413333" d="M207.597,183.22c-1.838,0.23-3.68,0.436-5.511,0.705c-0.871,0.127-1.245-0.18-1.358-1.086
									c-0.108-0.885,0.132-1.339,1.015-1.424c1.054-0.099,2.108-0.225,3.148-0.407c0.384-0.067,1.063,0.182,1.055-0.537
									c-0.009-0.657,0.063-1.397-0.828-1.731c-1.353-0.507-2.661-1.139-3.984-1.731c-0.312-0.14-0.661-0.273-0.885-0.514
									c-0.545-0.59-0.685-1.413-0.355-2.063c0.34-0.679,0.938-0.095,1.382,0.1c1.401,0.611,2.801,1.223,4.162,1.917
									c0.734,0.375,1.268,0.378,1.924-0.192c1.296-1.126,2.66-2.174,4.041-3.19c0.421-0.311,0.813-1.136,1.509-0.496
									c0.509,0.467,0.36,2.109-0.207,2.566c-1.01,0.813-2.06,1.578-3.087,2.363c-0.395,0.3-0.771,0.634-1.188,0.893
									c-0.755,0.466-0.499,1.169-0.354,1.782c0.167,0.71,0.752,0.329,1.144,0.292c1.241-0.114,2.48-0.269,3.714-0.448
									c0.877-0.126,1.102,0.355,1.204,1.136c0.106,0.802-0.038,1.271-0.911,1.365c-1.88,0.201-3.753,0.46-5.63,0.695
									C207.597,183.217,207.597,183.218,207.597,183.22z"/>
								<path fill="#413333" d="M173.319,154.926c-1.835,0.23-3.68,0.436-5.513,0.704c-0.822,0.12-1.181-0.18-1.281-1.025
									c-0.235-2.028-0.495-4.055-0.792-6.074c-0.116-0.797,0.159-1.209,0.897-1.291c0.753-0.081,1.205,0.185,1.27,1.079
									c0.095,1.292,0.309,2.574,0.434,3.864c0.058,0.589,0.257,0.778,0.863,0.73c2.816-0.222,2.819-0.201,2.449-3.046
									c-0.045-0.352-0.085-0.703-0.141-1.051c-0.111-0.688,0.178-1.023,0.829-1.111c0.645-0.088,1.152,0.024,1.263,0.801
									c0.131,0.932,0.272,1.867,0.333,2.805c0.047,0.741,0.265,0.999,1.037,0.896c2.692-0.354,2.697-0.322,2.343-3.105
									c-0.106-0.818-0.225-1.633-0.32-2.454c-0.075-0.664,0.214-1.036,0.871-1.104c0.637-0.066,1.136,0.04,1.233,0.836
									c0.276,2.26,0.549,4.522,0.85,6.781c0.112,0.838-0.37,0.989-0.995,1.063C177.07,154.448,175.197,154.69,173.319,154.926z"/>
								<path fill="#413333" d="M177.253,185.808c-1.838,0.231-3.682,0.438-5.514,0.705c-0.847,0.123-1.268-0.125-1.363-1.062
									c-0.191-1.875-0.442-3.745-0.699-5.612c-0.113-0.814,0.109-1.251,0.956-1.354c0.822-0.1,1.085,0.31,1.169,1.045
									c0.131,1.171,0.316,2.336,0.424,3.508c0.057,0.623,0.296,0.757,0.876,0.709c2.996-0.248,2.994-0.232,2.615-3.411
									c-0.081-0.677-0.367-1.462,0.671-1.665c0.801-0.157,1.362,0.011,1.391,1c0.001,0.04,0.006,0.08,0.015,0.118
									c0.229,1.059-0.158,2.562,0.634,3.087c0.677,0.448,1.956-0.088,2.97-0.191c0.301-0.03,0.605-0.059,0.901-0.114
									c0.911-0.173,1.407,0.104,1.526,1.167c0.11,1.013-0.289,1.316-1.165,1.407c-1.805,0.186-3.604,0.44-5.405,0.667
									C177.253,185.812,177.253,185.81,177.253,185.808z"/>
								<path fill="#413333" d="M143.72,156.046c-1.502,0.189-3,0.413-4.507,0.55c-0.721,0.066-1.003,0.294-0.845,1.089
									c0.177,0.882,0.197,1.798,0.362,2.683c0.15,0.802-0.355,0.962-0.876,1.044c-0.577,0.089-1.148,0.054-1.25-0.788
									c-0.398-3.276-0.815-6.549-1.219-9.824c-0.104-0.824,0.441-0.985,1.046-1.049c0.61-0.064,1.015,0.129,1.076,0.863
									c0.07,0.86,0.256,1.714,0.299,2.574c0.043,0.851,0.389,1.02,1.16,0.91c2.958-0.418,5.926-0.785,8.893-1.145
									c1.313-0.158,1.446,0.01,1.578,1.306c0.077,0.741-0.151,1.1-0.874,1.181c-1.616,0.182-3.229,0.398-4.844,0.601
									C143.719,156.043,143.719,156.044,143.72,156.046z"/>
								<path fill="#CAC8C4" d="M238.127,57.232c0.371-0.578-0.046-1.183,0.042-1.771c2.555,0.486,5.146,0.688,7.704,1.19
									c1.629,0.319,3.275,0.436,4.788,1.234c1.646,0.871,2.636,2.661,2.483,4.54c-0.344,4.195-1.012,8.343-1.53,12.513
									c-0.361,2.9-0.812,5.786-1.119,8.697c-0.198,1.867-0.474,3.794-1.24,5.545c-0.599,1.363-1.665,2.142-3.109,2.396
									c-2.705,0.477-5.329-0.283-7.965-0.675c-3.176-0.473-6.359-0.918-9.518-1.487c-2.878-0.518-5.826-0.589-8.64-1.496
									c-0.571-0.184-1.116-0.475-1.646-0.775c-0.28-0.16-0.671-0.378-0.542-0.801c0.133-0.435,0.555-0.328,0.879-0.283
									c1.685,0.237,3.367,0.484,5.046,0.744c7.438,1.146,14.863,2.351,22.303,3.46c1.477,0.219,1.414-0.646,1.469-1.352
									c0.411-5.073,1.344-10.065,1.948-15.106c0.428-3.569,0.942-7.128,1.492-10.679c0.146-0.956,0.194-1.927,0.393-2.868
									c0.161-0.759-0.02-1.028-0.798-1.138C246.414,58.526,242.272,57.868,238.127,57.232z"/>
								<path fill="#413333" d="M221.073,56.567c-0.76,0.509-1.558-0.027-2.098-0.279c-5.666-2.641-5.408-9.382-2.483-12.201
									c2.779-2.68,7.522-2.574,10.129,0.355c2.564,2.883,2.401,7.85-0.357,10.423c-0.185,0.174-0.453,0.257-0.682,0.383
									c-1.033-0.149-2.087-0.215-3.096-0.474c-0.933-0.24-1.328-0.011-1.292,0.991C221.201,56.033,221.116,56.3,221.073,56.567z
									 M220.823,44.847c-2.64,0.329-4.325,2.481-4.006,5.104c0.315,2.574,2.468,4.285,5.02,3.988
									c2.793-0.323,4.606-2.508,4.267-5.142C225.764,46.174,223.538,44.506,220.823,44.847z"/>
								<path fill="#CAC8C4" d="M216.137,124.395c-0.056-0.504-0.111-1.009-0.169-1.513c0.161-0.158,0.297-0.4,0.487-0.457
									c1.968-0.596,3.845-1.652,5.809-2.031c3.01-0.582,5.69-2.061,8.647-2.745c2.253-0.522,4.372-1.61,6.593-2.299
									c1.744-0.542,3.515-0.736,5.232,0.393c0.832,0.548,1.317,1.275,1.644,2.149c0.809,2.169,1.772,4.294,1.956,6.757
									c0.374-0.459-0.041-0.954,0.285-1.294c0.228,0.76,0.048,1.618,0.531,2.317c-0.207,0.496-0.087,1-0.027,1.504
									c0.365,3.032,0.728,6.064,1.091,9.096c-1.024-2.232-1.634-4.618-2.414-6.94c-1.096-3.251-2.127-6.525-3.188-9.787
									c-0.302-0.919-0.369-1.89-0.834-2.787c-0.283-0.547-0.351-0.777-1.002-0.551c-3.946,1.368-7.909,2.693-11.875,4.007
									C224.653,121.624,220.394,123.003,216.137,124.395z"/>
								<path fill="#413333" d="M229.339,70.229c-0.271,1.963-0.528,3.732-0.751,5.506c-0.09,0.741-0.347,1.149-1.16,1.034
									c-0.852-0.12-1.058-0.604-0.944-1.396c0.354-2.518,0.678-5.041,1.036-7.557c0.161-1.131,0.807-1.471,1.747-0.838
									c0.692,0.465,1.285,1.099,1.895,1.689c2.236,2.169,4.46,4.351,6.854,6.689c0.282-2.091,0.552-3.999,0.792-5.911
									c0.102-0.795,0.414-1.214,1.268-1.039c0.675,0.14,0.974,0.437,0.862,1.207c-0.401,2.74-0.744,5.488-1.133,8.229
									c-0.139,0.979-0.638,1.264-1.499,0.851c-0.368-0.177-0.696-0.47-0.998-0.761C234.697,75.421,232.096,72.898,229.339,70.229z
									"/>
								<path fill="#CAC8C4" d="M218.547,65.601c0.452-0.08,0.908-0.161,1.363-0.242c-0.9,6.603-1.802,13.207-2.703,19.809
									c-0.127-0.014-0.255-0.028-0.382-0.044c-0.082-1.817-0.358-3.595-0.044-5.464c0.414-2.472,0.63-4.987,0.986-7.475
									C218.083,69.999,218.291,67.795,218.547,65.601z"/>
								<path fill="#413333" d="M184.366,53.959c-0.481-4.158,2.07-7.528,6.032-7.969c3.978-0.442,7.287,2.255,7.769,6.332
									c0.493,4.184-2.063,7.541-6.115,8.024C188.081,60.819,184.849,58.132,184.366,53.959z M190.608,48.627
									c-2.652,0.342-4.311,2.473-3.982,5.12c0.327,2.668,2.534,4.346,5.23,3.985c2.69-0.363,4.403-2.56,4.053-5.198
									C195.563,49.917,193.335,48.275,190.608,48.627z"/>
								<path fill="#413333" d="M159.703,77.925c0.503,4.137-1.829,6.734-5.813,6.499c-2.301-0.135-4.606-0.248-6.911-0.339
									c-0.787-0.032-1.215-0.326-1.156-1.207c0.056-0.836,0.25-1.423,1.27-1.349c2.375,0.173,4.756,0.274,7.135,0.397
									c1.202,0.063,2.274-0.179,2.874-1.413c0.586-1.212,0.548-2.399-0.149-3.579c-0.579-0.977-1.505-1.125-2.46-1.181
									c-2.302-0.135-4.608-0.233-6.912-0.361c-1.241-0.069-1.671-0.734-1.304-1.956c0.122-0.407,0.301-0.689,0.788-0.657
									c2.828,0.192,5.678,0.094,8.484,0.563C158.041,73.758,159.389,75.343,159.703,77.925z"/>
								<path fill="#413333" d="M156.274,55.872c0.24,1.914,0.438,3.693,0.697,5.462c0.119,0.817,0.059,1.359-0.906,1.482
									c-0.966,0.124-1.153-0.4-1.244-1.21c-0.266-2.42-0.58-4.834-0.856-7.252c-0.058-0.515-0.332-1.121,0.285-1.487
									c0.588-0.352,1.18-0.167,1.731,0.131c1.851,1,3.695,2.014,5.54,3.026c1.402,0.77,2.798,1.546,4.423,2.444
									c-0.265-2.11-0.503-4.031-0.749-5.951c-0.083-0.643-0.055-1.146,0.74-1.292c0.859-0.159,1.248,0.1,1.354,1.035
									c0.31,2.729,0.689,5.452,1.029,8.179c0.128,1.027-0.545,1.554-1.593,1.133c-0.945-0.381-1.83-0.931-2.732-1.426
									C161.466,58.753,158.939,57.348,156.274,55.872z"/>
								<path fill="#413333" d="M137.434,93.188c-0.875-0.05-1.583,0.303-2.263,0.854c-1.541,1.248-3.105,2.465-4.697,3.639
									c-0.449,0.332-0.888,1.204-1.598,0.46c-0.529-0.554-0.323-2.066,0.311-2.543c1.245-0.939,2.525-1.83,3.788-2.74
									c0.207-0.148,0.412-0.293,0.717-0.51c-1.679-0.662-3.224-1.263-4.762-1.883c-0.451-0.182-0.996-0.308-1.163-0.858
									c-0.186-0.627-0.496-1.372-0.05-1.91c0.468-0.56,1.059,0.018,1.547,0.222c1.722,0.716,3.435,1.46,5.129,2.243
									c1.019,0.47,2.011,0.877,3.102,0.302C137.748,91.382,137.703,92.29,137.434,93.188z"/>
								<path fill="#413333" d="M131.143,61.97c-1.874,0.236-3.75,0.445-5.616,0.717c-0.879,0.128-1.236-0.214-1.346-1.104
									c-0.104-0.851,0.063-1.332,0.979-1.439c3.747-0.442,7.493-0.904,11.231-1.409c1.004-0.135,1.116,0.471,1.239,1.224
									c0.135,0.842-0.164,1.237-0.983,1.327C134.81,61.489,132.978,61.738,131.143,61.97z"/>
								<path fill="#413333" d="M226.525,135.991c0.611,1.922,1.111,3.604,1.689,5.255c0.282,0.805,0.123,1.258-0.65,1.54
									c-0.76,0.279-1.126-0.07-1.353-0.783c-0.783-2.466-1.599-4.922-2.367-7.393c-0.313-1.005,0.055-1.519,1.059-1.512
									c0.404,0.001,0.819,0.122,1.216,0.245c3.373,1.052,6.739,2.117,10.205,3.208c-0.134-1.184-0.631-2.193-0.929-3.258
									c-0.231-0.83-0.504-1.651-0.793-2.462c-0.273-0.759-0.021-1.196,0.684-1.439c0.673-0.233,1.081-0.006,1.304,0.696
									c0.841,2.647,1.717,5.282,2.534,7.936c0.307,0.994-0.075,1.493-1.103,1.445c-0.592-0.028-1.188-0.228-1.764-0.409
									C233.105,138.076,229.957,137.076,226.525,135.991z"/>
								<path fill="#413333" d="M201.22,147.526c-1.397-0.596-2.68-1.198-4-1.684c-0.98-0.359-1.344-1.026-1.39-2.04
									c-0.045-0.894,0.25-1.188,1.059-0.811c1.589,0.744,3.201,1.453,4.762,2.265c0.807,0.419,1.395,0.421,2.094-0.23
									c1.178-1.093,2.43-2.102,3.698-3.083c0.446-0.344,0.855-1.23,1.597-0.547c0.516,0.478,0.279,2.054-0.332,2.556
									c-1.005,0.823-2.04,1.605-3.063,2.404c-0.291,0.226-0.584,0.446-0.965,0.735c1.481,0.647,2.855,1.308,4.271,1.846
									c0.967,0.366,1.346,1.006,1.399,2.027c0.054,0.982-0.341,1.1-1.08,0.751c-1.695-0.795-3.408-1.557-5.069-2.423
									c-0.749-0.392-1.255-0.35-1.896,0.224c-1.338,1.198-2.763,2.292-4.147,3.436c-0.68,0.56-1.059,0.418-1.237-0.483
									c-0.195-0.977-0.058-1.737,0.818-2.333C198.899,149.352,199.992,148.456,201.22,147.526z"/>
								<path fill="#413333" d="M240.918,174.379c-3.336-0.733-6.514-1.433-9.694-2.13c-0.57-0.125-1.084-0.259-1.266-0.977
									c-0.383-1.505-0.06-1.901,1.392-1.561c3.723,0.875,7.441,1.776,11.17,2.632c0.86,0.198,1.276,0.617,1.388,1.559
									c0.109,0.94-0.054,1.54-0.927,1.986c-3.404,1.74-6.775,3.553-10.174,5.31c-0.473,0.247-1.051,0.887-1.545,0.022
									c-0.479-0.843-0.236-1.965,0.515-2.346c2.705-1.368,5.425-2.701,8.144-4.045
									C240.225,174.68,240.536,174.552,240.918,174.379z"/>
								<path fill="#CAC8C4" d="M249.556,146.506c0.047,0.486,0.099,0.969,0.146,1.454c-0.206,0.283-0.434,0.476-0.806,0.561
									c-3.771,0.857-7.348,2.37-11.03,3.518c-2.69,0.836-5.354,1.753-8.001,2.705c-1.753,0.627-3.45,1.275-5.34,1.106
									c-0.345-0.03-0.869,0.304-0.973-0.234c-0.097-0.523,0.527-0.492,0.828-0.6c3.021-1.073,6.051-2.109,9.085-3.137
									c3.965-1.344,7.933-2.674,11.901-4.003C246.761,147.41,248.158,146.964,249.556,146.506z"/>
								<path fill="#CAC8C4" d="M212.881,130.009c0.381-0.079,0.76-0.159,1.139-0.24c1.396,4.386,2.79,8.772,4.193,13.156
									c1.036,3.232,2.074,6.462,3.144,9.682c0.188,0.557,0.239,1.1,0.352,1.768c-1.177-1.059-1.014-2.605-1.788-3.727
									c-1.289-1.866-1.788-4.091-2.463-6.23C215.938,139.613,214.407,134.813,212.881,130.009z"/>
								<path fill="#413333" d="M274.344,172.558c0.444,3.256,0.445,3.256-2.717,3.65c-2.963,0.371-5.932,0.71-8.889,1.124
									c-1.031,0.144-1.454-0.22-1.531-1.281c-0.103-1.409-0.371-2.807-0.448-4.214c-0.21-3.865,2.121-6.594,5.931-7.03
									c3.792-0.432,6.671,1.721,7.369,5.531C274.194,171.07,274.251,171.817,274.344,172.558z M267.67,174.149
									c0,0.001,0.001,0.005,0.001,0.008c0.862-0.108,1.724-0.216,2.585-0.325c2.187-0.274,2.187-0.274,1.842-2.558
									c-0.395-2.596-2.17-4.064-4.703-3.888c-2.856,0.198-4.512,1.812-4.52,4.467c-0.003,0.739,0.161,1.479,0.213,2.221
									c0.039,0.547,0.316,0.622,0.766,0.559C265.124,174.458,266.398,174.309,267.67,174.149z"/>
								<path fill="#413333" d="M263.928,143.552c-1.84,0.229-3.686,0.433-5.52,0.705c-0.802,0.117-1.208-0.117-1.306-0.988
									c-0.229-2.031-0.494-4.057-0.758-6.085c-0.092-0.71,0.139-1.125,0.866-1.213c0.729-0.09,1.155,0.13,1.233,0.965
									c0.121,1.251,0.331,2.493,0.446,3.745c0.062,0.662,0.205,0.942,0.96,0.857c2.705-0.308,2.685-0.27,2.38-3.118
									c-0.076-0.719-0.664-1.72,0.584-2.033c0.731-0.183,1.28,0.016,1.384,0.918c0.108,0.938,0.259,1.87,0.339,2.808
									c0.051,0.592,0.234,0.783,0.848,0.727c2.868-0.259,2.871-0.235,2.499-3.195c-0.097-0.78-0.19-1.56-0.291-2.34
									c-0.099-0.79,0.359-1.049,0.997-1.11c0.622-0.06,1.007,0.183,1.089,0.889c0.263,2.225,0.542,4.448,0.84,6.669
									c0.108,0.806-0.294,1.021-0.953,1.1C267.684,143.07,265.809,143.316,263.928,143.552z"/>
								<path fill="#413333" d="M259.965,111.74c-1.725,0.218-3.452,0.414-5.174,0.659c-0.906,0.129-1.63,0.185-1.757-1.119
									c-0.114-1.203,0.535-1.362,1.408-1.464c2.928-0.349,5.848-0.75,8.777-1.077c0.761-0.083,1.048-0.299,0.895-1.149
									c-0.229-1.271-0.313-2.571-0.508-3.85c-0.122-0.803,0.177-1.16,0.931-1.255c0.766-0.098,1.105,0.207,1.197,1.001
									c0.233,2.106,0.496,4.21,0.789,6.309c0.112,0.809-0.177,1.156-0.933,1.243C263.711,111.255,261.841,111.503,259.965,111.74z
									"/>
								<path fill="#413333" d="M88.639,160.647c-0.064-0.98-0.209-1.961-0.177-2.936c0.076-2.243,1.661-3.806,3.97-4.021
									c2.28-0.214,4.146,1.074,4.643,3.249c0.175,0.764,0.329,1.547,0.354,2.327c0.029,0.991,0.455,1.171,1.292,0.991
									c0.738-0.159,1.503-0.183,2.25-0.3c0.888-0.141,1.317,0.173,1.429,1.158c0.106,0.938-0.232,1.281-1.069,1.384
									c-3.683,0.443-7.363,0.901-11.042,1.386c-0.886,0.115-1.267-0.257-1.343-1.134c-0.06-0.706-0.171-1.406-0.259-2.107
									C88.671,160.646,88.655,160.646,88.639,160.647z M93.189,160.937c2.448-0.305,2.448-0.305,1.945-2.749
									c-0.008-0.039-0.015-0.077-0.024-0.115c-0.26-1.155-1.055-1.821-2.178-1.821c-1.521-0.002-2.409,1.018-2.297,2.639
									c0.157,2.343,0.157,2.343,2.22,2.089C92.964,160.965,93.078,160.951,93.189,160.937z"/>
								<path fill="#413333" d="M93.302,142.59c-1.838,0.23-3.676,0.442-5.509,0.7c-0.818,0.116-1.291-0.092-1.422-1.03
									c-0.133-0.932,0.15-1.399,1.069-1.509c3.037-0.364,6.071-0.786,9.112-1.12c0.779-0.085,1.031-0.324,0.888-1.152
									c-0.224-1.274-0.315-2.568-0.511-3.85c-0.121-0.798,0.158-1.167,0.921-1.255c0.777-0.093,1.095,0.252,1.182,1.028
									c0.235,2.065,0.487,4.13,0.78,6.189c0.126,0.875-0.214,1.222-0.999,1.315C96.975,142.119,95.14,142.36,93.302,142.59z"/>
								<path fill="#413333" d="M201.107,112.378c-2.615,0.328-5.22,0.634-7.814,0.992c-0.908,0.125-1.331-0.167-1.425-1.147
									c-0.087-0.886,0.159-1.295,1.047-1.399c3.568-0.415,7.128-0.89,10.694-1.318c0.521-0.063,1.238-0.425,1.488,0.355
									c0.263,0.829,0.563,1.746-0.291,2.488c-2.419,2.108-4.823,4.233-7.236,6.351c-0.186,0.164-0.381,0.319-0.78,0.65
									c2.881-0.361,5.486-0.665,8.084-1.027c0.905-0.127,1.408,0.021,1.535,1.119c0.117,1.039-0.327,1.304-1.168,1.404
									c-3.264,0.391-6.526,0.809-9.789,1.216c-0.228,0.027-0.454,0.076-0.679,0.071c-0.589-0.009-1.371,0.493-1.653-0.452
									c-0.257-0.857-0.407-1.742,0.44-2.467c2.381-2.036,4.725-4.118,7.079-6.188C200.82,112.869,201.134,112.813,201.107,112.378
									z"/>
								<path fill="#413333" d="M160.121,136.77c-1.751,0.305-3.504,0.584-5.247,0.922c-0.889,0.172-1.39-0.104-1.509-1.062
									c-0.213-1.749-0.778-3.454-0.682-5.238c0.134-2.471,2.236-3.974,4.465-3.228c1.33,0.447,1.33,0.447,2.208-0.573
									c1.63-1.894,4.645-1.583,5.929,0.692c1.141,2.025,1.095,4.378,1.506,6.601c0.124,0.653-0.479,0.794-0.979,0.885
									c-1.898,0.337-3.794,0.671-5.692,1.007C160.121,136.775,160.12,136.773,160.121,136.77z M162.385,133.665
									c0.447-0.057,0.895-0.117,1.343-0.168c0.396-0.046,0.642-0.224,0.55-0.681c-0.166-0.84-0.152-1.715-0.501-2.519
									c-0.463-1.074-1.344-1.469-2.404-1.068c-1.115,0.422-1.364,1.07-1.08,2.906
									C160.645,134.399,160.396,134.095,162.385,133.665z M156.642,134.747c2.004-0.414,2.004-0.414,1.6-2.448
									c-0.272-1.361-0.987-1.906-2.138-1.636c-1.198,0.282-1.407,1.174-1.009,3.444
									C155.327,135.447,156.124,134.692,156.642,134.747z"/>
								<path fill="#413333" d="M195.866,90.192c-1.84,0.23-3.678,0.461-5.517,0.692c-0.563,0.071-1.143,0.063-1.226-0.68
									c-0.222-1.986-0.728-3.952-0.546-5.968c0.324-3.624,2.795-5.843,6.631-5.993c3.353-0.131,5.995,1.976,6.633,5.37
									c0.283,1.503,0.399,3.038,0.65,4.547c0.141,0.877-0.218,1.234-0.993,1.329c-1.879,0.229-3.755,0.47-5.633,0.705
									C195.866,90.193,195.866,90.193,195.866,90.192z M195.596,87.628c0.899-0.112,1.796-0.223,2.694-0.337
									c1.93-0.248,1.93-0.249,1.635-2.288c-0.259-1.784-0.996-3.216-2.753-3.83c-3.752-1.313-6.854,1.278-6.391,5.323
									c0.036,0.311,0.104,0.622,0.111,0.932c0.014,0.644,0.329,0.771,0.888,0.689C193.049,87.929,194.324,87.789,195.596,87.628z"
									/>
								<path fill="#CAC8C4" d="M92.841,120.541c1.655-1.249,3.101-2.339,4.637-3.499c0.334,1.013,0.63,1.895,0.92,2.78
									c0.123,0.373,0.179,0.705-0.373,0.705C96.375,120.526,94.725,120.535,92.841,120.541z"/>
								<path fill="#7CC7EE" d="M144.401,188.607c-0.074,0.009-0.151,0.032-0.225,0.024c-0.632-0.052-1.575,0.593-1.834-0.11
									c-0.383-1.049-0.615-2.29-0.027-3.41c0.439-0.839,1.241-0.924,2.058-0.891c0.695,0.029,1.198,0.407,1.529,1.036
									c0.072,0.137,0.12,0.287,0.171,0.435C146.862,187.944,146.641,188.326,144.401,188.607z"/>
								<path fill="#F5998E" d="M220.823,44.847c2.715-0.34,4.942,1.327,5.279,3.949c0.34,2.634-1.474,4.819-4.266,5.142
									c-2.552,0.297-4.703-1.415-5.02-3.988C216.498,47.328,218.184,45.176,220.823,44.847z"/>
								<path fill="#EF4835" d="M190.608,48.627c2.728-0.352,4.954,1.29,5.301,3.907c0.35,2.639-1.362,4.835-4.053,5.198
									c-2.696,0.361-4.903-1.317-5.23-3.985C186.298,51.1,187.956,48.969,190.608,48.627z"/>
								<path fill="#7CC7EE" d="M267.67,174.149c-1.273,0.16-2.546,0.308-3.816,0.484c-0.449,0.063-0.727-0.012-0.766-0.559
									c-0.052-0.742-0.216-1.481-0.213-2.221c0.008-2.655,1.663-4.27,4.52-4.467c2.533-0.176,4.309,1.291,4.703,3.888
									c0.345,2.284,0.345,2.284-1.842,2.558c-0.861,0.108-1.723,0.217-2.585,0.325C267.671,174.155,267.67,174.151,267.67,174.149
									z"/>
								<path fill="#7CC7EE" d="M93.189,160.937c-0.11,0.015-0.225,0.029-0.336,0.043c-2.063,0.253-2.063,0.253-2.22-2.088
									c-0.11-1.623,0.777-2.642,2.297-2.64c1.123,0,1.918,0.666,2.179,1.821c0.009,0.039,0.016,0.077,0.024,0.115
									C95.637,160.631,95.637,160.631,93.189,160.937z"/>
								<path fill="#F5998E" d="M162.385,133.665c-1.989,0.43-1.74,0.734-2.093-1.53c-0.283-1.836-0.034-2.484,1.08-2.907
									c1.061-0.401,1.941-0.006,2.404,1.067c0.349,0.804,0.335,1.679,0.501,2.52c0.092,0.458-0.154,0.635-0.55,0.681
									C163.28,133.548,162.832,133.608,162.385,133.665z"/>
								<path fill="#F5998E" d="M156.642,134.747c-0.518-0.055-1.314,0.7-1.547-0.64c-0.398-2.271-0.189-3.163,1.009-3.444
									c1.151-0.27,1.866,0.275,2.138,1.636C158.647,134.332,158.647,134.332,156.642,134.747z"/>
								<path fill="#F5998E" d="M195.596,87.628c-1.271,0.16-2.547,0.301-3.816,0.489c-0.558,0.083-0.874-0.044-0.889-0.688
									c-0.006-0.312-0.074-0.621-0.11-0.932c-0.463-4.046,2.64-6.639,6.391-5.325c1.758,0.615,2.495,2.046,2.753,3.83
									c0.294,2.039,0.296,2.04-1.635,2.288C197.392,87.405,196.495,87.516,195.596,87.628z"/>
								
									<rect x="57.423" y="109.851" transform="matrix(-0.9922 0.1245 -0.1245 -0.9922 146.5931 259.1887)" fill="#C6BBA7" width="15.556" height="48.645"/>
								<g>
									<path fill="#413333" d="M57.485,68.725c0.592-0.074,1.135,0.365,1.211,0.979l0,0c0.077,0.616-0.34,1.173-0.932,1.248
										L46.871,72.32c-0.592,0.074-1.135-0.364-1.212-0.98l0,0c-0.077-0.614,0.341-1.174,0.933-1.248L57.485,68.725z"/>
									<path fill="#413333" d="M56.926,64.269c0.592-0.074,1.135,0.365,1.212,0.98l0,0c0.078,0.615-0.34,1.174-0.932,1.249
										l-10.893,1.367c-0.592,0.074-1.135-0.364-1.213-0.98l0,0c-0.077-0.615,0.341-1.175,0.933-1.249L56.926,64.269z"/>
									<path fill="#413333" d="M56.366,59.813c0.593-0.074,1.135,0.363,1.213,0.98l0,0c0.077,0.614-0.34,1.173-0.933,1.248
										l-10.893,1.367c-0.592,0.074-1.136-0.363-1.213-0.979l0,0c-0.077-0.616,0.341-1.174,0.933-1.249L56.366,59.813z"/>
								</g>
							</g>
						</g>
					</g>
				</g>
			</g>
		</g>
	</g>
	<g>
		<g>
			<g>
				<path fill="#FFC5B8" d="M130.1,152.2c-0.5,1.2,2.8,6.7,5.7,14.3c2.2,5.7,2.4,9.2,2.4,9.5c1.4,10.4-7.1,8.9-9.2,3.2
					c-8.9-24.7-8.2-69.6-8.2-69.6c-0.9-3.2-2.4-4.8-5.8-4.6c-3.1,0.1-3.3,4.1-4,7.2c-3.5,16,1,45.8,0,46.1c-1.1,0.3-2-0.5-2.4-1.7
					c0,0-3.1-12.6-5.9-24.5c-2.6-11.2-3.8-36.7-3.8-36.7c-0.9-3.2-3.7-5.3-7-4.4c-1.6,0.4-3.2,5.4-2.8,7c0,0-0.3,20.3,1.7,35.2
					c0.9,6.8,4.8,26.9,4.8,26.9c0.3,1.2-0.1,2.4-1.2,2.7c-1.1,0.3-2-0.5-2.4-1.7c0,0-3.8-17.6-4.7-23.8c-1.1-7.2-3.7-29.5-3.7-29.5
					c-0.9-3.2-2.1-4-5.5-4.6c-3.7-0.7-4.4,3.5-4.3,7.3c0,0,0.9,22.8,1.8,30.2c0.8,6.2,3.4,17.3,5,24c0.3,1.2-0.1,2.4-1.2,2.7
					c-1.1,0.3-2-0.5-2.4-1.7c0,0-2.2-7.5-2.8-10.4c-1.2-6.2-4.4-26-4.4-26c-0.9-3.2-2.6-5.6-5.9-4.7c-3.1,0.8-3,3-2.7,7
					c0,0,3.1,29.4,5,39.3c10.4,54.2,28.3,51.8,33.6,78.2c0.7,3.601,8.3,2.9,10.8,6.5c3.9,5.4,6.9-16.6,15.9-19.199
					c2.5-0.7,17.2,28.699,18.3,28.1c1-0.6-10.4-25.5,1.7-48.4c4.9-9.2,11.3-21.2,8.4-32.1C146.6,151.2,133.8,148.1,130.1,152.2z"/>
			</g>
			<path fill="#F9AFAF" d="M111.7,113.7l0.4-6c0.2-2.6,1.9-4.4,3.8-4.1l0,0c2,0.3,3.4,2.6,3.2,5.2l-0.4,6c0,0-1.4,0.9-3.6,0.5
				C112.8,114.9,111.7,113.7,111.7,113.7z"/>
			<path fill="#F9AFAF" d="M90.3,100.8l-0.2-6.5c-0.1-2.8,1.6-5,3.7-4.9l0,0c2.1,0.1,3.9,2.4,3.9,5.2l0.2,6.5c0,0-1.4,1.1-3.8,1
				C91.5,102,90.3,100.8,90.3,100.8z"/>
			<path fill="#F9AFAF" d="M75.4,112l-0.5-6.3c-0.2-2.7,1.3-3.9,3.3-4.3c2.2-0.5,3.8,1.4,4,4.1l0.5,6.3c0,0-1.3,1.1-3.6,1.2
				C76.6,113.1,75.4,112,75.4,112z"/>
			<path fill="#F9AFAF" d="M63.6,132.4l-0.7-5c-0.3-2.2,0.7-4.1,2.3-4.2l0,0c1.6-0.2,3.2,1.4,3.5,3.6l0.7,5c0,0-0.9,1-2.8,1.2
				C64.6,133.2,63.6,132.4,63.6,132.4z"/>
			<path fill="#F9AFAF" d="M130.3,150c-0.2,2.1,4.1,6.2,4.1,6.2l4.1-1.8c0,0-3.6-5.7-6.5-5.8C131.4,148.6,130.4,149,130.3,150z"/>
			<path fill="#FFC5B8" d="M126.9,398.7C126.7,410.4,176,371.1,176,371.1l-52.6-182.3l-37.5,10.1
				C85.8,198.9,127.8,333.3,126.9,398.7z"/>
		</g>
		<g>
			<g>
				<path fill="#FFC5B8" d="M202.1,121.1c0.9,0.9-0.399,7.3-0.5,15.4c-0.1,6.1,0.801,9.5,0.9,9.7c2.2,10.3,9.7,6,9.7-0.1
					c0-26.2-15.8-68.3-15.8-68.3c-0.301-3.3,0.6-5.3,3.899-6.3c3-0.9,4.5,2.7,6.2,5.5c8.7,13.9,14.5,43.4,15.6,43.3
					c1.101-0.1,1.7-1.2,1.601-2.4c0,0-1.3-12.9-2.7-25.1c-1.3-11.4-8.8-35.8-8.8-35.8c-0.3-3.3,1.7-6.2,5.1-6.5c1.7-0.1,4.8,4,5,5.7
					c0,0,7.2,19,10.3,33.7c1.4,6.7,4.5,26.9,4.5,26.9c0.101,1.3,0.9,2.2,2,2.1c1.101-0.1,1.7-1.2,1.601-2.4c0,0-2.4-17.9-3.601-24
					c-1.399-7.1-6.5-29-6.5-29c-0.3-3.3,0.601-4.5,3.601-6.2c3.3-1.9,5.3,1.8,6.5,5.4c0,0,6.899,21.8,8.5,29.1
					c1.3,6.1,2.7,17.5,3.399,24.3c0.101,1.3,0.9,2.2,2,2.1c1.101-0.1,1.7-1.2,1.601-2.4c0,0-0.5-7.8-0.9-10.7
					c-0.899-6.2-4.7-26-4.7-26c-0.3-3.3,0.5-6.1,4-6.4c3.2-0.3,3.801,1.9,4.9,5.7c0,0,7,28.7,8.6,38.6
					c8.5,54.5-9.199,58.4-5.199,84.9c0.5,3.6-6.801,5.6-8,9.8c-1.801,6.4-12.101-13.3-21.4-12.7c-2.6,0.2-6.5,32.9-7.7,32.6
					c-1.1-0.199,1.2-27.5-18-44.899c-7.7-7-17.8-16.1-18.7-27.4C186.2,125.7,197.2,118.4,202.1,121.1z"/>
			</g>
			<path fill="#F9AFAF" d="M206.3,78.6l-2.399-5.5c-1-2.4-3.301-3.5-5-2.6l0,0c-1.7,0.9-2.301,3.6-1.301,6L200,82
				c0,0,1.6,0.3,3.6-0.7C205.7,80.1,206.3,78.6,206.3,78.6z"/>
			<path fill="#F9AFAF" d="M222.2,59.3l-2.101-6.2c-0.899-2.6-3.199-4.2-5.1-3.4l0,0c-1.9,0.8-2.8,3.6-1.9,6.2l2,6.2
				c0,0,1.7,0.6,3.9-0.3C221.4,60.8,222.2,59.3,222.2,59.3z"/>
			<path fill="#F9AFAF" d="M240,64.8l-1.7-6c-0.7-2.6-2.6-3.2-4.5-2.9c-2.2,0.3-3.1,2.6-2.399,5.2l1.699,6c0,0,1.601,0.6,3.801-0.1
				C239.2,66.2,240,64.8,240,64.8z"/>
			<path fill="#F9AFAF" d="M258,80l-1-5c-0.4-2.1-2.1-3.6-3.6-3.2l0,0c-1.601,0.4-2.5,2.4-2.101,4.5l1,5c0,0,1.2,0.6,3,0.2
				C257.3,81,258,80,258,80z"/>
			<path fill="#FFC5B8" d="M288.4,352c4.1,11-55.5-9.4-55.5-9.4L220.8,153.2l38.8-3.1C259.5,150.1,265.5,290.8,288.4,352z"/>
			<path fill="#F9AFAF" d="M201.1,119.1c0.9,1.9-1.8,7.2-1.8,7.2l-4.5-0.3c0,0,1.5-6.6,4.101-7.7
				C199.6,118.1,200.7,118.2,201.1,119.1z"/>
		</g>
	</g>
</g>
</svg>
