<?xml version="1.0" encoding="utf-8"?>
<!-- Generator: Adobe Illustrator 16.0.0, SVG Export Plug-In . SVG Version: 6.00 Build 0)  -->
<!DOCTYPE svg PUBLIC "-//W3C//DTD SVG 1.1//EN" "http://www.w3.org/Graphics/SVG/1.1/DTD/svg11.dtd">
<svg version="1.1" id="Layer_1" xmlns="http://www.w3.org/2000/svg" xmlns:xlink="http://www.w3.org/1999/xlink" x="0px" y="0px"
	 width="379.8px" height="276.9px" viewBox="0 0 379.8 276.9" enable-background="new 0 0 379.8 276.9" xml:space="preserve">
<g>
	<g>
		<g>
			<polyline fill="none" stroke="#FFFFFF" stroke-linecap="round" stroke-miterlimit="10" points="66.4,150 64.8,148.4 66.4,146.7 
							"/>
			<polyline fill="none" stroke="#FFFFFF" stroke-linecap="round" stroke-miterlimit="10" points="83.4,146.7 85,148.4 83.4,150 			
				"/>
		</g>
		<path fill="#444444" d="M50.8,147.9h-0.2V191v40h0c0,0.2,0,0.3,0,0.5c0,17.2,13.9,31.2,31.2,31.2c17.2,0,31.2-13.9,31.2-31.2
			c0-7.9-3-15.1-7.8-20.6v-39.4c4.8-5.5,7.8-12.7,7.8-20.6c0-17.2-13.9-31.2-31.2-31.2C65.7,119.9,52.4,132.2,50.8,147.9z"/>
		<path fill="none" stroke="#444444" stroke-width="4" stroke-miterlimit="10" d="M44.1,144.8H44V194v34h0c0,0.2,0,0.3,0,0.5
			c0,17.2,13.9,31.2,31.2,31.2c17.2,0,31.2-13.9,31.2-31.2c0-7.9-3-15.1-7.8-20.6v-14.3v-25.1c4.8-5.5,7.8-12.7,7.8-20.6
			c0-17.2-13.9-31.2-31.2-31.2C59,116.8,45.7,129.1,44.1,144.8z"/>
		<g>
			<g>
				<polyline fill="none" stroke="#FFFFFF" stroke-linecap="round" stroke-miterlimit="10" points="65.9,149.5 64.3,147.8 
					65.9,146.2 				"/>
				<polyline fill="none" stroke="#FFFFFF" stroke-linecap="round" stroke-miterlimit="10" points="82.9,146.2 84.5,147.8 
					82.9,149.5 				"/>
			</g>
			<g>
				<polyline fill="none" stroke="#FFFFFF" stroke-linecap="round" stroke-miterlimit="10" points="72.6,139.8 74.3,138.2 
					75.9,139.8 				"/>
				<polyline fill="none" stroke="#FFFFFF" stroke-linecap="round" stroke-miterlimit="10" points="75.9,156.8 74.3,158.4 
					72.6,156.8 				"/>
			</g>
		</g>
		<path fill="#444444" d="M98.1,192.8v14.3c4.8,5.5,7.8,12.7,7.8,20.6c0,17.2-13.9,31.2-31.2,31.2s-31.2-14-31.2-31.2
			c0-0.2,0-0.3,0-0.5h0v-34.4"/>
		<g>
			<g>
				<rect x="73.8" y="217.8" fill="#FCC454" width="5.2" height="23.4"/>
				<rect x="64.7" y="226.9" fill="#FCC454" width="23.4" height="5.2"/>
			</g>
			<circle fill="none" stroke="#FFFFFF" stroke-miterlimit="10" cx="76.4" cy="229.5" r="17.7"/>
		</g>
		<circle fill="none" stroke="#FFFFFF" stroke-miterlimit="10" cx="74.7" cy="148.4" r="22.6"/>
		<circle fill="#FFFFFF" cx="74.9" cy="148.6" r="5.6"/>
		<circle fill="#FFFFFF" cx="65.6" cy="148.4" r="7"/>
		<circle fill="#FCC454" cx="65.6" cy="148.4" r="4.5"/>
		<circle fill="#FFFFFF" cx="74.8" cy="157.4" r="7"/>
		<circle fill="#38B19C" cx="74.8" cy="157.4" r="4.5"/>
		<circle fill="#FFFFFF" cx="83.9" cy="148.4" r="7"/>
		<circle fill="#FCC454" cx="83.9" cy="148.4" r="4.5"/>
		<circle fill="#FFFFFF" cx="74.8" cy="139.4" r="7"/>
		<circle fill="#38B19C" cx="74.8" cy="139.4" r="4.5"/>
		<rect x="65.6" y="194.6" fill="#FFFFFF" width="13" height="7"/>
		<rect x="65.6" y="181" fill="#FFFFFF" width="13" height="7"/>
	</g>
	<g>
		<g>
			<g>
				<path fill="#F9C7C5" d="M145.8,209.2c1,0.5,6.2-2.4,13.1-4.8c5.2-1.8,8.4-2,8.6-2c9.5-1,7.9,6.7,2.7,8.4
					c-22.6,7.4-63.3,5.8-63.3,5.8c-3,0.7-4.4,2-4.3,5.2c0.1,2.8,3.6,3.1,6.5,3.8c14.4,3.5,41.5,0.2,41.8,1.2c0.2,1-0.5,1.8-1.6,2.1
					c0,0-11.5,2.5-22.4,4.8c-10.2,2.1-33.3,2.5-33.3,2.5c-3,0.7-4.9,3.3-4.2,6.3c0.4,1.5,4.8,3,6.3,2.7c0,0,18.4,0.8,31.9-0.7
					c6.1-0.7,24.5-3.7,24.5-3.7c1.1-0.3,2.2,0.1,2.4,1.1c0.2,1-0.5,1.8-1.6,2.1c0,0-16.1,3-21.7,3.7c-6.5,0.9-26.8,2.6-26.8,2.6
					c-3,0.7-3.7,1.8-4.3,4.8c-0.7,3.4,3,4.1,6.5,4.1c0,0,20.7-0.3,27.4-0.9c5.6-0.6,15.8-2.6,21.9-4c1.1-0.2,2.2,0.1,2.4,1.1
					c0.2,1-0.5,1.8-1.6,2.1c0,0-6.8,1.8-9.5,2.3c-5.6,0.9-23.7,3.3-23.7,3.3c-3,0.7-5.1,2.2-4.4,5.2c0.7,2.8,2.7,2.8,6.3,2.6
					c0,0,26.7-2.1,35.7-3.6c49.4-8.1,47.7-24.4,71.7-28.5c3.2-0.6,2.9-7.4,6.2-9.7c5-3.4-14.9-6.7-17-14.9
					c-0.6-2.3,26.5-14.9,25.9-15.9c-0.5-0.9-23.4,8.8-43.8-2.8c-8.2-4.7-18.9-10.7-28.9-8.4C145.2,194.2,142,205.8,145.8,209.2z"/>
			</g>
		</g>
		<path fill="#F9AFAF" d="M110.4,224.9l-5.4-0.5c-2.3-0.2-4-1.8-3.7-3.6l0,0c0.3-1.8,2.4-3,4.8-2.8l5.4,0.5c0,0,0.7,1.3,0.4,3.3
			C111.5,223.9,110.4,224.9,110.4,224.9z"/>
		<path fill="#F9AFAF" d="M98.2,244l-5.9,0c-2.5,0-4.5-1.6-4.4-3.4l0,0c0.1-1.9,2.3-3.4,4.8-3.4l5.9,0c0,0,1,1.3,0.8,3.4
			C99.3,242.9,98.2,244,98.2,244z"/>
		<path fill="#F9AFAF" d="M108,257.8l-5.7,0.3c-2.4,0.1-3.5-1.3-3.8-3.1c-0.4-2,1.4-3.4,3.8-3.5l5.7-0.3c0,0,1,1.2,1,3.3
			C109,256.7,108,257.8,108,257.8z"/>
		<path fill="#F9AFAF" d="M126.1,269l-4.6,0.5c-2,0.2-3.7-0.8-3.8-2.2l0,0c-0.1-1.5,1.4-2.8,3.3-3.1l4.6-0.5c0,0,0.9,0.9,1,2.6
			C126.9,268.1,126.1,269,126.1,269z"/>
		<path fill="#F9AFAF" d="M143.7,208.9c1.9,0.2,5.7-3.6,5.7-3.6l-1.5-3.7c0,0-5.3,3.1-5.4,5.7C142.5,207.9,142.8,208.8,143.7,208.9z
			"/>
		<path fill="#F9C7C5" d="M369.1,218.1c10.6,0.4-23.8-45.1-23.8-45.1l-166.5,43.3l8.3,34.3C187,250.5,309.8,215.7,369.1,218.1z"/>
	</g>
	<g>
		<g>
			<g>
				<g>
					<path fill="#F9C7C5" d="M134.3,157.5c0.8-0.9,6.6-0.2,13.9-0.5c5.5-0.3,8.5-1.4,8.7-1.5c9.1-2.7,4.8-9.2-0.7-8.8
						c-23.7,1.7-60.7,18.8-60.7,18.8c-3,0.5-4.8-0.2-5.9-3.1c-1-2.7,2.2-4.2,4.5-6c12-8.8,38.3-16,38.2-17c-0.2-1-1.2-1.5-2.3-1.3
						c0,0-11.6,2-22.5,4.1c-10.2,1.9-31.8,10.4-31.8,10.4c-3,0.5-5.8-1.1-6.2-4.2c-0.2-1.5,3.3-4.6,4.8-4.9c0,0,16.7-7.7,29.8-11.5
						c5.9-1.7,24.1-5.9,24.1-5.9c1.1-0.2,1.9-1,1.8-2c-0.2-1-1.2-1.5-2.3-1.3c0,0-16,3.4-21.5,4.8c-6.4,1.7-25.8,7.8-25.8,7.8
						c-3,0.5-4.1-0.3-5.8-2.8c-1.9-2.8,1.2-4.9,4.4-6.2c0,0,19.3-7.6,25.7-9.6c5.4-1.6,15.6-3.6,21.7-4.7c1.1-0.2,1.9-1,1.8-2
						c-0.2-1-1.2-1.5-2.3-1.3c0,0-7,0.9-9.7,1.5c-5.6,1.3-23.2,6-23.2,6c-3,0.5-5.6-0.1-6.1-3.1c-0.4-2.9,1.4-3.6,4.8-4.8
						c0,0,25.5-8.2,34.4-10.3c48.7-11.3,53.4,4.4,77.1-1c3.2-0.7,5.5,5.8,9.4,6.6c5.9,1.2-11.2,11.8-10,20.2
						c0.3,2.3,30.1,3.7,30,4.8c-0.1,1-25,0.7-39.4,19.2c-5.8,7.4-13.4,17.1-23.5,18.7C139.5,171.5,132.2,162.1,134.3,157.5z"/>
				</g>
			</g>
		</g>
		<path fill="#F9AFAF" d="M95.6,156.5l-4.8,2.5c-2.1,1.1-3,3.2-2,4.7l0,0c1,1.5,3.4,1.8,5.5,0.8l4.8-2.5c0,0,0.2-1.5-0.9-3.2
			C97,156.9,95.6,156.5,95.6,156.5z"/>
		<path fill="#F9AFAF" d="M77.1,143.4l-5.4,2.3c-2.3,1-3.5,3.1-2.7,4.8l0,0c0.8,1.7,3.4,2.3,5.7,1.3l5.4-2.3c0,0,0.4-1.5-0.6-3.5
			C78.5,144,77.1,143.4,77.1,143.4z"/>
		<path fill="#F9AFAF" d="M80.9,126.9l-5.4,1.9c-2.3,0.8-2.7,2.5-2.3,4.3c0.4,2,2.6,2.6,4.9,1.8l5.4-1.9c0,0,0.5-1.5-0.3-3.4
			C82.2,127.6,80.9,126.9,80.9,126.9z"/>
		<path fill="#F9AFAF" d="M93.4,109.7l-4.4,1.2c-1.9,0.5-3.1,2.1-2.7,3.5l0,0c0.4,1.4,2.3,2.1,4.2,1.6l4.4-1.2c0,0,0.5-1.2,0-2.8
			C94.4,110.3,93.4,109.7,93.4,109.7z"/>
		<path fill="#F9C7C5" d="M337.4,64.2c9.7-4.4-4.8,50.8-4.8,50.8l-170.5,23.5l-5.4-34.8C156.7,103.6,283.5,88.9,337.4,64.2z"/>
		<path fill="#F9AFAF" d="M132.6,158.5c1.7-0.9,6.6,1.2,6.6,1.2l0,4c0,0-6.1-0.9-7.2-3.2C131.7,159.9,131.7,159,132.6,158.5z"/>
	</g>
</g>
</svg>
