<?xml version="1.0" encoding="utf-8"?>
<!-- Generator: Adobe Illustrator 16.0.0, SVG Export Plug-In . SVG Version: 6.00 Build 0)  -->
<!DOCTYPE svg PUBLIC "-//W3C//DTD SVG 1.1//EN" "http://www.w3.org/Graphics/SVG/1.1/DTD/svg11.dtd">
<svg version="1.1" id="Layer_1" xmlns="http://www.w3.org/2000/svg" xmlns:xlink="http://www.w3.org/1999/xlink" x="0px" y="0px"
	 width="315.5px" height="436.5px" viewBox="0 0 315.5 436.5" enable-background="new 0 0 315.5 436.5" xml:space="preserve">
<g>
	<path fill="#DD5757" d="M253.89,263.846c-3.742,9.24-14.269,13.699-23.511,9.955L51.754,201.446
		c-9.24-3.745-13.698-14.272-9.955-23.51L97.411,40.648c3.743-9.242,14.269-13.698,23.51-9.955l178.627,72.356
		c9.241,3.742,13.697,14.269,9.953,23.511L253.89,263.846z"/>
	<path fill="#D3D3D3" d="M248.182,242.643c-3.808,9.402-14.517,13.936-23.917,10.127l-176.87-71.643
		c-9.4-3.809-13.935-14.517-10.126-23.917L95.771,12.785c3.808-9.401,14.516-13.934,23.917-10.126l176.871,71.645
		c9.399,3.807,13.933,14.516,10.125,23.915L248.182,242.643z"/>
	<path fill="#354654" d="M245.655,236.207c-3.563,8.795-13.578,13.033-22.37,9.473L53.033,176.717
		c-8.792-3.563-13.033-13.579-9.471-22.372L98.84,17.88c3.561-8.792,13.578-13.034,22.37-9.473l170.253,68.965
		c8.791,3.561,13.033,13.579,9.472,22.371L245.655,236.207z"/>
	<g>
		<g>
			<path fill="#FCC454" d="M224.063,132.316c-0.604,3.865-1.616,7.727-3.145,11.507c-10.78,26.653-41.132,39.516-67.781,28.736
				c-26.658-10.782-39.528-41.124-28.749-67.775c10.779-26.654,41.124-39.523,67.783-28.741
				c19.456,7.868,31.533,26.181,32.457,45.861l5.307-2.82c-1.938-20.717-15.067-39.694-35.652-48.019
				c-29.377-11.881-62.939,2.353-74.82,31.726c-11.878,29.375,2.353,62.939,31.729,74.823c29.374,11.878,62.938-2.356,74.817-31.732
				c2.255-5.573,3.561-11.291,4.015-16.989L224.063,132.316z"/>
			<g>
				<g>
					<path fill="#D8B560" d="M116.246,157.814c-1.759-0.712-3.761,0.14-4.472,1.895c-0.712,1.762,0.137,3.758,1.898,4.471
						c1.755,0.711,3.758-0.134,4.469-1.896C118.851,160.53,118.001,158.525,116.246,157.814z M113.967,163.45
						c-1.354-0.55-2.006-2.092-1.461-3.441c0.546-1.354,2.09-2.01,3.444-1.459c1.351,0.545,2.004,2.087,1.46,3.441
						C116.864,163.338,115.32,163.994,113.967,163.45z"/>
				</g>
			</g>
			<path fill="#FCC454" d="M160.943,119.568c-2.617,6.471,0.507,13.83,6.975,16.448c6.471,2.615,13.832-0.504,16.449-6.974
				c2.615-6.469-0.51-13.83-6.977-16.448C170.922,109.981,163.559,113.103,160.943,119.568z M175.16,125.319
				c-0.559,1.384-2.134,2.054-3.52,1.493c-1.385-0.562-2.053-2.138-1.494-3.519c0.562-1.389,2.138-2.054,3.521-1.495
				C175.055,122.358,175.722,123.933,175.16,125.319z"/>
			<g>
				<g>
					<path fill="#D8B560" d="M107.015,148.176c-3.163-1.278-6.758,0.247-8.036,3.407c-1.278,3.16,0.25,6.757,3.409,8.033
						c3.162,1.279,6.757-0.244,8.034-3.406C111.699,153.051,110.175,149.457,107.015,148.176z M102.848,158.478
						c-2.529-1.023-3.749-3.903-2.725-6.434c1.022-2.529,3.9-3.749,6.43-2.724c2.528,1.023,3.747,3.899,2.725,6.429
						C108.254,158.276,105.376,159.5,102.848,158.478z"/>
				</g>
			</g>
			<path fill="#FCC454" d="M248.797,92.002l-3.146-1.272c-0.227-0.093-0.447-0.167-0.675-0.074
				c-0.227,0.097-0.388,0.237-0.479,0.464l-11.389,28.199l-8.392,4.515l-5.573,2.995l-2.379-0.238
				c-0.185-0.016-0.364,0.016-0.525,0.103l-10.455,5.576l-0.261-0.496c-0.243-0.447-0.803-0.621-1.248-0.381l-11.11,5.929
				c-0.444,0.237-0.617,0.799-0.378,1.246l4.438,8.322c0.104,0.199,0.274,0.344,0.47,0.42c0.24,0.1,0.527,0.096,0.778-0.036
				l11.106-5.924c0.217-0.118,0.38-0.311,0.449-0.545c0.074-0.238,0.048-0.489-0.065-0.708l-0.269-0.497l10.457-5.574
				c0.159-0.089,0.289-0.213,0.377-0.371l1.14-2.093l2.711-1.377l-0.002,0.004l12.757-6.465c0.195-0.104,0.694-0.128,0.776-0.328
				l12.159-30.068C250.262,92.854,249.271,92.193,248.797,92.002z"/>
		</g>
	</g>
	<path fill="#FCC454" d="M222.547,231.248c-1.233,3.045-4.701,4.512-7.746,3.279L70.76,176.18c-3.045-1.232-4.512-4.701-3.28-7.745
		l0,0c1.233-3.045,4.7-4.512,7.745-3.279l144.042,58.348C222.311,224.736,223.779,228.203,222.547,231.248L222.547,231.248z"/>
	<g>
		<g>
			<g>
				<path fill="#FFC5B8" d="M129.491,183.076c-0.934,0.729-0.498,6.681-1.254,14.067c-0.567,5.564-1.846,8.546-1.92,8.753
					c-3.19,9.092-9.526,4.378-8.832-1.183c2.983-23.895,22.177-60.43,22.177-60.43c0.628-3.019,0.025-4.885-2.849-6.176
					c-2.632-1.183-4.397,1.989-6.262,4.28c-9.479,11.667-18.151,37.907-19.159,37.693c-1.013-0.206-1.456-1.252-1.22-2.392
					c0,0,2.634-11.584,5.306-22.539c2.497-10.246,12.133-31.604,12.133-31.604c0.627-3.016-0.859-5.878-3.93-6.517
					c-1.526-0.319-4.866,3.118-5.179,4.622c0,0-8.699,16.483-13.198,29.519c-2.04,5.917-7.186,24.013-7.186,24.013
					c-0.24,1.135-1.064,1.914-2.072,1.708c-1.009-0.209-1.458-1.258-1.219-2.396c0,0,4.251-16,6.007-21.452
					c2.044-6.332,9.201-25.682,9.201-25.682c0.627-3.018-0.068-4.146-2.565-6.049c-2.771-2.114-5.024,1.003-6.543,4.153
					c0,0-8.73,19.066-11.024,25.493c-1.921,5.378-4.438,15.595-5.842,21.71c-0.262,1.131-1.064,1.918-2.073,1.708
					c-1.008-0.208-1.454-1.255-1.218-2.393c0,0,1.307-7.036,2.056-9.684c1.569-5.551,7.233-23.117,7.233-23.117
					c0.625-3.022,0.202-5.664-2.873-6.304c-2.891-0.6-3.685,1.259-5.145,4.634c0,0-9.654,25.37-12.199,34.217
					c-13.998,48.688,1.696,54.195-4.976,77.939c-0.901,3.207,5.548,5.834,6.16,9.828c0.933,6.063,12.558-10.738,20.958-9.105
					c2.327,0.451,2.159,30.662,3.342,30.611c1.033-0.049,2.046-25.197,21.492-38.873c7.829-5.508,18.008-12.672,20.165-22.801
					C143.42,189.052,134.239,181.181,129.491,183.076z"/>
			</g>
			<path fill="#F9AFAF" d="M130.477,143.916l2.822-4.74c1.211-2.031,3.389-2.838,4.864-1.794l0,0c1.477,1.046,1.69,3.546,0.48,5.578
				l-2.824,4.74c0,0-1.481,0.135-3.166-1.059C130.845,145.359,130.477,143.916,130.477,143.916z"/>
			<path fill="#F9AFAF" d="M118.233,124.487l2.569-5.377c1.097-2.307,3.36-3.419,5.04-2.487l0,0c1.685,0.93,2.159,3.559,1.056,5.866
				l-2.563,5.376c0,0-1.577,0.32-3.504-0.747C118.771,125.977,118.233,124.487,118.233,124.487z"/>
			<path fill="#F9AFAF" d="M101.378,127.449l2.22-5.311c0.953-2.281,2.687-2.615,4.468-2.15c1.978,0.52,2.529,2.75,1.574,5.032
				l-2.212,5.312c0,0-1.51,0.404-3.419-0.508C101.963,128.849,101.378,127.449,101.378,127.449z"/>
			<path fill="#F9AFAF" d="M83.264,139.229l1.484-4.417c0.636-1.898,2.281-3.02,3.675-2.505l0,0c1.396,0.516,2.013,2.47,1.377,4.37
				l-1.48,4.418c0,0-1.194,0.436-2.787-0.154C83.822,140.31,83.264,139.229,83.264,139.229z"/>
			<path fill="#F9AFAF" d="M130.628,181.365c-1.042,1.658,0.823,6.768,0.823,6.768l4.094,0.221c0,0-0.573-6.205-2.884-7.438
				C132.097,180.613,131.137,180.554,130.628,181.365z"/>
			<path fill="#FFC5B8" d="M24.608,383.549c-4.991,9.539,51.617-2.219,51.617-2.219l32.583-171.133l-34.935-7.274
				C73.874,202.923,52.438,330.365,24.608,383.549z"/>
		</g>
		<g>
			<g>
				<path fill="#FFC5B8" d="M201.375,187.481c0.364,1.124-3.325,5.818-6.831,12.36c-2.645,4.932-3.248,8.118-3.302,8.332
					c-2.446,9.318,5.445,8.956,7.979,3.958c10.896-21.474,15.42-62.497,15.42-62.497c1.166-2.855,2.707-4.063,5.815-3.526
					c2.843,0.492,2.534,4.112,2.795,7.052c1.329,14.971-6.154,41.574-5.201,41.963c0.949,0.391,1.905-0.226,2.349-1.3
					c0,0,4.297-11.081,8.208-21.655c3.665-9.888,7.622-32.982,7.622-32.982c1.166-2.853,3.998-4.396,6.902-3.206
					c1.445,0.59,2.291,5.31,1.708,6.729c0,0-2.009,18.532-5.573,31.85c-1.614,6.049-7.474,23.927-7.474,23.927
					c-0.438,1.075-0.189,2.187,0.762,2.575c0.955,0.39,1.909-0.227,2.349-1.301c0,0,5.428-15.641,7.019-21.146
					c1.849-6.391,6.743-26.436,6.743-26.436c1.166-2.85,2.375-3.399,5.506-3.579c3.482-0.202,3.603,3.646,3.106,7.103
					c0,0-3.434,20.69-5.123,27.299c-1.417,5.53-5.046,15.41-7.303,21.267c-0.414,1.082-0.189,2.187,0.763,2.575
					c0.953,0.392,1.906-0.226,2.349-1.3c0,0,2.852-6.564,3.712-9.181c1.803-5.479,6.937-23.21,6.937-23.21
					c1.166-2.855,2.999-4.805,5.903-3.617c2.73,1.119,2.351,3.1,1.672,6.719c0,0-6.185,26.43-9.024,35.188
					c-15.633,48.184-31.719,43.977-39.472,67.389c-1.049,3.164-7.862,1.732-10.603,4.701c-4.164,4.502-4.405-15.93-12.281-19.273
					c-2.183-0.928-18.938,24.209-19.891,23.508c-0.828-0.619,12.392-22.031,3.927-44.248c-3.411-8.939-7.841-20.574-3.955-30.179
					C186.483,184.643,198.495,183.252,201.375,187.481z"/>
			</g>
			<path fill="#F9AFAF" d="M222.46,154.469l0.313-5.511c0.133-2.361-1.223-4.248-3.03-4.205l0,0
				c-1.807,0.041-3.381,1.996-3.515,4.356l-0.313,5.507c0,0,1.152,0.941,3.219,0.892C221.351,155.458,222.46,154.469,222.46,154.469
				z"/>
			<path fill="#F9AFAF" d="M243.474,145.213l0.88-5.895c0.381-2.527-0.867-4.715-2.786-4.881l0,0
				c-1.917-0.169-3.777,1.744-4.154,4.271l-0.882,5.893c0,0,1.127,1.147,3.318,1.342
				C242.198,146.149,243.474,145.213,243.474,145.213z"/>
			<path fill="#F9AFAF" d="M255.791,157.095l1.13-5.644c0.484-2.422-0.764-3.671-2.502-4.281c-1.931-0.677-3.634,0.864-4.12,3.286
				l-1.132,5.647c0,0,1.026,1.177,3.116,1.49C254.522,157.929,255.791,157.095,255.791,157.095z"/>
			<path fill="#F9AFAF" d="M264.214,176.995l1.244-4.493c0.531-1.929-0.199-3.779-1.648-4.136l0,0
				c-1.44-0.349-3.047,0.928-3.582,2.856l-1.244,4.488c0,0,0.746,1.03,2.395,1.433C263.151,177.573,264.214,176.995,264.214,176.995
				z"/>
			<path fill="#FFC5B8" d="M176.178,412.324c-1.199,10.699-41.55-30.709-41.55-30.709l68.722-160.086l33.024,13.516
				C236.374,235.045,182.856,352.676,176.178,412.324z"/>
			<path fill="#F9AFAF" d="M201.39,185.427c-0.066,1.956-4.469,5.149-4.469,5.149l-3.518-2.106c0,0,3.943-4.823,6.553-4.553
				C200.593,183.983,201.419,184.469,201.39,185.427z"/>
		</g>
	</g>
</g>
</svg>
