<?xml version="1.0" encoding="utf-8"?>
<!-- Generator: Adobe Illustrator 16.0.0, SVG Export Plug-In . SVG Version: 6.00 Build 0)  -->
<!DOCTYPE svg PUBLIC "-//W3C//DTD SVG 1.1//EN" "http://www.w3.org/Graphics/SVG/1.1/DTD/svg11.dtd">
<svg version="1.1" id="Layer_1" xmlns="http://www.w3.org/2000/svg" xmlns:xlink="http://www.w3.org/1999/xlink" x="0px" y="0px"
	 width="408.6px" height="272.7px" viewBox="0 0 408.6 272.7" enable-background="new 0 0 408.6 272.7" xml:space="preserve">
<g>
	<g>
		<circle cx="305.613" cy="122.891" r="99.756"/>
		<g>
			<path fill="#FCC454" d="M274.234,218.634c12.479-21.895,12.216-49.941-3.014-72.044c-15.23-22.102-41.346-32.334-66.246-28.47
				c-1.025,21.277,4.655,43.046,17.674,61.94C235.668,198.955,253.989,212.015,274.234,218.634z"/>
			<path fill="#FCC454" d="M340.004,99.193c15.231,22.103,41.347,32.335,66.248,28.472c1.024-21.278-4.655-43.047-17.676-61.942
				C375.558,46.83,357.237,33.77,336.99,27.152C324.514,49.044,324.775,77.09,340.004,99.193z"/>
			<path fill="#FCC454" d="M337.54,100.89c-15.77-22.885-16.167-51.87-3.469-74.646c-27.683-8.133-58.605-4.365-84.384,12.85
				l114.314,165.896c25.266-17.957,39.8-45.513,42.057-74.276C380.255,134.471,353.311,123.776,337.54,100.89z"/>
			<path fill="#FCC454" d="M205.167,115.069c25.803-3.755,52.748,6.939,68.518,29.825c15.771,22.884,16.168,51.87,3.469,74.646
				c27.685,8.133,58.607,4.364,84.385-12.85L247.223,40.793C221.958,58.751,207.424,86.306,205.167,115.069z"/>
		</g>
	</g>
	<g>
		<g>
			<g>
				<path fill="#E5C0B5" d="M203.683,150.396c-0.669,0.97-6.802,1.476-14.001,1.884c-5.432,0.307-8.289,1.529-8.486,1.598
					c-8.761,2.947-3.838,10.065,1.576,9.62c23.277-1.905,58.159-20.661,58.159-20.661c2.934-0.515,4.786,0.24,6.189,3.425
					c1.285,2.913-1.74,4.653-3.893,6.538c-10.985,9.614-36.284,17.552-36.027,18.656c0.252,1.102,1.301,1.646,2.402,1.451
					c0,0,11.229-2.21,21.838-4.495c9.92-2.14,30.391-11.389,30.391-11.389c2.927-0.512,5.803,1.253,6.573,4.611
					c0.384,1.675-2.825,5.096-4.283,5.353c0,0-15.736,8.502-28.295,12.651c-5.702,1.883-23.189,6.452-23.189,6.452
					c-1.101,0.194-1.827,1.046-1.574,2.15c0.255,1.098,1.302,1.642,2.402,1.449c0,0,15.479-3.714,20.739-5.318
					c6.106-1.858,24.727-8.538,24.727-8.538c2.925-0.512,4.064,0.302,6.05,3.112c2.203,3.113-0.742,5.382-3.76,6.854
					c0,0-18.265,8.39-24.453,10.521c-5.18,1.782-15.074,3.94-20.999,5.127c-1.092,0.217-1.829,1.044-1.574,2.145
					c0.257,1.104,1.301,1.644,2.401,1.451c0,0,6.838-1.024,9.396-1.692c5.366-1.396,22.31-6.549,22.31-6.549
					c2.929-0.512,5.536,0.093,6.31,3.455c0.729,3.162-1.052,3.917-4.292,5.312c0,0-24.398,9.049-32.952,11.314
					c-47.037,12.457-53.184-4.828-76.135,1.08c-3.101,0.8-5.979-6.329-9.924-7.211c-5.984-1.341,9.923-12.998,7.92-22.179
					c-0.555-2.546-30.152-4.027-30.156-5.306c-0.001-1.114,24.591-0.823,37.066-21.115c5.019-8.169,11.554-18.793,21.383-20.562
					C196.882,136.295,212.865,141.258,203.683,150.396z"/>
			</g>
		</g>
		<path fill="#F4D4CE" d="M241.634,152.862l3.937-2.436c1.688-1.044,2.174-3.231,1.078-4.886l0,0
			c-1.092-1.654-3.353-2.15-5.039-1.106l-3.938,2.436c0,0,0.04,1.531,1.284,3.423C240.297,152.322,241.634,152.862,241.634,152.862z
			"/>
		<path fill="#F4D4CE" d="M261.354,167.12l5.146-2.481c2.21-1.063,3.193-3.449,2.2-5.318l0,0c-0.994-1.873-3.593-2.533-5.802-1.466
			l-5.145,2.479c0,0-0.24,1.688,0.897,3.831C259.87,166.457,261.354,167.12,261.354,167.12z"/>
		<path fill="#F4D4CE" d="M259.138,185.251l4.407-1.819c1.89-0.781,2.011-2.59,1.426-4.522c-0.647-2.154-2.647-2.962-4.535-2.181
			l-4.41,1.819c0,0-0.2,1.558,0.781,3.674C257.858,184.491,259.138,185.251,259.138,185.251z"/>
		<path fill="#F4D4CE" d="M248.578,204.15l4.258-1.359c1.832-0.584,2.854-2.3,2.282-3.842l0,0c-0.575-1.534-2.519-2.311-4.347-1.727
			l-4.264,1.356c0,0-0.368,1.271,0.285,3.023C247.493,203.492,248.578,204.15,248.578,204.15z"/>
		<path fill="#E5C0B5" d="M11.964,254.139c-9.108,4.875-0.296-55.736-0.296-55.736l166.15-25.815l8.792,38.21
			C186.61,210.797,62.748,226.959,11.964,254.139z"/>
		<path fill="#F4D4CE" d="M206.987,148.481c-0.684,1.616-6.226,1.789-6.226,1.789s-0.808-2.2-0.672-4.075
			c0.218-2.981,0.659-4.16,0.659-4.16S209.834,141.736,206.987,148.481z"/>
	</g>
	<g>
		<g>
			<g>
				<path fill="#E5C0B5" d="M221.145,94.577c-0.765-0.896-6.917-0.761-14.123-0.417c-5.43,0.26-8.4-0.656-8.605-0.706
					c-9.019-2.018-4.865-9.612,0.567-9.732c23.347-0.529,59.995,14.494,59.995,14.494c2.968,0.205,4.735-0.737,5.798-4.05
					c0.975-3.03-2.217-4.446-4.553-6.098c-11.926-8.417-37.914-13.677-37.772-14.804c0.136-1.124,1.119-1.771,2.236-1.693
					c0,0,11.398,1.028,22.189,2.197c10.087,1.094,31.411,8.161,31.411,8.161c2.962,0.205,5.638-1.851,6.054-5.271
					c0.213-1.704-3.339-4.772-4.815-4.876c0,0-16.537-6.818-29.458-9.636c-5.867-1.279-23.736-4.003-23.736-4.003
					c-1.114-0.077-1.924-0.851-1.788-1.973c0.138-1.12,1.122-1.771,2.237-1.693c0,0,15.782,2.082,21.179,3.13
					c6.269,1.215,25.482,5.917,25.482,5.917c2.964,0.204,4.013-0.724,5.692-3.725c1.867-3.33-1.3-5.275-4.45-6.425
					c0,0-19.043-6.443-25.416-7.918c-5.336-1.233-15.403-2.348-21.42-2.909c-1.109-0.106-1.927-0.849-1.789-1.971
					c0.139-1.121,1.123-1.771,2.24-1.693c0,0,6.902,0.307,9.516,0.705c5.48,0.828,22.871,4.188,22.871,4.188
					c2.967,0.205,5.499-0.668,5.917-4.092c0.396-3.222-1.456-3.786-4.822-4.836c0,0-25.211-6.457-33.949-7.82
					c-48.083-7.49-52.396,10.34-75.836,6.853c-3.166-0.469-5.289,6.917-9.121,8.206c-5.808,1.957,11.227,11.895,10.188,21.235
					c-0.284,2.59-29.567,7.146-29.438,8.416c0.114,1.108,24.543-1.74,39.063,17.143c5.844,7.598,13.446,17.484,23.408,18.22
					C215.849,109.309,231.23,102.707,221.145,94.577z"/>
			</g>
		</g>
		<path fill="#F4D4CE" d="M258.63,88.173l4.172,2.011c1.787,0.862,2.496,2.986,1.581,4.748l0,0c-0.914,1.76-3.11,2.486-4.897,1.624
			l-4.171-2.01c0,0-0.12-1.53,0.925-3.539C257.358,88.849,258.63,88.173,258.63,88.173z"/>
		<path fill="#F4D4CE" d="M276.761,71.937l5.379,1.933c2.309,0.826,3.533,3.095,2.74,5.061l0,0c-0.792,1.966-3.31,2.892-5.615,2.061
			l-5.375-1.931c0,0-0.416-1.653,0.492-3.901C275.353,72.751,276.761,71.937,276.761,71.937z"/>
		<path fill="#F4D4CE" d="M272.667,54.135l4.574,1.351c1.959,0.581,2.269,2.365,1.89,4.35c-0.422,2.208-2.324,3.221-4.284,2.641
			l-4.577-1.351c0,0-0.358-1.526,0.396-3.734C271.475,55.024,272.667,54.135,272.667,54.135z"/>
		<path fill="#F4D4CE" d="M260.2,36.438l4.375,0.91c1.882,0.388,3.077,1.989,2.669,3.583l0,0c-0.411,1.587-2.264,2.559-4.146,2.169
			l-4.378-0.903c0,0-0.498-1.226-0.031-3.039C259.188,37.208,260.2,36.438,260.2,36.438z"/>
		<path fill="#F4D4CE" d="M224.63,96.134c-0.847-1.534-6.376-1.13-6.376-1.13s-0.577,2.271-0.245,4.125
			c0.527,2.941,1.09,4.067,1.09,4.067S228.164,102.548,224.63,96.134z"/>
		<path fill="#E5C0B5" d="M19.662,11.363c-9.565-3.901,5.514,55.465,5.514,55.465l167.933,8.37l4.767-38.917
			C197.875,36.281,73.004,33.106,19.662,11.363z"/>
	</g>
</g>
</svg>
