<?xml version="1.0" encoding="utf-8"?>
<!-- Generator: Adobe Illustrator 16.0.0, SVG Export Plug-In . SVG Version: 6.00 Build 0)  -->
<!DOCTYPE svg PUBLIC "-//W3C//DTD SVG 1.1//EN" "http://www.w3.org/Graphics/SVG/1.1/DTD/svg11.dtd">
<svg version="1.1" id="Layer_1" xmlns="http://www.w3.org/2000/svg" xmlns:xlink="http://www.w3.org/1999/xlink" x="0px" y="0px"
	 width="348.883px" height="419.861px" viewBox="0 0 348.883 419.861" enable-background="new 0 0 348.883 419.861"
	 xml:space="preserve">
<g>
	<g>
		<path opacity="0.1" enable-background="new    " d="M166.4,229.8c-1.899,2-5,2.2-7,0.3L62,141.4c-2-1.898-2.2-5-0.3-7L182.7,1.7
			c1.899-2,5-2.2,7-0.302L287.1,90c2,1.898,2.199,5,0.301,7L166.4,229.8z"/>
		<path fill="#FF884D" d="M170.299,230.4c-1.899,2-5,2.2-7,0.302L66,142c-2-1.9-2.2-5-0.3-7l121-132.7c1.899-2,5-2.2,7-0.3L291,90.6
			c2,1.9,2.199,5,0.299,7L170.299,230.4z"/>
		
			<rect x="116.402" y="31.365" transform="matrix(0.7508 0.6606 -0.6606 0.7508 121.231 -88.9623)" fill="#FFFFFF" stroke="#DEDEDE" stroke-width="2" width="124.212" height="169.616"/>
		
			<rect x="89.692" y="137.871" transform="matrix(0.751 0.6603 -0.6603 0.751 139.9047 -52.8615)" fill="none" stroke="#808080" stroke-width="2" width="100.7" height="42.4"/>
		<line fill="none" stroke="#808080" stroke-width="2" x1="144" y1="134.3" x2="116" y2="166.1"/>
		<line fill="none" stroke="#808080" stroke-width="2" x1="162" y1="150.1" x2="134" y2="181.9"/>
		<line fill="none" stroke="#808080" stroke-width="2" x1="177.299" y1="163.6" x2="149.299" y2="195.4"/>
		<line fill="none" stroke="#808080" stroke-width="2" x1="111.6" y1="115.2" x2="187.299" y2="181.7"/>
		<line fill="none" stroke="#808080" stroke-width="20" x1="186.9" y1="31.9" x2="262.5" y2="98.4"/>
		<line fill="none" stroke="#808080" stroke-width="2" x1="176.1" y1="46.3" x2="126.4" y2="102.9"/>
		<polygon fill="#B3B3B3" points="173.5,115.1 158,98.1 126.2,102.7 159,131.5 		"/>
		<polyline fill="#E6E6E6" points="243.2,109.8 241.4,110.7 205.1,128.9 197.6,110.3 172.5,116.2 159,131.5 195.6,163.9 		"/>
		<polyline fill="none" stroke="#808080" stroke-width="5" points="127.7,101.4 157.5,97.7 173.1,114.7 198.2,108.9 205.7,127.5 
			243.7,108.4 		"/>
		<line fill="none" stroke="#808080" stroke-width="2" x1="126.4" y1="102.9" x2="199.799" y2="167.4"/>
		<g>
			<circle fill="#AAAAAA" cx="251.5" cy="36.9" r="14.9"/>
			<polygon fill="#AAAAAA" points="263.9,85.5 201.9,29 223.299,21.3 269.5,63.4 			"/>
		</g>
	</g>
	<g>
		<g>
			<g>
				<path fill="#FCDFBE" d="M117.4,94.6c-1,0.8-0.6,7.3-1.6,15.3c-0.7,6.102-2.1,9.302-2.2,9.5C110,129.3,103.2,124,104,118
					c3.6-26,25-65.5,25-65.5c0.7-3.3,0.1-5.3-3-6.8c-2.8-1.302-4.8,2.1-6.9,4.6c-10.5,12.6-20.3,41-21.4,40.8
					c-1.1-0.2-1.6-1.398-1.3-2.6c0,0,3-12.602,6.1-24.5c2.9-11.102,13.7-34.2,13.7-34.2c0.7-3.3-0.9-6.4-4.2-7.2
					c-1.7-0.398-5.3,3.3-5.7,5c0,0-9.7,17.8-14.8,32C89.2,66,83.3,85.7,83.3,85.7C83,86.9,82.1,87.8,81,87.5
					c-1.1-0.2-1.6-1.4-1.3-2.602c0,0,4.9-17.398,6.8-23.3c2.5-7,10.5-28,10.5-28c0.7-3.3,0-4.5-2.7-6.6c-3-2.3-5.5,1-7.2,4.398
					C87.1,31.4,77.3,52,74.7,59C72.5,64.8,69.6,75.9,68,82.6c-0.3,1.2-1.2,2.102-2.3,1.8C64.6,84.2,64.1,83,64.4,81.8
					c0,0,1.5-7.6,2.4-10.5c1.8-6,8.2-25.1,8.2-25.1c0.7-3.302,0.3-6.2-3-6.9c-3.1-0.7-4,1.3-5.7,5c0,0-10.9,27.5-13.8,37.1
					c-15.9,52.802,1.1,59-6.5,84.802c-1,3.5,6,6.398,6.6,10.8c0.9,6.6,13.8-11.5,23-9.602c2.5,0.5,1.9,33.4,3.2,33.4
					c1.1,0,2.6-27.4,24-42c8.6-5.9,19.8-13.5,22.3-24.5C132.5,101.3,122.6,92.6,117.4,94.6z"/>
			</g>
		</g>
		<path fill="#F9AFAF" d="M119.1,52l3.1-5.102c1.3-2.198,3.7-3,5.3-1.898l0,0c1.6,1.2,1.8,3.898,0.4,6.1l-3.1,5.102
			c0,0-1.6,0.1-3.4-1.2C119.4,53.5,119.1,52,119.1,52z"/>
		<path fill="#F9AFAF" d="M106,30.6l2.9-5.8c1.2-2.5,3.7-3.7,5.5-2.6l0,0c1.8,1,2.3,3.898,1.1,6.398l-2.9,5.8
			c0,0-1.7,0.302-3.8-0.898C106.6,32.2,106,30.6,106,30.6z"/>
		<path fill="#F9AFAF" d="M87.6,33.6l2.5-5.8c1.1-2.5,3-2.8,4.9-2.3c2.1,0.6,2.7,3,1.6,5.5l-2.5,5.8c0,0-1.6,0.4-3.7-0.6
			C88.2,35.1,87.6,33.6,87.6,33.6z"/>
		<path fill="#F9AFAF" d="M67.7,46.2l1.7-4.802c0.7-2.1,2.5-3.3,4-2.698l0,0c1.5,0.6,2.2,2.698,1.4,4.8l-1.7,4.8c0,0-1.3,0.5-3-0.2
			C68.3,47.4,67.7,46.2,67.7,46.2z"/>
		<path fill="#F9AFAF" d="M118.7,92.7c-1.2,1.8,0.8,7.398,0.8,7.398l4.5,0.3c0,0-0.5-6.8-3-8.1C120.3,91.9,119.3,91.9,118.7,92.7z"
			/>
		<path fill="#FCDFBE" d="M0.4,311.5c-5.6,10.3,56.2-1.7,56.2-1.7l37.9-185.9L56.6,115.5C56.6,115.4,31.4,253.9,0.4,311.5z"/>
	</g>
	<g>
		<g>
			<g>
				<path fill="#FCDFBE" d="M187.7,178c0.2,1.3-4.699,5.6-9.699,11.898C174.2,194.7,172.9,198,172.799,198.2
					c-4.399,9.5,4.102,10.698,7.801,5.8c15.9-20.9,28.699-64,28.699-64c1.801-2.8,3.701-3.8,6.9-2.602c3,1.102,1.9,4.9,1.6,8.102
					c-1.5,16.3-14.699,43.3-13.799,44c0.898,0.6,2.1,0.1,2.799-0.9c0,0,6.801-11,13-21.6c5.9-9.9,14.602-33.9,14.602-33.9
					c1.8-2.8,5.101-3.898,8-2.1c1.398,0.898,1.398,6.1,0.5,7.5c0,0-5.801,19.5-12.2,33c-2.9,6.2-12.699,24.2-12.699,24.2
					c-0.701,1.1-0.601,2.3,0.299,2.898c0.9,0.602,2.101,0.102,2.802-0.898c0,0,8.899-15.7,11.698-21.302c3.201-6.5,12.4-27,12.4-27
					c1.801-2.8,3.2-3.198,6.6-2.8c3.802,0.5,3.201,4.602,1.9,8.2c0,0-7.699,21.5-10.8,28.3c-2.602,5.7-8.399,15.5-12,21.4
					c-0.7,1.1-0.602,2.3,0.3,2.898c0.899,0.602,2.1,0.102,2.801-0.898c0,0,4.299-6.5,5.799-9.102c3-5.5,12-23.5,12-23.5
					c1.802-2.8,4.201-4.6,7-2.698c2.701,1.698,1.9,3.8,0.5,7.5c0,0-11.799,27.1-16.5,35.898c-26.198,48.602-42.6,40.9-55.5,64.5
					c-1.698,3.2-8.799,0.3-12.299,3c-5.301,4-1.601-17.898-9.4-23c-2.2-1.398-25,22.2-25.9,21.3c-0.8-0.8,17.599-21.198,12.9-46.6
					c-1.9-10.2-4.4-23.6,1.699-33.1C172.299,172,185.5,172.9,187.7,178z"/>
			</g>
		</g>
		<path fill="#F9AFAF" d="M216.799,146.7l1.4-5.802c0.6-2.5-0.5-4.8-2.4-5.1l0,0c-1.898-0.3-4,1.5-4.6,4l-1.4,5.8
			c0,0,1.102,1.2,3.301,1.602C215.4,147.6,216.799,146.7,216.799,146.7z"/>
		<path fill="#F9AFAF" d="M241.1,140.9l2.101-6.1c0.899-2.6,0-5.2-2-5.8l0,0c-2-0.602-4.4,1.1-5.3,3.8l-2.102,6.1
			c0,0,1,1.4,3.301,2.102C239.5,141.7,241.1,140.9,241.1,140.9z"/>
		<path fill="#F9AFAF" d="M252,156.1l2.299-5.8c1-2.5-0.1-4.1-1.799-5.1c-1.9-1.102-4.102,0.198-5.102,2.698L245.1,153.7
			c0,0,0.899,1.5,3,2.198C250.4,156.7,252,156.1,252,156.1z"/>
		<path fill="#F9AFAF" d="M257.1,179l2.199-4.602c0.9-2,0.5-4.1-1-4.8l0,0c-1.5-0.7-3.398,0.4-4.398,2.4l-2.2,4.6
			c0,0,0.6,1.2,2.301,2C255.799,179.4,257.1,179,257.1,179z"/>
		<path fill="#FCDFBE" d="M116.8,414c-3.4,11.2-38.5-41-38.5-41L183.2,214.9l32.8,20.9C215.9,235.8,135.6,351.4,116.8,414z"/>
		<path fill="#F9AFAF" d="M188.1,175.8c-0.399,2.1-5.801,4.6-5.801,4.6L178.9,177.5c0,0,5.199-4.4,7.898-3.602
			C187.6,174.1,188.299,174.8,188.1,175.8z"/>
	</g>
</g>
<g>
	<g>
		<path opacity="0.1" enable-background="new    " d="M-207.954,240.147c-1.384,2.382-4.437,3.191-6.817,1.81l-113.86-66.132
			c-2.381-1.385-3.192-4.438-1.808-6.819l90.218-155.331c1.384-2.382,4.438-3.19,6.818-1.808l113.862,66.132
			c2.381,1.384,3.189,4.435,1.808,6.816L-207.954,240.147z"/>
		<path fill="#FF884D" d="M-203.941,239.901c-1.383,2.381-4.436,3.189-6.817,1.808l-113.859-66.134
			c-2.383-1.384-3.191-4.436-1.809-6.815l90.222-155.334c1.383-2.382,4.433-3.189,6.816-1.807l113.86,66.132
			c2.382,1.383,3.192,4.435,1.808,6.816L-203.941,239.901z"/>
		
			<rect x="-282.183" y="41.751" transform="matrix(-0.8735 -0.4869 0.4869 -0.8735 -473.942 129.8965)" fill="#FFFFFF" stroke="#DEDEDE" stroke-width="2" width="124.182" height="169.565"/>
		
			<rect x="-298.964" y="155.402" transform="matrix(-0.8737 -0.4865 0.4865 -0.8737 -551.7002 209.9476)" fill="none" stroke="#808080" stroke-width="2" width="100.74" height="42.391"/>
		<line fill="none" stroke="#808080" stroke-width="2" x1="-250.041" y1="151.52" x2="-270.666" y2="188.554"/>
		<line fill="none" stroke="#808080" stroke-width="2" x1="-229.127" y1="163.166" x2="-249.751" y2="200.201"/>
		<line fill="none" stroke="#808080" stroke-width="2" x1="-211.264" y1="173.115" x2="-231.888" y2="210.149"/>
		<line fill="none" stroke="#808080" stroke-width="2" x1="-285.68" y1="139.664" x2="-197.669" y2="188.676"/>
		<line fill="none" stroke="#808080" stroke-width="20" x1="-229.756" y1="42.386" x2="-141.745" y2="91.397"/>
		<line fill="none" stroke="#808080" stroke-width="2" x1="-237.208" y1="58.773" x2="-273.847" y2="124.565"/>
		<polygon fill="#B3B3B3" points="-225.264,126.501 -243.984,113.223 -274.065,124.444 -235.941,145.673 		"/>
		<polyline fill="#E6E6E6" points="-158.263,106.637 -159.762,107.843 -191.392,133.329 -202.72,116.773 -225.992,127.81 
			-235.941,145.673 -193.323,169.597 		"/>
		<polyline fill="none" stroke="#808080" stroke-width="5" points="-272.876,122.821 -244.531,112.921 -225.701,126.26 
			-202.439,115.238 -191.12,131.817 -158.009,105.16 		"/>
		<line fill="none" stroke="#808080" stroke-width="2" x1="-273.847" y1="124.565" x2="-188.449" y2="172.12"/>
		<g>
			<circle fill="#AAAAAA" cx="-165.571" cy="33.566" r="14.911"/>
			<polygon fill="#AAAAAA" points="-143.195,78.448 -215.642,36.367 -196.35,24.356 -142.322,55.74 			"/>
		</g>
	</g>
	<g>
		<g>
			<g>
				<path fill="#E5C0B5" d="M-205.919,217.118c0.484,1.038-2.103,6.438-5.297,12.684c-2.409,4.712-2.787,7.711-2.826,7.911
					c-1.828,8.805,6.568,8.168,8.854,3.402c9.834-20.483,11.215-58.991,11.215-58.991c1.01-2.716,2.553-3.901,5.918-3.516
					c3.076,0.353,3.051,3.747,3.578,6.48c2.678,13.947-3.084,39.092-2.03,39.419c1.05,0.33,2.021-0.284,2.4-1.305
					c0,0,3.66-10.517,6.95-20.547c3.076-9.383,5.364-31.116,5.364-31.116c1.009-2.709,3.904-4.257,7.103-3.254
					c1.595,0.498,2.89,4.873,2.39,6.226c0,0-0.59,17.392-3.273,29.977c-1.22,5.713-5.971,22.644-5.971,22.644
					c-0.378,1.021-0.02,2.048,1.031,2.378c1.047,0.327,2.019-0.285,2.397-1.305c0,0,4.484-14.823,5.722-20.028
					c1.437-6.042,4.975-24.96,4.975-24.96c1.007-2.708,2.25-3.266,5.583-3.553c3.699-0.319,4.157,3.268,3.911,6.522
					c0,0-1.927,19.461-3.176,25.705c-1.048,5.226-4.096,14.594-6.01,20.152c-0.354,1.023-0.021,2.049,1.028,2.376
					c1.052,0.326,2.02-0.284,2.398-1.305c0,0,2.498-6.244,3.193-8.721c1.465-5.19,5.46-21.953,5.46-21.953
					c1.009-2.71,2.797-4.604,6-3.602c3.015,0.941,2.772,2.807,2.354,6.214c0,0-4.387,24.935-6.685,33.229
					c-12.645,45.621-30.18,42.293-36.49,64.47c-0.854,2.995-8.253,1.912-10.931,4.792c-4.066,4.366-6.042-14.719-14.737-17.547
					c-2.41-0.784-18.192,23.344-19.268,22.719c-0.938-0.546,11.388-21.056,0.476-41.499c-4.396-8.229-10.107-18.934-6.765-28.058
					C-221.103,215.904-209.083,204.918-205.919,217.118z"/>
			</g>
		</g>
		<path fill="#F4D4CE" d="M-185.209,186.459l-0.112-4.502c-0.045-1.932-1.646-3.414-3.572-3.308l0,0
			c-1.926,0.104-3.452,1.761-3.404,3.689l0.109,4.503c0,0,1.307,0.72,3.506,0.602C-186.32,187.317-185.209,186.459-185.209,186.459z
			"/>
		<path fill="#F4D4CE" d="M-163.548,176.901l0.445-5.541c0.192-2.377-1.328-4.375-3.389-4.46l0,0
			c-2.061-0.085-3.89,1.773-4.079,4.152l-0.443,5.539c0,0,1.298,1.03,3.656,1.127C-164.833,177.823-163.548,176.901-163.548,176.901
			z"/>
		<path fill="#F4D4CE" d="M-149.411,187.668l0.638-4.594c0.272-1.972-1.188-2.961-3.098-3.421c-2.126-0.514-3.787,0.77-4.059,2.738
			l-0.639,4.599c0,0,1.21,0.933,3.468,1.146C-150.677,188.369-149.411,187.668-149.411,187.668z"/>
		<path fill="#F4D4CE" d="M-138.725,205.82l0.948-4.242c0.41-1.826-0.529-3.525-2.104-3.804l0,0
			c-1.571-0.271-3.177,0.979-3.585,2.803l-0.955,4.246c0,0,0.885,0.934,2.68,1.246C-139.812,206.406-138.725,205.82-138.725,205.82z
			"/>
		<path fill="#E5C0B5" d="M-212.97,429.082c-0.381,10.044-46.953-27.13-46.953-27.13l59.935-152.212l36.405,11.385
			C-163.583,261.125-210.85,373.083-212.97,429.082z"/>
		<path fill="#F4D4CE" d="M-205.906,213.404c1.021,1.367-1.556,6.106-1.556,6.106s-2.244-0.401-3.753-1.438
			c-2.396-1.648-3.17-2.598-3.17-2.598S-210.172,207.699-205.906,213.404z"/>
	</g>
	<g>
		<g>
			<g>
				<path fill="#E5C0B5" d="M-292.315,173.018c-1.127,0.203-4.036,5.437-7.286,11.655c-2.449,4.688-4.678,6.732-4.819,6.88
					c-6.125,6.583-10.462-0.636-7.895-5.256c11.024-19.867,41.642-43.265,41.642-43.265c1.63-2.393,1.707-4.34-0.555-6.858
					c-2.066-2.308-4.822-0.322-7.357,0.829c-12.927,5.88-30.11,25.12-30.984,24.448c-0.878-0.666-0.938-1.811-0.325-2.711
					c0,0,6.462-9.065,12.744-17.555c5.875-7.934,22.284-22.37,22.284-22.37c1.627-2.388,1.215-5.645-1.453-7.674
					c-1.328-1.016-5.647,0.46-6.461,1.648c0,0-13.848,10.539-22.563,20.006c-3.955,4.299-15.021,17.967-15.021,17.967
					c-0.611,0.898-1.659,1.199-2.534,0.533c-0.874-0.666-0.937-1.813-0.323-2.71c0,0,9.501-12.231,13.031-16.249
					c4.099-4.667,17.486-18.494,17.486-18.494c1.627-2.388,1.364-3.725-0.331-6.609c-1.88-3.202-5.07-1.5-7.583,0.581
					c0,0-14.764,12.827-19.133,17.456c-3.657,3.875-9.539,11.781-12.966,16.559c-0.633,0.88-1.658,1.202-2.534,0.534
					c-0.874-0.668-0.935-1.813-0.322-2.714c0,0,3.648-5.646,5.267-7.645c3.387-4.196,14.753-17.15,14.753-17.15
					c1.628-2.391,2.138-4.944-0.531-6.979c-2.512-1.916-3.895-0.638-6.431,1.674c0,0-17.806,18-23.244,24.67
					c-29.907,36.699-17.053,49.08-31.495,67.053c-1.95,2.429,3.21,7.839,2.41,11.689c-1.208,5.84,15.504-3.584,22.84,1.875
					c2.034,1.511-8.522,28.341-7.393,28.855c0.987,0.448,10.593-21.467,33.583-24.386c9.253-1.174,21.29-2.704,26.8-10.707
					C-282.544,184.701-280.533,168.541-292.315,173.018z"/>
			</g>
		</g>
		<path fill="#F4D4CE" d="M-279.281,138.391l3.739-2.515c1.601-1.077,3.734-0.629,4.763,1.005l0,0
			c1.03,1.633,0.561,3.834-1.041,4.91l-3.735,2.516c0,0-1.345-0.649-2.519-2.515C-279.336,139.792-279.281,138.391-279.281,138.391z
			"/>
		<path fill="#F4D4CE" d="M-284.008,115.191l4.265-3.566c1.828-1.532,4.335-1.447,5.596,0.185l0,0
			c1.262,1.631,0.804,4.2-1.027,5.729l-4.262,3.565c0,0-1.592-0.464-3.033-2.331C-284.017,116.773-284.008,115.191-284.008,115.191z
			"/>
		<path fill="#F4D4CE" d="M-300.969,109.884l3.38-3.178c1.45-1.36,3.101-0.744,4.581,0.55c1.647,1.438,1.563,3.534,0.114,4.895
			l-3.383,3.181c0,0-1.458-0.448-2.941-2.166C-300.808,111.323-300.969,109.884-300.969,109.884z"/>
		<path fill="#F4D4CE" d="M-321.955,111.661l2.914-3.229c1.25-1.389,3.181-1.605,4.319-0.48l0,0
			c1.131,1.125,1.037,3.157-0.214,4.548l-2.91,3.231c0,0-1.274-0.184-2.567-1.466C-321.807,112.889-321.955,111.661-321.955,111.661
			z"/>
		<path fill="#F4D4CE" d="M-289.294,170.856c-1.705-0.043-4.082,4.801-4.082,4.801s1.625,1.601,3.345,2.231
			c2.729,1.001,3.951,1.082,3.951,1.082S-282.171,171.038-289.294,170.856z"/>
		<path fill="#E5C0B5" d="M-461.166,301.347c-7.974,6.117,49.289,22.614,49.289,22.614l89.517-136.918l-30.34-23.119
			C-352.701,163.924-416.705,267.232-461.166,301.347z"/>
	</g>
</g>
</svg>
