<?xml version="1.0" encoding="utf-8"?>
<!-- Generator: Adobe Illustrator 16.0.0, SVG Export Plug-In . SVG Version: 6.00 Build 0)  -->
<!DOCTYPE svg PUBLIC "-//W3C//DTD SVG 1.1//EN" "http://www.w3.org/Graphics/SVG/1.1/DTD/svg11.dtd">
<svg version="1.1" id="Layer_1" xmlns="http://www.w3.org/2000/svg" xmlns:xlink="http://www.w3.org/1999/xlink" x="0px" y="0px"
	 width="74.9px" height="94.5px" viewBox="0 0 74.9 94.5" enable-background="new 0 0 74.9 94.5" xml:space="preserve">
<g>
	<path fill="#F26F70" d="M40.1,94.5c-3.3,0.2-6.6-0.3-6.6-2l-1-17.9c-0.1-1.7,3-3.3,6.3-3.4l1-0.1c3.3-0.2,5.4,1.1,5.5,2.8l1,17.9
		c0.1,1.7-1.9,2.4-5.2,2.6L40.1,94.5z"/>
	<g>
		<circle fill="#A07871" cx="37.4" cy="37.4" r="33.9"/>
		<path fill="#F26F70" d="M0.1,39.5C-1.1,18.9,14.8,1.2,35.4,0.1C56-1.1,73.7,14.8,74.8,35.4C76,56,60.1,73.7,39.5,74.8
			C18.9,76,1.2,60.1,0.1,39.5z M67.9,35.8C66.9,19,52.5,6.1,35.8,7C19,8,6.1,22.3,7,39.1c0.9,16.8,15.3,29.7,32.1,28.7
			C55.9,66.9,68.8,52.5,67.9,35.8z"/>
	</g>
	<path opacity="0.8" fill="#FFFFFF" d="M38.7,67.8C22.3,68.7,8.2,55.9,7.3,39.2c-0.9-16.7,11.6-31,28-31.9C51.8,6.4,9.4,4,11.3,39
		C13.3,74.5,55.1,66.9,38.7,67.8z"/>
</g>
</svg>
