<?xml version="1.0" encoding="utf-8"?>
<!-- Generator: Adobe Illustrator 16.0.0, SVG Export Plug-In . SVG Version: 6.00 Build 0)  -->
<!DOCTYPE svg PUBLIC "-//W3C//DTD SVG 1.1//EN" "http://www.w3.org/Graphics/SVG/1.1/DTD/svg11.dtd">
<svg version="1.1" id="Layer_1" xmlns="http://www.w3.org/2000/svg" xmlns:xlink="http://www.w3.org/1999/xlink" x="0px" y="0px"
	 width="73px" height="81px" viewBox="0 0 73 81" enable-background="new 0 0 73 81" xml:space="preserve">
<g>
	<path fill="#7FBAC0" d="M0.6,54.6L31,2.3c1.3-2.2,4.1-3,6.4-1.7l33.3,19.3c2.2,1.3,3,4.2,1.7,6.4L41.9,78.6c-1.3,2.2-4.1,3-6.4,1.7
		L2.3,61C0.1,59.7-0.7,56.9,0.6,54.6z"/>
	<g>
		
			<rect x="9.5" y="40.5" transform="matrix(0.5022 -0.8647 0.8647 0.5022 -16.8759 60.8465)" fill="#454545" width="69.8" height="9.2"/>
	</g>
	<g>
		
			<rect x="25.1" y="23.3" transform="matrix(0.5022 -0.8647 0.8647 0.5022 -2.0986 47.1364)" fill="#FFFFFF" width="29.5" height="4.2"/>
	</g>
	<circle fill="#454545" cx="11.6" cy="54.9" r="4"/>
	<circle fill="#F8EE5C" cx="13.6" cy="51.4" r="4"/>
	<g>
		<path fill="#F8EE5C" d="M32.1,17.7c-1.3-0.8-1.8-2.5-1-3.8l3.2-5.6c0.8-1.3,2.5-1.8,3.8-1l1.7,1c1.3,0.8,1.8,2.5,1,3.8l-3.2,5.6
			c-0.8,1.3-2.5,1.8-3.8,1L32.1,17.7z"/>
	</g>
</g>
</svg>
