<?xml version="1.0" encoding="utf-8"?>
<!-- Generator: Adobe Illustrator 16.0.0, SVG Export Plug-In . SVG Version: 6.00 Build 0)  -->
<!DOCTYPE svg PUBLIC "-//W3C//DTD SVG 1.1//EN" "http://www.w3.org/Graphics/SVG/1.1/DTD/svg11.dtd">
<svg version="1.1" id="Layer_1" xmlns="http://www.w3.org/2000/svg" xmlns:xlink="http://www.w3.org/1999/xlink" x="0px" y="0px"
	 width="32.9px" height="15.2px" viewBox="0 0 32.9 15.2" enable-background="new 0 0 32.9 15.2" xml:space="preserve">
<g>
	<path opacity="0.1" fill="#010101" d="M23.7,13.2l0-8.5V3.3c0-1.1-0.9-2-2-2l-7.8,0L2,1.3c-1.1,0-2,0.9-2,2v1.5v8.5
		c0,1.1,0.9,2,2,2h3h13.7h3C22.8,15.2,23.7,14.3,23.7,13.2z"/>
	<rect x="23.7" y="3.3" opacity="0.1" fill="#010101" width="7.8" height="9.9"/>
	<path fill="#454545" d="M25,11.9l0-8.5V2c0-1.1-0.9-2-2-2l-7.8,0L3.3,0c-1.1,0-2,0.9-2,2v1.5v8.5c0,1.1,0.9,2,2,2l3,0H20l3,0
		C24.1,13.8,25,13,25,11.9z"/>
	<rect x="25.1" y="2" fill="#DEDEDD" width="7.8" height="9.9"/>
	<rect x="27.4" y="8" fill="#232F35" width="1.4" height="1.4"/>
	<rect x="27.4" y="4.4" fill="#232F35" width="1.4" height="1.4"/>
</g>
</svg>
