<?xml version="1.0" encoding="utf-8"?>
<!-- Generator: Adobe Illustrator 16.0.0, SVG Export Plug-In . SVG Version: 6.00 Build 0)  -->
<!DOCTYPE svg PUBLIC "-//W3C//DTD SVG 1.1//EN" "http://www.w3.org/Graphics/SVG/1.1/DTD/svg11.dtd">
<svg version="1.1" id="Layer_1" xmlns="http://www.w3.org/2000/svg" xmlns:xlink="http://www.w3.org/1999/xlink" x="0px" y="0px"
	 width="473.75px" height="413.017px" viewBox="0 0 473.75 413.017" enable-background="new 0 0 473.75 413.017"
	 xml:space="preserve">
<g>
	<g>
		<path opacity="0.1" d="M216.747,341.689c-4.494-1.068-7.71-5.627-6.642-10.122L270.81,75.989c1.067-4.498,5.817-7.35,10.313-6.281
			l157.989,37.524c4.494,1.068,7.398,5.739,6.331,10.234l-60.705,255.58c-1.066,4.496-5.662,7.197-10.159,6.131L216.747,341.689z"/>
		<path fill="#EEEEEE" d="M219.866,346.383c-4.495-1.067-8.039-5.424-6.971-9.921L273.6,80.886
			c1.067-4.497,5.812-6.314,10.308-5.246l157.783,37.476c4.495,1.068,7.61,4.752,6.544,9.248l-60.704,255.58
			c-1.067,4.495-5.335,6.997-9.832,5.93L219.866,346.383z"/>
		<path fill="#DDDDDD" d="M282.403,349.376c-4.495-1.068-8.089-5.193-7.021-9.687l55.334-232.978
			c1.069-4.497,6.446-7.881,10.941-6.815l86.966,20.657c4.495,1.068,6.724,6.135,5.654,10.631l-55.336,232.979
			c-1.066,4.494-5.079,6.935-9.572,5.867L282.403,349.376z"/>
		<path fill="#DDDDDD" d="M254.197,247.798c-3.031-0.721-4.95-3.358-4.238-6.352l14.188-59.739c0.712-2.995,3.61-4.483,6.642-3.763
			l30.274,7.191c3.032,0.719,4.959,3.354,4.248,6.349l-14.188,59.739c-0.712,2.992-3.619,4.485-6.65,3.767L254.197,247.798z"/>
		<g opacity="0.5">
			<g>
				<path fill="#231F20" d="M398.447,154.261c-1.109-0.263-1.793-1.375-1.529-2.483l2.516-10.591
					c0.263-1.11,1.373-1.795,2.483-1.533l10.593,2.518c1.11,0.263,1.795,1.376,1.531,2.484l-2.516,10.593
					c-0.264,1.11-1.374,1.793-2.484,1.53L398.447,154.261z"/>
				<path fill="#58595B" d="M396.752,151.74l2.515-10.595c0.284-1.198,1.492-1.942,2.69-1.658l10.593,2.515
					c1.199,0.287,1.941,1.494,1.658,2.694l-2.517,10.592c-0.283,1.199-1.492,1.943-2.69,1.656l-10.594-2.514
					C397.21,154.146,396.466,152.939,396.752,151.74z M413.875,144.616c0.24-1.017-0.391-2.037-1.402-2.278l-10.596-2.517
					c-1.014-0.242-2.037,0.388-2.276,1.404l-2.517,10.593c-0.242,1.013,0.39,2.037,1.401,2.276l10.596,2.517
					c1.014,0.241,2.034-0.387,2.276-1.402L413.875,144.616z"/>
			</g>
			<g>
				<path fill="#231F20" d="M402.315,137.982c-1.11-0.265-1.795-1.375-1.532-2.484l2.518-10.593
					c0.263-1.108,1.375-1.795,2.484-1.531l10.593,2.516c1.11,0.264,1.794,1.375,1.531,2.484l-2.517,10.594
					c-0.263,1.107-1.375,1.793-2.484,1.53L402.315,137.982z"/>
				<path fill="#58595B" d="M400.619,135.458l2.515-10.594c0.284-1.198,1.492-1.943,2.69-1.656l10.594,2.514
					c1.197,0.285,1.94,1.491,1.657,2.691l-2.515,10.593c-0.287,1.2-1.493,1.944-2.693,1.659l-10.592-2.516
					C401.076,137.864,400.333,136.66,400.619,135.458z M417.74,128.335c0.242-1.016-0.389-2.037-1.402-2.278l-10.593-2.516
					c-1.016-0.242-2.037,0.388-2.278,1.404l-2.517,10.593c-0.241,1.015,0.389,2.035,1.405,2.276l10.594,2.517
					c1.014,0.241,2.034-0.389,2.276-1.404L417.74,128.335z"/>
			</g>
			<g>
				<path fill="#231F20" d="M390.714,186.823c-1.109-0.264-1.793-1.375-1.53-2.486l2.516-10.591
					c0.264-1.109,1.376-1.794,2.485-1.531l10.592,2.517c1.11,0.264,1.793,1.375,1.531,2.483l-2.517,10.592
					c-0.263,1.111-1.374,1.796-2.483,1.531L390.714,186.823z"/>
				<path fill="#58595B" d="M389.016,184.3l2.518-10.592c0.285-1.201,1.491-1.945,2.69-1.66l10.594,2.517
					c1.197,0.284,1.942,1.492,1.656,2.692l-2.516,10.593c-0.283,1.199-1.492,1.943-2.69,1.657l-10.594-2.515
					C389.475,186.705,388.731,185.499,389.016,184.3z M406.142,177.177c0.239-1.017-0.392-2.037-1.404-2.277l-10.594-2.518
					c-1.017-0.241-2.036,0.389-2.274,1.403l-2.52,10.593c-0.24,1.015,0.389,2.037,1.404,2.278l10.594,2.515
					c1.013,0.241,2.036-0.388,2.275-1.403L406.142,177.177z"/>
			</g>
			<g>
				<path fill="#231F20" d="M394.58,170.543c-1.108-0.263-1.793-1.377-1.529-2.485l2.516-10.592
					c0.264-1.107,1.376-1.794,2.485-1.531l10.594,2.516c1.109,0.263,1.793,1.376,1.529,2.485l-2.517,10.591
					c-0.263,1.11-1.375,1.796-2.484,1.533L394.58,170.543z"/>
				<path fill="#58595B" d="M392.885,168.02l2.516-10.593c0.284-1.2,1.492-1.943,2.689-1.658l10.594,2.516
					c1.197,0.285,1.942,1.493,1.656,2.689l-2.514,10.594c-0.285,1.201-1.492,1.943-2.69,1.659l-10.595-2.517
					C393.343,170.426,392.6,169.218,392.885,168.02z M410.006,160.895c0.244-1.014-0.388-2.036-1.399-2.276l-10.595-2.517
					c-1.017-0.24-2.037,0.387-2.278,1.401l-2.517,10.597c-0.239,1.014,0.389,2.034,1.405,2.276l10.593,2.516
					c1.013,0.24,2.036-0.388,2.275-1.403L410.006,160.895z"/>
			</g>
			<g>
				<path fill="#231F20" d="M382.953,219.498c-1.107-0.265-1.793-1.378-1.529-2.487l2.516-10.592
					c0.264-1.105,1.375-1.793,2.484-1.529l10.595,2.517c1.108,0.263,1.793,1.376,1.528,2.483l-2.516,10.591
					c-0.264,1.109-1.374,1.796-2.484,1.533L382.953,219.498z"/>
				<path fill="#58595B" d="M381.257,216.97l2.516-10.591c0.284-1.201,1.491-1.943,2.69-1.658l10.595,2.516
					c1.196,0.286,1.941,1.492,1.657,2.692l-2.517,10.594c-0.284,1.197-1.493,1.942-2.69,1.657l-10.594-2.518
					C381.716,219.378,380.971,218.172,381.257,216.97z M398.379,209.85c0.242-1.018-0.386-2.037-1.402-2.278l-10.593-2.517
					c-1.016-0.24-2.035,0.387-2.277,1.405l-2.517,10.591c-0.239,1.015,0.389,2.037,1.403,2.277l10.595,2.515
					c1.014,0.241,2.035-0.387,2.276-1.402L398.379,209.85z"/>
			</g>
			<g>
				<path fill="#231F20" d="M386.821,203.217c-1.11-0.264-1.795-1.379-1.53-2.484l2.515-10.594c0.265-1.107,1.376-1.795,2.485-1.53
					l10.593,2.517c1.109,0.262,1.794,1.375,1.53,2.483l-2.517,10.594c-0.262,1.108-1.374,1.795-2.482,1.531L386.821,203.217z"/>
				<path fill="#58595B" d="M385.124,200.691l2.516-10.592c0.284-1.199,1.49-1.944,2.69-1.66l10.594,2.517
					c1.197,0.285,1.941,1.492,1.659,2.692l-2.518,10.593c-0.285,1.198-1.492,1.94-2.691,1.657l-10.592-2.516
					C385.582,203.098,384.839,201.891,385.124,200.691z M402.248,193.568c0.241-1.015-0.391-2.035-1.404-2.276l-10.593-2.516
					c-1.015-0.242-2.035,0.386-2.277,1.401l-2.517,10.594c-0.24,1.015,0.388,2.034,1.403,2.276l10.595,2.517
					c1.014,0.241,2.034-0.39,2.274-1.401L402.248,193.568z"/>
			</g>
			<g>
				<path fill="#231F20" d="M375.221,252.055c-1.11-0.261-1.795-1.372-1.531-2.482l2.517-10.594c0.264-1.108,1.374-1.792,2.483-1.53
					l10.594,2.516c1.109,0.265,1.793,1.376,1.531,2.483l-2.517,10.594c-0.264,1.109-1.374,1.794-2.484,1.531L375.221,252.055z"/>
				<path fill="#58595B" d="M373.523,249.535l2.516-10.594c0.285-1.2,1.492-1.945,2.69-1.659l10.594,2.515
					c1.199,0.286,1.942,1.494,1.656,2.691l-2.515,10.595c-0.285,1.199-1.493,1.942-2.691,1.656l-10.593-2.515
					C373.982,251.941,373.239,250.732,373.523,249.535z M390.646,242.41c0.241-1.016-0.388-2.035-1.4-2.278l-10.594-2.517
					c-1.016-0.238-2.038,0.39-2.278,1.404l-2.516,10.594c-0.242,1.014,0.387,2.035,1.402,2.276l10.594,2.517
					c1.016,0.241,2.037-0.39,2.278-1.403L390.646,242.41z"/>
			</g>
			<g>
				<path fill="#231F20" d="M379.088,235.775c-1.11-0.263-1.795-1.375-1.531-2.482l2.516-10.593c0.265-1.11,1.375-1.795,2.483-1.531
					l10.595,2.517c1.109,0.264,1.794,1.375,1.53,2.483l-2.516,10.593c-0.265,1.109-1.375,1.792-2.484,1.531L379.088,235.775z"/>
				<path fill="#58595B" d="M377.39,233.255l2.517-10.597c0.284-1.2,1.49-1.942,2.69-1.656l10.594,2.513
					c1.198,0.286,1.941,1.493,1.657,2.693l-2.518,10.594c-0.282,1.2-1.49,1.942-2.689,1.656l-10.592-2.514
					C377.848,235.659,377.106,234.452,377.39,233.255z M394.514,226.13c0.24-1.016-0.391-2.037-1.403-2.278l-10.593-2.516
					c-1.017-0.242-2.037,0.389-2.277,1.4l-2.517,10.595c-0.24,1.015,0.387,2.037,1.403,2.278l10.594,2.516
					c1.013,0.239,2.035-0.387,2.277-1.402L394.514,226.13z"/>
			</g>
			<g>
				<path fill="#231F20" d="M371.328,268.448c-1.108-0.263-1.796-1.376-1.532-2.482l2.516-10.595
					c0.265-1.107,1.376-1.794,2.485-1.527l10.593,2.514c1.109,0.265,1.793,1.376,1.53,2.483l-2.516,10.594
					c-0.263,1.109-1.374,1.794-2.482,1.531L371.328,268.448z"/>
				<path fill="#58595B" d="M369.631,265.924l2.515-10.591c0.286-1.2,1.493-1.945,2.689-1.659l10.595,2.517
					c1.199,0.283,1.943,1.489,1.657,2.689l-2.516,10.595c-0.284,1.199-1.492,1.939-2.691,1.656l-10.592-2.515
					C370.089,268.331,369.346,267.125,369.631,265.924z M386.754,258.802c0.241-1.014-0.39-2.035-1.403-2.278l-10.594-2.517
					c-1.014-0.238-2.037,0.389-2.277,1.402l-2.516,10.594c-0.241,1.015,0.387,2.037,1.402,2.277l10.594,2.518
					c1.013,0.241,2.035-0.39,2.275-1.403L386.754,258.802z"/>
			</g>
			<g>
				<path fill="#231F20" d="M363.567,301.121c-1.109-0.264-1.795-1.374-1.532-2.483l2.516-10.592
					c0.264-1.109,1.376-1.796,2.485-1.532l10.593,2.517c1.11,0.263,1.793,1.375,1.53,2.484l-2.515,10.593
					c-0.264,1.109-1.375,1.794-2.483,1.529L363.567,301.121z"/>
				<path fill="#58595B" d="M361.87,298.597l2.516-10.592c0.285-1.202,1.492-1.943,2.69-1.659l10.595,2.515
					c1.197,0.285,1.941,1.492,1.656,2.692l-2.517,10.594c-0.283,1.197-1.492,1.942-2.689,1.658l-10.594-2.516
					C362.328,301.003,361.585,299.797,361.87,298.597z M378.992,291.474c0.242-1.013-0.389-2.034-1.401-2.275l-10.595-2.518
					c-1.014-0.24-2.037,0.388-2.276,1.403l-2.516,10.594c-0.242,1.013,0.386,2.035,1.402,2.275l10.594,2.517
					c1.012,0.241,2.035-0.387,2.276-1.404L378.992,291.474z"/>
			</g>
			<g>
				<path fill="#231F20" d="M367.434,284.84c-1.109-0.261-1.794-1.376-1.531-2.482l2.516-10.595
					c0.264-1.107,1.376-1.794,2.484-1.529l10.594,2.516c1.109,0.264,1.794,1.374,1.531,2.485l-2.516,10.592
					c-0.264,1.109-1.375,1.794-2.486,1.53L367.434,284.84z"/>
				<path fill="#58595B" d="M365.738,282.317l2.514-10.594c0.286-1.197,1.492-1.942,2.691-1.656l10.592,2.514
					c1.199,0.284,1.944,1.492,1.659,2.69l-2.517,10.593c-0.283,1.2-1.492,1.946-2.691,1.66l-10.593-2.517
					C366.195,284.723,365.452,283.514,365.738,282.317z M382.86,275.192c0.241-1.013-0.391-2.035-1.403-2.275l-10.594-2.515
					c-1.016-0.243-2.035,0.389-2.278,1.4l-2.515,10.593c-0.241,1.018,0.389,2.038,1.404,2.276l10.593,2.52
					c1.013,0.237,2.036-0.39,2.277-1.405L382.86,275.192z"/>
			</g>
			<g>
				<path fill="#231F20" d="M355.833,333.682c-1.108-0.263-1.794-1.376-1.531-2.483l2.518-10.594
					c0.263-1.109,1.373-1.794,2.483-1.529l10.593,2.516c1.109,0.264,1.793,1.376,1.53,2.483l-2.516,10.594
					c-0.263,1.109-1.374,1.794-2.483,1.531L355.833,333.682z"/>
				<path fill="#58595B" d="M354.137,331.159l2.516-10.593c0.283-1.2,1.491-1.943,2.69-1.66l10.593,2.517
					c1.2,0.286,1.943,1.492,1.659,2.692l-2.518,10.595c-0.285,1.196-1.492,1.939-2.691,1.656l-10.592-2.515
					C354.594,333.565,353.851,332.357,354.137,331.159z M371.259,324.034c0.242-1.013-0.388-2.034-1.401-2.273l-10.595-2.52
					c-1.014-0.24-2.037,0.39-2.276,1.403l-2.518,10.594c-0.24,1.015,0.389,2.037,1.404,2.275l10.594,2.518
					c1.013,0.24,2.033-0.388,2.277-1.403L371.259,324.034z"/>
			</g>
			<g>
				<path fill="#231F20" d="M359.699,317.402c-1.108-0.263-1.793-1.375-1.53-2.484l2.516-10.592
					c0.263-1.109,1.374-1.795,2.486-1.532l10.593,2.519c1.108,0.261,1.793,1.373,1.53,2.482l-2.516,10.594
					c-0.264,1.107-1.376,1.794-2.486,1.528L359.699,317.402z"/>
				<path fill="#58595B" d="M358.002,314.876l2.516-10.591c0.286-1.2,1.493-1.945,2.692-1.659l10.592,2.514
					c1.202,0.286,1.944,1.495,1.659,2.693l-2.516,10.593c-0.287,1.2-1.493,1.945-2.692,1.659l-10.593-2.517
					C358.462,317.284,357.719,316.077,358.002,314.876z M375.126,307.753c0.241-1.014-0.39-2.037-1.402-2.275l-10.594-2.517
					c-1.015-0.243-2.036,0.389-2.278,1.402l-2.516,10.595c-0.24,1.014,0.389,2.033,1.403,2.274l10.594,2.518
					c1.014,0.241,2.036-0.388,2.276-1.402L375.126,307.753z"/>
			</g>
			<g>
				<path fill="#231F20" d="M349.804,289.135c-1.108-0.264-1.793-1.376-1.53-2.485l2.516-10.593
					c0.264-1.108,1.377-1.792,2.483-1.531l10.594,2.517c1.11,0.266,1.795,1.375,1.531,2.482l-2.517,10.597
					c-0.264,1.107-1.376,1.792-2.484,1.53L349.804,289.135z"/>
				<path fill="#58595B" d="M348.106,286.609l2.516-10.591c0.285-1.202,1.492-1.943,2.69-1.659l10.594,2.518
					c1.199,0.282,1.942,1.492,1.658,2.689l-2.518,10.594c-0.283,1.197-1.49,1.942-2.69,1.658l-10.593-2.516
					C348.565,289.016,347.822,287.81,348.106,286.609z M365.229,279.488c0.243-1.016-0.387-2.035-1.4-2.276l-10.596-2.517
					c-1.013-0.241-2.034,0.39-2.275,1.402l-2.517,10.594c-0.24,1.016,0.39,2.035,1.402,2.276l10.596,2.516
					c1.013,0.241,2.034-0.387,2.276-1.404L365.229,279.488z"/>
			</g>
			<g>
				<path fill="#231F20" d="M342.043,321.807c-1.108-0.263-1.793-1.375-1.53-2.484l2.518-10.595
					c0.263-1.106,1.376-1.788,2.481-1.527l10.595,2.516c1.109,0.265,1.794,1.374,1.53,2.483l-2.515,10.592
					c-0.265,1.109-1.376,1.796-2.486,1.533L342.043,321.807z"/>
				<path fill="#58595B" d="M340.346,319.282l2.517-10.591c0.285-1.2,1.491-1.943,2.689-1.659l10.594,2.517
					c1.199,0.283,1.944,1.493,1.658,2.692l-2.516,10.592c-0.285,1.199-1.49,1.942-2.689,1.656l-10.596-2.517
					C340.805,321.689,340.063,320.484,340.346,319.282z M357.47,312.16c0.241-1.016-0.388-2.037-1.404-2.278l-10.592-2.517
					c-1.015-0.238-2.035,0.393-2.276,1.406l-2.518,10.592c-0.24,1.016,0.389,2.038,1.403,2.278l10.595,2.515
					c1.013,0.241,2.035-0.39,2.277-1.405L357.47,312.16z"/>
			</g>
			<g>
				<path fill="#231F20" d="M345.911,305.526c-1.11-0.264-1.793-1.374-1.532-2.483l2.518-10.594c0.263-1.107,1.374-1.794,2.482-1.53
					l10.594,2.517c1.109,0.263,1.795,1.375,1.53,2.482l-2.516,10.597c-0.263,1.107-1.375,1.794-2.482,1.527L345.911,305.526z"/>
				<path fill="#58595B" d="M344.213,303.004l2.516-10.596c0.284-1.198,1.49-1.943,2.691-1.657l10.593,2.518
					c1.198,0.285,1.943,1.492,1.658,2.689l-2.517,10.594c-0.283,1.199-1.49,1.944-2.69,1.658l-10.593-2.516
					C344.671,305.411,343.928,304.203,344.213,303.004z M361.336,295.88c0.242-1.016-0.389-2.037-1.401-2.276l-10.595-2.52
					c-1.014-0.24-2.035,0.39-2.277,1.405l-2.515,10.596c-0.242,1.014,0.388,2.035,1.401,2.273l10.594,2.517
					c1.015,0.243,2.035-0.389,2.277-1.402L361.336,295.88z"/>
			</g>
			<g>
				<path fill="#231F20" d="M334.31,354.367c-1.109-0.261-1.793-1.373-1.53-2.484l2.516-10.592c0.263-1.109,1.377-1.794,2.483-1.53
					l10.595,2.515c1.108,0.266,1.793,1.375,1.53,2.486l-2.515,10.595c-0.266,1.106-1.376,1.792-2.486,1.528L334.31,354.367z"/>
				<path fill="#58595B" d="M332.612,351.843l2.516-10.593c0.286-1.2,1.492-1.941,2.69-1.657l10.595,2.514
					c1.2,0.286,1.941,1.494,1.657,2.693l-2.516,10.594c-0.285,1.197-1.492,1.942-2.689,1.656l-10.595-2.516
					C333.07,354.25,332.326,353.043,332.612,351.843z M349.735,344.72c0.241-1.014-0.387-2.035-1.402-2.276l-10.594-2.518
					c-1.014-0.24-2.034,0.391-2.275,1.402l-2.518,10.595c-0.24,1.018,0.389,2.037,1.401,2.278l10.597,2.516
					c1.013,0.241,2.035-0.389,2.275-1.402L349.735,344.72z"/>
			</g>
			<g>
				<path fill="#231F20" d="M338.175,338.087c-1.106-0.263-1.793-1.376-1.529-2.485l2.517-10.591
					c0.263-1.11,1.374-1.795,2.483-1.533l10.594,2.519c1.109,0.261,1.793,1.376,1.53,2.48l-2.516,10.597
					c-0.263,1.109-1.374,1.792-2.483,1.531L338.175,338.087z"/>
				<path fill="#58595B" d="M336.479,335.566l2.515-10.593c0.286-1.202,1.494-1.945,2.689-1.66l10.596,2.515
					c1.198,0.286,1.943,1.493,1.658,2.69l-2.517,10.597c-0.283,1.194-1.49,1.939-2.689,1.656l-10.596-2.517
					C336.938,337.97,336.195,336.762,336.479,335.566z M353.604,328.44c0.24-1.014-0.391-2.035-1.407-2.278l-10.593-2.516
					c-1.013-0.239-2.033,0.391-2.275,1.403l-2.515,10.596c-0.24,1.016,0.386,2.035,1.401,2.276l10.594,2.517
					c1.015,0.241,2.035-0.388,2.276-1.405L353.604,328.44z"/>
			</g>
			<g>
				<path fill="#231F20" d="M369.19,207.508c-1.108-0.264-1.794-1.375-1.53-2.484l2.516-10.592c0.265-1.109,1.375-1.794,2.483-1.532
					l10.596,2.518c1.108,0.264,1.793,1.375,1.529,2.484l-2.516,10.594c-0.265,1.106-1.376,1.793-2.483,1.53L369.19,207.508z"/>
				<path fill="#58595B" d="M367.493,204.985l2.516-10.591c0.286-1.201,1.492-1.945,2.69-1.659l10.593,2.516
					c1.2,0.285,1.942,1.491,1.657,2.69l-2.518,10.596c-0.28,1.199-1.486,1.943-2.688,1.656l-10.594-2.517
					C367.952,207.391,367.209,206.182,367.493,204.985z M384.616,197.861c0.239-1.016-0.387-2.036-1.402-2.276l-10.594-2.517
					c-1.015-0.242-2.035,0.389-2.277,1.403l-2.514,10.594c-0.242,1.014,0.389,2.035,1.401,2.274l10.595,2.516
					c1.015,0.241,2.035-0.386,2.275-1.402L384.616,197.861z"/>
			</g>
			<g>
				<path fill="#231F20" d="M361.429,240.18c-1.107-0.263-1.792-1.374-1.529-2.482l2.518-10.593
					c0.261-1.109,1.373-1.794,2.483-1.531l10.594,2.517c1.107,0.264,1.793,1.375,1.529,2.485l-2.515,10.591
					c-0.263,1.107-1.377,1.794-2.484,1.531L361.429,240.18z"/>
				<path fill="#58595B" d="M359.733,237.658l2.517-10.594c0.284-1.198,1.49-1.941,2.689-1.657l10.594,2.515
					c1.198,0.286,1.943,1.493,1.655,2.692l-2.515,10.592c-0.283,1.202-1.49,1.944-2.688,1.661l-10.596-2.517
					C360.192,240.064,359.449,238.857,359.733,237.658z M376.857,230.533c0.239-1.013-0.389-2.032-1.403-2.275l-10.595-2.517
					c-1.013-0.241-2.035,0.39-2.274,1.404l-2.517,10.594c-0.241,1.015,0.389,2.035,1.402,2.276l10.594,2.516
					c1.015,0.241,2.035-0.389,2.277-1.404L376.857,230.533z"/>
			</g>
			<g>
				<path fill="#231F20" d="M365.298,223.902c-1.108-0.264-1.794-1.373-1.532-2.484l2.52-10.593c0.262-1.11,1.373-1.795,2.481-1.531
					l10.595,2.517c1.106,0.265,1.793,1.376,1.53,2.483l-2.518,10.594c-0.264,1.108-1.374,1.792-2.481,1.531L365.298,223.902z"/>
				<path fill="#58595B" d="M363.601,221.378l2.517-10.595c0.284-1.199,1.49-1.941,2.689-1.656l10.595,2.515
					c1.198,0.284,1.941,1.492,1.655,2.689l-2.518,10.594c-0.281,1.201-1.488,1.944-2.688,1.658l-10.594-2.516
					C364.058,223.782,363.314,222.578,363.601,221.378z M380.723,214.255c0.242-1.016-0.386-2.037-1.402-2.278l-10.594-2.518
					c-1.014-0.24-2.035,0.389-2.274,1.405l-2.517,10.594c-0.241,1.016,0.387,2.035,1.399,2.276l10.595,2.518
					c1.016,0.237,2.037-0.391,2.279-1.405L380.723,214.255z"/>
			</g>
			<g>
				<path fill="#231F20" d="M380.79,158.667c-1.109-0.262-1.792-1.376-1.528-2.483l2.515-10.595
					c0.265-1.107,1.376-1.793,2.484-1.528l10.593,2.515c1.108,0.263,1.795,1.375,1.532,2.484l-2.517,10.594
					c-0.264,1.106-1.375,1.792-2.484,1.529L380.79,158.667z"/>
				<path fill="#58595B" d="M379.095,156.145l2.515-10.593c0.285-1.199,1.49-1.944,2.69-1.66l10.596,2.517
					c1.198,0.285,1.942,1.493,1.656,2.691l-2.517,10.593c-0.283,1.2-1.492,1.943-2.69,1.659l-10.593-2.515
					C379.552,158.552,378.81,157.344,379.095,156.145z M396.217,149.021c0.242-1.016-0.387-2.036-1.402-2.278l-10.594-2.514
					c-1.015-0.241-2.033,0.387-2.277,1.4l-2.515,10.593c-0.242,1.018,0.387,2.037,1.402,2.279l10.593,2.516
					c1.016,0.241,2.037-0.387,2.276-1.402L396.217,149.021z"/>
			</g>
			<g>
				<path fill="#231F20" d="M373.031,191.34c-1.108-0.263-1.792-1.375-1.53-2.484l2.517-10.592c0.263-1.106,1.374-1.794,2.482-1.532
					l10.595,2.517c1.108,0.265,1.793,1.377,1.53,2.483l-2.518,10.594c-0.261,1.11-1.374,1.794-2.483,1.532L373.031,191.34z"/>
				<path fill="#58595B" d="M371.335,188.816l2.516-10.592c0.284-1.198,1.489-1.944,2.689-1.659l10.595,2.516
					c1.198,0.285,1.941,1.493,1.655,2.691l-2.513,10.593c-0.286,1.201-1.493,1.943-2.692,1.658l-10.595-2.516
					C371.791,191.222,371.049,190.017,371.335,188.816z M388.456,181.694c0.242-1.017-0.386-2.037-1.4-2.279L376.46,176.9
					c-1.014-0.24-2.035,0.386-2.274,1.403l-2.517,10.593c-0.241,1.017,0.388,2.036,1.401,2.278l10.594,2.516
					c1.015,0.242,2.037-0.39,2.276-1.403L388.456,181.694z"/>
			</g>
			<g>
				<path fill="#231F20" d="M376.896,175.061c-1.108-0.266-1.793-1.375-1.529-2.487l2.515-10.592
					c0.265-1.107,1.377-1.794,2.486-1.53l10.593,2.517c1.108,0.263,1.794,1.378,1.53,2.484l-2.516,10.593
					c-0.264,1.11-1.376,1.793-2.483,1.53L376.896,175.061z"/>
				<path fill="#58595B" d="M375.202,172.537l2.515-10.594c0.284-1.199,1.49-1.941,2.69-1.658l10.595,2.515
					c1.199,0.285,1.941,1.492,1.653,2.691l-2.512,10.594c-0.286,1.199-1.492,1.944-2.691,1.659l-10.594-2.517
					C375.659,174.94,374.916,173.735,375.202,172.537z M392.325,165.415c0.238-1.02-0.389-2.038-1.402-2.279l-10.595-2.517
					c-1.016-0.242-2.036,0.387-2.276,1.404l-2.516,10.591c-0.241,1.016,0.388,2.038,1.4,2.278l10.595,2.517
					c1.016,0.241,2.035-0.387,2.275-1.402L392.325,165.415z"/>
			</g>
			<g>
				<path fill="#231F20" d="M353.696,272.741c-1.108-0.264-1.794-1.373-1.53-2.483l2.517-10.591
					c0.262-1.109,1.374-1.796,2.482-1.531l10.596,2.518c1.108,0.261,1.793,1.372,1.53,2.482l-2.518,10.594
					c-0.264,1.108-1.375,1.792-2.48,1.528L353.696,272.741z"/>
				<path fill="#58595B" d="M352,270.22l2.516-10.595c0.284-1.2,1.491-1.942,2.69-1.659l10.594,2.518
					c1.198,0.283,1.943,1.492,1.657,2.689l-2.519,10.596c-0.282,1.198-1.488,1.943-2.688,1.657l-10.595-2.517
					C352.456,272.625,351.716,271.417,352,270.22z M369.121,263.097c0.242-1.018-0.386-2.037-1.4-2.278l-10.595-2.517
					c-1.015-0.241-2.033,0.388-2.275,1.403l-2.517,10.595c-0.24,1.014,0.388,2.035,1.402,2.274l10.595,2.516
					c1.014,0.241,2.035-0.387,2.275-1.402L369.121,263.097z"/>
			</g>
			<g>
				<path fill="#231F20" d="M357.563,256.463c-1.109-0.266-1.791-1.377-1.529-2.485l2.516-10.594
					c0.265-1.107,1.376-1.792,2.484-1.53l10.593,2.517c1.108,0.264,1.793,1.378,1.53,2.483l-2.516,10.593
					c-0.263,1.11-1.375,1.794-2.483,1.531L357.563,256.463z"/>
				<path fill="#58595B" d="M355.867,253.94l2.517-10.596c0.284-1.198,1.489-1.94,2.689-1.657l10.594,2.515
					c1.199,0.288,1.942,1.492,1.658,2.694l-2.518,10.594c-0.284,1.198-1.49,1.939-2.69,1.654l-10.594-2.517
					C356.324,256.343,355.581,255.137,355.867,253.94z M372.989,246.815c0.242-1.016-0.388-2.037-1.4-2.278l-10.596-2.514
					c-1.014-0.241-2.034,0.387-2.276,1.399l-2.515,10.596c-0.242,1.014,0.388,2.035,1.401,2.278l10.595,2.515
					c1.014,0.241,2.034-0.39,2.275-1.403L372.989,246.815z"/>
			</g>
			<g>
				<path fill="#231F20" d="M332.805,289.279c-1.106-0.263-1.791-1.374-1.529-2.482l2.517-10.594
					c0.264-1.106,1.378-1.794,2.483-1.53l10.594,2.514c1.108,0.267,1.792,1.378,1.53,2.486l-2.516,10.593
					c-0.264,1.107-1.376,1.794-2.485,1.531L332.805,289.279z"/>
				<path fill="#58595B" d="M331.107,286.755l2.516-10.593c0.286-1.198,1.492-1.943,2.692-1.657l10.593,2.517
					c1.198,0.284,1.943,1.491,1.659,2.69l-2.516,10.594c-0.285,1.197-1.492,1.942-2.691,1.654l-10.596-2.513
					C331.565,289.162,330.824,287.954,331.107,286.755z M348.23,279.633c0.241-1.015-0.387-2.037-1.399-2.278l-10.595-2.516
					c-1.014-0.241-2.037,0.389-2.278,1.404l-2.517,10.591c-0.24,1.014,0.391,2.037,1.405,2.278l10.594,2.515
					c1.015,0.243,2.034-0.388,2.276-1.4L348.23,279.633z"/>
			</g>
			<g>
				<path fill="#231F20" d="M325.046,321.952c-1.108-0.263-1.795-1.376-1.53-2.483l2.516-10.593c0.266-1.11,1.378-1.794,2.487-1.531
					l10.59,2.517c1.108,0.264,1.794,1.375,1.531,2.482l-2.517,10.595c-0.263,1.109-1.373,1.794-2.481,1.53L325.046,321.952z"/>
				<path fill="#58595B" d="M323.347,319.428l2.518-10.594c0.284-1.2,1.492-1.94,2.692-1.657l10.592,2.518
					c1.199,0.283,1.942,1.49,1.659,2.689l-2.517,10.594c-0.286,1.197-1.492,1.942-2.691,1.656l-10.594-2.514
					C323.809,321.834,323.063,320.628,323.347,319.428z M340.471,312.306c0.242-1.016-0.388-2.035-1.403-2.278l-10.592-2.515
					c-1.014-0.24-2.036,0.385-2.277,1.4l-2.518,10.594c-0.239,1.016,0.391,2.037,1.405,2.278l10.594,2.514
					c1.014,0.243,2.036-0.387,2.276-1.4L340.471,312.306z"/>
			</g>
			<g>
				<path fill="#231F20" d="M328.914,305.671c-1.108-0.263-1.793-1.375-1.53-2.484l2.516-10.591
					c0.263-1.108,1.376-1.798,2.482-1.533l10.594,2.516c1.107,0.267,1.793,1.378,1.53,2.485l-2.518,10.594
					c-0.263,1.107-1.374,1.794-2.481,1.531L328.914,305.671z"/>
				<path fill="#58595B" d="M327.215,303.148l2.518-10.593c0.283-1.2,1.492-1.943,2.688-1.657l10.595,2.517
					c1.199,0.283,1.942,1.491,1.658,2.69l-2.516,10.594c-0.286,1.199-1.493,1.942-2.692,1.656l-10.594-2.517
					C327.675,305.554,326.93,304.348,327.215,303.148z M344.339,296.026c0.24-1.018-0.391-2.039-1.401-2.278l-10.594-2.517
					c-1.014-0.24-2.038,0.387-2.279,1.404l-2.516,10.592c-0.24,1.016,0.389,2.035,1.403,2.275l10.595,2.518
					c1.014,0.243,2.035-0.388,2.277-1.403L344.339,296.026z"/>
			</g>
			<g>
				<path fill="#231F20" d="M352.193,207.653c-1.107-0.262-1.793-1.373-1.53-2.482l2.517-10.595c0.264-1.108,1.377-1.794,2.481-1.53
					l10.596,2.516c1.108,0.264,1.793,1.375,1.531,2.485l-2.519,10.592c-0.262,1.109-1.375,1.793-2.483,1.53L352.193,207.653z"/>
				<path fill="#58595B" d="M350.495,205.131l2.517-10.595c0.286-1.198,1.492-1.941,2.689-1.657l10.594,2.515
					c1.199,0.287,1.944,1.492,1.66,2.693l-2.516,10.594c-0.286,1.196-1.494,1.941-2.692,1.657l-10.593-2.52
					C350.956,207.536,350.211,206.331,350.495,205.131z M367.621,198.005c0.239-1.012-0.391-2.036-1.405-2.276l-10.593-2.515
					c-1.015-0.242-2.037,0.387-2.277,1.4l-2.516,10.595c-0.242,1.014,0.389,2.035,1.403,2.277l10.593,2.516
					c1.017,0.242,2.037-0.389,2.277-1.402L367.621,198.005z"/>
			</g>
			<g>
				<path fill="#231F20" d="M344.433,240.328c-1.107-0.264-1.793-1.375-1.529-2.486l2.516-10.591
					c0.262-1.109,1.377-1.796,2.484-1.533l10.592,2.518c1.11,0.263,1.795,1.375,1.532,2.485l-2.518,10.593
					c-0.263,1.108-1.374,1.794-2.483,1.529L344.433,240.328z"/>
				<path fill="#58595B" d="M342.736,237.804l2.515-10.594c0.285-1.2,1.492-1.943,2.691-1.66l10.595,2.518
					c1.197,0.284,1.941,1.49,1.656,2.689l-2.515,10.594c-0.285,1.201-1.494,1.946-2.692,1.66l-10.593-2.518
					C343.195,240.209,342.451,239.001,342.736,237.804z M359.86,230.679c0.24-1.016-0.391-2.035-1.404-2.276l-10.594-2.516
					c-1.013-0.241-2.035,0.387-2.277,1.402l-2.517,10.593c-0.24,1.016,0.39,2.037,1.403,2.276l10.594,2.517
					c1.015,0.24,2.035-0.39,2.277-1.402L359.86,230.679z"/>
			</g>
			<g>
				<path fill="#231F20" d="M348.299,224.045c-1.106-0.264-1.791-1.375-1.529-2.483l2.517-10.593
					c0.263-1.111,1.377-1.795,2.481-1.531l10.596,2.514c1.107,0.265,1.795,1.378,1.53,2.486l-2.516,10.593
					c-0.264,1.11-1.376,1.795-2.484,1.531L348.299,224.045z"/>
				<path fill="#58595B" d="M346.602,221.524l2.518-10.596c0.285-1.197,1.492-1.942,2.688-1.656l10.595,2.514
					c1.2,0.289,1.943,1.492,1.659,2.691l-2.515,10.595c-0.286,1.199-1.492,1.942-2.693,1.656l-10.595-2.515
					C347.061,223.929,346.317,222.721,346.602,221.524z M363.726,214.399c0.241-1.016-0.388-2.037-1.402-2.277l-10.594-2.515
					c-1.015-0.241-2.035,0.388-2.277,1.401l-2.516,10.592c-0.242,1.018,0.389,2.038,1.401,2.278l10.595,2.518
					c1.015,0.24,2.037-0.388,2.278-1.402L363.726,214.399z"/>
			</g>
			<g>
				<path fill="#231F20" d="M363.794,158.813c-1.107-0.263-1.793-1.375-1.529-2.484l2.517-10.594
					c0.262-1.108,1.374-1.793,2.482-1.529l10.593,2.516c1.108,0.262,1.793,1.375,1.53,2.481l-2.516,10.596
					c-0.263,1.107-1.375,1.794-2.483,1.531L363.794,158.813z"/>
				<path fill="#58595B" d="M362.096,156.289l2.518-10.594c0.283-1.199,1.491-1.943,2.69-1.658l10.595,2.516
					c1.198,0.285,1.941,1.493,1.657,2.691l-2.517,10.593c-0.284,1.2-1.491,1.944-2.692,1.66l-10.594-2.517
					C362.556,158.696,361.812,157.488,362.096,156.289z M379.22,149.165c0.24-1.013-0.388-2.035-1.402-2.274l-10.595-2.517
					c-1.013-0.241-2.036,0.388-2.275,1.402l-2.517,10.592c-0.242,1.016,0.388,2.038,1.402,2.278l10.595,2.516
					c1.015,0.242,2.033-0.388,2.275-1.403L379.22,149.165z"/>
			</g>
			<g>
				<path fill="#231F20" d="M356.033,191.485c-1.106-0.265-1.793-1.375-1.529-2.482l2.516-10.594c0.263-1.11,1.375-1.794,2.483-1.53
					l10.593,2.516c1.11,0.262,1.796,1.375,1.53,2.483l-2.515,10.593c-0.264,1.109-1.377,1.794-2.486,1.531L356.033,191.485z"/>
				<path fill="#58595B" d="M354.337,188.96l2.516-10.593c0.283-1.198,1.492-1.942,2.69-1.657l10.595,2.517
					c1.197,0.283,1.942,1.49,1.656,2.69l-2.516,10.593c-0.284,1.198-1.49,1.942-2.69,1.658l-10.594-2.517
					C354.794,191.367,354.051,190.16,354.337,188.96z M371.459,181.838c0.242-1.015-0.388-2.036-1.4-2.277l-10.596-2.517
					c-1.012-0.241-2.035,0.387-2.276,1.405l-2.517,10.592c-0.241,1.016,0.39,2.037,1.402,2.278l10.595,2.517
					c1.015,0.24,2.037-0.388,2.276-1.404L371.459,181.838z"/>
			</g>
			<g>
				<path fill="#231F20" d="M359.899,175.205c-1.105-0.264-1.793-1.376-1.528-2.483l2.514-10.593
					c0.266-1.11,1.378-1.795,2.484-1.532l10.594,2.517c1.109,0.264,1.793,1.375,1.531,2.484l-2.516,10.595
					c-0.264,1.106-1.375,1.792-2.484,1.526L359.899,175.205z"/>
				<path fill="#58595B" d="M358.203,172.683l2.517-10.596c0.284-1.199,1.49-1.941,2.688-1.658l10.597,2.517
					c1.197,0.283,1.942,1.493,1.658,2.692l-2.518,10.594c-0.284,1.197-1.492,1.941-2.692,1.656l-10.593-2.517
					C358.662,175.088,357.919,173.879,358.203,172.683z M375.327,165.557c0.24-1.017-0.388-2.035-1.403-2.277l-10.593-2.516
					c-1.016-0.241-2.037,0.387-2.278,1.403l-2.516,10.593c-0.242,1.016,0.388,2.037,1.402,2.278l10.594,2.517
					c1.017,0.24,2.035-0.39,2.276-1.402L375.327,165.557z"/>
			</g>
			<g>
				<path fill="#231F20" d="M336.699,272.887c-1.107-0.262-1.794-1.375-1.529-2.483l2.516-10.594
					c0.265-1.109,1.377-1.794,2.483-1.53l10.595,2.517c1.107,0.262,1.791,1.376,1.53,2.483l-2.517,10.593
					c-0.264,1.108-1.377,1.794-2.484,1.531L336.699,272.887z"/>
				<path fill="#58595B" d="M335,270.364l2.518-10.594c0.284-1.197,1.492-1.942,2.691-1.656l10.592,2.514
					c1.2,0.286,1.944,1.493,1.659,2.693l-2.515,10.593c-0.286,1.198-1.492,1.943-2.691,1.657l-10.594-2.516
					C335.462,272.769,334.718,271.563,335,270.364z M352.125,263.239c0.242-1.016-0.387-2.037-1.401-2.276l-10.595-2.516
					c-1.015-0.241-2.035,0.389-2.277,1.402l-2.517,10.595c-0.24,1.014,0.39,2.033,1.404,2.276l10.593,2.515
					c1.015,0.243,2.037-0.388,2.277-1.399L352.125,263.239z"/>
			</g>
			<g>
				<path fill="#231F20" d="M340.565,256.608c-1.106-0.265-1.793-1.374-1.53-2.483l2.518-10.594
					c0.264-1.109,1.375-1.794,2.483-1.531l10.593,2.516c1.108,0.265,1.793,1.377,1.53,2.484l-2.515,10.594
					c-0.265,1.11-1.376,1.794-2.484,1.53L340.565,256.608z"/>
				<path fill="#58595B" d="M338.868,254.084l2.516-10.595c0.285-1.197,1.492-1.942,2.692-1.659l10.593,2.518
					c1.198,0.286,1.943,1.492,1.659,2.689l-2.517,10.596c-0.284,1.2-1.492,1.94-2.69,1.657l-10.595-2.515
					C339.327,256.49,338.584,255.283,338.868,254.084z M355.991,246.959c0.241-1.016-0.386-2.035-1.401-2.274l-10.593-2.517
					c-1.016-0.243-2.036,0.386-2.278,1.401l-2.517,10.593c-0.241,1.018,0.388,2.037,1.404,2.278l10.593,2.516
					c1.016,0.241,2.035-0.389,2.278-1.401L355.991,246.959z"/>
			</g>
			<g>
				<path fill="#231F20" d="M314.996,293.592c-1.108-0.265-1.794-1.378-1.53-2.484l2.517-10.595
					c0.263-1.109,1.376-1.794,2.483-1.529l10.592,2.514c1.108,0.266,1.795,1.376,1.53,2.482l-2.516,10.597
					c-0.263,1.107-1.373,1.794-2.481,1.53L314.996,293.592z"/>
				<path fill="#58595B" d="M313.299,291.067l2.517-10.594c0.283-1.197,1.49-1.942,2.689-1.659l10.593,2.517
					c1.2,0.286,1.943,1.492,1.659,2.692l-2.518,10.595c-0.285,1.196-1.49,1.939-2.688,1.658l-10.595-2.517
					C313.756,293.471,313.014,292.267,313.299,291.067z M330.421,283.944c0.241-1.017-0.386-2.037-1.402-2.279l-10.593-2.516
					c-1.018-0.243-2.037,0.39-2.277,1.403l-2.516,10.594c-0.241,1.013,0.389,2.037,1.403,2.277l10.591,2.516
					c1.017,0.239,2.039-0.388,2.278-1.403L330.421,283.944z"/>
			</g>
			<g>
				<path fill="#231F20" d="M311.103,309.983c-1.108-0.267-1.795-1.376-1.529-2.485l2.515-10.594
					c0.264-1.107,1.378-1.794,2.484-1.529l10.594,2.518c1.109,0.261,1.792,1.374,1.529,2.483l-2.516,10.591
					c-0.264,1.11-1.375,1.794-2.484,1.531L311.103,309.983z"/>
				<path fill="#58595B" d="M309.406,307.459l2.515-10.594c0.284-1.199,1.494-1.942,2.69-1.659l10.596,2.517
					c1.198,0.286,1.941,1.49,1.657,2.69l-2.519,10.593c-0.285,1.2-1.491,1.943-2.691,1.66l-10.591-2.518
					C309.863,309.863,309.12,308.66,309.406,307.459z M326.528,300.334c0.241-1.016-0.388-2.037-1.404-2.276l-10.591-2.517
					c-1.015-0.24-2.038,0.39-2.278,1.403l-2.517,10.593c-0.24,1.016,0.388,2.037,1.404,2.278l10.594,2.518
					c1.014,0.24,2.034-0.391,2.276-1.405L326.528,300.334z"/>
			</g>
			<g>
				<path fill="#231F20" d="M334.383,211.967c-1.108-0.265-1.793-1.379-1.531-2.484l2.517-10.596
					c0.263-1.107,1.377-1.792,2.485-1.53l10.591,2.516c1.11,0.263,1.794,1.375,1.532,2.484l-2.518,10.593
					c-0.263,1.107-1.373,1.796-2.483,1.53L334.383,211.967z"/>
				<path fill="#58595B" d="M332.686,209.443l2.516-10.594c0.285-1.199,1.492-1.945,2.692-1.658l10.592,2.514
					c1.199,0.287,1.941,1.493,1.658,2.694l-2.516,10.594c-0.285,1.197-1.492,1.939-2.69,1.656l-10.594-2.514
					C333.145,211.846,332.401,210.638,332.686,209.443z M349.809,202.317c0.241-1.014-0.388-2.034-1.403-2.276l-10.591-2.516
					c-1.018-0.243-2.037,0.388-2.278,1.403l-2.517,10.595c-0.24,1.013,0.389,2.035,1.404,2.275l10.594,2.517
					c1.014,0.241,2.035-0.39,2.275-1.401L349.809,202.317z"/>
			</g>
			<g>
				<path fill="#231F20" d="M326.622,244.638c-1.106-0.264-1.793-1.376-1.53-2.485l2.518-10.594c0.263-1.107,1.375-1.792,2.483-1.53
					l10.593,2.517c1.109,0.263,1.794,1.373,1.53,2.484l-2.517,10.595c-0.263,1.105-1.374,1.794-2.484,1.531L326.622,244.638z"/>
				<path fill="#58595B" d="M324.925,242.115l2.518-10.594c0.284-1.2,1.49-1.945,2.69-1.659l10.592,2.517
					c1.199,0.284,1.944,1.49,1.658,2.69l-2.516,10.594c-0.284,1.199-1.491,1.942-2.691,1.656l-10.593-2.514
					C325.383,244.519,324.642,243.313,324.925,242.115z M342.048,234.991c0.241-1.016-0.387-2.037-1.399-2.276l-10.595-2.52
					c-1.016-0.241-2.037,0.393-2.278,1.405l-2.517,10.594c-0.24,1.015,0.387,2.035,1.405,2.275l10.591,2.517
					c1.017,0.243,2.036-0.389,2.277-1.402L342.048,234.991z"/>
			</g>
			<g>
				<path fill="#231F20" d="M330.49,228.356c-1.107-0.263-1.796-1.375-1.53-2.482l2.516-10.597c0.265-1.106,1.376-1.788,2.483-1.528
					l10.593,2.517c1.11,0.265,1.793,1.376,1.532,2.481l-2.518,10.596c-0.263,1.109-1.374,1.794-2.483,1.53L330.49,228.356z"/>
				<path fill="#58595B" d="M328.793,225.833l2.518-10.593c0.283-1.198,1.49-1.943,2.689-1.657l10.592,2.515
					c1.199,0.285,1.944,1.492,1.659,2.691l-2.518,10.595c-0.283,1.199-1.492,1.942-2.691,1.656l-10.592-2.515
					C329.251,228.239,328.507,227.033,328.793,225.833z M345.915,218.71c0.242-1.016-0.387-2.037-1.403-2.279l-10.591-2.513
					c-1.017-0.244-2.037,0.386-2.279,1.399l-2.516,10.596c-0.239,1.011,0.386,2.035,1.403,2.275l10.593,2.518
					c1.017,0.241,2.035-0.39,2.279-1.402L345.915,218.71z"/>
			</g>
			<g>
				<path fill="#231F20" d="M345.983,163.123c-1.108-0.265-1.793-1.377-1.532-2.483l2.518-10.593
					c0.264-1.11,1.376-1.794,2.486-1.533l10.591,2.517c1.11,0.263,1.794,1.375,1.53,2.485l-2.516,10.594
					c-0.265,1.107-1.373,1.792-2.484,1.53L345.983,163.123z"/>
				<path fill="#58595B" d="M344.287,160.6l2.515-10.594c0.286-1.199,1.492-1.944,2.691-1.657l10.593,2.515
					c1.197,0.285,1.944,1.492,1.657,2.691l-2.516,10.594c-0.285,1.199-1.491,1.941-2.691,1.657l-10.592-2.515
					C344.745,163.004,344.003,161.799,344.287,160.6z M361.41,153.477c0.241-1.015-0.389-2.036-1.402-2.277l-10.595-2.517
					c-1.017-0.242-2.035,0.387-2.277,1.403l-2.515,10.593c-0.242,1.015,0.386,2.035,1.402,2.277l10.593,2.517
					c1.017,0.239,2.035-0.388,2.275-1.404L361.41,153.477z"/>
			</g>
			<g>
				<path fill="#231F20" d="M337.016,122.472c-1.258-0.299-2.062-1.438-1.798-2.547l2.515-10.594
					c0.261-1.109,1.495-1.764,2.751-1.468l12.01,2.854c1.257,0.298,2.063,1.438,1.798,2.547l-2.516,10.594
					c-0.264,1.108-1.495,1.765-2.75,1.467L337.016,122.472z"/>
				<path fill="#58595B" d="M335.047,119.886l2.517-10.594c0.284-1.199,1.615-1.914,2.962-1.594l12.007,2.853
					c1.348,0.321,2.211,1.553,1.926,2.754l-2.515,10.593c-0.285,1.199-1.611,1.915-2.96,1.595l-12.007-2.852
					C335.629,122.319,334.763,121.084,335.047,119.886z M354.124,113.225c0.242-1.015-0.507-2.065-1.67-2.343l-12.008-2.85
					c-1.164-0.277-2.305,0.324-2.547,1.34l-2.515,10.592c-0.242,1.015,0.508,2.064,1.671,2.34l12.009,2.852
					c1.162,0.278,2.304-0.324,2.545-1.339L354.124,113.225z"/>
			</g>
			<g>
				<path fill="#231F20" d="M333.149,138.752c-1.259-0.298-2.063-1.438-1.802-2.547l2.52-10.592c0.26-1.11,1.494-1.766,2.751-1.468
					l12.008,2.853c1.256,0.299,2.063,1.439,1.799,2.549l-2.517,10.593c-0.263,1.108-1.494,1.763-2.75,1.465L333.149,138.752z"/>
				<path fill="#58595B" d="M331.183,136.166l2.515-10.594c0.284-1.199,1.614-1.915,2.961-1.594l12.008,2.853
					c1.346,0.32,2.21,1.556,1.927,2.756l-2.518,10.591c-0.286,1.199-1.611,1.915-2.958,1.593l-12.009-2.851
					C331.763,138.601,330.895,137.366,331.183,136.166z M350.259,129.506c0.24-1.014-0.511-2.065-1.672-2.342l-12.008-2.851
					c-1.163-0.277-2.305,0.325-2.545,1.34l-2.518,10.592c-0.24,1.014,0.51,2.065,1.672,2.341l12.009,2.852
					c1.162,0.276,2.303-0.325,2.544-1.339L350.259,129.506z"/>
			</g>
			<g>
				<path fill="#231F20" d="M329.282,155.033c-1.258-0.298-2.062-1.44-1.8-2.549l2.517-10.593c0.263-1.107,1.497-1.765,2.752-1.465
					l12.011,2.852c1.253,0.297,2.059,1.438,1.796,2.546l-2.517,10.594c-0.264,1.108-1.494,1.765-2.752,1.468L329.282,155.033z"/>
				<path fill="#58595B" d="M327.313,152.447l2.517-10.596c0.288-1.199,1.614-1.911,2.96-1.591l12.01,2.852
					c1.347,0.32,2.21,1.554,1.924,2.751l-2.513,10.597c-0.287,1.198-1.613,1.913-2.961,1.594l-12.006-2.852
					C327.896,154.88,327.029,153.646,327.313,152.447z M346.392,145.786c0.241-1.016-0.51-2.065-1.671-2.341l-12.009-2.853
					c-1.164-0.276-2.306,0.325-2.546,1.34l-2.515,10.594c-0.242,1.014,0.507,2.063,1.671,2.34l12.009,2.852
					c1.162,0.275,2.303-0.326,2.545-1.34L346.392,145.786z"/>
			</g>
			<g>
				<path fill="#231F20" d="M296.334,293.752c-1.258-0.3-2.062-1.438-1.798-2.548l2.513-10.596c0.266-1.107,1.499-1.764,2.756-1.466
					l12.008,2.854c1.255,0.296,2.062,1.438,1.797,2.543l-2.516,10.599c-0.265,1.107-1.495,1.763-2.752,1.465L296.334,293.752z"/>
				<path fill="#58595B" d="M294.368,291.164l2.514-10.594c0.285-1.199,1.616-1.911,2.96-1.592l12.011,2.853
					c1.344,0.319,2.209,1.556,1.924,2.753l-2.515,10.594c-0.286,1.199-1.611,1.913-2.958,1.594l-12.009-2.852
					C294.949,293.6,294.083,292.366,294.368,291.164z M313.445,284.505c0.239-1.016-0.512-2.064-1.672-2.342l-12.01-2.852
					c-1.162-0.277-2.304,0.324-2.545,1.339l-2.517,10.594c-0.241,1.013,0.508,2.063,1.672,2.342l12.007,2.849
					c1.164,0.278,2.307-0.323,2.547-1.337L313.445,284.505z"/>
			</g>
			<g>
				<path fill="#231F20" d="M338.224,195.796c-1.108-0.265-1.794-1.375-1.532-2.483l2.518-10.594
					c0.263-1.111,1.377-1.794,2.485-1.531l10.593,2.517c1.108,0.263,1.792,1.375,1.528,2.483L351.3,196.78
					c-0.263,1.11-1.374,1.794-2.483,1.531L338.224,195.796z"/>
				<path fill="#58595B" d="M336.526,193.271l2.515-10.592c0.286-1.199,1.493-1.944,2.692-1.657l10.592,2.515
					c1.198,0.286,1.942,1.492,1.657,2.692l-2.515,10.592c-0.284,1.2-1.493,1.942-2.692,1.657l-10.592-2.515
					C336.984,195.679,336.242,194.471,336.526,193.271z M353.646,186.149c0.244-1.015-0.385-2.037-1.4-2.279l-10.592-2.513
					c-1.019-0.243-2.037,0.386-2.278,1.403l-2.516,10.59c-0.24,1.017,0.386,2.037,1.403,2.279l10.595,2.517
					c1.014,0.241,2.032-0.388,2.274-1.405L353.646,186.149z"/>
			</g>
			<g>
				<path fill="#231F20" d="M342.091,179.516c-1.107-0.264-1.794-1.377-1.53-2.485l2.517-10.594
					c0.262-1.107,1.374-1.794,2.484-1.529l10.592,2.517c1.108,0.265,1.793,1.374,1.529,2.483l-2.515,10.592
					c-0.263,1.109-1.375,1.797-2.486,1.532L342.091,179.516z"/>
				<path fill="#58595B" d="M340.392,176.991l2.518-10.592c0.285-1.2,1.491-1.945,2.69-1.659l10.592,2.516
					c1.199,0.284,1.944,1.492,1.66,2.691l-2.517,10.592c-0.284,1.201-1.492,1.944-2.692,1.659l-10.593-2.516
					C340.852,179.396,340.109,178.19,340.392,176.991z M357.519,169.868c0.238-1.015-0.391-2.037-1.405-2.277l-10.594-2.517
					c-1.016-0.242-2.035,0.39-2.276,1.405l-2.517,10.592c-0.24,1.015,0.387,2.037,1.404,2.279l10.595,2.514
					c1.013,0.242,2.033-0.387,2.274-1.403L357.519,169.868z"/>
			</g>
			<g>
				<path fill="#231F20" d="M318.889,277.198c-1.107-0.261-1.793-1.376-1.53-2.485l2.517-10.592
					c0.264-1.107,1.376-1.794,2.484-1.529l10.595,2.516c1.107,0.265,1.792,1.374,1.528,2.483l-2.517,10.594
					c-0.264,1.107-1.374,1.794-2.484,1.531L318.889,277.198z"/>
				<path fill="#58595B" d="M317.191,274.672l2.518-10.591c0.284-1.2,1.49-1.943,2.689-1.657l10.592,2.514
					c1.2,0.286,1.944,1.493,1.658,2.69l-2.515,10.594c-0.285,1.201-1.494,1.944-2.689,1.659l-10.596-2.517
					C317.649,277.081,316.908,275.875,317.191,274.672z M334.315,267.55c0.242-1.016-0.389-2.035-1.4-2.276l-10.595-2.518
					c-1.019-0.239-2.037,0.388-2.278,1.403l-2.517,10.594c-0.24,1.015,0.389,2.037,1.402,2.278l10.596,2.517
					c1.015,0.241,2.033-0.39,2.275-1.405L334.315,267.55z"/>
			</g>
			<g>
				<path fill="#231F20" d="M322.758,260.916c-1.108-0.261-1.797-1.373-1.531-2.48l2.516-10.596c0.263-1.107,1.375-1.792,2.484-1.53
					l10.592,2.516c1.11,0.267,1.793,1.378,1.53,2.483l-2.516,10.596c-0.263,1.107-1.373,1.792-2.483,1.531L322.758,260.916z"/>
				<path fill="#58595B" d="M321.06,258.394l2.515-10.596c0.285-1.195,1.492-1.942,2.69-1.656l10.596,2.516
					c1.198,0.284,1.941,1.493,1.656,2.693L336,261.943c-0.283,1.197-1.492,1.942-2.688,1.658l-10.595-2.517
					C321.517,260.799,320.774,259.594,321.06,258.394z M338.184,251.269c0.24-1.012-0.391-2.034-1.402-2.274l-10.596-2.518
					c-1.015-0.24-2.036,0.391-2.277,1.402l-2.516,10.595c-0.241,1.012,0.386,2.037,1.403,2.277l10.595,2.517
					c1.013,0.239,2.033-0.39,2.275-1.404L338.184,251.269z"/>
			</g>
			<g>
				<path fill="#231F20" d="M418.371,141.797c-1.108-0.264-1.793-1.375-1.53-2.485l2.518-10.591
					c0.262-1.109,1.376-1.794,2.483-1.532l4.516,1.072c1.108,0.264,1.794,1.375,1.529,2.485l-2.514,10.592
					c-0.267,1.109-1.377,1.794-2.485,1.53L418.371,141.797z"/>
				<path fill="#58595B" d="M416.676,139.272l2.514-10.593c0.285-1.2,1.493-1.943,2.69-1.66l4.517,1.075
					c1.2,0.285,1.943,1.493,1.658,2.691l-2.514,10.592c-0.286,1.2-1.494,1.943-2.693,1.658l-4.516-1.072
					C417.134,141.678,416.391,140.473,416.676,139.272z M427.721,130.706c0.241-1.015-0.388-2.037-1.402-2.278l-4.517-1.073
					c-1.016-0.242-2.037,0.388-2.278,1.402l-2.514,10.595c-0.241,1.014,0.388,2.036,1.402,2.275l4.517,1.074
					c1.014,0.241,2.036-0.387,2.278-1.403L427.721,130.706z"/>
			</g>
			<g>
				<path fill="#231F20" d="M414.305,158.912c-1.105-0.264-1.793-1.375-1.528-2.481l2.516-10.595
					c0.264-1.108,1.376-1.793,2.484-1.533l4.517,1.074c1.106,0.264,1.793,1.375,1.529,2.485l-2.517,10.594
					c-0.263,1.108-1.374,1.793-2.483,1.53L414.305,158.912z"/>
				<path fill="#58595B" d="M412.608,156.388l2.515-10.594c0.286-1.198,1.495-1.942,2.693-1.659l4.516,1.074
					c1.2,0.286,1.942,1.493,1.658,2.692l-2.516,10.593c-0.285,1.198-1.492,1.943-2.691,1.657l-4.517-1.072
					C413.067,158.794,412.324,157.587,412.608,156.388z M423.656,147.821c0.24-1.014-0.389-2.035-1.402-2.276l-4.518-1.072
					c-1.014-0.242-2.037,0.386-2.278,1.401l-2.516,10.593c-0.242,1.017,0.39,2.036,1.404,2.277l4.517,1.072
					c1.016,0.242,2.034-0.387,2.275-1.402L423.656,147.821z"/>
			</g>
			<g>
				<path fill="#231F20" d="M410.333,175.64c-1.108-0.262-1.793-1.375-1.529-2.485l2.517-10.591
					c0.263-1.108,1.376-1.794,2.481-1.531l4.518,1.071c1.108,0.264,1.793,1.375,1.529,2.486l-2.515,10.591
					c-0.264,1.109-1.376,1.796-2.484,1.533L410.333,175.64z"/>
				<path fill="#58595B" d="M408.636,173.115l2.516-10.591c0.284-1.201,1.492-1.946,2.69-1.66l4.519,1.073
					c1.198,0.284,1.941,1.491,1.657,2.691l-2.515,10.592c-0.286,1.2-1.494,1.945-2.692,1.658l-4.518-1.07
					C409.096,175.521,408.353,174.316,408.636,173.115z M419.682,164.548c0.242-1.014-0.386-2.035-1.402-2.275l-4.516-1.073
					c-1.015-0.24-2.037,0.386-2.276,1.403l-2.52,10.592c-0.236,1.014,0.391,2.037,1.405,2.276l4.517,1.074
					c1.016,0.241,2.035-0.388,2.277-1.402L419.682,164.548z"/>
			</g>
			<g>
				<path fill="#231F20" d="M406.267,192.757c-1.105-0.265-1.793-1.374-1.529-2.486l2.517-10.593
					c0.264-1.108,1.376-1.793,2.483-1.53l4.517,1.073c1.109,0.265,1.793,1.375,1.529,2.483l-2.516,10.593
					c-0.264,1.11-1.375,1.796-2.483,1.533L406.267,192.757z"/>
				<path fill="#58595B" d="M404.571,190.231l2.516-10.593c0.286-1.198,1.49-1.942,2.69-1.657l4.517,1.073
					c1.201,0.284,1.942,1.492,1.658,2.693l-2.517,10.592c-0.285,1.198-1.491,1.942-2.691,1.657l-4.517-1.073
					C405.029,192.638,404.285,191.431,404.571,190.231z M415.618,181.666c0.241-1.013-0.389-2.038-1.402-2.278l-4.518-1.073
					c-1.015-0.242-2.035,0.389-2.279,1.403l-2.513,10.594c-0.244,1.016,0.388,2.037,1.401,2.277l4.516,1.071
					c1.015,0.242,2.037-0.386,2.277-1.402L415.618,181.666z"/>
			</g>
			<g>
				<path fill="#231F20" d="M402.328,209.342c-1.106-0.262-1.793-1.372-1.53-2.481l2.518-10.594c0.263-1.11,1.376-1.794,2.481-1.531
					l4.518,1.073c1.106,0.262,1.793,1.377,1.528,2.485l-2.516,10.592c-0.261,1.109-1.374,1.793-2.482,1.529L402.328,209.342z"/>
				<path fill="#58595B" d="M400.63,206.819l2.517-10.593c0.286-1.198,1.492-1.941,2.69-1.656l4.517,1.072
					c1.2,0.285,1.943,1.492,1.66,2.691l-2.518,10.594c-0.286,1.197-1.49,1.94-2.69,1.657l-4.517-1.074
					C401.09,209.224,400.346,208.018,400.63,206.819z M411.678,198.252c0.239-1.014-0.389-2.035-1.403-2.277l-4.517-1.071
					c-1.015-0.242-2.034,0.39-2.277,1.401l-2.514,10.594c-0.244,1.016,0.387,2.035,1.401,2.275l4.516,1.074
					c1.016,0.24,2.036-0.391,2.278-1.4L411.678,198.252z"/>
			</g>
			<g>
				<path fill="#231F20" d="M398.262,226.46c-1.105-0.263-1.793-1.375-1.529-2.485l2.517-10.594
					c0.264-1.107,1.376-1.791,2.483-1.529l4.516,1.07c1.109,0.266,1.794,1.378,1.53,2.488l-2.516,10.591
					c-0.264,1.109-1.373,1.796-2.483,1.53L398.262,226.46z"/>
				<path fill="#58595B" d="M396.565,223.935l2.516-10.591c0.284-1.2,1.492-1.943,2.69-1.662l4.517,1.076
					c1.2,0.283,1.943,1.49,1.659,2.689l-2.516,10.594c-0.285,1.2-1.494,1.94-2.692,1.657l-4.517-1.073
					C397.024,226.341,396.28,225.135,396.565,223.935z M407.612,215.367c0.239-1.013-0.389-2.032-1.403-2.272l-4.518-1.074
					c-1.012-0.241-2.033,0.389-2.277,1.402l-2.516,10.594c-0.237,1.013,0.389,2.035,1.403,2.277l4.517,1.072
					c1.015,0.241,2.035-0.39,2.277-1.405L407.612,215.367z"/>
			</g>
			<g>
				<path fill="#231F20" d="M394.257,243.326c-1.108-0.264-1.793-1.375-1.53-2.482l2.516-10.594
					c0.264-1.109,1.377-1.794,2.483-1.531l4.517,1.074c1.108,0.261,1.793,1.375,1.532,2.482l-2.518,10.592
					c-0.263,1.109-1.375,1.794-2.483,1.533L394.257,243.326z"/>
				<path fill="#58595B" d="M392.56,240.802l2.516-10.594c0.286-1.197,1.493-1.942,2.69-1.658l4.517,1.076
					c1.198,0.28,1.943,1.487,1.658,2.688l-2.516,10.593c-0.286,1.2-1.491,1.943-2.69,1.659l-4.518-1.074
					C393.019,243.208,392.273,242.001,392.56,240.802z M403.605,232.234c0.242-1.014-0.388-2.033-1.402-2.274l-4.517-1.074
					c-1.015-0.241-2.034,0.39-2.275,1.402l-2.516,10.593c-0.242,1.016,0.388,2.038,1.4,2.276l4.518,1.074
					c1.017,0.241,2.037-0.387,2.277-1.402L403.605,232.234z"/>
			</g>
			<g>
				<path fill="#231F20" d="M390.19,260.443c-1.107-0.263-1.793-1.375-1.528-2.484l2.515-10.595
					c0.265-1.107,1.377-1.794,2.485-1.529l4.516,1.072c1.109,0.265,1.792,1.376,1.531,2.483l-2.518,10.594
					c-0.263,1.109-1.376,1.794-2.485,1.531L390.19,260.443z"/>
				<path fill="#58595B" d="M388.495,257.917l2.514-10.591c0.286-1.2,1.492-1.945,2.691-1.659l4.517,1.073
					c1.199,0.284,1.942,1.493,1.659,2.691l-2.516,10.593c-0.284,1.199-1.492,1.941-2.692,1.656l-4.517-1.071
					C388.954,260.324,388.21,259.118,388.495,257.917z M399.542,249.352c0.241-1.018-0.391-2.035-1.405-2.278l-4.517-1.071
					c-1.013-0.241-2.033,0.387-2.274,1.402l-2.516,10.594c-0.242,1.015,0.388,2.034,1.4,2.277l4.517,1.072
					c1.016,0.243,2.036-0.392,2.277-1.405L399.542,249.352z"/>
			</g>
			<g>
				<path fill="#231F20" d="M386.219,277.17c-1.108-0.263-1.793-1.375-1.53-2.484l2.517-10.595c0.264-1.109,1.374-1.794,2.482-1.529
					l4.517,1.073c1.108,0.261,1.796,1.375,1.53,2.483l-2.518,10.593c-0.262,1.11-1.373,1.794-2.481,1.531L386.219,277.17z"/>
				<path fill="#58595B" d="M384.521,274.645l2.518-10.593c0.281-1.198,1.49-1.941,2.688-1.66l4.517,1.076
					c1.2,0.284,1.943,1.493,1.659,2.689l-2.515,10.595c-0.286,1.198-1.494,1.942-2.693,1.657l-4.517-1.074
					C384.98,277.051,384.235,275.845,384.521,274.645z M395.567,266.078c0.241-1.014-0.388-2.035-1.402-2.278l-4.518-1.071
					c-1.013-0.24-2.037,0.389-2.274,1.404l-2.518,10.594c-0.242,1.013,0.389,2.037,1.401,2.278l4.518,1.071
					c1.017,0.241,2.036-0.39,2.278-1.402L395.567,266.078z"/>
			</g>
			<g>
				<path fill="#231F20" d="M382.154,294.286c-1.108-0.264-1.795-1.375-1.532-2.485l2.516-10.591
					c0.265-1.11,1.379-1.794,2.485-1.533l4.517,1.074c1.107,0.263,1.793,1.375,1.528,2.484l-2.516,10.591
					c-0.265,1.111-1.373,1.798-2.482,1.531L382.154,294.286z"/>
				<path fill="#58595B" d="M380.455,291.763l2.518-10.595c0.284-1.2,1.49-1.941,2.688-1.659l4.517,1.074
					c1.198,0.283,1.945,1.49,1.66,2.692l-2.517,10.591c-0.285,1.2-1.491,1.945-2.691,1.659l-4.517-1.073
					C380.915,294.168,380.171,292.96,380.455,291.763z M391.504,283.195c0.239-1.016-0.39-2.035-1.405-2.275l-4.513-1.072
					c-1.017-0.243-2.04,0.388-2.279,1.403l-2.516,10.591c-0.241,1.016,0.388,2.035,1.404,2.278l4.514,1.071
					c1.015,0.24,2.037-0.39,2.277-1.402L391.504,283.195z"/>
			</g>
			<g>
				<path fill="#231F20" d="M378.214,310.875c-1.108-0.264-1.793-1.376-1.53-2.485l2.517-10.594
					c0.264-1.107,1.375-1.794,2.481-1.528l4.517,1.071c1.109,0.264,1.793,1.373,1.531,2.482l-2.517,10.594
					c-0.264,1.11-1.374,1.795-2.483,1.531L378.214,310.875z"/>
				<path fill="#58595B" d="M376.518,308.351l2.515-10.595c0.286-1.199,1.49-1.944,2.692-1.658l4.515,1.071
					c1.198,0.283,1.943,1.493,1.659,2.692l-2.517,10.594c-0.284,1.199-1.492,1.942-2.69,1.656l-4.518-1.07
					C376.975,310.755,376.231,309.548,376.518,308.351z M387.563,299.781c0.241-1.013-0.388-2.034-1.402-2.275l-4.517-1.074
					c-1.014-0.241-2.035,0.39-2.277,1.404l-2.516,10.595c-0.242,1.015,0.389,2.034,1.401,2.275l4.518,1.073
					c1.016,0.241,2.037-0.389,2.275-1.404L387.563,299.781z"/>
			</g>
			<g>
				<path fill="#231F20" d="M374.147,327.989c-1.108-0.263-1.793-1.375-1.531-2.482l2.517-10.593
					c0.264-1.111,1.376-1.796,2.487-1.531l4.514,1.073c1.109,0.264,1.793,1.376,1.53,2.485l-2.517,10.591
					c-0.262,1.107-1.375,1.792-2.483,1.531L374.147,327.989z"/>
				<path fill="#58595B" d="M372.448,325.465l2.518-10.591c0.286-1.202,1.493-1.943,2.69-1.659l4.517,1.073
					c1.199,0.284,1.944,1.491,1.659,2.691l-2.517,10.593c-0.284,1.2-1.49,1.943-2.69,1.657l-4.515-1.072
					C372.908,327.873,372.165,326.666,372.448,325.465z M383.497,316.898c0.241-1.014-0.387-2.035-1.403-2.273l-4.515-1.076
					c-1.015-0.238-2.036,0.39-2.277,1.404l-2.519,10.594c-0.24,1.014,0.391,2.035,1.404,2.273l4.517,1.074
					c1.017,0.241,2.035-0.388,2.277-1.399L383.497,316.898z"/>
			</g>
			<g>
				<path fill="#231F20" d="M370.154,344.8c-1.105-0.264-1.793-1.376-1.529-2.483l2.517-10.596c0.264-1.107,1.375-1.792,2.482-1.528
					l4.517,1.074c1.108,0.261,1.795,1.372,1.53,2.48l-2.516,10.594c-0.264,1.11-1.373,1.794-2.483,1.53L370.154,344.8z"/>
				<path fill="#58595B" d="M368.458,342.277l2.517-10.594c0.284-1.2,1.493-1.943,2.689-1.659l4.517,1.074
					c1.2,0.284,1.943,1.492,1.659,2.689l-2.516,10.596c-0.285,1.198-1.492,1.94-2.692,1.657l-4.517-1.071
					C368.916,344.683,368.174,343.477,368.458,342.277z M379.506,333.709c0.24-1.014-0.389-2.035-1.405-2.276l-4.517-1.074
					c-1.014-0.24-2.033,0.388-2.274,1.403l-2.518,10.594c-0.239,1.016,0.388,2.037,1.402,2.275l4.517,1.073
					c1.016,0.241,2.037-0.389,2.277-1.402L379.506,333.709z"/>
			</g>
			<g>
				<path fill="#231F20" d="M366.089,361.918c-1.106-0.265-1.792-1.376-1.528-2.486l2.516-10.593
					c0.263-1.107,1.375-1.792,2.482-1.529l4.517,1.072c1.108,0.263,1.793,1.373,1.529,2.484l-2.515,10.591
					c-0.263,1.11-1.374,1.795-2.483,1.531L366.089,361.918z"/>
				<path fill="#58595B" d="M364.392,359.391l2.518-10.593c0.284-1.198,1.49-1.943,2.688-1.657l4.517,1.071
					c1.202,0.286,1.945,1.493,1.661,2.693l-2.517,10.593c-0.285,1.198-1.493,1.943-2.693,1.657l-4.517-1.072
					C364.853,361.798,364.106,360.591,364.392,359.391z M375.439,350.826c0.241-1.015-0.387-2.037-1.403-2.278l-4.517-1.072
					c-1.016-0.241-2.034,0.392-2.276,1.404l-2.516,10.594c-0.24,1.015,0.388,2.035,1.401,2.275l4.518,1.074
					c1.016,0.24,2.034-0.391,2.278-1.404L375.439,350.826z"/>
			</g>
			<g>
				<path fill="#231F20" d="M384.697,142.22c-1.108-0.264-1.791-1.375-1.529-2.485l4.408-18.564c0.264-1.108,1.378-1.793,2.485-1.53
					l10.594,2.516c1.107,0.264,1.793,1.376,1.529,2.486l-4.409,18.564c-0.263,1.11-1.375,1.793-2.483,1.531L384.697,142.22z"/>
				<path fill="#58595B" d="M383.001,139.696l4.409-18.564c0.284-1.2,1.492-1.945,2.689-1.658l10.595,2.516
					c1.2,0.285,1.942,1.492,1.656,2.69l-4.41,18.567c-0.282,1.198-1.488,1.941-2.687,1.657l-10.597-2.517
					C383.46,142.103,382.715,140.894,383.001,139.696z M402.018,124.601c0.242-1.015-0.388-2.037-1.402-2.278l-10.594-2.517
					c-1.014-0.241-2.035,0.39-2.276,1.405l-4.409,18.565c-0.242,1.018,0.389,2.038,1.401,2.278l10.595,2.516
					c1.014,0.241,2.035-0.389,2.274-1.404L402.018,124.601z"/>
			</g>
			<g>
				<path fill="#231F20" d="M367.646,142.587c-1.106-0.261-1.793-1.375-1.527-2.482l5.401-22.748
					c0.266-1.109,1.376-1.793,2.483-1.531l10.596,2.516c1.106,0.264,1.793,1.376,1.529,2.484l-5.403,22.746
					c-0.263,1.111-1.375,1.795-2.483,1.531L367.646,142.587z"/>
				<path fill="#58595B" d="M365.951,140.063l5.401-22.747c0.285-1.198,1.49-1.942,2.69-1.659l10.594,2.517
					c1.2,0.286,1.945,1.493,1.658,2.692l-5.403,22.746c-0.285,1.2-1.491,1.944-2.69,1.659l-10.594-2.517
					C366.41,142.47,365.665,141.263,365.951,140.063z M385.962,120.787c0.239-1.015-0.391-2.037-1.403-2.279l-10.596-2.517
					c-1.014-0.24-2.035,0.389-2.276,1.404l-5.403,22.748c-0.24,1.015,0.39,2.035,1.402,2.276l10.595,2.517
					c1.015,0.241,2.036-0.387,2.277-1.402L385.962,120.787z"/>
			</g>
			<g>
				<path fill="#231F20" d="M349.772,147.177c-1.109-0.261-1.795-1.375-1.531-2.481l7.389-31.112c0.263-1.11,1.376-1.794,2.484-1.53
					l10.594,2.517c1.109,0.262,1.793,1.373,1.53,2.481l-7.391,31.113c-0.263,1.106-1.374,1.793-2.484,1.53L349.772,147.177z"/>
				<path fill="#58595B" d="M348.074,144.654l7.39-31.112c0.284-1.198,1.491-1.942,2.69-1.658l10.594,2.517
					c1.197,0.285,1.941,1.492,1.656,2.691l-7.391,31.109c-0.284,1.2-1.492,1.943-2.69,1.659l-10.591-2.517
					C348.532,147.06,347.788,145.854,348.074,144.654z M370.069,117.013c0.242-1.016-0.387-2.038-1.403-2.279l-10.591-2.517
					c-1.019-0.239-2.037,0.39-2.279,1.405l-7.389,31.111c-0.24,1.013,0.386,2.036,1.403,2.277l10.596,2.517
					c1.013,0.239,2.035-0.39,2.273-1.403L370.069,117.013z"/>
			</g>
			<g>
				<path fill="#231F20" d="M324.192,175.265c-1.108-0.262-1.795-1.376-1.532-2.486l3.472-14.605
					c0.264-1.108,1.375-1.794,2.483-1.53l12.545,2.979c1.108,0.263,1.794,1.375,1.531,2.485l-3.471,14.606
					c-0.263,1.107-1.375,1.794-2.483,1.531L324.192,175.265z"/>
				<path fill="#58595B" d="M322.494,172.739l3.469-14.605c0.287-1.198,1.494-1.943,2.694-1.659l12.542,2.981
					c1.2,0.284,1.943,1.492,1.66,2.691l-3.472,14.605c-0.284,1.2-1.49,1.944-2.69,1.658l-12.545-2.978
					C322.953,175.146,322.209,173.938,322.494,172.739z M342.524,162.065c0.241-1.015-0.389-2.036-1.404-2.278l-12.543-2.978
					c-1.015-0.242-2.036,0.388-2.277,1.403l-3.471,14.606c-0.239,1.016,0.389,2.037,1.403,2.279l12.544,2.978
					c1.017,0.242,2.037-0.388,2.279-1.403L342.524,162.065z"/>
			</g>
			<g>
				<path fill="#231F20" d="M300.051,276.906c-1.108-0.265-1.793-1.376-1.53-2.483l3.472-14.607c0.261-1.107,1.373-1.794,2.481-1.53
					l12.546,2.979c1.107,0.262,1.793,1.374,1.531,2.483l-3.471,14.607c-0.264,1.109-1.376,1.794-2.484,1.531L300.051,276.906z"/>
				<path fill="#58595B" d="M298.352,274.382l3.472-14.608c0.283-1.199,1.492-1.942,2.692-1.658l12.545,2.98
					c1.197,0.283,1.94,1.492,1.657,2.689l-3.47,14.61c-0.285,1.197-1.492,1.942-2.692,1.656l-12.545-2.978
					C298.813,276.789,298.07,275.579,298.352,274.382z M318.384,263.708c0.239-1.014-0.391-2.037-1.403-2.276l-12.547-2.98
					c-1.013-0.241-2.035,0.39-2.275,1.402l-3.47,14.607c-0.241,1.018,0.389,2.035,1.403,2.278l12.545,2.98
					c1.014,0.241,2.035-0.39,2.275-1.405L318.384,263.708z"/>
			</g>
			<g>
				<path fill="#231F20" d="M350.033,358.105c-1.108-0.265-1.795-1.378-1.531-2.486l4.528-19.068
					c0.263-1.109,1.376-1.794,2.485-1.531l10.594,2.518c1.109,0.263,1.793,1.375,1.529,2.482l-4.528,19.068
					c-0.265,1.11-1.374,1.794-2.482,1.531L350.033,358.105z"/>
				<path fill="#58595B" d="M348.336,355.579l4.528-19.067c0.285-1.199,1.491-1.942,2.689-1.656l10.596,2.512
					c1.199,0.286,1.94,1.493,1.657,2.693l-4.528,19.068c-0.286,1.198-1.494,1.943-2.691,1.657l-10.595-2.516
					C348.795,357.985,348.053,356.778,348.336,355.579z M367.473,339.98c0.24-1.015-0.391-2.037-1.402-2.277l-10.596-2.515
					c-1.015-0.243-2.036,0.39-2.277,1.402l-4.529,19.066c-0.24,1.016,0.389,2.038,1.404,2.278l10.595,2.517
					c1.011,0.241,2.034-0.387,2.276-1.401L367.473,339.98z"/>
			</g>
			<g>
				<path fill="#231F20" d="M318.252,350.554c-1.107-0.264-1.793-1.373-1.53-2.483l5.458-22.972
					c0.263-1.108,1.374-1.794,2.482-1.531l10.593,2.517c1.108,0.264,1.793,1.375,1.532,2.482l-5.457,22.971
					c-0.265,1.111-1.376,1.796-2.485,1.533L318.252,350.554z"/>
				<path fill="#58595B" d="M316.555,348.03l5.457-22.972c0.283-1.198,1.491-1.939,2.689-1.657l10.594,2.516
					c1.2,0.286,1.943,1.492,1.659,2.691l-5.456,22.973c-0.286,1.197-1.492,1.94-2.69,1.656l-10.596-2.517
					C317.014,350.437,316.27,349.23,316.555,348.03z M336.618,328.53c0.24-1.016-0.387-2.037-1.402-2.276l-10.594-2.519
					c-1.015-0.239-2.037,0.392-2.277,1.404l-5.457,22.971c-0.241,1.015,0.391,2.037,1.404,2.278l10.595,2.516
					c1.013,0.239,2.035-0.389,2.276-1.404L336.618,328.53z"/>
			</g>
			<g>
				<path fill="#231F20" d="M302.363,346.781c-1.108-0.263-1.795-1.375-1.532-2.484l7.364-31c0.262-1.11,1.377-1.792,2.484-1.531
					l10.591,2.518c1.111,0.263,1.795,1.375,1.53,2.485l-7.361,30.997c-0.265,1.109-1.376,1.796-2.483,1.533L302.363,346.781z"/>
				<path fill="#58595B" d="M300.665,344.257l7.362-30.999c0.285-1.2,1.491-1.942,2.691-1.66l10.591,2.518
					c1.2,0.284,1.945,1.49,1.661,2.692l-7.363,30.998c-0.285,1.199-1.492,1.941-2.69,1.656l-10.593-2.517
					C301.124,346.662,300.381,345.456,300.665,344.257z M322.635,316.727c0.242-1.016-0.388-2.035-1.404-2.278l-10.591-2.517
					c-1.015-0.238-2.037,0.39-2.277,1.405l-7.364,30.999c-0.24,1.016,0.391,2.037,1.404,2.276l10.594,2.517
					c1.015,0.241,2.035-0.388,2.277-1.405L322.635,316.727z"/>
			</g>
			<g>
				<path fill="#231F20" d="M292.198,309.969c-1.108-0.264-1.793-1.375-1.53-2.484l2.518-10.595
					c0.263-1.107,1.373-1.792,2.484-1.528l4.264,1.011c1.107,0.263,1.794,1.376,1.53,2.485l-2.517,10.594
					c-0.263,1.107-1.376,1.794-2.485,1.53L292.198,309.969z"/>
				<path fill="#58595B" d="M290.499,307.444l2.519-10.592c0.283-1.199,1.491-1.942,2.689-1.661l4.265,1.015
					c1.2,0.286,1.944,1.492,1.661,2.692l-2.517,10.592c-0.284,1.199-1.493,1.942-2.694,1.657l-4.262-1.012
					C290.961,309.85,290.213,308.643,290.499,307.444z M301.297,298.817c0.241-1.013-0.389-2.034-1.404-2.277l-4.264-1.011
					c-1.015-0.241-2.036,0.387-2.277,1.404l-2.517,10.589c-0.241,1.018,0.389,2.037,1.405,2.278l4.263,1.016
					c1.014,0.238,2.036-0.39,2.276-1.405L301.297,298.817z"/>
			</g>
			<g>
				<path fill="#231F20" d="M284.467,342.531c-1.111-0.266-1.797-1.377-1.532-2.484l2.518-10.594
					c0.263-1.109,1.373-1.795,2.483-1.533l4.263,1.015c1.109,0.262,1.796,1.376,1.532,2.485l-2.516,10.592
					c-0.265,1.109-1.377,1.794-2.485,1.533L284.467,342.531z"/>
				<path fill="#58595B" d="M282.765,340.005l2.517-10.594c0.286-1.197,1.494-1.942,2.693-1.658l4.266,1.012
					c1.2,0.288,1.943,1.493,1.657,2.693l-2.515,10.594c-0.285,1.197-1.493,1.942-2.693,1.656l-4.264-1.011
					C283.228,342.413,282.48,341.206,282.765,340.005z M293.563,331.379c0.24-1.018-0.391-2.038-1.405-2.278l-4.264-1.013
					c-1.014-0.241-2.035,0.389-2.276,1.402l-2.517,10.593c-0.242,1.016,0.389,2.037,1.403,2.278l4.262,1.014
					c1.017,0.241,2.039-0.388,2.279-1.404L293.563,331.379z"/>
			</g>
			<g>
				<path fill="#231F20" d="M288.333,326.25c-1.109-0.265-1.794-1.376-1.532-2.485l2.517-10.594
					c0.264-1.107,1.374-1.794,2.484-1.529l12.545,2.979c1.109,0.264,1.793,1.376,1.529,2.483l-2.516,10.594
					c-0.263,1.109-1.375,1.794-2.483,1.53L288.333,326.25z"/>
				<path fill="#58595B" d="M286.632,323.726l2.517-10.595c0.284-1.199,1.495-1.944,2.693-1.658l12.544,2.979
					c1.2,0.284,1.941,1.494,1.658,2.69l-2.516,10.595c-0.286,1.196-1.492,1.941-2.691,1.658l-12.544-2.98
					C287.093,326.132,286.351,324.922,286.632,323.726z M305.709,317.065c0.24-1.013-0.388-2.035-1.402-2.278l-12.545-2.979
					c-1.014-0.241-2.037,0.39-2.277,1.402l-2.516,10.594c-0.241,1.016,0.388,2.037,1.402,2.278l12.546,2.98
					c1.015,0.239,2.037-0.39,2.277-1.405L305.709,317.065z"/>
			</g>
			<g>
				<path fill="#231F20" d="M304.857,256.667c-1.108-0.265-1.793-1.374-1.529-2.483l17.983-75.716
					c0.264-1.108,1.375-1.792,2.484-1.53l12.544,2.979c1.109,0.264,1.794,1.376,1.53,2.485l-17.982,75.714
					c-0.263,1.109-1.377,1.794-2.484,1.528L304.857,256.667z"/>
				<path fill="#58595B" d="M303.16,254.142l17.986-75.715c0.28-1.198,1.488-1.941,2.689-1.658l12.544,2.978
					c1.2,0.285,1.941,1.493,1.657,2.693l-17.981,75.712c-0.286,1.2-1.495,1.946-2.692,1.662l-12.543-2.983
					C303.621,256.551,302.875,255.341,303.16,254.142z M337.702,182.362c0.242-1.015-0.385-2.037-1.401-2.279l-12.545-2.979
					c-1.014-0.241-2.036,0.389-2.277,1.405l-17.981,75.714c-0.242,1.016,0.386,2.037,1.402,2.276l12.543,2.98
					c1.017,0.241,2.037-0.39,2.277-1.405L337.702,182.362z"/>
			</g>
		</g>
		<g>
			<path fill="#DDDDDD" d="M390.695,397.658l0.93-3.905l67.49-284.154l0,0c0.164-0.693,0.328-1.381,0.497-2.095l0.776-3.264
				c1.164-4.91,1.397-15.162-1.154-18.141l-1.311-0.312l-0.629-0.15l-0.069,2.169l-77.015,323.219l-0.49,1.218l0.628,0.148
				l1.313,0.313C385.279,411.19,389.529,402.57,390.695,397.658z"/>
		</g>
		<g>
			
				<rect x="251.599" y="248.313" transform="matrix(-0.2311 0.9729 -0.9729 -0.2311 758.9352 -101.1697)" fill="#BBBBBB" width="335.691" height="1.992"/>
			<path fill="#BBBBBB" d="M379.5,412.484L457.141,85.6l2.248,0.534l-77.641,326.883L379.5,412.484z M457.385,85.952
				l-77.508,326.327l1.63,0.388l77.508-326.329L457.385,85.952z"/>
		</g>
	</g>
	<g>
		<g>
			<g>
				<path fill="#E5C0B5" d="M244.778,264.056c-1.023,0.833-7.786-0.547-15.665-2.368c-5.94-1.373-9.399-0.957-9.634-0.943
					c-10.355,0.421-7.293,9.63-1.324,10.851c25.655,5.256,69.094-3.984,69.094-3.984c3.318,0.366,5.076,1.76,5.587,5.629
					c0.469,3.539-3.334,4.462-6.243,5.817c-14.843,6.9-44.568,7.503-44.639,8.772c-0.076,1.266,0.884,2.179,2.131,2.316
					c0,0,12.781,1.148,24.917,2.017c11.352,0.811,36.292-2.719,36.292-2.719c3.311,0.369,5.851,3.172,5.626,7.028
					c-0.109,1.922-4.639,4.596-6.29,4.416c0,0-19.609,4.212-34.431,4.736c-6.729,0.236-26.988-0.333-26.988-0.333
					c-1.246-0.138-2.294,0.552-2.368,1.819c-0.073,1.263,0.883,2.176,2.13,2.315c0,0,17.828,0.86,23.994,0.786
					c7.157-0.086,29.298-1.43,29.298-1.43c3.311,0.367,4.283,1.601,5.536,5.247c1.394,4.046-2.491,5.563-6.198,6.199
					c0,0-22.296,3.299-29.627,3.65c-6.134,0.292-17.464-0.492-24.213-1.074c-1.246-0.108-2.298,0.549-2.368,1.813
					c-0.071,1.269,0.883,2.18,2.131,2.317c0,0,7.679,1.045,10.643,1.127c6.213,0.185,26.072-0.045,26.072-0.045
					c3.313,0.369,5.931,1.839,5.707,5.7c-0.208,3.633-2.363,3.885-6.287,4.371c0,0-29.105,2.08-39.023,1.835
					c-54.546-1.356-55.738-21.894-82.299-22.738c-3.586-0.114-4.45-8.691-8.42-10.877c-6.02-3.325,14.764-10.88,15.491-21.393
					c0.201-2.913-31.194-13.801-30.796-15.177c0.348-1.202,26.729,6.832,46.529-11.093c7.968-7.219,18.336-16.604,29.474-15.422
					C241.884,246.741,257.532,257.102,244.778,264.056z"/>
			</g>
		</g>
		<path fill="#F4D4CE" d="M284.856,278.623l5.002-1.386c2.146-0.592,3.356-2.796,2.697-4.921l0,0
			c-0.657-2.123-2.937-3.366-5.079-2.771l-5.003,1.382c0,0-0.44,1.664,0.309,4.09C283.588,277.622,284.856,278.623,284.856,278.623z
			"/>
		<path fill="#F4D4CE" d="M301.611,300.164l6.319-1.056c2.711-0.45,4.519-2.71,4.036-5.035l0,0
			c-0.479-2.329-3.072-3.854-5.783-3.399l-6.317,1.055c0,0-0.789,1.74-0.236,4.403C300.22,298.984,301.611,300.164,301.611,300.164z
			"/>
		<path fill="#F4D4CE" d="M293.532,318.984l5.315-0.573c2.279-0.248,2.978-2.156,2.956-4.421c-0.024-2.521-1.92-4.019-4.199-3.771
			l-5.318,0.573c0,0-0.704,1.615-0.313,4.199C292.395,317.764,293.532,318.984,293.532,318.984z"/>
		<path fill="#F4D4CE" d="M276.232,336.017l5.011-0.129c2.155-0.054,3.792-1.58,3.661-3.42l0,0
			c-0.137-1.832-1.986-3.277-4.138-3.223l-5.014,0.121c0,0-0.796,1.251-0.644,3.345
			C275.271,334.965,276.232,336.017,276.232,336.017z"/>
		<path fill="#E5C0B5" d="M5.827,315.545c-11.336,2.388,17.18-60.093,17.18-60.093l186.96,24.372l-2.529,43.892
			C207.439,323.716,69.029,302.23,5.827,315.545z"/>
		<path fill="#F4D4CE" d="M248.938,263.031c-1.243,1.527-7.265-0.028-7.265-0.028s-0.18-2.62,0.557-4.599
			c1.171-3.141,2.015-4.271,2.015-4.271S254.119,256.664,248.938,263.031z"/>
	</g>
	<g>
		<g>
			<g>
				<path fill="#E5C0B5" d="M269.885,155.113c-0.543-1.203-7.209-2.989-15.072-4.88c-5.928-1.425-8.838-3.344-9.042-3.461
					c-9.075-5.004-2.22-11.874,3.665-10.299c25.3,6.76,60.033,34.438,60.033,34.438c3.132,1.153,5.329,0.693,7.514-2.542
					c2-2.956-0.991-5.481-2.986-7.993c-10.196-12.805-36.521-26.626-36.015-27.793c0.497-1.168,1.762-1.556,2.941-1.122
					c0,0,11.945,4.686,23.194,9.331c10.516,4.346,31.248,18.647,31.248,18.647c3.128,1.15,6.653-0.224,8.176-3.774
					c0.762-1.768-2.095-6.185-3.654-6.761c0,0-15.661-12.53-28.686-19.622c-5.914-3.218-24.294-11.761-24.294-11.761
					c-1.176-0.432-1.806-1.52-1.307-2.684c0.501-1.163,1.762-1.555,2.938-1.121c0,0,16.338,7.196,21.818,10.018
					c6.366,3.275,25.574,14.369,25.574,14.369c3.124,1.15,4.546,0.481,7.297-2.221c3.053-2.998,0.256-6.088-2.775-8.315
					c0,0-18.476-12.914-24.875-16.502c-5.357-3.003-15.843-7.364-22.143-9.857c-1.162-0.461-1.809-1.517-1.308-2.684
					c0.5-1.164,1.763-1.553,2.942-1.12c0,0,7.335,2.498,10.023,3.747c5.641,2.611,23.307,11.69,23.307,11.69
					c3.129,1.151,6.128,1.005,7.652-2.548c1.438-3.345-0.378-4.534-3.673-6.722c0,0-25.109-14.865-34.091-19.076
					c-49.406-23.157-59.649-5.319-83.787-16.431c-3.261-1.5-7.865,5.785-12.394,5.969c-6.868,0.285,8.35,16.33,4.301,26.06
					c-1.12,2.697-34.071-1.59-34.332-0.183c-0.225,1.229,26.966,5.83,36.668,30.716c3.905,10.016,8.986,23.044,19.478,26.963
					C259.56,169.31,278.188,167.032,269.885,155.113z"/>
			</g>
		</g>
		<path fill="#F4D4CE" d="M312.247,159.988l3.859,3.476c1.65,1.488,1.751,3.999,0.212,5.606l0,0
			c-1.537,1.609-4.13,1.701-5.782,0.212l-3.858-3.472c0,0,0.349-1.686,2.105-3.52C310.666,160.317,312.247,159.988,312.247,159.988z
			"/>
		<path fill="#F4D4CE" d="M336.862,148.204l5.181,3.768c2.228,1.615,2.834,4.442,1.361,6.309l0,0
			c-1.47,1.867-4.469,2.074-6.692,0.456l-5.18-3.768c0,0,0.072-1.909,1.757-4.044C335.091,148.636,336.862,148.204,336.862,148.204z
			"/>
		<path fill="#F4D4CE" d="M338.045,127.754l4.499,2.89c1.928,1.24,1.699,3.258,0.667,5.275c-1.147,2.245-3.513,2.738-5.44,1.499
			l-4.502-2.892c0,0,0.091-1.756,1.599-3.895C336.48,128.337,338.045,127.754,338.045,127.754z"/>
		<path fill="#F4D4CE" d="M330.177,104.79l4.426,2.354c1.905,1.009,2.686,3.106,1.747,4.693l0,0
			c-0.94,1.581-3.239,2.044-5.142,1.035l-4.432-2.348c0,0-0.151-1.476,0.921-3.281C328.847,105.3,330.177,104.79,330.177,104.79z"/>
		<path fill="#F4D4CE" d="M273.147,157.885c-0.43-1.917-6.51-3.219-6.51-3.219s-1.334,2.266-1.559,4.365
			c-0.355,3.332-0.104,4.72-0.104,4.72S274.938,165.899,273.147,157.885z"/>
		<path fill="#E5C0B5" d="M79.117,2.284c-9.074-7.201-11.478,61.439-11.478,61.439l178.149,61.729l17.349-40.396
			C263.137,85.056,129.711,42.435,79.117,2.284z"/>
	</g>
</g>
</svg>
