<?xml version="1.0" encoding="utf-8"?>
<!-- Generator: Adobe Illustrator 16.0.0, SVG Export Plug-In . SVG Version: 6.00 Build 0)  -->
<!DOCTYPE svg PUBLIC "-//W3C//DTD SVG 1.1//EN" "http://www.w3.org/Graphics/SVG/1.1/DTD/svg11.dtd">
<svg version="1.1" id="Layer_1" xmlns="http://www.w3.org/2000/svg" xmlns:xlink="http://www.w3.org/1999/xlink" x="0px" y="0px"
	 width="313.2px" height="435.9px" viewBox="0 0 313.2 435.9" enable-background="new 0 0 313.2 435.9" xml:space="preserve">
<g>
	<g>
		<path fill="#DDDDDD" d="M15.641,101.131l217.944-90.345c6.742-2.798,14.502,0.423,17.301,7.175l46.945,113.254
			c2.803,6.757-0.4,14.526-7.146,17.32L72.746,238.879c-6.748,2.799-14.506-0.426-17.307-7.182L8.492,118.443
			C5.686,111.692,8.895,103.929,15.641,101.131z"/>
		
			<rect x="74.025" y="22.065" transform="matrix(-0.3829 -0.9238 0.9238 -0.3829 86.3126 313.0796)" fill="#FFFFFF" width="147.391" height="211.296"/>
		
			<line fill="none" stroke="#999999" stroke-width="2" stroke-linecap="round" stroke-miterlimit="10" x1="54.778" y1="203.617" x2="27.544" y2="137.921"/>
		<g>
			<path fill="#FF6F6F" d="M176.535,110.935c-0.084,0.022-0.174,0.05-0.256,0.082c-0.377,0.158-0.771,0.487-0.926,0.854
				c-0.156,0.366-0.359,0.856-0.205,1.229l1.744,4.205c0.277,0.67,1.189,0.956,1.898,0.799c0.086-0.018,0.367-0.127,0.453-0.162
				c0.367-0.152,0.635-0.43,0.793-0.797c0.158-0.373,0.119-0.762-0.035-1.131l-1.74-4.205
				C177.982,111.142,177.252,110.776,176.535,110.935z"/>
			<path fill="#FF6F6F" d="M122.985,133.123c-0.083,0.02-0.076,0.009-0.159,0.041c-0.781,0.322-1.255,1.231-0.935,2.002l1.741,4.204
				c0.279,0.669,1.071,1.008,1.784,0.848c0.086-0.017,0.245-0.075,0.331-0.111c0.368-0.152,0.585-0.408,0.743-0.778
				c0.158-0.372,0.017-0.716-0.136-1.088l-1.743-4.205C124.335,133.368,123.703,132.96,122.985,133.123z"/>
			<path fill="#FF6F6F" d="M107.932,139.457c-0.083,0.02-0.133,0.028-0.214,0.061l-1.398,0.581l2.86,6.896l1.396-0.577
				c0.768-0.321,1.03-1.269,0.715-2.03l-1.675-4.037C109.339,139.68,108.65,139.296,107.932,139.457z"/>
			<path fill="#FF6F6F" d="M115.531,136.21c-0.083,0.019-0.191,0.056-0.275,0.089c-0.782,0.325-1.199,1.209-0.88,1.979l1.743,4.206
				c0.277,0.671,1.05,1.018,1.764,0.859c0.085-0.021,0.226-0.071,0.313-0.106c0.769-0.319,1.133-1.192,0.816-1.953l-1.749-4.201
				C116.987,136.413,116.25,136.052,115.531,136.21z"/>
			<path fill="none" d="M122.741,131.548c-0.172,0.038-0.379,0.105-0.545,0.174c-1.583,0.655-2.378,2.473-1.731,4.034l1.743,4.204
				c0.571,1.373,2.138,2.099,3.606,1.77c0.177-0.037,0.396-0.113,0.566-0.184c0.76-0.315,1.273-0.874,1.599-1.631
				c0.321-0.763,0.244-1.563-0.07-2.318l-1.741-4.206C125.597,132.016,124.218,131.215,122.741,131.548z"/>
			<path fill="none" d="M136.806,135.974l-4.635-3.679l1.392-3.865c0.151-0.402-0.061-0.852-0.474-1.001
				c-0.144-0.043-0.296-0.051-0.441-0.017c-0.275,0.063-0.496,0.249-0.589,0.506l-1.841,5.152l-3.093-7.467
				c-0.147-0.355-0.528-0.548-0.909-0.464c-0.042,0.01-0.086,0.023-0.13,0.041c-0.2,0.086-0.497,0.296-0.578,0.486
				c-0.083,0.192-0.224,0.466-0.144,0.665l5.231,12.613c0.148,0.361,0.658,0.491,1.039,0.407c0.046-0.006,0.166-0.054,0.212-0.073
				c0.192-0.078,0.38-0.244,0.463-0.438c0.088-0.193,0.108-0.421,0.028-0.615l-1.224-2.975l0.501-1.367l4.18,3.33
				c0.184,0.142,0.423,0.188,0.658,0.135c0.186-0.041,0.349-0.143,0.458-0.282c0.14-0.165,0.206-0.375,0.181-0.583
				C137.073,136.278,136.969,136.097,136.806,135.974z"/>
			<path fill="none" d="M107.579,137.955c-0.175,0.036-0.28,0.089-0.446,0.159l-1.78,0.736l-1.494-3.602
				c-0.148-0.354-0.335-0.626-0.715-0.544c-0.045,0.011,0.007-0.015-0.036,0.002c-0.202,0.084-0.347,0.232-0.427,0.423
				c-0.08,0.192-0.073,0.406,0.009,0.602l5.197,12.531c0.148,0.36,0.596,0.627,0.973,0.54c0.047-0.008,0.171,0.052,0.217,0.031
				l2.135-0.882c1.583-0.655,2.15-2.596,1.503-4.156l-1.674-4.034C110.472,138.385,109.055,137.625,107.579,137.955z"/>
			<path fill="none" d="M115.173,134.686c-0.174,0.037-0.323,0.081-0.489,0.151c-0.768,0.317-1.451,0.942-1.771,1.702
				c-0.321,0.756-0.405,1.626-0.093,2.381l1.744,4.207c0.57,1.377,2.146,2.098,3.613,1.766c0.177-0.037,0.402-0.113,0.572-0.182
				c0.76-0.316,1.331-0.898,1.656-1.654c0.322-0.764,0.303-1.588-0.011-2.345l-1.741-4.206
				C118.081,135.129,116.648,134.354,115.173,134.686z"/>
			<path fill="none" d="M155.888,115.043l-2.032,2.227l-2.391-1.782l-2.033,2.229l-2.393-1.785l-2.033,2.229l-2.39-1.781
				l-2.034,2.227l-2.393-1.781l-2.033,2.228l1.758,19.361l7.299-0.734c-0.14-1.563,0.75-3.108,2.296-3.751
				c1.9-0.785,4.066,0.091,4.844,1.966c0.01,0.021,0.02,0.045,0.026,0.067c0.145,0.301,0.235,0.626,0.269,0.974l7.423-0.749
				l-1.791-19.359L155.888,115.043z M151.469,130.331c0.078,0.188,0.141,0.371,0.061,0.557c-0.082,0.187-0.16,0.307-0.348,0.38
				c-0.045,0.02-0.137,0.052-0.183,0.064c-0.364,0.079-0.813-0.065-0.956-0.411l-2.641-6.37c-0.268-0.642-0.856-1.007-1.547-0.853
				c-0.079,0.018-0.053,0.031-0.132,0.065l-1.566,0.648l3.164,7.638c0.08,0.188,0.18,0.355,0.096,0.544
				c-0.081,0.187-0.129,0.287-0.313,0.367c-0.044,0.019-0.118,0.04-0.162,0.054c-0.366,0.08-0.771-0.082-0.915-0.43l-3.167-7.635
				l-2.72,1.127l3.167,7.637c0.077,0.19,0.147,0.37,0.064,0.559c-0.082,0.186-0.156,0.303-0.342,0.379
				c-0.045,0.019-0.089,0.039-0.135,0.046c-0.366,0.081-0.717-0.094-0.86-0.44l-3.474-8.379c-0.163-0.396,0.034-0.805,0.429-0.971
				l6.152-2.549c0.159-0.067,0.226-0.105,0.393-0.144c1.419-0.319,2.746,0.423,3.294,1.746L151.469,130.331z M155.431,119.004
				l0.891,9.107l0.295,2.908c0.045,0.678-0.098,1.304-0.418,1.815c-0.34,0.56-0.834,0.983-1.428,1.229
				c-0.049,0.019-0.09,0.036-0.135,0.042c-0.365,0.085-0.718-0.102-0.862-0.446c-0.078-0.189-0.082-0.397-0.002-0.582
				c0.076-0.184,0.227-0.329,0.421-0.407c0.596-0.249,0.953-0.843,0.893-1.479l-0.266-2.701l-5.656-6.888
				c-0.271-0.322-0.226-0.808,0.104-1.081c0.096-0.072,0.197-0.116,0.307-0.14c0.283-0.063,0.574,0.028,0.76,0.241l4.214,5.139
				l-0.638-6.619c-0.049-0.367,0.224-0.729,0.622-0.815l0.055-0.009C155.019,118.276,155.396,118.583,155.431,119.004z"/>
			<path fill="none" d="M176.287,109.362c-0.174,0.038-0.395,0.113-0.561,0.184c-1.582,0.655-2.391,2.477-1.744,4.038l1.744,4.204
				c0.57,1.377,2.098,2.115,3.568,1.784c0.178-0.041,0.377-0.105,0.547-0.176c0.762-0.315,1.367-0.91,1.689-1.665
				c0.322-0.765,0.338-1.607,0.025-2.358l-1.744-4.204C179.244,109.79,177.763,109.028,176.287,109.362z"/>
			<path fill="none" d="M168.72,112.616c-0.18,0.039-0.348,0.11-0.518,0.182l-1.396,0.577l-1.482-3.578
				c-0.148-0.355-0.52-0.556-0.9-0.47c-0.049,0.006-0.094,0.019-0.143,0.038c-0.195,0.081-0.346,0.229-0.43,0.422
				c-0.088,0.195-0.09,0.413-0.006,0.61l5.227,12.612c0.148,0.356,0.529,0.547,0.908,0.464c0.045-0.01-0.061,0.035-0.018,0.018
				c0.414-0.17,0.455-0.563,0.285-0.968l-3.158-7.617l1.697-0.706c0.084-0.033-0.012,0.026,0.076,0.007
				c0.711-0.16,1.248,0.294,1.527,0.963l2.58,6.223c0.146,0.355,0.711,0.472,1.09,0.388c0.043-0.011,0.182-0.063,0.223-0.079
				c0.414-0.173,0.652-0.643,0.482-1.052l-2.555-6.225C171.64,113.047,170.187,112.286,168.72,112.616z"/>
			<path fill="none" d="M189.431,103.896c-0.047,0.01-0.096,0.024-0.141,0.044c-0.336,0.14-0.535,0.484-0.484,0.839
				c0.004,0.036,0.521,3.517,0.895,6.17l0.008,0.062l-0.035-0.05c-1.598-2.147-3.711-4.961-3.732-4.991
				c-0.18-0.255-0.48-0.371-0.791-0.299c-0.047,0.007-0.094,0.021-0.137,0.039c-0.324,0.136-0.514,0.474-0.471,0.836
				c0.002,0.035,0.52,3.517,0.891,6.173l0.01,0.058l-0.035-0.046c-1.598-2.151-3.713-4.969-3.734-4.995
				c-0.184-0.243-0.496-0.36-0.797-0.298c-0.105,0.026-0.203,0.07-0.291,0.138c-0.344,0.256-0.424,0.735-0.172,1.076l5.621,7.525
				c0.199,0.246,0.504,0.358,0.801,0.294c0.039-0.011,0.082-0.021,0.123-0.039c0.348-0.146,0.535-0.479,0.471-0.836
				c-0.002-0.034-0.504-3.524-0.891-6.172l-0.008-0.059l0.035,0.048c1.631,2.16,3.736,4.995,3.736,4.995
				c0.195,0.247,0.502,0.358,0.799,0.296c0.039-0.014,0.082-0.023,0.121-0.041c0.35-0.145,0.539-0.479,0.473-0.835l-1.352-9.293
				c-0.031-0.208-0.139-0.385-0.297-0.501C189.877,103.911,189.658,103.858,189.431,103.896z"/>
			<path fill="none" d="M164.285,120.073l-2.551-0.542c-0.377-0.075-0.711-0.326-0.873-0.664c-0.168-0.345-0.172-0.749-0.014-1.088
				c0.168-0.358,0.475-0.606,0.877-0.703c0.393-0.085,0.779-0.007,1.07,0.216c0.182,0.141,0.42,0.19,0.656,0.134
				c0.186-0.039,0.348-0.142,0.459-0.286c0.127-0.16,0.184-0.37,0.156-0.584c-0.025-0.207-0.135-0.396-0.297-0.519
				c-0.666-0.515-1.543-0.7-2.438-0.501l0,0c-0.85,0.225-1.543,0.801-1.91,1.585c-0.377,0.763-0.377,1.659,0.006,2.456
				c0.398,0.769,1.105,1.314,1.943,1.495l2.561,0.564c0.416,0.086,0.74,0.341,0.922,0.717c0.188,0.346,0.191,0.777,0.018,1.155
				c-0.197,0.389-0.525,0.655-0.963,0.76c-0.402,0.092-0.791,0.01-1.121-0.234c-0.184-0.14-0.42-0.188-0.658-0.137
				c-0.184,0.042-0.346,0.144-0.459,0.286c-0.127,0.163-0.182,0.367-0.154,0.575c0.023,0.215,0.131,0.405,0.297,0.531
				c0.705,0.533,1.582,0.725,2.459,0.525l0.059-0.015c0.875-0.231,1.59-0.829,1.967-1.631c0.396-0.81,0.395-1.732-0.012-2.522
				C165.9,120.843,165.174,120.266,164.285,120.073z"/>
			<path fill="#FF6F6F" d="M25.503,100.432l54.704,131.964l192.669-79.867L218.174,20.565L25.503,100.432z M112.727,143.83
				c0.649,1.562,0.082,3.496-1.502,4.152l-2.133,0.883c-0.046,0.021-0.171-0.039-0.218-0.025c-0.378,0.084-0.826-0.186-0.975-0.546
				l-5.196-12.533c-0.082-0.196-0.092-0.406-0.011-0.599c0.083-0.19,0.229-0.341,0.43-0.421c0.042-0.02-0.011,0.008,0.034-0.004
				c0.38-0.086,0.568,0.189,0.713,0.544l1.496,3.604l1.783-0.741c0.165-0.068,0.269-0.118,0.445-0.156
				c1.475-0.332,2.893,0.429,3.462,1.805L112.727,143.83z M120.406,140.744c0.313,0.753,0.334,1.582,0.011,2.343
				c-0.321,0.758-0.894,1.341-1.654,1.656c-0.168,0.066-0.394,0.144-0.57,0.185c-1.469,0.33-3.045-0.388-3.615-1.768l-1.743-4.204
				c-0.314-0.759-0.229-1.625,0.092-2.385c0.32-0.759,1.002-1.385,1.77-1.702c0.168-0.067,0.315-0.112,0.492-0.15
				c1.473-0.333,2.907,0.445,3.476,1.822L120.406,140.744z M127.922,137.626c0.315,0.757,0.392,1.561,0.068,2.32
				c-0.323,0.759-0.837,1.316-1.598,1.632c-0.169,0.072-0.39,0.142-0.566,0.181c-1.468,0.333-3.033-0.393-3.605-1.769l-1.742-4.206
				c-0.646-1.559,0.146-3.376,1.73-4.034c0.166-0.064,0.374-0.133,0.545-0.175c1.476-0.326,2.856,0.474,3.425,1.847L127.922,137.626
				z M136.927,137.1c-0.111,0.14-0.274,0.241-0.46,0.284c-0.234,0.055-0.474,0.003-0.657-0.135l-4.182-3.331l-0.502,1.364
				l1.224,2.974c0.08,0.197,0.061,0.423-0.025,0.619c-0.084,0.19-0.272,0.355-0.465,0.437c-0.047,0.02-0.166,0.063-0.211,0.076
				c-0.379,0.083-0.891-0.05-1.04-0.408l-5.231-12.617c-0.082-0.195,0.059-0.473,0.141-0.665c0.082-0.188,0.378-0.4,0.58-0.482
				c0.043-0.02,0.086-0.034,0.131-0.043c0.379-0.085,0.759,0.109,0.907,0.462l3.094,7.465l1.839-5.15
				c0.094-0.253,0.314-0.441,0.589-0.507c0.146-0.029,0.299-0.024,0.443,0.019c0.415,0.148,0.624,0.598,0.475,1.002l-1.393,3.868
				l4.633,3.678c0.165,0.122,0.268,0.303,0.289,0.51C137.13,136.725,137.067,136.932,136.927,137.1z M152.661,136.967
				c-0.032-0.352-0.123-0.673-0.268-0.973c-0.009-0.023-0.018-0.045-0.025-0.069c-0.777-1.874-2.945-2.751-4.846-1.962
				c-1.544,0.639-2.435,2.184-2.293,3.75l-7.3,0.73l-1.759-19.36l2.033-2.23l2.39,1.786l2.034-2.229l2.394,1.785l2.032-2.231
				l2.391,1.782l2.035-2.225l2.391,1.781l2.034-2.227l2.393,1.783l1.789,19.358L152.661,136.967z M166.308,124.203
				c-0.375,0.8-1.09,1.397-1.965,1.632l-0.057,0.014c-0.881,0.195-1.754,0.01-2.465-0.529c-0.16-0.125-0.27-0.316-0.293-0.527
				c-0.027-0.209,0.027-0.415,0.152-0.576c0.113-0.145,0.277-0.244,0.461-0.287c0.234-0.055,0.477-0.003,0.658,0.138
				c0.328,0.243,0.717,0.324,1.121,0.231c0.438-0.1,0.766-0.369,0.965-0.756c0.174-0.376,0.168-0.809-0.02-1.151
				c-0.178-0.382-0.508-0.638-0.922-0.722l-2.564-0.563c-0.834-0.182-1.539-0.726-1.939-1.495c-0.383-0.798-0.385-1.691-0.006-2.459
				c0.365-0.78,1.061-1.359,1.91-1.582l0,0c0.895-0.2,1.773-0.018,2.438,0.497c0.162,0.124,0.27,0.316,0.299,0.525
				c0.025,0.207-0.031,0.419-0.158,0.583c-0.113,0.146-0.275,0.24-0.457,0.283c-0.238,0.053-0.479,0.002-0.66-0.135
				c-0.289-0.223-0.678-0.301-1.068-0.217c-0.402,0.099-0.709,0.349-0.877,0.704c-0.16,0.336-0.154,0.744,0.012,1.091
				c0.162,0.337,0.498,0.587,0.873,0.659l2.553,0.544c0.887,0.197,1.615,0.769,2,1.575
				C166.703,122.469,166.707,123.389,166.308,124.203z M174.781,120.681c0.17,0.409-0.07,0.88-0.482,1.052
				c-0.043,0.017-0.182,0.073-0.225,0.08c-0.379,0.086-0.945-0.035-1.092-0.387l-2.58-6.225c-0.277-0.665-0.814-1.125-1.525-0.964
				c-0.088,0.019,0.006-0.038-0.078-0.003l-1.695,0.704l3.16,7.614c0.168,0.41,0.125,0.801-0.287,0.971
				c-0.043,0.02,0.061-0.027,0.016-0.018c-0.377,0.083-0.76-0.112-0.906-0.463l-5.229-12.615c-0.082-0.199-0.078-0.411,0.008-0.611
				c0.086-0.188,0.236-0.34,0.428-0.418c0.049-0.02,0.098-0.031,0.143-0.041c0.381-0.088,0.756,0.112,0.902,0.472l1.482,3.579
				l1.395-0.579c0.17-0.07,0.34-0.141,0.52-0.181c1.469-0.33,2.92,0.432,3.492,1.807L174.781,120.681z M181.57,115.401
				c0.314,0.756,0.299,1.598-0.027,2.358c-0.322,0.762-0.926,1.355-1.688,1.669c-0.168,0.07-0.369,0.136-0.549,0.175
				c-1.467,0.33-2.996-0.406-3.566-1.784l-1.744-4.203c-0.646-1.563,0.164-3.383,1.744-4.043c0.164-0.064,0.387-0.142,0.561-0.181
				c1.475-0.33,2.955,0.431,3.527,1.807L181.57,115.401z M190.357,104.562l1.352,9.3c0.064,0.353-0.123,0.689-0.471,0.834
				c-0.041,0.016-0.082,0.027-0.125,0.038c-0.295,0.067-0.602-0.044-0.799-0.293c0,0-2.105-2.837-3.734-4.998l-0.037-0.046
				l0.008,0.061c0.391,2.646,0.889,6.136,0.895,6.17c0.064,0.356-0.125,0.689-0.475,0.837c-0.041,0.017-0.082,0.028-0.123,0.036
				c-0.295,0.068-0.602-0.045-0.799-0.293l-5.621-7.525c-0.252-0.341-0.174-0.822,0.174-1.076c0.088-0.066,0.186-0.106,0.289-0.131
				c0.299-0.069,0.613,0.047,0.797,0.293c0.021,0.028,2.137,2.843,3.732,4.991l0.039,0.051l-0.012-0.063
				c-0.371-2.654-0.889-6.132-0.889-6.166c-0.045-0.368,0.145-0.705,0.469-0.839c0.043-0.018,0.09-0.027,0.139-0.041
				c0.309-0.069,0.609,0.044,0.787,0.304c0.021,0.024,2.137,2.842,3.732,4.987l0.037,0.046l-0.008-0.06
				c-0.375-2.652-0.891-6.132-0.896-6.167c-0.049-0.353,0.15-0.699,0.486-0.84c0.045-0.018,0.092-0.031,0.139-0.045
				c0.229-0.032,0.445,0.014,0.617,0.137C190.22,104.181,190.324,104.359,190.357,104.562z"/>
			<path fill="#FF6F6F" d="M154.588,118.319l-0.055,0.009c-0.398,0.087-0.671,0.448-0.622,0.815l0.638,6.619l-4.214-5.139
				c-0.186-0.213-0.477-0.305-0.76-0.241c-0.109,0.023-0.211,0.067-0.307,0.14c-0.33,0.273-0.375,0.759-0.104,1.081l5.656,6.888
				l0.266,2.701c0.061,0.637-0.297,1.23-0.893,1.479c-0.194,0.078-0.345,0.224-0.421,0.407c-0.08,0.185-0.076,0.393,0.002,0.582
				c0.145,0.345,0.497,0.531,0.862,0.446c0.045-0.006,0.086-0.023,0.135-0.042c0.594-0.246,1.088-0.67,1.428-1.229
				c0.32-0.512,0.463-1.138,0.418-1.815l-0.295-2.908l-0.891-9.107C155.396,118.583,155.019,118.276,154.588,118.319z"/>
			<path fill="#FF6F6F" d="M145.534,122.214c-0.167,0.038-0.234,0.076-0.393,0.144l-6.152,2.549
				c-0.396,0.166-0.592,0.574-0.429,0.971l3.474,8.379c0.144,0.347,0.495,0.521,0.86,0.44c0.046-0.007,0.09-0.027,0.135-0.046
				c0.186-0.076,0.26-0.193,0.342-0.379c0.083-0.188,0.012-0.368-0.064-0.559l-3.167-7.637l2.72-1.127l3.167,7.635
				c0.144,0.348,0.549,0.51,0.915,0.43c0.044-0.014,0.118-0.035,0.162-0.054c0.184-0.08,0.232-0.181,0.313-0.367
				c0.084-0.188-0.016-0.356-0.096-0.544l-3.164-7.638l1.566-0.648c0.08-0.034,0.053-0.048,0.132-0.065
				c0.691-0.154,1.279,0.211,1.547,0.853l2.641,6.37c0.143,0.346,0.592,0.49,0.956,0.411c0.046-0.013,0.138-0.045,0.183-0.064
				c0.188-0.073,0.266-0.193,0.348-0.38c0.08-0.186,0.018-0.369-0.061-0.557l-2.641-6.37
				C148.28,122.637,146.953,121.895,145.534,122.214z"/>
		</g>
		<polyline opacity="0.2" fill="#444444" points="93.022,231.277 78.741,237.199 21.906,100.09 217.094,19.179 		"/>
	</g>
	<g>
		<g>
			<g>
				<path fill="#FFC5B8" d="M134.215,156.608c-0.384,1.098,3.135,5.779,6.43,12.276c2.485,4.894,3.012,8.034,3.06,8.244
					c2.193,9.199-5.539,8.669-7.918,3.71c-10.217-21.306-13.761-61.647-13.761-61.647c-1.083-2.825-2.571-4.046-5.629-3.586
					c-2.8,0.421-2.573,3.976-2.897,6.856c-1.632,14.66,5.133,40.921,4.188,41.279c-0.945,0.366-1.866-0.262-2.276-1.327
					c0,0-3.974-10.96-7.582-21.421c-3.375-9.781-6.754-32.522-6.754-32.522c-1.083-2.824-3.83-4.397-6.702-3.295
					c-1.43,0.548-2.361,5.157-1.822,6.563c0,0,1.566,18.223,4.77,31.369c1.456,5.967,6.812,23.635,6.812,23.635
					c0.405,1.064,0.138,2.146-0.804,2.51c-0.943,0.362-1.871-0.264-2.277-1.33c0,0-4.981-15.462-6.424-20.894
					c-1.674-6.313-6.035-26.082-6.035-26.082c-1.083-2.823-2.255-3.386-5.326-3.631c-3.409-0.275-3.614,3.494-3.197,6.9
					c0,0,2.912,20.369,4.427,26.892c1.269,5.459,4.614,15.228,6.699,21.021c0.384,1.073,0.14,2.147-0.804,2.51
					c-0.943,0.363-1.866-0.265-2.275-1.329c0,0-2.655-6.501-3.442-9.084c-1.65-5.415-6.296-22.919-6.296-22.919
					c-1.088-2.827-2.839-4.782-5.716-3.679c-2.705,1.038-2.374,2.993-1.787,6.555c0,0,5.493,26.063,8.087,34.716
					c14.283,47.615,30.158,43.833,37.253,66.974c0.958,3.125,7.676,1.871,10.299,4.842c3.987,4.51,4.667-15.527,12.468-18.637
					c2.16-0.863,18.053,24.164,19.002,23.492c0.828-0.586-11.682-21.883-2.889-43.49c3.541-8.699,8.139-20.016,4.545-29.521
					C148.884,154.149,137.128,152.524,134.215,156.608z"/>
			</g>
			<path fill="#F9AFAF" d="M114.248,123.76l-0.186-5.409c-0.078-2.32,1.291-4.141,3.063-4.062l0,0
				c1.774,0.079,3.277,2.029,3.356,4.349l0.185,5.412c0,0-1.15,0.897-3.176,0.805C115.318,124.757,114.248,123.76,114.248,123.76z"
				/>
			<path fill="#F9AFAF" d="M93.833,114.222l-0.733-5.802c-0.318-2.485,0.959-4.605,2.841-4.728l0,0
				c1.884-0.126,3.67,1.793,3.984,4.282l0.736,5.798c0,0-1.132,1.101-3.288,1.243C95.066,115.167,93.833,114.222,93.833,114.222z"/>
			<path fill="#F9AFAF" d="M81.491,125.611l-0.985-5.562c-0.424-2.388,0.83-3.585,2.547-4.146c1.908-0.62,3.547,0.928,3.969,3.317
				l0.992,5.56c0,0-1.032,1.134-3.091,1.395C82.717,126.456,81.491,125.611,81.491,125.611z"/>
			<path fill="#F9AFAF" d="M72.791,144.947l-1.119-4.433c-0.482-1.903,0.28-3.704,1.704-4.019l0,0
				c1.426-0.314,2.973,0.971,3.456,2.877l1.123,4.433c0,0-0.753,0.994-2.382,1.352C73.825,145.542,72.791,144.947,72.791,144.947z"
				/>
			<path fill="#F9AFAF" d="M134.245,154.592c0.02,1.921,4.271,5.149,4.271,5.149l3.496-1.991c0,0-3.766-4.817-6.328-4.608
				C135.058,153.192,134.235,153.653,134.245,154.592z"/>
			<path fill="#FFC5B8" d="M154.024,377.738c0.942,10.523,41.429-29.223,41.429-29.223l-63.919-158.546L98.84,202.504
				C98.84,202.504,148.773,319.07,154.024,377.738z"/>
		</g>
		<g>
			<g>
				<path fill="#FFC5B8" d="M195.886,122.098c0.896,0.735,0.342,6.567,0.922,13.827c0.432,5.475,1.625,8.426,1.693,8.63
					c2.928,8.99,9.25,4.502,8.688-0.968c-2.402-23.505-20.438-59.767-20.438-59.767c-0.551-2.977,0.08-4.791,2.93-5.997
					c2.609-1.102,4.273,2.05,6.049,4.337c9.043,11.653,16.982,37.583,17.977,37.399c0.992-0.183,1.453-1.199,1.248-2.32
					c0,0-2.332-11.426-4.715-22.23c-2.223-10.106-11.213-31.268-11.213-31.268c-0.551-2.976,0.969-5.751,3.998-6.31
					c1.506-0.278,4.707,3.167,4.98,4.647c0,0,8.174,16.362,12.301,29.246c1.875,5.85,6.527,23.717,6.527,23.717
					c0.209,1.119,1.004,1.904,1.994,1.721c0.996-0.186,1.457-1.201,1.248-2.32c0,0-3.818-15.79-5.428-21.179
					c-1.863-6.257-8.461-25.397-8.461-25.397c-0.551-2.973,0.156-4.067,2.646-5.877c2.768-2.014,4.908,1.098,6.332,4.215
					c0,0,8.145,18.9,10.258,25.251c1.766,5.318,4.012,15.398,5.258,21.43c0.23,1.112,1.002,1.905,1.994,1.72
					c0.996-0.182,1.455-1.197,1.25-2.318c0,0-1.131-6.932-1.807-9.548c-1.422-5.479-6.592-22.839-6.592-22.839
					c-0.553-2.975-0.074-5.558,2.953-6.117c2.848-0.525,3.586,1.312,4.945,4.658c0,0,8.92,25.097,11.225,33.834
					c12.664,48.067-2.846,53.129,3.18,76.567c0.813,3.169-5.572,5.602-6.258,9.509c-1.047,5.924-12.088-10.812-20.363-9.393
					c-2.295,0.393-2.785,30.034-3.945,29.958c-1.012-0.068-1.461-24.758-20.238-38.605c-7.561-5.57-17.391-12.822-19.279-22.812
					C182.09,127.659,191.265,120.135,195.886,122.098z"/>
			</g>
			<path fill="#F9AFAF" d="M195.771,83.66l-2.666-4.714c-1.143-2.021-3.264-2.856-4.732-1.862l0,0
				c-1.469,0.992-1.732,3.44-0.59,5.461l2.664,4.711c0,0,1.451,0.167,3.131-0.973C195.381,85.066,195.771,83.66,195.771,83.66z"/>
			<path fill="#F9AFAF" d="M208.205,64.87l-2.4-5.332c-1.027-2.288-3.219-3.431-4.891-2.551l0,0
				c-1.672,0.877-2.193,3.445-1.162,5.73l2.398,5.331c0,0,1.539,0.35,3.453-0.652C207.648,66.32,208.205,64.87,208.205,64.87z"/>
			<path fill="#F9AFAF" d="M224.677,68.141l-2.063-5.259c-0.885-2.256-2.578-2.624-4.338-2.205
				c-1.951,0.466-2.539,2.642-1.656,4.898l2.063,5.262c0,0,1.473,0.427,3.363-0.424C224.074,69.502,224.677,68.141,224.677,68.141z"
				/>
			<path fill="#F9AFAF" d="M242.189,80.097l-1.355-4.368c-0.586-1.875-2.172-3.014-3.557-2.539l0,0
				c-1.375,0.477-2.023,2.382-1.441,4.259l1.355,4.365c0,0,1.162,0.453,2.736-0.089C241.621,81.139,242.189,80.097,242.189,80.097z"
				/>
			<path fill="#FFC5B8" d="M294.4,321.059c4.689,9.467-50.59-3.299-50.59-3.299l-28.227-168.604l34.432-6.369
				C250.015,142.787,268.261,268.279,294.4,321.059z"/>
			<path fill="#F9AFAF" d="M194.808,120.396c0.984,1.648-0.957,6.62-0.957,6.62l-4.02,0.129c0,0,0.695-6.073,2.992-7.235
				C193.385,119.626,194.324,119.589,194.808,120.396z"/>
		</g>
	</g>
</g>
</svg>
