<?xml version="1.0" encoding="utf-8"?>
<!-- Generator: Adobe Illustrator 16.0.0, SVG Export Plug-In . SVG Version: 6.00 Build 0)  -->
<!DOCTYPE svg PUBLIC "-//W3C//DTD SVG 1.1//EN" "http://www.w3.org/Graphics/SVG/1.1/DTD/svg11.dtd">
<svg version="1.1" id="Layer_1" xmlns="http://www.w3.org/2000/svg" xmlns:xlink="http://www.w3.org/1999/xlink" x="0px" y="0px"
	 width="472.7px" height="305.5px" viewBox="0 0 472.7 305.5" enable-background="new 0 0 472.7 305.5" xml:space="preserve">
<g>
	<g>
		
			<rect x="79.804" y="62.088" transform="matrix(-0.2806 -0.9598 0.9598 -0.2806 40.5567 340.6537)" fill="#EEEEEE" width="136.274" height="186.079"/>
		<g>
			
				<rect x="48.549" y="84.138" transform="matrix(-0.4485 -0.8938 0.8938 -0.4485 10.6553 360.9305)" fill="#FFFFFF" stroke="#DEDEDE" stroke-width="2" width="136.276" height="186.079"/>
			<line fill="none" stroke="#CCCCCC" stroke-width="3" x1="103.197" y1="244.872" x2="54.108" y2="147.037"/>
			<line fill="none" stroke="#CCCCCC" stroke-width="3" x1="113.959" y1="239.473" x2="64.872" y2="141.638"/>
			<line fill="none" stroke="#CCCCCC" stroke-width="3" x1="124.721" y1="234.073" x2="75.633" y2="136.239"/>
			<line fill="none" stroke="#CCCCCC" stroke-width="3" x1="134.993" y1="228.918" x2="85.904" y2="131.084"/>
			<line fill="none" stroke="#CCCCCC" stroke-width="3" x1="145.266" y1="223.765" x2="96.179" y2="125.929"/>
			<line fill="none" stroke="#CCCCCC" stroke-width="3" x1="156.517" y1="218.119" x2="107.43" y2="120.284"/>
			<line fill="none" stroke="#CCCCCC" stroke-width="3" x1="166.79" y1="212.965" x2="117.701" y2="115.132"/>
			<g>
				<line fill="none" x1="198.435" y1="196.778" x2="174.007" y2="148.091"/>
			</g>
			<g>
				
					<text transform="matrix(-0.4485 -0.8938 0.8938 -0.4485 83.9028 258.4531)" fill="#808080" font-family="'GothamBlack'" font-size="9.8513">PATENT APPLICATION</text>
				<line fill="none" stroke="#808080" stroke-width="3" x1="89.263" y1="257.374" x2="36.003" y2="151.226"/>
				<line fill="none" stroke="#808080" stroke-width="3" x1="73.61" y1="265.228" x2="20.349" y2="159.078"/>
			</g>
		</g>
		<g>
			
				<rect x="77.537" y="59.46" transform="matrix(-0.3471 -0.9378 0.9378 -0.3471 53.2212 342.0524)" fill="#FFFFFF" stroke="#DEDEDE" stroke-width="2" width="136.277" height="186.082"/>
			
				<text transform="matrix(-0.6494 -0.7605 0.7605 -0.6494 194.5215 149.7148)" fill="#7EBAC0" font-family="'Infinity-Icons'" font-size="120.4055">E</text>
			<path fill="none" stroke="#7EBAC0" stroke-width="5" d="M79.884,168.681l8.322-3.081c0,0-11.733,22.142-0.597,47.78"/>
			<line fill="none" stroke="#7EBAC0" stroke-width="5" x1="91.592" y1="171.933" x2="89.512" y2="163.949"/>
			<path fill="none" stroke="#7EBAC0" stroke-width="5" d="M167.799,155.306l0.022-8.875c0,0,16.645,18.731,44.56,17.254"/>
			<line fill="none" stroke="#7EBAC0" stroke-width="5" x1="174.937" y1="145.472" x2="166.73" y2="144.63"/>
			<g>
				<path fill="none" stroke="#7EBAC0" stroke-width="5" d="M157.889,93.264l-0.327,8.718c0,0,12.928-15.847,33.344-10.121"/>
				<line fill="none" stroke="#7EBAC0" stroke-width="5" x1="162.745" y1="104.014" x2="156.694" y2="103.585"/>
			</g>
			<path fill="none" stroke="#7EBAC0" stroke-width="5" d="M101.076,224.739c-2.75,1.913-10.183,4.632-13.615,4.459
				c2.101-2.784,6.208-4.421,7.926-7.543c-2.049-0.525-5.213,1.93-7.3,2.434c0.678-3.617-1.615-3.521-4.931-3.068
				c3.363-4.263-2.515-2.55-3.731-5.757c-0.663-1.748,0.069-3.975-0.733-6.011c-0.359-0.912-0.846-1.813-1.344-2.678"/>
			<path fill="none" stroke="#7EBAC0" stroke-width="5" d="M208.266,108.229c-1.766-3.93-12.061-2.183-6.78-8.102
				c1.356-1.52,4.975-2.602,4.154-5.312c-0.975-3.221-6-1.016-8.17-0.159c-1.681-2.402,1.396-2.252,2.036-3.871
				c0.919-2.329-0.451-2.571-1.363-4.399c-0.278-0.553-1.075-0.817-1.36-1.831c-0.375-1.324,0.607-1.662,0.498-2.933
				c-0.138-1.599-0.383-3.853-2.25-3.899"/>
			<path fill="none" stroke="#7EBAC0" stroke-width="5" d="M227.273,177.447c-2.485,1.187-12.816,4.208-14.099-0.228
				c-1.26-4.356,12.051-5.132,8.469-10.459c-2.453,0.359-8.626,3.072-7.353-1.245c0.73-2.478,6.653-3.178,4.493-6.638
				c-7.838,0.233-2.502-5.068-4.544-9.287"/>
		</g>
		
			<rect x="84.58" y="78.809" transform="matrix(-0.4742 -0.8804 0.8804 -0.4742 73.8478 387.7991)" opacity="0.8" fill="#F9EE5A" width="136.277" height="186.08"/>
		
			<rect x="180.709" y="136.871" transform="matrix(-0.4741 -0.8805 0.8805 -0.4741 68.7856 500.9065)" fill="#7EA66A" width="6.569" height="186.078"/>
	</g>
	<g>
		<g>
			<g>
				<path fill="#FFC5B8" d="M237.807,169.956c1.143,0.399,6.014-3.262,12.773-6.689c5.092-2.586,8.358-3.134,8.577-3.186
					c9.571-2.28,9.02,5.764,3.861,8.239c-22.168,10.631-64.143,14.318-64.143,14.318c-2.939,1.127-4.209,2.675-3.731,5.856
					c0.438,2.913,4.137,2.678,7.134,3.015c15.253,1.698,42.578-5.341,42.949-4.357c0.381,0.983-0.272,1.941-1.379,2.367
					c0,0-11.405,4.136-22.289,7.889c-10.177,3.512-33.838,7.028-33.838,7.028c-2.938,1.127-4.575,3.984-3.428,6.974
					c0.57,1.487,5.366,2.456,6.828,1.896c0,0,18.96-1.63,32.638-4.962c6.208-1.516,24.592-7.088,24.592-7.088
					c1.106-0.421,2.232-0.143,2.611,0.836c0.377,0.982-0.274,1.947-1.385,2.37c0,0-16.087,5.183-21.739,6.684
					c-6.567,1.742-27.137,6.28-27.137,6.28c-2.938,1.126-3.522,2.346-3.778,5.541c-0.286,3.547,3.636,3.761,7.181,3.326
					c0,0,21.193-3.029,27.979-4.606c5.679-1.32,15.843-4.8,21.87-6.97c1.118-0.4,2.236-0.145,2.611,0.836
					c0.378,0.982-0.273,1.942-1.381,2.368c0,0-6.766,2.763-9.451,3.582c-5.637,1.717-23.848,6.55-23.848,6.55
					c-2.941,1.133-4.975,2.954-3.827,5.947c1.08,2.815,3.114,2.47,6.819,1.859c0,0,27.118-5.715,36.12-8.414
					c49.541-14.861,45.608-31.378,69.685-38.76c3.251-0.997,1.946-7.987,5.038-10.716c4.691-4.148-16.156-4.855-19.391-12.972
					c-0.899-2.248,25.141-18.783,24.441-19.771c-0.609-0.861-22.768,12.155-45.249,3.005c-9.05-3.684-20.825-8.468-30.715-4.728
					C235.249,154.693,233.558,166.925,237.807,169.956z"/>
			</g>
			<path fill="#F9AFAF" d="M203.63,190.731l-5.628,0.192c-2.414,0.081-4.308-1.344-4.226-3.187l0,0
				c0.082-1.847,2.111-3.41,4.524-3.492l5.631-0.192c0,0,0.934,1.197,0.837,3.305C204.668,189.617,203.63,190.731,203.63,190.731z"
				/>
			<path fill="#F9AFAF" d="M193.707,211.972l-6.037,0.764c-2.586,0.331-4.792-0.999-4.919-2.957l0,0
				c-0.131-1.96,1.865-3.817,4.456-4.146l6.032-0.766c0,0,1.145,1.178,1.293,3.421C194.69,210.688,193.707,211.972,193.707,211.972z
				"/>
			<path fill="#F9AFAF" d="M205.556,224.813l-5.787,1.024c-2.484,0.44-3.73-0.864-4.313-2.649c-0.645-1.986,0.966-3.69,3.452-4.13
				l5.785-1.032c0,0,1.18,1.074,1.45,3.216C206.435,223.538,205.556,224.813,205.556,224.813z"/>
			<path fill="#F9AFAF" d="M225.674,233.865l-4.612,1.164c-1.98,0.502-3.854-0.291-4.182-1.773l0,0
				c-0.327-1.482,1.011-3.093,2.994-3.595l4.612-1.169c0,0,1.034,0.784,1.406,2.479
				C226.294,232.789,225.674,233.865,225.674,233.865z"/>
			<path fill="#F9AFAF" d="M235.71,169.923c1.997-0.02,5.358-4.442,5.358-4.442l-2.073-3.638c0,0-5.012,3.918-4.793,6.584
				C234.252,169.078,234.732,169.935,235.71,169.923z"/>
			<path fill="#FFC5B8" d="M467.884,149.345c10.948-0.98-30.404-43.104-30.404-43.104l-164.962,66.505l13.042,34.018
				C285.56,206.763,406.842,154.808,467.884,149.345z"/>
		</g>
		<g>
			<g>
				<path fill="#FFC5B8" d="M201.902,105.789c0.765-0.934,6.833-0.355,14.386-0.959c5.697-0.45,8.767-1.692,8.979-1.763
					c9.354-3.045,4.685-9.624-1.006-9.039c-24.457,2.5-62.186,21.264-62.186,21.264c-3.096,0.574-4.985-0.082-6.24-3.048
					c-1.146-2.714,2.133-4.446,4.513-6.293c12.125-9.408,39.103-17.668,38.912-18.703c-0.189-1.032-1.248-1.512-2.414-1.298
					c0,0-11.888,2.425-23.13,4.905c-10.516,2.313-32.532,11.666-32.532,11.666c-3.096,0.573-5.984-1.008-6.565-4.158
					c-0.29-1.567,3.295-4.898,4.836-5.183c0,0,17.024-8.505,30.429-12.798c6.086-1.952,24.677-6.791,24.677-6.791
					c1.164-0.219,1.981-1.045,1.791-2.076c-0.194-1.036-1.25-1.515-2.415-1.298c0,0-16.429,3.974-22.035,5.647
					c-6.511,1.94-26.426,8.805-26.426,8.805c-3.092,0.572-4.231-0.163-6.114-2.754c-2.096-2.88,1.142-5.107,4.386-6.588
					c0,0,19.665-8.475,26.272-10.673c5.533-1.836,16.021-4.175,22.296-5.47c1.157-0.241,1.982-1.043,1.789-2.076
					c-0.188-1.036-1.246-1.513-2.412-1.3c0,0-7.212,1.176-9.935,1.879c-5.701,1.479-23.763,6.858-23.763,6.858
					c-3.095,0.575-5.782,0.077-6.364-3.071c-0.547-2.964,1.364-3.731,4.847-5.146c0,0,26.111-9.281,35.202-11.679
					c50.013-13.177,55.279,2.961,79.664-3.308c3.3-0.846,5.831,5.797,9.896,6.51c6.164,1.09-11.25,12.578-9.773,21.188
					c0.409,2.388,31.25,2.898,31.172,4.105c-0.072,1.053-25.763,1.519-40.168,21.057c-5.796,7.866-13.343,18.094-23.735,20.059
					C207.687,120.144,199.859,110.597,201.902,105.789z"/>
			</g>
			<path fill="#F9AFAF" d="M161.908,105.909l-4.905,2.774c-2.102,1.189-2.971,3.396-1.938,4.924l0,0
				c1.033,1.528,3.58,1.803,5.682,0.613l4.902-2.772c0,0,0.173-1.51-1.012-3.256C163.371,106.314,161.908,105.909,161.908,105.909z"
				/>
			<path fill="#F9AFAF" d="M142.358,92.971l-5.549,2.499c-2.38,1.069-3.569,3.349-2.654,5.087l0,0
				c0.913,1.741,3.585,2.282,5.962,1.21l5.547-2.497c0,0,0.364-1.6-0.679-3.592C143.866,93.55,142.358,92.971,142.358,92.971z"/>
			<path fill="#F9AFAF" d="M145.761,75.832l-5.472,2.146c-2.347,0.922-2.73,2.684-2.294,4.514c0.485,2.031,2.749,2.642,5.097,1.723
				l5.475-2.146c0,0,0.443-1.532-0.441-3.499C147.178,76.461,145.761,75.832,145.761,75.832z"/>
			<path fill="#F9AFAF" d="M158.201,57.613l-4.545,1.41c-1.95,0.61-3.136,2.259-2.642,3.7l0,0c0.496,1.432,2.479,2.105,4.431,1.501
				l4.542-1.411c0,0,0.472-1.209-0.093-2.847C159.286,58.204,158.201,57.613,158.201,57.613z"/>
			<path fill="#FFC5B8" d="M408.911,3.29c9.852-4.879-3.433,52.637-3.433,52.637L230.054,85.295l-6.627-35.826
				C223.427,49.469,353.997,30.486,408.911,3.29z"/>
			<path fill="#F9AFAF" d="M200.13,106.911c1.715-1.024,6.889,0.996,6.889,0.996l0.134,4.181c0,0-6.319-0.722-7.529-3.112
				C199.33,108.391,199.291,107.415,200.13,106.911z"/>
		</g>
	</g>
</g>
</svg>
