<?xml version="1.0" encoding="utf-8"?>
<!-- Generator: Adobe Illustrator 16.0.0, SVG Export Plug-In . SVG Version: 6.00 Build 0)  -->
<!DOCTYPE svg PUBLIC "-//W3C//DTD SVG 1.1//EN" "http://www.w3.org/Graphics/SVG/1.1/DTD/svg11.dtd">
<svg version="1.1" id="Layer_1" xmlns="http://www.w3.org/2000/svg" xmlns:xlink="http://www.w3.org/1999/xlink" x="0px" y="0px"
	 width="125.5px" height="52.1px" viewBox="0 0 125.5 52.1" enable-background="new 0 0 125.5 52.1" xml:space="preserve">
<g>
	<polygon opacity="0.1" fill="#010101" points="19.6,51.4 4.8,52.1 4,49.5 16.5,41.3 	"/>
	<path opacity="0.1" fill="#010101" d="M16.2,40.9l96.1-31.2c3.3-1.1,5.9,0.8,6.8,3.6l0.2,0.5c0.9,2.8-0.2,5.5-3.5,6.5L19.7,51.5"/>
	<line fill="none" stroke="#454545" stroke-width="3" stroke-linecap="round" x1="1.5" y1="47.6" x2="6.2" y2="46.1"/>
	<polygon fill="#DEDEDD" points="18.8,46.8 4,47.4 3.2,44.9 15.7,36.6 	"/>
	<path fill="#F68851" d="M121.4,8.2c0.9,2.8-1.3,5.5-4.6,6.6L20.8,45.9c-3.3,1.1-6.8,0.1-7.7-2.7l-0.2-0.5c-0.9-2.8,1.5-5.2,4.8-6.3
		l96.1-31.1c3.3-1.1,6.6-0.5,7.5,2.3L121.4,8.2z"/>
	<path fill="#505050" d="M125.1,7.5c1.1,3.4-0.1,7.2-3.7,8.4L83.9,28.1c-3.6,1.2-8.3-0.7-9.4-4.1l-0.3-1c-1.1-3.4,2-6.6,5.6-7.8
		L117.3,3c3.6-1.2,6.4,0.1,7.5,3.5L125.1,7.5z"/>
	<g>
		<path fill="#505050" d="M115,0.4c0.1,0.3-0.1,0.7-0.4,0.8L78.1,13c-0.3,0.1-0.7-0.1-0.8-0.4l0,0c-0.1-0.3,0.1-0.7,0.4-0.8L114.2,0
			C114.5-0.1,114.9,0.1,115,0.4L115,0.4z"/>
		<path fill="#505050" d="M119.1,9c0.4,1.2-0.3,2.5-1.5,2.9l-0.3,0.1c-1.2,0.4-2.5-0.3-2.9-1.5L112,3.2c-0.4-1.2,0.3-2.5,1.5-2.9
			l0.3-0.1c1.2-0.4,2.5,0.3,2.9,1.5L119.1,9z"/>
	</g>
</g>
</svg>
