<svg xmlns="http://www.w3.org/2000/svg" width="2500px" height="1310px" viewBox="0 0 2500 1310">
  <g fill="none" fill-rule="evenodd">
    <path id="Shape" fill="#28221D" d="M926.7 442.6l13.2-2.3-118.2-12-141 29.7s-9.3 4-9.6 6.6c-.3 2.8-5 18.2 36.2 29.8 3.5-15.5 28.3-48 219.3-51.8z"/>
    <path id="Shape" fill="#3784C0" d="M706 487.2c0 1 .2 2 .5 3-22-6.8-35.3-15.3-35.3-24.6 0-21.3 69-38.5 153.8-38.5 46 0 87.5 5.2 115.7 13.2-130.3.8-234.7 21.5-234.7 47z"/>
    <path fill="#F1DAA4" d="M890.5 437.6C786 437.6 701.3 457 701.3 481c0 3 1.3 5.7 3.7 8.5-22-6.7-35-15.3-35-24.6 0-21.6 69.2-39 154.5-39 46 0 87.4 5 115.7 13-16-1-32.5-1.4-49.7-1.4z"/>
  </g>
</svg>
