<svg xmlns="http://www.w3.org/2000/svg" width="2500" height="1310" xmlns:xlink="http://www.w3.org/1999/xlink">
  <defs>
    <path id="path-1" d="M0 165c0-50 88.5-96.2 246-131.7-27.6 9.7-42.8 20-42.8 31 0 59.6 396.4 112.2 860.4 112.2s840.2-48.4 840.2-108.2c0-25.3-55-48.8-153.7-67.6C2036.8 37 2224 96.3 2224 165c0 112-498 257.3-1112 257.3C497.8 422.3 0 277 0 165z"/>
    <path id="path-3" d="M83 36.7S34 36.2.4 10c0 0 60-.5 94-9.6L159 19 83 36.7z"/>
    <path id="path-5" d="M39.8 31.6c-13.6 6.8-5 18-7 26-2.7-1.5-14.5-6.7-20.5-7.7 3.2-2.7 6.8-7.7 3.7-10-3-2.2-12.2-1.8-11.7-6.8.2-2.3.2-4.8.3-7.5-2.3-1.2-4-2.7-4-4C2 21.7 4 19.7 6 17c0-.6.3-1.3.5-2C9 7.4 13.5.8 25.7.5 38 0 53.4 24.8 39.7 31.6zm-31 19c.2-1 1.5-1 3.5-.7-2 1.5-3.7 2.2-3.5.6z"/>
    <path id="path-7" d="M2.2 43.7C18.6 41 22.4 31.3 22.4 31.3 18 21.3 16.6 12 15 3c0 0 14.8-7 24.6 3.3C38.3 22 38 35.3 37 43c0 0-.4 4-7.6 3.6L27.2 45l-3 1.6S15 51.2 1 45c0 0-.7-1 1.2-1.3z"/>
    <ellipse id="path-9" cx="45.2" cy="45.8" rx="45" ry="45.1"/>
    <path id="path-11" d="M42 9.5C30.5 62 10.2 120 .6 131c-3.8 6.2 45.6 6 85.3-9.4 7.8-3.2 43-84 42-116.6-.5-5-64-7.8-86 4.5z"/>
    <path id="path-13" d="M44 34.6c8.5-7.2-7.5-32.2-7.5-32.2L21.7.4l-12 9c-.4 1 .6 2.8 1.2 3l-8.7 6s2.5 3 4.5 3.6c.3 1-2 3.3-2.7 3.8 0 0-.3 4 .7 4.7 0 0-5.4 5.5-3.7 8L7.5 41s6 20.8 6 16.6C13.2 54 28 58.6 32 60c0 0 1.5-12 12-25.4z"/>
    <ellipse id="path-15" cx="45.2" cy="45.8" rx="45" ry="45.1"/>
    <path id="path-17" d="M83.2 37S34.2 36.3.6 10c0 0 60-.6 94-9.7L158.8 19 83 37z"/>
    <path id="path-19" d="M1.5 47c17.7-3 21.8-13.4 21.8-13.4-4.7-10.8-6.2-20.8-8-30.7 0 0 16-7.6 26.7 3.5-1.5 17-2 31.5-2.8 39.7 0 0-.5 4.3-8.2 4l-2.4-1.6-3.2 1.6s-10 5-25.2-1.6c0 0-1-1 1.3-1.5z"/>
    <path id="path-21" d="M1.7 16.6C-1 14.2.3 10 2.5 8 4.5 5.6 8 3.5 12 1.5c3.7-2 6.6-1.6 9.4-.8C27 2.2 30 4 38.8 3c3.5-.2 11.4-1.2 15-.6 5.5 1 7.8 17.2-2.4 17.3C41.2 20 39 17 34 16.7c-5-.5-12.6-5.8-15-5-6 2.4-6.5 0-9.4 0-3 .2-4.8-.7-4.8 1.7 0 1.7-1.4 4.8-3 3.2z"/>
    <path id="path-23" d="M42 9.6c-11.3 52.6-31.5 111-41 122-4 6 45.4 6 85-9.6 7.8-3.2 42.8-84.4 41.8-117-.3-5-63.5-7.8-85.7 4.6z"/>
  </defs>
  <g id="Page-1" fill="none" fill-rule="evenodd">
    <g id="beach" transform="translate(30 755)">
      <path id="path-1" fill="#28221D" d="M2 225.2c-.2 0 0-26 0-26l28.6-5.8c38-39 115.2-81.5 222-121C326.2 133.7 731.3 213 1186 213c502.7 0 910.3-54.5 910.3-117 0-19-10.8-35.3-31.4-49.3l23.6 5 12.5-4.2c144.7 46 248.6 98.5 294.8 146h26.7l17.4 5.6c-4 178-565.6 355-1226.5 355C552 554 22.5 391.7 2 225.3z"/>
      <path id="path-2" fill="#191512" d="M3 194.6C3 133.6 140.5 78 362.5 38c-55.2 16.3-85 34-85 52 0 62.3 410.6 113 917 113 506.5 0 917-50.7 917-113 0-34.3-116.8-67.2-309.4-89.5 380 37.4 638 110.3 638 194 0 145.4-545.3 300.2-1218 300.2S3 340 3 194.7z"/>
      <path id="path-1" fill="#3784C0" d="M101 173c0-50 88.6-96.3 246.2-131.8-27.7 9.7-43 20-43 31 0 59.6 396.5 112.2 860.5 112.2S2005 136 2005 76.4c0-25.4-55-49-153.8-67.8C2137.7 45 2325 104.2 2325 173c0 111.8-497.8 257.2-1112 257.2-614 0-1112-145.4-1112-257.3z"/>
      <g id="Clipped" transform="translate(101.089 7.929)">
        <mask id="mask-2" fill="#fff">
          <use xlink:href="#path-1"/>
        </mask>
        <path id="Shape" fill="#3784C0" fill-opacity=".2" stroke="#FFF" stroke-opacity=".8" d="M1948 79.7c0 58.7-388 106.2-866.7 106.2-478.6 0-887.5-51.7-887.5-110.4C193.8 17 674.3-28 1152.8-28c478.7 0 795 49 795 107.7z" mask="url(#mask-2)"/>
      </g>
      <path id="path-5" fill="#F7C992" d="M1 198.3c0-67.5 137.5-124.6 350-158-48.6 13.8-75.5 29-75.5 45 0 62.5 407.6 113 910.3 113 502.7 0 910.3-50.5 910.3-113 0-32.6-111.6-62-290.2-82.7 370 29.8 629.8 98.5 629.8 181 0 121.8-554.8 291.2-1222.5 291.2S1 320 1 198.3z"/>
      <path id="path-6" fill="#FBDCB6" d="M260.7 86.3c-11 81.5 457 147 927.8 147.2 499 .3 943.5-75 943.5-147.6 0-34.4-104.6-59.4-312-83.7 240 34.4 277.7 58.7 277 84-1.6 61.3-464.5 111.3-908.5 110.6-448.7-.7-909.8-45-912.7-110.7-.7-14.8 31.4-31.4 82-49.6-57.6 21-94.6 31-97 49.6z"/>
      <path id="path-7" fill="#CD9660" d="M20 239.5c-5.4-6-8.7-12.3-13-18.5 312 259 996.4 225.5 1203.5 229.8 194 4 982.2-23 1221.6-263 26.4 47-295.2 291.7-1221.5 291.7C498 479.5 140.3 375.3 20 239.5z"/>
      <path id="path-8" fill="#C59A67" d="M1533 276.4c-66 4.6-116.4 25.6-135.4 31.4-33.4 10 16.3 40.7 102.4 41.2 86 .5 243-37.2 276.6-54 29-14.6-8.3-47-66-45-57.5 1.8-130 23.2-177.5 26.4z"/>
      <g id="Sign">
        <path id="path-9" fill="#C59A67" d="M765.7 347.5c-23.6-3-43.4-1.3-50.6 0-12.6 2-37.8 9.5-7.5 16.2 30.2 6.8 248.6 25.4 262 20.4 11.6-4.3 21.4-16.7 1-20.2s-187.8-14.2-204.8-16.3z"/>
        <path id="path-1" fill="#2E1C1A" d="M749 324.7l9 34s1.3 2.4 8 .7l7-35.4-24 .7z"/>
        <path id="path-2" fill="#2E1C1A" d="M897 334.7l9 34s1.3 2.4 8 .7l7-35.4-24 .7z"/>
        <path id="path-3" fill="#701F19" d="M998 126l-8.6 218-282-15.2-.4.2-9-7 1.8-56-7.8-63 201.3-50.7L988 116l10 10z"/>
        <path id="path-4" fill="#B94037" d="M682 183l306-67-7.6 221-282-13.2-16.4-141z"/>
        <path id="path-5" fill="#FFF" d="M1016.6 125.3l-165.3 40 2.7-5.3 162.6-36.5v1.8zm0 4.4v1.8L851 174.2l2.8-5.3 162.5-39.3z"/>
        <path id="path-6" fill="#FFF" d="M842 174.2c-1.3 1.6-3 2.5-4.8 3-1.6.3-3 0-4.3-.8-1.5-1-2-2.4-2-4.4 0-1.7.8-3.4 2.2-5 1.3-1.5 3-2.5 4.7-3 1.8-.3 3.3 0 4.5 1 1.2 1 1.8 2.4 1.7 4.2 0 1.8-.8 3.5-2.2 5zm-1-7.6c-.7-.8-1.8-1-3.2-.7-1.3.2-2.4 1-3.4 2s-1.4 2.3-1.5 3.6c-.2 1.4.3 2.4 1.2 3 .8.8 2 1 3 .8 1.5-.3 2.6-1 3.6-2 1-1.3 1.4-2.5 1.5-3.8 0-1.3-.3-2.3-1.2-3zm-16.7 2.5l-.6 10.8-2 .5.6-10.8-3 .7.2-1.8 7.7-1.7v1.8l-3 .6zm-23 5l-.2 3 5-1v1.8l-5 1-.2 4.3 5-1v1.7l-7 1.6.6-12.5 7-1.6v1.8l-5 1zm-11.3 5.7l-4.2 9-3.2-7.4-1.8 8-2 .3 3.4-14 4 8.8 4.8-10.7 1.8 13-2 .3-.8-7.3zm-23.2 12.8c-1.6.3-3 0-4.3-.8-1.4-1-2-2.4-2-4.4.2-1.7 1-3.4 2.3-5 1.3-1.5 3-2.4 4.8-2.8 1.8-.4 3.3 0 4.5 1 1.3 1 2 2.2 1.8 4 0 1.8-.8 3.5-2 5-1.5 1.6-3 2.5-5 3zm4-10.6c-1-.8-2-1-3.3-.8-1.4.3-2.5 1-3.5 2-1 1.2-1.4 2.4-1.5 3.7 0 1.3.4 2.4 1.3 3 1 .7 2 1 3 .7 1.5-.3 2.6-1 3.6-2 1-1.2 1.4-2.5 1.5-3.8 0-1.4-.4-2.4-1.3-3zm-18.5 2.5c-1.3.3-2.4 1-3.3 2-1 1.2-1.5 2.5-1.5 3.8 0 1.3.3 2.3 1 3 1 .7 2 1 3.4.7l1.6-.7.8-.7 1-.8v2.3c-1.3 1-2.4 1.5-3.6 1.7-1.8.4-3.4 0-4.6-.8-1.2-1-1.8-2.5-1.7-4.3 0-1.6.7-3 1.8-4.6 1.4-1.7 3.2-2.8 5.2-3.3 1.2-.2 2.3-.2 3.3.2v2c-1.2-.5-2.3-.7-3.5-.5zm-11 13.3l-5.7 1.2.6-12.5 2-.4-.6 10.8 3.7-.8v1.8zm-16-7l-.3 3 5-1.2v1.8l-5 1-.3 4.2 5-1v1.7l-7 1.5.6-12.5 7-1.5v1.8l-5 1zm-16 6l-4 9.6-4.6-12.2 2-.4 3 7.6 4-9.7 2.7 8.3 4-9.2 2-.4L712 205l-2.7-8.2z"/>
        <path id="path-7" fill="#FFF" d="M961.5 305.6c-1.2 2-2.7 3.5-4.7 4.7-2 1-4 1.7-6.4 1.7-2 0-3.7-.4-5.2-1.2l1.2-2.4c1.3.6 2.6.8 4 .8 3 0 5.3-1 7.2-3 1.8-2 2.8-4.3 2.8-7s-1-5-3-7-4.3-3-7-3c-1.2 0-2.5.3-3.7.8l1.5-11.7h11v2.8h-8.5l-.7 5.5h.4c1.8 0 3.5.4 5 1 1.6.7 3 1.6 4 2.7 1 1 2 2.5 2.7 4 .8 1.7 1.2 3.4 1.2 5 0 2.3-.6 4.5-1.7 6.4zm-21-23.7l-3 1V280l5.7-2V312h-2.8v-30zm-10.2 25.5c-1.6 1.6-3.5 3-5.6 3.8-2.2 1-4.4 1.4-6.8 1.4-2.5 0-4.7-.4-7-1.3-2-1-4-2.2-5.5-3.8-1.7-1.7-3-3.6-4-5.7-.8-2.3-1.3-4.5-1.3-7 0-2.2.5-4.5 1.4-6.7 1-2.2 2.2-4 3.8-5.7 1.6-1.6 3.5-3 5.7-3.8 2.3-1 4.6-1.4 7-1.4 2.3 0 4.5.5 6.7 1.4 2 1 4 2 5.6 3.7 1.6 1.6 3 3.5 3.8 5.7 1 2.2 1.5 4.5 1.5 7 0 2.3-.5 4.5-1.4 6.7-.8 2-2 4-3.7 5.5zm-2-23c-3-3-6.5-4.3-10.5-4.3-4.2 0-7.7 1.5-10.5 4.4-3 3-4.3 6.4-4.3 10.5 0 4.3 1.5 8 4.4 10.7 3 2.8 6.4 4.3 10.4 4.3 4.3 0 7.4-1.2 9.5-3.4 2.2-2.2 3.6-4.3 4.3-6 .7-2 1-3.8 1-5.5 0-4-1.4-7.7-4.3-10.5zm-36.5 26.3c-2 1.2-4.2 1.8-6.6 1.8-2.3 0-4.5-.6-6.5-1.8l1.3-2.5c1.7 1 3.4 1.5 5.2 1.5 2 0 3.6-.5 5-1.4 1.7-1 3-2 4-3.7.8-1.6 1.3-3.3 1.3-5.2 0-1.8-.5-3.5-1.4-5-.8-1.7-2-3-3.6-3.8-1.6-1-3.3-1.4-5.2-1.4h-2.5l6.2-8.2h-7v-2.7h12.4l-6.5 8.5c2 .4 3.6 1.2 5.2 2.5 1.6 1.2 2.8 2.7 3.7 4.5.8 1.8 1.3 3.7 1.3 5.7 0 2.3-.6 4.5-1.8 6.5-1.2 2-2.7 3.6-4.7 4.8z"/>
        <path id="path-8" fill="#FFF" d="M935.7 229.3c-4.3 6-7 9.8-8.3 11.2-2 2-4 3.4-6.3 4-.5 0-1-.3-1.8-1.4-.7-1-1-2.6-1-4.2 0-1.4 1.4-5 4-11l-1.6 1.8-10 11.4c-4 4.3-6 6.5-6.5 6.7 0 0-.2 0-.2-.4-.3 0-.7-.3-1-1.2-.2-.8-.3-1.6-.2-2 .2-1 1-3 2.4-6-1.4.8-2.7 1.3-4 1.6l-1 1.7c-2.4 3.7-5 6.7-7.5 9-2 2-3.2 2.8-4 3-1 .3-1.5.3-1.8 0-.7 0-1.6-.5-2.7-1-.4-.3-.7-1-1-2l-.2-.3c-4.2 3.7-7.5 6-10 6.6h-1.4c-.5 0-1-.6-1.4-1.7-.4-1-.6-2-.5-2.8v-.3l-3 4.2c-2.4 2.7-4.8 4.3-7.3 5-.6 0-1.2-.3-2-1.4-.7-1.2-1-2.6-1-4.3 0-1.4 1.5-5 4.3-11l-1.8 1.8-10 11.4c-4 4.3-6 6.5-6.5 6.6-.3 0-.6-.2-1-.6l-.5-1c.3-4.6 5-15.5 14-32.5l11.7-21.3c-4.4 1.2-7.8 2.2-10 3-.4 0-.8-.2-1.4-1-.6-.7-1-1.4-.8-2.2 0-.8 5-2.7 14.4-5.7.6 0 1.2-.3 1.8-.5l2-2.7c.6-.5 1.4-.7 2.6-1 .3 0 .7.3 1.3.8.3.3.5.6.6 1 4.7-1.6 9.5-3 14-4.2l6.7-1.8c.7-1 1-1.5 1.3-1.7.5-.5 1.3-.8 2.5-1 .6 0 1 .4 1.7 1 6-1.6 9.3-2.3 9.6-2 0 0 .2.3 0 .6 0 1-.2 2.2-.7 3.6-.5 1.6-1 2.5-1.5 2.6l-10.4 2c-4.3 7-8.2 13.7-11.5 20l-9 17c-4.2 8-6.3 12.8-6.3 14.6 0 .7.4 1 1.3.7 1.7-.4 4.4-2 8.2-5.2.3-1.3 1-3 1.7-4.8 1.5-3.6 3.2-6.7 5-9.3 2-2.6 3.8-5 5.8-6.8 2.2-2.2 4.3-3.7 6.3-4.4h.6c.2 0 .2 0 .3-.2.3-.2.7-.2 1.2.2 1.3 1 2 2.2 2 3.8.3 2.6-.5 6-2.4 10.2 1.4-.2 2.7-.8 4-1.8l1-2c1.8-3.4 3.2-6.5 4.2-9.4.4-1.5 1-2.3 1.5-2.4.8-.2 1.6 0 2.4.8.8.7 1.2 1.3 1 2l-2 4.7-5.7 10.5c2.5-2.4 6.6-7 12.3-13.6 1-1 2.8-3.4 5.5-6.7 1.6-2 2.5-3 3-3 .6-.2 1.4.2 2 1 .8.3 1 1.2 1 2.8 0 .3-1 1.5-2.5 3.6-1 1.3-2.4 3.8-4.5 7.7-1.7 3.2-2.7 5.6-3 7.4-.4 1.5-.4 2.3 0 2.6h.6c2-.4 5.4-4.5 10.5-12 .6-.7 1-1.2 1.6-1.3.6 0 1 .2 1 1 0 .6-.4 1.3-1 2zm-52.3-9.6c3.4-6.4 6.7-12.4 10-18h-.4l-19.6 5.3c-3 5-7.5 12.7-13.6 23.4-3.4 6-7.6 14.2-13 24.7 2.5-2 6.7-6.7 13-13.8l5.4-6.8c1.5-1.8 2.4-2.8 2.8-3 .7 0 1.5.2 2.2 1 .7.3 1 1.2.8 2.8 0 .3-.8 1.5-2.4 3.6-1 1.2-2.4 3.7-4.5 7.7-1.6 3-2.6 5.5-3 7.2-.4 1.4-.3 2.3 0 2.5h.6c1.6-.3 4.8-4.2 9.6-11.6l.6-.8c2.2-5.7 6-13.7 11.6-24zm7.4 18.6l-2.4 5.2v.3c0 .4-.2 1-.7 1.5-.4 1-.7 2-.8 3-.2.8 0 1.3.5 1.6l2-1c1.5-1 4-4.2 7.4-9.3l.5-1c-1-1-1.2-2.8-1-5.4.2-1.4.6-3 1.3-5-3 3.5-5.3 6.8-7 10zm11.7-13.3c-.2 0-.2-.2-.3-.2h-.2-.2l-.2.2c-.7.8-1.3 2.7-1.6 5.5-.2 1.8-.2 3.2.2 4 1-1.5 1.5-3 2-4.3.6-2.8.8-4.5.3-5.2zm-71 44c-10 18.3-16.3 28.5-18.8 30.6-2.2 2-3.8 2.6-4.8 2-2.5-1-3.5-5.6-3.3-13.7 0-1.4 0-2.6.2-3.6 0-1.3.5-2 1-2.2 1-.2 1.3.4 1.3 1.7 0 1.8 0 4 .4 6.6.5 3.3 1.2 5 2.2 5.3 1.2.2 7-9 17.2-27.8-1.4 1-2.3 1.7-3 2h-1.7c-.7-.2-1.5-.6-2.7-1.3-.3-.3-.7-.8-1-1.8-.4-1-.6-1.7-.5-2.2.2-1.5.8-3.6 2-6.3 1.5-3.5 3.2-6.7 5-9.3 2-2.6 3.8-4.8 5.7-6.7 2.3-2.2 4.4-3.7 6.3-4.4h.7l.2-.2c.3 0 .7 0 1 .3 1 .6 1.5 1.6 2 3l1.8-3.4c.5-.6 1.4-1 2.7-1 .2 0 .5.2.8.7.4.6.5 1.2.3 1.8-.4 2-5.5 12-15.2 29.6zm6.8-27.3s-.3-.2-.5 0h-.2l-1 .5c-.7.3-1.3 1-2 1.6-3.3 3.7-6 7.4-8 11.3-2.2 4.3-3.5 7.7-3.8 10-.2.8 0 1.3.5 1.6.2 0 .8 0 2-.8 1.6-1.2 4-4.3 7.4-9.3 3-4.5 4.7-7.7 5.3-9.6.7-3 .8-4.6.3-5.3zm-10-6c-1 1.3-2 2-2.7 2.2-1.2.2-1.7-.7-1.7-2.8 0-2 .5-3.5 1.5-4.8 1.3-1.7 3-2.8 4.6-3.2.4 0 .6-.2.8 0 .6 0 .8.7.8 2s-.3 2.4-.8 3.5c-.4.8-1.2 1.8-2.4 3zm-13.7 28c-.8 1.5-1.2 3.2-1.3 5-.2 2.2-.7 3.5-1.7 3.8-1.4.3-2-1-2-4.3V267c-1.3 1.6-2.5 3-3.4 3.8-3.3 3.3-5.6 5-7 5.5-.6.2-1.4 0-2.3-.6-.8-.4-1.2-.8-1.5-1-.2-.6-.3-2-.2-4 .2-2 1-4.3 2.6-7 .6-1.3 2.5-4 5.6-8.6-.5-.5-1-1-1.2-1l-1.4-1.3-4.8 7-13 19.2c-.2 0-.8-.4-1.7-1-.7-.6-1-1.2-1-2l2.3-3.2 10.8-14.5 5.5-7.5c0-1.7.5-3.4 1.4-5 .8-1.6 2.5-3.6 4.8-6 1.5-1.5 2.7-2.4 3.4-2.7.2 0 .5.2.7.5.2.4.3.8.2 1.4-.2 1.4-1 3.2-2.4 5.2-1 1.7-2.3 3.3-3.5 5 .7.8 1.4 1.3 1.8 1.7 2 1.4 3 2.7 3 4 0 1-1 2.5-2.5 4.8l-3.6 5c-2 3-3 5-3 6 0 .6.4.8 1 .6.8-.2 3.5-2.5 8-7l3-3.2c1-2.8 2.4-6 4.2-9.3 2-4.2 3.6-6.5 4.4-6.7 1.7-.7 2.7-.4 3.2 1 .2.6-.8 3-3 7l-5.4 10.3zm-18.4-27c-5.2 5.5-11.5 10-18.7 14 5 1 7.3 4.2 7.2 9.3 0 1.6-.3 3-.7 4.7-1 4-2.8 7.6-5 11-4 6-9.5 12-17 17.2-7 5-14 8.5-20.7 10.2-7 1.8-10.7 2.7-11 2.6-.6-.3-1-1-1-2 0-.2.3-1 1-2 .5-1 1-1.5 1.4-1.6l1.3-.2c2.4-.3 4.5-.7 6.4-1.3l2-.5c-.4-1.2-.6-2.7-.5-4.6 0-2.7 5.7-14.7 17.2-36l-2 .4c-1.8.5-2.7 0-2.7-1.6 0-.4.3-1 1-2 .5-1 1-1.6 1.4-1.7.5-.2 1.4-.4 2.6-.5l2.7-.5 23.2-42.6-2.8 1.5-2.7 1.2c-1.6.4-2.3-.4-2.2-2.4 0-1.4.7-2.4 2-3 .2-.2 1.5-.5 3.7-1l4.6-1.4c.2-.3.3-.7.3-1 0-.5.2-1 .7-1.3.4-.5.8-.8 1.2-1 .7 0 1.5.6 2.3 2.2 5-1 8.8-.7 12 .6 3.6 1.6 5.4 4.6 5.3 9 0 1.4-.3 3-.7 4.5-1.8 7-5.7 13.6-11.8 19.8zM764 256c-3.3 6.4-9 18-17 34.5-.5 1.5-1.5 3.8-2.8 6.8 8-2.6 14.7-6.4 20.6-11.4 6.8-5.8 11.2-12.3 13.3-19.6.7-1.8 1-3.3 1-4.7 0-6-4.7-8-14.7-5.8h-.3zm26-48.6c-7.2 13-15 27.2-23 42.8 8-2.5 15-6.3 21.3-11.4 7-5.8 11.8-12.5 14-20 .4-1.8.6-3.2.7-4.5 0-6.2-4.2-8.5-13-7z"/>
      </g>
      <path id="Shape" fill="#605C87" d="M1590.7 273.8c15.6-2 20-7 20-7-3.8-9.6-4.2-17.6-5.5-26.2 0 0 13.6-6 22.6 4-1.7 14.5-3 22.4-4 29.5 0 0-.5 3.8-7.3 3.3l-2-1.4-3 1s-9 4.2-22-2c0 0-.7-1 1.2-1.2z"/>
      <path id="Shape" fill="#4F3224" d="M1742 215.4s-57.7 61.8-100 72.4c0 0-10.2-1-5.3-7.3 0 0 26.2-5 94.7-66.6l10.5 1.4z"/>
      <path id="Shape" fill="#4F3224" d="M1645.4 223.8s46.5 55 87.8 68.8c0 0 10.3-.2 6-6.8 0 0-19.6 4-83.2-62.8l-10.6.8z"/>
      <path id="Shape" fill="#8F6049" d="M1575.2 229s58 66.2 99.5 80c0 0 10.3-.2 6-7 0 0-31.4-7-95-73.8l-10.5.8z"/>
      <path id="Shape" fill="#8F6049" d="M1686 224.5s-59.3 65-101 78c0 0-10.2-.3-5.7-7 0 0 31.4-6.4 96.2-72l10.5 1z"/>
      <path id="Shape" fill="#262340" d="M1571.2 274.8c-3.2-12-17.2-61-2.8-70.3 4.2-2.8 18-3.5 17.4 4.8-.5 8.4 3.3 53.3 2.8 61.3s-16.6 7.4-17.4 4.2z"/>
      <path id="path-1" fill="#F6EBEB" d="M1611 239l39-2-5.4 11-33.5-9z"/>
      <g id="Clipped" transform="translate(1562.617 214.61)">
        <mask id="mask-4" fill="#fff">
          <use xlink:href="#path-3"/>
        </mask>
        <path id="Shape" fill="#BC7631" d="M139.6 30.6C90.8 23.3 58.8 3 58.8 3S62-16.6 72.6-1C83 14.7 142 25 142 25s46.3 13.2-2.4 5.8zm-22.8-4s46.4 13.2-2.4 6c-48.8-7.5-80.7-28-80.7-28S37-14.6 47.4 1c10.5 15.5 69.4 25.7 69.4 25.7zm.8 11.3C161.3 40.5 31 44 31 44L-16.3 14 8.5 6.6S74 35 117.5 38z" mask="url(#mask-4)"/>
      </g>
      <path id="path-3" fill="#DEC198" d="M1727.7 106c-13.6 6.8-5 18-7 25.8-2.7-1.3-14.5-6.5-20.5-7.5 3.2-2.6 6.8-7.7 3.7-10-3.3-2-12.3-1.8-11.8-6.7.2-2.4.2-4.8.3-7.6-2.3-1-4-2.7-4-4 1.3.2 3.3-2 5.3-4.6l.6-2c2.4-7.7 7-14.3 19.2-14.6 12.2-.3 27.7 24.4 14 31.2z"/>
      <g id="Clipped" transform="translate(1687.889 74.373)">
        <mask id="mask-6" fill="#fff">
          <use xlink:href="#path-5"/>
        </mask>
        <path id="Shape" fill="#B08E5F" d="M-.4 21.7c2.6.3 7.3 2 7.7 3 .4.7-3.2 1.2-4 1.2-1 0 .2 8 2.6 8 2.3 0 3.4 2.4 5.8 2 9.6-1 4 15.6 1.6 16.6C11 53.6 1 38.4 1 38.4s-3.3-8-3.6-8c-.3-.2 0-13.5 0-13.5l7.8-8.3s3 5 5.2 5c2 0-.5.8-3.2.6C4.4 14 1.4 18 1.4 18S-3 21.4-.4 21.6z" mask="url(#mask-6)"/>
      </g>
      <path id="Shape" fill="#A54C31" d="M1727.4 108.3c-4 3.3-3 8.5-3 8.5-8.6-4.6-6.4-16.2-5.8-18.6v-.5.5c-.8 2.3-5 3.8-5 3.8 2-4.7 3-7.6-1-10.8-2.2-2-5-6.2-7-9.7 0 4 1.3 7.3 1.3 7.3-4.4-3.4-4.4-7.7-3.5-11.2l-.4-1c-4.5 0-5.6 9.5-5.6 9.5-4.7-12.2 6.4-15 6.4-15-3.4-4.4-11-.7-11-.7 8.8-7.7 14.3-1.2 14.3-1.2 14-1.4 22.7 3 26.5 12.4 9 21.7-6 27-6 27z"/>
      <path id="Shape" fill="#80260B" d="M1720 113c.8-3.8 2.5-7.5 6-9.4 3.5-1.8 7.3-6 8.2-12.5.7.6 2 1.3 2.2 2.2.3 7-3.7 12.6-8.2 15-.5 0-4.7 2-4 8.6-1-.3-2.7-1.6-4-3.8z"/>
      <path id="Shape" fill="#A54C31" d="M1730.3 83c0 2.4-1.3 6 1.2 6.4 2.6.3 6 4 8 10 2.2 6 3.8 10 8.2 9.2 0 0-2.3-2.7-.4-6.3 2-3.6 12-14 1-26.8-11-12.7-18 4.7-18 7.5z"/>
      <path id="Shape" fill="#80260B" d="M1741 86.3c2.5 4 0 13 5.5 18.6 0 0 0 1 1.2 3.7-8 .7-6.4-13-13.7-17.3-2-1-7.4-2.8-4.8-6 2.6-3 9.2-3.7 12 1z"/>
      <path id="Shape" fill="#262340" d="M1652.2 210.5c-19-.2-25.6 10.7-26.2 16-.6 5.4 2.3 27.4 55.3 15.3 53-12-10.2-31-29-31.3z"/>
      <path id="Shape" fill="#262340" d="M1641.3 209.7c-21.7.3-41.3-4.7-57-4.5-6.2 0-11 16.5-3.3 21.2 7.6 4.7 44 21.6 70 14.8 26-6.8 12-31.8-9.7-31.5z"/>
      <path id="Shape" fill="#161429" d="M1574.3 204c4.4 2-7.3 13.8-7.3 13.8s4 1 11-2.2c7-3 8.8-3 15.2-2 6.4.7 17.6 4.5 27.7 5 10 .4 28.2 5 40-5 11.7-10.2-6-11-6-11l-57.4 7.2-13.8-6.5s-14-1.3-9.5.7z"/>
      <path id="path-7" fill="#8681AE" d="M1552.2 291.6c16.4-2.8 20.2-12.5 20.2-12.5-4.4-9.8-5.8-19-7.4-28 0 0 14.8-7 24.6 3.2-1.3 15.6-1.7 29-2.6 36.6 0 0-.4 4-7.6 3.6l-2.2-1.4-3 1.4s-9.2 4.6-23.2-1.4c0 0-.7-1 1.2-1.4z"/>
      <g id="Clipped" transform="translate(1550 247.871)">
        <mask id="mask-8" fill="#fff">
          <use xlink:href="#path-7"/>
        </mask>
        <path id="Shape" fill="#565183" d="M44 10.2l-5 43.6-42.3-3S-5.7 47-1 45.2c11-4.4 31-26.6 30.8-38.7 0-12 14.2 4 14.2 4z" mask="url(#mask-8)"/>
      </g>
      <ellipse id="path-5" cx="1721.6" cy="96.6" fill="#FFF" opacity=".3" rx="45.1" ry="45"/>
      <g id="Clipped-Copy" transform="translate(1676.55 51)">
        <mask id="mask-10" fill="#fff">
          <use xlink:href="#path-9"/>
        </mask>
        <path id="Shape" fill="#D4C5C5" fill-opacity=".4" d="M-3.5 76C-94 102.4 159 79 159 79L66-17S87 49.7-3.5 76z" mask="url(#mask-10)"/>
      </g>
      <path id="Shape" fill="#262340" d="M1655.8 223.6c1.4-13.3 12.5-55.2 16.8-64.7 4.2-9.6-2.2-23 13-27 15.3-4 36-12.3 51.7-5 15.8 7 1 30.5-7.3 37-8.2 6.5-24.7 62.5-24.7 62.5s-51 10.4-49.5-3z"/>
      <path id="Shape" fill="#3E3A60" d="M1684.8 169.6l-2.7.8c.5 1 .7 1.7.7 2.4 0 4.3-9.2 31.5-16 33.5-5 1.3-37 12.3-59.6 7.3-5-.4-4.4-5-.7-6.2 0 0 32.8-12 47-13.6 0 0 8.2-27.2 13.6-31-5-14 5.2-29.7 16.2-25 12.4 5.5 8.6 30 1.6 31.8z"/>
      <path id="Shape" fill="#1C1741" d="M1670.4 164.7c-.2 4-4 1-5 .8-1-.3 0 4.3 4.2 6.5s-2 19.3-8 19.6c-6 .4 2 8.5-4.3 8-6.5-.5-11 10.8-24.8 11.7-8.6.5-14.2 0-18.5-.2-2.4-.2-10.3 2.6-1 3.6 1.8.2 3.8.3 6.3.3 7.6 0 18.2-.6 32.5-4.5 14.4-4 14.3-2.5 15.4-2 2.8-4.6 9.7-35.3 9.7-35.3l5-35.2c-.4-1.3-2.4-1.6-3-1-2.8 4.7-8.5 23.8-8.6 27.7z"/>
      <path id="path-11" fill="#FFF" d="M1683 128c-11.5 52.4-31.8 110.5-41.4 121.4-3.8 6.2 45.6 6 85.4-9.4 7.8-3.2 43-84 42-116.6-.5-5-63.8-7.8-86 4.5z"/>
      <path id="path-11" fill="#F6EBEB" d="M1683 128c-11.5 52.4-31.8 110.5-41.4 121.4-3.8 6.2 45.6 6 85.4-9.4 7.8-3.2 43-84 42-116.6-.5-5-63.8-7.8-86 4.5z"/>
      <g id="Clipped" transform="translate(1641.025 118.422)">
        <mask id="mask-12" fill="#fff">
          <use xlink:href="#path-11"/>
        </mask>
        <path id="Shape" fill="#E79F58" d="M134 .6c-8 97-43.4 137.8-43.4 137.8s-61.2 38.7-23-1C106 98 119.3 4.5 119.3 4.5s23-101 14.8-3.8zm-72 143s-59.5 50.6-17.3 1C90.2 90.8 101-7.3 101-7.3S119.7-75 111.4 3.6C103 82.3 62 143.6 62 143.6zm-24-2.3s-49.4 41-15.5-2.4C60.5 90.5 75-5.5 75-5.5s23.4-84 9 12.4c-14.5 96.4-46 134.3-46 134.3zm-38 6c-45.4 42.6 2.7-65 2.7-65l43-83.4L56 3s-10.4 101.2-56 144z" mask="url(#mask-12)"/>
      </g>
      <path id="face1" fill="#DEC198" d="M1594.8 126.6c8.5-7.3-7.4-32.3-7.4-32.3l-15-2-11.8 9c-.5 1 .5 3 1 3l-8.5 6s2.6 3 4.6 3.7c.3 1-2 3.3-2.7 3.8 0 0-.5 3.8.5 4.6 0 0-5.4 5.6-3.7 8l6.5 2.4s6 21 6 16.8c-.2-3.7 14.6 1 18.5 2.4 0 0 1.5-12 12-25.4z"/>
      <g id="Clipped" transform="translate(1550.806 91.936)">
        <mask id="mask-14" fill="#fff">
          <use xlink:href="#path-13"/>
        </mask>
        <path id="Shape" fill="#B08E5F" d="M30.5 57.7h-19l-13-7.3-8-26L-.5 3 9.2 8l9 6-12-2-6.6 5.6 12 2.8-9.2 4.4-3.6 10 8.3 2.6c2.3.7 5 5.8 5.6 8.3.4 2.5 1 7 4 8.3 2.7 1.4 13.5 3.7 13.5 3.7z" mask="url(#mask-14)"/>
      </g>
      <path id="Shape" fill="#1D1A15" d="M1570 93c1.8-6 2-9.7 6-12 3.6-2.3 21.2 14.2 26.8 22.6 5.5 8.5-6.4 26.2-12.7 29.8-6.2 3.6-7.8-13.8-4.6-24 0 0-6-.3-6.7-4-.6-4-1-6.2-8.6-12.3z"/>
      <ellipse id="path-3" cx="1580.7" cy="118.8" fill="#FFF" opacity=".3" rx="45" ry="45.1"/>
      <g id="Clipped" transform="translate(1535.55 73)">
        <mask id="mask-16" fill="#fff">
          <use xlink:href="#path-15"/>
        </mask>
        <path id="Shape" fill="#D4C5C5" fill-opacity=".4" d="M-3.5 76C-94 102.4 159 79 159 79L66-17S87 49.7-3.5 76z" mask="url(#mask-16)"/>
      </g>
      <path id="Shape" fill="#605C87" d="M1483.3 304c14.5-5.8 17.6-11.7 17.6-11.7-6.2-8.3-8.6-16-12-24 0 0 11.6-9.3 23-2 1.8 14.8 2.5 22.7 3.3 30 0 0 .4 3.7-6.2 4.8l-2.3-.8-2.4 2s-7.6 6.2-21.8 3.4c0 0-1-.8.8-1.5z"/>
      <path id="Shape" fill="#4F3224" d="M1601.3 244.3s-57.3 62-99.5 72.6c0 0-10.2-1-5.3-7.4 0 0 26-5 94.4-67l10.3 1.7z"/>
      <path id="Shape" fill="#4F3224" d="M1505.2 252.6s46.3 55.3 87.5 69c0 0 10.3 0 6-6.7 0 0-19.6 3.8-83-63l-10.5.6z"/>
      <path id="Shape" fill="#8F6049" d="M1435 258s58 66.3 99.3 80c0 0 10.3 0 6-6.7 0 0-31.3-7.2-94.6-74.2l-10.6 1z"/>
      <path id="Shape" fill="#8F6049" d="M1545.6 253.4s-59 65.2-100.6 78.3c0 0-10.3-.4-5.7-7 0 0 31.3-6.5 95.8-72.3l10.6 1z"/>
      <path id="Shape" fill="#262340" d="M1424.2 270c-3.4-17.7-5.2-38.2 3.6-44 4.2-2.7 18-3.4 17.4 5-.4 5.2.8 25.2 1.5 41.2.5 9.3-20.3 9.3-22.5-2z"/>
      <path id="path-5" fill="#FFF" d="M1505.5 280s-56.4-19-67-26.8c5.6-.2 45.4 0 79.4-9.3l-12.5 36.3v-.4z"/>
      <g id="Clipped" transform="translate(1422.279 243.42)">
        <mask id="mask-18" fill="#fff">
          <use xlink:href="#path-17"/>
        </mask>
        <path id="Shape" fill="#2D7A6C" d="M139.5 30.8C91 23.4 59 2.8 59 2.8s3.2-19.3 13.7-3.7C83 14.8 142 25 142 25s46 13-2.5 5.8zm-22.7-4s46.2 13.2-2.4 5.8C65.8 25.3 34 4.8 34 4.8S37-14.7 47.5 1c10.5 15.6 69.2 25.8 69.2 25.8zm.8 11.2c43.5 2.7-86.4 6.4-86.4 6.4l-47-30.3L8.7 6.7S74 35.3 117.6 38z" mask="url(#mask-18)"/>
      </g>
      <path id="Shape" fill="#262340" d="M1484.5 253c-.4 4.2 1 17.5 22.7 20 5-9 26.3-37 5.8-37.3-20.6-.3-27.8 11.5-28.5 17.3z"/>
      <path id="Shape" fill="#262340" d="M1502.2 229c-23.6.2-44.8-5.2-62-5-6.6 0-11.8 18-3.5 23s47.7 23.5 76 16c28.2-7.3 13-34.4-10.5-34z"/>
      <path id="Shape" fill="#161429" d="M1432.4 241.2c7.6-3.4 9.7-3.3 16.6-2.4 7 1 19 5 30 5.5s30.7 5.4 43.4-5.5c12.8-11-6.3-11.8-6.3-11.8l-62.8 5.3-22-3.2s-1.5 6.5 1.2 12.2z"/>
      <path id="path-7" fill="#8681AE" d="M1408.5 314c17.7-3 21.8-13.6 21.8-13.6-4.7-10.8-6.2-20.8-8-30.7 0 0 16-7.5 26.7 3.6-1.5 17-2 31.6-2.8 39.8 0 0-.5 4.4-8.2 4l-2.4-1.5-3.2 1.6s-10 5-25.2-1.5c0 0-1-1.2 1.3-1.5z"/>
      <g id="Clipped" transform="translate(1407 266.864)">
        <mask id="mask-20" fill="#fff">
          <use xlink:href="#path-19"/>
        </mask>
        <path id="Shape" fill="#565183" d="M42 6.3s0 28-2.6 40L38 53.5l-29.6-2s-9-3-8-3c5.5 0 12.8-1.4 17.7-6.8 1.7-1 3.3 1.5 4 1.6 3 .4 5.7-5.2 4-10-1.5-5-9.5-31.6-8-38.8 1.6-8 24 11.7 24 11.7z" mask="url(#mask-20)"/>
      </g>
      <path id="Shape" fill="#262340" d="M1517 250c1.4-14.6 13.5-60 18-70.5 4.7-10.3-1.5-26.4 15-30.8 16.7-4.3 35.8-11.8 53-4 17 8 3.4 33.3-5.6 40.4-9 7-26.8 68-26.8 68s-55.2 11.3-53.7-3z"/>
      <path id="Shape" fill="#3E3A60" d="M1548.4 191.2l-3 .8c.4 1 .7 2 .7 2.6 0 4.7-10 34.3-17.4 36.4-5.3 1.5-40 13.5-64.5 8-5.6-.4-4.8-10.3-.8-11.5 0 0 31.7-14 47.2-15.6 0 0 9.5-25 15.4-29h.2c-4.8-15.2 8.7-31.5 20.6-26.3 13.4 5.8 9.3 32.4 1.8 34.5z"/>
      <path id="Shape" fill="#1C1741" d="M1532.7 186c0 4-4.4 1-5.5.7-1-.3.2 4.7 4.7 7 4.4 2.5-2.3 21-8.8 21.4-6.5.5 2.3 9.3-4.7 8.8-7-.6-12 11.7-27 12.6-6.7.5-11.8.4-16 0-4.6-.2-6.4 3.8-3.5 3.8 1 0 10.8.7 19.3-.6 8.5-1.2 20-3 30.3-6.4 2-4.3 15-39.8 15-39.8s5.6-31 7.5-37.3c-.4-.3-1-.4-1.8-.2-3.2 5-9.4 25.8-9.5 30z"/>
      <path id="path-9" fill="#8681AE" d="M1422.2 236.7c-2.6-2.4-1.4-6.5.7-8.7 2-2.3 5.6-4.3 9.4-6.4 3.8-2 6.7-1.5 9.5-.8 5.5 1.5 8.4 3.3 17.3 2.4 3.4-.4 11.4-1.4 15-.8 5.5 1 7.8 17.2-2.4 17.4-10.3.2-12.4-2.8-17.5-3-5-.5-12.6-5.8-15-5-6 2.4-6.5 0-9.4 0-3 .2-4.7-.8-4.7 1.7 0 1.7-1.4 4.7-3 3.2z"/>
      <g id="Clipped" transform="translate(1420.482 220.075)">
        <mask id="mask-22" fill="#fff">
          <use xlink:href="#path-21"/>
        </mask>
        <path id="Shape" fill="#565183" d="M1.7 17.4c.2-1.8 2.5-5.2 2.3-7 0-2 2.6.5 6.4 0C14 9.5 20.7 12 22.2 7.8c1.5-4.4 0 .5 1.6 2.3 1.4 1.7 7.7 2.3 11.8 3 4 1 12.2 6 15 1.7 2.8-4.2 9-4.5.8-15-8-10.6 8.7 1.6 8.7 1.6l4 27.6-34.7-.8S1.5 19 1.7 17.4z" mask="url(#mask-22)"/>
      </g>
      <path id="path-11" fill="#F6EBEB" d="M1542.6 156.5c-11.5 52.6-31.6 111-41.2 122-3.8 6 45.4 6 85-9.6 8-3.3 43-84.4 42-117-.5-5-63.7-7.8-85.8 4.5z"/>
      <g id="Clipped" transform="translate(1500.474 146.939)">
        <mask id="mask-24" fill="#fff">
          <use xlink:href="#path-23"/>
        </mask>
        <path id="Shape" fill="#4E988B" d="M134 .6C125.7 98 90.6 139 90.6 139s-56.4 38.6-18.2-1C110.7 98 119.2 4.3 119.2 4.3S142-96.6 134 .6zM62 144S3.8 195 46 145C91 91.2 95.8 3.2 95.8 3.2s23.8-78.4 15.6.5C103.2 82.7 62 144 62 144zM38.3 142s-49.3 41-15.5-2.4C60.5 91 69 10 69 10s29.4-99.5 15-3C69.6 103.8 38.2 142 38.2 142zM.4 147.6c-45.4 43 2.6-65 2.6-65L46-1l10 4.3S46 104.7.5 147.6z" mask="url(#mask-24)"/>
      </g>
    </g>
  </g>
</svg>
