<svg xmlns="http://www.w3.org/2000/svg" width="2500" height="1310" viewBox="0 0 2500 1310" xmlns:xlink="http://www.w3.org/1999/xlink"><defs><ellipse id="path-1" cx="88" cy="21.2" rx="87" ry="21.2"/><linearGradient id="linearGradient-3" x1=".2%" x2="98.2%" y1="50%" y2="50%"><stop stop-color="#FFF" stop-opacity="0" offset="0%"/><stop stop-color="#FFF" offset="52.2%"/><stop stop-color="#FFF" stop-opacity="0" offset="100%"/></linearGradient></defs><g id="Page-1" fill="none" fill-rule="evenodd"><g id="city" transform="translate(481 4)"><path id="path-1" fill="#383A3D" d="M555.4 574l1.4-1.6 95.6 36-1.4 1.8-95.6-36z"/><path id="path-2" fill="#383A3D" d="M468.4 579.2l1.5-1.8 196.6 36-1.4 2L468.4 579z"/><path id="path-3" fill="#383A3D" d="M385.5 581.2l1.4-1.8 279.6 44.2-1.4 1.8-279.7-44.2z"/><path id="path-4" fill="#FFF" d="M1109.7 588.8l6-18.3s.4-.8 1 0l-5 19.3-2-1z"/><path id="path-5" fill="#FFF" d="M1036 578l3.2-13.2s0-.6.7 0l-2.5 13.8-1.6-.5z"/><path id="path-6" fill="#FFF" d="M967 573l2.6-11.3s0-.5.5 0l-1.7 12-1.2-.6z"/><path id="path-7" fill="#FFF" d="M1179 609.3l9-17s.6-.7 1 .2l-8 18-2-1.2z"/><path id="path-8" fill="#FFF" d="M1286.8 688l20-37s1-1.6 2.2.5l-18.2 39.4-4-3z"/><path id="path-9" fill="#FFF" d="M1146.4 646.4l-13.3-30s-.5-1.6 1.4-1.3l15.8 30.3-3.8 1z"/><path id="path-10" fill="#565D6B" d="M481.5 565.5h143.7v9H481.5v-9z"/><path id="path-11" fill="#ADB0C6" d="M481.5 564.5h143.7v7H481.5v-7z"/><path id="path-12" fill="#616B7E" d="M930.4 565.4c0 56.5-71.3 91.4-159.3 91.4-88 0-159.2-35-159.2-91.4"/><path id="path-13" fill="#50596A" d="M897 585c2.3-7 44-24.6 26 9.4-25 47.6-84.8 56-128 61.8-43.3 5.8-103-9.6-117-15.2 26.8 0 189.8 6.6 219-56z"/><ellipse id="ellipse-1" cx="770.8" cy="573.6" fill="#3E4553" rx="159.8" ry="47.5"/><path id="path-14" fill="#595855" d="M657.3 559.2v-171h-3v171s1.3 1 3 0z"/><ellipse id="ellipse-2" cx="655.5" cy="384.4" fill="#393E33" rx="18.2" ry="4"/><path id="path-15" fill="#595855" d="M657.3 383.6V361h-3v22.6s1.3 1.3 3 0z"/><ellipse id="ellipse-3" cx="655.5" cy="414.8" fill="#393E33" rx="12.1" ry="3"/><path id="path-16" fill="#595855" d="M657.3 414V391h-3V414s1.3 1.2 3 0z"/><ellipse id="ellipse-4" cx="655.5" cy="422.9" fill="#393E33" rx="12.1" ry="3"/><path id="path-17" fill="#595855" d="M657.3 421.5v-3h-3v3s1.3.2 3 0z"/><path id="path-18" fill="#CACEDA" d="M926.6 571.6s178.6 6.4 246.8 37.4l5 5s-46.4-31.5-257.8-41.4l6-1z"/><path id="path-19" fill="#EFF1F6" d="M1089 672c56.2-7.5 277.5-77-173-103.2 0 0-1.8-.3 0 1.5 0 0 464 26 161.7 92.4l11.4 9.3z"/><path id="path-20" fill="#A2A8BA" d="M1123.3 663c15.7-4.4 34.5-12 40.5-14.8 6-3 22.4-11.7 29.5-21.2 0 19-75 48.2-75 48.2l5-12.2z"/><path id="path-21" fill="#FFF" fill-opacity=".2" stroke="#FFF" stroke-opacity=".8" d="M1101.2 667c56-7.6 255.8-82.4-181.2-97.2 0 0-2 2.7 0 4.5 0 0 441.6 18 167.7 85.4l13.5 7.2z"/><g id="left_walkway"><path id="path-22" fill="#FFF" d="M291.4 642.8l-13.6-40s-.7-2-2.2 0L287 645l4.4-2.2z"/><path id="path-23" fill="#FFF" d="M458.3 611.7l-5.2-20.5s0-1-1 0l3.8 21.4 2.5-1z"/><path id="path-24" fill="#FFF" d="M120.8 720.5L82 621s-2-4.7-5.7 0l33.3 105.6 11.2-6z"/><path id="path-25" fill="#A2A8BA" d="M145.6 956c-96.2-15.5-448-258 480.2-372.3 0 0 6.2-4 0 .6 0 0-1024.7 128.7 51.3 354L145.7 956z"/><path id="path-26" fill="#EFF1F6" d="M145.6 929.3c-96.2-15.4-448-232.7 480.2-347 0 0 6.2-.8 0 3.7 0 0-1092.6 113.4 173.4 369l-653.6-25.7z"/><path id="path-27" fill="#EFF1F6" fill-opacity=".2" stroke="#FFF" stroke-opacity=".8" d="M629.5 583.3s6.2-1 0 3.6c0 0-1184 99.4 242.2 372.2 0 0-550.4-17-661.5-8.3 0 0-585.6-292.5 419.3-367.7z"/></g><path id="path-28" fill="#EFF1F6" d="M1028.4 791.8c56-7.4 475-74.3 138-150 0 0-11 2.5-9 4.3 0 0 314.4 51.2-145 123l16 22.8z"/><path id="path-29" fill="#A2A8BA" d="M1025.3 797c2.6-4.3.7-4.3 5-10 34.7-3.6 241.7-42.3 265-76.8 2.3 34.5-257.5 85-270 86.8z"/><path id="path-30" fill="#EFF1F6" fill-opacity=".2" stroke="#FFF" stroke-opacity=".8" d="M1032.5 785.5c56-7.4 485-83.3 141-145 0 0-8 5.6-6 7.4 0 0 282.8 45.4-151 114.6l16 23z"/><ellipse id="ellipse-5" cx="770.8" cy="568.5" fill="#ADB0C6" rx="159.8" ry="47.5"/><path id="path-31" fill="#E5E6F3" d="M771 631c-98.8 0-179-28-179-62.2 0-34.4 80.2-62.2 179-62.2 99 0 179 27.8 179 62.2 0 34.3-80 62.2-179 62.2zm0-123c-97 0-176 27.4-176 59.3 0 31.8 79 57.6 176 57.6 97.3 0 176-26 176-57.7 0-32-78.7-59.2-176-59.2z"/><path id="path-32" fill="#E5E6F3" d="M771 643c-98.8 0-179-29.4-179-66 0-36.3 80.2-66 179-66 99 0 179 29.7 179 66 0 36.6-80 66-179 66zm0-130.3c-97 0-176 29-176 62.8s79 61.2 176 61.2c97.3 0 176-27.4 176-61.2 0-33.8-78.7-62.8-176-62.8z"/><ellipse id="ellipse-6" cx="770.8" cy="568.5" fill="#AAD675" stroke="#DFF1C8" rx="142.6" ry="38.4"/><ellipse id="ellipse-7" cx="816.4" cy="581.7" fill="#AAD675" fill-opacity="0" stroke="#546045" rx="120.4" ry="31.4"/><ellipse id="ellipse-8" cx="795.1" cy="568.5" fill="#AAD675" fill-opacity="0" stroke="#546045" rx="114.3" ry="30.3"/><ellipse id="ellipse-9" cx="770.8" cy="559.4" fill="#AAD675" fill-opacity="0" stroke="#546045" rx="90" ry="24.3"/><ellipse id="ellipse-10" cx="731.4" cy="575.6" fill="#AAD675" fill-opacity="0" stroke="#546045" rx="90" ry="24.3"/><ellipse id="ellipse-11" cx="770.8" cy="569.5" fill="#54575A" stroke="#DFF1C8" rx="32.4" ry="9.1"/><ellipse id="ellipse-12" cx="771.8" cy="568.5" fill="#FFF" rx="12.1" ry="3"/><ellipse id="ellipse-13" cx="734.4" cy="589.8" fill="#B7EEF4" rx="24.3" ry="6.1"/><ellipse id="ellipse-14" cx="774.9" cy="587.7" fill="#B7EEF4" rx="10.1" ry="3"/><path id="path-33" fill="#606955" d="M655 315.4c47.4 0 85.7 5 85.7 19 0 13.8-38.3 40.2-85.7 40.2-47.3 0-85.7-26.4-85.7-40.3 0-13.8 38.4-19 85.7-19z"/><path id="path-34" fill="#4F5844" d="M740 338.3c-9.5 6.8-28 13.4-38.4 13.4-11.8 10.7-27.8 18.3-55.4 22.5 19.7 1.8 68.8 0 94-36z"/><g id="ellipse-16-+-ellipse-17-Mask" transform="translate(566.51 312.591)"><mask id="mask-2" fill="#fff"><use xlink:href="#path-1"/></mask><use id="Mask" fill="#AAD675" xlink:href="#path-1"/><ellipse id="ellipse-16" cx="201.3" cy="-5.1" fill="#AAD675" fill-opacity="0" stroke="#546045" mask="url(#mask-2)" rx="117.3" ry="29.3"/><ellipse id="ellipse-17" cx="116.3" cy="23.3" fill="#AAD675" fill-opacity="0" stroke="#546045" mask="url(#mask-2)" rx="94.1" ry="18.2"/></g><g id="particles" fill="#FFF"><path id="particle1" d="M775.6 279.6l4 2.3-2.4 4-4-2.4 2.4-4z"/><path id="particle2" d="M758.3 360.3l4.3-1.6 1.6 4.3-4.3 1.6-1.7-4.3z"/><path id="particle3" d="M760.6 172.8l3 1.6-1.8 3-2.8-1.8 1.6-2.8z"/><path id="particle4" d="M772.8 130.3l2.8 1.6-1.6 2.8-3-1.7 1.8-2.7z"/><path id="particle5" d="M782.6 73.7L784 76l-2.3 1.3-1.4-2.3 2.3-1.3z"/><path id="particle6" d="M764.4 164.7l1.4 2.3-2.3 1.4-1.4-2.3 2.4-1.3z"/><path id="particle7" d="M773.6 252.7l.5 2.5-2 1-.7-2.7 2.3-.8z"/><path id="particle8" d="M763 310.3l.5 2.6-2.2.7-.6-2.5 2.2-1z"/><path id="particle9" d="M766 380l.5 2.7-2.2.8-.6-2.5 2.3-1z"/><path id="particle10" d="M778 359l.7 2.4-2.3 1-.5-2.7 2-.8z"/><path id="particle11" d="M783 268.3l.2 1.2-1.2.4-.3-1.3 1.2-.4z"/><path id="particle12" d="M763.2 212.2l.3 1-1.2.5-.3-1 1.2-.5z"/><path id="particle13" d="M772.3 204.6l.3 1-1.2.5-.3-1 1.3-.4z"/><path id="particle14" d="M778.4 137.8l.3 1.2-1.2.4-.3-1.2 1.2-.4z"/><path id="particle15" d="M763.2 77l.3 1.3-1.2.4-.3-1.2 1.2-.4z"/><path id="particle16" d="M781.4 54.4l.3 1-1.2.5-.3-1.2 1.2-.4z"/><path id="particle17" d="M775.3 45.3l.3 1-1.2.5-.3-1 1.3-.5z"/><path id="particle18" d="M760.2 151.5l.3 1-1.2.5-.4-1 1.2-.5z"/><path id="particle19" d="M760.2 273l.3 1-1.2.4-.4-1 1.2-.5z"/><path id="particle20" d="M775.3 398.8l.3 1.2-1.2.4-.3-1.2 1.3-.4z"/></g><path id="path-128" fill="#558021" fill-opacity=".4" d="M655 322.4c16.4 0 29.6 4 29.6 10.6 0 6.5-13.2 11.7-29.6 11.7-16.3 0-29.6-5.2-29.6-11.7 0-6.5 13.3-10.6 29.6-10.6z"/><path id="path-129" fill="#FFF" fill-opacity=".2" stroke="#FFF" d="M684.3 333c0 6.5-13.2 11.7-29.5 11.7-16.4 0-29.6-5.2-29.6-11.7 0-6.5 13.2-29.8 29.6-29.8 16.3 0 29.5 23.3 29.5 29.8z"/><path id="path-129-copy" fill="#FFF" fill-opacity=".3" d="M625 333c0-6.5 13.4-29.8 29.7-29.8 3.2 0 7 1.2 10 2.7-12 1.3-28.6 15.3-31 35.2 0 0-8.6-3.3-8.6-8.2z"/><path id="path-130" fill="#606955" d="M1058 647.7c36 0 65 8.5 65 19 0 10.4-29 34-65 34-36.2 0-65.4-23.6-65.4-34 0-10.5 29.2-19 65.3-19z"/><path id="path-131" fill="#4F5844" d="M1092.3 683c9-2.5 17-4.6 29-10.4-21 23.7-49.4 28-67.2 28 18-4 27.7-9.8 38.3-17.7z"/><ellipse id="ellipse-18" cx="1058.1" cy="665.6" fill="#AAD675" stroke="#DFF1C8" rx="65.8" ry="20.2"/><ellipse id="ellipse-19" cx="1045" cy="659.6" fill="#94BD63" rx="19.2" ry="6.1"/><ellipse id="ellipse-20" cx="1026.8" cy="668.7" fill="#94BD63" rx="12.1" ry="3"/><ellipse id="ellipse-21" cx="1095.6" cy="666.6" fill="#94BD63" rx="12.1" ry="3"/><ellipse id="ellipse-22" cx="1080.4" cy="673.7" fill="#94BD63" rx="8.1" ry="2"/><path id="path-132" fill="#4F4F4F" d="M1263.5 719c-.7 1-.6-.6-1-2-.7-2.6-1-5 0-5.3 3.3-.4 1.7 6.3 1 7.2zm-1.4-7.4c-1.3-.8-.2-3.8 1-2.8 1 1.2.5 3.6-1 2.8z"/><path id="path-133" fill="#4F4F4F" d="M1279.7 686c-.7 1-.6-.4-1-2-.7-2.4-1-5 0-5 3.2-.5 1.7 6.2 1 7zm-1.4-7.2c-1.4-.8-.3-3.8.7-2.8 1.2 1.2.7 3.6-.7 2.8z"/><path id="path-134" fill="#4F4F4F" d="M1273.8 674.5c-1-1 .6-3.7 1.4-2.5.8 1.5-.2 3.6-1.4 2.5zm.3.3c3.4.3.3 6.4-.6 7.2-1 .8-.4-.7-.5-2.2-.2-2.6.2-5 1-5z"/><path id="path-135" fill="#4F4F4F" d="M1102.3 584.3c-1-.6.4-2.2 1-1.4.7.7 0 2-1 1.3zm.2.2c2.5.2 0 3.7-.5 4-.7.6-.4-.3-.4-1.2 0-1.4.2-3 1-2.8z"/><path id="path-136" fill="#4F4F4F" d="M1098 583.3c-.8-.7.5-2.2 1-1.4.8.7 0 2-1 1.3zm.3 0c2.5.4 0 4-.5 4.3-.7.5-.4-.4-.4-1.3 0-1.5.2-3 1-3z"/><path id="path-137" fill="#4F4F4F" d="M562 587.3c-1-.6.4-2 1-1.4.6.7-.2 2-1 1.3zm.2.2c2.5.2 0 3.7-.6 4.2-.7.4-.3-.4-.4-1.3 0-1.5.3-3 1-3z"/><path id="path-138" fill="#4F4F4F" d="M467 602.5c-1-.6.3-2 1-1.4.5 1-.2 2.2-1 1.5zm0 .2c2.6.2.2 3.7-.5 4-.6.6-.3-.3-.3-1.2 0-1.4.2-3 1-2.8z"/><path id="path-139" fill="#4F4F4F" d="M475.8 605.8c-.4.7-.4-.2-.8-1-.7-1.3-1-2.8-.3-3 2.4-.8 1.6 3.4 1 4zm-1.4-4c-1-.3-.4-2.2.4-1.8 1 .5.7 2-.4 1.7z"/><path id="path-140" fill="#4F4F4F" d="M481.4 605c-.6.5-.4-.4-.7-1.3-.4-1.4-.4-3 .3-3 2.5-.3 1 3.6.4 4.2zm-.7-4.4c-1-.4 0-2.2.7-1.6.8.7.3 2-.7 1.6z"/><path id="path-141" fill="#4F4F4F" d="M400.4 619c-.5.7-.4-.2-.6-1-.4-1.5-.5-3 .3-3 2.6-.5 1 3.5.4 4zm-.6-4.2c-1-.5 0-2.2.7-1.6.8.6.3 2-.7 1.6z"/><path id="path-142" fill="#4F4F4F" d="M395 614.7c-1-.6.3-2.2 1-1.5.6.8 0 2-1 1.5zm.2 0c2.5.2.4 4-.3 4.3-.7.5-.4-.3-.5-1.2-.2-1.5 0-3 .7-3z"/><path id="path-143" fill="#4F4F4F" d="M1026.5 575.7c-1-.5.4-1.5 1-1 .6.6 0 1.4-1 1zm-.4 3c-.5.2-.2-.4-.2-1 0-1 .2-2 1-2 2.4.2 0 2.6-.7 3z"/><path id="path-144" fill="#4F4F4F" d="M1021 574.7c-1-.5.4-1.5 1-1 .7.6 0 1.4-1 1zm-.3 2.8c-.7.3-.4-.2-.4-.8 0-1 .2-2 1-2 2.4.2 0 2.5-.6 2.8z"/><path id="path-145" fill="#4F4F4F" d="M1007.2 576.5c-.7-.3-3-2.6-.5-2.8.7 0 1 1 1 2-.2.6.2 1-.5.8zm-.3-2.8c-1 .4-1.8-.5-1-1 .4-.5 1.8.5 1 1z"/><path id="path-146" fill="#565D6B" d="M916.8 755.4c62 0 112.2 14.6 112.2 32.6s-50.2 54-112.2 54-112.3-36-112.3-54 50.2-32.6 112.3-32.6z"/><path id="path-147" fill="#414856" d="M974 817.2c12-3 24-5.6 48.6-16.3-15.5 20.2-74 47.3-126.8 39 44.2-4.3 66.3-12.3 78-22.8z"/><ellipse id="ellipse-23" cx="916.5" cy="785" fill="#EFF1F6" rx="117.3" ry="37.4"/><path id="path-148" fill="#786B80" d="M916.8 752.4c62 0 112.2 14.6 112.2 32.6s-50.2 32.6-112.2 32.6-82-14.6-82-32.6 20-32.6 82-32.6z"/><path id="path-149" fill="#E8CC96" d="M690.7 541.6l38-42.6 36.3 42.6-36.4 13.5-38-13.4z"/><path id="path-150" fill="#C9B37E" d="M728.6 555l36.4-13.4-36.4-42.6v56z"/><path id="path-151" fill="#B7EEF4" d="M855.4 580.4c-24.4 5.3-14.3 10 0 8.8 15.8-1.5 52.7-12.2 44.7-26.5-1.6-3-12-13.5-28.8-13.7-16.8 0-12.3 6-6 6 6.2.2 45.3 13.3-9.8 25.4z"/><path id="path-152" fill="#1A353C" d="M878.8 561.2c-1 1 2.7 1.7 3 1.5 0 0 7.5-10.4 18.3-3 1 .5 1.6 0 0-1.5-1.5-1.5-9.5-8.8-21.2 3z"/><path id="path-153" fill="#1A353C" d="M868.2 574.8c1.8.3 11.2.4 13.7 9 .6.7 3.5-.2 3-1.4-.7-1.2-3.7-11.2-15.3-9-1.4.2-2.6 1.3-1.5 1.4z"/><path id="path-154" fill="#FFF" d="M771 0l3 569h-6l3-569z" opacity=".8"/><path id="path-155" fill="#3B383F" d="M853 479.2V449h-1.5L850 479s.5 1.3 3 0z"/><path id="path-156" fill="#3B383F" d="M856 483.8v-30.3h-1.5l-1.5 30.3s.6 1.2 3 0z"/><path id="path-157" fill="#403C37" d="M850 565.7V461l18 12.4 7 94-5 3-20-4.7z"/><path id="path-158" fill="#2F2B27" d="M875 567.7l-5.7-79.6-1.4-14.6 2 96.8 5-2.5z"/><path id="path-159" fill="#6B5D4C" d="M772.6 567.3l-9-97.2-13.8 18.4-12 79 6 3 28.8-3z"/><path id="path-160" fill="#514638" d="M754.4 493l9.4-22.6L773 567l-29.2 3.5 10.6-77.6z"/><path id="path-161" fill="#343844" d="M800 562.7l3-95.6 3 15.3 10.6 80.4-12 3-4.7-3z"/><path id="path-162" fill="#232731" d="M806 482.3l-3-15.2-3 95.7 4.5 3v-65.2l1.5-18.2z"/><path id="path-163" fill="#3A4737" d="M777.2 520.2l4.5-15.2 9 62.3h-18l4.5-47z"/><path id="path-164" fill="#665D6F" d="M822.7 488.4l6 15 3 79h-12l3-94z"/><path id="path-165" fill="#1F1C21" d="M677 512.6l1.5-21.2 3 19.7-4.5 1.6z"/><path id="path-166" fill="#1F1C21" d="M671 518.7l1.5-21.2 3 19.7-4.6 1.5z"/><path id="path-167" fill="#665D6F" d="M809 585.5l7.6-6v9h-12l4.4-3z"/><path id="path-168" fill="#665D6F" d="M763.5 591.5l9 6 3 3h-12v-9z"/><path id="path-169" fill="#2F352F" d="M836.3 564.2l13.7 7.6 3 3h-12l-4.7-10.6z"/><path id="path-170" fill="#3A4737" d="M665 502l19.6 9-7.6 50.2h-12V502z"/><path id="rect-1" fill="#665D6F" d="M655.5 542.2h7v23.3h-7z"/><path id="path-171" fill="#665D6F" d="M648.2 541.5l6-12.2v32h-7.5l1.5-19.8z"/><path id="path-172" fill="#2E2B31" d="M707.2 555c-9.4 0-21.5 11-26.4 19.6l-2.3-1.3s25.2-28.4 25.2-92.5h5.8c0 64 25.2 92.5 25.2 92.5s-.8.5-2.2 1c-4.7-8.3-16-19.2-25.3-19.2z"/><path id="path-174" fill="#2F352F" d="M637.6 568.8l6-21.3 1.5 24.3h-12l4.6-3z"/><path id="path-175" fill="#D0ECB7" d="M665 546c8.3 0 15 9 15 16.4 0 7.4-6.7 9.4-15 9.4-8.5 0-15.3-2-15.3-9.4 0-7.5 6.8-16.4 15.2-16.4z"/><path id="path-176" fill="#E7F2DC" d="M670.2 570.3c3.8 0 6.8 3.7 6.8 6.7s-3 4-6.8 4-6.8-1-6.8-4 3-6.7 6.8-6.7z"/><path id="path-177" fill="#E7F2DC" d="M655 576.4c2 0 3.8 2 3.8 3.8 0 1.8-1.7 2.2-3.8 2.2-2 0-3.8-.4-3.8-2.2 0-1.7 1.7-3.8 3.8-3.8z"/><path id="path-178" fill="#E7F2DC" d="M832.5 579.4c2 0 3.8 2 3.8 3.8 0 1.8-1.7 2.3-3.8 2.3-2 0-3.7-.5-3.7-2.3 0-1.7 1.6-3.8 3.7-3.8z"/><path id="path-179" fill="#E7F2DC" d="M817.4 585.5c2 0 3.8 2 3.8 3.8 0 1.8-1.7 2.2-3.8 2.2-2 0-3.8-.4-3.8-2.2 0-1.7 1.7-3.8 3.8-3.8z"/><path id="path-180" fill="#E7F2DC" d="M826.5 587c2 0 3.8 2 3.8 3.8 0 1.8-1.7 2.3-3.8 2.3-2 0-3.8-.4-3.8-2.2 0-1.7 1.7-3.8 3.8-3.8z"/><path id="path-181" fill="#E7F2DC" d="M680.8 582.4c3 0 5.3 3.2 5.3 5.8 0 2.6-2.3 3.3-5.2 3.3-3 0-5.3-.7-5.3-3.3 0-2.6 2.4-5.8 5.3-5.8z"/><path id="path-182" fill="#434850" d="M686 480.6c0 2.6 9.3 4.7 20.6 4.7s20.5-2 20.5-4.7v-6h-41v6z"/><path id="path-183" fill="#636871" d="M706.6 470c11.3 0 20.5 2 20.5 4.6 0 2.6-9 4.6-20.4 4.6-11.3 0-20.5-2-20.5-4.6 0-2.6 9.3-4.7 20.6-4.7z"/><path id="path-184" fill="#211D25" d="M709 474.7l-1.6-19.7h-1.6l-1.5 19.7s2 1 4.6 0z"/><ellipse id="ellipse-24" cx="707.1" cy="465.3" fill="#434850" rx="15.2" ry="3"/><ellipse id="ellipse-25" cx="707.1" cy="463.3" fill="#6D727B" rx="15.2" ry="3"/><path id="path-185" fill="#211D25" d="M709 463.8l-1.6-13.4h-1.6l-1.5 13.4s2 .7 4.6 0z"/><path id="path-186" fill="#3A4737" d="M838 518.7l7.4 10.6 1.6 30.4h-9v-41z"/><path id="path-187" fill="#3A4737" d="M827 466.8c17.3 0 .7 4.3.7 7.8 0 3.4 16.6 6.2-.8 6.2-17.5 0-31.6-2.8-31.6-6.2 0-3.5 14-7.8 31.5-7.8z"/><path id="path-188" fill="#5E6C5B" d="M827 465.6c17.3 0 .7 2.8.7 6.2 0 3.4 16.6 6.2-.8 6.2-17.5 0-31.6-2.8-31.6-6.2 0-3.4 14-6.2 31.5-6.2z"/><path id="path-189" fill="#211D25" d="M806 473.2l-1.5-19.7H803l-1.6 19.7s2 1 4.6 0z"/><path id="path-190" fill="#D2B6B6" d="M797 464c-10 0-.5-2-.5-4.5s-9.6-4.5.4-4.5 18 2 18 4.5-8 4.6-18 4.6z"/><path id="path-191" fill="#171717" d="M809 458l-1.5-15.2H806l-1.5 15.2s2 1.2 4.5 0z"/><path id="path-192" fill="#171717" d="M803 458l-1.6-27.3H800l-1.6 27.3s2 1.2 4.6 0z"/><path id="rect-2" fill="#DCD4B2" d="M824.5 552.3h1v3h-1z"/><path id="rect-3" fill="#DCD4B2" d="M825.5 538.2h1v3h-1z"/><path id="rect-4" fill="#DCD4B2" d="M826.5 531h1v3h-1z"/><path id="rect-5" fill="#DCD4B2" d="M842.7 535h1v3h-1z"/><path id="rect-6" fill="#DCD4B2" d="M842.7 551.3h1v3h-1z"/><path id="rect-7" fill="#DCD4B2" d="M840.6 544.2h1v3h-1z"/><path id="rect-8" fill="#DCD4B2" d="M856.8 530h1v3h-1z"/><path id="rect-9" fill="#DCD4B2" d="M863 501.8h1v3h-1z"/><path id="rect-10" fill="#DCD4B2" d="M854.8 491.6h1v3h-1z"/><path id="rect-11" fill="#DCD4B2" d="M863 476.5h1v3h-1z"/><path id="rect-12" fill="#DCD4B2" d="M862 485.6h1v3h-1z"/><path id="rect-13" fill="#DCD4B2" d="M858.8 485.6h1v3h-1z"/><path id="rect-14" fill="#DCD4B2" d="M857.8 504.8h1v3h-1z"/><path id="rect-15" fill="#DCD4B2" d="M865 536.2h1v3h-1z"/><path id="rect-16" fill="#DCD4B2" d="M865 513h1v3h-1z"/><path id="rect-17" fill="#DCD4B2" d="M853.8 559.4h1v3h-1z"/><path id="rect-18" fill="#DCD4B2" d="M857.8 546.3h1v3h-1z"/><path id="rect-19" fill="#DCD4B2" d="M864 550.3h1v3h-1z"/><path id="rect-20" fill="#DCD4B2" d="M860 522h1v3h-1z"/><path id="rect-21" fill="#DCD4B2" d="M855.8 519h1v3h-1z"/><path id="rect-22" fill="#DCD4B2" d="M823.4 504.8h1v3h-1z"/><path id="rect-23" fill="#DCD4B2" d="M802.2 555.4h1v3h-1z"/><path id="rect-24" fill="#DCD4B2" d="M785 559.4h1v3h-1z"/><path id="rect-25" fill="#DCD4B2" d="M744.5 539.2h1v3h-1z"/><path id="rect-26" fill="#DCD4B2" d="M742.5 554.4h1v3h-1z"/><path id="rect-27" fill="#DCD4B2" d="M678.8 513h1v3h-1z"/><path id="rect-28" fill="#DCD4B2" d="M673.7 523h1v3h-1z"/><path id="rect-29" fill="#DCD4B2" d="M676.8 531h1v3h-1z"/><path id="rect-30" fill="#DCD4B2" d="M690 478.5h1v3h-1z"/><path id="rect-31" fill="#DCD4B2" d="M695 480.5h1v3h-1z"/><path id="rect-32" fill="#DCD4B2" d="M716.2 479.5h1v3h-1z"/><path id="rect-33" fill="#DCD4B2" d="M723.3 478.5h1v3h-1z"/><path id="rect-34" fill="#DCD4B2" d="M718.2 479.5h1v3h-1z"/><path id="rect-35" fill="#DCD4B2" d="M827.5 568.5h1v3h-1z"/><path id="rect-36" fill="#DCD4B2" d="M810.3 555.4h1v3h-1z"/><path id="rect-37" fill="#DCD4B2" d="M807.3 547.3h1v3h-1z"/><path id="rect-38" fill="#DCD4B2" d="M807.3 529h1v3h-1z"/><path id="rect-39" fill="#DCD4B2" d="M805.2 517h1v3h-1z"/><path id="rect-40" fill="#DCD4B2" d="M782 544.2h1v3h-1z"/><path id="rect-41" fill="#DCD4B2" d="M779 555.4h1v3h-1z"/><path id="rect-42" fill="#DCD4B2" d="M755.7 561.4h1v3h-1z"/><path id="rect-43" fill="#DCD4B2" d="M752.6 545.3h1v3h-1z"/><path id="rect-44" fill="#DCD4B2" d="M751.6 552.3h1v3h-1z"/><path id="rect-45" fill="#DCD4B2" d="M763.8 550.3h1v3h-1z"/><path id="rect-46" fill="#DCD4B2" d="M759.7 557.4h1v3h-1z"/><path id="rect-47" fill="#DCD4B2" d="M759.7 540.2h1v3h-1z"/><path id="rect-48" fill="#DCD4B2" d="M763.8 540.2h1v3h-1z"/><path id="rect-49" fill="#DCD4B2" d="M754.7 526h1v3h-1z"/><path id="rect-50" fill="#DCD4B2" d="M759.7 520h1v3h-1z"/><path id="rect-51" fill="#DCD4B2" d="M761.7 516h1v3h-1z"/><path id="rect-52" fill="#DCD4B2" d="M760.7 497.7h1v3h-1z"/><path id="rect-53" fill="#DCD4B2" d="M758.7 498.7h1v3h-1z"/><path id="rect-54" fill="#DCD4B2" d="M760.7 488.6h1v3h-1z"/><g id="dome"><path id="path-193" fill="#E2F7FF" fill-opacity=".2" stroke="#FFF" stroke-opacity=".8" d="M771 615.6c-88 0-159.2-21-159.2-47 0-1.7.3-3.4.8-5-.8-66.6 70.5-150 158.5-150s159.4 83.4 159.4 150v5c0 26-71.3 47-159.3 47zm0-188.6c7.7 0 14-1.8 14-4s-6.3-4-14-4-14 1.8-14 4 6.3 4 14 4z"/><path id="path-194" fill="#6C605F" d="M930 570c1-53-31.5-94-61.5-119.7-42.7 72.7-67.2 124-239.3 140 31.6 42.3 299.6 32.6 300.7-20.4z" opacity=".1"/><path id="path-195" fill="#FFF" d="M694.6 610.4c-43.2-7.4-86.4-22-83.5-45 2-14.5 4-51 32.6-85.4 28.6-34.2 67.6-62 115.6-66-14.2 4-142.5 18-64.6 196.4z" opacity=".2"/></g><path id="path-196" fill="#EFF1F6" d="M1012.4 790.3c28.8-20.2-21-63.3-59.2-71.3-17.8 2.2-54.5 45-44 83.4 2 7.7 72.8 9 103.2-12z"/><path id="path-197" fill="#D5D9E3" d="M991.5 736c10 4.5 39.7 33 26.7 49-21.5 26.5-97.5 25.6-109.2 18 0 0 79.2 0 82.5-67z"/><path id="path-198" fill="#3A4348" d="M876.5 464.6c1.6 1.4 2.2 3.3 1.4 4.2-1 1-3 .6-4.5-.7-1.5-1.3-2.2-3.2-1.3-4 .8-1 2.7-.7 4.3.6z" opacity=".5"/><path id="path-199" fill="#E9F0F5" d="M874.3 421.4c1 0 1.8.7 1.8 1.6v41c0 1-.7 1.6-1.7 1.6s-1.8-.7-1.8-1.7v-41c0-1 .8-1.6 1.8-1.6z"/><path id="path-200" fill="#E9F0F5" d="M872.5 415l1.8-16.2L876 415h-3.5z"/><path id="path-201" fill="#3A4348" d="M895.2 489c1.6 1.3 2.2 3 1.4 4-.8 1-2.7.7-4.3-.6-1.6-1.4-2.3-3.3-1.4-4.2.7-1 2.6-.7 4.2.7z" opacity=".5"/><path id="path-202" fill="#FFF" d="M874.3 414.2c13.4 0 24.3 3.2 24.3 7.2s-11 7.2-24.3 7.2c-13.4 0-24.3-3.2-24.3-7.2s11-7.2 24.3-7.2z"/><path id="path-203" fill="#FFF" d="M874.3 412.6c13.4 0 24.3 3.3 24.3 7.3s-11 7-24.3 7c-13.4 0-24.3-3-24.3-7s11-7.4 24.3-7.4z"/><path id="path-204" fill="#E9F0F5" d="M893.2 445.5c.6 0 1 .4 1 1V489c0 .5-.4 1-1 1-.5 0-1-.5-1-1v-42.6c0-.5.5-1 1-1z"/><path id="path-205" fill="#E9F0F5" d="M892.3 442.2l1-8.5 1 8.5h-2z"/><path id="path-206" fill="#FFF" d="M893.2 441.7c7.2 0 13 1.7 13 3.8 0 2-5.8 3.8-13 3.8-7 0-13-1.7-13-3.8 0-2 6-3.8 13-3.8z"/><path id="path-207" fill="#2F343F" d="M489.6 571.3l-18 7.3h-90.2l-17.2-7.3v4.5l21 12h84.2l20.2-11.5v-5z"/><path id="path-208" fill="#706075" d="M489.6 573.4l-18 7.3h-90.2l-17.2-7.3 5-11.7 18-7.3h90.3l17.2 7.7-5 11.4z"/><path id="path-209" fill="#565D6B" d="M565.5 570l-10 4.6H540l-10-4.5v3l12.2 6.6h11.4l12-6.3V570z"/><path id="path-210" fill="#EFF1F6" d="M565.5 571l-10 4.6H540l-10-4.5 3-8 10.2-4.6h15.4l10 4.8-3 8z"/><ellipse id="ellipse-26" cx="427.9" cy="568.5" fill="#2D313B" rx="23.3" ry="8.1"/><path id="path-211" fill="#EFF1F6" d="M427.4 549.3c12.6 0 22.8 12.5 22.8 16.7 0 4.2-10.2 7.6-22.8 7.6-12.6 0-22.8-3.4-22.8-7.6 0-4.2 10.2-16.7 22.8-16.7z"/><path id="path-212" fill="#647376" d="M276.2 835.6l-8 2h4l4 20.2-5-13-1 13-3-19-4.2 7 2-16.3 1-.3-1-6.8 5-2-.8 8h2l4 4 6-4-5 7.2z"/><path id="path-213" fill="#647376" d="M177 789l-2-10-1 7 2 11-3-9-3 9 1-11-1-6-2 8v-10l3-1v-5.2l4-1v4l-1 2h2l1 12.2z"/><path id="path-214" fill="#647376" d="M189.2 795l-4-5-3 6 1-10-1-1-1 6v-9h6l2 7-3-3 3 9zm-7-18l5 1-2 4-2-1-1-4z"/><path id="path-215" fill="#647376" d="M173 691l3 3-2 4v-4l-1-1v3l-3 2 1-3v-3l-.8-2-2.3 3 1.5-4.7-.6-1.4 1-1-2-3.2 3-2 1 3-1 2h2l2-1 1-2v2l-2 3-1 3z"/><path id="path-216" fill="#647376" d="M89 795l-1 7.2-1-7-1-5-1 8 2 14-4-10-5 11 2-15v-6l-1-1v11L76 789l5-2-2-6 5-2 1 5-1 3h3l2 8z"/><path id="path-217" fill="#647376" d="M215.5 841.6l-2 9.2-1-7v8l3 10-6-10-3 10 .8-10.2v.2-8l-1 1 1 6.6v.2l-3-8 4-4h4l3.2 2zm-3-10l1 7-4 1-2-6 5-2z"/><path id="path-218" fill="#647376" d="M136.6 716.2l-1 8v-7l-1 8 1 7.2-1 2v-4l-1-3-1 6-1 1v-8l-1-9.2v8l-1-9 3-1-1-5 4 1-1 4 2 1z"/><path id="path-219" fill="#647376" d="M120.4 712.2l4-2v5l-2 1 2 1 2 8-3-6v7l2 5.2-2 6v-6l-2-3-2 10v-19.2l-1 1v6l-2-7 4-3v-4z"/><path id="path-220" fill="#647376" d="M313.6 854.8l-5-8v3l2 15-4-10-4 11 3-16-1-4-2 10v-12l2-2.2h1l-1-5 4-4v7l-2 2h3l4 13.2z"/><path id="path-221" fill="#647376" d="M143.7 761.7l2 1 7 2-7 1v3l2 15.3-4-10-4 11 3-16.2-1-4-2 10v-12l2-2 1 .4-1-5.5 4-2 1 6-3 2z"/><path id="Rectangle-56-Copy" fill="url(#linearGradient-3)" d="M639 309s2.2-2.6 4-3.8c1.7-1.3 3-2.3 4.4-2.7 1.4-.4 3-1 4.7-1.2 2-.3 3.7 0 3.7 0v41s-6.6 1.2-10 1.5c-3.6.3-9-.5-9-.5L639 309z" opacity=".5" transform="rotate(17 646.234 322.544)"/></g></g></svg>