<?xml version="1.0" encoding="UTF-8" standalone="no"?>
<svg width="2394px" height="1248px" viewBox="0 0 2394 1248" version="1.1" xmlns="http://www.w3.org/2000/svg" xmlns:xlink="http://www.w3.org/1999/xlink" xmlns:sketch="http://www.bohemiancoding.com/sketch/ns">
    <!-- Generator: Sketch 3.3.2 (12043) - http://www.bohemiancoding.com/sketch -->
    <title>Group</title>
    <desc>Created with Sketch.</desc>
    <defs></defs>
    <g id="Page-1" stroke="none" stroke-width="1" fill="none" fill-rule="evenodd" sketch:type="MSPage">
        <g id="Group" sketch:type="MSLayerGroup" fill="#D59393">
            <path d="M1314.001,355.854 C1314.001,360.13 1313.825,364.364 1313.506,368.558 C1333.738,382.579 1347,405.959 1347,432.449 C1347,455.511 1336.946,476.21 1320.994,490.43 C1321.016,490.949 1321.034,491.469 1321.034,491.993 C1321.034,508.951 1309.486,523.207 1293.83,527.327 C1303.255,545.612 1308.592,566.35 1308.592,588.345 C1308.592,662.037 1248.89,721.776 1175.244,721.776 C1135.765,721.776 1100.299,704.603 1075.883,677.323 C1064.433,679.489 1052.623,680.636 1040.544,680.636 C1009.954,680.636 981.075,673.346 955.513,660.438 C941.271,681.135 917.438,694.711 890.426,694.711 C866.302,694.711 844.718,683.875 830.23,666.816 C793.368,701.878 743.522,723.4 688.647,723.4 C671.383,723.4 654.622,721.255 638.601,717.242 C622.979,735.263 599.945,746.676 574.233,746.676 C535.755,746.676 503.248,721.147 492.67,686.097 C460.98,698.298 426.562,704.996 390.576,704.996 C382.169,704.996 373.849,704.626 365.627,703.911 C337.625,773.709 269.373,823 189.608,823 C84.89,823 0,738.056 0,633.273 C0,583.645 19.051,538.475 50.224,504.665 C41.362,490.274 36.245,473.328 36.245,455.184 C36.245,434.942 42.617,416.195 53.451,400.821 C45.089,387.298 39.622,371.796 37.908,355.179 C23.605,335.746 15.147,311.741 15.147,285.755 C15.147,221.032 67.583,168.562 132.266,168.562 C146.61,168.562 160.35,171.148 173.052,175.87 C172.743,172.844 172.567,169.777 172.567,166.668 C172.567,116.593 213.136,76 263.179,76 C289.072,76 312.415,86.88 328.925,104.306 C338.485,98.052 349.901,94.404 362.175,94.404 C389.447,94.404 412.528,112.356 420.264,137.093 C434.47,138.568 448.363,141.095 461.869,144.583 C468.676,137.355 478.323,132.836 489.031,132.836 C494.769,132.836 500.202,134.135 505.059,136.449 C509.969,134.814 515.217,133.919 520.678,133.919 C548.015,133.919 570.176,156.095 570.176,183.448 C570.176,188.424 569.434,193.224 568.07,197.755 C570.119,199.393 572.152,201.05 574.154,202.743 C575.618,202.697 577.085,202.665 578.561,202.665 C608.39,202.665 635.972,212.278 658.396,228.567 C672.393,219.706 688.981,214.573 706.769,214.573 C733.744,214.573 757.956,226.375 774.555,245.091 C779.491,231.89 791.007,221.908 805.111,219.14 C813.925,210.301 826.112,204.831 839.576,204.831 C848.372,204.831 856.616,207.177 863.738,211.26 C882.005,202.624 902.421,197.794 923.966,197.794 C950.011,197.794 974.404,204.856 995.348,217.163 C999.662,208.108 1005.38,199.856 1012.204,192.668 C1013.301,169.473 1030.085,150.396 1052.175,145.806 C1052.187,122.497 1071.074,103.606 1094.37,103.606 C1104.661,103.606 1114.089,107.297 1121.412,113.423 C1132.309,108.512 1144.394,105.772 1157.122,105.772 C1191.545,105.772 1221.301,125.757 1235.442,154.763 C1292.4,164.93 1335.64,214.741 1335.64,274.659 C1335.64,300.665 1327.489,324.763 1313.611,344.546 C1313.864,348.283 1314.001,352.052 1314.001,355.854 L1314.001,355.854 Z" id="Shape" fill-opacity="0.6" sketch:type="MSShapeGroup"></path>
            <path d="M2218.809,472.731 C2276.749,472.731 2323.719,519.721 2323.719,577.685 C2323.719,600.176 2316.638,621.006 2304.597,638.087 C2313.89,653.113 2319.966,670.338 2321.871,688.801 C2337.767,710.392 2347.166,737.065 2347.166,765.938 C2347.166,837.854 2288.891,896.152 2217.005,896.152 C2201.063,896.152 2185.793,893.279 2171.677,888.032 C2172.021,891.395 2172.216,894.803 2172.216,898.257 C2172.216,953.896 2127.13,999 2071.514,999 C2042.737,999 2016.796,986.911 1998.446,967.548 C1987.822,974.497 1975.134,978.551 1961.493,978.551 C1931.185,978.551 1905.534,958.605 1896.936,931.12 C1881.147,929.482 1865.706,926.675 1850.693,922.801 C1843.129,930.829 1832.409,935.848 1820.511,935.848 C1814.135,935.848 1808.097,934.405 1802.699,931.834 C1797.242,933.651 1791.409,934.645 1785.34,934.645 C1754.959,934.645 1730.33,910.005 1730.33,879.612 C1730.33,874.092 1731.152,868.767 1732.663,863.74 C1730.378,861.912 1728.109,860.064 1725.876,858.175 C1724.26,858.226 1722.64,858.261 1721.011,858.261 C1687.86,858.261 1657.207,847.579 1632.286,829.48 C1616.73,839.325 1598.295,845.028 1578.526,845.028 C1548.548,845.028 1521.639,831.915 1503.192,811.12 C1497.707,825.788 1484.909,836.879 1469.234,839.955 C1459.439,849.777 1445.894,855.855 1430.93,855.855 C1421.154,855.855 1411.992,853.248 1404.077,848.711 C1383.776,858.307 1361.086,863.673 1337.142,863.673 C1317.597,863.673 1298.893,860.088 1281.637,853.556 C1270.646,860.183 1257.77,864 1244,864 C1203.683,864 1171,831.316 1171,791 C1171,790.378 1171.031,789.765 1171.047,789.147 C1143.204,784.414 1122,760.191 1122,731 C1122,730.467 1122.026,729.94 1122.04,729.411 C1082.838,711.902 1049.976,682.747 1027.869,646.324 C1012.92,671.996 985.112,689.254 953.273,689.254 C905.626,689.254 867,650.612 867,602.946 C867,577.319 878.173,554.313 895.901,538.508 C895.878,537.936 895.858,537.363 895.858,536.786 C895.858,517.942 908.692,502.102 926.091,497.524 C915.618,477.206 909.686,454.165 909.686,429.728 C909.686,347.848 976.036,281.471 1057.882,281.471 C1101.757,281.471 1141.173,300.551 1168.308,330.863 C1181.033,328.456 1194.158,327.181 1207.583,327.181 C1222.367,327.181 1236.792,328.714 1250.712,331.622 C1254.7,307.998 1275.242,290 1300,290 C1319.259,290 1335.964,300.895 1344.317,316.853 C1353.705,313.422 1363.841,311.543 1374.417,311.543 C1378.989,311.543 1383.48,311.894 1387.864,312.568 C1392.644,298.292 1406.115,288 1422,288 C1436.38,288 1448.786,296.434 1454.554,308.623 C1460.59,306.291 1467.142,305 1474,305 C1503.823,305 1528,329.176 1528,359 C1528,388.823 1503.823,413 1474,413 C1469.641,413 1465.407,412.469 1461.347,411.494 C1457.109,442.142 1437.07,467.737 1409.712,479.772 C1414.917,498.081 1417.704,517.409 1417.704,537.388 C1417.704,548.634 1416.811,559.67 1415.111,570.438 C1457.92,595.008 1488.017,639.195 1493.22,690.738 C1511.039,662.389 1542.58,643.543 1578.526,643.543 C1580.25,643.543 1581.963,643.587 1583.666,643.673 C1591.203,627.339 1601.557,612.574 1614.118,600.013 C1621.615,453.73 1728.438,333.7 1868.435,306.097 C1878.132,264.216 1915.67,233 1960.5,233 C1962.007,233 1963.505,233.039 1964.994,233.109 C1978.908,179.547 2027.584,140 2085.5,140 C2114.089,140 2140.422,149.643 2161.439,165.844 C2167.103,164.639 2172.977,164 2179,164 C2225.392,164 2263,201.609 2263,248 C2263,290.448 2231.513,325.536 2190.622,331.196 C2177.781,351.388 2159.298,367.641 2137.374,377.704 C2167.895,404.265 2193.281,436.579 2211.828,472.968 C2214.136,472.816 2216.462,472.731 2218.809,472.731 L2218.809,472.731 Z M1971.5,144 C1967.358,144 1964,140.642 1964,136.5 C1964,132.358 1967.358,129 1971.5,129 C1975.642,129 1979,132.358 1979,136.5 C1979,140.642 1975.642,144 1971.5,144 L1971.5,144 Z M1951.5,179 C1947.177,179 1943.272,177.227 1940.46,174.372 C1935.365,177.916 1929.177,180 1922.5,180 C1905.103,180 1891,165.897 1891,148.499 C1891,131.103 1905.103,117 1922.5,117 C1939.803,117 1953.841,130.952 1953.993,148.219 C1961.365,149.414 1967,155.79 1967,163.5 C1967,172.06 1960.06,179 1951.5,179 L1951.5,179 Z M1832,176 C1824.82,176 1819,170.179 1819,162.999 C1819,155.82 1824.82,150 1832,150 C1839.18,150 1845,155.82 1845,162.999 C1845,170.179 1839.18,176 1832,176 L1832,176 Z M976,188 C968.268,188 962,181.732 962,174 C962,166.268 968.268,160 976,160 C983.732,160 990,166.268 990,174 C990,181.732 983.732,188 976,188 L976,188 Z M936,183 C931.029,183 927,178.971 927,174 C927,169.029 931.029,165 936,165 C940.971,165 945,169.029 945,174 C945,178.971 940.971,183 936,183 L936,183 Z M530,481 C459.86,481 403,424.14 403,354 C403,353.469 403.014,352.942 403.02,352.413 C384.413,340.978 372,320.441 372,297 C372,261.101 401.101,232 437,232 C449.436,232 461.053,235.497 470.93,241.555 C488.577,232.265 508.672,227 530,227 C600.14,227 657,283.859 657,354 C657,424.14 600.14,481 530,481 L530,481 Z M463.5,206 C456.596,206 451,200.403 451,193.5 C451,186.596 456.596,181 463.5,181 C470.404,181 476,186.596 476,193.5 C476,200.403 470.404,206 463.5,206 L463.5,206 Z M384.5,19 C379.253,19 375,14.746 375,9.5 C375,4.253 379.253,0 384.5,0 C389.747,0 394,4.253 394,9.5 C394,14.746 389.747,19 384.5,19 L384.5,19 Z M352.5,69 C338.969,69 328,58.031 328,44.5 C328,42.762 328.184,41.067 328.528,39.432 C324.156,37.977 321,33.861 321,29 C321,22.924 325.925,18 332,18 C335.782,18 339.117,19.91 341.097,22.816 C344.503,21.021 348.382,20 352.5,20 C366.031,20 377,30.969 377,44.5 C377,58.031 366.031,69 352.5,69 L352.5,69 Z M192,131 C162.729,131 139,107.271 139,78.001 C139,48.728 162.729,25 192,25 C221.271,25 245,48.728 245,78.001 C245,107.271 221.271,131 192,131 L192,131 Z M122,202.999 C121.664,202.999 121.332,202.984 120.999,202.974 C120.999,202.983 121,202.991 121,202.999 C121,215.702 110.703,226 98,226 C85.297,226 75,215.702 75,202.999 C75,192.528 82,183.698 91.574,180.916 C90.557,177.793 90,174.463 90,171 C90,153.327 104.327,139 122,139 C139.673,139 154,153.327 154,171 C154,188.673 139.673,202.999 122,202.999 L122,202.999 Z" id="Shape" fill-opacity="0.6" sketch:type="MSShapeGroup"></path>
            <path d="M2311,1077 C2302.716,1077 2296,1070.284 2296,1062 C2296,1053.715 2302.716,1047 2311,1047 C2319.284,1047 2326,1053.715 2326,1062 C2326,1070.284 2319.284,1077 2311,1077 L2311,1077 Z M2201,1073 C2191.059,1073 2183,1064.941 2183,1055 C2183,1045.058 2191.059,1037 2201,1037 C2210.941,1037 2219,1045.058 2219,1055 C2219,1064.941 2210.941,1073 2201,1073 L2201,1073 Z M1927,1072 C1917.611,1072 1910,1064.389 1910,1055 C1910,1045.612 1917.611,1038 1927,1038 C1936.389,1038 1944,1045.612 1944,1055 C1944,1064.389 1936.389,1072 1927,1072 L1927,1072 Z M1880,1142 C1863.431,1142 1850,1128.569 1850,1112 C1850,1095.431 1863.431,1082 1880,1082 C1896.569,1082 1910,1095.431 1910,1112 C1910,1128.569 1896.569,1142 1880,1142 L1880,1142 Z M1809.406,722.539 C1809.406,783.289 1760.126,832.537 1699.336,832.537 C1676.575,832.537 1655.429,825.632 1637.878,813.806 C1628.201,815.633 1618.218,816.596 1608.009,816.596 C1550.967,816.596 1500.909,786.744 1472.6,741.827 C1458.495,752.245 1441.051,758.408 1422.165,758.408 C1401.1,758.408 1381.829,750.742 1366.984,738.054 C1340.915,765.329 1304.164,782.321 1263.441,782.321 C1225.416,782.321 1190.859,767.502 1165.222,743.334 C1145.252,816.337 1078.418,870 999.032,870 C943.123,870 893.44,843.383 861.967,802.14 C835.562,832.677 796.538,852 753,852 C734.919,852 717.626,848.65 701.684,842.563 C706.973,852.013 710,862.9 710,874.499 C710,910.675 680.675,940 644.5,940 C624.616,940 606.815,931.127 594.802,917.139 C562.958,936.102 525.754,947 486,947 C402.866,947 330.865,899.367 295.776,829.909 C281.02,841.252 262.55,848 242.5,848 C194.175,848 155,808.825 155,760.5 C155,712.175 194.175,673 242.5,673 C255.761,673 268.329,675.956 279.592,681.235 C303.069,589.122 386.577,521 486,521 C554.368,521 615.206,553.217 654.179,603.291 C658.772,598.956 663.639,594.909 668.77,591.202 C667.237,582.203 666.428,572.957 666.428,563.521 C666.428,541.526 670.779,520.551 678.647,501.391 C637.872,485.41 609,445.737 609,399.322 C609,338.792 658.102,289.723 718.672,289.723 C734.112,289.723 748.804,292.918 762.13,298.672 C790.753,248.123 845.039,213.999 907.307,213.999 C940.736,213.999 971.861,223.84 997.955,240.769 C1009.338,238.9 1021.018,237.912 1032.931,237.912 C1115.409,237.912 1186.984,284.514 1222.764,352.798 C1236.795,347.58 1251.977,344.721 1267.827,344.721 C1339.19,344.721 1397.041,402.534 1397.041,473.849 C1397.041,501.416 1388.391,526.961 1373.664,547.933 C1384.413,560.877 1392.916,575.746 1398.592,591.944 C1406.077,589.788 1413.986,588.629 1422.165,588.629 C1435.581,588.629 1448.268,591.742 1459.55,597.277 C1483.168,538.483 1540.733,496.964 1608.009,496.964 C1650.689,496.964 1689.461,513.674 1718.139,540.903 C1729.091,534.759 1741.715,531.24 1755.168,531.24 C1797.017,531.24 1830.941,565.142 1830.941,606.962 C1830.941,633.609 1817.156,657.021 1796.335,670.512 C1804.672,686.003 1809.406,703.718 1809.406,722.539 L1809.406,722.539 Z M147.5,678 C137.835,678 130,670.164 130,660.5 C130,650.835 137.835,643 147.5,643 C157.165,643 165,650.835 165,660.5 C165,670.164 157.165,678 147.5,678 L147.5,678 Z M627,1167 C631.971,1167 636,1171.029 636,1176 C636,1180.971 631.971,1185 627,1185 C622.029,1185 618,1180.971 618,1176 C618,1171.029 622.029,1167 627,1167 L627,1167 Z M708,1222 C715.18,1222 721,1227.82 721,1235 C721,1242.18 715.18,1248 708,1248 C700.82,1248 695,1242.18 695,1235 C695,1227.82 700.82,1222 708,1222 L708,1222 Z M1699.5,951 C1713.583,951 1725,962.416 1725,976.5 C1725,990.583 1713.583,1002 1699.5,1002 C1685.417,1002 1674,990.583 1674,976.5 C1674,962.416 1685.417,951 1699.5,951 L1699.5,951 Z M1762.5,976.999 C1769.956,976.999 1776,983.044 1776,990.499 C1776,997.956 1769.956,1004 1762.5,1004 C1755.044,1004 1749,997.956 1749,990.499 C1749,983.044 1755.044,976.999 1762.5,976.999 L1762.5,976.999 Z" id="Shape" fill-opacity="0.6" sketch:type="MSShapeGroup"></path>
            <path d="M2394,939.72 C2394,983.504 2358.565,1019.001 2314.853,1019.001 C2275.996,1019.001 2243.702,990.943 2237.003,953.956 C2233.449,954.417 2229.826,954.656 2226.147,954.656 C2212.903,954.656 2200.38,951.572 2189.247,946.088 C2180.49,955.145 2168.229,960.784 2154.647,960.784 C2128.04,960.784 2106.471,939.179 2106.471,912.526 C2106.471,890.055 2121.804,871.172 2142.563,865.801 C2145.135,821.796 2181.57,786.903 2226.147,786.903 C2254.163,786.903 2278.959,800.688 2294.158,821.853 C2299.587,820.059 2305.383,819.075 2311.412,819.075 C2341.82,819.075 2366.471,843.767 2366.471,874.227 C2366.471,875.982 2366.38,877.716 2366.219,879.429 C2383.213,893.97 2394,915.577 2394,939.72 L2394,939.72 Z M1849.912,874.227 C1841.703,874.227 1833.86,872.677 1826.636,869.881 C1814.774,901.509 1784.307,924.017 1748.588,924.017 C1731.053,924.017 1714.786,918.588 1701.36,909.324 C1683.799,919.633 1663.356,925.548 1641.529,925.548 C1576.067,925.548 1523,872.391 1523,806.819 C1523,741.246 1576.067,688.09 1641.529,688.09 C1650.671,688.09 1659.57,689.128 1668.117,691.091 C1681.276,638.749 1728.574,600 1784.912,600 C1851.43,600 1905.353,654.015 1905.353,720.644 C1905.353,736.345 1902.356,751.344 1896.908,765.102 C1907.825,776.693 1914.529,792.307 1914.529,809.5 C1914.529,845.248 1885.599,874.227 1849.912,874.227 L1849.912,874.227 Z" id="Shape" fill-opacity="0.6" sketch:type="MSShapeGroup"></path>
            <path d="M1648.5,1117 C1623.371,1117 1603,1096.629 1603,1071.5 C1603,1046.371 1623.371,1026 1648.5,1026 C1673.629,1026 1694,1046.371 1694,1071.5 C1694,1096.629 1673.629,1117 1648.5,1117 L1648.5,1117 Z M1588,1140.999 C1576.402,1140.999 1567,1131.598 1567,1119.999 C1567,1108.402 1576.402,1099 1588,1099 C1599.598,1099 1609,1108.402 1609,1119.999 C1609,1131.598 1599.598,1140.999 1588,1140.999 L1588,1140.999 Z M703,1151 C685.327,1151 671,1136.673 671,1119 C671,1101.327 685.327,1087 703,1087 C720.673,1087 735,1101.327 735,1119 C735,1136.673 720.673,1151 703,1151 L703,1151 Z M437.5,1145 C429.387,1145 421.837,1142.605 415.501,1138.497 C393.15,1159.865 362.864,1173 329.5,1173 C306.325,1173 284.634,1166.661 266.053,1155.632 C247.96,1174.354 222.592,1186 194.5,1186 C139.548,1186 95,1141.452 95,1086.5 C95,1032.75 137.622,988.962 190.911,987.071 C189.665,982.255 189,977.205 189,972 C189,938.863 215.863,912 249,912 C265.708,912 280.816,918.835 291.695,929.855 C303.618,926.058 316.318,924 329.5,924 C353.078,924 375.124,930.556 393.917,941.941 C398.4,940.047 403.328,939 408.5,939 C424.695,939 438.491,949.266 443.738,963.646 C446.932,963.222 450.19,962.999 453.5,962.999 C494.093,962.999 527,995.907 527,1036.5 C527,1068.514 506.53,1095.742 477.967,1105.823 C477.267,1127.576 459.424,1145 437.5,1145 L437.5,1145 Z M438,790 C410.386,790 388,767.614 388,740 C388,712.385 410.386,690 438,690 C465.614,690 488,712.385 488,740 C488,767.614 465.614,790 438,790 L438,790 Z M379.5,680 C372.596,680 367,674.403 367,667.5 C367,660.596 372.596,655 379.5,655 C386.404,655 392,660.596 392,667.5 C392,674.403 386.404,680 379.5,680 L379.5,680 Z M315,913.999 C306.716,913.999 300,907.284 300,899 C300,890.715 306.716,884 315,884 C323.284,884 330,890.715 330,899 C330,907.284 323.284,913.999 315,913.999 L315,913.999 Z M135,959 C121.193,959 110,947.807 110,934 C110,920.193 121.193,909 135,909 C148.807,909 160,920.193 160,934 C160,947.807 148.807,959 135,959 L135,959 Z" id="Shape" fill-opacity="0.4" sketch:type="MSShapeGroup"></path>
        </g>
    </g>
</svg>