<?xml version="1.0" encoding="UTF-8" standalone="no"?>
<svg width="180px" height="33px" viewBox="0 0 180 33" version="1.1" xmlns="http://www.w3.org/2000/svg" xmlns:xlink="http://www.w3.org/1999/xlink" xmlns:sketch="http://www.bohemiancoding.com/sketch/ns">
    <!-- Generator: Sketch 3.3.2 (12043) - http://www.bohemiancoding.com/sketch -->
    <title>wordmarque-reversed</title>
    <desc>Created with Sketch.</desc>
    <defs></defs>
    <g id="Page-1" stroke="none" stroke-width="1" fill="none" fill-rule="evenodd" sketch:type="MSPage">
        <g id="small-screen" sketch:type="MSArtboardGroup" transform="translate(-70.000000, -1041.000000)" fill="#FFFFFF">
            <g id="wordmarque-reversed" sketch:type="MSLayerGroup" transform="translate(70.000000, 1041.000000)">
                <path d="M81.2114533,28.34624 C81.2114533,28.34624 82.0775087,29.23744 82.5004152,29.67232 C85.0503114,32.29184 90.9224221,34.37792 95.4843945,29.69088 C99.9576125,25.09376 98.0919031,18.97344 95.5024567,16.31232 C92.7738062,13.5088 86.817301,11.87776 82.4664706,16.34848 C81.0345675,17.81952 75.3975779,23.61216 75.3975779,23.61216 L75.3994464,31.46048 C75.3994464,31.46048 83.8790657,22.7472 86.3205882,20.2384 C88.4189273,18.08256 90.9208651,19.45664 91.6816609,20.23808 C92.2297578,20.80128 93.9375779,23.42848 91.6816609,25.74688 C89.0831834,28.41664 86.3205882,25.74688 86.3205882,25.74688 L85.0216609,24.41184 L81.2114533,28.34624" id="Fill-2" sketch:type="MSShapeGroup"></path>
                <path d="M18.4447059,0.12352 L13.0415917,5.71776 L13.0415917,32.42304 L18.4447059,26.91296 L18.4447059,0.12352" id="Fill-3" sketch:type="MSShapeGroup"></path>
                <path d="M18.4447059,0.15904 L20.6402076,0.15904 L20.6402076,5.75328 L18.4447059,5.75328 L18.4447059,0.15904 Z" id="Fill-4" sketch:type="MSShapeGroup"></path>
                <path d="M35.0249481,10.8 L35.0249481,8.54432 L40.469481,8.54432 L40.469481,10.80032 L35.0249481,10.8" id="Fill-5" sketch:type="MSShapeGroup"></path>
                <path d="M65.6629412,26.87104 L67.8584429,26.87104 L67.8584429,32.46528 L65.6629412,32.46528 L65.6629412,26.87104 Z" id="Fill-6" sketch:type="MSShapeGroup"></path>
                <path d="M76.4009689,32.48928 L75.3994464,31.46048 L79.2488927,27.50496 L80.2504152,28.53376 L76.4009689,32.48928" id="Fill-7" sketch:type="MSShapeGroup"></path>
                <path d="M34.9355709,2.94688 C34.9355709,2.94688 33.7428374,2.93792 31.3025606,2.93792 C25.2644637,2.93792 22.0833218,8.10592 22.0833218,11.85856 L22.0833218,23.01728 C22.0833218,26.98272 25.1725952,32.46464 31.3256055,32.46464 L55.5082007,32.46464 L55.5082007,26.91296 L31.2770242,26.91296 C28.309827,26.91296 27.486436,24.1232 27.486436,23.0176 C27.486436,22.89184 27.4621453,12.08032 27.4621453,11.85792 C27.4621453,10.61728 28.5901038,8.48992 31.2770242,8.48992 C34.9520761,8.48992 40.469481,8.54432 40.469481,8.54432 L34.9355709,2.94688" id="Fill-8" sketch:type="MSShapeGroup"></path>
                <path d="M10.5212803,16.31744 L10.5212803,13.6208 C10.0108651,13.62144 10.0108651,13.61152 9.23076125,13.61152 C3.19235294,13.61152 0.0112110727,18.39136 0.0112110727,23.01728 C0.0112110727,26.98272 3.10048443,32.46464 9.25349481,32.46464 L13.0618339,32.46464 L18.3970588,26.91296 L9.20491349,26.91296 C6.23771626,26.91296 5.41432526,24.1232 5.41432526,23.0176 C5.41432526,20.90336 6.51799308,19.16384 9.20491349,19.16384 C10.0273702,19.16384 10.5212803,19.1472 10.5212803,19.1472 L10.5212803,16.31744" id="Fill-9" sketch:type="MSShapeGroup"></path>
                <path d="M44.1865744,26.91296 C42.0929066,26.91296 40.3956747,25.16864 40.3956747,23.01728 C40.3956747,20.86592 42.0929066,19.12192 44.1865744,19.12192 C46.2802422,19.12192 47.977474,20.86592 47.977474,23.01728 C47.977474,25.16864 46.2802422,26.91296 44.1865744,26.91296 M44.1865744,13.46784 C39.0814879,13.46784 34.943045,17.72032 34.943045,22.96608 C34.943045,28.21184 39.0814879,32.46464 44.1865744,32.46464 C49.2919723,32.46464 53.4304152,28.21184 53.4304152,22.96608 C53.4304152,17.72032 49.2919723,13.46784 44.1865744,13.46784" id="Fill-13" sketch:type="MSShapeGroup"></path>
                <path d="M55.3512457,19.08064 L60.7531142,13.52864 C60.7531142,13.52864 63.0457785,13.528 64.0675433,13.528 C68.3349135,13.528 73.2615571,17.2576 73.2615571,22.97568 C73.2615571,26.59136 73.2603114,26.85632 73.2603114,26.85632 L67.8584429,32.4656 L67.8584429,22.97568 C67.8584429,21.088 66.1820761,19.08032 64.0675433,19.08032 C62.3491349,19.08032 55.3512457,19.08064 55.3512457,19.08064" id="Fill-14" sketch:type="MSShapeGroup"></path>
                <path d="M55.3509343,32.43872 L60.7531142,26.91296 L60.7531142,13.56928 L55.3512457,19.06208 L55.3509343,32.43872" id="Fill-15" sketch:type="MSShapeGroup"></path>
                <path d="M154.765744,21.47392 L154.765744,19.21792 L160.209965,19.21824 L160.209965,21.47392 L154.765744,21.47392" id="Fill-65" sketch:type="MSShapeGroup"></path>
                <path d="M154.765744,13.7024 C154.765744,13.7024 154.369308,13.69312 153.978789,13.69312 C147.940692,13.69312 144.759239,18.47296 144.759239,23.09888 C144.759239,27.06432 147.848824,32.54624 154.001834,32.54624 L160.209965,32.54624 L160.209965,26.99424 L153.953253,26.99424 C150.986055,26.99424 150.162664,24.2048 150.162664,23.0992 C150.162664,20.98528 151.266021,19.24544 153.953253,19.24544 C157.627993,19.24544 160.209965,19.21824 160.209965,19.21824 L154.765744,13.7024" id="Fill-66" sketch:type="MSShapeGroup"></path>
                <path d="M112.333391,32.46464 L117.710657,26.8752 C117.710657,26.8752 117.710346,24.25248 117.710346,23.0176 C117.710346,21.78304 118.658304,19.12256 121.501246,19.12256 L122.650692,19.12256 L128.006471,13.56992 C128.006471,13.56992 121.666609,13.57056 121.501246,13.57056 C115.148927,13.57056 112.30692,19.17312 112.30692,23.01792 C112.30692,24.27168 112.333391,32.46464 112.333391,32.46464" id="Fill-67" sketch:type="MSShapeGroup"></path>
                <path d="M105.360727,13.528 L107.481799,13.528 L107.481799,19.12256 L105.360727,19.12256 L105.360727,13.528 Z" id="Fill-68" sketch:type="MSShapeGroup"></path>
                <path d="M117.708789,26.91296 L112.333391,32.46464 C112.333391,32.46464 112.683737,32.4656 109.151938,32.4656 C104.883945,32.4656 99.957301,28.73632 99.957301,23.01792 C99.957301,19.40256 99.9585467,19.1376 99.9585467,19.1376 L105.360727,13.528 L105.360727,23.0176 C105.360727,24.9056 107.036782,26.91296 109.151938,26.91296 L117.708789,26.91296" id="Fill-69" sketch:type="MSShapeGroup"></path>
                <path d="M132.341107,19.12256 L130.219723,19.12256 L130.220346,13.528 L132.341419,13.528 L132.341107,19.12256" id="Fill-70" sketch:type="MSShapeGroup"></path>
                <path d="M142.727232,26.91296 L137.32474,32.46496 C137.32474,32.46496 135.032699,32.4656 134.010934,32.4656 C129.742941,32.4656 124.816609,28.73632 124.816609,23.0176 C124.816609,19.40224 124.817855,19.13728 124.817855,19.13728 L130.220346,13.528 L130.219723,23.0176 C130.219723,24.9056 131.896401,26.91296 134.010934,26.91296 L142.727232,26.91296" id="Fill-71" sketch:type="MSShapeGroup"></path>
                <path d="M97.763045,0.15744 L99.9585467,0.15744 L99.9585467,5.75168 L97.763045,5.75168 L97.763045,0.15744 Z" id="Fill-72" sketch:type="MSShapeGroup"></path>
                <path d="M105.360727,19.9264 L99.9585467,19.9264 L99.9585467,0.15744 L105.360727,5.75168 L105.360727,19.9264" id="Fill-73" sketch:type="MSShapeGroup"></path>
                <path d="M167.423045,13.528 L169.544118,13.528 L169.544118,19.12256 L167.423045,19.12256 L167.423045,13.528 Z" id="Fill-74" sketch:type="MSShapeGroup"></path>
                <path d="M179.771107,26.91296 L174.395709,32.46464 C174.395709,32.46464 174.746055,32.4656 171.213633,32.4656 C166.946263,32.4656 162.019619,28.73632 162.019619,23.01792 C162.019619,19.40256 162.020865,19.1376 162.020865,19.1376 L167.423045,13.528 L167.423045,23.0176 C167.423045,24.9056 169.0991,26.91296 171.213633,26.91296 L179.771107,26.91296" id="Fill-75" sketch:type="MSShapeGroup"></path>
                <path d="M159.825052,0.15904 L162.020865,0.15904 L162.020865,5.75328 L159.825052,5.75328 L159.825052,0.15904 Z" id="Fill-76" sketch:type="MSShapeGroup"></path>
                <path d="M167.423045,19.9264 L162.020865,19.9264 L162.020865,0.15904 L167.423045,5.75328 L167.423045,19.9264" id="Fill-77" sketch:type="MSShapeGroup"></path>
                <path d="M142.727232,13.59552 L137.325363,13.56928 L137.32474,32.46464 L142.727232,26.97184 L142.727232,13.59552" id="Fill-80" sketch:type="MSShapeGroup"></path>
            </g>
        </g>
    </g>
</svg>