<svg xmlns="http://www.w3.org/2000/svg" width="1092px" height="532px" viewBox="0 0 1092 532" xmlns:xlink="http://www.w3.org/1999/xlink">
  <defs>
    <linearGradient id="a" x1="2.58533129%" x2="99.2153161%" y1="96.5685741%" y2="1.1214836%">
      <stop stop-color="#FFF" offset="0%"/>
      <stop stop-color="#FFF" stop-opacity="0" offset="100%"/>
    </linearGradient>
    <path id="b" d="M857.6 125C930.2 26.2 649.8-11.3 535 3.6 345.7 28.3 143.8 121 33.6 179-8.7 201.2-3 207.2 10 273c34.6 37.3 257.2 141 356.4 123.2 136-24.5 427-184 491.2-271.2z"/>
    <path id="d" d="M117.2 3.8c49.3-13 229.4 17.2 198.2 72-9.7 17-11.4 33.3-12.4 48.4-29.2 18-93.4 58-166.2 75.2-18.2 4.3-38.8 8.5-60.5 12.4-34-24.7-25-18.3-76-64.5 18.8-4 39.7-8.2 62.5-13.6 11.5-56.7 21-121 54.4-130z"/>
  </defs>
  <g fill="none" fill-rule="evenodd" transform="translate(0 1)">
    <g id="Group">
      <path id="Path-67-Copy-6" fill="#FFF" d="M860.7 176.2c4.6 0 231-167.3 231-167.3L834.6 140.4s21.6 35.7 26.2 35.7z" opacity="0.138257932"/>
      <path id="Path-67-Copy-5" fill="#FFF" d="M857.7 172.3c4.6 0 220.7-155.2 220.7-155.2L837.6 145.7s15.5 26.7 20 26.7z" opacity="0.161928641"/>
      <path id="Path-67-Copy-4" fill="#FFF" d="M854.6 170c4.6 0 194.5-135.6 194.5-135.6L841 150s9 20 13.6 20z" opacity="0.200000003"/>
      <path id="Path-67-Copy-3" fill="url(#a)" d="M16.6 157C21.2 157 223 22.5 223 22.5L9.7 147.4s2.4 9.7 7 9.7z" opacity="0.6" transform="translate(834 8)"/>
    </g>
    <path fill="#FFF" d="M729.7 168.2c4.6 0 231-167.3 231-167.3L703.6 132.4s21.6 35.7 26.2 35.7z" opacity="0.138257932"/>
    <path fill="#FFF" d="M726.7 164.3C731.3 164.3 947.4 9 947.4 9L706.6 137.7s15.5 26.7 20 26.7z" opacity="0.161928641"/>
    <path fill="#FFF" d="M723.6 162C728.2 162 918 26.3 918 26.3L710 142s9 20 13.6 20z" opacity="0.200000003"/>
    <path fill="url(#a)" d="M16.6 157C21.2 157 223 22.5 223 22.5L9.7 147.4s2.4 9.7 7 9.7z" opacity="0.6" transform="translate(703)"/>
    <path id="Shape" fill="#E6E6E6" d="M201.4 292.5C265.8 290 567 162 670.2 115c103.3-47-1.6-7.6-12.8-2.5-11.3 5-268.8 106.8-455.6 142.8-33 6.3-39 38.7-.4 37.2z"/>
    <path id="Shape" fill="#FFF" d="M730 86s64-55.3.3-2c0 0-224 98.7-474.2 172-22.8 6.8-82.2 16.6-50.6 21.5C237 282.5 696 106.5 730 86z"/>
    <path id="Shape" fill="#306860" d="M49.5 430c26.7 34.6 214 104.4 323 100 179.7-36.8 457-219 474.5-263.2 42-105.2-155.6-51.6-155.6-51.6s-794 58-642 214.8z"/>
    <path id="Shape" fill="#22544D" d="M372.8 529.6c73-5.7 309-123.3 410.2-202.7 7.3-6 54.2-43.3 62.3-56 8-12.8 6.8-21.7 6.8-21.7l-463 257s8.3-4.8-16.2 23.3z"/>
    <g id="Shape" transform="translate(4 115)">
      <mask id="c" fill="#fff">
        <use xlink:href="#b"/>
      </mask>
      <use id="Mask" fill="#73C7BA" xlink:href="#b"/>
      <path fill="#5AB0A3" d="M463.5 342c61.2 4 541.4-281.4 420-282l-15 8s44 41.3-411 203c-31.7 11.2-55.3 67 6 71z" mask="url(#c)"/>
    </g>
    <path id="Shape" fill="#94DFD4" d="M263 190c-93.4 38-190 83.6-209.7 95.3 7.6 2.2 23.4 2 98.2 19.7 109.6 26 214 110 413 25s411.6-142.3 234-203c-177.7-60.7-442 25-535.5 63z"/>
    <path id="Shape" fill="#FFF" d="M651.5 117C599 93.7 659.8 80 571 71.4c-170.3 32.4-353 132-353 132L25 295s-26.5 21.4 7.7 6.2c34-15.2 340-187 619-184z" opacity="0.4"/>
    <path id="Shape" fill="#5AB0A3" d="M350.5 501c32.2 2.3 34.6-88.3-1.8-100.5C314.7 389 63.7 299 28 302c-22.6-7.2-39 61-1.8 93 37 32 202.6 97.3 324.3 106z"/>
    <path id="Shape" fill="#337A6F" d="M23.5 381c7 20.3 165 95 337.8 111.3 7 .6-15.2 19-8.2 19.4 27.8 0 26.5 9.7 19.6 16.4-17.7 3.2-35.4 1-43.3 0C177.5 504.6 64.5 447 55 435c-9.3-12-15-12.4-29.5-35-6.4-10.2-18.8-25.6-21-39.5-7-45 18-67.3 24.8-63.3 0 3.2-6.8 9-5.8 9.7-3.3 18.7-14.8 31 0 74z"/>
    <path id="Shape" fill="#307A6F" d="M129.2 319l-4.7 131.3 5.7 2 3.3-131.6-4.3-1.7zM149.2 323.3l-4.7 131.3 5.7 2 3.3-131.7-4.3-1.7zM169.2 327.6L164.5 459l5.7 1.8 3.3-131.6-4.3-1.6zM189.2 332L184.5 463l5.7 2 3.3-131.7-4.3-1.6zM209.2 336.2l-4.7 131.3 5.7 2 3.3-131.7-4.3-1.6zM229.2 340.5l-4.7 131.3 5.7 2 3.3-131.7-4.3-1.5z"/>
    <ellipse cx="799.187313" cy="178.291778" fill="#64B0A5" rx="10" ry="4"/>
    <path id="Shape" fill="#FFF" d="M797.5 177c-.3 2 3 1 3 1s10.5-93.8 38-146l-2-1s-26.4 49.2-39 146z"/>
    <path id="Shape" fill="#FFF" d="M835.5 29c-4.8 2.7-1.3 8.5 3 7 4.2-1.5 2.3-10-3-7z"/>
    <path id="Shape" fill="#5AB0A3" d="M577.6 138.2c-99 4.8-323.2 52.6-333.8 98.7C233 283 506.5 371.2 749 199.7c57.5-40.6-118-64-171.4-61.6z"/>
    <path id="Shape" fill="#6A6662" d="M574 143.4c-95 4.4-310.7 49-321 91.8-10.2 42.8 252.7 125 486-34.5 55-37.7-113.7-59.6-165-57.3z"/>
    <path id="Shape" fill="#241E1C" d="M496 216.6c-38.3 11-128 43-168.5 55.4-11.2-16.7-13-24.2-31-69.7C358 174 482.5 153.7 510 149c-3.5 21-14 67.6-14 67.6z"/>
    <path id="Shape" fill="#395E58" d="M335.4 415c14.7 5 25.3 23.4 23.8 40.8-1.4 17.4-14.5 27.3-29 22.2-14.7-5.2-25.3-23.5-24-41 1.6-17.3 14.6-27.2 29.2-22z"/>
    <path id="Shape" fill="#FBF8E8" d="M329.4 417c14.7 5 25.3 23.4 23.8 40.8-1.4 17.4-14.5 27.3-29 22.2-14.7-5.2-25.3-23.5-24-41 1.6-17.3 14.6-27.2 29.2-22z"/>
    <path id="Shape" fill="#F3ECCB" d="M328 434.6c6.4 2.3 11 10.3 10.4 18-.6 7.7-6.3 12-12.6 9.8-6.3-2.3-11-10.3-10.3-18 .7-7.7 6.3-12 12.6-9.8z"/>
    <path id="Shape" fill="#FFF" d="M314.5 424c-9 2.6-12 15.6-7 26 4.8 10.4 28.4-32.2 7-26z"/>
    <path id="Shape" fill="#395E58" d="M49.4 318c14.7 5 25.3 23.4 23.8 40.8-1.4 17.4-14.5 27.3-29 22.2-14.7-5.2-25.4-23.5-24-41C22 322.8 35 313 49.5 318z"/>
    <path id="Shape" fill="#FBF8E8" d="M43.4 320c14.7 5 25.3 23.4 23.8 40.8-1.4 17.4-14.5 27.3-29 22.2-14.7-5.2-25.4-23.5-24-41C16 324.8 29 315 43.5 320z"/>
    <path id="Shape" fill="#F3ECCB" d="M42 337.6c6.4 2.3 11 10.3 10.4 18-.6 7.7-6.3 12-12.6 9.8-6.3-2.3-11-10.3-10.3-18 .7-7.7 6.3-12 12.6-9.8z"/>
    <path id="Shape" fill="#FFF" d="M28.5 327c-9 2.6-12 15.6-7 26 4.8 10.4 28.4-32.2 7-26z"/>
    <path id="Shape" fill="#395E58" d="M280.3 431.8c8.7 3 15 13.8 14 24-.8 10.4-8.5 16.3-17 13.2-8.8-3-15-13.8-14.2-24 1-10.4 8.7-16.2 17.3-13.2z"/>
    <path id="Shape" fill="#FBF8E8" d="M276.8 433c8.6 3 15 13.8 14 24-.8 10.4-8.5 16.2-17.2 13.2-8.6-3-15-13.8-14-24 .8-10.4 8.5-16.3 17.2-13.2z"/>
    <path id="Shape" fill="#F3ECCB" d="M276 443.4c3.7 1.3 6.4 6 6 10.6-.3 4.6-3.6 7.2-7.4 5.8-3.7-1.3-6.4-6-6-10.6.3-4.6 3.6-7 7.4-5.8z"/>
    <path id="Shape" fill="#FFF" d="M263.8 452.5c2.8 6 16.8-19 4-15.4-5.2 1.7-7 9.4-4 15.5z"/>
    <path id="Shape" fill="#395E58" d="M90.3 364.8c8.7 3 15 13.8 14 24-.8 10.4-8.5 16.3-17 13.2-8.8-3-15-13.8-14.2-24 1-10.4 8.7-16.2 17.3-13.2z"/>
    <path id="Shape" fill="#FBF8E8" d="M86.8 366c8.6 3 15 13.8 14 24-.8 10.4-8.5 16.2-17.2 13.2-8.6-3-15-13.8-14-24 .8-10.4 8.5-16.3 17.2-13.2z"/>
    <path id="Shape" fill="#F3ECCB" d="M86 376.4c3.7 1.3 6.4 6 6 10.6-.3 4.6-3.6 7.2-7.4 5.8-3.7-1.3-6.4-6-6-10.6.3-4.6 3.7-7 7.4-5.8z"/>
    <path id="Shape" fill="#FFF" d="M78 370c-5.4 1.7-7 9.4-4.2 15.5 2.8 6 16.8-19 4-15.4z"/>
    <g id="Group">
      <g transform="translate(432 80)">
        <mask id="e" fill="#fff">
          <use xlink:href="#d"/>
        </mask>
        <use fill="#F6F2E1" xlink:href="#d"/>
        <path id="Shape" fill="#FDFBF3" d="M79.5 19c29.8-8.4 58.3-8.6 99-4 102.2 11.7 180.2 62.8 133 16-71-70.2-178-48-178-48s-84 44.4-54 36z" mask="url(#e)"/>
        <path id="Shape" fill="#BE9E88" d="M209.6 11.8c-10.3 19-42.3 92-44 149.5 2 1.7 4-63 47-149.8 43-87-3 .3-3 .3z" mask="url(#e)"/>
        <path id="Shape" fill="#DFCFC4" d="M179.6 11.8c-10.3 19-42.3 92-44 149.5 2 1.7 4-63 47-149.8 43-87-3 .3-3 .3zM149.6 11.8c-10.3 19-42.3 92-44 149.5 2 1.7 4-63 47-149.8 43-87-3 .3-3 .3zM120.6 11.4c-9.6 19.4-39 93.6-38.5 151 2 1.7 1.8-63 41.6-151.4 39.8-88.3-3 .4-3 .4zM239 21.3c-10.8 18.8-44.6 91-47.6 148.4 2 1.8 5.5-62.7 50.5-148.6 45-85.7-3 .3-3 .3zM269 22c-10.8 19-44.6 91.2-47.6 148.4 2 1.8 5.5-62.7 50.5-148.5 45-86-3 0-3 0zM299 22.8c-10.8 18.8-44.6 91-47.6 148.4 2 1.8 5.5-62.8 50.5-148.6s-3 .2-3 .2z" mask="url(#e)"/>
        <path id="Shape" fill="#CCC8B5" d="M303.5 31c7.3 5.6 16.6 20.4 4 34-12.7 13.6-23.2 60.2-20 101 3 40.8 45-97 45-97l-11-38s-25.4-5.6-18 0z" mask="url(#e)"/>
      </g>
      <path id="Shape" fill="#C3C6B2" d="M493.8 213.3c25 3 120 14.3 162 36.3-81 35.6-148.6 42-148.6 42l-59.8-44.2s-13-14-20.3-19.8c15-3 26.6-4 66.8-14.3z"/>
      <path id="Shape" fill="#BE9E88" d="M654.4 250c-34.2-21.4-145-36-161.5-36.7 14 2.7 96 9.3 161.4 36.8z"/>
      <path id="Shape" fill="#D6DEE1" d="M254.5 223c-39.8 31 57.5 61.3 101 68.6 43.5 7.4 153.8 0 153.8 0-16-10.7-125-157.7-254.8-68.6z"/>
      <path id="Shape" fill="#8A9CA2" d="M248.2 228.7c-13.6 14.6 21.5 38 63 52.5 41.6 14.5 122.7 18.7 198 10.2-23-17.7-158.6-151-261-62.7z"/>
      <path id="Shape" fill="#586C73" d="M348 287c70.6 12.5 149.2 4.7 157.3 1 1.2 1.2 1.4 1.5 4 3.7-40 5.3-122.5 10.6-188-6.8-65.7-17.5-79.4-40.5-76.2-50.4 9.5 18.7 32.4 40 103 52.4z"/>
      <path id="Shape" fill="#FFF" d="M309.5 206c-19.6 3.8-26.2 12-22.2 12.7 4 .7 75.5-7.3 143.7 27.2 68.2 34.4 6.3-1-.5-5.4-6.8-4.5-76-43.3-121-34.6z" opacity="0.3"/>
    </g>
    <path id="Shape" fill="#FFF" fill-opacity="0.2" stroke="#FFF" stroke-opacity="0.8" stroke-width="2" d="M684 257.3c-56.8 24-155 67.8-307 53-53.3-5.2-176.3-28-136-92C282.4 152 689.3-218.5 776 190c2.7 13-35.5 43.4-92 67.3z"/>
    <path id="Shape" fill="#94ACA8" fill-opacity="0.200000018" d="M756 123c-19.4-45.5-54-90-74.2-105.5C693 53 686 147 581.5 213s-294.8 78-330.2-8.6c-21.3 26.5-20 39-15.6 50 8.2 21.3 53.8 47.3 137 56C497 323.4 655 289.4 749 222c9.5-6.7 26.8-22 26.8-30-2.2-8.6-.6-23.5-20-69z"/>
    <path id="Shape" fill="#E6E6E6" d="M349 514c-109.7-6-279-56-332.5-120-32.6-39-11-98.7 14-100 38.6-2 274 61.8 330 99 53.2 35.5 23.4 123-11.5 121zm-1-109.6c-31.7-21-305.3-113-325.2-100-6.6 4.3-29.7 36.8-3.3 82.6 9.6 16.7 124 86.7 327.7 112.5 21 2.7 46.8-64.8.8-95z"/>
    <path id="Shape" fill="#FFF" d="M52.5 298c-10.3-2.2-23.7 0-4 3s265.6 65.8 309 101c9 7.3 20.2 20.7 21 33 .8 12.3 5.6 4 3-6-2.6-10-13.2-32-31-39-18-7-131-56.8-298-92zM55.5 419c-12-5.8 110 66.4 241 82 17.8 2 12.2-2.4-4-4s-92-8-237-78z"/>
    <path id="Shape" fill="#E6E6E6" d="M483.6 436.6C547 425 827 256 922.6 194.8c95.6-61.2-2.7-7.3-13-.7-10.5 6.7-251 143.7-431 205.8-31.7 11-33 43.8 5 36.8z"/>
    <path id="Shape" fill="#C5C5C5" d="M978 160.5s55.2-63.7 0-2c0 0-208 129.4-445.3 237.4-21.7 9.8-79 28-47 28.3 31.8.4 461.3-238.6 492.2-263.8z"/>
    <path id="Shape" fill="#FFF" d="M977.8 157.5s55.3-63.7 0-2c0 0-207.8 129.4-445.2 237.4-21.7 9.8-79 28-47 28.3 31.8.4 461.3-238.6 492.2-263.8z"/>
    <path id="Shape" fill="#FFF" d="M394.8 362.7c26.8-2 57.7 17 266.4-77.3 179.2-80.8 19.3-9.6 4.6-5.5-13.7 3.7-148.6 77.4-303.3 77.2-33.7 0 5.5 7.4 32.3 5.5z" opacity="0.5"/>
    <path id="Shape" fill="#FFF" d="M124.5 266c31.6-19 114.7-47.2 85-28-20.7 13 10 71.2 201 82 55.7 3.2-73.8 19.8-221-17.8-47.2-12-104.6-12.6-65-36.2z" opacity="0.3"/>
    <path id="Shape" fill="#FFF" d="M803.7 158c28 2.2 78.7 25.2 15 53.5s-5.6-4.5 2-12c32.4-31.8-51.4-44-17-41.4z" opacity="0.2"/>
    <path fill="#FFF" d="M387.6 398.5c8.4 7.3 24.8 34.3 17.6 56.7-7.2 22.5 16 34.5 15 15-1.2-19.2-16.3-53.2 7-78 23.3-24.5-8-1-28.2-2.5s-26-3.6-11.4 8.8z" opacity="0.2"/>
  </g>
</svg>
