<?xml version="1.0" encoding="UTF-8" standalone="no"?>
<svg width="31px" height="23px" viewBox="0 0 31 23" version="1.1" xmlns="http://www.w3.org/2000/svg" xmlns:xlink="http://www.w3.org/1999/xlink" xmlns:sketch="http://www.bohemiancoding.com/sketch/ns">
    <!-- Generator: Sketch 3.3.3 (12072) - http://www.bohemiancoding.com/sketch -->
    <title>“</title>
    <desc>Created with Sketch.</desc>
    <defs></defs>
    <g id="Page-2" stroke="none" stroke-width="1" fill="none" fill-rule="evenodd" sketch:type="MSPage">
        <g id="Speaker-page" sketch:type="MSArtboardGroup" transform="translate(-313.000000, -1298.000000)" fill="#FFFFFF" opacity="0.3">
            <g id="Group" sketch:type="MSLayerGroup" transform="translate(284.000000, 1239.000000)">
                <path d="M59.8007812,59.2783203 C56.0898252,60.7627027 53.9251333,62.4326079 53.3066406,64.2880859 C55.4095157,65.463222 56.4609375,67.7206864 56.4609375,71.0605469 C56.4609375,73.2871205 55.8424541,75.4208882 54.6054688,77.4619141 C53.2447849,79.8740355 51.5130313,81.0800781 49.4101562,81.0800781 C45.884748,81.0800781 44.1220703,78.698917 44.1220703,73.9365234 C44.1220703,70.4729645 45.5755063,67.117692 48.4824219,63.8706055 C51.3893375,60.6235189 54.574527,59 58.0380859,59 C58.6565786,59 59.2441378,59.0927725 59.8007812,59.2783203 L59.8007812,59.2783203 Z M44.5859375,59.2783203 C40.8749814,60.7627027 38.7412137,62.4326079 38.1845703,64.2880859 C40.2255961,65.463222 41.2460938,67.7206864 41.2460938,71.0605469 C41.2460938,73.2871205 40.6585345,75.4208882 39.4833984,77.4619141 C38.0608653,79.8740355 36.2981876,81.0800781 34.1953125,81.0800781 C30.7317535,81.0800781 29,78.698917 29,73.9365234 C29,70.4729645 30.4379739,67.117692 33.3139648,63.8706055 C36.1899558,60.6235189 39.3596832,59 42.8232422,59 C43.5035841,59 44.0911434,59.0927725 44.5859375,59.2783203 L44.5859375,59.2783203 Z" id="“" sketch:type="MSShapeGroup"></path>
            </g>
        </g>
    </g>
</svg>