<?xml version="1.0" encoding="UTF-8" standalone="no"?>
<svg width="17px" height="16px" viewBox="0 0 17 16" version="1.1" xmlns="http://www.w3.org/2000/svg" xmlns:xlink="http://www.w3.org/1999/xlink" xmlns:sketch="http://www.bohemiancoding.com/sketch/ns">
    <!-- Generator: Sketch 3.3.3 (12072) - http://www.bohemiancoding.com/sketch -->
    <title>Shape</title>
    <desc>Created with Sketch.</desc>
    <defs></defs>
    <g id="Page-2" stroke="none" stroke-width="1" fill="none" fill-rule="evenodd" sketch:type="MSPage">
        <g id="Speaker-page" sketch:type="MSArtboardGroup" transform="translate(-294.000000, -495.000000)" fill="#FFFFFF" opacity="0.3">
            <g id="Group" sketch:type="MSLayerGroup" transform="translate(293.000000, 495.000000)">
                <path d="M7.259,12.693 L6.449,13.498 C5.748,14.193 4.606,14.193 3.904,13.498 C3.568,13.164 3.383,12.719 3.383,12.246 C3.383,11.773 3.569,11.33 3.904,10.994 L6.884,8.039 C7.501,7.426 8.663,6.524 9.51,7.364 C9.899,7.75 10.526,7.748 10.913,7.359 C11.298,6.97 11.296,6.342 10.907,5.957 C9.469,4.529 7.341,4.793 5.488,6.632 L2.508,9.588 C1.793,10.297 1.4,11.242 1.4,12.246 C1.4,13.252 1.794,14.195 2.508,14.904 C3.244,15.634 4.21,16 5.177,16 C6.144,16 7.111,15.635 7.846,14.904 L8.657,14.099 C9.046,13.714 9.048,13.087 8.662,12.699 C8.275,12.311 7.648,12.309 7.259,12.693 L7.259,12.693 Z M16.291,1.209 C14.744,-0.325 12.582,-0.408 11.152,1.012 L10.143,2.014 C9.754,2.4 9.751,3.027 10.137,3.415 C10.523,3.804 11.15,3.806 11.539,3.42 L12.549,2.419 C13.289,1.683 14.26,1.988 14.895,2.616 C15.231,2.951 15.417,3.395 15.417,3.868 C15.417,4.341 15.231,4.785 14.895,5.119 L11.715,8.273 C10.261,9.714 9.579,9.039 9.288,8.75 C8.899,8.364 8.272,8.367 7.887,8.755 C7.501,9.144 7.503,9.772 7.892,10.156 C8.56,10.818 9.322,11.146 10.12,11.146 C11.097,11.146 12.13,10.654 13.113,9.679 L16.293,6.526 C17.005,5.816 17.4,4.872 17.4,3.868 C17.4,2.863 17.005,1.919 16.291,1.209 L16.291,1.209 Z" id="Shape" sketch:type="MSShapeGroup"></path>
            </g>
        </g>
    </g>
</svg>