<?xml version="1.0" encoding="UTF-8" standalone="no"?>
<svg width="19px" height="15px" viewBox="0 0 19 15" version="1.1" xmlns="http://www.w3.org/2000/svg" xmlns:xlink="http://www.w3.org/1999/xlink" xmlns:sketch="http://www.bohemiancoding.com/sketch/ns">
    <!-- Generator: Sketch 3.3.3 (12072) - http://www.bohemiancoding.com/sketch -->
    <title>Shape</title>
    <desc>Created with Sketch.</desc>
    <defs></defs>
    <g id="Page-2" stroke="none" stroke-width="1" fill="none" fill-rule="evenodd" sketch:type="MSPage">
        <g id="Speaker-page" sketch:type="MSArtboardGroup" transform="translate(-293.000000, -526.000000)" fill="#FFFFFF" opacity="0.3">
            <g id="Group" sketch:type="MSLayerGroup" transform="translate(293.000000, 495.000000)">
                <path d="M16.516,34.722 C16.524,34.884 16.527,35.048 16.527,35.21 C16.527,40.2 12.73,45.952 5.787,45.952 C3.654,45.952 1.671,45.327 1.24344979e-14,44.255 C0.296,44.29 0.596,44.308 0.9,44.308 C2.67,44.308 4.297,43.704 5.588,42.693 C3.937,42.662 2.542,41.572 2.062,40.072 C2.292,40.115 2.529,40.138 2.772,40.138 C3.117,40.138 3.451,40.093 3.767,40.007 C2.04,39.659 0.739,38.134 0.739,36.304 L0.739,36.257 C1.248,36.54 1.831,36.71 2.449,36.73 C1.436,36.052 0.769,34.898 0.769,33.587 C0.769,32.896 0.955,32.247 1.281,31.689 C3.142,33.974 5.925,35.476 9.062,35.634 C8.998,35.357 8.965,35.07 8.965,34.773 C8.965,32.689 10.654,31 12.739,31 C13.825,31 14.806,31.457 15.495,32.191 C16.354,32.021 17.162,31.707 17.892,31.275 C17.61,32.156 17.011,32.896 16.232,33.363 C16.996,33.271 17.722,33.07 18.4,32.769 C17.894,33.527 17.254,34.191 16.516,34.722 L16.516,34.722 Z" id="Shape" sketch:type="MSShapeGroup"></path>
            </g>
        </g>
    </g>
</svg>