<svg xmlns="http://www.w3.org/2000/svg" width="242px" height="242px" viewBox="0 0 242 242">
  <g id="Page-1" fill="none" fill-rule="evenodd">
    <g id="Moon">
      <circle id="Oval-1" cx="121" cy="121" r="121" fill="#F5F4FD"/>
      <path id="Path-1" fill="#C1BFD1" d="M111.6 16c7.4 0 25.6 2.4 19.6-8 23.6 9.4-14.3 12-19.6 8z"/>
      <path id="Path-2" fill="#C1BFD1" d="M157.4 22c12.5 1.3 8 12.8-3.4 10-11.6-3-9-11.3 3.4-10z"/>
      <path id="Path-3" fill="#C1BFD1" d="M152.8 30c-24.2-1.6-26.7 13.3-13.3 21.6 13.3 8.3 37.6-20 13.3-21.5z"/>
      <path id="Path-4" fill="#C1BFD1" d="M169.8 26.5c10.2 1.7 4.8 6.3.3 8.3-4.4 2-10.3-10-.2-8.3z"/>
      <path id="Path-5" fill="#C1BFD1" d="M175 38.7c4.7 1.2 9.6 6 7 10.7-2.6 5-2.7 9.3-9.5 8-7-1-9.7-8.6-6.8-13 3-4.6 4.6-7 9.3-5.7z"/>
      <path id="Path-6" fill="#C1BFD1" d="M188 48c7.6 0 13.3 4.8 13.3 10s.2 9.4-.8 11c-1 1.8-7 2.3-11-4-4-6.4-9.4-17-1.6-17z"/>
      <path id="Path-7" fill="#C1BFD1" d="M112 35.3s8.4.8 10 4c1.8 3.3 2.5 8-3.4 9.5-6 1.5-14.7 2.3-17-2.3-2.6-4.5-1-10 1.2-10.7 2.2-.7 7-.3 7-.3s-4 .2-5.8 4.7c-2 4.5 2.2 5.4 7.3 5.4 5 0 6-3 5-6-1.4-3-4.2-4.3-4.2-4.3z"/>
      <path id="Path-8" fill="#C1BFD1" d="M95.7 41c-5.2 1-5.5 7.3.5 6.7 6-.6 4.8-7.7-.5-6.7z"/>
      <ellipse id="Oval-2" cx="50" cy="56.5" fill="#C1BFD1" rx="3" ry="1.5"/>
      <ellipse id="Oval-3" cx="60.5" cy="57.5" fill="#C1BFD1" rx="4.5" ry="3.5"/>
      <ellipse id="Oval-4" cx="71" cy="58.5" fill="#C1BFD1" rx="2" ry="2.5"/>
      <path id="Path-9" fill="#C1BFD1" d="M77.2 60s.7-3.3 4.3-3.3c3.5 0 5.7 2.7 5.7 3.7s-2.8 3-6.4 3c-3.6 0-3.6-3.4-3.6-3.4z"/>
      <path id="Path-10" fill="#C1BFD1" d="M100.7 57.6c5.2 4 3.7 7.7 2.7 9.8-1 2-4 5-8.7 3.4-4.7-1.8-6-5.8-6-9.5s6.8-7.7 12-3.7z"/>
      <path id="Path-11" fill="#C1BFD1" d="M106.2 58.4c0-4 5-5 6.5-5 3.5 0 6.3 3.2 6.3 7.5 0 4-5 9-7.4 8.2-4-1.6-5.3-6.4-5.4-10.8z"/>
      <path id="Path-12" fill="#C1BFD1" d="M119.2 50.7c2.5-3.8 8-6.4 11.8-6.4 3.7 0 9.3.4 7.6 4-1.6 3.3-4.2 7-4.2 9.7 0 2.8-.5 5.7-4.5 5.7s-13.2-9.2-10.8-13z"/>
      <path id="Path-13" fill="#C1BFD1" d="M117.7 80.6s-1.4-4.3 1-11c2.4-6.4 9.3-8 13.5-9 4.2-.7 11.6 6 12.6 11s1.2 14.5-1.6 19c-3 4.6-11 15.6-16.5 13.5-5.5-2-11-6.8-11-12s1.8-5.8 1.8-5.8.6 8.6 3.8 11c3.2 2.3 9 8.3 17.8-9.2 3.6-7.2 4.6-13.4 2.6-16.4-2-3-5.8-8.8-12.2-7.2-6.4 1.7-11.7 16.2-11.7 16.2z"/>
      <path id="Path-14" fill="#C1BFD1" d="M108 74c4 0 6 4.7 5 9-.7 4-3 7-5.3 7-2 0-6-6.7-5-11 1.3-4.5 1.2-5 5.2-5z"/>
      <path id="Path-15" fill="#C1BFD1" d="M160 48.4c11.3 1.2 22.6 10 24 15.3 1.2 5.4 1.3 19.2-2.5 21-3.7 2-11.7 4-20.8-8-9.2-12.2-14.4-20.8-11.7-25.4 2.8-4.6 0-4.2 11-3z"/>
      <path id="Path-16" fill="#C1BFD1" d="M169 85.8c-5 1.8-10.6 4.3-6.5 8.4 4 4 12.2 4.8 13.4 3.2 1-1.6 2.6-8.6-.6-11-3.2-2-1.5-2.4-6.4-.6z"/>
      <path id="Path-17" fill="#C1BFD1" d="M187.5 70.2c8 .7 12.7 4 13.8 13.7 1.2 9.5-1.2 12-4.3 14.2-3 2.2-9.3-3.5-11.8-10.8-2.6-7.3-5.5-17.8 2.3-17.2z"/>
      <path id="Oval-5" fill="#C1BFD1" d="M210 95c2 0 3-4.2 3-7.8 0-3.6-1.6-5.2-3.5-5.2-2 0-3.6 2.5-3.5 6 .2 3.4 2 7 4 7z"/>
      <ellipse id="Oval-6" cx="210.5" cy="111" fill="#C1BFD1" rx="6.5" ry="8"/>
      <path id="Path-18" fill="#C1BFD1" d="M144.6 101c-6.8 1.3-12.5 5.2-12.5 11 0 5.6 3.6 10 8 10 4.6 0 13.3-5.2 13.3-11.3 0-6-.5-9.8-3.5-10.4-3-.7 1.6-.6-5.2.7z"/>
      <path id="Path-19" fill="#C1BFD1" d="M99.8 112.8c2-6.6 2.7-9.4 6.5-9.4 3.7 0 5 4.7 5 7.3 0 2.7-.5 12.6-3 13.3-2.7.6-10.6-4.5-8.5-11.2z"/>
      <path id="Path-20" fill="#C1BFD1" d="M175.2 101.8c-6.7.6-10.7 2.2-10.7 10.5s3.3 16 6.6 17.5c3.5 1.7 12 1.2 13.7-4.7 1.8-5.8 1.6-18 0-20.2-1.6-2.4-2.7-3.7-9.5-3z"/>
      <path id="Path-21" fill="#C1BFD1" d="M183.4 101.4s-2-5.8 3.7-7.3c5.7-1.4 10.7 1 12 2.8 1.4 2 1.4 3 1.4 3s3-.8 3.5.6-1.7 4.2-1.7 4.2 4.6 1.3 3.8 4.8c-.7 3.5-5.2 7.8-7 8.6l.2 6s8-2 10.3 5.8c2 8-2.3 10-2.3 10s-1 18.3-9.4 16.4c0 4.4-.2 6.2-1 8.6-1 3.7-5 10.7-18.8 1-5.3-3.5-5 4.5-5 4.5s7.5 6.2 5 13.5c-2.7 7.3-3 8.6-10.4 8.6s-9.3-1.5-9.3-1.5 3 8.8-3 12.3c-6 3.4-16.8 5-19.3 3.7 0 1.7.4 6-9.8 6-10.2.3-11.6-13.5-6.5-17 5-3.6 10.6-5 16-5 5.5 0 7.4-7 7.4-7s-5-13.2 5.6-12c10.6 1 5.4 11 5.4 11s2.5.6 3.4 0c1-.5 1.7-3.2.8-5-.8-2-7.4-7.7-6.7-20.7.4-6.5 3-10.7 8-11.8 5-1.2 8 1.8 8 1.8s2.2 2 3.4.6c1-1.5 4.2-7.6 7.6-8.2 3.5-.5 3.7-4.2 3.2-8-1 .3-2 1.4-9.7-.8.3 4.2 0 6-2.4 8.8-2.2 3-9.7 2.8-10.7-3-1-5.7 0-9.6 2.8-10.5 2.6-1 4.7-.4 6.3-.4 1.6 0 14.7-10 14.7-15s.7-9.6.7-9.6z"/>
      <ellipse id="Oval-7" cx="188.5" cy="182.5" fill="#C1BFD1" transform="rotate(33 188.5 182.5)" rx="3.5" ry="6.5"/>
      <path id="Path-22" fill="#C1BFD1" d="M107 132.8s7-.6 8 2.5c1 3 1 8.8-1.8 10.4-2.8 1.6-11 4-12.8-.3-1.6-4.3-2-9.3-1-9.7.7 3.3 1.6 10 6 9.5 4-.6 8-3.5 7-7-.8-3.6-5.5-5.4-5.5-5.4z"/>
      <path id="Path-23" fill="#C1BFD1" d="M18.5 109.3c1.8.3 6.5 3 6.5 6.4 0 3.6 0 9.7-3 10.2-3.3.3-10.8-2.6-11.7-6.6-1-4-1.8-8 .6-9.5 2.3-1.5 5.6-1 7.5-.7zm-2.7 3c2.5.6 3 1 4.4 3.2 1.5 2.2 3 7-.4 7-2-.7-7-2.3-7.3-6.2-.3-3.8 1-4.3 3.3-4z"/>
      <path id="Path" fill="#C1BFD1" d="M43.4 165c1.7.6 9.2 5.8 10 9 1 3.3 6 14.4.4 17.8-5.7 3.4-17.4 2.7-21-.7-3.3-3.3-11.2-12.4-7.3-22 4-9.4 16-4.7 18-4zm-4.5-.2c4 1 9 1.3 13 12.2 4 11-1 14.2-4.5 15.3-6.7 2-18-2.5-20.4-12.3-2.4-9.7 1-12.4 3-14 1.6-1.5 4.6-2 9-1.2z"/>
    </g>
  </g>
</svg>
