<?xml version="1.0" encoding="UTF-8" standalone="no"?>
<svg width="112px" height="202px" viewBox="0 0 112 202" version="1.1" xmlns="http://www.w3.org/2000/svg" xmlns:xlink="http://www.w3.org/1999/xlink" xmlns:sketch="http://www.bohemiancoding.com/sketch/ns">
    <!-- Generator: Sketch 3.3.2 (12043) - http://www.bohemiancoding.com/sketch -->
    <title>group-1</title>
    <desc>Created with Sketch.</desc>
    <defs>
        <filter x="-50%" y="-50%" width="200%" height="200%" filterUnits="objectBoundingBox" id="filter-1">
            <feOffset dx="1" dy="2" in="SourceAlpha" result="shadowOffsetOuter1"></feOffset>
            <feGaussianBlur stdDeviation="0" in="shadowOffsetOuter1" result="shadowBlurOuter1"></feGaussianBlur>
            <feColorMatrix values="0 0 0 0 0   0 0 0 0 0   0 0 0 0 0  0 0 0 0.35 0" in="shadowBlurOuter1" type="matrix" result="shadowMatrixOuter1"></feColorMatrix>
            <feMerge>
                <feMergeNode in="shadowMatrixOuter1"></feMergeNode>
                <feMergeNode in="SourceGraphic"></feMergeNode>
            </feMerge>
        </filter>
        <path id="path-2" d="M94.5,200 L88,200 C88,198.619 86.881,197.5 85.5,197.5 C84.119,197.5 83,198.619 83,200 L78,200 C78,198.619 76.881,197.5 75.5,197.5 C74.119,197.5 73,198.619 73,200 L68,200 C68,198.619 66.881,197.5 65.5,197.5 C64.119,197.5 63,198.619 63,200 L58,200 C58,198.619 56.881,197.5 55.5,197.5 C54.119,197.5 53,198.619 53,200 L48,200 C48,198.619 46.881,197.5 45.5,197.5 C44.119,197.5 43,198.619 43,200 L38,200 C38,198.619 36.881,197.5 35.5,197.5 C34.119,197.5 33,198.619 33,200 L28,200 C28,198.619 26.881,197.5 25.5,197.5 C24.119,197.5 23,198.619 23,200 L16.5,200 C16.5,191.164 9.337,184 0.5,184 L0.5,16 C9.337,16 16.5,8.836 16.5,0 L23,0 C23,1.381 24.119,2.5 25.5,2.5 C26.881,2.5 28,1.381 28,0 L33,0 C33,1.381 34.119,2.5 35.5,2.5 C36.881,2.5 38,1.381 38,0 L43,0 C43,1.381 44.119,2.5 45.5,2.5 C46.881,2.5 48,1.381 48,0 L53,0 C53,1.381 54.119,2.5 55.5,2.5 C56.881,2.5 58,1.381 58,0 L63,0 C63,1.381 64.119,2.5 65.5,2.5 C66.881,2.5 68,1.381 68,0 L73,0 C73,1.381 74.119,2.5 75.5,2.5 C76.881,2.5 78,1.381 78,0 L83,0 C83,1.381 84.119,2.5 85.5,2.5 C86.881,2.5 88,1.381 88,0 L94.5,0 C94.5,8.836 101.664,16 110.5,16 L110.5,184 C101.664,184 94.5,191.164 94.5,200 L94.5,200 Z"></path>
    </defs>
    <g id="Page-1" stroke="none" stroke-width="1" fill="none" fill-rule="evenodd" sketch:type="MSPage">
        <g id="group-1" sketch:type="MSLayerGroup">
            <g id="path-2-+-path-3-Mask">
                <mask id="mask-3" sketch:name="Mask" fill="white">
                    <use xlink:href="#path-2"></use>
                </mask>
                <use id="Mask" fill="#BDE4F3" filter="url(#filter-1)" sketch:type="MSShapeGroup" xlink:href="#path-2"></use>
                <path d="M96.5,247 C63.087,247 36,219.913 36,186.5 C36,153.087 63.087,126 96.5,126 C129.913,126 157,153.087 157,186.5 C157,219.913 129.913,247 96.5,247 Z" id="path-2" stroke="#9AD5EC" stroke-width="10" fill-opacity="0" fill="#9CE1D7" sketch:type="MSShapeGroup" mask="url(#mask-3)"></path>
                <path d="M134.055,184 C134.055,206.122 116.122,224.055 94,224.055 C71.878,224.055 53.945,206.122 53.945,184 C53.945,161.878 71.878,143.944 94,143.944 C116.122,143.944 134.055,161.878 134.055,184 L134.055,184 Z" id="path-3" stroke="#9AD5EC" stroke-width="5" fill-opacity="0" fill="#9CE1D7" sketch:type="MSShapeGroup" mask="url(#mask-3)"></path>
            </g>
            <path d="M101,20 L101,180 L11,180 L11,20 L101,20 L101,20 Z" id="path-4" stroke="#79B8D0" stroke-width="4" fill-opacity="0" fill="#FFFFFF" sketch:type="MSShapeGroup"></path>
        </g>
    </g>
</svg>