<?xml version="1.0" encoding="utf-8"?>
<!-- Generator: Adobe Illustrator 16.0.0, SVG Export Plug-In . SVG Version: 6.00 Build 0)  -->
<!DOCTYPE svg PUBLIC "-//W3C//DTD SVG 1.1//EN" "http://www.w3.org/Graphics/SVG/1.1/DTD/svg11.dtd">
<svg version="1.1" id="Layer_1" xmlns="http://www.w3.org/2000/svg" xmlns:xlink="http://www.w3.org/1999/xlink" x="0px" y="0px"
	 width="270px" height="160px" viewBox="0 0 270 160" enable-background="new 0 0 270 160" xml:space="preserve">
<g>
	<defs>
		<rect id="SVGID_19_" x="33" y="-2" width="204" height="162"/>
	</defs>
	<clipPath id="SVGID_2_">
		<use xlink:href="#SVGID_19_"  overflow="visible"/>
	</clipPath>
	<g clip-path="url(#SVGID_2_)">
		<circle fill="#F0F0F1" cx="127.5" cy="53.8" r="0.9"/>
		<path fill="#3D3131" d="M94.6,70.4v3.5v7.8v2.7c0,0-0.7,3-2.8,0.8s-2.3-2.9-2.3-2.9V70.8l0-2"/>
		<rect x="92.9" y="72.4" fill="#C88A85" width="45" height="62"/>
		<polygon fill="#CACACA" points="115.4,107.7 123.6,131.1 142.2,153.7 158.9,184.4 167.2,167.1 154.2,132.4 140.2,113.7 		"/>
		<path fill="#EBA9A1" d="M94.2,57.4l-8-3.7c0,0-1.8,14.1,3.3,17.1s6.7,2.5,6.7,2.5s0,13,8.3,18.3s14.7,10.3,23.3,11.3
			s13-4.3,15.3-10.7c2.3-6.3,3.7-9.3,3.7-9.3l6-30l-6-28.7l-37.7-6.7L92.9,35.4L94.2,57.4z"/>
		
			<line fill="none" stroke="#C88A85" stroke-width="0.5" stroke-linecap="round" stroke-miterlimit="10" x1="125.2" y1="37.1" x2="148.7" y2="37.1"/>
		
			<line fill="none" stroke="#C88A85" stroke-width="0.5" stroke-linecap="round" stroke-miterlimit="10" x1="125.6" y1="40.1" x2="149.1" y2="40.1"/>
		
			<line fill="none" stroke="#C88A85" stroke-width="0.5" stroke-linecap="round" stroke-miterlimit="10" x1="148.7" y1="43.5" x2="121.9" y2="43.5"/>
		<polygon fill="#EDEFEF" points="92.6,89.7 125.9,107.7 125.9,132.1 92.6,96.4 		"/>
		<path fill="#3D3131" d="M137.9,104.1l6,12.3l12.7,4.7c0,0,5.7,3.7,7.3,9.7s5,14,5,14l7,20.3l-14.7,9.3l-20-49.3L137.9,104.1z"/>
		<polygon fill="#352929" points="127.9,112.1 128.2,130.1 138.6,117.1 144.9,119.1 144.9,104.4 137.6,113.1 		"/>
		<path fill="#3D3131" d="M82.6,106.7l-24.3,26.7c0,0-5,6-5.7,18s1.3,30.3,1.3,30.3h103.3l-29-41.3l-39-31L82.6,106.7z"/>
		<path fill="#070909" d="M174.8,54.9c0,0.9-0.8,1.6-1.7,1.6h-6.4c-0.9,0-1.6-1.1-1.6-2V15.2c0-0.9,0.6-1.6,1.5-1.5h6.8
			c0.9,0,1.4,1.1,1.3,2V54.9z"/>
		<path fill="#070909" d="M164.7,59.8v44.4l4.9,4.1c0,0-1.8-0.7,3,2.1c4.8,2.8,9.2,6.3,9.2,6.3l19.7,1l-11.8-30.7l-1.4-9.2
			c0,0-0.3-4.3-3.7-4.3c-2.9,0-6.4-2.2-6.8-4.5c-0.7-4.5-0.4-5.8-1.3-6.5c-0.4-0.3-1.4-1.1-1.4-1.1v-3.7h-10.5V59.8z"/>
		<path fill="#81BC5D" d="M188.2,85.6c0.2,2.4-1.5,4.5-3.8,4.7l0,0c-2.4,0.2-4.5-1.5-4.7-3.8l-0.7-7c-0.2-2.4,1.5-4.5,3.8-4.7l0,0
			c2.4-0.2,4.5,1.5,4.7,3.8L188.2,85.6z"/>
		
			<line fill="none" stroke="#3D3131" stroke-width="0.5" stroke-linecap="square" stroke-miterlimit="10" x1="168.6" y1="57.4" x2="168.6" y2="108.2"/>
		<path fill="none" stroke="#3D3131" stroke-width="0.5" stroke-linecap="round" stroke-miterlimit="10" d="M174.6,90.2L174,62.9
			c0,0-1.7-0.5-2.3-2.6c-0.4-1.2-0.3-2.7-0.3-2.7"/>
		<path fill="#EBA9A1" d="M178.8,79.5l-4.9,5.1c0,0-2.5,1.7-2.5,3.5c0,1.8-0.1,19.2-0.1,19.2s-1.2,5.2,2.8,12.2
			c4,7,6.3,9.5,6.3,16.2c0,6.7-0.4,7.7-0.4,7.7l24.3,6.6l2-15.2c0,0,1.9,0.1,2.6-2.4c0.7-2.5-1.2-18.2-1.2-18.2l1.1-18.5
			c0,0,0.7-4-2.8-4c-3.5,0-3.7,1.3-3.7,1.3s0.2-3.2-2.5-3.8c-2.7-0.7-4.5,0-4.5,0s-1.6-3.7-3.6-3.7c-2,0-4.3,0-4.3,0l-5.6,11.6
			l-1.2,0.5l-0.2-1.5l0-8.7l5-2.3l0.3-3.5l-2.8-1.8L178.8,79.5z"/>
		<polygon fill="#352929" points="221.6,154.8 180,143.4 176.2,157.2 215.8,174.1 		"/>
		<polygon fill="#3D3131" points="223.1,177.1 176.2,157.2 167.1,185.8 215.7,186.1 219.1,186.1 		"/>
		<path fill="#352929" d="M91.9,92.7l-11,17.5l55.5,47l21,36c0,0,1.2,0.2,0.5-2.5s-0.3-11.3-0.3-11.3l-17.7-31L91.9,92.7z"/>
		<path fill="#3D3131" d="M170.2,84.2c0,1.4-1.2,2.6-2.6,2.6l0,0c-1.4,0-2.6-1.2-2.6-2.6l0-4.2c0-1.4,1.2-2.6,2.6-2.6l0,0
			c1.4,0,2.6,1.2,2.6,2.6L170.2,84.2z"/>
		<rect x="166.1" y="55.5" fill="#070909" width="7.6" height="2.1"/>
		<path fill="#3D3131" d="M99.2,65.9l0.2-15.2c0,0,2.1-1.5,2.1-6c0-4.4-2.5-6.2-2.5-6.2v-6.7c0,0,0-0.5,0-0.7
			c0.3-4.3,3.4-6.5,6.1-7.4c1.2-0.4,3-0.2,3-0.2H120c0,0,2.3,0,2.9,0.1c1.4,0.2,2.7,0.9,3.7,1.9c0.4,0.4,1.1,1.5,1.1,1.5
			s1.8,2.1,2.2,2.7c2.1,2.8,7.5,1.2,13.6,1.9c7,0.8,5.2,10.7,5,14.5c-0.2,3.8,2.3,5.5,2.3,5.5l-0.3,12.2l1.7-0.8
			c0,0-0.3-7.8,1.8-9.3c2.2-1.5,2.8-3.2,2.8-3.2s0.8-14.8,0.8-18.2s1.5-8.8-2.8-8.8c-2.9,0-5.8,0.8-5.5-5.1
			c0.5-10.4-9.7-9.4-9.7-9.4h-25.7h-9c0,0-13.7-0.8-13.7,12.2c0,2.1,0.1,1.6,0,2.8c-0.2,3.5-1.3,3.4-4.3,3.4c-3.9,0-3.5,4.9-3.5,4.9
			v13.5v3c0,0-0.2,2.2,0.5,3.2c0.8,1.1,5.2,4.9,5.2,4.9L99.2,65.9z"/>
	</g>
</g>
</svg>
