<?xml version="1.0" encoding="utf-8"?>
<!-- Generator: Adobe Illustrator 16.0.0, SVG Export Plug-In . SVG Version: 6.00 Build 0)  -->
<!DOCTYPE svg PUBLIC "-//W3C//DTD SVG 1.1//EN" "http://www.w3.org/Graphics/SVG/1.1/DTD/svg11.dtd">
<svg version="1.1" id="Layer_1" xmlns="http://www.w3.org/2000/svg" xmlns:xlink="http://www.w3.org/1999/xlink" x="0px" y="0px"
	 width="270px" height="160px" viewBox="0 0 270 160" enable-background="new 0 0 270 160" xml:space="preserve">
<g>
	<g>
		<path fill="#242D3D" d="M208.2,160H61.8l33.3-15.2l6.7-9.8V55l10-32v32c0,0,19.8-7,23.5-7c2.6,0,24.5,7,24.5,7V23l9.3,32v80
			l6.1,9.7L208.2,160z"/>
		<polygon fill="#EBA9A1" points="123.3,97.3 134.8,106.7 145.3,97.3 158.8,106.3 158.8,116.3 144.3,133.8 128.3,133.8 111.3,117.8 
			111.3,105.8 		"/>
		<polygon fill="#FFFFFF" points="139,84 146,87.7 151.7,86 153.7,82.3 		"/>
		<polygon fill="#FFFFFF" points="129,84.3 122,88 116.3,86.3 114.3,82.7 		"/>
	</g>
	<path fill="#1A222D" d="M108.9,101.3c0,1.3-1,2.3-2.3,2.3l0,0c-1.3,0-2.3-1-2.3-2.3v-38c0-1.3,1-2.3,2.3-2.3l0,0
		c1.3,0,2.3,1,2.3,2.3V101.3z"/>
	<polygon fill="#1A222D" points="137.9,148.3 137.9,159.9 208.2,159.9 175.3,144.7 169.2,135 151.9,148.3 	"/>
</g>
</svg>
