<?xml version="1.0" encoding="utf-8"?>
<!-- Generator: Adobe Illustrator 16.0.0, SVG Export Plug-In . SVG Version: 6.00 Build 0)  -->
<!DOCTYPE svg PUBLIC "-//W3C//DTD SVG 1.1//EN" "http://www.w3.org/Graphics/SVG/1.1/DTD/svg11.dtd">
<svg version="1.1" id="Layer_1" xmlns="http://www.w3.org/2000/svg" xmlns:xlink="http://www.w3.org/1999/xlink" x="0px" y="0px"
	 width="270px" height="160px" viewBox="0 0 270 160" enable-background="new 0 0 270 160" xml:space="preserve">
<g>
	<defs>
		<rect id="SVGID_27_" x="10.1" y="4.7" width="249.7" height="155.3"/>
	</defs>
	<clipPath id="SVGID_2_">
		<use xlink:href="#SVGID_27_"  overflow="visible"/>
	</clipPath>
	<g clip-path="url(#SVGID_2_)">
		<path fill="#3C97D3" d="M228.5,208.4c0,14.3-11.6,25.9-25.9,25.9h-141c-14.3,0-25.9-11.6-25.9-25.9l15-65.8
			c0-14.3,11.6-25.9,25.9-25.9c0,0,42.3-15.8,56.3-15.8c14.2,0,56.9,15.8,56.9,15.8c14.3,0,25.9,11.6,25.9,25.9L228.5,208.4z"/>
		<path fill="#D79B97" d="M156.5,115.4c0,0-5.7,7.8-22.7,7.8c-21.5,0-23.1-6.4-23.1-6.4l2.4-29.4h40.4L156.5,115.4z"/>
		<path fill="#EBA9A1" d="M160.4,85.4c0,1.1-15.3,22.3-15.3,22.3h-21.2c0,0-16.3-20.3-16.3-22.3L104.5,39c0-3.8,3.1-6.8,6.8-6.8
			h45.3c3.8,0,6.8,3.1,6.8,6.8L160.4,85.4z"/>
		<path fill="#3D3131" d="M133.5,56.2"/>
		<g>
			<polygon fill-rule="evenodd" clip-rule="evenodd" fill="#F26F70" points="97.9,128.6 168.7,128.6 185.7,145.6 132.4,200 
				80.6,144.2 97.9,128.6 			"/>
			<path fill-rule="evenodd" clip-rule="evenodd" fill="#EAC05C" d="M100.6,137l-9.1,8.9l5.7,6.2c-1.2-5.3,1.3-11.8,7.8-14.8
				L100.6,137L100.6,137z"/>
			<path fill-rule="evenodd" clip-rule="evenodd" fill="#EAC05C" d="M168.4,147.5h-14.3V145c-6.2-6.1-18.2-9.6-30.4-6.5
				c-9.6,3.6-9.8,10.3,0.9,12.2c6.9,1,14.4,0.9,22.5-0.1c7.9-1.3,14.8,1.4,16.3,6.5l11.5-11.9l-6.5-5.5L168.4,147.5L168.4,147.5z"/>
			<path fill-rule="evenodd" clip-rule="evenodd" fill="#EAC05C" d="M156.1,137.3h1.8c-0.4,0.6-0.6,1.2-0.8,1.9
				C156.9,138.4,156.6,137.8,156.1,137.3L156.1,137.3z"/>
		</g>
		<polygon fill="#F26F70" points="111.2,112 86.4,120.3 80.1,115 111.9,104.3 		"/>
		<polygon fill="#F26F70" points="156.2,112.5 180.8,120.7 187.1,115.4 155.3,104.7 		"/>
		<polygon fill="#D99D99" points="113.7,40.7 113.7,57.2 110.3,60.6 123.8,108.6 106.8,86.3 104.7,56.6 107.9,42.8 		"/>
		<path fill="#3D3131" d="M164,56.5c0,0,0-10.9,0-19.3s-9.1-9.1-9.1-9.1h-0.8c0-9.9-12.1-9.3-12.1-9.3s-4.8,0-11.8,0
			c-9.9,0-15.3,9.6-15.3,9.6h-1.9c0,0-3.5-0.1-6.2,2.1c-3,2.4-2.7,6.2-2.7,6.2v19.8h3.5v-6.7h2.1c0,0,2.4,0.2,2.4-2.7c0-6.6,0-3,0-3
			s-0.6-3.1,3.1-3.1c3.8,0,18.3,0,18.3,0s2.9,3.5-1.3,6c-3.4,2-6.4-0.3-6.4-0.3s4.2,5.8,11.5,2.2c4.9-2.4,3-8.2,3-8.2h13.7
			c0,0,2.9,0.3,2.9,2.9c0,2.6,0,4.4,0,4.4s0,1.8,2,1.8c2.7,0,2.2,0,2.2,0v6.9L164,56.5z"/>
	</g>
</g>
</svg>
