<?xml version="1.0" encoding="utf-8"?>
<!-- Generator: Adobe Illustrator 16.0.0, SVG Export Plug-In . SVG Version: 6.00 Build 0)  -->
<!DOCTYPE svg PUBLIC "-//W3C//DTD SVG 1.1//EN" "http://www.w3.org/Graphics/SVG/1.1/DTD/svg11.dtd">
<svg version="1.1" id="Layer_1" xmlns="http://www.w3.org/2000/svg" xmlns:xlink="http://www.w3.org/1999/xlink" x="0px" y="0px"
	 width="270px" height="160px" viewBox="0 0 270 160" enable-background="new 0 0 270 160" xml:space="preserve">
<g>
	<defs>
		
			<rect id="SVGID_1_" x="38.986" y="10.685" transform="matrix(1 0.0032 -0.0032 1 0.2749 -0.4341)" width="192.03" height="149.007"/>
	</defs>
	<clipPath id="SVGID_2_">
		<use xlink:href="#SVGID_1_"  overflow="visible"/>
	</clipPath>
	<g clip-path="url(#SVGID_2_)">
		<polygon fill="#F1B8A9" points="115.488,40.062 148.064,38.882 149.297,52.396 152.584,59.809 155.619,76.683 153.117,88.203 
			144.215,102.64 135.838,110.786 123.642,109.458 117.685,101.386 112.048,92.622 110.389,88.812 107.011,65.567 105.088,51.731 		
			"/>
		<path fill="#F1B8A9" d="M110.418,86.143c1.042,1.891,1.813,2.271,3.633,1.99l0,0c0.974-0.175,2.056-1.579,1.775-3.399
			l-1.838-11.894c-0.282-1.823-2.578-4.48-4.399-4.199c0,0-5.518-0.271-4.566,5.884L110.418,86.143z"/>
		<path fill="#E2A69C" d="M158.313,60.851l2.119,31.041c0,0-1.068,6.433,7.582,7.499c9.822,1.212,17.467,1.248,24.309,2.922
			c4.707,1.149,17.584,1.751,24.07,16.513c3.963,9.023,2.697,13.299,3.438,18.098c1.285,8.313,6.984,14.015,9.26,24.583
			c2.275,10.567,3.15,18.996,3.15,18.996s2.057,9.854-0.986,18.569c-2.691,7.707-6.463,14.875-11.725,12.689
			c-4.838-2.007-12.955-4.85-12.955-4.85l-91.54-2.126L98.823,163.61c0,0-2.236,11.414-10.903,19.462
			c-4.667,4.333-12.667,21-12.667,21l-22.667-0.667c0,0,4.56-23.487,8.176-33.914c7.257-20.927,8.761-30.66,14.99-44.92
			c4.459-10.208,14.128-15.508,18.875-17.375c4.531-1.782,7.7-1.651,13.625-4.125c4.046-1.689,5.125-3.375,10.125-4.75
			c1.449-0.398,5.7,15.352,17.459,12.465c5.4-1.327,17.279-22.583,17.279-22.583l0.262-2.873l1.787-5.993l0.23-16.07L158.313,60.851
			z"/>
		<path fill="#D69A96" stroke="#BB8080" stroke-miterlimit="10" d="M184.574,144.205c0.457,16.468,7.445,21.168,7.445,21.168"/>
		
			<path fill="#FFFFFF" stroke="#575757" stroke-width="2" stroke-linecap="round" stroke-linejoin="round" stroke-miterlimit="10" d="
			M168.014,99.391c0,0-3.498,0.221-6.34,10.936c-2.248,8.486-7.389,29.083-7.389,29.083s-2.873,17.789-19.667,17.172
			c-9.71-0.358-17.874-6.553-16.579-18.957c1.294-12.404,3.021-28.249,3.021-28.249l-2.088-3.638l-3.237-2.766
			c0,0-2.463,16.278-9.95,62.399c-0.778,4.788-4.521,5.034-4.521,5.034c1.862,5.816,13.994,34.45,13.994,34.45l90.931,2.329
			l-17.779-45.429c0,0-3.521,2.152-12.469-6.903c-4.232-4.283-14.189-18.041-6.703-46.498c2.342-8.902,5.521-7.919,5.521-7.919
			L168.014,99.391z"/>
		<circle fill="#3D3131" cx="122.744" cy="24.836" r="12.035"/>
		<path fill="#3D3131" d="M147.279,28.94c-12.401-5.976-26.79-5.71-36.542,2.541c-3.786,3.204-8.419,9.541-9.037,18.765
			c-0.102,1.517-0.047,4.799-0.047,4.799l1.5,9.712c0,0,0.235,2.653,2.045,3.979c1.469,1.076,2.914,8.115,2.914,8.115l1.218,7.198
			c0,0-0.054,3.114,1.003,7.875c1.057,4.762,7.208,12.696,10.565,17.102c0.529,0.694,2.684,3.173,2.684,3.173
			s2.181,3.195,10.306,2.262c7.813-0.899,10.049-4.604,10.049-4.604s9.281-14.067,11.506-18.371
			c2.227-4.306,1.611-8.279,1.611-8.279l-1.648-12.021c0.219-0.248,0.348-0.554,0.289-0.937c-0.227-1.463,1.734-5.407,1.734-5.407
			l1.91,17.905l1.23,13.513c0,0,1.623-4.745,1.557-7.946c-0.066-3.203-1.035-6.692-1.035-6.692s2.934-18.438,3.432-19.372
			s0.705-3.748,0.705-3.748s-0.016-0.105-1.34-8.68C162.484,40.739,156.533,33.399,147.279,28.94z M154.383,78.587l0.268,1.726
			c0,0,0.229,2.399-2.734,3.58c-1.674,0.667-3.412,0.429-5.162,4.429c-1.746,3.988-1.346,3.581-4.596,11.122
			c-0.855,1.984-1.766,2.879-3.154,3.878c-1.744,1.254-3.285,1.257-3.285,1.257l-7.11,1.099c0,0-2.984,0.782-5.06-0.877
			c-1.111-0.89-2.795-3.604-2.795-3.604s-2.134-3.258-2.775-4.238c-1.419-2.172-2.183,0.172-4.808-4.349
			c-2.426-4.175-2.543-6.405-2.543-6.405l-1.439-9.319h0c0,0-1.042-11.601-1.1-12.663s1.447-1.722,1.447-1.722
			s-0.451-0.179-1.15-1.249c-0.701-1.067-0.776-2.77-0.984-4.116c-1.24-8.024,5.765-8.203,5.765-8.203l7.175-1.109l2.019,1.374
			l1.72-2.112c0,0,2.718-0.34,9.237-1.106c8.618-1.014,11.183,3.091,11.685,7.724s3.77,5.776,5.766,6.817
			c1.047,0.547,1.111,1.86,1.111,1.86l1.486,9.62L154.383,78.587z"/>
		<path fill="#F1B8A9" d="M163.053,79.723c-0.422,2.116-1.043,2.711-2.863,2.992l0,0c-0.98,0.128-2.436-0.885-2.717-2.704
			l-1.838-11.895c-0.281-1.821,1.105-5.047,2.928-5.329c0,0,5.178-1.925,6.129,4.23L163.053,79.723z"/>
		
			<text transform="matrix(0.9728 -0.2316 0.2316 0.9728 131.2803 208.9229)" fill="#3D3131" font-family="'LeagueGothic-Regular'" font-size="47.8707">10</text>
	</g>
</g>
</svg>
