<?xml version="1.0" encoding="utf-8"?>
<!-- Generator: Adobe Illustrator 16.0.0, SVG Export Plug-In . SVG Version: 6.00 Build 0)  -->
<!DOCTYPE svg PUBLIC "-//W3C//DTD SVG 1.1//EN" "http://www.w3.org/Graphics/SVG/1.1/DTD/svg11.dtd">
<svg version="1.1" id="Layer_1" xmlns="http://www.w3.org/2000/svg" xmlns:xlink="http://www.w3.org/1999/xlink" x="0px" y="0px"
	 width="270px" height="160px" viewBox="0 0 270 160" enable-background="new 0 0 270 160" xml:space="preserve">
<g>
	<defs>
		<rect id="SVGID_25_" x="24.8" y="3.5" width="220.5" height="156.5"/>
	</defs>
	<clipPath id="SVGID_2_">
		<use xlink:href="#SVGID_25_"  overflow="visible"/>
	</clipPath>
	<rect x="104.8" y="72.2" clip-path="url(#SVGID_2_)" fill="#E2A69C" width="34" height="51.3"/>
	<path clip-path="url(#SVGID_2_)" fill="#C9C7C8" d="M184.5,177.2c0,9.6-7.8,17.4-17.4,17.4H75.6c-9.6,0-17.4-7.8-17.4-17.4v-49
		c0-9.6,7.8-17.4,17.4-17.4l25.2-4c0,0,1.4,0.1,2-0.7c0.5-0.6,0.5-1.7,0.5-1.7v-7.1c0,0,0-0.5,0.3-0.7c0,0,0.4-0.3,0.9,0
		c2.2,1.4,7.4,4.3,17.6,4.3c10.2,0,15.4-3.4,17.2-5c0.2-0.2,0.4-0.2,0.6-0.2c0.3,0.1,0.2,0.5,0.2,0.5v6.3c0,0,0,1.6,0.9,2.8
		c1.1,1.6,4.1,2.3,4.1,2.3l22.1,6.2c10.1,2.8,17.4,7.8,17.4,17.4V177.2z"/>
	<path clip-path="url(#SVGID_2_)" fill="#3D3131" d="M76.4,153.1c0,1.4-1.1,2.5-2.5,2.5h-9.3c-1.4,0-2.5-1.1-2.5-2.5V87.4
		c0-1.4,1.1-2.5,2.5-2.5H74c1.4,0,2.5,1.1,2.5,2.5V153.1z"/>
	<ellipse clip-path="url(#SVGID_2_)" fill="#3D3131" cx="120.6" cy="38.8" rx="26.8" ry="26.1"/>
	<path clip-path="url(#SVGID_2_)" fill="#3D3131" d="M161.4,73.2c0,4.6-3.7,8.3-8.3,8.3l0,0c-4.6,0-8.3-3.7-8.3-8.3v-36
		c0-4.6,3.7-8.3,8.3-8.3l0,0c4.6,0,8.3,3.7,8.3,8.3V73.2z"/>
	<path clip-path="url(#SVGID_2_)" fill="#3D3131" d="M99.1,73.2c0,4.6-3.7,8.3-8.3,8.3l0,0c-4.6,0-8.3-3.7-8.3-8.3v-36
		c0-4.6,3.7-8.3,8.3-8.3l0,0c4.6,0,8.3,3.7,8.3,8.3V73.2z"/>
	<path clip-path="url(#SVGID_2_)" fill="#F1B8AA" d="M144.6,66.4c0,13.1-10.2,28.6-22.8,28.6S99.1,78.1,99.1,66.4
		c0-15.8-3-32.7,22.8-32.7C148,33.7,144.6,50.6,144.6,66.4z"/>
	<path clip-path="url(#SVGID_2_)" fill="#EBA9A1" d="M58.4,189.9l-7.3-29.5c0,0-2.3-5.5-3-13.5s-0.3-18.8-0.3-18.8s2.9-2.9,5.8-4.4
		c2.9-1.6,5-3.6,5-3.6v-6.4c0,0,0-2.1,1.3-3.2c1.5-1.3,4-0.8,4-0.8h6.8c0,0,0.6,2.1-0.7,3.9c-1.2,1.6-3.7,1.8-3.7,1.8l-1.6,0v3.3
		c0,0,6,1.5,6.8,3.3s1,0.3,1,0.3s0.3-1.8,2-1.3s4.8,6,4.8,6l-1.5,9.8c0,0-4.8,7-7,8.8s-4.3,3.3-4,8.5s4,13.8,4,13.8
		s-10.8,28-10.8,28.8s-0.3,3.8-0.3,3.8L58.4,189.9z"/>
	<g clip-path="url(#SVGID_2_)">
		<path fill="#3D3131" d="M75.2,87.8c0,1.1-0.9,2.1-2.1,2.1h-7.8c-1.1,0-2.1-0.9-2.1-2.1V21.3c0-1.1,0.9-2.1,2.1-2.1h7.8
			c1.1,0,2.1,0.9,2.1,2.1V87.8z"/>
		<g>
			<circle fill="#C9C7C8" cx="69.3" cy="51.7" r="2"/>
			<circle fill="#C9C7C8" cx="69.3" cy="59.9" r="2"/>
			<circle fill="#C9C7C8" cx="69.3" cy="68.1" r="2"/>
			<circle fill="#C9C7C8" cx="69.3" cy="76.2" r="2"/>
			<circle fill="#C9C7C8" cx="69.3" cy="84.4" r="2"/>
		</g>
		<rect x="74.8" y="36.4" fill="#3D3131" width="2.5" height="46"/>
	</g>
	<polygon clip-path="url(#SVGID_2_)" fill="#3D3131" points="90.8,110.7 75.7,112.7 75.7,100.6 90.8,98.6 	"/>
	<polygon clip-path="url(#SVGID_2_)" fill="#3D3131" points="98.9,107.9 90,109.1 90,99.8 98.9,98.6 	"/>
	<polygon clip-path="url(#SVGID_2_)" fill="#C9C7C8" points="98.5,107.5 96,107.9 96,99.5 98.5,99.1 	"/>
	<path clip-path="url(#SVGID_2_)" fill="#3D3131" d="M70,136.9c0,1.7-1.9,3.2-4.4,3.2l0,0c-2.4,0-4.4-1.4-4.4-3.2v-10
		c0-1.7,1.9-3.2,4.4-3.2l0,0c2.4,0,4.4,1.4,4.4,3.2V136.9z"/>
	<path clip-path="url(#SVGID_2_)" fill="none" stroke="#FFFFFF" stroke-miterlimit="10" d="M249.3,17.9"/>
</g>
</svg>
