<?xml version="1.0" encoding="utf-8"?>
<!-- Generator: Adobe Illustrator 16.0.0, SVG Export Plug-In . SVG Version: 6.00 Build 0)  -->
<!DOCTYPE svg PUBLIC "-//W3C//DTD SVG 1.1//EN" "http://www.w3.org/Graphics/SVG/1.1/DTD/svg11.dtd">
<svg version="1.1" id="Layer_1" xmlns="http://www.w3.org/2000/svg" xmlns:xlink="http://www.w3.org/1999/xlink" x="0px" y="0px"
	 width="270px" height="160px" viewBox="0 0 270 160" enable-background="new 0 0 270 160" xml:space="preserve">
<g>
	<defs>
		<rect id="SVGID_23_" x="35.9" y="-8.5" width="198.2" height="168.5"/>
	</defs>
	<clipPath id="SVGID_2_">
		<use xlink:href="#SVGID_23_"  overflow="visible"/>
	</clipPath>
	<g clip-path="url(#SVGID_2_)">
		<path fill="#E2A69C" d="M167.7,103.4c13.8,4.7-33.3,51.5-33.3,51.5l-19.2-0.9c0,0-20-39.2-14.4-51.3c3.7-7.8,18.6,4.9,12.3-32.4
			c-1.4-8,35.6-8.5,35.8,0.3C149.6,100.4,153.8,98.7,167.7,103.4z"/>
		<rect x="57.1" y="145.9" fill="#E2A69C" width="25.3" height="86.3"/>
		<path fill="#49C1BD" d="M101.7,100.9l-8.6,2.9l-21.6,7.4c0,0-12.9,5.7-13.8,16.3c-0.9,10.7-1.3,18.2-1.3,18.2l25.1,8.2l1.6,1.6
			l1.3-4.1l1.3,12.6c0,0-3.5,9.7,0,19.2c3.5,9.4,3.5,24.8,3.5,24.8h42.1v-54.7c0,0-11.3-7.5-17.9-20.7
			C106.8,119.5,101.7,100.9,101.7,100.9z"/>
		
			<line fill="none" stroke="#E0457E" stroke-width="2" stroke-linecap="round" stroke-miterlimit="10" x1="56.8" y1="145.9" x2="82.8" y2="155.6"/>
		<path fill="none" stroke="#E0457E" stroke-width="2" stroke-miterlimit="10" d="M93.2,103.9v59.6c0,0-1.6,26.4,15.2,37.2
			c11.9,7.7,22.6,7.1,22.6,7.1"/>
		<path fill="#49C1BD" d="M161.4,100.9l8.6,2.9l21.6,7.4c0,0,12.9,5.7,13.8,16.3c0.9,10.7,1.3,18.2,1.3,18.2l-25.1,8.2l-1.6,1.6
			l-1.3-4.1l-1.3,12.6c0,0,3.5,9.7,0,19.2c-3.5,9.4-3.5,24.8-3.5,24.8h-43.3v-54.7c0,0,12.5-7.5,19.1-20.7
			C156.4,119.5,161.4,100.9,161.4,100.9z"/>
		<path fill="none" stroke="#E0457E" stroke-width="2" stroke-miterlimit="10" d="M130.6,153.4l0.3,54.4c0,0,11.9,0.6,23.9-7.1
			c16.7-10.8,15.2-37.2,15.2-37.2v-59.6"/>
		<path fill="none" stroke="#E0457E" stroke-width="2" stroke-miterlimit="10" d="M101.7,100.9c0,0,7.5,31.4,18.9,43.5
			c9.5,10.2,10.7,9,10.7,9s11.5-5.2,19.5-23.6c8-18.4,10.7-28.9,10.7-28.9"/>
		<path fill="none" stroke="#FFFFFF" stroke-miterlimit="10" d="M92.6,42.5"/>
		<path fill="#3D3131" d="M135,6.1c3.3,0.6,7,0,10,1.4c3,1.5,4.9,4.8,7.4,7c2.5,2.2,5.9,3.7,7.7,6.6c1.8,2.8,1.6,6.6,2.5,9.9
			c0.9,3.2,3,6.3,3,9.8c0,3.9-2.3,7.4-3.4,10.9c-1.2,3.6-1.4,7.8-3.5,10.8c-2.2,3.1-6,4.6-9,6.8c-3,2.2-5.5,5.5-9.1,6.6
			c-3.4,1.1-7.4,0.1-11.2,0.1c-3.8,0-7.8,1.1-11.2-0.1c-3.6-1.2-6.1-4.4-9.1-6.6c-3-2.2-6.8-3.7-9-6.8c-2.2-3-2.4-7.2-3.5-10.8
			c-1.1-3.5-3.4-7-3.4-10.9c0-3.5,2.1-6.6,3-9.8c0.9-3.3,0.8-7.1,2.5-9.9c1.8-2.9,5.2-4.4,7.7-6.6c2.5-2.2,4.3-5.6,7.3-7
			c3-1.4,6.7-0.8,10-1.4c0.1,0,2.7-0.6,3.7,0.6c1,1.2,1.9,2.1,1.9,2.1s1.4-1.9,2.3-2.4C132.6,5.8,135,6.1,135,6.1z"/>
		<path fill="#3D3131" d="M93.6,41.8c0,0-2.3,1.1-2.3,4.7c0,3.7,0,26.3,0,26.3s-0.8,5.2,3.8,8.6c1.4,1.1,2.4,1.9,3.2,2.6
			c0.8,0.6,0.8,1.5,0.8,1.5v4c0,0,0,1-0.1,1.3c-0.4,0.5-1.4,1.8-2.3,2.9c-0.5,0.7-0.5,1.3-0.5,1.9c0,0.2,0,0.4,0,0.5
			c0,1.2,0,2.5,0,3.8c0,1.5,0.2,2.3-1,3.3c-1.7,1.4-4.4,4-6.7,6.1c-0.8,0.7-0.6,2.7-0.6,3.1c0.1,3.7,0.1,5.1,0.1,5.1
			s-0.3,3.7-3.7,3.7c-2,0-2.4,0-2.4,0s-3.6-0.2-3.7,3c0,0.3,0,0.7,0,1.1c0,1.9,0,4.2,0,4.2s0.8,9.1-3.2,9.1c-1.7,0-5.1,1.5-5.3,5.6
			c-0.1,2-0.1,4.1-0.1,4.1l14.8,0c0,0,0-2.8,0-6c0-2.8,2.1-2.8,2.1-2.8h2.9c0,0,4.3-0.7,4.1-5.5c0-1.1,0.1-4.7,0.1-5.8
			c0-1.4,1.2-2.8,2.6-2.9c1.2,0,2.2,0,3.1,0c0.3,0,0.7,0,0.9,0c0.8,0,2.2-0.1,2.2-2.5c0-2.1,0-7.4,0-7.4s0-0.7,0-1.4
			c0-0.8,0.1-2.5,1.6-4.3c0.9-1,2.8-0.8,4.1-0.8c0.7,0,1.1-0.5,1.2-1.4c0-1,0-6,0-6l0,0c0,0,0-1.2,0-1.5c0.1-0.4,0.1-0.7,0.9-1.2
			c0.7-0.4,2-1.1,2-1.1l1.9-1.2c0,0,1.6-0.9,1.9-1.5c0.3-0.5,0.2-2.3,0.2-2.3V82.5l-4.6-1.8l-2.3-13.5L93.6,41.8z"/>
		<path fill="#F1B8AA" d="M153.4,51.9c0,2.7,0,11,0,16.4c0,3-0.2,5.3-0.4,6.6c-0.2,1.3-0.5,2.6-2.3,5.1c-4.2,5.8-11.3,14-19.5,14
			c-8.6,0-18.3-9.7-21.6-14.5c-0.8-1.2-0.8-1.5-1-2.1c-0.9-2-0.6-7.1-0.6-7.1s-0.5-15.1-0.5-18.1c0-2.5,0.2-4.8,0.6-6.9
			c0.7-3.5,4.6-4.2,4.6-7.1c0-5.8,2.5-8.1,6.4-9.5c3-1.1,8.3-0.8,11.8-0.9c0.1,0,0.2,0,0.3,0c3.4,0,7.5-0.1,10.3,0.9
			c3.9,1.3,8,2.5,8.6,10.9c0.1,2.4,2,1.3,2.6,4.2C153.2,46.3,153.4,49,153.4,51.9z"/>
		<g>
			<path fill="#F1B8AA" d="M152.2,70c1.7-0.2,3.2-1.5,3.5-3.5l2-11.6c0.4-2.5-0.9-4.8-3-5.2l0,0c-0.3,0-2.1-0.1-2.4-0.2"/>
			<path fill="#F1B8AA" d="M108.5,69.9c-1.7-0.2-3.2-1.5-2.6-3.5l-2-11.6c-1.4-2.5,0-4.8,2-5.2l0,0c0.3,0,1.7-0.1,2-0.2"/>
		</g>
		<path fill="#3D3131" d="M84.5,148.1c0,4.2-3.3,7.6-7.4,7.6l0,0c-4.1,0-7.4-3.4-7.4-7.6"/>
		<polygon fill="#E2A69C" points="180.8,232.1 206.7,232.1 206.7,145.9 180.8,154.8 		"/>
		<path fill="none" stroke="#EBA9A1" stroke-miterlimit="10" d="M93.6,148.4"/>
		<path fill="none" stroke="#EBA9A1" stroke-miterlimit="10" d="M169.6,148.4"/>
		
			<line fill="none" stroke="#E0457E" stroke-width="2" stroke-linecap="round" stroke-miterlimit="10" x1="206.6" y1="145.1" x2="180.6" y2="154.8"/>
		<circle fill="#E0457E" cx="130.7" cy="155.9" r="2.3"/>
	</g>
</g>
</svg>
