<?xml version="1.0" encoding="utf-8"?>
<!-- Generator: Adobe Illustrator 16.0.0, SVG Export Plug-In . SVG Version: 6.00 Build 0)  -->
<!DOCTYPE svg PUBLIC "-//W3C//DTD SVG 1.1//EN" "http://www.w3.org/Graphics/SVG/1.1/DTD/svg11.dtd">
<svg version="1.1" id="Layer_1" xmlns="http://www.w3.org/2000/svg" xmlns:xlink="http://www.w3.org/1999/xlink" x="0px" y="0px"
	 width="270px" height="160px" viewBox="0 0 270 160" enable-background="new 0 0 270 160" xml:space="preserve">
<g>
	<defs>
		<rect id="SVGID_13_" x="24" y="1" width="222" height="159"/>
	</defs>
	<clipPath id="SVGID_2_">
		<use xlink:href="#SVGID_13_"  overflow="visible"/>
	</clipPath>
	<g clip-path="url(#SVGID_2_)">
		<rect x="83" y="110.5" fill="#1C5287" width="103.9" height="44.1"/>
		<path fill="#3B78B3" d="M90.4,114.8l-6.6,28.6l28.9-8.6c0,0-3.3,4.3-0.3,6.3c3,2,13.8,8.8,16.3,16.9c2.5,8.2,4,12.6,4,12.6H46.3
			V145c0,0-2.7-17.6,16.3-25.6c18.9-8,43.2-22.3,43.2-22.3l-13.6,15.6L90.4,114.8z"/>
		<path fill="#3B78B3" d="M176.7,114.5l6.6,28.6l-28.9-8.6c0,0,3.3,4.3,0.3,6.3s-13.8,8.8-16.3,16.9s-4,12.6-4,12.6h86.4v-25.6
			c0,0,2.7-17.6-16.3-25.6c-18.9-8-43.2-22.3-43.2-22.3l13.6,15.6L176.7,114.5z"/>
		<path fill="#FFFFFF" d="M93.2,102.8c0.6,17.8,20.3,27.1,22.5,31c2,3.6,2.5,43.1,2.5,43.1l34.4-1.5v-41.9c0,0,18.7-12.3,18-31.6
			C169.9,81.3,92.4,79.8,93.2,102.8z"/>
		<path fill="#1C5287" d="M110.8,136.9c-0.3,1.2,0.3,2.4,0.3,2.4l6.4,12.5v3.7v14.6l1.7-0.1v-25.4c0,0,0.3-4.9-1.5-7.8
			c-1.7-2.8-2.9-4-3.1-4.2l-3,2.8C111.7,135.5,111,136.1,110.8,136.9z"/>
		<path fill="#1C5287" d="M159.7,136.7c0.3,1.2-0.3,2.4-0.3,2.4l-6.4,12.5v3.7V170l-1.7-0.1v-25.4c0,0-0.3-9.7,1.3-10.7
			c2.3-1.5,3.2-1.1,3.3-1.3l3,2.8C158.8,135.3,159.5,135.9,159.7,136.7z"/>
		
			<circle fill="none" stroke="#8B8B8C" stroke-width="2" stroke-linecap="round" stroke-miterlimit="10" cx="114.7" cy="125.1" r="2.1"/>
		<path fill="none" stroke="#1C5287" stroke-width="4" stroke-linecap="round" stroke-miterlimit="10" d="M114.9,124.9l7.2,6
			c0,0,2.5,1.7,2.5,4.7c0,3,0,7.8,0,7.8s-0.1,2.4,2.6,2.4c1.6,0,2.3,0,2.3,0s1.1-0.1,1.5,0.3c0.6,0.6,0.5,1.5,0.5,1.5s0,1,0,1.8"/>
		<circle fill="#1C5287" cx="131.4" cy="151.4" r="2.2"/>
		
			<circle fill="none" stroke="#8B8B8C" stroke-width="2" stroke-linecap="round" stroke-miterlimit="10" cx="155.1" cy="123.7" r="2.1"/>
		<path fill="none" stroke="#1C5287" stroke-width="4" stroke-linecap="round" stroke-miterlimit="10" d="M155,123.6l-7.2,6
			c0,0-2.5,1.7-2.5,4.7c0,3,0,7.9,0,7.9s0.1,2.4-2.6,2.4c-1.6,0-2.3,0-2.3,0s-1.1-0.1-1.5,0.3c-0.5,0.6-0.5,1.5-0.5,1.5
			s0,11.5,0,12.3"/>
		<circle fill="#1C5287" cx="138.5" cy="158.8" r="2.2"/>
		<path fill="#D79B97" d="M152,119.4c0,0-5.2,5.1-19.4,5.1c-12.6,0-20.2-5.1-20.2-5.1V95.5H152V119.4z"/>
		<g>
			<path fill="#EBA9A1" d="M133.1,115.2c-24.4,0-28.5-31.5-28.5-31.5V33.3h54.1v50.3C158.7,83.6,156.2,115.2,133.1,115.2z"/>
			<path fill="#3D3131" d="M158.5,79.2l1.9,0.9c0,0,1.6-4.4,1.9-9.6s8,0.2,11-9.6c3-9.8-5.1-31.1-13.6-39.3
				c-8.4-8.2-15.7-4.4-15.7-4.4s-1.6-7-29.5,2.8S91.3,61.6,95.1,66.8c3.7,5.1,5.9,6.3,5.4,11c-0.5,4.7,3.7,6.1,3.7,6.1V62.5v-4.2
				c0,0,24.1,2.8,44.5-23.2l1.3-2.6c0,0-0.5,12,5.1,13.6c5.7,1.6,2.8,3.9,2.8,7.5s0,25.3,0,25.3L158.5,79.2z"/>
			<path fill="#3D3131" d="M107.9,63.3c3.3,0.7,14,2.5,17.6,3.3c3.7,0.8,5.8,0.8,6.8,0.8c1,0,11-3.8,17.1-4.3
				c6.1-0.5,6.1-0.5,6.1-0.5l4.5-2.8l0.3,1.7l-3.8,3.7c0,0,0,1.8-0.8,2.7c-0.8,0.8-0.7,4.7-0.7,4.7s0.7,1.8-2.8,2.5
				c-3.5,0.7-10,2.5-10,2.5s-4.5,0.5-6.8-1.7c-2.3-2.2-2.3-5.5-3.7-5.6c-1.3-0.2-2.7-1.3-3.2,0.7c-0.5,2-2.3,6.3-4.5,6.3
				c-2.2,0-12.6-0.5-14.8-2c-2.2-1.5-3-3.3-3.3-6.3c-0.3-3-1.5-4.3-3-4.7c-1.5-0.3-3-1.3-3-1.3l1-2.7L107.9,63.3z"/>
			<path fill="#3D3131" d="M116.4,94.6c0,0,0.7-5.1,2.4-5.6c1.6-0.5,8.1-2.7,8.1-2.7l4.1-0.7l4.5,0.7l9.7,2.2c0,0,1,2.4,1.1,4
				c0.1,1.6-0.2,1-0.2,1s-4.5-1.7-8.8-2.5c-4.4-0.7-4.7-1.4-6.5-1c-1.7,0.4-3,1-6.7,2C120.2,92.9,116.4,94.6,116.4,94.6z"/>
		</g>
	</g>
</g>
</svg>
