<?xml version="1.0" encoding="utf-8"?>
<!-- Generator: Adobe Illustrator 16.0.0, SVG Export Plug-In . SVG Version: 6.00 Build 0)  -->
<!DOCTYPE svg PUBLIC "-//W3C//DTD SVG 1.1//EN" "http://www.w3.org/Graphics/SVG/1.1/DTD/svg11.dtd">
<svg version="1.1" id="Layer_1" xmlns="http://www.w3.org/2000/svg" xmlns:xlink="http://www.w3.org/1999/xlink" x="0px" y="0px"
	 width="270px" height="160px" viewBox="0 0 270 160" enable-background="new 0 0 270 160" xml:space="preserve">
<g>
	<defs>
		<rect id="SVGID_7_" x="44" y="6" width="182" height="154"/>
	</defs>
	<clipPath id="SVGID_2_">
		<use xlink:href="#SVGID_7_"  overflow="visible"/>
	</clipPath>
	<g clip-path="url(#SVGID_2_)">
		<path fill="#CCB692" d="M206.7,114.4c3,2.5,10.3,3.1,11.7,17.5c1.9,20.3,6.4,55.6,6.4,55.6c0,6.1-4.9,11-11,11H64.1
			c-6.1,0-11-4.9-11-11l5-58.2c0,0,1.3-12.7,11.4-15.5l69.3-29.3"/>
		<polygon fill="#D79B97" points="162,132.1 141.5,139.3 114.3,133.3 116.5,60 162,60 		"/>
		<path fill="#BCA078" d="M115.5,97.1l-3.3,2.3L100.9,146l15.8-10.5c0,0,20.6,3.4,26.2,4.8c1,0.3-16.4-5.4-21.6-13.2
			c-7.2-10.8-5.5-17.9-5.5-17.9L115.5,97.1z"/>
		<path fill="#AF9169" d="M115.7,97.5c0,0-3.4,11-0.1,24.3c1.4,5.5,10.5,11.9,10.5,11.9l16.8,6.7c0,0-18.6-8.6-24.4-20
			c-2.7-5.4-2.7-11.1-2.7-11.1L115.7,97.5z"/>
		<path fill="#BCA078" d="M161.9,97.1l3.8,2.1L176,146l-15.3-10.5c0,0-14.6,2.3-20.3,3.7c-1,0.2,10.4-4.3,15.7-12.1
			c7.2-10.8,5.5-17.9,5.5-17.9L161.9,97.1z"/>
		<path fill="#AF9169" d="M161.7,97.5c0,0,3.6,10.3-0.3,23.5c-1.5,5.1-7.1,11.7-7.1,11.7l-15,7.1c0,0,13.8-8,19.6-19.5
			c2.7-5.4,2.7-11.1,2.7-11.1L161.7,97.5z"/>
		<path fill="none" stroke="#171E28" stroke-width="3" stroke-miterlimit="10" d="M207.7,114.3"/>
		<polygon fill="#BCA078" points="145.1,199.6 136.3,199.6 136.3,138.5 140.7,139.4 145.1,138.5 		"/>
		<circle fill="#AF9169" cx="140.9" cy="144" r="3"/>
		<g>
			<path fill="#EBA9A1" d="M139.8,117.4c-12.7,0-25.6-18.9-26.5-28.8c-0.1-1.1,0-4.3,0-4.3V45.9h50.6v36.8c0,0-0.8,6.8-1,7.5
				C161.4,97.3,150.9,117.4,139.8,117.4z"/>
			<path fill="#3D3131" d="M137.5,14.9c-11.2,1.5-21.4,0.8-23.1,10.4c-0.7,4.2-1.9,6.6-5.1,8.1c-6.8,3.3-5.9,12.5-5.9,12.5
				s0,4.8,0,8.1c0,4.2,0,7.5,0,10c0,3.6,0.2,4,0.9,5.2c0.3,0.6,2,1.6,3.4,2.3c2.2,1.2,2.2,3.7,2.2,3.7l0.3,5.9c0,0,0,1.9,0.5,2.6
				c0.5,0.7,2.8,1.8,2.8,1.8l0-9.5c0,0-0.2-8.6,0.2-10.1c1-4.1,3.4-4.3,7-6.2c4.4-2.4,4.2-7.3,8.2-7.2c7.1,0.1,19,0,19,0
				s5.2,0.4,5.7-4.2c0-0.2,0.5-2.4,0.5-2.4s-2.1,9.7,5.3,13.2c4.4,2.1,3.8,6.4,3.8,10.2c0,4,0,17.1,0,17.1s2.4-1.4,2.7-3.6
				c1-6.5,1.7-10.6,1.7-10.6s0.5-2.4,2.4-3.7c1.8-1.3,2.5-3.1,2.5-6.1c0-2.2,0-6.5,0-8.3c0-3.2,0.7-6.1-1.1-8.4
				c-1.5-1.9-1-2.8-2.4-8.1c-0.7-2.5-1.3-6.6-1.3-6.6s-1.5-8.1-8.1-8.6c-3.4-0.3-4.8,0.3-4.8,0.3S151.6,13,137.5,14.9z"/>
		</g>
		<g>
			<polygon fill="#BCA078" points="67.1,116.3 69.8,122 102.8,107.4 98.7,99.9 66,114.3 			"/>
			<g>
				<polyline fill="#3B1C21" points="70.1,112.5 66.2,114.3 67.3,116.3 70,122 73.4,120.5 				"/>
				<polyline fill="#D5544C" points="70.2,112.4 67.2,113.8 68.3,115.9 71,121.6 73.9,120.2 				"/>
			</g>
			<g>
				<polygon fill="#BAB9B9" points="75.2,111.7 77.5,112.2 79.2,110.6 79.5,112.9 81.5,114 79.4,115 79,117.3 77.4,115.5 
					75.1,115.8 76.2,113.8 				"/>
				<polygon fill="#BAB9B9" points="84,107.6 86.3,108 88,106.4 88.2,108.8 90.3,109.9 88.1,110.8 87.7,113.1 86.2,111.4 
					83.8,111.7 85,109.7 				"/>
				<polygon fill="#BAB9B9" points="91.7,103.9 94,104.4 95.7,102.8 95.9,105.1 98,106.2 95.9,107.1 95.4,109.4 93.9,107.7 
					91.6,108 92.7,106 				"/>
			</g>
		</g>
		<g>
			<polygon fill="#BCA078" points="209.4,115.5 206.7,121.2 173.8,106.6 177.8,99.2 210.5,113.5 			"/>
			<g>
				<polyline fill="#3B1C21" points="206.4,111.8 210.3,113.5 209.2,115.5 206.5,121.2 203.2,119.7 				"/>
				<polyline fill="#D5544C" points="206.3,111.7 209.4,113.1 208.2,115.1 205.6,120.8 202.6,119.5 				"/>
			</g>
			<g>
				<polygon fill="#BAB9B9" points="201.3,111 199,111.4 197.3,109.8 197.1,112.2 195,113.3 197.1,114.2 197.6,116.5 199.1,114.8 
					201.4,115.1 200.3,113.1 				"/>
				<polygon fill="#BAB9B9" points="192.5,106.8 190.2,107.3 188.6,105.7 188.3,108 186.3,109.1 188.4,110.1 188.8,112.3 
					190.4,110.6 192.7,110.9 191.5,108.9 				"/>
				<polygon fill="#BAB9B9" points="184.8,103.1 182.5,103.6 180.8,102 180.6,104.3 178.5,105.4 180.7,106.4 181.1,108.7 
					182.6,106.9 184.9,107.3 183.8,105.2 				"/>
			</g>
		</g>
	</g>
</g>
</svg>
