<?xml version="1.0" encoding="utf-8"?>
<!-- Generator: Adobe Illustrator 16.0.0, SVG Export Plug-In . SVG Version: 6.00 Build 0)  -->
<!DOCTYPE svg PUBLIC "-//W3C//DTD SVG 1.1//EN" "http://www.w3.org/Graphics/SVG/1.1/DTD/svg11.dtd">
<svg version="1.1" id="Layer_1" xmlns="http://www.w3.org/2000/svg" xmlns:xlink="http://www.w3.org/1999/xlink" x="0px" y="0px"
	 width="270px" height="160px" viewBox="0 0 270 160" enable-background="new 0 0 270 160" xml:space="preserve">
<g>
	<defs>
		<rect id="SVGID_17_" x="35" y="8" width="200" height="152"/>
	</defs>
	<clipPath id="SVGID_2_">
		<use xlink:href="#SVGID_17_"  overflow="visible"/>
	</clipPath>
	<g clip-path="url(#SVGID_2_)">
		<path fill="#3D3131" d="M164.6,39.8l6.9,121.4c0,0-8.3-11-11.5-17.4c-3.2-6.4-17.1-28.3-17.1-28.3l-1.4-7l6.4-10.5
			c0,0,6.6-2.3,10.3-8.7S164.6,39.8,164.6,39.8z"/>
		<rect x="114.6" y="66.8" fill="#D79B97" width="36.1" height="47.7"/>
		<path fill="#1B1F28" d="M118.8,43.1c0,0-1.5-5.5-0.5-15.9s6.4-14.7,6.4-14.7s0.7,6.9,4.6,9.9c2.3,1.8,12.6,6.2,12.6,6.2l-3.7,3.3
			L118.8,43.1z"/>
		<path fill="#1B1F28" d="M150.6,28.8c0,0,12.1-4.5,13.6-8.9c1.5-4.5,1.4-4,1.4-4s5.6,9.1,5.5,16.4c-0.1,7.3-0.5,12-0.5,12
			l-10.5-2.5l-10-10.2L150.6,28.8z"/>
		<path fill="#EBA9A1" d="M121.2,43.9v13.3c0,0-0.8-2.3-2.6-3.2c-1.8-0.9-6,0-5,7.5c0.9,7.5,3.8,9,6,10.2c2.1,1.2,2.8,1.1,2.8,1.1
			s0.5,7.7,3.6,10.5c5.7,5.3,11.6,9.6,11.6,9.6s4.4,3.7,8.1,3.7c6,0,9,1.2,12.1-4.6c3.4-6.4,7.5-16,7.5-16s2.6-5.8,2.1-8.9
			c-0.5-3.1,1.8-4.7,2.9-9.8s1.2-8.6-1.2-13.9c-2.4-5.3-4-12.1-15-11c-11,1.1-23.8,2-26.7,5.2C124.2,40.8,121.2,43.9,121.2,43.9z"/>
		<path fill="#5E5033" d="M119.2,72.8"/>
		<path fill="#1B1F28" d="M143.7,114.5c0,0,0.6-6.7-2.4-8.6c-3.1-1.8-12.2-3.4-21.1-9.2c-8.9-5.8-7.3-5.2-7.3-5.2l-3.7,10.7
			c0,0-11.3,1.8-16.8,4.9c-5.5,3.1-3.5,6.3-6.4,7.3c-16.9,6-15,20.7-15.5,30.6c-0.4,9.5,0,44.3,0,44.3h25h74.2c0,0,1.4-5.3,5.5-11
			c13.7-19.4-4.6-29.8-11.3-37.6c-6.3-7.3-14.4-23.5-14.4-23.5L143.7,114.5z"/>
		<path fill="none" stroke="#A09289" stroke-miterlimit="10" d="M110.8,101.9c0,0,7.3,7.3,16.5,11c9.2,3.7,17.4,6.4,17.4,6.4
			s10.4,21.1,11.3,22.9c0.9,1.8,5.8,11.6,7,20.5c1,7.3,0.3,12.5,0.3,12.5"/>
		<line fill="none" stroke="#A09289" stroke-miterlimit="10" x1="149.6" y1="116.5" x2="145.2" y2="119.4"/>
		
			<rect x="145.8" y="118.8" transform="matrix(0.9266 -0.3761 0.3761 0.9266 -36.8374 65.007)" fill="#A09289" width="4.6" height="16.2"/>
		<path fill="#3D3131" d="M170.8,49.4c0,0-0.1-2.2,0-7.1c0.2-8.2-7.2-19.9-21.4-22.1c-10.9-1.7-23.3-0.3-29.8,10.7
			c-1.1,1.9-1.8,7-1.8,7v1l-7,5.7c0,0-2.3,1.3-2.9,4.4c-2.7,15-14.8,86.8-14.8,86.8s-1,4.4,3.7,4.4c1,0,3.2,0,3.2,0s1.9-0.2,1.9,3
			c0,2,0,8.6,0,8.6s-0.3,2.4,1.9,2.4c0.6,0,6.4,0,6.4,0s1.2,0,1.5-0.9c0.2-0.6,0.1-1.5,0.1-1.5v-3.9c0,0-0.1-1.6,1.7-1.6
			c1.2,0,7.3,0,7.3,0s2.7,0.4,2.7-2.5c0-1.7,0-7.6,0-7.6s0.5-3.2-2.4-3.2c-0.1,0,0.1,0,0,0c-1.9,0-1.7-1.6-1.7-1.6v-30.9V72
			l-0.5-0.5c0,0-2.4-1.3-3.9-4.8c-1.5-3.5-2.1-10.1,0-12.1s5.8,0.2,6.3,2c0.5,1.8,0.5,1.8,0.5,1.8s0.8,6.6,1.7,7.7
			c0.8,0.9,2.1-0.8,2.4-6.2c0.3-5.3,0-10.1,0-10.1s4.4-0.6,5.5-3.1s1.4-7.1,9.2-8.9c6.8-1.6,16-1.5,21.1,0.7c3.8,1.6,6,3.6,6.8,6.8
			S170.8,49.4,170.8,49.4z"/>
		<path fill="#1B1F28" d="M141.5,48.8c0,0,1.2,0.2,0.8,1.2c-0.7,1.7,1.1,2.2,1.1,2.2l11.6,3.6c0,0,0.9,0.2,0.6,1.2
			c-0.4,1.1-0.2,1.4,0.1,1.5c0.6,0.2,0.9-0.5,1.1-1.3c0.3-1.2,1.2-0.8,2.6-0.6c0.9,0.2,3.1,0.5,4.3,0.6c0.4,0,1.2-0.2,1.4-1.3
			c0.1-0.6,0.1-0.5,0.2-0.8c0.4-1.6,3.1-0.4,4.4-0.1c0.5,0.1,1,0.3,1,0.3s-0.4,3.5-1.1,5.3c-1.2,2.8-2.4,3.9-2.2,6.7
			c0.4,7.1-3.2,6.9-3.2,6.9l-9.5,1.2c0,0-20.3-5-23.2-6.3c-4.7-1.9-5-6.8-6.8-10c-1.8-3.2-6.8-5.1-6.8-5.1l0.1-13.6L141.5,48.8z"/>
		<g>
			<path fill="#EBA9A1" d="M137.5,55.8c0,0,1.6,0.4,3.6,1l4.2,1.2c3.8,1.1,5.4,3,4,8l-0.2,0.8c0,0-1.6-0.4-3.6-1l-4.5-1.2
				c-2.6-0.7-5.3-2.1-3.9-7.2L137.5,55.8z"/>
		</g>
		<g>
			<g>
				<path fill="#EBA9A1" d="M169.5,62.3l-4.3-0.4c-4-0.4-6.1,0.8-6.6,6l-0.1,0.8c0,0,1.7,0.2,3.7,0.3l5.1,0.4"/>
			</g>
		</g>
	</g>
</g>
</svg>
