<?xml version="1.0" encoding="utf-8"?>
<!-- Generator: Adobe Illustrator 16.0.0, SVG Export Plug-In . SVG Version: 6.00 Build 0)  -->
<!DOCTYPE svg PUBLIC "-//W3C//DTD SVG 1.1//EN" "http://www.w3.org/Graphics/SVG/1.1/DTD/svg11.dtd">
<svg version="1.1" id="Layer_1" xmlns="http://www.w3.org/2000/svg" xmlns:xlink="http://www.w3.org/1999/xlink" x="0px" y="0px"
	 width="270px" height="160px" viewBox="0 0 270 160" enable-background="new 0 0 270 160" xml:space="preserve">
<g>
	<defs>
		<rect id="SVGID_1_" x="33.5" y="15" width="203" height="145"/>
	</defs>
	<clipPath id="SVGID_2_">
		<use xlink:href="#SVGID_1_"  overflow="visible"/>
	</clipPath>
	<path clip-path="url(#SVGID_2_)" fill="#161D28" d="M227.613,160.036c-2.57-36.584-33.365-41.657-44.297-46.759
		c-10-4.668-30.66-10.319-32.574-11.325c-1.438-0.755,13.082,11.69,17.107,19.023l-32.517-4.817l-25.378,4.438
		c4.615-7.889,15.997-21.787,14.455-20.977c-1.914,1.006-19.004,6.99-29.004,11.657c-10.111,4.72-50.452,14.143-47.449,53.015
		c0.342,4.432,0.236,17.776,0.236,17.776c0,5.458,4.425,9.885,9.883,9.885l163.499,0.533c5.461,0,9.885-4.427,9.885-9.885
		C231.459,182.601,228.014,165.744,227.613,160.036z"/>
	<polygon clip-path="url(#SVGID_2_)" fill="#D69A96" points="159.75,133.022 141.479,139.476 117.088,134.098 119.095,68.491 
		159.75,68.491 	"/>
	<path clip-path="url(#SVGID_2_)" fill="#C88985" d="M161.135,91.615c0,0.859-0.666,1.559-1.488,1.559h-13.883
		c-0.822,0-1.488-0.699-1.488-1.559l0,0c0-0.861,0.666-1.561,1.488-1.561h13.883C160.469,90.055,161.135,90.754,161.135,91.615
		L161.135,91.615z"/>
	<path clip-path="url(#SVGID_2_)" fill="#EAA8A0" d="M112.628,65.443l12.775-38.001c0,0,31.938,2.51,32.946,3.227
		c1.01,0.716,8.742,17.925,8.742,17.925v30.474c0,0-1.316,10.82-2.625,15.953c-0.367,1.445-4.768,9.143-4.768,9.143
		s-6.018,7.118-6.555,7.136c-3.365,0.107-8.127,0.126-9.457-0.146c-6.039-1.231-21.627-11.831-23.98-14.34
		c-3.195-3.404-3.868-9.352-3.868-9.352L112.628,65.443"/>
	<g clip-path="url(#SVGID_2_)">
		<defs>
			<path id="SVGID_3_" d="M112.448,65.443l12.775-38.001c0,0,31.938,2.51,32.948,3.227c1.008,0.716,8.74,17.925,8.74,17.925v30.474
				c0,0-1.314,10.82-2.625,15.953c-0.369,1.445-4.768,9.143-4.768,9.143s-6.018,7.118-6.555,7.136
				c-3.365,0.107-8.127,0.126-9.457-0.146c-6.039-1.231-21.626-11.831-23.98-14.34c-3.195-3.404-3.868-9.352-3.868-9.352
				L112.448,65.443"/>
		</defs>
		<clipPath id="SVGID_4_">
			<use xlink:href="#SVGID_3_"  overflow="visible"/>
		</clipPath>
		<path clip-path="url(#SVGID_4_)" fill="none" d="M109.209,68.853l17.639,9.137c5.1,1.732,5.275,4.95,5.676,7.335l6.594,39.209
			c0.4,2.384-1.207,4.643-3.592,5.043l-16.187,2.723"/>
	</g>
	<path clip-path="url(#SVGID_2_)" fill="#E9A8A0" stroke="#B98180" stroke-miterlimit="10" d="M116.889,79.958
		c0,1.291-1,2.337-2.234,2.337l-3.367-1.075c-1.234,0-2.234-1.047-2.234-2.338l-2.055-11.103c0-1.291,1-2.338,2.233-2.338h5.423
		c1.234,0,2.234,1.047,2.234,2.338V79.958z"/>
	<path clip-path="url(#SVGID_2_)" fill="#3D3131" d="M114.683,67.952v9.321c0,0,1.509-0.917,2.904-1.848
		c1.259-0.84,2.246-1.806,2.432-2.134c0.208-0.37,0.173-2.101,0.173-2.101v-2.88c0,0,3.653-4.122,5.623-6.094
		c1.09-1.091,1.463-1.701,1.463-5.387c0-1.589,0.079-3.223-0.059-4.653c-0.178-1.857-2.234-4.617-2.602-5.196
		c-1.145-1.796-0.715-4.538,0.514-6.273c1.713-2.419,6.052-2.293,6.052-2.293s8.375,1.734,8.507,1.755
		c1.332,0.21,2.291,1.097,4.473,3.383c1.125,1.177,3.721,1.131,3.721,1.131h3.678c0,0,0.223,0,0.336,0
		c1.814,0,1.988-0.231,2.521-0.571c1.242-0.793,3.848-1.076,4.625-1.076c8.752,0,7.621,12.459,7.621,12.459v10.843
		c0,0,0.813-0.156,1.326-0.627c0.32-0.293,0.471-0.695,0.471-1.143c0-0.209,0-0.434,0-0.672c0-4.794,0-15.032,0-19.606
		c0-6.094-5.395-8.514-6.471-14.698c-1.098-6.317-15.451-6.992-15.451-6.992h-12.674l-5.487,1.076c0,0-9.14,1.614-16.668,8.067
		c-3.874,3.32-6.276,11.382-6.276,11.382v16.58c0,0,0.643,3.093,2.441,4.303c0.75,0.504,1.307,1.117,2.248,1.457
		C111.857,66.093,114.683,67.952,114.683,67.952z"/>
	<polygon clip-path="url(#SVGID_2_)" fill="#3D3131" points="113.656,66.283 130.417,62.277 134.243,59.273 169.467,59.273 
		172.656,65.95 169.148,75.296 165.641,77.632 156.887,76.631 154.76,68.672 154.477,63.947 150.65,63.947 150.332,68.954 
		146.186,75.964 133.523,75.964 130.097,66.283 114.613,68.954 	"/>
	<polygon clip-path="url(#SVGID_2_)" fill="#3D3131" points="118.131,81.262 110.523,75.38 112.685,72.317 120.293,78.199 	"/>
	<path clip-path="url(#SVGID_2_)" fill="#242D3D" d="M118.163,101.652c0,0-6.722,3.631-11.651,16.492
		c-4.654,12.145-1.255,25.588-1.255,25.588l13.982-7.662c0,0,18.417,3.024,23.482,4.301c0.887,0.225-14.667-4.791-19.359-11.83
		c-6.453-9.68-4.93-15.998-4.93-15.998L118.163,101.652z"/>
	<path clip-path="url(#SVGID_2_)" fill="#161D28" d="M118.342,102.011c0,0-5.161,10.085-3.137,22.228
		c1.21,7.26,4.571,11.832,4.571,11.832l22.944,4.301c0,0-16.69-7.664-21.869-17.926c-2.42-4.794-2.42-9.902-2.42-9.902
		L118.342,102.011z"/>
	<path clip-path="url(#SVGID_2_)" fill="#242D3D" d="M159.52,104.162c0,0,6.102,4.481,10.807,22.229
		c1.973,7.438,2.688,16.267,2.688,16.267l-16.67-6.587l-13.623,4.301c0,0,11.896-10.574,14.699-17.746
		c2.1-5.377,2.1-5.377,2.1-5.377V104.162z"/>
	<path clip-path="url(#SVGID_2_)" fill="#161D28" d="M142.721,140.371l13.623-4.301c0,0,2.621-8.539,2.957-11.832
		c1.076-10.486,0.27-7.797,0.27-7.797s-1.613,6.856-7.932,14.654C148.518,134.947,142.721,140.371,142.721,140.371z"/>
	<path clip-path="url(#SVGID_2_)" fill="none" stroke="#161D28" stroke-width="2" stroke-miterlimit="10" d="M73.83,124.713
		c-1.745-4.184,2.525-7.546,5.583-8.814l17.536-7.275c3.06-1.268,7.713-1.949,11.46,2.662"/>
	<path clip-path="url(#SVGID_2_)" fill="none" stroke="#161D28" stroke-width="2" stroke-miterlimit="10" d="M172.182,113.189
		c1.725-4.193,7.121-3.551,10.182-2.285l17.543,7.255c3.061,1.267,6.832,4.075,6.221,9.985"/>
	<polygon clip-path="url(#SVGID_2_)" fill="#242D3D" points="144.707,193.431 136.82,193.431 136.82,139.561 140.764,140.371 
		144.707,139.561 	"/>
	<circle clip-path="url(#SVGID_2_)" fill="#161D28" cx="140.942" cy="143.687" r="2.647"/>
	<circle clip-path="url(#SVGID_2_)" fill="#161D28" cx="140.942" cy="162.33" r="2.647"/>
	<circle clip-path="url(#SVGID_2_)" fill="#161D28" cx="140.942" cy="180.975" r="2.647"/>
</g>
</svg>
