<?xml version="1.0" encoding="utf-8"?>
<!-- Generator: Adobe Illustrator 16.0.0, SVG Export Plug-In . SVG Version: 6.00 Build 0)  -->
<!DOCTYPE svg PUBLIC "-//W3C//DTD SVG 1.1//EN" "http://www.w3.org/Graphics/SVG/1.1/DTD/svg11.dtd">
<svg version="1.1" id="Layer_1" xmlns="http://www.w3.org/2000/svg" xmlns:xlink="http://www.w3.org/1999/xlink" x="0px" y="0px"
	 width="270px" height="160px" viewBox="0 0 270 160" enable-background="new 0 0 270 160" xml:space="preserve">
<g>
	<defs>
		<rect id="SVGID_1_" x="32" y="9" width="206" height="151"/>
	</defs>
	<clipPath id="SVGID_2_">
		<use xlink:href="#SVGID_1_"  overflow="visible"/>
	</clipPath>
	<g clip-path="url(#SVGID_2_)">
		<path fill="#F16E70" d="M68.721,117.01c-24.623,7.862-26.623,43.556-26.623,43.556h160.011c0,0-0.066-27.248-27.678-37.36
			c-12.922-4.733-20.334-12.666-37.75-17.758c-13.293-3.887-18.961-3.896-18.961-3.896l-12.748-2.057
			C104.973,99.495,75.347,114.895,68.721,117.01z"/>
		<path fill="#D69A96" d="M146.035,124.461c0,0-4.361,9.934-15.27,3.411c-13.781-8.24-23.107-27.609-23.107-27.609l7.155-7.555
			l13.184-30.846l37.874,16.188L146.035,124.461z"/>
		<path fill="#E14C55" d="M110.601,94.294c0,0-5.169,9.244,7.328,24.281c0,0-6.998,5.13-17.331,7.463
			c-12.24,2.764-22,4.333-22,4.333s17.893-13.765,21.733-26.355c0.614-2.012,1.469-4.053,4.667-7
			c2.382-2.195,5.493-3.341,5.493-3.341L110.601,94.294z"/>
		<path fill="#E14C55" d="M152.266,111.039c0,0,5.34,5.244,8.166,8.166c4.834,5,15.334,11.334,15.334,11.334
			s-8.525,0.254-15.834-1.834c-9.334-2.666-13.65-5.832-13.65-5.832L152.266,111.039z"/>
		<path fill="#E9BE5B" d="M114.415,91.344c0,0,6.303,12.887,12.684,21.028c9.667,12.333,15.833,15.333,17.499,17.333
			c2.496,2.993-3.547,0.997-5.5,2.5c-1.734,1.335-2.926,2.347-5.499,0.834c-3.854-2.265-12.583-8.167-21.333-24.167
			c-4.818-8.81-2.638-14.405-2.638-14.405L114.415,91.344z"/>
		<path fill="#E9BE5B" d="M137.006,127.595c0,0-6.765,4.738-7.235,13.204c-0.471,8.466,3.581,16.026,3.581,16.026
			s9.007-10.925,7.488-18.758C139.322,130.235,137.006,127.595,137.006,127.595z"/>
		<path fill="#E9BE5B" d="M138.682,126.578c0,0-0.752,7.758,5.029,13.288c5.779,5.53,13.688,7.265,13.688,7.265
			s-2.307-13.162-8.854-16.877C141.996,126.538,138.682,126.578,138.682,126.578z"/>
		<path fill="#EAA8A0" d="M65.455,168.863l26.491-32.604c0,0,2.716-4.755,6.623-5.266c3.906-0.51,15.114-2.887,15.114-2.887
			s1.188-1.528,6.113,2.717c4.924,4.246,8.151,6.793,8.151,6.793s-1.19,3.057-4.925,1.02c-3.735-2.039-7.981-3.906-7.981-3.906
			l-4.246,0.849c0,0,6.963,2.548,7.473,4.585c0.509,2.038,3.566,14.604,3.566,14.604s0.51,1.697-1.698,1.528
			c0,0-2.42,0.171-2.802-1.612s-0.382-1.783-0.382-1.783v8.278c0,0-1.911,1.019-3.057-0.127c-1.146-1.147-0.382-1.02-0.382-1.02
			s-3.057,1.146-3.566-0.765c-0.509-1.909-2.929-9.169-2.929-9.169l-4.585-0.893l-3.693,1.656c0,0-1.64,12.344-11.844,18.34
			C82.273,171.918,65.455,168.863,65.455,168.863z"/>
		<path fill="none" stroke="#3D3131" stroke-miterlimit="10" d="M167.23,66.592l0.566,16.063c0,0,0.461,3.441-3.492,3.608
			c-2.625,0.11-3.484-2.074-4.289-2.865c-1.693-1.658-4.686-0.773-5.195-3.351"/>
		<path fill="#3D3131" d="M122.081,55.758l-1.698,15.493l-1.066,5.87c0,0-1.139-0.353-1.524-0.452
			c-4.027-1.047,0.504-25.217,0.504-25.217"/>
		<path fill="#EAA8A0" d="M119.134,46.792c0,0-3.692-2.083-5.495-0.462c-1.804,1.623-2.045,1.883-1.723,5.288
			c0.32,3.409,0.89,11.026,0.89,11.026s-0.046,2.968,2.857,5.479c2.904,2.51,4.715,2.548,4.715,2.548l-1.201,8.096
			c0,0-3.107,11.548,4.828,18.215c23.682,19.897,26.399,13.176,30.426,10.223c7.744-5.682,15.898-15.907,19.42-22.437
			c2.682-4.97,7.369-18.4,8.58-20.896c1.266-2.608,0.371-8.923,0.371-8.923l-5.518-5.434l-22.398-9.413
			c0,0-19.621-4.788-20.365-4.509C133.777,35.87,119.134,46.792,119.134,46.792z"/>
		<path fill="#3D3131" d="M120.775,50.427c2.49,4.695,2.961,12.182,2.961,12.182s2.789,1.1,3.529,0.597
			c2.047-1.391,2.438-10.077,7-7c16,10.792,43,17.167,55.5,0.542c4.709-6.263-4.75-15.875-4.75-15.875s-4.846-7.688-19.25-16.5
			c-9.529-5.828-29.105-3.856-39.256,3.662c-10.148,7.52-10.015,17.271-10.015,17.271s0.532,2.194,1.986,3.266
			S120.43,49.775,120.775,50.427z"/>
		<path fill="#E9BE5B" d="M135.932,124.373c0,0,5.166-0.001,9.834-4.834c4.666-4.833,6.666-10,6.666-10l3,3.834
			c0,0-4,12.832-11.166,15.166C137.098,130.873,135.932,124.373,135.932,124.373z"/>
		<path fill="#3A78B2" d="M116.791,38.826c-1.281,3.834,10.911,8.938,24,15.666c16.309,8.382,42.59,15.269,51.309,11.382
			c8.416-3.752,5.166-9.002,2.416-12.502c-3.645-4.638-3.584-10.112-5.416-14.832c-3.043-7.834-6.686-12.486-29.643-19.381
			c-20.191-6.062-20,2.333-29.063,2.571C124.631,21.882,118.839,32.695,116.791,38.826z"/>
	</g>
</g>
</svg>
