<?xml version="1.0" encoding="utf-8"?>
<!-- Generator: Adobe Illustrator 16.0.0, SVG Export Plug-In . SVG Version: 6.00 Build 0)  -->
<!DOCTYPE svg PUBLIC "-//W3C//DTD SVG 1.1//EN" "http://www.w3.org/Graphics/SVG/1.1/DTD/svg11.dtd">
<svg version="1.1" id="Layer_1" xmlns="http://www.w3.org/2000/svg" xmlns:xlink="http://www.w3.org/1999/xlink" x="0px" y="0px"
	 width="270px" height="160px" viewBox="0 0 270 160" enable-background="new 0 0 270 160" xml:space="preserve">
<g>
	<rect x="140.3" y="72.7" fill="#D79B97" width="52.9" height="55.7"/>
	<path fill="#934B21" d="M38.5,159.7l27.8-47.3c0,0,7.4-13.5,27.7-17.4c15.3-2.9,28.9-6.2,41.7-7.6c0.8-0.1,2.2-0.2,2.2-0.2
		l14.9,31.4l38.6-25l13.3,1.9c0,0,13.8,15.1,17.4,19.6c3.5,4.5,10,6.1,9.7,20c-0.3,13.8,0,25.1,0,25.1L38.5,159.7z"/>
	<path fill="#563A34" d="M201.8,83.6l12.6,20.4l-1.8,5.1c0,0-0.7,1.9-1.5,2.2c-0.7,0.2-2.4-0.2-2.4-0.2l-21.6-7.7l-3.3-1.1
		c0,0-2.2-0.7-1.4-3l8-7.6l-1-2.7L201.8,83.6z"/>
	<path fill="#563A34" d="M139.2,83.4l1.1,2.4v4.8c0,0,0.2,2.1,0.7,3.3c1.5,3.7,5.4,11.1,7.5,15.7c2.5,5.6,4.2,8.9,4.2,8.9
		s1.8,3.2-3.2,3.6c-3.8,0.3-12.5,1-17.1,1c-0.4,0-0.8,0-1.1,0c-1.1,0-1.3,0-1.7-0.2c-0.3-0.2-0.7-1.3-0.7-1.3l-0.6-1.4l-6.5-15.1
		l3.2-15.1L139.2,83.4z"/>
	<path fill="#EBA9A1" d="M104.2,142.9l5.1-12.8c0,0,1-4.1,3-5.3c2.1-1.2,13.8-5.6,13.8-5.6s2.8-3,4.7,0.8c1.9,3.9,4.5,8.1,4.5,8.1
		s2.3-3.4,4.7-2.3c2.4,1.1,3.7,3.6,1.4,6.9s-2.8,3.9-2.8,3.9v4.7c0,0,1.6,1.6,2.3,2.2c0.7,0.6,1.1,3.7-1.1,3.7s-11.8-5.4-11.8-5.4
		l-4.6,0.2l-4.9,14.7c0,0-0.6,3.1-2.8,3.1s-13.8-0.1-13.8-0.1s-0.1-10.4,1.3-14.2C104.7,141.7,104.2,142.9,104.2,142.9z"/>
	<path fill="#FFFFFF" d="M93.9,159.8h8c0,0,1.1-15.1,1.9-16.3c0.8-1.2-0.5-1.1-0.5-1.1s-7.2,3.9-8.3,10.6
		C93.9,159.8,93.9,159.8,93.9,159.8z"/>
	<path fill="#10100D" d="M82.1,20.5l-6,25.1c0,0-1.8,8.5,7.1,19.8C92,76.7,105.5,86,108.9,88.9c3.4,2.9,5.5,5,6,6.4s1.3,28,1.3,28
		l12.7-5.1v-16.7c0,0,4.2-0.2,6-2.7c3.9-5.7,3.2-5.8,4.7-10.5"/>
	<path fill="#66676A" d="M143,17.1c0,0-9.7-6.8-28.1-8.9c-21.4-2.5-36.8,6-33.4,25c3.3,18.2,25.5,32.5,30.2,36.5
		c3.7,3.1,7,7.1,8.7,10.5c3,5.9,4.5,10.6,9.8,10.8c6.4,0.2,8.8-7.2,8.8-7.2l2.2-15.4l5.2-42.2L143,17.1z"/>
	<path fill="#EBA9A1" d="M138.2,36.2l-1.9,26.7l0.8,11.3c0,0,0.3,7.7,3.1,12.5s3.5,16.6,12.4,16.4c8.4-0.2,11.1,0.8,16.2-3.5
		c5.9-5.1,15.3-10,16.5-16.1c1.1-6.1,1.1-4,1.1-4s6.6,1.3,7.6-2.1s9.7-15.1,4.5-16.9c-5.1-1.8-11.6-10.1-12.5-12.4
		c-1-2.3-13.8-13.2-13.8-13.2l-23.5-1.1L138.2,36.2z"/>
	<path fill="#3D3131" d="M136.1,70.8c0,0-0.7-14.3-2.9-16.4c-5.8-5.6-5.8-23.6-0.3-28.3C142.1,18,157,8.1,157,8.1s11.7-3.6,16.2,2.2
		c4.5,5.8,4.1,4.5,4.1,4.5s7.8-4.2,11.3-4.2c4.3,0,14,14.8,15.6,19.6s2.4,6.6,1.1,10.9s-1.3,5-1.3,5v34.4c0,0,0.6,2.6-2.6,4.3
		S189,93,189,93s-2.4,1.3-2.1-4.3c0.3-5.6,0.6-9,0.6-9s4.1,0.6,5.1-1.9c1-2.5,3.9-11.9,3.9-11.9s0.2-2.7-3.6-1.1
		c-3.8,1.6-5.2,2.9-5.2,2.9h-3.1v-3c0,0,0-0.9,0-2.4c0-2.5-3.7-4.4-3.8-7.3c-0.2-8.8-6.8-11.3-12.6-11.3c-2,0-3.6,0-4.8,0
		c-0.3,0-0.6,0-0.9,0c-2.6,0-3.7-1.2-4.2-1.6c-0.8-0.7-1.3-1.1-1.4-1.2c-0.1-0.1-1.6-1.6-2.6-1.6c-2.7,0.1-3.3,0-8.4,0
		c-0.9,0-5.5,1.1-7.4,4.9c-1.9,3.6-1.7,6-1.7,6v22.7L136.1,70.8z"/>
</g>
</svg>
