<?xml version="1.0" encoding="utf-8"?>
<!-- Generator: Adobe Illustrator 16.0.0, SVG Export Plug-In . SVG Version: 6.00 Build 0)  -->
<!DOCTYPE svg PUBLIC "-//W3C//DTD SVG 1.1//EN" "http://www.w3.org/Graphics/SVG/1.1/DTD/svg11.dtd">
<svg version="1.1" id="Layer_1" xmlns="http://www.w3.org/2000/svg" xmlns:xlink="http://www.w3.org/1999/xlink" x="0px" y="0px"
	 width="270px" height="160px" viewBox="0 0 270 160" enable-background="new 0 0 270 160" xml:space="preserve">
<g>
	<g>
		<defs>
			<rect id="SVGID_15_" x="27" y="-3.5" width="216" height="163.5"/>
		</defs>
		<clipPath id="SVGID_2_">
			<use xlink:href="#SVGID_15_"  overflow="visible"/>
		</clipPath>
		<g clip-path="url(#SVGID_2_)">
			<rect x="156.4" y="79.9" fill="#E39F91" width="33.3" height="24.7"/>
			<path fill="#F1B8AA" d="M193.9,73.4c-7.2,8.3-16.7,18.5-28.4,19.2c-8.9,0.5-15.6-2.3-15.6-2.3l-2.2-51.2l12.7-12h31.3l12.9,11.6
				C204.7,38.7,202.3,63.6,193.9,73.4z"/>
			<path fill="#3D3131" d="M47.3,78.3h-9.8c0,0-1.5,0-1.5-5.9c0-5.8,1.5-5.6,1.5-5.6h9.8V78.3z"/>
			<rect x="59.5" y="66.5" fill="#3D3131" width="12.8" height="11.5"/>
			<path fill="#EBA9A1" d="M73.5,86.7l-6.2-12c0,0-1.3-1.9,0.5-4.9c1.8-3,2-3.8,2-3.8s0.1-1.4,3.5-2.6c3.4-1.2,9.5-2.7,9.5-2.7
				s2.1,0,2.7,0.6c0.5,0.6,0.5,0.6,0.5,0.6s2.4-2.6,4.2-1.4c1.8,1.2,2.5,2.1,2.5,2.1l0.5,21.1L92,90.8L73.5,86.7z"/>
			<path fill="#E2C421" d="M149.2,91.7L136,98.9c0,0-5.8,2.7-11.8,0.5C111.8,94.8,88,80.6,88,80.6s-5.2-2.8-10.5,0.7
				c-7.1,4.6-7.2,8-7.2,8l4.7,3.5l40.9,30.2l0.4,0.3c0,0,5.1,3.2,16.7,1.3c11.5-1.9,11.5-1.9,11.5-1.9l25-8.3l10.3-12.2L149.2,91.7z
				"/>
			<path fill="#D3B02A" d="M70.3,89.3l45,33.6c0,0,3.6,3.8,9,1.6c9.4-3.7,16.6-6.9,16.6-6.9s-10.5,1.8-15,2.4
				c-4.5,0.6-5.9,0.6-17-7.4c-11.2-8.1-36.5-27.2-36.5-27.2s-1.5,1.9-1.7,2.5C70.6,88.3,70.3,89.3,70.3,89.3z"/>
			<path fill="#EBA9A1" d="M46,99.9l-5.8-20.8c0,0-1.8-6.2-1.7-7.7c0.2-1.4,1.7-2.8,3.3-4.9c3.5-4.5,3.5-4.5,3.5-4.5
				s1.6-1.6,3.2-1.6s7.8,0.1,7.8,0.1l6.3-0.1l5.8,3.3c0,0,2.1,2.1-0.3,4.2c-0.8,0.7-5.1-0.3-5.1-0.3l-1.7,3.7c0,0,1,6.6,3.8,6.6
				s4.8-0.6,4.8-0.6v3.8L64,89.3l-2.2,4.5"/>
			<ellipse fill="#3D3131" cx="94" cy="75.3" rx="8.9" ry="12.7"/>
			<path fill="#E2C421" d="M61.7,93.8c0,0-10.2-2.6-15.3,5.1c-5.1,7.7-5,12.4-5,12.4l46.7,50.2c0,0,3.2,4.9,10.3,4.5
				c3.8-0.2,56.3-5.6,56.3-5.6l87.7,1.6l-19.6-70.3l-39.1-0.6l-10.9,14.1L108.7,133c0,0-6.5,3.5-12-3.2c-1.3-1.5-5.2-5-5.2-5
				L61.7,93.8z"/>
			<path fill="#3D3131" d="M53.8,93.8l39.6,44.4c0,0,4.8,7.5,14,3.8c8.1-3.2,76.2-32.7,76.2-32.7s12.7-6.3,13.3-12.7
				c0.1-1.1,3.1,1.6,3.3,2.7c2,9.7-13.3,16.3-13.3,16.3l-80.1,34.7c0,0-9.3,4.2-18.2-5.9C75.8,129.7,47.9,97,47.9,97
				s0.8-0.7,2.5-1.9C51.8,94.2,53.8,93.8,53.8,93.8z"/>
			<path fill="#B78B52" d="M185.8,81.3c0,0,0,0,0.1,0c0.2,0,0.4,0,0.6,0C186.1,81.3,185.8,81.3,185.8,81.3z"/>
			<g>
				<polygon fill="none" points="172.2,31.6 172.4,31.6 172.4,31.6 				"/>
				<path fill="#B78B52" d="M243.7,118.1l-2.6-9.1c0,0-0.4-2.8-4-1.6c-6.5,2.2-11.3-4.5-11.3-8.7c0-2.9,3.3-6.1,5.6-6.2
					c0.9,0,1-0.4,1.2-0.8c0.2-0.3,0.1-1.2,0-1.9c0-0.3-0.1-0.6-0.2-0.9c-0.5-2.9-1-3.8-3.2-3.5c-2.2,0.3-2.1-1.8-2.1-1.8
					s-0.8-2.2-1.9-9.8c-1.1-7.5-2.1-8-3.2-7.9s-1.5-2.4-1.5-2.4s-9.4-20.5-10.7-24.6c-1.3-4.1-2-5.8-6-5.8c-2.7,0-4.7-1.2-4.7-1.2
					c-4.8-6.9-3.4-4.7-6.4-9.4c-2.7-4.2-8.6-3.2-8.6-3.2s-6.3,0-8.7,0c-3.8,0-3.9,2.9-4.2,2.9c-0.1,0-0.5-1.4-1.6-2.2
					c-1-0.7-3-0.7-3-0.7c-0.3,0-4.5,0-4.8,0c-2.3,0-3.4,2.5-3.4,2.5S148,36.3,146.7,37.5c-3.6,3.5-2.8,6.1-2.8,6.1s0,4.6,0,9.1
					c0,2.4-0.2,5.6,0.2,6.7c0.8,2,2.6,6.7,3.1,7.9c0.3,0.8,0.6,1.5,0.6,1.5s0,8.1,0,14c0,1.3-6,1.6-6,2.6c0,6.7,2.4,4.1,2.4,10
					c0,0.6,0,11.5,0,11.5v1.9v5.8l0,1.3c0,0,18.9-7.6,20.1-9c1.3-1.5,0.6-4.1,0.6-4.1s0-5.1,0-7.3s0.3-2.8-3.4-2.9
					c-6.4-0.3-6.5-6.6-6.5-6.6s-2.8-12.7-3.2-15.5c-0.6-4.1-1-3.9-1.7-4.9c-0.9-1.3-1-2.6-1-2.6s0-12.4,0-16c0-1.4,0.8-2.2,1.7-2.2
					c1.3,0,1.3-0.1,2-1.4c2.2-4.2,4.4-10.3,5.5-12.3c0.4-0.7,0.8-0.7,0.9-0.7c2.8,0,2.7,2.6,2.7,2.6v6.7c0,0-0.2,1.9,1.8,1.9
					c1.9,0,1.6-2,1.6-2v-3.3c0.1-0.2,0.2-0.4,0.7-0.4c0.8,0,1.5,0,1.5,0s0.7,0.1,0.7-0.6c0-0.8,0-0.4,0-0.8c0-3,2.1-2.8,2.1-2.8l2,0
					h0h0h2.2c0,0,0.9,0,1.2,0.1c1.5,0.6,1.2,3.8,1.2,3.8l0,0v12.4c0,0,0.1,2.9,2.8,6.3c2,2.5,2.6,4.4,2.7,5.9v7.4
					c0,0-0.5,3.5,2.7,3.5c6.2,0,5.2,5.2,5.2,5.2c0,0.2,0,0.4,0,0.5c0,5.9-3.8,4.8-4.4,4.6c-5.3,0.4-5.7,6.2-5.7,6.2s0,4.5,0,9.4
					c0,4.9,4.2,4.2,4.2,4.2h11.5c0,0,1,0.2,3.2,7.2c2.2,7.1,6.1,5.6,13.1,2.9c7.1-2.7,7.9-0.3,7.9-0.3s4.5,8.5,5.9,13.3
					c1.4,4.8,5.9,2.7,5.9,2.7s4.8-1.6,9.5-3.2C245.7,122.3,243.7,118.1,243.7,118.1z"/>
			</g>
			<rect x="184.4" y="70" fill="#B78B52" width="8.4" height="11.8"/>
			<ellipse fill="#F1B8AA" cx="184.5" cy="76.3" rx="4.1" ry="5.3"/>
			<path fill="#606161" d="M94.4,69.1c0,0,59.3,7.4,99.7,15.1c43.6,8.3,109.8,29.1,109.8,29.1l-1.7,9.8c0,0-80.5-23.3-107.4-28.6
				C129.1,81.3,94.3,80.3,94.3,80.3s-1-1.8-1-5.5C93.3,71.2,94.4,69.1,94.4,69.1z"/>
		</g>
	</g>
</g>
</svg>
