<?xml version="1.0" encoding="utf-8"?>
<!-- Generator: Adobe Illustrator 16.0.0, SVG Export Plug-In . SVG Version: 6.00 Build 0)  -->
<!DOCTYPE svg PUBLIC "-//W3C//DTD SVG 1.1//EN" "http://www.w3.org/Graphics/SVG/1.1/DTD/svg11.dtd">
<svg version="1.1" id="Layer_1" xmlns="http://www.w3.org/2000/svg" xmlns:xlink="http://www.w3.org/1999/xlink" x="0px" y="0px"
	 width="270px" height="160px" viewBox="0 0 270 160" enable-background="new 0 0 270 160" xml:space="preserve">
<g>
	<defs>
		<rect id="SVGID_21_" x="39" y="8" width="192" height="152"/>
	</defs>
	<clipPath id="SVGID_2_">
		<use xlink:href="#SVGID_21_"  overflow="visible"/>
	</clipPath>
	<g clip-path="url(#SVGID_2_)">
		<g>
			<path fill="#E5D7B2" d="M185.1,49.5c0,0-0.3-6.9,0.5-10.6c0.6-2.3,2.7-8.6,2.7-8.6s0.3-1.6,3.5-0.5c3.3,1.1,2.5,2.5,2.5,2.5
				s-1.7,5.3-3.4,8.8C187.9,47.3,185.1,49.5,185.1,49.5z"/>
			<path fill="#302D36" d="M168.7,100.2c-0.2,0.5-0.7,0.8-1.2,0.6l0,0c-0.5-0.2-0.7-0.7-0.5-1.2L192.6,25c0.2-0.5,0.7-0.8,1.2-0.6
				l0,0c0.5,0.2,0.7,0.7,0.5,1.2L168.7,100.2z"/>
			
				<rect x="191.7" y="26.9" transform="matrix(0.9461 0.3239 -0.3239 0.9461 19.3339 -60.905)" fill="#E5D7B2" width="1.8" height="1.4"/>
		</g>
		<g>
			<path fill="#E5D7B2" d="M191.9,51.9c0,0-0.3-6.9,0.6-10.6c0.6-2.3,2.7-8.6,2.7-8.6s0.3-1.6,3.5-0.5c3.3,1.1,2.5,2.5,2.5,2.5
				s-1.7,5.3-3.4,8.8C194.8,49.6,191.9,51.9,191.9,51.9z"/>
			<path fill="#302D36" d="M175.6,102.6c-0.2,0.5-0.7,0.8-1.2,0.6l0,0c-0.5-0.2-0.7-0.7-0.5-1.2l25.6-74.7c0.2-0.5,0.7-0.8,1.2-0.6
				l0,0c0.5,0.2,0.7,0.7,0.5,1.2L175.6,102.6z"/>
			
				<rect x="198.6" y="29.3" transform="matrix(0.9463 0.3234 -0.3234 0.9463 20.4131 -62.9022)" fill="#E5D7B2" width="1.8" height="1.4"/>
		</g>
		<g>
			<path fill="#E5D7B2" d="M198.8,54.2c0,0-0.3-6.9,0.5-10.6c0.6-2.3,2.7-8.6,2.7-8.6s0.3-1.6,3.5-0.5c3.3,1.1,2.5,2.5,2.5,2.5
				s-1.7,5.3-3.4,8.8C201.6,52,198.8,54.2,198.8,54.2z"/>
			<path fill="#302D36" d="M182.4,104.9c-0.2,0.5-0.7,0.8-1.2,0.6l0,0c-0.5-0.2-0.7-0.7-0.5-1.2l25.6-74.7c0.2-0.5,0.7-0.8,1.2-0.6
				l0,0c0.5,0.2,0.7,0.7,0.5,1.2L182.4,104.9z"/>
			
				<rect x="205.4" y="31.6" transform="matrix(0.9459 0.3244 -0.3244 0.9459 21.6412 -65.1829)" fill="#E5D7B2" width="1.8" height="1.4"/>
		</g>
		<g>
			<path fill="#E5D7B2" d="M205.6,56.6c0,0-0.3-6.9,0.5-10.6c0.6-2.3,2.7-8.6,2.7-8.6s0.3-1.6,3.5-0.5c3.3,1.1,2.5,2.5,2.5,2.5
				s-1.7,5.3-3.4,8.8C208.4,54.3,205.6,56.6,205.6,56.6z"/>
			<path fill="#302D36" d="M189.3,107.3c-0.2,0.5-0.7,0.8-1.2,0.6l0,0c-0.5-0.2-0.7-0.7-0.5-1.2L213.1,32c0.2-0.5,0.7-0.8,1.2-0.6
				l0,0c0.5,0.2,0.7,0.7,0.5,1.2L189.3,107.3z"/>
			
				<rect x="212.3" y="33.9" transform="matrix(0.946 0.3242 -0.3242 0.946 22.7538 -67.2435)" fill="#E5D7B2" width="1.8" height="1.4"/>
		</g>
		<g>
			<path fill="#E5D7B2" d="M212.5,58.9c0,0-0.3-6.9,0.6-10.6c0.6-2.3,2.7-8.6,2.7-8.6s0.3-1.6,3.5-0.5c3.3,1.1,2.5,2.5,2.5,2.5
				s-1.7,5.3-3.4,8.8C215.3,56.7,212.5,58.9,212.5,58.9z"/>
			<path fill="#302D36" d="M196.1,109.6c-0.2,0.5-0.7,0.8-1.2,0.6l0,0c-0.5-0.2-0.7-0.7-0.5-1.2L220,34.4c0.2-0.5,0.7-0.8,1.2-0.6
				l0,0c0.5,0.2,0.7,0.7,0.5,1.2L196.1,109.6z"/>
			
				<rect x="219.1" y="36.3" transform="matrix(0.9462 0.3236 -0.3236 0.9462 23.8101 -69.2009)" fill="#E5D7B2" width="1.8" height="1.4"/>
		</g>
		<g>
			<path fill="#E5D7B2" d="M219.3,61.2c0,0-0.3-6.9,0.5-10.6c0.6-2.3,2.7-8.6,2.7-8.6s0.3-1.6,3.5-0.5c3.3,1.1,2.5,2.5,2.5,2.5
				s-1.7,5.3-3.4,8.8C222.1,59,219.3,61.2,219.3,61.2z"/>
			<path fill="#302D36" d="M202.9,112c-0.2,0.5-0.7,0.8-1.2,0.6l0,0c-0.5-0.2-0.7-0.7-0.5-1.2l25.6-74.7c0.2-0.5,0.7-0.8,1.2-0.6
				l0,0c0.5,0.2,0.7,0.7,0.5,1.2L202.9,112z"/>
			
				<rect x="226" y="38.6" transform="matrix(0.9462 0.3236 -0.3236 0.9462 24.937 -71.29)" fill="#E5D7B2" width="1.8" height="1.4"/>
		</g>
		<path fill="#606161" d="M192.7,148.9c-0.3,1-1.3,1.6-2.1,1.3l-38.7-13.3c-0.8-0.3-1.2-1.3-0.9-2.4l13-38.1c0.3-1,1.3-1.6,2.1-1.3
			l38.7,13.3c0.8,0.3,1.2,1.3,0.9,2.4L192.7,148.9z"/>
	</g>
	<rect x="157.9" y="53.1" clip-path="url(#SVGID_2_)" fill="#3D3131" width="17.5" height="59.5"/>
	<path clip-path="url(#SVGID_2_)" fill="#E0E0E0" d="M214.5,138.1c-2.2-7.5-8.3-13.2-12.9-15.2c0,0-34.5-9.8-45.8-21.8
		c-2.3-2.4-12-5.7-12-5.7s-9.8,3.7-12.3,6c-15.6,14-44.5,21.5-44.5,21.5c-4.5,1-14.6,6.4-15.5,19.6L64,182c0,7.9,6.4,14.3,14.3,14.3
		h130.3c7.9,0,14.3-6.4,14.3-14.3L214.5,138.1z"/>
	<path clip-path="url(#SVGID_2_)" fill="#E2A69C" d="M126.7,90.8v10.5c0,0,0.2,3.4-3.4,6c-3.1,2.3-5.5,3.3-5.5,3.3s3.5,7.4,13.8,11
		c13,4.5,22.3,0.8,28.4-2.8c5.2-3.1,9.2-8.6,9.2-8.6s-5.5-1.7-6.4-6c-0.2-1-0.1-4.6-0.1-4.6v-8.9"/>
	<path clip-path="url(#SVGID_2_)" fill="#F1B8AA" d="M168.4,67.1c0,6.1-2.2,12.1-3.1,17.4c-0.7,4.1-7.2,13.1-14.5,16.3
		c-2,0.9-9.9,1-11.7,0.1c-6.8-3.4-14.6-11.2-16-16.4c-1.6-6-2.7-10.3-2.5-17.4c0.1-4.2-0.2-8.2,0.3-11.9
		c1.6-13.1,7.5-22.4,23.6-22.6C161.4,32.5,168.4,48.1,168.4,67.1z"/>
	<path clip-path="url(#SVGID_2_)" fill="#3D3131" d="M109.3,114.9l4.5,6.9c0,0-17.7,15.4-20.9,37.4c-1.6,10.8-1,16-1,16h101
		c0,0-0.2-6.2-1.7-17.5c-2.5-17.9-19.1-36.3-19.1-36.3l5.6-7.6l-8.4-3.6c0,0-8.4,12.9-25.1,12.9c-20.9,0-26.4-12.5-26.4-12.5
		L109.3,114.9z"/>
	<path clip-path="url(#SVGID_2_)" fill="#F1B8AA" d="M126,72.4c0,2.8-2.3,5-5,5l0,0c-2.8,0-5-2.3-5-5v-12c0-2.8,2.3-5,5-5l0,0
		c2.8,0,5,2.3,5,5V72.4z"/>
	<path clip-path="url(#SVGID_2_)" fill="#F1B8AA" d="M173.1,72.4c0,2.8-2.3,5-5,5l0,0c-2.8,0-5-2.3-5-5v-12c0-2.8,2.3-5,5-5l0,0
		c2.8,0,5,2.3,5,5V72.4z"/>
	<path clip-path="url(#SVGID_2_)" fill="#3D3131" d="M121.3,74.9c0,0-3.4,0-3.4-3.9c0-1.4-0.3-8.6-0.2-12.9c0-0.7-0.5-1.1-0.8-1.1
		c-1.6-0.1-3.5-0.3-3.5-2.6v-1.4v-8.2c0,0,0-1.8,2.5-1.8c1.7,0,0.9-1.1,1.1-3.3s2.2-17.4,18-21.8c8.9-2.5,28.1-3.5,36.2,11.8
		c2.9,5.4,3.4,9.1,4,11.5c0.5,1.7,1,3.4,1,3.4s0.4,2.4,2.3,2.2c0.9-0.1,2.6,0.4,3,2.1c0.3,1.5-2.7,10-3.4,12.5
		c-1.8,6.3-4.3,9.8-3.9,15c0,0.3,0-15.8-0.3-15.7c-0.4,0.2-1.5,0.5-1.7,0.8c-0.4,0.4-0.9,2.6-0.8,5.2c0.1,3.3,0.2,11.9-1,14.3
		c-1.4,2.7-4.9,2.2-4.9,2.2s0.3-16.3,0.3-19.8c0-0.2-0.5-0.5-0.7-0.7c-1.6-1.3-2-4.4-2-4.4l-1.5-8.1c0,0-1.1-4.8-1.6-6.4
		c-2.9-9.9-10.1-9.2-10.1-9.2l-8.5-0.1l-1.6-1.5l-1.3,1.6c0,0-11.3,0.2-12.6,9.7c-0.1,0.7-0.1,1.7-0.1,1.7v4.9c0,0,0.3,2.4-2.5,2.4
		c-2.1,0-1.8,1.8-1.8,1.8v15c0,0,0,1.4,0,2.7C121.3,75.3,121.3,73.2,121.3,74.9z"/>
	<rect x="62.7" y="-12.6" clip-path="url(#SVGID_2_)" fill="none" width="160.2" height="172"/>
</g>
</svg>
