<?xml version="1.0" encoding="utf-8"?>
<!-- Generator: Adobe Illustrator 16.0.0, SVG Export Plug-In . SVG Version: 6.00 Build 0)  -->
<!DOCTYPE svg PUBLIC "-//W3C//DTD SVG 1.1//EN" "http://www.w3.org/Graphics/SVG/1.1/DTD/svg11.dtd">
<svg version="1.1" id="Layer_1" xmlns="http://www.w3.org/2000/svg" xmlns:xlink="http://www.w3.org/1999/xlink" x="0px" y="0px"
	 width="320px" height="250px" viewBox="0 0 320 250" enable-background="new 0 0 320 250" xml:space="preserve">
<g>
	<ellipse fill-rule="evenodd" clip-rule="evenodd" fill="#1A3219" cx="127.323" cy="228.432" rx="49.845" ry="19.505"/>
	<path fill-rule="evenodd" clip-rule="evenodd" fill="#336732" d="M161.043,182.783c0,29.258-23.718,52.978-52.979,52.978
		c-6.726,0-13.161-1.254-19.082-3.541c-19.83-7.659-33.896-26.904-33.896-49.437c0-32.779,19.37-55.423,34.685-68.204
		c10.013-8.355,18.292-12.496,18.292-12.496S161.043,131.037,161.043,182.783z"/>
	<path fill-rule="evenodd" clip-rule="evenodd" fill="#FFF5E9" d="M89.772,114.579c10.013-8.355,18.292-12.496,18.292-12.496
		s52.979,28.954,52.979,80.7c0,29.258-23.718,52.978-52.979,52.978c-6.726,0-13.161-1.254-19.082-3.541"/>
	<path fill-rule="evenodd" clip-rule="evenodd" fill="#46873F" d="M161.043,191.934c0,29.259-23.718,52.978-52.979,52.978
		c-29.258,0-52.978-23.719-52.978-52.978c0-54.21,52.978-80.7,52.978-80.7S161.043,140.188,161.043,191.934z"/>
	<path fill-rule="evenodd" clip-rule="evenodd" fill="#FFF5E9" d="M89.371,242.397C69,235.015,54.446,215.495,54.446,192.575
		c0-33.242,19.921-56.061,35.332-68.739"/>
	<path fill-rule="evenodd" clip-rule="evenodd" fill="#336732" d="M117.305,146.348c0,0-2.925-5.908-8.862-9.396
		c-3.749-2.202-9.618-2.162-9.618-2.162V43.483h18.48V146.348z"/>
	<path fill="#336732" d="M96.487,2.063h15.79l8.596,29.438c0,0,2.363,12.678-5.587,12.464c-7.951-0.216-17.724,0-17.724,0
		s-6.017-3.869-2.363-13.107c3.652-9.24,3.979-12.679,2.903-16.33c-1.072-3.654-2.594-4.15-2.594-8.26
		C95.508,3.125,96.487,2.063,96.487,2.063z"/>
	<g>
		<circle fill-rule="evenodd" clip-rule="evenodd" fill="#80BB5D" cx="100.732" cy="10.077" r="1.407"/>
		<circle fill-rule="evenodd" clip-rule="evenodd" fill="#80BB5D" cx="105.299" cy="16.433" r="1.407"/>
		<circle fill-rule="evenodd" clip-rule="evenodd" fill="#80BB5D" cx="109.868" cy="22.788" r="1.407"/>
		<circle fill-rule="evenodd" clip-rule="evenodd" fill="#80BB5D" cx="114.436" cy="29.144" r="1.407"/>
	</g>
	
		<rect x="91.34" y="198.303" fill-rule="evenodd" clip-rule="evenodd" fill="none" stroke="#80BB5D" stroke-width="2" stroke-miterlimit="10" width="31.997" height="9.696"/>
	<rect x="94.393" y="201.27" fill-rule="evenodd" clip-rule="evenodd" fill="#336732" width="25.896" height="3.848"/>
	<g>
		
			<circle fill-rule="evenodd" clip-rule="evenodd" fill="none" stroke="#336732" stroke-miterlimit="10" cx="107.314" cy="169.243" r="18.139"/>
		
			<circle fill-rule="evenodd" clip-rule="evenodd" fill="none" stroke="#336732" stroke-miterlimit="10" cx="107.315" cy="169.243" r="14.949"/>
		
			<circle fill-rule="evenodd" clip-rule="evenodd" fill="none" stroke="#80BB5D" stroke-miterlimit="10" cx="107.314" cy="169.243" r="11.707"/>
	</g>
	<g>
		
			<line fill-rule="evenodd" clip-rule="evenodd" fill="none" stroke="#46873F" stroke-miterlimit="10" x1="98.825" y1="44.506" x2="117.305" y2="44.506"/>
		
			<line fill-rule="evenodd" clip-rule="evenodd" fill="none" stroke="#46873F" stroke-miterlimit="10" x1="98.825" y1="54.861" x2="117.305" y2="54.861"/>
		
			<line fill-rule="evenodd" clip-rule="evenodd" fill="none" stroke="#46873F" stroke-miterlimit="10" x1="98.825" y1="65.216" x2="117.305" y2="65.216"/>
		
			<line fill-rule="evenodd" clip-rule="evenodd" fill="none" stroke="#46873F" stroke-miterlimit="10" x1="98.825" y1="75.57" x2="117.305" y2="75.57"/>
		
			<line fill-rule="evenodd" clip-rule="evenodd" fill="none" stroke="#46873F" stroke-miterlimit="10" x1="98.825" y1="85.926" x2="117.305" y2="85.926"/>
		
			<line fill-rule="evenodd" clip-rule="evenodd" fill="none" stroke="#46873F" stroke-miterlimit="10" x1="98.825" y1="96.28" x2="117.305" y2="96.28"/>
		
			<line fill-rule="evenodd" clip-rule="evenodd" fill="none" stroke="#46873F" stroke-miterlimit="10" x1="98.825" y1="106.634" x2="117.305" y2="106.634"/>
		
			<line fill-rule="evenodd" clip-rule="evenodd" fill="none" stroke="#46873F" stroke-miterlimit="10" x1="98.825" y1="116.99" x2="117.305" y2="116.99"/>
		
			<line fill-rule="evenodd" clip-rule="evenodd" fill="none" stroke="#46873F" stroke-miterlimit="10" x1="98.825" y1="127.345" x2="117.305" y2="127.345"/>
		
			<line fill-rule="evenodd" clip-rule="evenodd" fill="none" stroke="#46873F" stroke-miterlimit="10" x1="98.825" y1="137.7" x2="117.305" y2="137.7"/>
	</g>
	<g>
		
			<line fill-rule="evenodd" clip-rule="evenodd" fill="none" stroke="#80BB5D" stroke-miterlimit="10" x1="114.435" y1="29.145" x2="114.435" y2="204.985"/>
		
			<line fill-rule="evenodd" clip-rule="evenodd" fill="none" stroke="#80BB5D" stroke-miterlimit="10" x1="109.94" y1="23.364" x2="109.94" y2="204.985"/>
		
			<line fill-rule="evenodd" clip-rule="evenodd" fill="none" stroke="#80BB5D" stroke-miterlimit="10" x1="105.445" y1="17.584" x2="105.445" y2="205.307"/>
		
			<line fill-rule="evenodd" clip-rule="evenodd" fill="none" stroke="#80BB5D" stroke-miterlimit="10" x1="100.95" y1="11.806" x2="100.95" y2="205.628"/>
	</g>
	<path fill-rule="evenodd" clip-rule="evenodd" fill="#336732" d="M218.355,55.825c-26.066,0-47.199,15.997-47.199,35.729
		c0,7.58,3.129,14.605,8.449,20.388l-8.449,11.52l19.408-3.033c7.799,4.308,17.4,6.856,27.791,6.856
		c26.066,0,47.199-15.998,47.199-35.73S244.422,55.825,218.355,55.825z"/>
	<g>
		<path fill-rule="evenodd" clip-rule="evenodd" fill="#336732" d="M221.645,142.215c23.893,0,43.262,14.663,43.262,32.75
			c0,6.949-2.867,13.387-7.742,18.688l6.617,12.163l-16.666-4.386c-7.146,3.95-15.947,6.285-25.471,6.285
			c-23.895,0-43.264-14.663-43.264-32.75S197.75,142.215,221.645,142.215z"/>
		<path fill-rule="evenodd" clip-rule="evenodd" fill="#46873F" d="M220.52,143.819c23.895,0,43.262,14.664,43.262,32.751
			c0,6.949-2.867,13.387-7.742,18.688l7.742,10.558l-17.789-2.78c-7.146,3.949-15.947,6.285-25.473,6.285
			c-23.893,0-43.262-14.663-43.262-32.75S196.627,143.819,220.52,143.819z"/>
	</g>
	<path fill-rule="evenodd" clip-rule="evenodd" fill="#46873F" d="M216.428,58.715c-26.066,0-47.197,15.998-47.197,35.729
		c0,7.58,3.127,14.605,8.447,20.388l-8.447,11.52l19.408-3.033c7.799,4.308,17.398,6.856,27.789,6.856
		c26.068,0,47.201-15.998,47.201-35.73C263.629,74.713,242.496,58.715,216.428,58.715z"/>
	<path fill="#FFF5E9" d="M201.018,160.148c-3.148,2.282-4.262-0.247-8.32,2.116l1.809,5.181l3.547,10.165
		c-1.068-0.461-2.414-0.447-3.719,0.153c-2.348,1.084-3.66,3.657-2.93,5.748c0.729,2.092,3.225,2.908,5.574,1.825
		c2.35-1.084,3.66-3.657,2.932-5.747l-4.33-12.415C194.443,163.539,199.701,165.372,201.018,160.148z"/>
	<path fill="#46873F" d="M85.152,8.635c-3.148,2.283-4.26-0.247-8.319,2.117l1.808,5.181l3.546,10.165
		c-1.067-0.462-2.413-0.448-3.716,0.152c-2.349,1.083-3.662,3.657-2.932,5.75c0.729,2.091,3.227,2.906,5.575,1.823
		s3.661-3.656,2.932-5.747l-4.33-12.414C78.578,12.025,83.837,13.859,85.152,8.635z"/>
	<path fill="#46873F" d="M137.471,42.214c-3.147,2.283-4.259-0.247-8.319,2.117l1.809,5.181l3.546,10.165
		c-1.067-0.462-2.413-0.448-3.716,0.152c-2.349,1.083-3.662,3.657-2.932,5.749s3.226,2.907,5.575,1.825
		c2.349-1.085,3.661-3.657,2.932-5.749l-4.331-12.413C130.898,45.604,136.155,47.438,137.471,42.214z"/>
	<path fill="#FFF5E9" d="M247.029,161.986c-2.832,2.054-3.83-0.222-7.482,1.904l1.627,4.661l3.189,9.143
		c-0.961-0.415-2.172-0.402-3.344,0.139c-2.113,0.974-3.295,3.289-2.637,5.17c0.656,1.882,2.9,2.616,5.014,1.642
		c2.113-0.976,3.293-3.29,2.639-5.171l-3.895-11.166C241.117,165.037,245.846,166.687,247.029,161.986z"/>
	<path fill="#FFF5E9" d="M228.127,185.036l-5.352-15.31l-11.279,8.859l4.359,12.584c-1.008-0.437-2.279-0.424-3.512,0.145
		c-2.219,1.024-3.459,3.456-2.77,5.432c0.689,1.977,3.049,2.748,5.268,1.724c2.219-1.022,3.459-3.454,2.77-5.433l-3.941-11.295
		l9.578-7.521l3.125,8.946c-1.01-0.436-2.281-0.421-3.512,0.146c-2.221,1.023-3.463,3.455-2.771,5.431
		c0.689,1.977,3.047,2.749,5.266,1.726C227.574,189.443,228.816,187.013,228.127,185.036z"/>
	<path fill="#46873F" d="M88.344,77.669l-5.35-15.309l-11.281,8.858l4.361,12.583c-1.008-0.436-2.281-0.422-3.512,0.146
		c-2.22,1.023-3.459,3.456-2.77,5.431c0.689,1.978,3.047,2.749,5.266,1.725c2.22-1.022,3.459-3.455,2.771-5.431l-3.94-11.297
		l9.578-7.522L86.59,75.8c-1.009-0.437-2.281-0.422-3.513,0.145c-2.219,1.023-3.46,3.455-2.771,5.433
		c0.69,1.975,3.046,2.748,5.267,1.724C87.792,82.076,89.034,79.646,88.344,77.669z"/>
	<g>
		<path fill="#FFF5E9" d="M187.018,84.797h0.393c0.248,0,0.559,1.23,0.932,3.693l0.154,0.435l1.242-0.113
			c1.766,0,2.648,0.217,2.648,0.651l-0.154,0.218l-0.082-0.104l-0.385,0.218l-0.082-0.113h-0.072l-0.311,0.113v-0.113l-0.082,0.113
			h-0.229v-0.113l-2.184,0.217c0.469,1.276,0.703,2.149,0.703,2.618c-0.213,0.365-0.477,0.583-0.785,0.651
			c-0.787,0-1.746-0.507-2.877-1.521c-0.277-0.366-0.432-0.656-0.467-0.869c0-0.538,0.701-1.083,2.102-1.635v-0.218
			c-0.414-1.572-0.621-2.697-0.621-3.374v-0.538L187.018,84.797z M186.779,91.099v0.113c0.648,0.435,1.117,0.651,1.406,0.651h0.156
			c-0.262-1.089-0.471-1.635-0.621-1.635h-0.156l-0.477,0.217C187.088,90.667,186.986,90.884,186.779,91.099z"/>
		<path fill="#FFF5E9" d="M193.711,88.117h0.383l0.383,0.426v0.206c-0.379,1.345-0.568,2.222-0.568,2.628l0.279,0.735h0.289
			c1.021,0,1.531-1.19,1.531-3.569l0.383-0.321h0.092c0.346,0,0.602,0.21,0.768,0.631v1.894l0.094,1.79l-0.57,0.518l-0.766-0.207
			c-0.395,0.345-0.807,0.517-1.242,0.517c-1.338,0-2.006-0.769-2.006-2.308v-0.207C192.76,89.767,193.076,88.856,193.711,88.117z"/>
		<path fill="#FFF5E9" d="M199.867,87.549c0.746,0.089,1.117,0.282,1.117,0.579c-0.744,2.317-1.117,4.995-1.117,8.029
			c-0.256,0.621-0.658,1.066-1.211,1.336h-0.402c-1.152-0.159-1.729-0.604-1.729-1.336v-0.081l0.207-0.167l1.014,0.662h0.207
			c0.559,0,0.893-1.68,1.004-5.039C198.957,90.622,199.26,89.294,199.867,87.549z M200.27,84.569h0.611l0.404,0.413v0.248
			l0.104,0.911l-0.301,0.331c-0.586,0-0.992-0.497-1.221-1.49C199.998,84.734,200.133,84.597,200.27,84.569z"/>
		<path fill="#FFF5E9" d="M203.426,81.899c0.379,0,0.717,0.33,1.014,0.993v0.279c-1.082,0.966-1.658,3.132-1.727,6.498v0.982
			l0.207,0.291c1.371-1.794,2.252-2.69,2.637-2.69c1.125,0,2.244,1.603,3.354,4.812c0.422,0.669,1.063,1.138,1.926,1.406v0.135
			l-0.715,0.714h-0.404c-0.979,0-2.127-1.693-3.445-5.08l-0.508-0.29c-0.24,0-1.086,0.99-2.535,2.97l-0.516,0.146
			c-0.875-0.497-1.314-1.77-1.314-3.819c0.316-3.359,0.824-5.807,1.521-7.346H203.426z"/>
		<path fill="#FFF5E9" d="M212.211,88.045h0.424c0.406,0,0.725,0.211,0.951,0.632v0.538c0,0.317-0.316,0.945-0.951,1.884
			c0,0.421-0.107,0.63-0.32,0.63h-0.322l-0.631-0.538v-0.092c0-0.243,0.318-0.87,0.953-1.884v-0.094
			c-1.201,0.85-1.801,1.66-1.801,2.433v0.083c0,0.323,0.141,0.534,0.424,0.63h0.424c0.463,0,1.842-0.299,4.141-0.899h0.207v0.187
			c-1.029,0.868-2.336,1.406-3.922,1.613h-0.746c-1.201-0.124-1.801-0.635-1.801-1.53v-0.353c0-1,0.814-2.049,2.441-3.146
			L212.211,88.045z"/>
		<path fill="#FFF5E9" d="M225.869,81.144h0.186c0.984,0,1.746,1.59,2.275,4.771c0,3.524-1.42,5.908-4.262,7.15l-0.953,0.103
			c-1.076-0.179-1.613-0.782-1.613-1.811v-0.228c0-1.18,0.789-2.162,2.369-2.949h0.477l0.475,0.569v0.455
			c-1.393,0.579-2.09,1.297-2.09,2.152v0.229l0.289,0.34h0.373c1.035,0,2.209-1.134,3.518-3.403c0.25-0.841,0.373-1.673,0.373-2.494
			c0-1.925-0.537-3.172-1.613-3.745l-0.094-0.455C225.662,81.372,225.758,81.144,225.869,81.144z"/>
		<path fill="#FFF5E9" d="M231.703,88.045h0.424c0.408,0,0.725,0.211,0.953,0.632v0.538c0,0.317-0.318,0.945-0.953,1.884
			c0,0.421-0.105,0.63-0.32,0.63h-0.32l-0.631-0.538v-0.092c0-0.243,0.318-0.87,0.951-1.884v-0.094
			c-1.201,0.85-1.801,1.66-1.801,2.433v0.083c0,0.323,0.143,0.534,0.424,0.63h0.426c0.461,0,1.842-0.299,4.139-0.899h0.207v0.187
			c-1.027,0.868-2.334,1.406-3.922,1.613h-0.744c-1.201-0.124-1.803-0.635-1.803-1.53v-0.353c0-1,0.814-2.049,2.443-3.146
			L231.703,88.045z"/>
		<path fill="#FFF5E9" d="M236.34,83.327c0.406,0,0.754,0.318,1.043,0.951c0,0.801-0.277,1.673-0.838,2.618
			c-0.414,1.912-0.621,3.181-0.621,3.809l0.105,0.6h0.102c0.531,0,2.297-1.587,5.299-4.759l0.516-0.126l0.207,0.363
			c0,0.628-0.588,1.5-1.768,2.618l-1.139,1.428c0,0.869,0.277,1.303,0.828,1.303h0.414c0.357,0,1.121-0.316,2.285-0.951l0.207,0.361
			v0.239c-0.316,0.841-0.971,1.434-1.965,1.779l-0.527,0.113c-1.146,0-1.939-0.551-2.381-1.655H237.9
			c-0.752,0.635-1.342,0.952-1.77,0.952c-0.965,0-1.447-0.793-1.447-2.38c0-1.448,0.482-3.829,1.447-7.14l0.105-0.124H236.34z"/>
		<path fill="#FFF5E9" d="M247.639,87.808l0.65,0.248c0.035,0.6-0.135,1.396-0.506,2.39l-0.094,0.715
			c0.014,0.683,0.316,1.279,0.91,1.789l0.053,0.528c-0.25,0.034-0.453,0.052-0.609,0.052c-0.422,0-0.924-0.421-1.502-1.263
			l-0.166-0.755l-0.041-0.259l-0.084,0.011c-1.33,1.241-2.334,1.887-3.01,1.935c-0.4-0.048-0.652-0.18-0.756-0.394l-0.072-0.486
			C242.861,89.401,244.604,87.896,247.639,87.808z M243.768,91.822l0.486-0.362c1.566-1.221,2.453-2.11,2.66-2.67h-0.084
			C245.045,89.404,244.023,90.415,243.768,91.822z"/>
		<path fill="#FFF5E9" d="M187.57,98.245h0.393c0.248,0,0.561,1.231,0.932,3.694l0.154,0.435l1.244-0.113
			c1.764,0,2.648,0.217,2.648,0.651l-0.156,0.218l-0.082-0.104l-0.383,0.217l-0.082-0.113h-0.072l-0.313,0.113v-0.113l-0.082,0.113
			h-0.229v-0.113l-2.182,0.217c0.467,1.275,0.703,2.148,0.703,2.618c-0.215,0.366-0.477,0.583-0.787,0.652
			c-0.785,0-1.744-0.508-2.875-1.522c-0.277-0.364-0.432-0.654-0.467-0.868c0-0.538,0.701-1.084,2.1-1.635v-0.218
			c-0.414-1.572-0.619-2.697-0.619-3.373v-0.538L187.57,98.245z M187.332,104.548v0.113c0.648,0.434,1.117,0.652,1.408,0.652h0.154
			c-0.262-1.091-0.469-1.636-0.619-1.636h-0.156l-0.477,0.218C187.643,104.116,187.539,104.334,187.332,104.548z"/>
		<path fill="#FFF5E9" d="M195.156,101.536c2.42,0.58,3.631,1.745,3.631,3.497c-1.029,1.057-1.918,1.584-2.67,1.584
			c-1.006,0-1.791-0.643-2.35-1.926c-0.191,0-0.334-0.523-0.424-1.572C193.344,102.064,193.947,101.536,195.156,101.536z
			 M194.627,103.202l0.467,1.417l-0.498-0.827c0.42,1.055,0.896,1.683,1.428,1.884c1.035-0.415,1.553-0.814,1.553-1.2
			c-0.125-0.891-0.85-1.476-2.174-1.76C194.887,102.674,194.627,102.837,194.627,103.202z"/>
		<path fill="#FFF5E9" d="M206.525,101.681c0.357,0,0.635,0.193,0.828,0.58l-0.104,0.352l0.207,0.238l-0.414,2.09l0.207,0.59h0.309
			c1.58-0.607,2.371-1.462,2.371-2.566l0.518-0.703h0.414l0.414,0.466v0.59c0,0.579-0.277,1.589-0.828,3.031l-0.207,0.228
			l0.104,0.341l-0.725,1.987l0.104,0.114v0.113l-0.621,1.521c-0.344,0.586-0.67,0.645-0.973,0.176l-0.104-0.982l0.229-1.025
			l0.848-2.597h-0.104l-1.334,0.237c0,0.152,0.102,0.229,0.309,0.229l0.105,0.113v0.113h-0.207l-0.518-0.341h-0.621l-0.828-1.045
			l-0.207-1.396C205.973,102.498,206.25,101.681,206.525,101.681z"/>
		<path fill="#FFF5E9" d="M215,101.495h0.424c0.406,0,0.725,0.211,0.951,0.631v0.539c0,0.316-0.316,0.944-0.951,1.883
			c0,0.42-0.107,0.631-0.32,0.631h-0.322l-0.631-0.538v-0.093c0-0.242,0.318-0.87,0.953-1.883v-0.094
			c-1.201,0.848-1.801,1.658-1.801,2.431v0.084c0,0.324,0.141,0.534,0.424,0.631h0.424c0.463,0,1.842-0.3,4.141-0.899h0.207v0.185
			c-1.029,0.87-2.336,1.408-3.924,1.615h-0.744c-1.201-0.124-1.801-0.636-1.801-1.531v-0.353c0-0.999,0.814-2.049,2.443-3.146
			L215,101.495z"/>
		<path fill="#FFF5E9" d="M225.998,100.998c0.744,0.09,1.117,0.283,1.117,0.58c-0.744,2.317-1.117,4.993-1.117,8.028
			c-0.256,0.622-0.658,1.065-1.211,1.335h-0.402c-1.154-0.158-1.729-0.604-1.729-1.335v-0.083l0.207-0.165l1.014,0.662h0.205
			c0.561,0,0.895-1.68,1.006-5.039C225.088,104.071,225.391,102.743,225.998,100.998z M226.402,98.019h0.609l0.404,0.414v0.248
			l0.102,0.91l-0.299,0.331c-0.586,0-0.994-0.496-1.221-1.489C226.129,98.184,226.264,98.045,226.402,98.019z"/>
		<path fill="#FFF5E9" d="M232.123,101.257l0.652,0.248c0.033,0.601-0.135,1.396-0.508,2.391l-0.094,0.714
			c0.014,0.683,0.318,1.28,0.91,1.79l0.053,0.527c-0.248,0.035-0.451,0.052-0.609,0.052c-0.422,0-0.922-0.42-1.5-1.262l-0.166-0.756
			l-0.041-0.258l-0.084,0.01c-1.332,1.242-2.334,1.887-3.012,1.935c-0.398-0.048-0.65-0.179-0.756-0.393l-0.07-0.487
			C227.346,102.851,229.088,101.347,232.123,101.257z M228.252,105.271l0.486-0.362c1.566-1.221,2.453-2.11,2.66-2.669h-0.082
			C229.529,102.854,228.508,103.864,228.252,105.271z"/>
		<path fill="#FFF5E9" d="M233.777,101.36h0.354c0.357,0.297,0.537,0.607,0.537,0.931l-0.094,0.414l0.094,1.852h0.092
			c0.699-1.647,1.322-2.472,1.875-2.472c0.434,0,0.848,0.962,1.24,2.887c0.275,0.62,0.604,0.931,0.984,0.931l0.361-0.104
			l0.352,0.311v0.414c0,0.234-0.328,0.403-0.982,0.508h-0.352c-0.428-0.221-0.814-0.632-1.16-1.232
			c-0.207-0.393-0.416-1.078-0.631-2.059c-0.09,0-0.297,0.376-0.619,1.128c-0.713,1.165-1.246,1.749-1.605,1.749
			c-0.428,0-0.666-0.618-0.713-1.853v-3.095L233.777,101.36z"/>
		<path fill="#FFF5E9" d="M244.238,101.257l0.652,0.248c0.033,0.601-0.135,1.396-0.508,2.391l-0.092,0.714
			c0.012,0.683,0.316,1.28,0.91,1.79l0.051,0.527c-0.248,0.035-0.451,0.052-0.609,0.052c-0.422,0-0.922-0.42-1.5-1.262l-0.168-0.756
			l-0.039-0.258l-0.084,0.01c-1.33,1.242-2.334,1.887-3.01,1.935c-0.4-0.048-0.652-0.179-0.758-0.393l-0.07-0.487
			C239.461,102.851,241.203,101.347,244.238,101.257z M240.367,105.271l0.488-0.362c1.564-1.221,2.451-2.11,2.658-2.669h-0.082
			C241.645,102.854,240.623,103.864,240.367,105.271z"/>
		<path fill="#FFF5E9" d="M246.607,104.961c0.648,0.076,0.973,0.369,0.973,0.879c-0.188,0.442-0.361,0.701-0.527,0.777h-0.445
			c-0.447-0.338-0.672-0.742-0.672-1.211C245.936,105.109,246.16,104.961,246.607,104.961z"/>
		<path fill="#FFF5E9" d="M249.66,104.961c0.648,0.076,0.973,0.369,0.973,0.879c-0.186,0.442-0.361,0.701-0.527,0.777h-0.445
			c-0.449-0.338-0.672-0.742-0.672-1.211C248.988,105.109,249.211,104.961,249.66,104.961z"/>
		<path fill="#FFF5E9" d="M252.711,104.961c0.65,0.076,0.973,0.369,0.973,0.879c-0.186,0.442-0.361,0.701-0.527,0.777h-0.445
			c-0.447-0.338-0.672-0.742-0.672-1.211C252.039,105.109,252.264,104.961,252.711,104.961z"/>
	</g>
</g>
</svg>
