<?xml version="1.0" encoding="utf-8"?>
<!-- Generator: Adobe Illustrator 16.0.0, SVG Export Plug-In . SVG Version: 6.00 Build 0)  -->
<!DOCTYPE svg PUBLIC "-//W3C//DTD SVG 1.1//EN" "http://www.w3.org/Graphics/SVG/1.1/DTD/svg11.dtd">
<svg version="1.1" id="Layer_1" xmlns="http://www.w3.org/2000/svg" xmlns:xlink="http://www.w3.org/1999/xlink" x="0px" y="0px"
	 width="332px" height="250px" viewBox="-6.5 0 332 250" enable-background="new -6.5 0 332 250" xml:space="preserve">
<g>
	<g>
		<polygon fill-rule="evenodd" clip-rule="evenodd" fill="#5B3A15" points="132.187,222.991 43.305,210.856 57.418,192.993 
			147.146,203.659 		"/>
		<g>
			<g>
				<polygon fill="#C38C65" points="128.764,212.978 58.901,207.612 77.431,187.226 147.293,192.593 				"/>
				<polygon fill="#C3782A" points="130.185,215.511 60.323,210.144 78.851,189.757 148.714,195.124 				"/>
				
					<rect x="43.524" y="205.142" transform="matrix(0.9971 0.0766 -0.0766 0.9971 16.268 -5.448)" fill="#C38C65" width="71.276" height="8.456"/>
				<polygon fill="#FFFFFF" points="113.815,207.79 43.953,202.425 62.481,182.038 132.343,187.405 				"/>
			</g>
			<g>
				<g>
					<path fill-rule="evenodd" clip-rule="evenodd" fill="#C3782A" d="M87.263,198.994c0.525,0.125,1.052,0.248,1.593,0.374
						c-0.373,0.138-0.71,0.263-1.052,0.392c-0.025-0.01-0.047-0.019-0.071-0.028c0.237-0.096,0.473-0.192,0.806-0.329
						c-0.43-0.012-0.771-0.032-1.12-0.027c-1.306,0.013-2.621,0.039-3.929,0.056c-0.321,0.002-0.532,0.066-0.702,0.179
						c-0.441,0.295-0.891,0.587-1.326,0.885c-0.66,0.451-1.399,0.896-1.946,1.37c-0.686,0.593-1.658,1.116-2.518,1.673
						c0.371,0.121,0.762,0.246,1.153,0.373c-0.688,0.269-1.361,0.52-2.004,0.785c-0.294,0.122-0.527,0.269-0.787,0.404
						c-0.058-0.004-0.117-0.007-0.174-0.01c0.049-0.036,0.081-0.077,0.147-0.105c0.559-0.218,0.387-0.469,0.482-0.705
						c0.014-0.036-0.159-0.088-0.278-0.104c-0.435-0.059-0.875-0.116-1.328-0.156c-0.166-0.015-0.408-0.005-0.559,0.038
						c-0.86,0.246-1.706,0.503-2.555,0.759c-0.232-0.018-0.465-0.032-0.698-0.048c-0.668-0.192-1.349-0.381-2.005-0.583
						c-0.692-0.212-2.104-0.102-2.785,0.231c-0.057-0.004-0.116-0.008-0.174-0.013c0.218-0.129,0.199-0.239,0.041-0.35
						c-0.208-0.146-0.391-0.301-0.586-0.452c-0.144-0.114-0.292-0.229-0.438-0.344c0.047,0.181,0.053,0.378,0.27,0.495
						c0.344,0.184,0.453,0.389,0.453,0.63c-0.236-0.017-0.466-0.036-0.699-0.055c-0.037-0.502-0.66-0.862-1.204-1.245
						c-0.035,0.009-0.071,0.02-0.104,0.025c0.261,0.28,0.525,0.557,0.787,0.836c-0.418-0.202-0.746-0.429-1.075-0.653
						c-0.333-0.225-0.668-0.45-1.003-0.677c-0.056,0.013-0.112,0.025-0.171,0.038c0,0.083-0.049,0.175,0.001,0.25
						c0.105,0.167,0.269,0.324,0.399,0.485c0.195,0.246,0.466,0.479,0.277,0.776c-0.232-0.02-0.465-0.037-0.698-0.055
						c-0.15-0.192-0.247-0.397-0.468-0.565c-0.392-0.299-0.854-0.576-1.307-0.856c-0.066-0.039-0.248-0.041-0.375-0.062
						c-0.044,0.062-0.143,0.134-0.127,0.189c0.03,0.096,0.126,0.183,0.2,0.276c0.255,0.303,0.516,0.604,0.771,0.908
						c-0.173-0.014-0.348-0.027-0.523-0.043c-0.462-0.424-0.922-0.849-1.407-1.297c-0.19,0.207-0.209,0.367-0.066,0.536
						c0.172,0.211,0.229,0.445,0.339,0.666c-0.525-0.046-1.047-0.091-1.573-0.135c0.024-0.334,0.023-0.666,0.072-1.003
						c0.037-0.244,0.152-0.495,0.199-0.743c0.016-0.087-0.067-0.172-0.105-0.26c-0.056,0.005-0.111,0.01-0.167,0.015
						c-0.049,0.067-0.097,0.13-0.145,0.195c-0.059,0.082-0.103,0.167-0.181,0.245c-0.377,0.382-1.071,0.438-1.785,0.169
						c-0.514-0.198-0.954-0.438-1.428-0.656c0.635,0.418,1.348,0.802,2.034,1.189c0.405,0.236,0.898,0.45,0.897,0.796
						c-0.759-0.067-1.512-0.133-2.271-0.201c-0.059-0.074-0.078-0.164-0.185-0.219c-0.601-0.303-1.231-0.594-1.834-0.899
						c-0.194-0.102-0.415-0.105-0.689-0.054c-0.309,0.058-0.636,0.102-0.922,0.182c-0.132,0.034-0.243,0.138-0.27,0.213
						c-0.046,0.136-0.024,0.277-0.031,0.415c-0.118-0.013-0.235-0.023-0.353-0.033c0.459-0.354,0.137-0.565-0.886-0.592
						c0.149,0.183,0.301,0.365,0.45,0.55c-1.167-0.114-2.331-0.229-3.497-0.341c0.382-0.536,0.767-1.071,1.149-1.604
						c0.271,0.238,0.544,0.473,0.815,0.71c0.662,0.575,2.354,0.72,3.68,0.325c-1.814-0.831-2.53-1.063-4.253-1.371
						c6.49-6.819,10.173-11.941,16.417-18.64c10.145,1.539,19.463,0.616,29.583,2c-0.018,0.493-1.197,2.372-1.101,2.856
						c0.092,0.465,0.396,0.914,0.601,1.357c-0.154-0.113-0.328-0.247-0.504-0.378c-0.061,0.006-0.125,0.011-0.187,0.016
						c-0.038,0.104-0.152,0.22-0.099,0.314c0.202,0.372,0.457,0.737,0.7,1.104c0.032,0.047,0.116,0.086,0.139,0.134
						c0.028,0.049,0.063,0.137,0.005,0.154c-0.108,0.031-0.3,0.044-0.427,0.03c-0.744-0.088-1.428-0.237-1.426-0.631
						c0-0.138-0.036-0.276-0.05-0.415c-0.012-0.135-0.018-0.272-0.027-0.449c-0.462,0.581-0.527,1.119-0.238,1.649
						c0.16,0.289,0.568,0.496,1.156,0.662c0.551,0.153,1.042,0.344,1.537,0.524c0.089,0.033,0.068,0.112,0.099,0.17
						c-0.141,0.016-0.283,0.031-0.487,0.053c0.542,0.252,1.09,0.504,1.635,0.758c0.089,0.04,0.162,0.088,0.243,0.13
						c-0.16,0.035-0.316,0.091-0.474,0.097c-1.559,0.058-3.104,0.169-4.547,0.483c-0.961,0.21-1.874,0.465-2.789,0.716
						c-0.164,0.043-0.234,0.153-0.347,0.233c0.023,0.02,0.048,0.036,0.071,0.054c0.551-0.089,1.102-0.182,1.654-0.267
						c0.43-0.065,0.867-0.118,1.289-0.194c0.548-0.097,1.083-0.212,1.625-0.319c0.325-0.064,0.646-0.139,0.98-0.186
						c0.371-0.051,0.806-0.026,0.994-0.24c0.039-0.048,0.361-0.099,0.536-0.096c0.543,0.006,1.076,0.038,1.611,0.06
						c-0.001,0.017-0.005,0.037-0.006,0.053c-0.231,0.021-0.48,0.024-0.687,0.067c-0.166,0.036-0.279,0.118-0.418,0.18
						c0.18,0.006,0.36,0.015,0.541,0.015c0.069,0,0.143-0.023,0.273-0.046c-0.176,0.164-0.426,0.224-0.785,0.22
						c-0.151-0.003-0.315-0.02-0.453,0.001c-0.623,0.087-1.231,0.198-1.857,0.276c-0.316,0.041-0.658,0.034-0.987,0.042
						c-0.226,0.006-0.449,0.003-0.696,0.028c0.337,0.169,0.603,0.33,0.517,0.609c-0.09-0.09-0.136-0.138-0.185-0.185
						c-0.275-0.268-1.112-0.294-1.546-0.027c-0.305,0.188-0.538,0.409-0.629,0.624c-0.153,0.365-0.401,0.714-0.979,1.024
						c-0.558,0.303-0.479,0.626-0.528,0.941c-0.03,0.183,0.033,0.375,0.18,0.539c0.229,0.254,0.23,0.505,0.087,0.781
						c-0.059,0.117-0.017,0.284,0.159,0.343c0.161,0.057,0.563-0.002,0.823-0.01c-0.045,0.111-0.183,0.276-0.164,0.43
						c0.024,0.175,0.373,0.214,1.018,0.147c-0.263,0.132-0.825,0.219-0.384,0.406c-0.047,0.005-0.098,0.009-0.146,0.013
						c-0.26-0.194-0.497-0.398-0.792-0.582c-0.188-0.117-0.412-0.238-0.709-0.301c-0.521-0.114-0.954-0.254-1.23-0.468
						c-0.392-0.3-0.95-0.521-1.778-0.626c-0.243-0.03-0.449-0.101-0.768-0.125c0.423,0.292,0.854,0.58,1.26,0.874
						c0.576,0.415,1.335,0.756,2.171,1.07c0.072,0.026,0.113,0.063,0.167,0.096c-0.082,0.01-0.236,0.018-0.241,0.027
						c-0.052,0.115-0.085,0.232-0.125,0.36c0.49-0.002,0.939-0.004,1.488-0.004C87.832,199.177,87.549,199.085,87.263,198.994z
						 M80.672,200.761c-0.128-0.028-0.229-0.063-0.35-0.078c-1.751-0.256-3.55-0.439-5.587-0.245
						c-0.545,0.053-1.021-0.056-1.172-0.259c-0.104-0.138-0.269-0.223-0.606-0.25c-0.217-0.018-0.439-0.04-0.629-0.082
						c-0.317-0.07-0.586-0.047-0.869,0.073c-0.227,0.1-0.426,0.088-0.644,0.016c-1.356-0.473-2.739-0.938-4.086-1.431
						c-0.439-0.159-0.769-0.375-1.182-0.553c-1.017-0.436-2.085-0.854-3.074-1.31c-0.674-0.314-1.447-0.4-2.432-0.25
						c-0.779,0.115-1.319,0.494-1.202,0.846c0.11,0.327,0.044,0.646-0.177,0.986c-0.24,0.37-0.405,0.761-0.396,1.132
						c0.009,0.313-0.055,0.595-0.352,0.894c-0.335,0.339-0.608,0.689-0.907,1.033c0.221-0.017,0.33-0.056,0.449-0.089
						c0.899-0.259,1.84-0.414,2.802-0.288c1.105,0.141,2.186,0.25,3.435,0.059c0.581-0.09,0.955,0.134,0.665,0.377
						c-0.196,0.164-0.541,0.321-0.888,0.436c-0.31,0.107-0.715,0.153-1.117,0.231c0.093,0.021,0.158,0.041,0.233,0.052
						c2.072,0.261,4.13,0.525,6.217,0.752c1.36,0.144,2.774,0.231,4.151,0.354c1.156,0.105,2.298,0.228,3.445,0.342
						c0.209,0.021,0.389,0.037,0.561-0.071c0.555-0.349,1.18-0.682,1.664-1.038C79.347,201.869,79.974,201.323,80.672,200.761z
						 M67.347,196.079c0.025-0.021,0.054-0.041,0.083-0.063c-0.684-0.389-1.638-0.594-2.832-0.663c0.072-0.04,0.131-0.072,0.2-0.112
						c-0.86-0.26-1.688-0.52-2.54-0.767c-0.493-0.142-1.082-0.15-1.729-0.132c0.293,0.078,0.537,0.145,0.778,0.211
						c-0.025,0.029-0.053,0.06-0.079,0.089c-1.145-0.08-2.304-0.134-3.322-0.358c0.707,0.323,1.453,0.633,2.133,0.97
						c1.049,0.517,1.989,1.077,3.086,1.56c2.079,0.906,4.224,1.763,6.368,2.602c0.436,0.172,0.987,0.292,1.523,0.407
						c0.295,0.063,0.522-0.021,0.558-0.18c0.051-0.233-0.289-0.412-0.822-0.446c-0.257-0.016-0.498-0.057-0.662-0.075
						c0.394-0.091,0.834-0.168,1.218-0.286c0.69-0.212,1.306-0.484,2.025-0.663c0.839-0.206,0.803-0.477,0.247-0.676
						c-0.589-0.213-1.182-0.436-2.029-0.484c-0.12-0.009-0.233-0.052-0.319-0.089c-0.72-0.325-1.719-0.467-2.662-0.637
						c-0.542-0.096-1.193-0.097-1.935-0.151C66.965,196.108,67.154,196.095,67.347,196.079z M68.406,193.189
						c0,0.02,0.003,0.037,0.005,0.055c-0.522,0.012-1.046,0.039-1.563,0.03c-1.22-0.029-2.271-0.262-3.348-0.467
						c-0.446-0.083-0.932-0.148-1.42-0.174c-0.212-0.011-0.477,0.097-0.717,0.151c0.15,0.073,0.289,0.152,0.453,0.219
						c0.153,0.061,0.325,0.116,0.506,0.162c0.306,0.076,0.613,0.189,0.944,0.2c0.608,0.014,1.236-0.04,1.774-0.06
						c0.129,0.091,0.226,0.229,0.446,0.293c0.41,0.128,0.868,0.235,1.352,0.3c0.975,0.131,1.969,0.244,2.979,0.328
						c0.889,0.071,1.805,0.1,2.717,0.124c0.338,0.012,0.731-0.01,0.919-0.193c0.199-0.191,0.29-0.386-0.004-0.546
						c-0.238-0.132-0.532-0.246-0.83-0.355c-0.371-0.135-0.802-0.244-1.145-0.392c-0.594-0.259-1.249-0.479-2.049-0.608
						c-1.457-0.236-2.847-0.591-4.566-0.432c-0.05,0.006-0.117-0.023-0.158-0.017c-0.25,0.048-0.582,0.076-0.719,0.16
						c-0.152,0.093-0.238,0.266-0.147,0.357c0.124,0.117,0.416,0.22,0.697,0.274C65.781,192.843,66.857,193.264,68.406,193.189z
						 M65.059,191.14c1.748-0.132,3.449-0.297,5.155-0.38c1.685-0.08,3.378-0.085,5.049-0.12c-0.496-0.06-0.988-0.124-1.487-0.18
						c-0.809-0.085-1.621-0.177-2.44-0.251c-1.409-0.127-2.817,0.025-4.222,0.138c-0.834,0.066-1.667,0.135-2.503,0.203
						c2.827-1.076,5.958-1.833,9.544-2.16c-1.152-0.014-2.307-0.025-3.395,0.19c-1.26,0.252-2.516,0.516-3.716,0.824
						c-1.893,0.489-3.824,0.937-5.868,1.279c-1.369,0.229-2.708,0.493-3.875,0.948c1.037-0.201,2.045-0.366,3.148-0.319
						c0.638,0.027,1.296,0,1.938,0.017c1.195,0.024,2.391,0.052,3.576,0.101c0.534,0.021,1.048,0.102,1.57,0.153
						c0.016-0.021,0.032-0.042,0.05-0.061c-0.289-0.047-0.577-0.095-0.91-0.146c0.119-0.047,0.211-0.085,0.302-0.12
						c-0.003-0.025-0.008-0.048-0.01-0.073C66.339,191.172,65.713,191.154,65.059,191.14z M64.521,189.648
						c1.012-0.223,2.05-0.395,2.953-0.66c1.756-0.512,3.698-0.733,5.682-0.876c1.467-0.104,2.962-0.109,4.446-0.149
						c0.724-0.019,1.448-0.02,2.174-0.03c0.013-0.018,0.026-0.035,0.039-0.053c-1.89-0.272-3.78-0.547-5.674-0.823
						c-0.107-0.019-0.249-0.015-0.365,0c-0.923,0.106-1.831,0.049-2.742,0.002c-0.818-0.042-1.637-0.089-2.457-0.129
						c-0.266-0.012-0.538-0.009-0.804-0.016c-0.461-0.01-0.951-0.074-1.372-0.019c-1.069,0.141-2.119,0.319-3.151,0.512
						c-0.47,0.089-0.894,0.233-1.318,0.365c-0.707,0.217-1.402,0.449-2.1,0.678c0.029,0.02,0.061,0.041,0.092,0.061
						c0.05-0.018,0.097-0.04,0.15-0.051c1.479-0.351,2.915-0.756,4.559-0.905c2.211-0.2,4.441-0.226,6.669-0.184
						c0.307,0.005,0.62,0.071,0.887,0.14c0.281,0.071,0.277,0.176-0.08,0.229c-0.25,0.038-0.512,0.067-0.771,0.081
						c-1.91,0.094-3.558,0.464-4.991,1.039C65.743,189.105,65.167,189.367,64.521,189.648z M85.718,197.293
						c0.292-0.035,0.53-0.061,0.771-0.087c0.145-0.016,0.288-0.027,0.434-0.041c-0.024-0.059-0.026-0.118-0.077-0.167
						c-0.239-0.245-0.509-0.481-0.737-0.727c-0.619-0.669-0.07-1.317,0.866-1.952c0.169-0.111,0.388-0.192,0.747-0.212
						c0.221-0.011,0.455-0.092,0.651-0.156c0.088-0.029,0.167-0.108,0.137-0.146c-0.036-0.037-0.21-0.077-0.316-0.067
						c-0.456,0.035-0.911,0.085-1.362,0.136c-0.388,0.045-0.781,0.145-1.157,0.146c-2.151,0.027-3.496,1.132-3.116,1.738
						c0.301,0.477,1.111,0.806,1.941,1.118C84.91,197.029,85.352,197.169,85.718,197.293z M84.447,197.676
						c-0.251-0.146-0.448-0.342-0.812-0.449c-0.405-0.118-0.97-0.149-1.45-0.231c-0.292-0.051-0.6-0.104-0.82-0.194
						c-0.271-0.106-0.426-0.057-0.618,0.057c-0.226,0.131-0.42,0.281-0.695,0.393c-0.634,0.261-1.303,0.506-1.966,0.751
						c-0.493,0.185-0.477,0.386,0.087,0.457c0.518,0.067,1.062,0.108,1.602,0.148c0.853,0.064,1.656-0.019,2.432-0.268
						C82.906,198.115,83.644,197.91,84.447,197.676z M86.522,199.322c0.018-0.101,0.021-0.169,0.045-0.235
						c0.083-0.215-0.065-0.372-0.435-0.507c-0.416-0.154-0.762-0.344-1.11-0.528c-0.411-0.215-0.515-0.229-1.188-0.075
						c-0.228,0.052-0.437,0.12-0.649,0.182c-0.665,0.199-1.323,0.398-1.986,0.597c-0.134,0.042-0.344,0.064-0.399,0.113
						c-0.17,0.146-0.28,0.302-0.416,0.456c0.554,0.07,0.971,0.267,1.707,0.161c1.131-0.16,2.267-0.211,3.39-0.176
						C85.806,199.32,86.136,199.319,86.522,199.322z M68.629,203.016c-0.128,0.205-0.237,0.407-0.394,0.609
						c-0.131,0.171-0.044,0.279,0.241,0.368c0.524,0.162,1.057,0.319,1.538,0.501c0.583,0.221,1.199,0.245,1.96-0.011
						c0.247-0.085,0.538-0.141,0.78-0.227c0.293-0.104,0.595-0.212,0.822-0.337c0.353-0.194,0.295-0.505-0.069-0.532
						C71.89,203.265,70.266,203.143,68.629,203.016z M70.326,191.181c-0.238-0.047-0.435-0.121-0.647-0.127
						c-0.356-0.001-0.722,0.036-1.083,0.059c-0.291,0.021-0.581,0.041-0.872,0.063c0.004,0.02,0.01,0.039,0.015,0.06
						c0.116-0.017,0.229-0.027,0.243-0.031c-0.032,0.105-0.097,0.204-0.084,0.299c0.025,0.172,0.365,0.203,0.667,0.249
						c2.02,0.309,4.032,0.615,6.047,0.914c0.608,0.086,1.192,0.216,1.827,0.249c0.575,0.028,1.204-0.019,1.796-0.077
						c0.315-0.031,0.626-0.145,0.891-0.243c0.082-0.028,0.065-0.162-0.023-0.2c-0.073-0.032-0.328-0.012-0.477,0.014
						c-0.186,0.036-0.334,0.107-0.514,0.15c-0.371,0.088-0.971,0.047-1.036-0.1c-0.115-0.258-0.553-0.276-1.016-0.314
						c-0.295-0.026-0.464-0.1-0.378-0.256c0.027-0.051-0.079-0.152-0.172-0.161c-0.185-0.017-0.495-0.021-0.589,0.026
						c-0.281,0.146-0.444,0.322-0.216,0.498c0.089,0.07,0.205,0.132,0.311,0.196c-0.049,0.013-0.092,0.025-0.136,0.038
						c-0.292-0.14-0.615-0.27-0.869-0.422c-0.445-0.271-1.072-0.327-1.813-0.26c-0.298,0.026-0.59,0.078-1.006,0.135
						c0.268-0.078,0.418-0.121,0.584-0.168c-0.518-0.053-1.009-0.089-1.483-0.146c-0.394-0.053-0.442-0.152-0.197-0.309
						C70.148,191.282,70.205,191.252,70.326,191.181z M83.462,197.004c0.036-0.01,0.071-0.02,0.108-0.027
						c-0.229-0.172-0.461-0.342-0.682-0.513c-0.706-0.548-0.779-1.134,0.033-1.756c0.282-0.216,0.605-0.427,0.929-0.651
						c-0.253,0.05-0.477,0.096-0.772,0.154c0.01-0.297,0.55-0.435,0.908-0.631c-0.361,0.017-0.726,0.029-1.042,0.093
						c-1.036,0.208-1.832,0.557-2.54,0.929c-0.445,0.236-0.28,0.604,0.202,0.765c0.186,0.061,0.362,0.152,0.415,0.248
						C81.355,196.244,82.31,196.658,83.462,197.004z M80.385,198.813c-0.482-0.04-0.961-0.064-1.405-0.12
						c-0.992-0.132-1.904-0.005-2.819,0.271c-0.437,0.13-0.93,0.221-1.391,0.338c-0.099,0.023-0.208,0.073-0.233,0.113
						c-0.099,0.157-0.164,0.313-0.244,0.471c0.061,0.009,0.102,0.022,0.143,0.021c1.41-0.061,2.821-0.124,4.233-0.193
						c0.139-0.007,0.291-0.058,0.422-0.098C79.773,199.412,80.103,199.125,80.385,198.813z M82.72,199.479
						c-3.07,0.373-5.994,0.366-8.963,0.568c0.21,0.102,0.429,0.206,0.711,0.236c0.408,0.041,0.863,0.028,1.298,0.038
						c0.732,0.018,1.49,0.003,2.196,0.055c0.901,0.065,1.756,0.189,2.641,0.274c0.137,0.014,0.414-0.005,0.471-0.04
						C81.618,200.253,82.124,199.892,82.72,199.479z M65.777,204.168c0.646-0.093,1.27-0.172,1.883-0.273
						c0.128-0.02,0.296-0.102,0.328-0.158c0.115-0.218,0.203-0.438,0.262-0.657c0.015-0.051-0.107-0.124-0.216-0.144
						c-0.962-0.137-2.01-0.143-3.066-0.124c-0.126,0.002-0.261,0.031-0.446,0.056C64.739,203.365,65.379,203.732,65.777,204.168z
						 M76.095,197.353c-0.62-0.509-0.899-1.034-0.907-1.607c-0.004-0.184-0.252-0.31-0.601-0.346
						c-0.41-0.042-0.553,0.143-0.731,0.272c-0.112,0.081-0.221,0.195-0.387,0.225c-0.393,0.072-0.375,0.2-0.461,0.328
						c-0.26,0.393-0.021,0.62,0.898,0.729C74.674,197.044,75.369,197.216,76.095,197.353z M68.183,194.341
						c0.168,0.271,0.555,0.412,1.021,0.461c0.708,0.073,1.287,0.225,1.858,0.394c0.849,0.246,1.728,0.212,2.512-0.133
						c0.266-0.116,0.518-0.143,0.819-0.161c0.112-0.008,0.222-0.01,0.33-0.015c0.016-0.021,0.031-0.041,0.049-0.063
						c-0.272-0.049-0.528-0.127-0.82-0.144c-1.672-0.108-3.353-0.207-5.031-0.311C68.705,194.357,68.485,194.352,68.183,194.341z
						 M69.435,195.328c-1.362-0.469-2.685-0.877-4.417-1.109c0.125,0.249,0.292,0.449,0.317,0.659
						c0.038,0.281,0.364,0.405,0.877,0.549C67.279,195.723,68.274,195.51,69.435,195.328z M86.113,190.721
						c-1.359-0.175-2.698-0.304-4.155-0.256c0.662,0.35,1.27,0.702,2.214,0.902c0.158,0.033,0.421,0.054,0.564,0.02
						C85.354,191.241,85.91,191.061,86.113,190.721z M86.573,190.804c-0.474,0.213-0.9,0.41-1.339,0.601
						c-0.301,0.134-0.288,0.176,0.104,0.242c1.074,0.184,2.243,0.135,3.415,0.127C88.569,191.368,87.56,190.936,86.573,190.804z
						 M72.575,196.615c0.135-0.288-0.083-0.524-0.589-0.633c-0.655-0.14-1.3-0.291-1.956-0.436
						c-0.153-0.033-0.342-0.077-0.497-0.062c-0.57,0.059-1.135,0.14-1.819,0.228C69.418,196.032,71.004,196.328,72.575,196.615z
						 M74.155,203.435c-0.228,0.337-0.185,0.337,0.335,0.471c0.965,0.243,2.018,0.145,3.131-0.062
						C76.726,203.46,75.296,203.61,74.155,203.435z M81.104,189.886c0.53,0.09,0.94,0.218,0.875,0.463
						c0.716,0.033,1.379,0.06,2.037,0.095c0.656,0.038,1.308,0.085,2.002,0.134C84.626,190.058,82.866,189.98,81.104,189.886z
						 M77.704,197.248c0.035-0.008,0.07-0.018,0.105-0.027c-0.039-0.344-0.039-0.69-0.133-1.028
						c-0.055-0.205-0.137-0.444-0.432-0.577c-0.395-0.177-1.008-0.264-1.526-0.392c0.043,0.062,0.114,0.107,0.206,0.147
						c0.63,0.257,0.9,0.592,1.082,0.959C77.162,196.647,77.465,196.945,77.704,197.248z M65.102,195.203
						c0.055-0.014,0.109-0.027,0.167-0.042c-0.159-0.293-0.312-0.588-0.482-0.882c-0.019-0.032-0.163-0.073-0.232-0.066
						c-0.414,0.044-0.855,0.075-1.231,0.167c-0.371,0.088-0.328,0.237,0.019,0.323c0.318,0.081,0.637,0.163,0.947,0.249
						C64.564,195.032,64.829,195.12,65.102,195.203z M74.142,199.102c-0.686,0.191-1.365,0.384-2.159,0.607
						c0.45,0.063,0.749,0.108,1.045,0.153c0.863,0.12,0.922,0.107,1.177-0.287C74.301,199.423,74.462,199.263,74.142,199.102z
						 M77.581,198.33c-1.048,0.237-2.097,0.477-3.138,0.713c0.121,0.219,0.165,0.225,0.586,0.113
						c0.726-0.199,1.446-0.399,2.185-0.584C77.605,198.476,77.655,198.374,77.581,198.33z M80.405,196.865
						c0.135-0.077,0.255-0.146,0.318-0.181c-0.222-0.246-0.417-0.465-0.616-0.69c-0.322,0.114-0.433,0.118-0.61,0.002
						c-0.249-0.165-0.466-0.338-0.723-0.525C79.073,196.008,79.597,196.465,80.405,196.865z M74.011,193.812
						c-0.23,0.296-0.111,0.491,0.206,0.52c0.29,0.021,0.736-0.12,0.864-0.274c0.166-0.2-0.004-0.436-0.37-0.42
						C74.436,193.649,74.162,193.772,74.011,193.812z M76.058,204.135c-0.011,0.176-0.021,0.327-0.031,0.491
						c0.578-0.217,1.109-0.414,1.642-0.611c-0.005-0.013-0.007-0.024-0.011-0.036C77.135,204.031,76.618,204.078,76.058,204.135z
						 M76.215,194.295c-0.731,0.622-0.731,0.622-0.393,0.759C76.562,194.836,76.689,194.609,76.215,194.295z M75,194.797
						c0.047-0.001,0.091,0.006,0.137,0.008c0.778-0.407,0.877-0.741,0.128-0.853C75.174,194.243,75.087,194.519,75,194.797z
						 M77.014,194.566c-0.211,0.166-0.426,0.323-0.608,0.485c-0.055,0.053-0.013,0.117-0.02,0.178
						c0.138-0.012,0.304-0.009,0.408-0.043C77.507,194.952,77.542,194.813,77.014,194.566z M80.978,199.577
						c-0.732-0.149-1.085-0.126-1.718,0.126C79.876,199.657,80.367,199.622,80.978,199.577z"/>
					<path fill-rule="evenodd" clip-rule="evenodd" fill="#FFFFFF" d="M47.44,200.757c1.723,0.309,2.438,0.54,4.253,1.371
						c-1.326,0.395-3.018,0.25-3.68-0.325c-0.271-0.237-0.544-0.472-0.815-0.71C47.278,200.98,47.358,200.869,47.44,200.757z"/>
					<path fill-rule="evenodd" clip-rule="evenodd" fill="#FFFFFF" d="M71.096,204.816c0.849-0.256,1.694-0.513,2.555-0.759
						c0.15-0.043,0.393-0.053,0.559-0.038c0.453,0.04,0.893,0.098,1.328,0.156c0.119,0.016,0.292,0.067,0.278,0.104
						c-0.095,0.236,0.077,0.487-0.482,0.705c-0.066,0.028-0.098,0.069-0.147,0.105C73.822,205.001,72.459,204.909,71.096,204.816z"
						/>
					<path fill-rule="evenodd" clip-rule="evenodd" fill="#FFFFFF" d="M50.335,203.112c0.007-0.138-0.015-0.279,0.031-0.415
						c0.027-0.075,0.138-0.179,0.27-0.213c0.286-0.08,0.613-0.124,0.922-0.182c0.274-0.052,0.495-0.048,0.689,0.054
						c0.604,0.306,1.233,0.597,1.834,0.899c0.107,0.055,0.126,0.145,0.185,0.219C52.955,203.357,51.645,203.233,50.335,203.112z"/>
					<path fill-rule="evenodd" clip-rule="evenodd" fill="#FFFFFF" d="M56.537,203.676c0.001-0.346-0.492-0.56-0.897-0.796
						c-0.686-0.388-1.399-0.771-2.034-1.189c0.474,0.219,0.914,0.458,1.428,0.656c0.714,0.27,1.408,0.213,1.785-0.169
						c0.078-0.078,0.122-0.163,0.181-0.245c0.048-0.065,0.096-0.128,0.145-0.195c0.056-0.005,0.111-0.01,0.167-0.015
						c0.038,0.088,0.121,0.173,0.105,0.26c-0.046,0.248-0.162,0.499-0.199,0.743c-0.049,0.337-0.048,0.669-0.072,1.003
						C56.943,203.712,56.74,203.694,56.537,203.676z"/>
					<path fill-rule="evenodd" clip-rule="evenodd" fill="#FFFFFF" d="M62.382,204.165c0.188-0.298-0.083-0.53-0.277-0.776
						c-0.131-0.161-0.294-0.318-0.399-0.485c-0.05-0.075-0.002-0.167-0.001-0.25c0.059-0.013,0.115-0.025,0.171-0.038
						c0.334,0.227,0.669,0.452,1.003,0.677c0.329,0.225,0.657,0.451,1.075,0.653c-0.261-0.279-0.526-0.556-0.787-0.836
						c0.033-0.006,0.07-0.017,0.104-0.025c0.544,0.383,1.167,0.743,1.204,1.245C63.776,204.275,63.078,204.223,62.382,204.165z"/>
					<path fill-rule="evenodd" clip-rule="evenodd" fill="#FFFFFF" d="M65.607,204.417c0.682-0.333,2.093-0.443,2.785-0.231
						c0.656,0.202,1.336,0.391,2.005,0.583C68.803,204.654,67.205,204.538,65.607,204.417z"/>
					<path fill-rule="evenodd" clip-rule="evenodd" fill="#FFFFFF" d="M60.376,204.001c-0.254-0.304-0.515-0.605-0.771-0.908
						c-0.073-0.094-0.17-0.181-0.2-0.276c-0.016-0.056,0.083-0.128,0.127-0.189c0.127,0.021,0.309,0.022,0.375,0.062
						c0.454,0.28,0.916,0.558,1.307,0.856c0.222,0.168,0.318,0.373,0.468,0.565C61.248,204.075,60.813,204.036,60.376,204.001z"/>
					<path fill-rule="evenodd" clip-rule="evenodd" fill="#FFFFFF" d="M58.719,203.863c-0.109-0.221-0.167-0.455-0.339-0.666
						c-0.143-0.169-0.125-0.329,0.066-0.536c0.485,0.448,0.945,0.873,1.407,1.297C59.475,203.926,59.095,203.896,58.719,203.863z"/>
					<path fill-rule="evenodd" clip-rule="evenodd" fill="#FFFFFF" d="M49.546,203.037c-0.149-0.185-0.301-0.367-0.45-0.55
						c1.023,0.026,1.346,0.237,0.886,0.592C49.838,203.063,49.691,203.05,49.546,203.037z"/>
					<path fill-rule="evenodd" clip-rule="evenodd" fill="#FFFFFF" d="M65.173,204.384c0-0.241-0.109-0.446-0.453-0.63
						c-0.217-0.117-0.223-0.314-0.27-0.495c0.146,0.115,0.294,0.229,0.438,0.344c0.196,0.151,0.378,0.306,0.586,0.452
						c0.158,0.11,0.178,0.221-0.041,0.35C65.346,204.396,65.26,204.39,65.173,204.384z"/>
					<path fill-rule="evenodd" clip-rule="evenodd" fill="#C3782A" d="M104.529,199.205c-0.698-0.154-0.411-0.573,0.267-0.81
						c0.261-0.09,0.549-0.169,0.813-0.259c0.132-0.043,0.242-0.098,0.304-0.17c-0.217,0.07-0.426,0.141-0.647,0.207
						c-0.223,0.067-0.453,0.13-0.724,0.183c0.229-0.098,0.438-0.204,0.694-0.293c0.616-0.213,0.623-0.207,0.394-0.45
						c-0.256,0.104-0.524,0.215-0.794,0.324c-0.03-0.008-0.058-0.019-0.084-0.029c0.188-0.08,0.397-0.158,0.567-0.244
						c0.295-0.147,0.268-0.218-0.127-0.278c-0.249-0.039-0.535-0.053-0.796-0.085c-1.085-0.128-0.99-0.433-0.579-0.759
						c0.167-0.131,1.015-0.256,1.457-0.208c0.383,0.042,0.487-0.018,0.628-0.154c0.273-0.265,0.495-0.556,0.952-0.778
						c0.425-0.205,1.092-0.381,1.829-0.376c0.23,0.002,0.456,0.041,0.645,0.086c0.222,0.049,0.353,0.054,0.635-0.023
						c0.33-0.09,0.759-0.121,1.145-0.179c0.037,0.017,0.075,0.03,0.114,0.044c0.067-0.11,0.232-0.235,0.181-0.333
						c-0.06-0.113-0.316-0.2-0.479-0.3c-0.148-0.093-0.412-0.181-0.405-0.279c0.014-0.216-0.241-0.338-0.658-0.425
						c-0.702-0.146-1.399-0.3-2.138-0.424c-0.365-0.063-0.816-0.066-1.227-0.099c-0.408-0.03-0.806-0.076-1.224-0.089
						c-0.875-0.024-1.765-0.023-2.638-0.054c-0.32-0.009-0.607-0.08-0.901-0.131c-0.761-0.129-1.515-0.261-2.386-0.416
						c0.446-0.08,0.8-0.144,1.157-0.206c-0.637-0.113-1.247-0.012-1.833,0.087c-0.843,0.145-1.455,0.037-1.64-0.294
						c-0.068-0.12-0.252-0.226-0.424-0.376c0.323-0.09,0.689-0.241,1.11-0.297c0.376-0.047,0.875-0.149,1.222,0.057
						c0.158,0.091,0.575,0.11,0.885,0.163c0.039-0.025,0.083-0.053,0.146-0.092c0.77,0.271,1.792,0.06,2.75,0.142
						c-0.103-0.04-0.143-0.058-0.238-0.098c0.466-0.016,0.879-0.028,1.333-0.044c-0.026-0.047-0.044-0.074-0.061-0.104
						c0.232-0.034,0.458-0.067,0.685-0.102c-0.012-0.017-0.022-0.036-0.033-0.056c0.144,0.009,0.291,0.016,0.444,0.025
						c-0.011-0.036-0.017-0.064-0.03-0.105c0.121,0.021,0.217,0.039,0.356,0.063c-0.023-0.056-0.042-0.092-0.078-0.171
						c0.532,0.105,0.99,0.197,1.487,0.295c-0.003-0.034-0.012-0.06-0.022-0.125c0.312,0.058,0.574,0.106,0.847,0.156
						c0.028-0.025,0.066-0.059,0.104-0.094c0.124,0.06,0.235,0.113,0.352,0.169c0.195-0.097,0.359-0.181,0.566-0.282
						c0.019,0.059,0.023,0.08,0.046,0.154c0.17-0.125,0.283-0.206,0.403-0.291c-0.003,0.085-0.007,0.169-0.012,0.254
						c0.034-0.002,0.068-0.002,0.101-0.002c0.024-0.047,0.046-0.096,0.075-0.152c0.185,0.052,0.341,0.096,0.539,0.147
						c0.019-0.055,0.033-0.097,0.058-0.163c0.095,0.078,0.166,0.141,0.237,0.203c0.024-0.002,0.046-0.003,0.068-0.005
						c0.004-0.052,0.002-0.097,0.001-0.15c0.349,0.094,0.671,0.184,1.051,0.283c-0.051-0.082-0.089-0.145-0.126-0.204
						c0.28,0.015,0.28,0.015,0.572,0.421c0.057-0.024,0.106-0.047,0.107-0.047c0.162,0.123,0.334,0.253,0.521,0.392
						c0.068-0.041,0.12-0.072,0.175-0.105c0.033,0,0.065,0.002,0.097,0.005c-0.014,0.096-0.029,0.192-0.047,0.311
						c0.088-0.031,0.139-0.047,0.213-0.075c0.096,0.08,0.188,0.156,0.295,0.244c0.065-0.023,0.13-0.047,0.217-0.078
						c0.004,0.083,0.006,0.15,0.011,0.218c0.168-0.021,0.325-0.042,0.482-0.065c-0.121,0.095-0.216,0.169-0.363,0.285
						c0.223-0.045,0.318-0.063,0.464-0.094c-0.175,0.186-0.274,0.316,0.247,0.408c0.313,0.054,0.438,0.227,0.694,0.374
						c0.009-0.087,0.015-0.144,0.022-0.209c0.218,0.124,0.42,0.239,0.624,0.354c0.034-0.009,0.067-0.018,0.102-0.026
						c-0.001-0.026-0.001-0.056-0.002-0.133c0.214,0.113,0.365,0.194,0.513,0.274c0.077-0.026,0.156-0.055,0.19-0.068
						c0.092,0.179,0.183,0.358,0.281,0.546c0.053-0.021,0.105-0.041,0.268-0.105c-0.125,0.134-0.207,0.219-0.31,0.328
						c0.149-0.027,0.239-0.045,0.255-0.048c0.051,0.233,0.101,0.465,0.157,0.719c0.093-0.055,0.148-0.091,0.23-0.139
						c-0.019,0.165-0.035,0.313-0.052,0.46c0.035-0.005,0.074-0.011,0.113-0.018c0.024,0.047,0.059,0.09,0.071,0.136
						c0.011,0.04,0.001,0.082,0.104,0.134c-0.09,0.05-0.178,0.099-0.3,0.168c0.108-0.001,0.183-0.003,0.255,0
						c-0.081,0.166-0.165,0.335-0.248,0.519c0.108-0.013,0.184-0.023,0.221-0.029c-0.135,0.144-0.251,0.292-0.417,0.438
						c-0.282,0.25-0.431,0.503-0.589,0.761c-0.136,0.226-0.472,0.452-0.704,0.677c-0.159,0.155-0.298,0.31-0.439,0.467
						c-0.091,0.103-0.107,0.223-0.528,0.209c-0.076,0.204-0.38,0.351-0.799,0.491c-0.248,0.083-0.39,0.212-0.776,0.215
						c-0.007-0.002-0.028,0.009-0.033,0.014c-0.136,0.196-0.677,0.296-0.942,0.463c-0.055,0.036-0.195,0.056-0.276,0.089
						c-0.393,0.154-0.78,0.313-1.169,0.47c-0.03,0.012-0.063,0.025-0.105,0.042c-0.038-0.025-0.069-0.043-0.102-0.064
						c-0.354,0.212-0.703,0.422-1.059,0.635c-0.031-0.016-0.077-0.034-0.082-0.038c-0.597,0.138-1.171,0.268-1.641,0.374
						c-0.174,0.012-0.289,0.005-0.344,0.023c-0.305,0.103-0.622,0.204-0.885,0.319c-0.481,0.212-1.071,0.324-1.695,0.419
						c0.54-0.153,1.082-0.303,1.615-0.455c0.298-0.087,0.478-0.396,0.292-0.525c-0.375,0.572-1.54,0.832-2.783,1.069
						c0.298-0.031,0.595-0.063,0.892-0.093c-0.128,0.021-0.259,0.055-0.392,0.07c-0.414,0.05-0.778,0.126-0.957,0.306
						c-0.035-0.003-0.072-0.001-0.108-0.001c0.01-0.08,0.019-0.157,0.026-0.209c-0.843,0.133-1.739,0.277-2.637,0.421
						c-0.014-0.005-0.025-0.015-0.039-0.02c0.189-0.056,0.38-0.11,0.566-0.162c-0.411-0.015-0.43-0.009-0.876,0.257
						c0.003-0.161,0.036-0.285,0.439-0.421c0.324-0.109,0.537-0.279,0.771-0.425c0.199-0.128,0.356-0.262,0.533-0.391
						c0.2-0.07,0.383-0.146,0.595-0.204c0.512-0.141,0.881-0.314,1.118-0.536c-0.139,0.031-0.256,0.056-0.376,0.08
						c0.012-0.022,0.024-0.045,0.069-0.127c-0.543,0.187-0.985,0.335-1.424,0.486c-0.109,0.071-0.216,0.142-0.324,0.213
						c-0.1,0.044-0.196,0.084-0.295,0.126c-0.239,0.11-0.471,0.222-0.718,0.329c-0.164,0.07-0.35,0.133-0.526,0.2
						c-0.046-0.011-0.089-0.02-0.135-0.027c0.36-0.235,0.722-0.468,1.087-0.702c-0.583,0.017-0.852,0.19-1.261,0.802
						c-0.503,0.071-1.007,0.138-1.513,0.212c-0.031-0.004-0.06-0.005-0.091-0.006c-0.121-0.042-0.241-0.084-0.365-0.13
						c0.419-0.039,0.88-0.081,1.345-0.127c-0.895,0.062-1.501-0.231-2.489-0.117c0.295,0.056,0.538,0.099,0.84,0.153
						c-0.375,0.143-0.658,0.252-0.943,0.362c-0.017-0.005-0.036-0.01-0.054-0.015c0.174-0.094,0.35-0.188,0.601-0.325
						c-0.345,0.046-0.585,0.075-0.878,0.113c0.134-0.053,0.238-0.094,0.345-0.136c-0.011-0.012-0.022-0.021-0.032-0.034
						c-0.283,0.053-0.564,0.105-0.889,0.165c0.11-0.084,0.206-0.154,0.284-0.213c-0.202-0.015-0.399-0.03-0.617-0.048
						c-0.203,0.069-0.502,0.167-0.803,0.271c-0.026-0.011-0.054-0.023-0.079-0.036c0.138-0.05,0.276-0.101,0.413-0.149
						c-0.009-0.013-0.019-0.025-0.026-0.035c-0.414,0.079-0.829,0.165-1.328,0.264c0.213-0.112,0.388-0.205,0.59-0.312
						c-0.658,0.068-1.366,0.013-1.942,0.306c0.101-0.057,0.206-0.114,0.308-0.169c0.117-0.064,0.235-0.128,0.38-0.204
						c-0.286-0.029-0.542-0.058-0.799-0.084c0.105-0.025,0.25-0.061,0.402-0.098c0.001-0.016,0.003-0.031,0.005-0.045
						c-0.23,0.01-0.459,0.019-0.688,0.034c-0.246,0.018-0.519,0.018-0.725,0.069c-0.219,0.055-0.374,0.162-0.556,0.245
						c-0.038-0.008-0.074-0.018-0.112-0.029c0.272-0.15,0.542-0.3,0.814-0.452c-0.167,0.05-0.358,0.104-0.555,0.162
						c0.101-0.104,0.101-0.104,1.126-0.395c-0.094,0-0.166,0.003-0.237,0.003c0.08-0.021,0.164-0.054,0.237-0.055
						c0.241-0.005,0.491,0.026,0.709-0.006c0.534-0.08,1.085-0.164,1.378-0.405c-0.316,0.032-0.49,0.173-0.927,0.155
						c-0.367-0.015-0.866,0.147-1.302,0.232c-0.043,0.008-0.063,0.051-0.094,0.076c-0.281,0.04-0.558,0.08-0.904,0.13
						c0.18-0.215,0.68-0.193,1.002-0.28c-0.338-0.06-0.338-0.06-1.404,0.188c0.253-0.104,0.502-0.206,0.752-0.306
						c-0.017-0.013-0.039-0.021-0.055-0.033c-0.458,0.131-0.915,0.268-1.361,0.396c0.036-0.035,0.087-0.085,0.142-0.14
						c-0.021-0.007-0.039-0.017-0.058-0.021c-0.143,0.048-0.287,0.095-0.464,0.152c0.071-0.214,0.379-0.352,0.83-0.449
						c0.283-0.013,0.586-0.132,0.852-0.03c0.039,0.014,0.219-0.013,0.301-0.04c0.287-0.095,0.558-0.199,0.875-0.313
						c-0.655,0.095-1.23,0.181-1.806,0.264c0.217-0.065,0.436-0.129,0.679-0.203c-0.221-0.009-0.464-0.018-0.7-0.026
						c0.107-0.047,0.228-0.096,0.344-0.143c-0.032-0.013-0.063-0.023-0.092-0.037c0.138-0.015,0.277-0.03,0.417-0.045
						c0.145-0.343-0.468-0.489-0.832-0.699c-0.178-0.102-0.373-0.199-0.507-0.324c1.496,0.18,3.251-0.041,4.647,0.218
						c-0.014,0.017-0.031,0.034-0.047,0.053c-0.556-0.054-1.111-0.111-1.701-0.17c-0.071,0.356,1.147,0.721,2.079,0.627
						c-0.194-0.062-0.34-0.11-0.535-0.173c0.592,0.012,1.158,0.011,1.672-0.17c-0.035-0.014-0.071-0.026-0.089-0.033
						c1.696-0.083,3.208,0.088,4.805,0.184c-0.099,0.058-0.15,0.088-0.219,0.127c0.064-0.002,0.112-0.002,0.146-0.007
						c0.477-0.102,0.888-0.084,1.358-0.062c0.499,0.021,1.09-0.061,1.635-0.119c0.298-0.033,0.604-0.096,0.88-0.165
						c0.636-0.156,0.692-0.37,0.157-0.498c-0.172-0.042-0.325-0.094-0.488-0.142c0.023-0.013,0.047-0.025,0.072-0.04
						c0.509,0.085,1.018,0.171,1.526,0.258c0.021-0.013,0.044-0.025,0.066-0.036c-0.22-0.063-0.44-0.125-0.658-0.19
						c-0.395-0.359,0.494-0.603,0.987-0.885C104.363,198.691,104.125,198.889,104.529,199.205z M92.823,201.651
						c-0.149,0.035-0.301,0.072-0.501,0.118c1.147,0.006,1.69-0.099,2.142-0.391c-0.548,0.091-1.104,0.185-1.656,0.276
						c0.251-0.073,0.506-0.149,0.759-0.223c-0.011-0.006-0.024-0.007-0.034-0.013c-0.601,0.097-1.202,0.195-1.803,0.289
						c0.004,0.009,0.009,0.017,0.011,0.025C92.104,201.706,92.463,201.678,92.823,201.651z M107.336,199.989
						c-0.15,0.009-0.311,0.001-0.446,0.026c-0.47,0.088-0.934,0.189-1.4,0.286c0.682-0.177,1.419-0.321,1.904-0.648
						c-0.237,0.039-0.4,0.055-0.521,0.092c-0.482,0.147-0.955,0.303-1.42,0.46c-0.049,0.016-0.028,0.064-0.039,0.098
						c-0.119,0.021-0.238,0.04-0.355,0.06l-0.016-0.003c-0.182,0.048-0.415,0.085-0.542,0.146c-0.805,0.396-1.256,0.876-2.435,1.24
						c0.891-0.107,1.426-0.238,1.909-0.476c0.892-0.438,1.881-0.818,3.161-1.085c0.413-0.084,0.762-0.242,1.112-0.376
						c0.08-0.029,0.045-0.104,0.063-0.157c0.145-0.09,0.287-0.177,0.431-0.266c-0.021-0.003-0.041-0.009-0.062-0.012
						c-0.248,0.129-0.495,0.26-0.744,0.391c-0.021-0.007-0.042-0.011-0.063-0.017c0.039-0.029,0.077-0.059,0.116-0.087
						c-0.034-0.006-0.066-0.011-0.1-0.014C107.704,199.763,107.518,199.877,107.336,199.989z M106.706,200.466
						c-0.785,0.046-1.575,0.286-1.939,0.592c0.153-0.047,0.28-0.085,0.448-0.136c-0.498,0.391-1.32,0.611-2.193,0.83
						c0.302-0.041,0.603-0.08,0.903-0.122c0.004,0.011,0.01,0.019,0.016,0.028c-0.318,0.075-0.637,0.152-0.958,0.229
						c0.698-0.054,1.283-0.207,1.734-0.423C105.399,201.143,106.027,200.807,106.706,200.466z M109.204,199.627
						c0.023,0.006,0.046,0.013,0.068,0.017c-0.189,0.106-0.356,0.221-0.574,0.319c-0.223,0.104-0.495,0.19-0.788,0.301
						c0.952-0.096,1.914-0.522,1.786-0.853c-0.037-0.097-0.159-0.202-0.072-0.292c0.204-0.21-0.137-0.295-0.333-0.42
						c0.133,0.472-0.271,0.914-1.23,1.329c0.048,0.011,0.098,0.021,0.147,0.032C108.54,199.917,108.873,199.772,109.204,199.627z
						 M111.367,197.248c0.071-0.006,0.141-0.01,0.214-0.017c0.019-0.152,0.1-0.312,0.042-0.455
						c-0.102-0.251-0.542-0.416-1.048-0.555c-0.402-0.11-0.829-0.21-1.299-0.329c0.361,0.308,1.172,0.42,1.703,0.67
						c-0.233-0.028-0.391-0.049-0.552-0.067C110.998,196.691,111.342,196.933,111.367,197.248z M97.078,201.039
						c0.007,0.021,0.014,0.041,0.022,0.06c0.708-0.126,1.292-0.027,1.885,0.021c0.432,0.036,1.173-0.016,1.334-0.183
						c0.266-0.278,0.748-0.42,1.4-0.526c-0.085-0.009-0.155-0.011-0.228-0.006c-0.567,0.033-0.928,0.201-1.302,0.361
						c-0.402,0.171-0.863,0.259-1.398,0.233c-0.277-0.015-0.555-0.033-0.837-0.028C97.667,200.98,97.373,201.016,97.078,201.039z
						 M102.256,200.435c-0.776,0.063-1.301,0.231-1.517,0.535c-0.135,0.188-0.299,0.377-0.442,0.556
						c0.331-0.111,0.727-0.226,0.873-0.426C101.353,200.848,101.649,200.612,102.256,200.435z M114.59,196.142
						c-0.013,0.006-0.025,0.011-0.039,0.018c0.019,0.306,0.034,0.614,0.051,0.901c-0.002,0,0.035-0.02,0.111-0.061
						c0.008,0.096,0.013,0.174,0.022,0.249c0.173-0.126,0.379-0.239,0.475-0.356c0.104-0.131,0.106-0.265,0.166-0.438
						c-0.156,0.069-0.209,0.095-0.271,0.123c-0.015-0.075-0.029-0.139-0.05-0.235c-0.09,0.057-0.137,0.088-0.193,0.124
						C114.765,196.349,114.678,196.244,114.59,196.142z M113.012,198.321c0.83-0.282,1.239-1.015,0.789-1.265
						c-0.258,0.387-0.525,0.79-0.777,1.166c-0.02,0.006,0.058-0.014,0.221-0.058C113.132,198.242,113.071,198.28,113.012,198.321z
						 M106.634,201.239c0.379-0.261,0.732-0.502,1.099-0.753c-1.385,0.149-1.711,0.676-2.606,0.992
						c0.026,0.008,0.051,0.018,0.078,0.027c0.517-0.223,1.034-0.443,1.611-0.69C106.746,200.978,106.691,201.105,106.634,201.239z
						 M109.918,197.969c-0.051-0.123-0.101-0.262-0.169-0.435c-0.101,0.11-0.174,0.19-0.248,0.271
						c-0.03,0.002-0.06,0.005-0.091,0.006c-0.029-0.143-0.059-0.281-0.082-0.412c-0.047,0.023-0.186,0.111-0.209,0.109
						c-0.378-0.048-0.341,0.089-0.331,0.13c0.034,0.101,0.126,0.195,0.245,0.282C109.226,198.063,109.664,197.96,109.918,197.969z
						 M111.729,198.979c-1.274,0.22-1.679,0.581-1.609,1.02c0.176-0.081,0.385-0.17,0.423-0.257
						c0.097-0.222,0.431-0.398,0.815-0.577C111.485,199.107,111.593,199.048,111.729,198.979z M109.481,199.973
						c-1.221,0.303-1.719,0.754-2.416,1.155c0.403-0.164,0.756-0.34,1.112-0.518c0.062-0.029,0.119-0.07,0.195-0.082
						C109.026,200.415,109.186,200.197,109.481,199.973z M111.044,199.538c0.045,0.01,0.09,0.021,0.134,0.03
						c0.968-0.413,1.875-0.836,2.375-1.338C112.717,198.665,111.878,199.102,111.044,199.538z M103.637,202.176
						c0.865-0.031,2.179-0.511,2.309-0.787c-0.563,0.169-1.166,0.35-1.861,0.559c0.216-0.017,0.314-0.022,0.5-0.035
						C104.234,202.01,103.971,202.084,103.637,202.176z M114.042,195.691c0.036-0.141,0.02-0.254,0.094-0.363
						c0.164-0.247,0.188-0.457-0.574-0.517c0.088,0.059,0.178,0.118,0.27,0.178c-0.016,0.006-0.033,0.011-0.05,0.017
						c-0.187-0.057-0.374-0.113-0.561-0.167c-0.042,0.012-0.083,0.023-0.123,0.032C113.922,195.036,113.603,195.425,114.042,195.691
						z M112.131,195.106c0.099,0.092,0.24,0.179,0.29,0.277c0.114,0.218,0.167,0.441,0.275,0.656
						c0.031,0.063,0.171,0.108,0.259,0.164C112.876,195.802,113.128,195.351,112.131,195.106z M114.279,194.651
						c-0.01,0.26-0.005,0.516-0.035,0.771c-0.017,0.162,0.077,0.276,0.359,0.339C114.452,195.396,115.064,194.946,114.279,194.651z
						 M113.733,196.078c-0.043,0.006-0.086,0.014-0.129,0.021c0.214,0.431,0.428,0.862,0.64,1.292
						c0.017-0.001,0.034-0.003,0.05-0.002c0.055-0.238,0.109-0.475,0.164-0.711c-0.03,0.001-0.061,0.001-0.091,0.002
						c-0.052,0.033-0.107,0.069-0.156,0.101C114.051,196.544,113.892,196.313,113.733,196.078z M114.939,194.754
						c-0.063,0.005-0.126,0.012-0.187,0.017c0.34,0.427-0.354,0.956,0.496,1.355C115.141,195.648,115.04,195.203,114.939,194.754z
						 M111.678,198.604c0.038,0.005,0.076,0.01,0.112,0.015c0.082-0.063,0.157-0.131,0.249-0.19
						c0.123-0.078,0.223-0.183,0.401-0.226c0.438-0.11,0.548-0.253,0.635-0.408C112.026,197.968,111.846,198.283,111.678,198.604z
						 M106.175,198.221c0.016,0.01,0.033,0.019,0.051,0.025c0.367-0.158,0.735-0.316,1.089-0.469
						c0.007,0.011,0.019,0.021,0.045,0.054c0.252-0.254,0.175-0.423-0.295-0.636c-0.014,0.201,0.08,0.383-0.068,0.547
						C106.848,197.91,106.458,198.062,106.175,198.221z M108.249,196.898c0.236,0.138,0.526,0.265,0.177,0.479
						c-0.047-0.028-0.079-0.047-0.11-0.065c-0.057,0.028-0.161,0.059-0.16,0.082c0.009,0.142-0.011,0.291,0.083,0.418
						c0.056,0.08,0.294,0.129,0.45,0.19c0.036-0.012,0.071-0.023,0.107-0.035c-0.528-0.132-0.392-0.339-0.183-0.554
						C108.877,197.144,108.805,197.031,108.249,196.898z M113.012,195.192c-0.018,0.003-0.039,0.007-0.059,0.011
						c0.098,0.272,0.192,0.545,0.289,0.818c0.127-0.277,0.615-0.563,0.18-0.857c0.003,0.118,0.003,0.193,0.006,0.305
						C113.256,195.356,113.136,195.272,113.012,195.192z M97.111,201.894c0.006,0.017,0.013,0.031,0.022,0.044
						c0.565-0.09,1.128-0.177,1.736-0.272c-0.125,0.061-0.217,0.104-0.307,0.148c0.027,0.008,0.053,0.019,0.079,0.026
						c0.346-0.139,0.693-0.277,1.04-0.413c-0.03-0.013-0.06-0.022-0.089-0.037C98.764,201.559,97.935,201.727,97.111,201.894z
						 M111.91,197.387c0.068-0.136,0.136-0.275,0.206-0.417c-0.047,0.002-0.094,0.002-0.14,0.002c-0.1,0.27-0.29,0.518-1.012,0.709
						c-0.226,0.06-0.354,0.176-0.528,0.27c0.033,0.007,0.069,0.017,0.102,0.024c0.439-0.249,1.344-0.346,1.617-0.672
						C112.039,197.344,111.958,197.369,111.91,197.387z M96.854,201.813c0.728-0.182,1.604-0.226,2.263-0.49
						c-0.289-0.009-0.607-0.019-0.833,0.04C97.783,201.495,97.327,201.66,96.854,201.813z M111.76,197.925
						c-0.055-0.008-0.113-0.013-0.171-0.016c-0.124,0.111-0.287,0.22-0.363,0.333c-0.078,0.111-0.045,0.225-0.113,0.339
						c-0.065,0.112-0.198,0.225-0.324,0.361C111.615,198.612,111.433,198.254,111.76,197.925z M109.006,196.917
						c-0.05-0.178-0.35-0.37-0.85-0.369c-0.417,0.001-0.744-0.074-1.15-0.058c-0.04,0.001-0.082,0.004-0.028,0
						C107.625,196.628,108.323,196.776,109.006,196.917z M103.853,200.497c-0.032-0.013-0.062-0.024-0.095-0.034
						c-0.655,0.23-1.307,0.462-1.962,0.695c0.447-0.078,0.813-0.193,1.204-0.288C103.409,200.774,103.737,200.668,103.853,200.497z
						 M112.801,197.636c0.72-0.228,1.057-0.713,0.668-0.876C113.263,197.031,113.024,197.343,112.801,197.636z M103.627,200.431
						c-0.018-0.013-0.035-0.026-0.053-0.039c-1.509,0.176-1.509,0.176-1.734,0.426c0.233-0.07,0.501-0.15,0.769-0.229
						c0.019,0.011,0.038,0.021,0.059,0.032c-0.139,0.048-0.273,0.091-0.411,0.137c0.021,0.011,0.039,0.022,0.06,0.033
						C102.753,200.67,103.19,200.551,103.627,200.431z M106.777,197.054c-0.506,0.043-0.63,0.109-0.495,0.26
						c0.111,0.123,0.265,0.235,0.401,0.354c0.042-0.004,0.084-0.007,0.127-0.011C106.799,197.459,106.789,197.262,106.777,197.054z
						 M109.964,199.467c0.042,0,0.084,0.002,0.128,0c0.134-0.204,0.266-0.408,0.398-0.613c-0.025-0.002-0.049-0.003-0.075-0.003
						c-0.048,0.025-0.098,0.049-0.158,0.079c-0.027-0.108-0.051-0.206-0.074-0.305c-0.048,0.005-0.093,0.009-0.138,0.014
						C110.019,198.915,109.989,199.193,109.964,199.467z M114.568,194.093c0.229,0.256,0.471,0.521,0.709,0.784
						C115.323,194.56,115.371,194.242,114.568,194.093z M104.906,198.972c-0.026,0.259,0.288,0.345,1.118,0.328
						c-0.767-0.188-0.87-0.345-0.394-0.676c-0.528,0.176-0.537,0.345-0.482,0.541C105.073,199.107,105.002,199.05,104.906,198.972z
						 M115.817,196.502c0.019-0.112,0.08-0.232,0.044-0.339c-0.07-0.206-0.192-0.404-0.294-0.607
						C115.245,195.903,115.741,196.184,115.817,196.502z M106.887,198.647c0.067,0.238,0.23,0.284,0.892,0.288
						c-0.039-0.102-0.08-0.21-0.13-0.343c-0.102,0.069-0.16,0.108-0.254,0.172c-0.038-0.079-0.061-0.132-0.104-0.226
						c-0.063,0.107-0.097,0.163-0.149,0.255C107.026,198.729,106.957,198.688,106.887,198.647z M103.482,201.938
						c-0.714,0.048-1.299,0.177-1.8,0.354C102.373,202.326,102.894,202.138,103.482,201.938z M103.832,200.048
						c0.263-0.055,0.461-0.102,0.667-0.138c0.102-0.021,0.21-0.022,0.317-0.034c-0.006,0.045-0.002,0.089-0.02,0.134
						c-0.01,0.026-0.054,0.054-0.108,0.108c0.465-0.209,0.518-0.356,0.26-0.504C104.599,199.749,104.24,199.89,103.832,200.048z
						 M107.271,199.127c-0.571-0.053-1.114-0.099-1.307-0.372c-0.176,0.282,0.437,0.323,0.591,0.487
						C106.802,199.202,107.037,199.163,107.271,199.127z M99.402,201.878c-0.541,0.079-1.068,0.156-1.57,0.23
						c0.606,0.086,0.997,0.083,1.345-0.015c-0.129,0.004-0.235,0.009-0.353,0.012C99.041,202.021,99.23,201.947,99.402,201.878z
						 M110.7,198.674c0.508-0.284-0.054-0.619,0.857-0.866c-0.428,0.051-0.702,0.148-0.75,0.299
						C110.751,198.291,110.735,198.477,110.7,198.674z M108.173,198.857c-0.075-0.052-0.132-0.089-0.189-0.128
						c-0.038,0.008-0.074,0.015-0.113,0.025c0.138,0.12,0.277,0.241,0.417,0.363c0.05-0.005,0.103-0.012,0.152-0.017
						c0.007-0.189,0.012-0.38,0.02-0.569c-0.048,0.002-0.097,0.004-0.148,0.007C108.268,198.636,108.228,198.73,108.173,198.857z
						 M115.688,195.174c0.031,0,0.065-0.003,0.095-0.001c0.054-0.247,0.111-0.493,0.175-0.766c-0.113,0.048-0.163,0.068-0.224,0.094
						c-0.032-0.035-0.059-0.062-0.114-0.124C115.645,194.666,115.666,194.921,115.688,195.174z M109.774,198.182
						c0.008-0.026,0.009-0.048,0.015-0.073c-0.565,0.067-1.089-0.087-1.687,0.147C108.661,198.231,109.218,198.206,109.774,198.182z
						 M103.957,196.961c0.159,0.047,0.309,0.109,0.498,0.149c0.604,0.121,1.396,0.144,1.676,0.43
						c-0.039-0.217-0.386-0.313-0.867-0.371C104.821,197.112,104.412,197.032,103.957,196.961z M112.057,196.434
						c0.067-0.018,0.137-0.038,0.208-0.057c-0.375-0.181-0.75-0.356-1.125-0.536c-0.034,0.011-0.07,0.021-0.106,0.031
						C111.375,196.061,111.716,196.247,112.057,196.434z M96.594,201.516c0.381-0.116,0.771-0.235,1.187-0.36
						c-0.428,0.048-0.87,0.027-1.259,0.217c0.15-0.02,0.233-0.027,0.346-0.04C96.761,201.403,96.667,201.465,96.594,201.516z
						 M110.649,196.947c-0.047,0-0.096,0-0.145,0c-0.063,0.192-0.442,0.397-0.049,0.601
						C110.528,197.325,110.587,197.138,110.649,196.947z M110.833,197.286c0.425-0.127,0.416-0.367,0.029-0.47
						C110.853,196.953,110.843,197.128,110.833,197.286z M113.647,198.504c0.061,0,0.125,0.001,0.187,0.001
						c0.116-0.192,0.236-0.386,0.353-0.58c-0.054-0.001-0.109,0-0.167-0.001C113.897,198.116,113.771,198.312,113.647,198.504z
						 M115.42,194.417c0.151-0.333,0.056-0.451-0.351-0.495C115.181,194.073,115.289,194.232,115.42,194.417z M102.97,202.283
						c-0.4,0.071-0.801,0.141-1.223,0.215C102.303,202.63,102.59,202.378,102.97,202.283z M112.436,196.172
						c0.061-0.009,0.123-0.019,0.183-0.027c-0.091-0.175-0.182-0.351-0.272-0.525c-0.054,0.008-0.105,0.015-0.157,0.021
						C112.269,195.819,112.352,195.995,112.436,196.172z M105.337,200.029c0.406-0.204,0.352-0.319-0.135-0.403
						c0.028,0.089,0.056,0.173,0.081,0.267c0.064-0.031,0.112-0.056,0.241-0.116C105.446,199.884,105.406,199.938,105.337,200.029z
						 M103.716,196.987c0.144,0.249,0.783,0.272,1.226,0.308C104.601,197.21,104.145,197.096,103.716,196.987z M91.65,201.202
						c0.013,0.015,0.028,0.029,0.039,0.044c0.75-0.059,0.75-0.059,0.969-0.227C92.302,201.085,91.974,201.145,91.65,201.202z
						 M113.209,197.007c-0.057-0.015-0.115-0.025-0.175-0.037c-0.145,0.125-0.291,0.252-0.438,0.377
						c0.037,0.008,0.077,0.01,0.116,0.017C112.877,197.243,113.042,197.125,113.209,197.007z M96.128,201.283
						c-0.061,0.039-0.122,0.075-0.251,0.158c0.065-0.109,0.098-0.168,0.133-0.226c-0.217,0.148-0.402,0.299-0.134,0.445
						C95.967,201.522,96.047,201.403,96.128,201.283z M113.925,195.967c0.067,0.148,0.12,0.271,0.173,0.395
						C114.132,196.226,114.446,196.053,113.925,195.967z M111.859,196.388c-0.045,0.01-0.088,0.018-0.132,0.025
						c0.157,0.159,0.311,0.317,0.47,0.473c0.04-0.008,0.079-0.015,0.12-0.024C112.162,196.705,112.011,196.547,111.859,196.388z
						 M91.931,200.937c0.565-0.179,0.61-0.226,0.354-0.304C92.16,200.74,92.045,200.838,91.931,200.937z"/>
					<path fill-rule="evenodd" clip-rule="evenodd" fill="#C3782A" d="M102.948,193.501c-0.126,0.026-0.253,0.051-0.43,0.088
						c0.798,0.066,1.586,0.133,2.364,0.197c-0.251,0-0.525,0.005-0.795,0c-1.463-0.036-2.817,0.197-4.127,0.488
						c-0.21,0.049-0.443,0.207-0.413,0.289c0.036,0.095,0.345,0.161,0.562,0.251c-0.284,0.097-0.705,0.137-1.121,0.123
						c-0.567-0.02-0.957,0.078-1.263,0.275c-0.062,0.04-0.178,0.068-0.267,0.104c-0.133,0.053-0.387,0.123-0.37,0.159
						c0.037,0.073,0.194,0.138,0.348,0.182c0.194,0.061,0.436,0.095,0.74,0.16c-0.647-0.052-1.195-0.166-1.706-0.118
						c-0.484,0.047-0.929,0.263-1.384,0.4c-0.005-0.056,0.058-0.17-0.048-0.234c-0.069-0.044-0.378-0.021-0.593-0.026
						c0.042-0.199-0.13-0.225-1.11-0.109c0.156-0.062,0.249-0.096,0.397-0.152c-0.27-0.029-0.515-0.057-0.766-0.088
						c0.021-0.171-0.643-0.324-1.389-0.309c-0.076-0.246-0.333-0.277-0.867-0.105c-0.102,0.032-0.206,0.069-0.319,0.092
						c-0.795,0.154-1.223,0.404-1.304,0.747l0.015-0.006c0.037-0.162-0.062-0.35,0.13-0.475c0.524-0.345,1.178-0.667,2.235-0.716
						c0.316-0.014,0.63,0.064,0.941,0.104c0.061,0.007,0.142,0.045,0.131,0.063c-0.216,0.357,0.589,0.318,1.002,0.429
						c0.034,0.009,0.084,0.007,0.129,0.011c0.378,0.019,0.575-0.041,0.556-0.193c-0.039-0.368-0.008-0.732,0.599-1.097
						c-0.005,0.17-0.011,0.329-0.016,0.515c0.383-0.283,0.732-0.538,1.074-0.792c0.354-0.264,0.584-0.536,0.496-0.825
						c0.491,0.041,0.548,0.123,0.424,0.525c0.127-0.182,0.373-0.32,0.892-0.346c0.039,0.038,0.082,0.079,0.078,0.073
						c0.563-0.034,1.069-0.062,1.58-0.092c0.011,0.285,0.488,0.361,1.224,0.266c0.22,0.056,0.358,0.124,0.528,0.128
						c0.611,0.017,1.235,0.011,1.853,0.016L102.948,193.501z M97.534,194.078c-0.572,0.159-0.913,0.439-0.836,0.689
						c0.027,0.095,0.179,0.176,0.272,0.265c0.213-0.056,0.435-0.104,0.636-0.166c0.108-0.032,0.179-0.082,0.277-0.129
						C96.991,194.609,96.902,194.459,97.534,194.078z"/>
					<path fill-rule="evenodd" clip-rule="evenodd" fill="#C3782A" d="M91.478,197.285c0.426-0.336,0.907-0.648,1.787-0.833
						c0.91-0.188,1.811-0.131,2.484,0.137c0.198,0.078,0.465,0.13,0.696,0.196c-0.091,0.059-0.357,0.16-0.35,0.242
						c0.022,0.188,0.171,0.365,0.273,0.546c0.018,0.029,0.098,0.058,0.083,0.084c-0.287,0.471-0.454,0.946-1.521,1.338
						c-0.316,0.117-0.436,0.319-0.654,0.49c-0.143-0.149-0.305-0.329-0.498-0.536c-0.174,0.105-0.282,0.171-0.391,0.236
						c0.127-0.218,0.484-0.435,0.131-0.666c-0.19,0.098-0.344,0.176-0.503,0.255c0.132-0.47,0.263-0.941,0.401-1.437
						c-0.294,0.006-0.502,0.106-0.693,0.235c-0.391,0.265-0.802,0.524-1.229,0.782c0.277-0.403,0.939-0.836,1.722-1.152
						c0.08-0.031,0.166-0.067,0.231-0.102c0.219-0.124,0.292-0.265-0.01-0.322c-0.225-0.043-0.665-0.042-0.86,0.021
						C92.163,196.932,91.845,197.117,91.478,197.285z M95.497,197.034c-0.989,0.298-1.422,0.791-1.055,1.115
						c0.136,0.12,0.308,0.119,0.543,0.012c0.1-0.044,0.172-0.104,0.26-0.155c-0.775-0.118-0.752-0.597,0.371-0.794
						C95.58,197.159,95.545,197.105,95.497,197.034z"/>
					<path fill-rule="evenodd" clip-rule="evenodd" fill="#C3782A" d="M102.956,193.503c1.388-0.248,2.61-0.097,3.82,0.045
						c0.604,0.069,1.155,0.181,1.701,0.302c-0.444-0.034-0.892-0.064-1.327-0.107c-0.452-0.048-0.882-0.121-1.338-0.166
						c-0.455-0.046-0.924-0.087-1.402-0.102c-0.478-0.01-0.971,0.017-1.461,0.026C102.948,193.501,102.956,193.503,102.956,193.503z
						"/>
					<path fill-rule="evenodd" clip-rule="evenodd" fill="#C3782A" d="M88.602,199.03c0.524,0.118,1.073,0.128,1.695,0.005
						c0.144-0.032,0.396,0.021,0.539,0.062c0.068,0.021,0.052,0.136-0.024,0.163c-0.143,0.051-0.396,0.109-0.53,0.094
						c-0.6-0.063-1.177-0.153-1.761-0.234C88.547,199.09,88.575,199.06,88.602,199.03z"/>
					<path fill-rule="evenodd" clip-rule="evenodd" fill="#FFFFFF" d="M103.146,201.008c0.12-0.024,0.238-0.049,0.376-0.08
						c-0.237,0.222-0.606,0.396-1.118,0.536c-0.211,0.058-0.395,0.134-0.595,0.204c-0.007-0.015-0.017-0.026-0.026-0.038
						c0.123-0.077,0.246-0.151,0.391-0.243c-0.267,0.074-0.485,0.132-0.708,0.193c0.108-0.071,0.214-0.142,0.324-0.213
						C102.241,201.247,102.694,201.127,103.146,201.008z"/>
					<path fill-rule="evenodd" clip-rule="evenodd" fill="#C3782A" d="M102.55,194.645c-0.154,0.289-0.658,0.667-1.215,1.032
						c-0.942,0.621-1.648,1.268-2.154,1.94c-0.018,0.023-0.047,0.046-0.099,0.065c0.396-0.555,0.857-1.103,1.579-1.626
						C101.351,195.555,102.006,195.051,102.55,194.645z"/>
					<path fill-rule="evenodd" clip-rule="evenodd" fill="#FFFFFF" d="M87.263,198.994c0.286,0.091,0.569,0.183,0.939,0.299
						c-0.549,0-0.998,0.002-1.488,0.004c0.04-0.128,0.072-0.245,0.125-0.36c0.004-0.01,0.159-0.018,0.241-0.027
						C87.14,198.938,87.2,198.968,87.263,198.994z"/>
					<path fill-rule="evenodd" clip-rule="evenodd" d="M101.468,201.58c0.223-0.062,0.44-0.119,0.708-0.193
						c-0.145,0.092-0.268,0.166-0.391,0.243c-0.321,0.152-0.64,0.303-0.964,0.458c-0.047,0.009-0.093,0.021-0.14,0.031
						c-0.282,0.094-0.564,0.185-0.819,0.27c0.435-0.228,0.872-0.453,1.311-0.683C101.272,201.664,101.368,201.624,101.468,201.58z"
						/>
					<path fill-rule="evenodd" clip-rule="evenodd" fill="#C3782A" d="M83.067,201.701c1.328-0.606,2.655-1.209,3.984-1.809
						c0.033,0.011,0.066,0.024,0.099,0.035c-1.332,0.597-2.666,1.199-3.995,1.804C83.126,201.721,83.095,201.712,83.067,201.701z"/>
					<path fill-rule="evenodd" clip-rule="evenodd" fill="#FFFFFF" d="M90.054,201.023c0.576-0.083,1.151-0.169,1.806-0.264
						c-0.317,0.114-0.588,0.219-0.875,0.313c-0.082,0.027-0.262,0.054-0.301,0.04c-0.266-0.102-0.569,0.018-0.852,0.03
						C89.906,201.104,89.979,201.064,90.054,201.023z"/>
					<path fill-rule="evenodd" clip-rule="evenodd" fill="#FFFFFF" d="M104.529,199.205c-0.403-0.316-0.166-0.514,1.128-0.883
						c-0.494,0.282-1.382,0.525-0.987,0.885C104.622,199.207,104.576,199.205,104.529,199.205z"/>
					<path fill-rule="evenodd" clip-rule="evenodd" fill="#C3782A" d="M103.509,198.897c-0.528-0.187,0.215-0.703,1.028-0.852
						C103.888,198.292,103.276,198.544,103.509,198.897z"/>
					<path fill-rule="evenodd" clip-rule="evenodd" fill="#C3782A" d="M100.681,202.119c0.046-0.011,0.093-0.022,0.14-0.031
						c-0.289,0.16-0.568,0.327-0.883,0.482c-0.063,0.03-0.275,0.021-0.392,0.029C99.962,202.423,100.321,202.272,100.681,202.119z"
						/>
					<path fill-rule="evenodd" clip-rule="evenodd" fill="#C3782A" d="M80.844,202.908c0.503-0.258,1.005-0.515,1.506-0.773
						c0.033,0.011,0.065,0.021,0.101,0.029c-0.505,0.255-1.009,0.512-1.515,0.771C80.907,202.926,80.876,202.917,80.844,202.908z"/>
					<path fill-rule="evenodd" clip-rule="evenodd" fill="#C3782A" d="M98.017,202.514c0.031,0.001,0.06,0.002,0.091,0.006
						c0.466-0.024,0.975-0.103,1.279,0.08c-0.261-0.015-0.519-0.044-0.791-0.035c-0.271,0.004-0.558,0.047-0.853,0.075
						C97.81,202.608,97.914,202.561,98.017,202.514z"/>
					<path fill-rule="evenodd" clip-rule="evenodd" fill="#C3782A" d="M89.085,195.915c0.122,0.068,0.223,0.148,0.367,0.211
						c0.235,0.104,0.271,0.215,0.047,0.382c-0.143-0.212-0.271-0.404-0.399-0.599L89.085,195.915z"/>
					<path fill-rule="evenodd" clip-rule="evenodd" fill="#FFFFFF" d="M67.347,196.079c-0.193,0.016-0.382,0.029-0.711,0.055
						c0.741,0.055,1.393,0.056,1.935,0.151c0.943,0.17,1.942,0.312,2.662,0.637c0.085,0.037,0.199,0.08,0.319,0.089
						c0.848,0.049,1.44,0.271,2.029,0.484c0.556,0.199,0.592,0.47-0.247,0.676c-0.72,0.179-1.335,0.451-2.025,0.663
						c-0.384,0.118-0.824,0.195-1.218,0.286c0.164,0.019,0.405,0.06,0.662,0.075c0.533,0.034,0.873,0.213,0.822,0.446
						c-0.035,0.158-0.262,0.242-0.558,0.18c-0.537-0.115-1.088-0.235-1.523-0.407c-2.144-0.839-4.289-1.695-6.368-2.602
						c-1.097-0.482-2.037-1.043-3.086-1.56c-0.68-0.337-1.426-0.646-2.133-0.97c1.019,0.225,2.177,0.278,3.322,0.358
						c0.026-0.029,0.054-0.06,0.079-0.089c-0.241-0.066-0.485-0.133-0.778-0.211c0.648-0.019,1.237-0.01,1.729,0.132
						c0.852,0.247,1.68,0.507,2.54,0.767c-0.069,0.04-0.128,0.072-0.2,0.112c1.193,0.069,2.148,0.274,2.832,0.663
						C67.401,196.038,67.373,196.058,67.347,196.079z"/>
					<path fill-rule="evenodd" clip-rule="evenodd" fill="#FFFFFF" d="M68.406,193.189c-1.549,0.074-2.625-0.347-3.875-0.589
						c-0.281-0.055-0.573-0.157-0.697-0.274c-0.091-0.092-0.005-0.265,0.147-0.357c0.137-0.084,0.469-0.112,0.719-0.16
						c0.042-0.007,0.108,0.022,0.158,0.017c1.719-0.159,3.109,0.195,4.566,0.432c0.801,0.13,1.455,0.35,2.049,0.608
						c0.342,0.147,0.773,0.257,1.145,0.392c0.298,0.109,0.592,0.224,0.83,0.355c0.294,0.16,0.204,0.354,0.004,0.546
						c-0.188,0.184-0.581,0.205-0.919,0.193c-0.913-0.024-1.829-0.053-2.717-0.124c-1.01-0.084-2.004-0.197-2.979-0.328
						c-0.484-0.064-0.941-0.172-1.352-0.3c-0.22-0.064-0.317-0.202-0.446-0.293c-0.538,0.02-1.166,0.073-1.774,0.06
						c-0.331-0.011-0.638-0.124-0.944-0.2c-0.181-0.046-0.353-0.102-0.506-0.162c-0.164-0.066-0.302-0.146-0.453-0.219
						c0.24-0.055,0.505-0.162,0.717-0.151c0.489,0.025,0.975,0.091,1.42,0.174c1.078,0.205,2.128,0.438,3.348,0.467
						c0.517,0.009,1.042-0.019,1.563-0.03C68.409,193.227,68.406,193.209,68.406,193.189z"/>
					<path fill-rule="evenodd" clip-rule="evenodd" fill="#FFFFFF" d="M65.059,191.14c0.654,0.015,1.28,0.032,1.907,0.043
						c0.002,0.025,0.007,0.048,0.01,0.073c-0.091,0.035-0.183,0.073-0.302,0.12c0.333,0.052,0.621,0.1,0.91,0.146
						c-0.018,0.019-0.034,0.039-0.05,0.061c-0.522-0.052-1.036-0.132-1.57-0.153c-1.186-0.049-2.381-0.076-3.576-0.101
						c-0.642-0.017-1.3,0.011-1.938-0.017c-1.104-0.047-2.112,0.118-3.148,0.319c1.167-0.455,2.507-0.72,3.875-0.948
						c2.043-0.343,3.975-0.79,5.868-1.279c1.201-0.309,2.456-0.572,3.716-0.824c1.087-0.216,2.243-0.204,3.395-0.19
						c-3.586,0.327-6.717,1.084-9.544,2.16c0.836-0.068,1.669-0.137,2.503-0.203c1.405-0.112,2.813-0.265,4.222-0.138
						c0.819,0.074,1.631,0.166,2.44,0.251c0.499,0.056,0.991,0.12,1.487,0.18c-1.671,0.035-3.364,0.04-5.049,0.12
						C68.508,190.843,66.807,191.008,65.059,191.14z"/>
					<path fill-rule="evenodd" clip-rule="evenodd" fill="#FFFFFF" d="M64.521,189.648c0.646-0.281,1.222-0.543,1.828-0.788
						c1.433-0.575,3.082-0.945,4.991-1.039c0.259-0.014,0.521-0.043,0.771-0.081c0.356-0.054,0.36-0.158,0.08-0.229
						c-0.267-0.068-0.581-0.135-0.887-0.14c-2.228-0.042-4.458-0.017-6.669,0.184c-1.644,0.149-3.08,0.555-4.559,0.905
						c-0.053,0.011-0.101,0.033-0.15,0.051c-0.031-0.02-0.063-0.041-0.092-0.061c0.698-0.229,1.393-0.461,2.1-0.678
						c0.425-0.132,0.849-0.276,1.318-0.365c1.032-0.192,2.082-0.371,3.151-0.512c0.42-0.056,0.91,0.009,1.372,0.019
						c0.266,0.007,0.538,0.004,0.804,0.016c0.82,0.04,1.639,0.087,2.457,0.129c0.911,0.047,1.818,0.104,2.742-0.002
						c0.116-0.015,0.258-0.019,0.365,0c1.894,0.276,3.784,0.551,5.674,0.823c-0.013,0.018-0.026,0.035-0.039,0.053
						c-0.726,0.011-1.45,0.012-2.174,0.03c-1.484,0.04-2.979,0.046-4.446,0.149c-1.983,0.143-3.925,0.364-5.682,0.876
						C66.571,189.254,65.533,189.426,64.521,189.648z"/>
					<path fill-rule="evenodd" clip-rule="evenodd" fill="#FFFFFF" d="M85.718,197.293c-0.366-0.124-0.808-0.264-1.218-0.416
						c-0.831-0.313-1.641-0.642-1.941-1.118c-0.38-0.606,0.965-1.711,3.116-1.738c0.376-0.002,0.769-0.102,1.157-0.146
						c0.451-0.051,0.906-0.101,1.362-0.136c0.106-0.01,0.281,0.03,0.316,0.067c0.03,0.037-0.049,0.116-0.137,0.146
						c-0.197,0.064-0.431,0.146-0.651,0.156c-0.359,0.02-0.578,0.101-0.747,0.212c-0.936,0.635-1.484,1.283-0.866,1.952
						c0.229,0.245,0.498,0.481,0.737,0.727c0.051,0.049,0.053,0.108,0.077,0.167c-0.146,0.014-0.289,0.025-0.434,0.041
						C86.248,197.232,86.01,197.258,85.718,197.293z"/>
					<path fill-rule="evenodd" clip-rule="evenodd" fill="#FFFFFF" d="M84.447,197.676c-0.803,0.234-1.541,0.439-2.24,0.663
						c-0.776,0.249-1.579,0.332-2.432,0.268c-0.54-0.04-1.084-0.081-1.602-0.148c-0.564-0.071-0.58-0.272-0.087-0.457
						c0.663-0.245,1.332-0.49,1.966-0.751c0.275-0.111,0.469-0.262,0.695-0.393c0.191-0.113,0.347-0.163,0.618-0.057
						c0.22,0.09,0.528,0.144,0.82,0.194c0.48,0.082,1.045,0.113,1.45,0.231C83.999,197.334,84.196,197.53,84.447,197.676z"/>
					<path fill-rule="evenodd" clip-rule="evenodd" fill="#FFFFFF" d="M86.522,199.322c-0.386-0.003-0.716-0.002-1.041-0.013
						c-1.124-0.035-2.259,0.016-3.39,0.176c-0.736,0.105-1.153-0.091-1.707-0.161c0.136-0.154,0.245-0.31,0.416-0.456
						c0.055-0.049,0.266-0.071,0.399-0.113c0.663-0.198,1.321-0.397,1.986-0.597c0.213-0.062,0.422-0.13,0.649-0.182
						c0.674-0.154,0.778-0.14,1.188,0.075c0.349,0.185,0.695,0.374,1.11,0.528c0.37,0.135,0.517,0.292,0.435,0.507
						C86.543,199.153,86.54,199.222,86.522,199.322z"/>
					<path fill-rule="evenodd" clip-rule="evenodd" fill="#FFFFFF" d="M68.629,203.016c1.637,0.127,3.261,0.249,4.879,0.372
						c0.365,0.027,0.422,0.338,0.069,0.532c-0.228,0.125-0.529,0.233-0.822,0.337c-0.243,0.086-0.534,0.142-0.78,0.227
						c-0.761,0.256-1.376,0.231-1.96,0.011c-0.481-0.182-1.014-0.339-1.538-0.501c-0.285-0.089-0.373-0.197-0.241-0.368
						C68.392,203.423,68.501,203.221,68.629,203.016z"/>
					<path fill-rule="evenodd" clip-rule="evenodd" fill="#FFFFFF" d="M70.326,191.181c-0.121,0.071-0.178,0.102-0.231,0.135
						c-0.245,0.156-0.197,0.256,0.197,0.309c0.474,0.058,0.965,0.094,1.483,0.146c-0.166,0.047-0.316,0.09-0.584,0.168
						c0.416-0.057,0.708-0.108,1.006-0.135c0.741-0.067,1.367-0.012,1.813,0.26c0.254,0.152,0.577,0.282,0.869,0.422
						c0.044-0.013,0.087-0.025,0.136-0.038c-0.106-0.064-0.221-0.126-0.311-0.196c-0.229-0.176-0.065-0.352,0.216-0.498
						c0.094-0.047,0.404-0.043,0.589-0.026c0.094,0.009,0.199,0.11,0.172,0.161c-0.086,0.156,0.083,0.229,0.378,0.256
						c0.463,0.038,0.901,0.057,1.016,0.314c0.065,0.146,0.665,0.188,1.036,0.1c0.18-0.043,0.329-0.114,0.514-0.15
						c0.149-0.025,0.404-0.046,0.477-0.014c0.088,0.038,0.104,0.172,0.023,0.2c-0.265,0.099-0.575,0.212-0.891,0.243
						c-0.592,0.059-1.221,0.105-1.796,0.077c-0.634-0.033-1.219-0.163-1.827-0.249c-2.015-0.299-4.027-0.605-6.047-0.914
						c-0.302-0.046-0.641-0.077-0.667-0.249c-0.013-0.095,0.053-0.193,0.084-0.299c-0.015,0.004-0.127,0.015-0.243,0.031
						c-0.005-0.021-0.011-0.04-0.015-0.06c0.291-0.021,0.581-0.042,0.872-0.063c0.361-0.022,0.727-0.06,1.083-0.059
						C69.892,191.06,70.088,191.134,70.326,191.181z"/>
					<path fill-rule="evenodd" clip-rule="evenodd" fill="#FFFFFF" d="M83.462,197.004c-1.153-0.346-2.107-0.76-2.441-1.39
						c-0.052-0.096-0.229-0.188-0.415-0.248c-0.482-0.161-0.646-0.528-0.202-0.765c0.708-0.372,1.504-0.721,2.54-0.929
						c0.315-0.063,0.681-0.076,1.042-0.093c-0.358,0.196-0.898,0.334-0.908,0.631c0.295-0.059,0.52-0.104,0.772-0.154
						c-0.323,0.225-0.646,0.436-0.929,0.651c-0.812,0.622-0.739,1.208-0.033,1.756c0.221,0.171,0.453,0.341,0.682,0.513
						C83.533,196.984,83.498,196.994,83.462,197.004z"/>
					<path fill-rule="evenodd" clip-rule="evenodd" fill="#FFFFFF" d="M80.385,198.813c-0.283,0.312-0.612,0.599-1.294,0.803
						c-0.131,0.04-0.283,0.091-0.422,0.098c-1.413,0.069-2.823,0.133-4.233,0.193c-0.041,0.001-0.082-0.013-0.143-0.021
						c0.08-0.158,0.145-0.313,0.244-0.471c0.025-0.04,0.135-0.09,0.233-0.113c0.461-0.117,0.954-0.208,1.391-0.338
						c0.916-0.275,1.828-0.402,2.819-0.271C79.424,198.749,79.903,198.773,80.385,198.813z"/>
					<path fill-rule="evenodd" clip-rule="evenodd" fill="#FFFFFF" d="M82.72,199.479c-0.596,0.413-1.102,0.774-1.646,1.132
						c-0.057,0.035-0.334,0.054-0.471,0.04c-0.884-0.085-1.739-0.209-2.641-0.274c-0.706-0.052-1.463-0.037-2.196-0.055
						c-0.435-0.01-0.89,0.003-1.298-0.038c-0.282-0.03-0.501-0.135-0.711-0.236C76.726,199.845,79.649,199.852,82.72,199.479z"/>
					<path fill-rule="evenodd" clip-rule="evenodd" fill="#FFFFFF" d="M65.777,204.168c-0.398-0.436-1.038-0.803-1.256-1.301
						c0.185-0.024,0.319-0.054,0.446-0.056c1.056-0.019,2.104-0.013,3.066,0.124c0.109,0.02,0.231,0.093,0.216,0.144
						c-0.059,0.22-0.146,0.439-0.262,0.657c-0.031,0.057-0.199,0.139-0.328,0.158C67.047,203.996,66.424,204.075,65.777,204.168z"/>
					<path fill-rule="evenodd" clip-rule="evenodd" fill="#FFFFFF" d="M76.095,197.353c-0.726-0.137-1.421-0.309-2.189-0.398
						c-0.919-0.109-1.159-0.337-0.898-0.729c0.087-0.128,0.069-0.256,0.461-0.328c0.166-0.029,0.275-0.144,0.387-0.225
						c0.178-0.13,0.322-0.314,0.731-0.272c0.348,0.036,0.596,0.162,0.601,0.346C75.196,196.318,75.476,196.844,76.095,197.353z"/>
					<path fill-rule="evenodd" clip-rule="evenodd" fill="#FFFFFF" d="M68.183,194.341c0.302,0.011,0.522,0.017,0.738,0.029
						c1.678,0.104,3.358,0.202,5.031,0.311c0.292,0.017,0.548,0.095,0.82,0.144c-0.018,0.021-0.033,0.042-0.049,0.063
						c-0.108,0.005-0.218,0.007-0.33,0.015c-0.301,0.019-0.553,0.045-0.819,0.161c-0.785,0.345-1.664,0.379-2.512,0.133
						c-0.572-0.169-1.151-0.32-1.858-0.394C68.738,194.753,68.352,194.611,68.183,194.341z"/>
					<path fill-rule="evenodd" clip-rule="evenodd" fill="#FFFFFF" d="M69.435,195.328c-1.161,0.182-2.156,0.395-3.223,0.099
						c-0.513-0.144-0.839-0.268-0.877-0.549c-0.025-0.21-0.192-0.41-0.317-0.659C66.75,194.451,68.073,194.859,69.435,195.328z"/>
					<path fill-rule="evenodd" clip-rule="evenodd" fill="#FFFFFF" d="M86.113,190.721c-0.203,0.34-0.759,0.521-1.376,0.666
						c-0.143,0.034-0.406,0.014-0.564-0.02c-0.945-0.2-1.553-0.553-2.214-0.902C83.415,190.417,84.754,190.546,86.113,190.721z"/>
					<path fill-rule="evenodd" clip-rule="evenodd" fill="#FFFFFF" d="M86.573,190.804c0.987,0.132,1.997,0.564,2.179,0.97
						c-1.172,0.008-2.341,0.057-3.415-0.127c-0.392-0.066-0.405-0.108-0.104-0.242C85.673,191.214,86.099,191.017,86.573,190.804z"
						/>
					<path fill-rule="evenodd" clip-rule="evenodd" fill="#FFFFFF" d="M72.575,196.615c-1.571-0.287-3.156-0.583-4.861-0.902
						c0.684-0.088,1.249-0.169,1.819-0.228c0.155-0.016,0.344,0.028,0.497,0.062c0.656,0.145,1.3,0.296,1.956,0.436
						C72.491,196.091,72.709,196.327,72.575,196.615z"/>
					<path fill-rule="evenodd" clip-rule="evenodd" fill="#FFFFFF" d="M74.155,203.435c1.142,0.176,2.571,0.025,3.466,0.409
						c-1.113,0.206-2.166,0.305-3.131,0.062C73.97,203.771,73.927,203.771,74.155,203.435z"/>
					<path fill-rule="evenodd" clip-rule="evenodd" fill="#FFFFFF" d="M81.104,189.886c1.762,0.095,3.522,0.172,4.914,0.691
						c-0.694-0.049-1.346-0.096-2.002-0.134c-0.657-0.035-1.321-0.062-2.037-0.095C82.044,190.104,81.634,189.976,81.104,189.886z"
						/>
					<path fill-rule="evenodd" clip-rule="evenodd" fill="#FFFFFF" d="M77.704,197.248c-0.238-0.303-0.542-0.601-0.698-0.918
						c-0.182-0.367-0.452-0.702-1.082-0.959c-0.092-0.04-0.163-0.086-0.206-0.147c0.518,0.128,1.131,0.215,1.526,0.392
						c0.294,0.133,0.377,0.372,0.432,0.577c0.095,0.338,0.094,0.685,0.133,1.028C77.773,197.23,77.738,197.24,77.704,197.248z"/>
					<path fill-rule="evenodd" clip-rule="evenodd" fill="#FFFFFF" d="M65.102,195.203c-0.273-0.083-0.538-0.171-0.813-0.251
						c-0.31-0.086-0.628-0.168-0.947-0.249c-0.347-0.086-0.39-0.235-0.019-0.323c0.375-0.092,0.817-0.123,1.231-0.167
						c0.07-0.007,0.213,0.034,0.232,0.066c0.171,0.294,0.324,0.589,0.482,0.882C65.211,195.176,65.156,195.189,65.102,195.203z"/>
					<path fill-rule="evenodd" clip-rule="evenodd" fill="#FFFFFF" d="M74.142,199.102c0.32,0.161,0.159,0.321,0.063,0.474
						c-0.255,0.395-0.314,0.407-1.177,0.287c-0.296-0.045-0.595-0.09-1.045-0.153C72.777,199.485,73.456,199.293,74.142,199.102z"/>
					<path fill-rule="evenodd" clip-rule="evenodd" fill="#FFFFFF" d="M77.581,198.33c0.075,0.044,0.024,0.146-0.367,0.242
						c-0.739,0.185-1.459,0.385-2.185,0.584c-0.421,0.111-0.466,0.105-0.586-0.113C75.483,198.807,76.532,198.567,77.581,198.33z"/>
					<path fill-rule="evenodd" clip-rule="evenodd" fill="#FFFFFF" d="M80.405,196.865c-0.808-0.4-1.332-0.857-1.63-1.395
						c0.257,0.188,0.474,0.36,0.723,0.525c0.177,0.116,0.288,0.112,0.61-0.002c0.199,0.226,0.394,0.444,0.616,0.69
						C80.66,196.72,80.54,196.788,80.405,196.865z"/>
					<path fill-rule="evenodd" clip-rule="evenodd" fill="#FFFFFF" d="M74.011,193.812c0.15-0.039,0.425-0.162,0.701-0.175
						c0.365-0.016,0.536,0.22,0.37,0.42c-0.128,0.154-0.575,0.296-0.864,0.274C73.9,194.303,73.781,194.107,74.011,193.812z"/>
					<path fill-rule="evenodd" clip-rule="evenodd" fill="#FFFFFF" d="M76.058,204.135c0.561-0.057,1.077-0.104,1.599-0.156
						c0.004,0.012,0.006,0.023,0.011,0.036c-0.532,0.197-1.064,0.395-1.642,0.611C76.037,204.462,76.046,204.311,76.058,204.135z"/>
					<path fill-rule="evenodd" clip-rule="evenodd" fill="#FFFFFF" d="M76.215,194.295c0.475,0.314,0.347,0.541-0.393,0.759
						C75.484,194.917,75.484,194.917,76.215,194.295z"/>
					<path fill-rule="evenodd" clip-rule="evenodd" fill="#FFFFFF" d="M75,194.797c0.088-0.278,0.174-0.554,0.265-0.845
						c0.749,0.111,0.649,0.445-0.128,0.853C75.091,194.803,75.047,194.796,75,194.797z"/>
					<path fill-rule="evenodd" clip-rule="evenodd" fill="#FFFFFF" d="M77.014,194.566c0.528,0.246,0.493,0.386-0.22,0.62
						c-0.104,0.034-0.271,0.031-0.408,0.043c0.007-0.061-0.035-0.125,0.02-0.178C76.587,194.89,76.803,194.732,77.014,194.566z"/>
					<path fill-rule="evenodd" clip-rule="evenodd" fill="#FFFFFF" d="M80.978,199.577c-0.611,0.045-1.102,0.08-1.718,0.126
						C79.893,199.451,80.246,199.428,80.978,199.577z"/>
					<path fill-rule="evenodd" clip-rule="evenodd" fill="#FFFFFF" d="M105.059,200.362c0.118-0.02,0.237-0.038,0.354-0.06
						c0.024,0,0.051-0.001,0.077-0.001c0.466-0.097,0.93-0.198,1.4-0.286c0.136-0.025,0.296-0.018,0.446-0.026
						c0.513-0.03,0.715-0.197,0.975-0.337c-0.018,0.054,0.017,0.128-0.063,0.157c-0.35,0.134-0.699,0.292-1.112,0.376
						c-1.28,0.267-2.269,0.647-3.161,1.085c-0.483,0.237-1.018,0.368-1.909,0.476c1.179-0.364,1.63-0.844,2.435-1.24
						c0.127-0.062,0.36-0.099,0.542-0.146L105.059,200.362z"/>
					<path fill-rule="evenodd" clip-rule="evenodd" fill="#FFFFFF" d="M106.706,200.466c-0.679,0.341-1.307,0.677-1.988,0.999
						c-0.451,0.216-1.037,0.369-1.734,0.423c0.321-0.077,0.64-0.154,0.958-0.229c-0.006-0.01-0.011-0.018-0.016-0.028
						c-0.301,0.042-0.602,0.081-0.903,0.122c0.873-0.219,1.695-0.439,2.193-0.83c-0.168,0.051-0.295,0.089-0.448,0.136
						C105.131,200.752,105.921,200.512,106.706,200.466z"/>
					<path fill-rule="evenodd" clip-rule="evenodd" fill="#FFFFFF" d="M109.204,199.627c-0.332,0.146-0.665,0.29-0.997,0.434
						c-0.049-0.012-0.099-0.021-0.147-0.032c0.96-0.415,1.364-0.857,1.23-1.329c0.196,0.125,0.537,0.21,0.333,0.42
						c-0.086,0.09,0.035,0.195,0.072,0.292c0.127,0.33-0.834,0.757-1.786,0.853c0.293-0.11,0.565-0.197,0.788-0.301
						c0.218-0.099,0.385-0.213,0.574-0.319C109.25,199.64,109.228,199.633,109.204,199.627z"/>
					<path fill-rule="evenodd" clip-rule="evenodd" fill="#FFFFFF" d="M111.367,197.248c-0.025-0.315-0.37-0.557-0.94-0.753
						c0.161,0.019,0.319,0.039,0.552,0.067c-0.531-0.25-1.342-0.362-1.703-0.67c0.471,0.119,0.897,0.219,1.299,0.329
						c0.506,0.139,0.946,0.304,1.048,0.555c0.058,0.144-0.023,0.303-0.042,0.455C111.508,197.238,111.438,197.242,111.367,197.248z"
						/>
					<path fill-rule="evenodd" clip-rule="evenodd" fill="#FFFFFF" d="M97.078,201.039c0.294-0.023,0.589-0.059,0.876-0.067
						c0.283-0.005,0.561,0.014,0.837,0.028c0.535,0.025,0.996-0.063,1.398-0.233c0.375-0.16,0.735-0.328,1.302-0.361
						c0.072-0.005,0.142-0.003,0.228,0.006c-0.652,0.106-1.134,0.248-1.4,0.526c-0.161,0.167-0.902,0.219-1.334,0.183
						c-0.592-0.049-1.177-0.147-1.885-0.021C97.092,201.08,97.085,201.061,97.078,201.039z"/>
					<path fill-rule="evenodd" clip-rule="evenodd" fill="#FFFFFF" d="M102.256,200.435c-0.607,0.178-0.903,0.413-1.086,0.665
						c-0.146,0.2-0.542,0.314-0.873,0.426c0.143-0.179,0.307-0.367,0.442-0.556C100.956,200.666,101.48,200.497,102.256,200.435z"/>
					<path fill-rule="evenodd" clip-rule="evenodd" fill="#FFFFFF" d="M114.59,196.142c0.087,0.103,0.175,0.207,0.271,0.325
						c0.056-0.036,0.104-0.067,0.193-0.124c0.021,0.097,0.035,0.16,0.05,0.235c0.062-0.028,0.115-0.054,0.271-0.123
						c-0.06,0.173-0.062,0.307-0.166,0.438c-0.096,0.117-0.302,0.23-0.475,0.356c-0.009-0.075-0.014-0.153-0.022-0.249
						c-0.076,0.041-0.113,0.061-0.111,0.061c-0.018-0.287-0.033-0.596-0.051-0.901C114.565,196.152,114.578,196.147,114.59,196.142z
						"/>
					<path fill-rule="evenodd" clip-rule="evenodd" fill="#FFFFFF" d="M113.012,198.321c0.06-0.041,0.12-0.079,0.233-0.156
						c-0.164,0.044-0.241,0.063-0.221,0.058c0.252-0.376,0.519-0.779,0.777-1.166C114.251,197.307,113.842,198.039,113.012,198.321z
						"/>
					<path fill-rule="evenodd" clip-rule="evenodd" fill="#FFFFFF" d="M106.634,201.239c0.057-0.134,0.111-0.262,0.181-0.424
						c-0.577,0.247-1.094,0.468-1.611,0.69c-0.027-0.01-0.052-0.02-0.078-0.027c0.896-0.316,1.221-0.843,2.606-0.992
						C107.367,200.737,107.014,200.979,106.634,201.239z"/>
					<path fill-rule="evenodd" clip-rule="evenodd" fill="#FFFFFF" d="M109.918,197.969c-0.254-0.009-0.692,0.094-0.885-0.049
						c-0.119-0.087-0.21-0.182-0.245-0.282c-0.011-0.041-0.048-0.178,0.331-0.13c0.023,0.002,0.162-0.086,0.209-0.109
						c0.023,0.131,0.053,0.27,0.082,0.412c0.031-0.001,0.061-0.004,0.091-0.006c0.074-0.08,0.146-0.16,0.248-0.271
						C109.817,197.707,109.867,197.846,109.918,197.969z"/>
					<path fill-rule="evenodd" clip-rule="evenodd" fill="#FFFFFF" d="M111.729,198.979c-0.136,0.068-0.244,0.128-0.37,0.186
						c-0.385,0.179-0.719,0.355-0.815,0.577c-0.039,0.087-0.248,0.176-0.423,0.257C110.05,199.561,110.455,199.199,111.729,198.979z
						"/>
					<path fill-rule="evenodd" clip-rule="evenodd" fill="#FFFFFF" d="M109.481,199.973c-0.295,0.225-0.455,0.442-1.108,0.556
						c-0.076,0.012-0.133,0.053-0.195,0.082c-0.356,0.178-0.709,0.354-1.112,0.518C107.762,200.727,108.26,200.275,109.481,199.973z
						"/>
					<path fill-rule="evenodd" clip-rule="evenodd" fill="#FFFFFF" d="M111.044,199.538c0.834-0.437,1.673-0.873,2.509-1.308
						c-0.5,0.502-1.407,0.925-2.375,1.338C111.134,199.559,111.089,199.548,111.044,199.538z"/>
					<path fill-rule="evenodd" clip-rule="evenodd" fill="#FFFFFF" d="M103.637,202.176c0.334-0.092,0.597-0.166,0.949-0.264
						c-0.187,0.013-0.284,0.019-0.5,0.035c0.695-0.209,1.297-0.39,1.861-0.559C105.816,201.665,104.502,202.145,103.637,202.176z"/>
					<path fill-rule="evenodd" clip-rule="evenodd" fill="#FFFFFF" d="M114.042,195.691c-0.44-0.267-0.12-0.655-0.943-0.82
						c0.039-0.009,0.081-0.021,0.123-0.032c0.188,0.054,0.375,0.11,0.561,0.167c0.017-0.006,0.034-0.011,0.05-0.017
						c-0.092-0.06-0.181-0.119-0.27-0.178c0.762,0.06,0.738,0.27,0.574,0.517C114.063,195.438,114.078,195.551,114.042,195.691z"/>
					<path fill-rule="evenodd" clip-rule="evenodd" fill="#FFFFFF" d="M112.131,195.106c0.997,0.244,0.745,0.695,0.824,1.098
						c-0.087-0.056-0.228-0.101-0.259-0.164c-0.108-0.215-0.161-0.438-0.275-0.656C112.371,195.285,112.23,195.198,112.131,195.106z
						"/>
					<path fill-rule="evenodd" clip-rule="evenodd" fill="#FFFFFF" d="M114.279,194.651c0.785,0.295,0.173,0.744,0.324,1.11
						c-0.282-0.063-0.376-0.177-0.359-0.339C114.274,195.167,114.269,194.911,114.279,194.651z"/>
					<path fill-rule="evenodd" clip-rule="evenodd" fill="#FFFFFF" d="M113.733,196.078c0.159,0.234,0.318,0.466,0.478,0.703
						c0.048-0.031,0.104-0.067,0.156-0.101c0.03-0.001,0.061-0.001,0.091-0.002c-0.055,0.236-0.108,0.473-0.164,0.711
						c-0.016-0.001-0.033,0.001-0.05,0.002c-0.212-0.43-0.426-0.861-0.64-1.292C113.647,196.092,113.69,196.084,113.733,196.078z"/>
					<path fill-rule="evenodd" clip-rule="evenodd" fill="#FFFFFF" d="M114.939,194.754c0.1,0.449,0.201,0.895,0.31,1.372
						c-0.851-0.399-0.156-0.929-0.496-1.355C114.813,194.766,114.876,194.759,114.939,194.754z"/>
					<path fill-rule="evenodd" clip-rule="evenodd" fill="#FFFFFF" d="M111.678,198.604c0.168-0.32,0.348-0.636,1.398-0.81
						c-0.087,0.155-0.198,0.298-0.635,0.408c-0.178,0.043-0.279,0.147-0.401,0.226c-0.092,0.06-0.167,0.127-0.249,0.19
						C111.754,198.613,111.716,198.608,111.678,198.604z"/>
					<path fill-rule="evenodd" clip-rule="evenodd" fill="#FFFFFF" d="M106.175,198.221c0.283-0.159,0.672-0.311,0.822-0.479
						c0.148-0.164,0.054-0.346,0.068-0.547c0.471,0.213,0.548,0.382,0.295,0.636c-0.026-0.032-0.038-0.043-0.045-0.054
						c-0.354,0.152-0.723,0.311-1.089,0.469C106.208,198.239,106.191,198.23,106.175,198.221z"/>
					<path fill-rule="evenodd" clip-rule="evenodd" fill="#FFFFFF" d="M104.485,202.242c-0.297,0.03-0.594,0.062-0.892,0.093
						c1.243-0.237,2.408-0.497,2.783-1.069c0.186,0.13,0.006,0.438-0.292,0.525c-0.534,0.152-1.075,0.302-1.615,0.455
						C104.469,202.243,104.485,202.242,104.485,202.242z"/>
					<path fill-rule="evenodd" clip-rule="evenodd" fill="#FFFFFF" d="M108.249,196.898c0.556,0.133,0.628,0.245,0.364,0.516
						c-0.209,0.215-0.345,0.422,0.183,0.554c-0.036,0.012-0.071,0.023-0.107,0.035c-0.155-0.062-0.394-0.11-0.45-0.19
						c-0.093-0.127-0.073-0.276-0.083-0.418c0-0.023,0.104-0.054,0.16-0.082c0.031,0.019,0.063,0.037,0.11,0.065
						C108.775,197.163,108.485,197.036,108.249,196.898z"/>
					<path fill-rule="evenodd" clip-rule="evenodd" fill="#FFFFFF" d="M113.012,195.192c0.124,0.08,0.244,0.164,0.416,0.276
						c-0.003-0.111-0.003-0.187-0.006-0.305c0.436,0.295-0.053,0.58-0.18,0.857c-0.096-0.273-0.19-0.546-0.289-0.818
						C112.973,195.199,112.994,195.195,113.012,195.192z"/>
					<path fill-rule="evenodd" clip-rule="evenodd" fill="#FFFFFF" d="M105.49,200.302c-0.026,0-0.053,0.001-0.077,0.001
						c0.012-0.033-0.01-0.082,0.04-0.098c0.465-0.157,0.938-0.313,1.42-0.46c0.121-0.037,0.284-0.053,0.521-0.092
						C106.909,199.98,106.171,200.125,105.49,200.302z"/>
					<path fill-rule="evenodd" clip-rule="evenodd" fill="#FFFFFF" d="M97.111,201.894c0.824-0.167,1.653-0.335,2.481-0.504
						c0.029,0.015,0.059,0.024,0.089,0.037c-0.347,0.136-0.693,0.274-1.04,0.413c-0.026-0.008-0.052-0.019-0.079-0.026
						c0.09-0.044,0.182-0.088,0.307-0.148c-0.608,0.096-1.171,0.183-1.736,0.272C97.124,201.925,97.117,201.91,97.111,201.894z"/>
					<path fill-rule="evenodd" clip-rule="evenodd" fill="#FFFFFF" d="M111.91,197.387c0.048-0.018,0.129-0.043,0.245-0.084
						c-0.273,0.326-1.177,0.423-1.617,0.672c-0.033-0.008-0.069-0.018-0.102-0.024c0.173-0.094,0.302-0.21,0.528-0.27
						c0.722-0.191,0.912-0.439,1.012-0.709c0.046,0,0.093,0,0.14-0.002C112.046,197.111,111.979,197.251,111.91,197.387z"/>
					<path fill-rule="evenodd" clip-rule="evenodd" fill="#FFFFFF" d="M96.854,201.813c0.473-0.152,0.928-0.317,1.431-0.45
						c0.226-0.059,0.544-0.049,0.833-0.04C98.458,201.587,97.582,201.631,96.854,201.813z"/>
					<path fill-rule="evenodd" clip-rule="evenodd" fill="#FFFFFF" d="M111.76,197.925c-0.328,0.329-0.145,0.688-0.971,1.018
						c0.126-0.137,0.259-0.249,0.324-0.361c0.068-0.114,0.035-0.228,0.113-0.339c0.076-0.113,0.239-0.222,0.363-0.333
						C111.647,197.912,111.705,197.917,111.76,197.925z"/>
					<path fill-rule="evenodd" clip-rule="evenodd" fill="#FFFFFF" d="M109.006,196.917c-0.683-0.141-1.381-0.289-2.028-0.427
						c-0.053,0.004-0.012,0.001,0.028,0c0.406-0.017,0.733,0.059,1.15,0.058C108.656,196.547,108.956,196.739,109.006,196.917z"/>
					<path fill-rule="evenodd" clip-rule="evenodd" fill="#FFFFFF" d="M103.853,200.497c-0.116,0.171-0.444,0.277-0.853,0.373
						c-0.392,0.095-0.757,0.21-1.204,0.288c0.655-0.233,1.308-0.465,1.962-0.695C103.791,200.473,103.821,200.484,103.853,200.497z"
						/>
					<path fill-rule="evenodd" clip-rule="evenodd" fill="#FFFFFF" d="M112.801,197.636c0.223-0.293,0.461-0.604,0.668-0.876
						C113.858,196.923,113.521,197.408,112.801,197.636z"/>
					<path fill-rule="evenodd" clip-rule="evenodd" fill="#FFFFFF" d="M92.805,201.655c0.556-0.092,1.111-0.186,1.659-0.276
						c-0.452,0.292-0.995,0.396-2.142,0.391c0.201-0.046,0.352-0.083,0.501-0.118L92.805,201.655z"/>
					<path fill-rule="evenodd" clip-rule="evenodd" fill="#FFFFFF" d="M91.353,201.507c0.031-0.025,0.051-0.068,0.094-0.076
						c0.436-0.085,0.935-0.247,1.302-0.232c0.438,0.018,0.611-0.123,0.927-0.155c-0.292,0.241-0.844,0.325-1.378,0.405
						c-0.218,0.032-0.468,0.001-0.709,0.006c-0.074,0.001-0.158,0.033-0.237,0.055L91.353,201.507z"/>
					<path fill-rule="evenodd" clip-rule="evenodd" fill="#FFFFFF" d="M103.627,200.431c-0.437,0.12-0.875,0.239-1.31,0.359
						c-0.021-0.011-0.04-0.022-0.06-0.033c0.137-0.046,0.272-0.089,0.411-0.137c-0.021-0.011-0.04-0.021-0.059-0.032
						c-0.268,0.079-0.536,0.159-0.769,0.229c0.225-0.25,0.225-0.25,1.734-0.426C103.592,200.404,103.609,200.418,103.627,200.431z"
						/>
					<path fill-rule="evenodd" clip-rule="evenodd" fill="#FFFFFF" d="M106.777,197.054c0.012,0.208,0.022,0.405,0.033,0.603
						c-0.043,0.004-0.085,0.007-0.127,0.011c-0.136-0.118-0.29-0.23-0.401-0.354C106.146,197.163,106.271,197.097,106.777,197.054z"
						/>
					<path fill-rule="evenodd" clip-rule="evenodd" fill="#FFFFFF" d="M109.964,199.467c0.025-0.273,0.055-0.552,0.083-0.828
						c0.044-0.005,0.089-0.009,0.138-0.014c0.023,0.099,0.047,0.196,0.074,0.305c0.06-0.03,0.11-0.054,0.158-0.079
						c0.025,0,0.05,0.001,0.075,0.003c-0.132,0.205-0.265,0.409-0.398,0.613C110.048,199.469,110.006,199.467,109.964,199.467z"/>
					<path fill-rule="evenodd" clip-rule="evenodd" fill="#FFFFFF" d="M114.568,194.093c0.803,0.149,0.755,0.467,0.709,0.784
						C115.04,194.613,114.797,194.349,114.568,194.093z"/>
					<path fill-rule="evenodd" clip-rule="evenodd" fill="#FFFFFF" d="M104.906,198.972c0.096,0.078,0.167,0.136,0.242,0.193
						c-0.054-0.196-0.046-0.365,0.482-0.541c-0.476,0.331-0.373,0.488,0.394,0.676C105.193,199.316,104.88,199.23,104.906,198.972z"
						/>
					<path fill-rule="evenodd" clip-rule="evenodd" fill="#FFFFFF" d="M115.817,196.502c-0.076-0.318-0.572-0.599-0.25-0.946
						c0.102,0.203,0.224,0.401,0.294,0.607C115.897,196.27,115.835,196.39,115.817,196.502z"/>
					<path fill-rule="evenodd" clip-rule="evenodd" fill="#FFFFFF" d="M106.887,198.647c0.07,0.041,0.14,0.081,0.254,0.146
						c0.053-0.092,0.087-0.147,0.149-0.255c0.043,0.094,0.066,0.146,0.104,0.226c0.094-0.063,0.152-0.103,0.254-0.172
						c0.051,0.133,0.091,0.241,0.13,0.343C107.117,198.932,106.954,198.886,106.887,198.647z"/>
					<path fill-rule="evenodd" clip-rule="evenodd" fill="#FFFFFF" d="M103.482,201.938c-0.588,0.199-1.109,0.388-1.8,0.354
						C102.183,202.115,102.768,201.986,103.482,201.938z"/>
					<path fill-rule="evenodd" clip-rule="evenodd" fill="#FFFFFF" d="M103.832,200.048c0.409-0.158,0.767-0.299,1.115-0.434
						c0.258,0.147,0.206,0.295-0.26,0.504c0.055-0.055,0.098-0.082,0.108-0.108c0.018-0.045,0.014-0.089,0.02-0.134
						c-0.107,0.012-0.216,0.014-0.317,0.034C104.293,199.946,104.094,199.993,103.832,200.048z"/>
					<path fill-rule="evenodd" clip-rule="evenodd" fill="#FFFFFF" d="M107.271,199.127c-0.234,0.036-0.47,0.075-0.715,0.115
						c-0.155-0.164-0.768-0.205-0.591-0.487C106.157,199.028,106.701,199.074,107.271,199.127z"/>
					<path fill-rule="evenodd" clip-rule="evenodd" fill="#FFFFFF" d="M99.402,201.878c-0.171,0.069-0.361,0.143-0.577,0.228
						c0.117-0.003,0.224-0.008,0.353-0.012c-0.348,0.098-0.739,0.101-1.345,0.015C98.333,202.034,98.861,201.957,99.402,201.878z"/>
					<path fill-rule="evenodd" clip-rule="evenodd" fill="#FFFFFF" d="M110.7,198.674c0.035-0.197,0.051-0.383,0.108-0.567
						c0.048-0.15,0.321-0.248,0.75-0.299C110.646,198.055,111.208,198.39,110.7,198.674z"/>
					<path fill-rule="evenodd" clip-rule="evenodd" fill="#FFFFFF" d="M108.173,198.857c0.055-0.127,0.095-0.222,0.139-0.318
						c0.051-0.003,0.1-0.005,0.148-0.007c-0.008,0.189-0.012,0.38-0.02,0.569c-0.049,0.005-0.103,0.012-0.152,0.017
						c-0.14-0.122-0.279-0.243-0.417-0.363c0.04-0.011,0.075-0.018,0.113-0.025C108.041,198.769,108.098,198.806,108.173,198.857z"
						/>
					<path fill-rule="evenodd" clip-rule="evenodd" fill="#FFFFFF" d="M115.688,195.174c-0.021-0.253-0.043-0.508-0.068-0.797
						c0.055,0.063,0.082,0.089,0.114,0.124c0.061-0.025,0.111-0.046,0.224-0.094c-0.064,0.272-0.121,0.519-0.175,0.766
						C115.753,195.171,115.718,195.174,115.688,195.174z"/>
					<path fill-rule="evenodd" clip-rule="evenodd" fill="#FFFFFF" d="M108.311,199.652c-0.259,0.14-0.461,0.307-0.975,0.337
						c0.182-0.112,0.368-0.227,0.552-0.341c0.034,0.003,0.066,0.008,0.1,0.014c-0.039,0.028-0.077,0.058-0.116,0.087
						c0.021,0.006,0.042,0.01,0.063,0.017c0.249-0.131,0.497-0.262,0.744-0.391c0.021,0.003,0.041,0.009,0.062,0.012
						C108.598,199.476,108.456,199.563,108.311,199.652z"/>
					<path fill-rule="evenodd" clip-rule="evenodd" fill="#FFFFFF" d="M109.774,198.182c-0.556,0.024-1.113,0.05-1.672,0.074
						c0.598-0.234,1.122-0.08,1.687-0.147C109.784,198.134,109.782,198.155,109.774,198.182z"/>
					<path fill-rule="evenodd" clip-rule="evenodd" fill="#FFFFFF" d="M103.957,196.961c0.456,0.071,0.865,0.151,1.307,0.208
						c0.481,0.058,0.828,0.154,0.867,0.371c-0.28-0.286-1.073-0.309-1.676-0.43C104.266,197.07,104.116,197.008,103.957,196.961z"/>
					<path fill-rule="evenodd" clip-rule="evenodd" fill="#FFFFFF" d="M112.057,196.434c-0.341-0.187-0.682-0.373-1.023-0.562
						c0.036-0.011,0.072-0.021,0.106-0.031c0.375,0.18,0.75,0.355,1.125,0.536C112.194,196.396,112.124,196.416,112.057,196.434z"/>
					<path fill-rule="evenodd" clip-rule="evenodd" fill="#FFFFFF" d="M92.823,201.651c-0.36,0.026-0.72,0.055-1.082,0.083
						c-0.001-0.009-0.006-0.017-0.011-0.025c0.601-0.094,1.202-0.192,1.803-0.289c0.009,0.006,0.022,0.007,0.034,0.013
						c-0.253,0.073-0.508,0.149-0.761,0.223C92.805,201.655,92.823,201.651,92.823,201.651z"/>
					<path fill-rule="evenodd" clip-rule="evenodd" fill="#FFFFFF" d="M96.594,201.516c0.074-0.051,0.167-0.112,0.273-0.184
						c-0.112,0.013-0.195,0.021-0.346,0.04c0.389-0.189,0.831-0.169,1.259-0.217C97.365,201.28,96.975,201.399,96.594,201.516z"/>
					<path fill-rule="evenodd" clip-rule="evenodd" fill="#FFFFFF" d="M110.649,196.947c-0.062,0.19-0.121,0.378-0.193,0.601
						c-0.394-0.203-0.014-0.408,0.049-0.601C110.553,196.947,110.602,196.947,110.649,196.947z"/>
					<path fill-rule="evenodd" clip-rule="evenodd" fill="#FFFFFF" d="M110.833,197.286c0.01-0.158,0.021-0.333,0.029-0.47
						C111.248,196.919,111.257,197.159,110.833,197.286z"/>
					<path fill-rule="evenodd" clip-rule="evenodd" fill="#FFFFFF" d="M113.647,198.504c0.124-0.192,0.25-0.388,0.373-0.58
						c0.058,0.001,0.113,0,0.167,0.001c-0.117,0.194-0.237,0.388-0.353,0.58C113.772,198.505,113.708,198.504,113.647,198.504z"/>
					<path fill-rule="evenodd" clip-rule="evenodd" fill="#FFFFFF" d="M115.42,194.417c-0.132-0.185-0.24-0.344-0.351-0.495
						C115.476,193.966,115.572,194.084,115.42,194.417z"/>
					<path fill-rule="evenodd" clip-rule="evenodd" fill="#FFFFFF" d="M103.146,201.008c-0.452,0.119-0.905,0.239-1.355,0.359
						c0.438-0.151,0.881-0.3,1.424-0.486C103.171,200.963,103.159,200.985,103.146,201.008z"/>
					<path fill-rule="evenodd" clip-rule="evenodd" fill="#FFFFFF" d="M102.97,202.283c-0.38,0.095-0.667,0.347-1.223,0.215
						C102.169,202.424,102.57,202.354,102.97,202.283z"/>
					<path fill-rule="evenodd" clip-rule="evenodd" fill="#FFFFFF" d="M112.436,196.172c-0.084-0.177-0.167-0.353-0.247-0.532
						c0.052-0.006,0.103-0.013,0.157-0.021c0.091,0.175,0.182,0.351,0.272,0.525C112.558,196.153,112.497,196.163,112.436,196.172z"
						/>
					<path fill-rule="evenodd" clip-rule="evenodd" fill="#FFFFFF" d="M105.337,200.029c0.069-0.091,0.109-0.146,0.188-0.253
						c-0.129,0.061-0.177,0.085-0.241,0.116c-0.025-0.094-0.053-0.178-0.081-0.267C105.689,199.71,105.744,199.825,105.337,200.029z
						"/>
					<path fill-rule="evenodd" clip-rule="evenodd" fill="#FFFFFF" d="M103.716,196.987c0.428,0.108,0.885,0.223,1.226,0.308
						C104.5,197.26,103.86,197.236,103.716,196.987z"/>
					<path fill-rule="evenodd" clip-rule="evenodd" fill="#FFFFFF" d="M91.65,201.202c0.324-0.058,0.652-0.117,1.008-0.183
						c-0.219,0.168-0.219,0.168-0.969,0.227C91.678,201.231,91.663,201.217,91.65,201.202z"/>
					<path fill-rule="evenodd" clip-rule="evenodd" fill="#FFFFFF" d="M113.209,197.007c-0.167,0.118-0.333,0.236-0.498,0.356
						c-0.039-0.007-0.08-0.009-0.116-0.017c0.147-0.125,0.293-0.252,0.438-0.377C113.094,196.981,113.152,196.992,113.209,197.007z"
						/>
					<path fill-rule="evenodd" clip-rule="evenodd" fill="#FFFFFF" d="M96.128,201.283c-0.081,0.12-0.161,0.239-0.252,0.378
						c-0.269-0.146-0.083-0.297,0.134-0.445c-0.035,0.058-0.067,0.116-0.133,0.226C96.006,201.358,96.067,201.322,96.128,201.283z"
						/>
					<path fill-rule="evenodd" clip-rule="evenodd" fill="#FFFFFF" d="M113.925,195.967c0.521,0.086,0.207,0.259,0.173,0.395
						C114.045,196.237,113.992,196.115,113.925,195.967z"/>
					<path fill-rule="evenodd" clip-rule="evenodd" fill="#FFFFFF" d="M111.859,196.388c0.152,0.159,0.303,0.317,0.458,0.474
						c-0.041,0.01-0.08,0.017-0.12,0.024c-0.159-0.155-0.313-0.313-0.47-0.473C111.771,196.405,111.813,196.397,111.859,196.388z"/>
					<path fill-rule="evenodd" clip-rule="evenodd" fill="#FFFFFF" d="M91.931,200.937c0.115-0.099,0.229-0.196,0.354-0.304
						C92.541,200.711,92.496,200.758,91.931,200.937z"/>
					<path fill-rule="evenodd" clip-rule="evenodd" fill="#FFFFFF" d="M105.059,200.362l-0.016-0.003L105.059,200.362z"/>
					<path fill-rule="evenodd" clip-rule="evenodd" fill="#FFFFFF" d="M97.534,194.078c-0.631,0.381-0.543,0.531,0.349,0.659
						c-0.098,0.047-0.169,0.097-0.277,0.129c-0.201,0.063-0.422,0.11-0.636,0.166c-0.093-0.089-0.246-0.17-0.272-0.265
						C96.621,194.518,96.962,194.237,97.534,194.078z"/>
					<path fill-rule="evenodd" clip-rule="evenodd" fill="#FFFFFF" d="M95.497,197.034c0.048,0.071,0.083,0.125,0.12,0.178
						c-1.124,0.197-1.146,0.676-0.371,0.794c-0.088,0.052-0.161,0.111-0.26,0.155c-0.235,0.107-0.407,0.108-0.543-0.012
						C94.075,197.825,94.508,197.332,95.497,197.034z"/>
				</g>
			</g>
		</g>
	</g>
	<path fill="#5B3A15" d="M302.684,151.38c0,21.088-16,34-59.334,34l-117.083-5.699c-27.716,0-50.185-17.098-50.185-38.186l0,0
		c0-21.09,22.468-38.185,50.185-38.185l114.417,11.403c27.717,0,61.654,7.211,61.654,28.299L302.684,151.38z"/>
	<path fill="#A75E26" d="M284.574,111.12c0-0.004,0-0.006,0-0.01c0-0.002,0-0.006,0-0.009v-1.921h-0.049
		c-1.018-28.989-24.826-52.183-54.064-52.183L89.885,56.386c-29.442,0-53.377,23.521-54.08,52.795H35.28v2h0.509
		c0.367,29.57,24.44,53.43,54.096,53.43l50.551,0.221v0.049h2v-0.039l7.707,0.033v0.006h1.485l38.065,0.166v0.053h2v-0.045
		l38.768,0.17c29.861,0,54.074-24.189,54.111-54.043h0.002V111.12z"/>
	<path fill="#D5AA8D" d="M139.754,164.61l90.707,0.113c29.861,0,54.074-24.189,54.111-54.043h0.002v-0.061c0-0.004,0-0.006,0-0.01
		s0-0.006,0-0.01v-1.919h-0.049c-1.018-28.99-24.826-52.184-54.064-52.184l-90.706-0.112"/>
	<path fill="#C3782A" d="M283.086,122.116c0,29.887-24.229,54.113-54.113,54.113l-140.577-0.613
		c-29.884,0-54.112-24.227-54.112-54.111l0,0c0-29.886,24.229-54.113,54.112-54.113l140.577,0.612
		C258.857,68.004,283.086,92.231,283.086,122.116L283.086,122.116z"/>
	<path fill="#D5AA8D" d="M140.088,176.229l-51.692-0.225c-29.885,0-54.113-24.229-54.113-54.113l0,0
		c0-29.885,24.228-54.112,54.113-54.112l51.692,0.225"/>
	<line fill="none" stroke="#FFFFFF" stroke-width="2" stroke-miterlimit="10" x1="33.792" y1="121.187" x2="283.086" y2="121.187"/>
	<g>
		<ellipse fill="#FFFFFF" cx="85.224" cy="122.337" rx="38.096" ry="36.775"/>
		
			<ellipse fill="none" stroke="#C3782A" stroke-width="3" stroke-miterlimit="10" cx="85.224" cy="122.337" rx="30.507" ry="29.449"/>
		<ellipse fill="#C3782A" cx="85.224" cy="122.337" rx="8.214" ry="7.93"/>
	</g>
	<g>
		<ellipse fill="#FFFFFF" cx="233.287" cy="122.337" rx="38.096" ry="36.775"/>
		
			<ellipse fill="none" stroke="#C3782A" stroke-width="3" stroke-miterlimit="10" cx="233.286" cy="122.337" rx="30.507" ry="29.449"/>
		<ellipse fill="#C3782A" cx="233.286" cy="122.337" rx="8.214" ry="7.93"/>
	</g>
	
		<line fill="none" stroke="#FFFFFF" stroke-width="2" stroke-miterlimit="10" x1="129.517" y1="121.341" x2="129.517" y2="175.663"/>
	<g>
		
			<line fill="none" stroke="#FFFFFF" stroke-width="2" stroke-miterlimit="10" x1="139.948" y1="161.616" x2="139.948" y2="175.886"/>
		
			<line fill="none" stroke="#FFFFFF" stroke-width="2" stroke-miterlimit="10" x1="149.654" y1="161.616" x2="149.654" y2="175.886"/>
		
			<line fill="none" stroke="#FFFFFF" stroke-width="2" stroke-miterlimit="10" x1="159.361" y1="161.616" x2="159.361" y2="175.886"/>
		
			<line fill="none" stroke="#FFFFFF" stroke-width="2" stroke-miterlimit="10" x1="169.068" y1="161.616" x2="169.068" y2="175.886"/>
		
			<line fill="none" stroke="#FFFFFF" stroke-width="2" stroke-miterlimit="10" x1="178.774" y1="161.616" x2="178.774" y2="175.886"/>
	</g>
	<line fill="none" stroke="#FFFFFF" stroke-width="2" stroke-miterlimit="10" x1="189.205" y1="121.78" x2="189.205" y2="176.104"/>
	
		<line fill="none" stroke="#FFFFFF" stroke-width="2" stroke-miterlimit="10" x1="189.494" y1="162.052" x2="129.952" y2="162.052"/>
	<circle fill="none" stroke="#FFFFFF" stroke-width="2" stroke-miterlimit="10" cx="146.703" cy="143.073" r="3.676"/>
	<circle fill="none" stroke="#FFFFFF" stroke-width="2" stroke-miterlimit="10" cx="173.65" cy="143.073" r="3.676"/>
	<g>
		<circle fill="none" stroke="#FFFFFF" stroke-width="5" stroke-miterlimit="10" cx="135.312" cy="86.861" r="6.085"/>
		<circle fill="none" stroke="#FFFFFF" stroke-width="5" stroke-miterlimit="10" cx="159.651" cy="86.861" r="6.085"/>
		<circle fill="none" stroke="#FFFFFF" stroke-width="5" stroke-miterlimit="10" cx="183.989" cy="86.861" r="6.085"/>
	</g>
	<g>
		
			<line fill="none" stroke="#FFFFFF" stroke-width="2" stroke-miterlimit="10" x1="145.743" y1="101.485" x2="172.979" y2="101.485"/>
		<line fill="none" stroke="#FFFFFF" stroke-width="2" stroke-miterlimit="10" x1="145.743" y1="107.28" x2="172.979" y2="107.28"/>
		
			<line fill="none" stroke="#FFFFFF" stroke-width="2" stroke-miterlimit="10" x1="145.743" y1="113.075" x2="172.979" y2="113.075"/>
	</g>
	<g>
		<path fill="none" stroke="#FFFFFF" stroke-width="4" stroke-miterlimit="10" d="M88.937,63.703v-6.742
			c0-5.143,4.168-9.311,9.311-9.311h122.192c5.141,0,9.309,4.168,9.309,9.311v6.742"/>
		<rect x="101.266" y="43.89" fill="#FFFFFF" width="115.175" height="8.259"/>
	</g>
	<g>
		<path fill="none" stroke="#A75E26" stroke-width="4" stroke-miterlimit="10" d="M229.729,178.315v-26.533
			c0,0,1.061-10.613,10.613-10.613c9.551,0,10.611,6.898,10.611,10.613s1.592,9.021,9.021,9.021"/>
		<g>
			<path fill="#5B3A15" d="M232.916,172.3h-2.668h-22.211v0.018c-0.119,0-0.234-0.018-0.354-0.018
				c-10.727,0-19.572,7.967-21.001,18.301c-0.976,2.438-1.528,5.092-1.528,7.879c0,11.723,9.504,21.227,21.227,21.227
				c5.375,0,10.268-2.016,14.008-5.307h9.75h17.068c3.74,3.291,8.633,5.307,14.006,5.307c10.729,0,19.572-7.965,21.002-18.299
				c0.977-2.438,1.527-5.094,1.527-7.881c0-11.006-8.377-20.053-19.104-21.119V172.3h-27.482"/>
			<g>
				<polyline fill="none" stroke="#FFFFFF" stroke-linecap="round" stroke-miterlimit="10" points="254.508,188.315 
					255.637,187.188 256.764,188.315 				"/>
				<polyline fill="none" stroke="#FFFFFF" stroke-linecap="round" stroke-miterlimit="10" points="256.764,199.858 
					255.635,200.985 254.508,199.858 				"/>
			</g>
			<path fill="#A75E26" d="M259.332,168.163v-0.107h-29.361h-27.24v0.018c-0.119-0.002-0.234-0.018-0.354-0.018
				c-11.723,0-21.226,9.502-21.226,21.225c0,11.725,9.503,21.227,21.226,21.227c5.375,0,10.268-2.012,14.008-5.307h26.818
				c3.74,3.295,8.633,5.307,14.008,5.307c11.723,0,21.225-9.502,21.225-21.227C278.436,178.274,270.059,169.228,259.332,168.163z"/>
			<path fill="#D5AA8D" d="M224.943,205.2h18.26c3.74,3.295,8.633,5.307,14.008,5.307c11.723,0,21.225-9.502,21.225-21.227
				c0-11.006-8.377-20.053-19.104-21.117v-0.107h-29.361h-5.029"/>
			<path fill="#C3782A" d="M258.029,173.114v-0.105h-33.461h-23.141v0.018c-0.119-0.002-0.234-0.018-0.354-0.018
				c-11.723,0-21.226,9.502-21.226,21.225s9.503,21.227,21.226,21.227c5.375,0,10.268-2.014,14.008-5.307h9.75H241.9
				c3.74,3.293,8.633,5.307,14.008,5.307c11.723,0,21.225-9.504,21.225-21.227C277.133,183.228,268.756,174.181,258.029,173.114z"/>
			<g>
				<g>
					<polyline fill="none" stroke="#FFFFFF" stroke-linecap="round" stroke-miterlimit="10" points="254.861,187.962 
						255.99,186.835 257.117,187.962 					"/>
					<polyline fill="none" stroke="#FFFFFF" stroke-linecap="round" stroke-miterlimit="10" points="257.117,199.503 
						255.988,200.63 254.861,199.503 					"/>
				</g>
				<g>
					<polyline fill="none" stroke="#FFFFFF" stroke-linecap="round" stroke-miterlimit="10" points="261.438,192.521 
						262.564,193.647 261.438,194.774 					"/>
					<polyline fill="none" stroke="#FFFFFF" stroke-linecap="round" stroke-miterlimit="10" points="249.896,194.774 
						248.768,193.647 249.896,192.521 					"/>
				</g>
			</g>
			<path fill="#D5AA8D" d="M225.363,172.741h-23.406v0.02c-0.117-0.002-0.232-0.02-0.352-0.02c-11.723,0-21.227,9.504-21.227,21.227
				s9.504,21.227,21.227,21.227c5.375,0,10.268-2.014,14.006-5.307h9.752"/>
			<g>
				<g>
					<g>
						<g>
							<rect x="192.406" y="193.349" fill="#FFFFFF" width="15.92" height="3.539"/>
							<rect x="198.598" y="187.159" fill="#FFFFFF" width="3.537" height="15.918"/>
						</g>
						<circle fill="none" stroke="#FFFFFF" stroke-miterlimit="10" cx="200.365" cy="195.118" r="12.027"/>
					</g>
					<circle fill="none" stroke="#FFFFFF" stroke-miterlimit="10" cx="255.611" cy="193.972" r="15.389"/>
					<g>
						<circle fill="#FFFFFF" cx="255.481" cy="194.073" r="3.829"/>
						<g>
							<g>
								<circle fill="#FFFFFF" cx="255.636" cy="187.753" r="4.757"/>
								<circle fill="#C3782A" cx="255.635" cy="187.753" r="3.072"/>
							</g>
							<g>
								<circle fill="#FFFFFF" cx="249.466" cy="194.046" r="4.757"/>
								<circle fill="#C3782A" cx="249.467" cy="194.046" r="3.072"/>
							</g>
							<g>
								<circle fill="#FFFFFF" cx="255.636" cy="200.19" r="4.757"/>
								<circle fill="#C3782A" cx="255.635" cy="200.19" r="3.072"/>
							</g>
							<g>
								<circle fill="#FFFFFF" cx="261.756" cy="194.046" r="4.758"/>
								<circle fill="#C3782A" cx="261.756" cy="194.046" r="3.072"/>
							</g>
						</g>
					</g>
				</g>
				<rect x="219.35" y="187.78" fill="#FFFFFF" width="4.775" height="8.889"/>
				<rect x="228.635" y="187.78" fill="#FFFFFF" width="4.777" height="8.889"/>
			</g>
		</g>
	</g>
	<g>
		<linearGradient id="SVGID_1_" gradientUnits="userSpaceOnUse" x1="11.8042" y1="61.7036" x2="35.0732" y2="61.7036">
			<stop  offset="0" style="stop-color:#FFFFFF"/>
			<stop  offset="1" style="stop-color:#000000"/>
		</linearGradient>
		
			<line fill="url(#SVGID_1_)" stroke="#FFFFFF" stroke-width="4" stroke-linecap="round" stroke-miterlimit="10" x1="11.804" y1="54.025" x2="35.073" y2="69.382"/>
		
			<linearGradient id="SVGID_2_" gradientUnits="userSpaceOnUse" x1="688.9277" y1="-493.2534" x2="702.7559" y2="-493.2534" gradientTransform="matrix(0.9877 0.1565 -0.1565 0.9877 -717.3497 418.3326)">
			<stop  offset="0" style="stop-color:#FFFFFF"/>
			<stop  offset="1" style="stop-color:#000000"/>
		</linearGradient>
		
			<line fill="url(#SVGID_2_)" stroke="#FFFFFF" stroke-width="4" stroke-linecap="round" stroke-miterlimit="10" x1="42.193" y1="27.009" x2="52.063" y2="53.081"/>
		
			<linearGradient id="SVGID_3_" gradientUnits="userSpaceOnUse" x1="-609.0146" y1="459.832" x2="-581.2056" y2="459.832" gradientTransform="matrix(0.9912 -0.1324 0.1324 0.9912 541.8116 -441.632)">
			<stop  offset="0" style="stop-color:#FFFFFF"/>
			<stop  offset="1" style="stop-color:#000000"/>
		</linearGradient>
		
			<line fill="url(#SVGID_3_)" stroke="#FFFFFF" stroke-width="4" stroke-linecap="round" stroke-miterlimit="10" x1="-1.092" y1="93.814" x2="26.732" y2="92.076"/>
	</g>
	<g>
		
			<linearGradient id="SVGID_4_" gradientUnits="userSpaceOnUse" x1="-5757.5342" y1="62.4399" x2="-5734.2646" y2="62.4399" gradientTransform="matrix(-1 0 0 1 -5449.3389 0)">
			<stop  offset="0" style="stop-color:#FFFFFF"/>
			<stop  offset="1" style="stop-color:#000000"/>
		</linearGradient>
		
			<line fill="url(#SVGID_4_)" stroke="#FFFFFF" stroke-width="4" stroke-linecap="round" stroke-miterlimit="10" x1="308.195" y1="54.762" x2="284.926" y2="70.118"/>
		
			<linearGradient id="SVGID_5_" gradientUnits="userSpaceOnUse" x1="-5009.085" y1="410.335" x2="-4995.2578" y2="410.335" gradientTransform="matrix(-0.9877 0.1565 0.1565 0.9877 -4731.9897 418.3326)">
			<stop  offset="0" style="stop-color:#FFFFFF"/>
			<stop  offset="1" style="stop-color:#000000"/>
		</linearGradient>
		
			<line fill="url(#SVGID_5_)" stroke="#FFFFFF" stroke-width="4" stroke-linecap="round" stroke-miterlimit="10" x1="277.807" y1="27.744" x2="267.938" y2="53.817"/>
		
			<linearGradient id="SVGID_6_" gradientUnits="userSpaceOnUse" x1="-6327.6396" y1="-303.292" x2="-6299.8301" y2="-303.292" gradientTransform="matrix(-0.9912 -0.1324 -0.1324 0.9912 -5991.1504 -441.632)">
			<stop  offset="0" style="stop-color:#FFFFFF"/>
			<stop  offset="1" style="stop-color:#000000"/>
		</linearGradient>
		
			<line fill="url(#SVGID_6_)" stroke="#FFFFFF" stroke-width="4" stroke-linecap="round" stroke-miterlimit="10" x1="321.092" y1="94.552" x2="293.268" y2="92.813"/>
	</g>
</g>
</svg>
