<?xml version="1.0" encoding="utf-8"?>
<!-- Generator: Adobe Illustrator 16.0.0, SVG Export Plug-In . SVG Version: 6.00 Build 0)  -->
<!DOCTYPE svg PUBLIC "-//W3C//DTD SVG 1.1//EN" "http://www.w3.org/Graphics/SVG/1.1/DTD/svg11.dtd">
<svg version="1.1" id="Layer_1" xmlns="http://www.w3.org/2000/svg" xmlns:xlink="http://www.w3.org/1999/xlink" x="0px" y="0px"
	 width="320px" height="250px" viewBox="0 0 320 250" enable-background="new 0 0 320 250" xml:space="preserve">
<g>
	<g>
		<g>
			<g>
			</g>
			<g>
				<path fill="#364754" d="M287.431,191.566c0,15.097-50.455,40.919-120.551,42.789c-61.372,1.636-111.943-16.112-113.03-41.792
					c-1.088-25.678,47.754-48.604,109.093-51.201C224.28,138.765,287.431,168.524,287.431,191.566z"/>
				<path fill="#077BBB" d="M255.003,180.84c0,25.7-43.949,51.851-110.557,51.851c-61.394,0-112.613-23.693-111.868-51.701
					c0.683-25.694,50.475-41.377,111.868-41.377S255.003,155.137,255.003,180.84z"/>
				<ellipse fill="#3B96D2" cx="143.857" cy="179.915" rx="111.162" ry="46.536"/>
				<path fill="#BCE6FA" d="M60.714,210.957c-17.452-8.22-28.054-19.046-28.054-30.908c0-25.7,49.768-46.534,111.162-46.534
					c37.96,0,71.476,7.964,91.53,20.12"/>
				<path fill="#364754" d="M208.655,177.834c0,15.016-29.082,27.189-64.953,27.189c-35.872,0-64.952-12.174-64.952-27.189
					c0-15.02,29.08-27.194,64.952-27.194C179.573,150.64,208.655,162.814,208.655,177.834z"/>
			</g>
			<g>
				<g>
					<path fill="#3B96D2" d="M234.938,149.394h-13.732v-4.56h13.732c11.344,0,20.572-9.23,20.572-20.575
						s-9.229-20.574-20.572-20.574c-4.027,0-14.031-0.07-14.031-0.07l0.033-4.56c0,0,9.98,0.071,13.998,0.071
						c13.857,0,25.132,11.274,25.132,25.133C260.07,138.118,248.796,149.394,234.938,149.394z"/>
					<path fill="#EDEDEF" d="M219.101,104.069c0,0,0.357-0.031,1.031-0.093c0.674-0.054,1.66-0.164,2.918-0.249
						c1.256-0.092,2.781-0.215,4.531-0.312c1.77-0.089,3.68-0.275,5.922-0.276c1.049-0.051,2.264,0.086,3.512,0.204
						c1.204,0.212,2.45,0.456,3.693,0.871c2.486,0.793,5.023,2.033,7.279,3.853c2.252,1.804,4.303,4.106,5.701,6.863
						c1.416,2.738,2.229,5.872,2.27,9.025l0.004,0.073l0.003,0.037c-0.001,0.058,0.005-0.075-0.001,0.138l-0.008,0.134l-0.018,0.269
						l-0.033,0.538l-0.066,1.073c-0.127,0.802-0.254,1.63-0.42,2.418c-0.225,0.75-0.402,1.517-0.676,2.244
						c-0.309,0.715-0.545,1.461-0.918,2.136c-1.357,2.78-3.385,5.108-5.613,6.941c-2.234,1.847-4.756,3.123-7.233,3.948
						c-2.476,0.863-4.956,1.143-7.199,1.153c-1.142,0.013-9.223,0.083-10.479-0.016c-2.512-0.203-3.932,0.854-3.932,0.854
						s1.436-1.982,3.947-2.186c1.256-0.099,2.781-0.229,4.531-0.335c0.875-0.058,1.807-0.119,2.787-0.184
						c0.984-0.06,2.023-0.101,3.031-0.226c2.043-0.231,4.23-0.708,6.371-1.615c2.14-0.896,4.229-2.191,6.092-3.839
						c1.866-1.65,3.407-3.734,4.531-6.037c0.307-0.565,0.481-1.189,0.734-1.781c0.219-0.606,0.348-1.24,0.531-1.858l0.303-1.816
						l0.051-1.075l0.025-0.538l0.014-0.269l0.006-0.135c-0.006,0.19-0.003,0.035-0.004,0.07l-0.002-0.031l-0.004-0.06
						c0.002-2.593-0.623-5.172-1.766-7.469c-1.148-2.292-2.721-4.355-4.607-5.983c-1.885-1.624-3.988-2.896-6.143-3.761
						c-0.547-0.19-1.068-0.444-1.619-0.581c-0.545-0.155-1.082-0.308-1.611-0.458c-1.051-0.199-2.051-0.446-3.162-0.509
						c-0.268-0.027-0.533-0.053-0.795-0.078l-0.197-0.02c0.021-0.004-0.107-0.007-0.152-0.012l-0.389-0.021
						c-0.516-0.031-1.019-0.062-1.51-0.091c-0.98-0.069-1.911-0.134-2.786-0.195c-1.749-0.114-3.274-0.251-4.53-0.355
						c-1.256-0.097-2.242-0.214-2.914-0.276C219.458,104.106,219.101,104.069,219.101,104.069z"/>
				</g>
				<path fill="#BCE6FA" d="M236.338,89.54c0,0.968-0.015,17.432-0.044,18.394c-1.529,49.268-41.955,89.819-91.595,89.819
					c-49.95,0-90.206-41.045-91.253-90.745c-0.014-0.655-0.021-16.812-0.021-17.468H236.338z"/>
				<path fill="#3B96D2" d="M110.259,89.843h33.367l92.714-2.479c0,0.976-0.016,19.383-0.045,20.351
					c-1.54,49.626-41.599,90.038-91.597,90.038c-12.225,0-23.896-2.377-34.573-6.694"/>
				<ellipse fill="#BCE6FA" cx="144.733" cy="91.669" rx="91.612" ry="26.901"/>
				<ellipse fill="#218ECD" cx="144.732" cy="88.021" rx="91.612" ry="26.902"/>
				<ellipse fill="#3B96D2" cx="144.125" cy="88.021" rx="91.612" ry="26.901"/>
				<path fill="#7F563B" d="M219.237,103.61c0,0-22.663,11.401-73.039,11.401c-49.768,0-73.019-10.125-73.019-10.125
					s32.695-11.365,73.029-11.365C186.54,93.521,219.237,103.61,219.237,103.61z"/>
				<path fill="#BCE6FA" d="M150.273,93.518c37.259,0.542,67.189,9.376,69.333,10.023c10.479-4.373,16.633-9.705,16.633-15.459
					c0-14.346-38.241-26.068-86.423-26.857"/>
			</g>
		</g>
		<g>
			<ellipse fill="#364754" cx="230.701" cy="222.521" rx="31.243" ry="12.666"/>
			<path fill="#FFFFFF" d="M226.761,149.661c-0.311,0-0.563-0.251-0.563-0.563c0-2.402-1.956-4.357-4.358-4.357
				c-0.312,0-0.563-0.252-0.563-0.563c0-0.312,0.252-0.563,0.563-0.563c3.024,0,5.483,2.46,5.483,5.483
				C227.323,149.41,227.071,149.661,226.761,149.661z"/>
			<path fill="#3B96D2" d="M197.32,225.597"/>
			<g>
				<g>
					<polygon fill="#FFFFFF" points="245.338,225.983 196.747,225.983 190.268,188.65 251.817,188.65 					"/>
					<ellipse fill="#FFFFFF" cx="220.99" cy="225.628" rx="24.348" ry="7.414"/>
				</g>
			</g>
			<path fill="#3B96D2" d="M210.265,232.278c3.396,0.547,7.271,0.857,11.383,0.857c13.053,0,23.676-3.13,24.289-7.06h0.059
				l6.479-37.332h-42.039"/>
			<ellipse fill="#3B96D2" cx="221.413" cy="188.814" rx="31.103" ry="9.219"/>
			<path fill="#FFFFFF" d="M245.624,192.824h-47.287c-4.975,0-9.008-4.032-9.008-9.006c0-4.976,4.033-9.008,9.008-9.008h47.287
				c4.975,0,9.008,4.032,9.008,9.008C254.632,188.792,250.599,192.824,245.624,192.824z"/>
			<path fill="#FFFFFF" d="M245.035,181.003h-46.108c-4.975,0-9.008-4.033-9.008-9.008s4.033-9.006,9.008-9.006h46.108
				c4.975,0,9.007,4.031,9.007,9.006S250.01,181.003,245.035,181.003z"/>
			<path fill="#FFFFFF" d="M237.603,171.292h-31.244c-4.975,0-9.006-4.033-9.006-9.008s4.031-9.007,9.006-9.007h31.244
				c4.975,0,9.008,4.032,9.008,9.007S242.577,171.292,237.603,171.292z"/>
			<ellipse fill="#FFFFFF" cx="221.788" cy="160.575" rx="24.207" ry="13.25"/>
			<path fill="#3B96D2" d="M246.698,161.561c0,7.317-10.838,13.25-24.207,13.25c0,0,9.221-1.977,14.568-4.598
				C245.197,166.227,246.698,161.561,246.698,161.561z"/>
			<circle fill="#F16E70" cx="221.98" cy="146.758" r="8.632"/>
			<ellipse fill="#FFFFFF" cx="221.976" cy="187.337" rx="30.963" ry="9.43"/>
			
				<rect x="193.078" y="184.38" transform="matrix(0.6531 0.7572 -0.7572 0.6531 208.3202 -84.8975)" fill="#F16E70" width="7.504" height="1.126"/>
			<path fill="#3B96D2" d="M254.017,172.538c0,7.317-10.838,13.25-24.207,13.25c0,0,9.221-1.977,14.568-4.598
				C252.516,177.204,254.017,172.538,254.017,172.538z"/>
			
				<rect x="196.925" y="168.526" transform="matrix(0.7572 0.6532 -0.6532 0.7572 160.4903 -87.1682)" fill="#F16E70" width="1.127" height="7.505"/>
			
				<rect x="203.117" y="158.673" transform="matrix(0.653 0.7574 -0.7574 0.653 192.383 -101.4194)" fill="#F16E70" width="7.504" height="1.124"/>
			
				<rect x="219.537" y="163.738" transform="matrix(0.6531 0.7572 -0.7572 0.6531 201.8668 -112.0934)" fill="#F16E70" width="7.504" height="1.126"/>
			
				<rect x="233.852" y="157.144" transform="matrix(0.6531 0.7573 -0.7573 0.6531 201.8591 -125.2244)" fill="#F16E70" width="7.506" height="1.126"/>
			
				<rect x="228.355" y="187.009" transform="matrix(0.7569 0.6536 -0.6536 0.7569 180.3354 -103.2337)" fill="#F16E70" width="1.125" height="7.504"/>
			
				<rect x="209.028" y="189.634" transform="matrix(0.6531 0.7573 -0.7573 0.6531 217.8519 -95.1537)" fill="#F16E70" width="7.506" height="1.127"/>
			
				<rect x="210.482" y="174.951" transform="matrix(0.7576 0.6527 -0.6527 0.7576 167.7997 -94.4352)" fill="#F16E70" width="1.127" height="7.506"/>
			
				<rect x="231.734" y="176.031" transform="matrix(0.758 0.6522 -0.6522 0.758 173.4673 -108.0062)" fill="#F16E70" width="1.126" height="7.506"/>
		</g>
	</g>
	<path fill="#FFFFFF" d="M199.167,48.856h-26.734c-0.873,0-1.711-0.128-2.504-0.368c-3.574-1.078-6.181-4.389-6.181-8.314
		c0-3.597,2.188-6.684,5.304-7.999h0.877h2.573c1.198,0,2.339-0.242,3.378-0.682c3.117-1.318,5.305-4.402,5.305-8.001
		c0-4.794-3.889-8.681-8.683-8.681h-30.145c-4.793,0-8.68,3.887-8.68,8.681c0,3.599,2.187,6.683,5.303,8.001
		c1.039,0.439,2.181,0.682,3.377,0.682h0.68h5.547c3.116,1.315,5.306,4.402,5.306,7.999c0,4.797-3.889,8.682-8.685,8.682h-2.168
		h-11.658c-4.795,0-8.684,3.887-8.684,8.685c0,3.808,2.461,7.038,5.876,8.207c0.882,0.301,1.822,0.471,2.808,0.471h0.268
		c0.198,0.067,0.396,0.137,0.589,0.218c3.106,1.323,5.285,4.402,5.285,7.992c0,3.588-2.179,6.67-5.285,7.99
		c-0.214,0.091-0.432,0.167-0.654,0.242h-12.886c-0.96,0-1.882,0.163-2.745,0.45c-3.448,1.149-5.936,4.396-5.936,8.231
		c0,4.795,3.885,8.68,8.681,8.68h19.658c0.482,0,0.95,0.049,1.41,0.127c4.123,0.675,7.272,4.242,7.272,8.556
		c0,2.338-0.908,4.754-2.459,6.305c0,0,4.656,0.15,9.25,0.01c6.343-0.194,8.512-0.208,8.437-0.286c-1-1.05-2.141-3.833-2.141-6.028
		c0-4.796,3.886-8.684,8.682-8.684h1.547h0.77v-0.039c4.434-0.386,7.912-4.107,7.912-8.641c0-3.835-2.49-7.082-5.939-8.231
		c-0.862-0.287-1.781-0.45-2.742-0.45h-4.008h-9.797c-3.448-1.149-5.937-4.399-5.937-8.232c0-3.813,2.458-7.042,5.874-8.21h9.86
		h32.824c0.984,0,1.926-0.17,2.809-0.471c3.416-1.168,5.873-4.398,5.873-8.207C207.849,52.743,203.962,48.856,199.167,48.856z"/>
</g>
</svg>
