<?xml version="1.0" encoding="utf-8"?>
<!-- Generator: Adobe Illustrator 16.0.0, SVG Export Plug-In . SVG Version: 6.00 Build 0)  -->
<!DOCTYPE svg PUBLIC "-//W3C//DTD SVG 1.1//EN" "http://www.w3.org/Graphics/SVG/1.1/DTD/svg11.dtd">
<svg version="1.1" id="Layer_1" xmlns="http://www.w3.org/2000/svg" xmlns:xlink="http://www.w3.org/1999/xlink" x="0px" y="0px"
	 width="320px" height="250px" viewBox="0 0 320 250" enable-background="new 0 0 320 250" xml:space="preserve">
<g>
	<ellipse fill="#141035" cx="31.669" cy="236.646" rx="17.024" ry="4.787"/>
	<ellipse fill="#141035" cx="255.499" cy="235.9" rx="37.624" ry="10.582"/>
	<ellipse fill="#141035" cx="119.798" cy="234.98" rx="18.791" ry="5.285"/>
	<ellipse fill="#141035" cx="254.784" cy="117.651" rx="42.406" ry="11.417"/>
	<circle fill="#482F91" cx="231.429" cy="74.7" r="33.307"/>
	<path fill="none" stroke="#482F91" stroke-width="2.5" stroke-miterlimit="10" d="M222.064,26.139v-1.713
		c0-4.89,3.965-8.854,8.853-8.854h3.444c4.888,0,8.853,3.963,8.853,8.854v1.713"/>
	<path fill="none" stroke="#FFFFFF" stroke-width="2" stroke-miterlimit="10" d="M221.881,26.139v-1.713
		c0-4.89,3.965-8.854,8.854-8.854"/>
	<path fill="#FFFFFF" d="M213.092,102.507c-9.02-5.959-14.97-16.188-14.97-27.807c0-11.496,5.825-21.633,14.685-27.618"/>
	<path fill="#482F91" d="M209.063,51.118c0,0,1.965-19.853,7.294-23.339c6.562-4.291,24.798-4.291,31.361,0
		c5.328,3.486,7.292,23.339,7.292,23.339"/>
	<path fill="#312B72" d="M244.425,234.381c0,1.725-1.397,3.119-3.118,3.119h-20.246c-1.722,0-3.118-1.395-3.118-3.119v-62.572
		v-53.923c0-1.722,1.396-3.118,3.118-3.118h20.246c1.721,0,3.118,1.396,3.118,3.118v25.179v28.717V234.381z"/>
	<rect x="205.172" y="86.044" fill="#312B72" width="7.943" height="30.146"/>
	<rect x="249.985" y="86.044" fill="#312B72" width="7.943" height="30.146"/>
	<polygon fill="#482F91" points="213.682,185.963 204.039,185.963 202.337,134.396 202.337,116.757 213.682,116.757 
		213.682,134.369 	"/>
	<polyline fill="#FFFFFF" points="208.197,185.949 204.024,185.949 202.321,134.379 202.321,116.742 208.197,116.742 	"/>
	<polygon fill="#482F91" points="257.929,185.963 248.285,185.963 248.285,134.369 248.285,116.757 259.631,116.757 
		259.631,134.344 	"/>
	<path fill="#312B72" d="M219.923,44.999v-6.111c0-3.956,3.206-7.165,7.164-7.165h8.36c3.956,0,7.164,3.208,7.164,7.165v6.111"/>
	<rect x="255.577" y="92.026" fill="#312B72" width="17.302" height="3.226"/>
	<path fill="#312B72" d="M285.766,95.274c0,2.687-2.177,4.867-4.864,4.867h-8.991c-2.687,0-4.865-2.18-4.865-4.867v-2.297
		c0-2.688,2.179-4.865,4.865-4.865h8.991c2.688,0,4.864,2.177,4.864,4.865V95.274z"/>
	<rect x="187.802" y="92.026" fill="#312B72" width="17.302" height="3.226"/>
	<path fill="#312B72" d="M194.811,94.92c0,2.687-2.179,4.866-4.863,4.866h-8.99c-2.688,0-4.867-2.18-4.867-4.866v-2.298
		c0-2.688,2.18-4.866,4.867-4.866h8.99c2.685,0,4.863,2.177,4.863,4.866V94.92z"/>
	<path fill="#FFFFFF" d="M186.785,99.786h-6.072c-2.687,0-4.866-2.18-4.866-4.866v-2.298c0-2.688,2.18-4.866,4.866-4.866h6.072"/>
	<path fill="#482F91" d="M249.562,51.168c15.104-4.823,13.26-6.596,28.646-6.596c14.472,0,35.313,0,35.313,0v6.808
		c0,0-35.207,0.106-41.801,0.106c-5.204,0-19.782,6.488-19.782,6.488"/>
	<rect x="285.016" y="42.447" fill="#482F91" width="10.422" height="10.635"/>
	<polyline fill="none" stroke="#1E3419" stroke-width="1.5" stroke-miterlimit="10" points="287.871,43.509 287.871,30.107 
		295.317,22.663 	"/>
	<circle fill="#482F91" cx="301.06" cy="15.643" r="12.125"/>
	<path fill="#482F91" d="M212.264,50.317c-15.102-4.821-13.26-6.595-28.645-6.595c-14.474,0-35.313,0-35.313,0v6.808
		c0,0,35.205,0.106,41.8,0.106c5.204,0,19.783,6.488,19.783,6.488"/>
	<path fill="#FFFFFF" d="M183.619,43.722c-14.474,0-35.313,0-35.313,0v6.808c0,0,22.912,0.069,35.231,0.096"/>
	<rect x="166.386" y="41.596" fill="#482F91" width="10.425" height="10.636"/>
	<polyline fill="none" stroke="#1E3419" stroke-width="1.5" stroke-miterlimit="10" points="173.954,44.118 173.954,30.717 
		166.509,23.271 	"/>
	<circle fill="#482F91" cx="160.765" cy="16.251" r="12.125"/>
	<g>
		<g>
			<g>
				<defs>
					<polygon id="SVGID_1_" points="289.27,167.846 289.27,133.066 298.629,143.914 298.629,157.176 					"/>
				</defs>
				<clipPath id="SVGID_2_">
					<use xlink:href="#SVGID_1_"  overflow="visible"/>
				</clipPath>
			</g>
		</g>
		<g>
			<rect x="261.19" y="133.066" fill="#312B72" width="2.553" height="34.887"/>
			<g>
				<rect x="265.799" y="133.066" fill="#312B72" width="2.555" height="34.887"/>
				<rect x="270.395" y="133.066" fill="#312B72" width="2.554" height="34.887"/>
				<rect x="274.987" y="133.066" fill="#312B72" width="2.556" height="34.887"/>
				<rect x="279.583" y="133.066" fill="#312B72" width="2.554" height="34.887"/>
				<rect x="284.179" y="133.066" fill="#312B72" width="2.555" height="34.887"/>
			</g>
			<g>
				<defs>
					<polygon id="SVGID_3_" points="289.27,167.846 289.27,133.066 298.629,143.914 298.629,157.176 					"/>
				</defs>
				<use xlink:href="#SVGID_3_"  overflow="visible" fill="#312B72"/>
				<clipPath id="SVGID_4_">
					<use xlink:href="#SVGID_3_"  overflow="visible"/>
				</clipPath>
				<g clip-path="url(#SVGID_4_)">
					<rect x="289.451" y="133.209" fill="#312B72" width="9.122" height="2.553"/>
					<rect x="289.451" y="138.561" fill="#312B72" width="9.122" height="2.553"/>
					<rect x="289.451" y="143.914" fill="#312B72" width="9.122" height="2.553"/>
					<rect x="289.451" y="149.27" fill="#312B72" width="9.122" height="2.551"/>
					<rect x="289.451" y="154.623" fill="#312B72" width="9.122" height="2.553"/>
					<rect x="289.451" y="159.977" fill="#312B72" width="9.122" height="2.553"/>
					<rect x="289.451" y="165.33" fill="#312B72" width="9.122" height="2.553"/>
				</g>
			</g>
		</g>
		<g>
			<g>
				<defs>
					<polygon id="SVGID_5_" points="289.27,167.846 289.27,133.066 298.629,143.914 298.629,157.176 					"/>
				</defs>
				<clipPath id="SVGID_6_">
					<use xlink:href="#SVGID_5_"  overflow="visible"/>
				</clipPath>
			</g>
		</g>
	</g>
	<rect x="198.55" y="132.215" fill="#312B72" width="2.552" height="34.889"/>
	<rect x="193.94" y="132.215" fill="#312B72" width="2.553" height="34.889"/>
	<rect x="189.346" y="132.215" fill="#312B72" width="2.553" height="34.889"/>
	<rect x="184.752" y="132.215" fill="#FFFFFF" width="2.551" height="34.889"/>
	<rect x="180.156" y="132.215" fill="#FFFFFF" width="2.552" height="34.889"/>
	<rect x="175.562" y="132.215" fill="#FFFFFF" width="2.552" height="34.889"/>
	<g>
		<g>
			<defs>
				<polygon id="SVGID_7_" points="173.023,166.996 173.023,132.215 163.663,143.064 163.663,156.324 				"/>
			</defs>
			<clipPath id="SVGID_8_">
				<use xlink:href="#SVGID_7_"  overflow="visible"/>
			</clipPath>
		</g>
		<g>
			<defs>
				<polygon id="SVGID_9_" points="173.023,166.996 173.023,132.215 163.663,143.064 163.663,156.324 				"/>
			</defs>
			<use xlink:href="#SVGID_9_"  overflow="visible" fill="#FFFFFF"/>
			<clipPath id="SVGID_10_">
				<use xlink:href="#SVGID_9_"  overflow="visible"/>
			</clipPath>
			<g clip-path="url(#SVGID_10_)">
				<rect x="163.719" y="132.357" fill="#FFFFFF" width="9.125" height="2.551"/>
				<rect x="163.719" y="137.711" fill="#FFFFFF" width="9.125" height="2.553"/>
				<rect x="163.719" y="143.064" fill="#FFFFFF" width="9.125" height="2.553"/>
				<rect x="163.719" y="148.418" fill="#FFFFFF" width="9.125" height="2.551"/>
				<rect x="163.719" y="153.771" fill="#FFFFFF" width="9.125" height="2.553"/>
				<rect x="163.719" y="159.125" fill="#FFFFFF" width="9.125" height="2.553"/>
				<rect x="163.719" y="164.479" fill="#FFFFFF" width="9.125" height="2.553"/>
			</g>
		</g>
		<g>
			<defs>
				<polygon id="SVGID_11_" points="173.023,166.996 173.023,132.215 163.663,143.064 163.663,156.324 				"/>
			</defs>
			<clipPath id="SVGID_12_">
				<use xlink:href="#SVGID_11_"  overflow="visible"/>
			</clipPath>
		</g>
	</g>
	<rect x="157.605" y="174.053" fill="#482F91" width="60.614" height="7.939"/>
	<rect x="43.438" y="170.58" fill="#482F91" width="17.141" height="12.143"/>
	<circle fill="#FFFFFF" cx="231.268" cy="62.301" r="21.131"/>
	<circle fill="#312B72" cx="231.268" cy="62.301" r="17.727"/>
	<path fill="#FFFFFF" d="M251.824,132.393v-18.939c0-10.707-8.059-19.39-18-19.39h-6.001c-9.941,0-17.999,8.683-17.999,19.39v18.939
		H251.824z"/>
	<g>
		<circle fill="#FFFFFF" cx="231.551" cy="62.18" r="15.054"/>
		<circle fill="#312B72" cx="231.552" cy="62.18" r="2.734"/>
	</g>
	<path fill="#312B72" d="M37.949,234.826c0,1.477-1.199,2.674-2.676,2.674H17.92c-1.476,0-2.674-1.197-2.674-2.674v-62.385v-46.219
		c0-1.476,1.198-2.672,2.674-2.672h17.353c1.477,0,2.676,1.196,2.676,2.672v21.582v24.613V234.826z"/>
	<path fill="#482F91" d="M45.258,209.857v-79.164c0-9.179-7.439-16.62-16.62-16.62h-5.541c-9.177,0-16.618,7.441-16.618,16.62
		v79.164H45.258z"/>
	<path fill="#FFFFFF" d="M16.913,115.263c-6.116,2.456-10.433,8.44-10.433,15.431v79.164h10.285"/>
	<path fill="none" stroke="#482F91" stroke-width="2.5" stroke-miterlimit="10" d="M86.226,150.855v-48.85
		c0-10.792,8.747-19.539,19.538-19.539h7.602c10.79,0,19.538,8.748,19.538,19.539v48.85"/>
	<path fill="#482F91" d="M158.308,170.354c0,30.277-22.071,41.004-49.295,41.004s-49.294-10.727-49.294-41.004
		s22.07-54.823,49.294-54.823S158.308,140.076,158.308,170.354z"/>
	<path fill="#FFFFFF" d="M93.077,210.023c-19.658-3.686-33.847-15.393-33.847-39.67c0-24.316,14.237-44.935,33.943-52.112"/>
	<path fill="#FFFFFF" d="M133.89,168.971c0,0-6.679,4.607-24.646,4.607c-21.192,0-25.108-4.607-25.108-4.607v-41.463
		c0,0,9.674-8.291,24.646-8.291c17.046,0,25.108,8.291,25.108,8.291V168.971z"/>
	<path fill="#482F91" d="M132.969,167.752c0,0-6.351,4.291-23.43,4.291c-20.146,0-23.869-4.291-23.869-4.291v-39.58
		c0,0,9.197-7.727,23.43-7.727c16.206,0,23.869,7.727,23.869,7.727V167.752z"/>
	<path fill="#FFFFFF" d="M93.011,122.774c4.015-1.773,9.515-3.423,16.088-3.423c16.206,0,23.869,7.727,23.869,7.727v39.578
		c0,0-6.351,4.293-23.43,4.293c-7.556,0-12.801-0.604-16.406-1.357"/>
	<path fill="#141035" d="M85.671,168.592v-10.803c0,0,7.603-2.133,22.957-2.133c19.348,0,24.341,2.133,24.341,2.133v10.803
		c0,0-7.602,3.766-24.493,3.766C91.889,172.357,85.671,168.592,85.671,168.592z"/>
</g>
</svg>
