<?xml version="1.0" encoding="utf-8"?>
<!-- Generator: Adobe Illustrator 16.0.0, SVG Export Plug-In . SVG Version: 6.00 Build 0)  -->
<!DOCTYPE svg PUBLIC "-//W3C//DTD SVG 1.1//EN" "http://www.w3.org/Graphics/SVG/1.1/DTD/svg11.dtd">
<svg version="1.1" id="Layer_1" xmlns="http://www.w3.org/2000/svg" xmlns:xlink="http://www.w3.org/1999/xlink" x="0px" y="0px"
	 width="320px" height="250px" viewBox="0 0 320 250" enable-background="new 0 0 320 250" xml:space="preserve">
<g>
	<g>
		<g>
			<ellipse fill="#4B191E" cx="273.806" cy="204.888" rx="43.084" ry="9.231"/>
			<g>
				<g>
					<rect x="247.76" y="41.193" fill="#E8AD21" width="31.927" height="14.244"/>
					<path fill="#E8AD21" d="M281.896,45c0,0.949-0.73,1.72-1.632,1.72h-33.575c-0.899,0-1.631-0.771-1.631-1.72l0,0
						c0-0.95,0.731-1.719,1.631-1.719h33.575C281.166,43.281,281.896,44.05,281.896,45L281.896,45z"/>
				</g>
				<path fill="#F5E5C4" d="M281.65,43.65c0,0-3.962,2.271-18.167,2.271c-14.771,0-18.18-2.271-18.18-2.271V29.405h36.347V43.65z"/>
				<path fill="#BF3B41" d="M299.824,152.2L282.141,49.543c0,0-8.146,2.272-18.089,2.272c-16.476,0-18.748-2.272-18.748-2.272
					L224.828,152.2l3.698,46.181c-0.048,0.226-0.077,0.453-0.077,0.683c0,5.805,14.923,10.511,33.331,10.511
					s33.33-4.706,33.33-10.511c0-0.249-0.036-0.495-0.09-0.74L299.824,152.2z"/>
				<path fill="#FFF5E9" d="M263.842,152.2h36.551l-4.805,46.123c0.055,0.245,0.091,0.491,0.091,0.74
					c0,5.805-14.922,10.511-33.33,10.511"/>
				<path fill="#FFF5E9" d="M229.095,198.381"/>
				<ellipse fill="#E8AD21" cx="263.675" cy="29.661" rx="17.976" ry="2.462"/>
				<polygon fill="#F5E5C4" points="269.371,30.142 257.338,30.142 260.285,13.934 266.425,13.934 				"/>
				<path fill="#FFF5E9" d="M264.052,51.815c0,0-7.168-0.157-9.942-0.329c-3.835-0.236-8.854-1.846-8.854-1.846l-20.028,101.415
					l38.614,1.521L264.052,51.815z"/>
			</g>
		</g>
		<g>
			<polygon fill-rule="evenodd" clip-rule="evenodd" fill="#BF3B41" points="251.478,111.542 278.113,111.542 284.51,117.938 
				264.468,138.386 244.983,117.396 251.478,111.542 			"/>
			<path fill-rule="evenodd" clip-rule="evenodd" fill="#FBB450" d="M252.498,114.684l-3.407,3.358l2.137,2.315
				c-0.437-1.982,0.484-4.425,2.947-5.563L252.498,114.684L252.498,114.684z"/>
			<path fill-rule="evenodd" clip-rule="evenodd" fill="#FBB450" d="M260.925,130.492l3.752,3.657l3.337-3.421
				C266.023,131.479,263.54,131.138,260.925,130.492L260.925,130.492z"/>
			<path fill-rule="evenodd" clip-rule="evenodd" fill="#FBB450" d="M257.748,127.136l-2.247-2.317
				c2.899,0.59,6.29,0.826,10.272,0.638c6.534,0.369,7,2.858,0.868,3.128c-1.485-0.054-2.964-0.27-4.448-0.638
				C261.542,125.956,259.31,125.859,257.748,127.136L257.748,127.136z"/>
			<path fill-rule="evenodd" clip-rule="evenodd" fill="#FBB450" d="M278.003,118.624h-5.369v-0.929
				c-2.337-2.311-6.833-3.621-11.417-2.435c-3.606,1.352-3.692,3.884,0.348,4.576c2.594,0.368,5.415,0.348,8.476-0.055
				c2.961-0.507,5.576,0.542,6.117,2.429l4.329-4.461l-2.428-2.082L278.003,118.624L278.003,118.624z"/>
			<path fill-rule="evenodd" clip-rule="evenodd" fill="#FFF100" d="M273.383,114.795h0.666c-0.146,0.215-0.243,0.466-0.319,0.7
				C273.668,115.231,273.548,114.996,273.383,114.795L273.383,114.795z"/>
		</g>
	</g>
	<ellipse fill="#4B191E" cx="131.218" cy="210.38" rx="89.199" ry="11.998"/>
	<path fill="#FFFFFF" d="M215.298,200.519c0,4.94-41.463,12.69-61.107,12.69c-0.58,0-1.164,1.643-1.747,1.656
		c-7.927,0.191-33.929,0.294-42.438,0.294c-8.413,0-36.739-0.102-44.582-0.287c-0.677-0.018-1.353-1.664-2.027-1.664
		c-19.12,0-58.684-7.751-58.684-12.689c0-5.858,47.141-10.608,105.293-10.608C168.157,189.91,215.298,194.66,215.298,200.519z"/>
	<g>
		
			<polyline fill="none" stroke="#FBB450" stroke-width="7" stroke-linecap="round" stroke-linejoin="round" stroke-miterlimit="10" points="
			179.13,148.061 187.458,148.061 193.215,160.663 		"/>
		
			<polyline fill="none" stroke="#FBB450" stroke-width="7" stroke-linecap="round" stroke-linejoin="round" stroke-miterlimit="10" points="
			45.032,148.061 36.704,148.061 30.948,160.663 		"/>
		<path fill="#4AC0BC" d="M71.759,200.714"/>
		<path fill="#4AC0BC" d="M71.759,200.714"/>
		<path fill="#FBB450" d="M187.458,193.594c0,3.501-2.837,6.339-6.339,6.339H42.734c-3.501,0-6.339-2.838-6.339-6.339v-13.288
			c0-3.501,2.838-6.339,6.339-6.339h138.385c3.502,0,6.339,2.838,6.339,6.339V193.594z"/>
		<path fill="#AB7648" d="M191.155,161.516c0,6.148-4.983,11.132-11.132,11.132H43.425c-6.147,0-11.131-4.983-11.131-11.132v-0.746
			c0-6.146,4.983-11.131,11.131-11.131h136.599c6.148,0,11.132,4.984,11.132,11.131V161.516z"/>
		<rect x="39.565" y="141.459" fill="#75A040" width="145.252" height="3.696"/>
		<rect x="39.302" y="146.211" fill="#FBB450" width="145.251" height="3.698"/>
		<rect x="39.565" y="136.705" fill="#F1634D" width="145.252" height="3.696"/>
		<polyline fill="#FBB450" points="134.058,148.7 111.961,160.663 89.864,148.7 		"/>
		<g>
			<path fill="#FBB450" d="M183.191,133.965c0.438-0.627,0.609-1.162,0.542-2.178c-1.942-29.663-35.575-53.225-72.219-53.225
				c-36.096,0-70.963,22.861-73.697,51.896c-0.138,1.451,0.223,2.333,0.585,3.122c0.484,1.056,2.2,1.276,2.2,1.276h140.851
				C181.453,134.856,182.434,135.055,183.191,133.965z"/>
			<g>
				<circle fill="#FFF5E9" cx="44.433" cy="130.01" r="1.498"/>
				<circle fill="#FFF5E9" cx="63.386" cy="130.01" r="1.498"/>
				<circle fill="#FFF5E9" cx="82.339" cy="130.01" r="1.498"/>
				<circle fill="#FFF5E9" cx="101.292" cy="130.01" r="1.498"/>
				<circle fill="#FFF5E9" cx="120.244" cy="130.01" r="1.498"/>
				<circle fill="#FFF5E9" cx="139.196" cy="130.01" r="1.498"/>
				<circle fill="#FFF5E9" cx="158.149" cy="130.01" r="1.498"/>
				<circle fill="#FFF5E9" cx="177.101" cy="130.01" r="1.498"/>
			</g>
			<g>
				<circle fill="#FFF5E9" cx="63.3" cy="106.188" r="1.498"/>
				<circle fill="#FFF5E9" cx="82.253" cy="106.188" r="1.498"/>
				<circle fill="#FFF5E9" cx="101.205" cy="106.188" r="1.498"/>
				<circle fill="#FFF5E9" cx="120.157" cy="106.188" r="1.498"/>
				<circle fill="#FFF5E9" cx="139.11" cy="106.188" r="1.498"/>
				<circle fill="#FFF5E9" cx="158.063" cy="106.188" r="1.498"/>
			</g>
			<g>
				<circle fill="#FFF5E9" cx="74.36" cy="94.637" r="1.498"/>
				<circle fill="#FFF5E9" cx="93.313" cy="94.637" r="1.498"/>
				<circle fill="#FFF5E9" cx="112.266" cy="94.637" r="1.498"/>
				<circle fill="#FFF5E9" cx="131.218" cy="94.637" r="1.498"/>
				<circle fill="#FFF5E9" cx="150.171" cy="94.637" r="1.498"/>
			</g>
			<g>
				<circle fill="#FFF5E9" cx="101.205" cy="82.174" r="1.498"/>
				<circle fill="#FFF5E9" cx="120.157" cy="82.174" r="1.498"/>
			</g>
			<circle fill="#FFF5E9" cx="53.823" cy="118.277" r="1.498"/>
			<circle fill="#FFF5E9" cx="72.774" cy="118.277" r="1.498"/>
			<path fill="#FFF5E9" d="M93.227,118.277c0,0.828-0.669,1.498-1.499,1.498c-0.827,0-1.496-0.67-1.496-1.498
				c0-0.827,0.669-1.498,1.496-1.498C92.558,116.779,93.227,117.45,93.227,118.277z"/>
			<circle fill="#FFF5E9" cx="110.681" cy="118.277" r="1.498"/>
			<circle fill="#FFF5E9" cx="129.633" cy="118.277" r="1.498"/>
			<circle fill="#FFF5E9" cx="148.585" cy="118.277" r="1.498"/>
			<circle fill="#FFF5E9" cx="167.539" cy="118.277" r="1.498"/>
		</g>
	</g>
</g>
</svg>
