<?xml version="1.0" standalone="no"?>
<!DOCTYPE svg PUBLIC "-//W3C//DTD SVG 1.1//EN" "http://www.w3.org/Graphics/SVG/1.1/DTD/svg11.dtd" >
<svg>
<metadata>
Created by FontForge 20090914 at Wed Jul 30 07:25:30 2014
 By www-data
Converted by ALLTYPE
</metadata>
<defs>
<font id="Clarendon" horiz-adv-x="278" >
  <font-face 
    font-family="Clarendon"
    font-weight="5"
    font-stretch="normal"
    units-per-em="1000"
    panose-1="0 0 0 0 0 0 0 0 0 0"
    ascent="800"
    descent="-200"
    x-height="476.999"
    cap-height="667"
    bbox="-160 -216.005 1059 896.999"
    underline-thickness="50"
    underline-position="-55"
    unicode-range="U+0020-U+F002"
  />
<missing-glyph 
 />
    <glyph glyph-name=".notdef" 
 />
    <glyph glyph-name="space" unicode=" " 
 />
    <glyph glyph-name="space" unicode="&#xa0;" 
 />
    <glyph glyph-name="exclam" unicode="!" horiz-adv-x="285" 
d="M144 163c23.333 -0.666992 43.333 -9.33301 60 -26s25 -36.667 25 -60s-8.33301 -43.166 -25 -59.499s-36.667 -24.5 -60 -24.5s-43.333 8.16699 -60 24.5s-25 36.166 -25 59.499s8.33301 43.333 25 60s36.667 25 60 25v1zM179 205.001l-71.001 -0.000976562l-49 351
l-2 19.5c-0.666992 6.33301 -1 12.166 -1 17.499c0 28.667 8.16699 51.5 24.5 68.5s37.833 25.5 64.5 25.5c25.333 0 45.333 -8.16699 60 -24.5s22 -39.166 22 -68.499c0 -6 -0.166992 -12.167 -0.5 -18.5s-1.16602 -13.166 -2.49902 -20.499l-45 -350v0z" />
    <glyph glyph-name="quotedbl" unicode="&#x22;" horiz-adv-x="424" 
d="M166 399h-96l-24 268h144l-24 -268v0zM353 399h-95l-24 268h144l-25 -268v0z" />
    <glyph glyph-name="numbersign" unicode="#" horiz-adv-x="600" 
d="M576 299l-18 -117h-101l-29 -182h-134l30 182h-85l-29 -182h-132l29 182h-101l18 117h101l13 83h-100l18 116h100l28 169h131l-27 -169h85l27 169h133l-27 -169h100l-18 -116h-100l-13 -83h101v0zM355 382h-85l-13 -83h85l13 83v0z" />
    <glyph glyph-name="dollar" unicode="$" horiz-adv-x="571" 
d="M316 741l-0.00292969 -79.999c60 -2.66699 107 -17.667 141 -45s51 -64 51 -110c0 -22.667 -7.33301 -41.834 -22 -57.501s-32.667 -23.5 -54 -23.5c-22 0 -39.833 6.5 -53.5 19.5s-20.5 29.833 -20.5 50.5c0 13.333 3 25 9 35s16.333 19.333 31 28
c-15.333 9.33301 -31.5 16.333 -48.5 21s-36.167 7 -57.5 7c-41.333 0 -73.666 -8 -96.999 -24s-35 -38 -35 -66c0 -30.667 13.5 -52.334 40.5 -65.001s58.833 -23.334 95.5 -32.001l23 -6l24 -6c46 -12 88 -30.5 126 -55.5s57 -69.5 57 -133.5
c0 -56 -18.667 -102.167 -56 -138.5s-88.666 -58.5 -153.999 -66.5v-98h-72v98c-58.667 0 -106.834 14.5 -144.501 43.5s-56.5 66.5 -56.5 112.5c0 24 8.16699 44.333 24.5 61s36.5 25 60.5 25c20.667 0 37.334 -7 50.001 -21s19 -31.667 19 -53
c0 -14.667 -3.66699 -26.667 -11 -36s-19.666 -18.333 -36.999 -27c14 -10.667 29 -18.334 45 -23.001s37.333 -7 64 -7c46 0 81 8 105 24s36 39.333 36 70c0 28.667 -12.667 48.834 -38 60.501s-55 21.834 -89 30.501l-25 6l-25 6c-44 12 -84.5 30.5 -121.5 55.5
s-55.5 69.5 -55.5 133.5c0 57.333 17.5 103.833 52.5 139.5s83.833 57.834 146.5 66.501v81h72v0z" />
    <glyph glyph-name="percent" unicode="%" horiz-adv-x="729" 
d="M453 168c0 44.667 7 84.167 21 118.5s48.333 51.5 103 51.5c41.333 0 71.5 -13.5 90.5 -40.5s28.5 -70.5 28.5 -130.5v-1.5v-1.5c0 -42.667 -6.16699 -81.5 -18.5 -116.5s-47.166 -52.5 -104.499 -52.5c-52.667 0 -85.834 17.5 -99.501 52.5s-20.5 73.833 -20.5 116.5
v1.5v1.5v1zM538 169l1 -63.001c0.666992 -20 4 -35.333 10 -46s14 -16 24 -16c12 0 21 5 27 15s9.33301 24.333 10 43v74c0 46.667 -2.33301 77.834 -7 93.501s-14.667 23.5 -30 23.5c-11.333 0 -19.833 -4.83301 -25.5 -14.5s-8.5 -24.167 -8.5 -43.5l-1 -66v0z
M517 666.999h67l-369 -667h-67l369 667v0zM33 500.999c0 44.667 7.16699 84.168 21.5 118.501s48.5 51.5 102.5 51.5c41.333 0 71.5 -13.5 90.5 -40.5s28.5 -70.5 28.5 -130.5c0 -44 -6.5 -83.833 -19.5 -119.5s-47.5 -53.5 -103.5 -53.5c-51.333 0 -84 17.167 -98 51.5
s-21.333 72.166 -22 113.499v4v4v1zM118 502l2 -63c0.666992 -19.333 3.83398 -34.5 9.50098 -45.5s13.834 -16.5 24.501 -16.5c11.333 0 20 5 26 15s9.33301 24.667 10 44v73c0 47.333 -2.33301 78.666 -7 93.999s-14.667 23 -30 23
c-10.667 0 -18.834 -4.66699 -24.501 -14s-8.83398 -23.666 -9.50098 -42.999l-1 -67v0z" />
    <glyph glyph-name="ampersand" unicode="&#x26;" horiz-adv-x="824" 
d="M484 410l287.996 -0.000976562v-82h-21c-16.667 -0.666992 -30 -2.16699 -40 -4.5s-19.333 -7.5 -28 -15.5c-6.66699 -6.66699 -13.667 -15.667 -21 -27s-16 -26 -26 -44c-5.33301 -10 -10.666 -19.167 -15.999 -27.5l-15 -24.5c-5.33301 -8 -11 -15.667 -17 -23l-18 -21
c-2 -2 -3.83301 -4 -5.5 -6s-3.5 -4 -5.5 -6c11.333 -12.667 23.5 -22 36.5 -28s26.5 -9 40.5 -9c21.333 0 37 9.33301 47 28s15 47.667 15 87v26h86l-1 -13v-9v-8c-1.33301 -52.667 -12.666 -100.667 -33.999 -144s-64.666 -65 -129.999 -65
c-30.667 0 -59.167 4.33301 -85.5 13s-50.166 22 -71.499 40c-26.667 -20 -55.667 -34.5 -87 -43.5s-67.666 -13.5 -108.999 -13.5c-66.667 0 -122.167 18.5 -166.5 55.5s-66.5 83.167 -66.5 138.5c0 50.667 17 91 51 121s72 54 114 72c-10 18.667 -18 35.834 -24 51.501
s-10.333 31.167 -13 46.5c-0.666992 5.33301 -1.16699 10.666 -1.5 15.999s-0.5 10.666 -0.5 15.999c0 44 16.833 80.333 50.5 109s76.167 43 127.5 43c43.333 0 78.833 -13.333 106.5 -40s41.5 -61 41.5 -103c0 -30.667 -10.333 -58.5 -31 -83.5
s-52.334 -48.167 -95.001 -69.5c20.667 -31.333 42.5 -62.333 65.5 -93s48.167 -59 75.5 -85c3.33301 4 6.5 8.16699 9.5 12.5l9.5 13.5c10.667 16.667 19.167 32.834 25.5 48.501s9.5 28.834 9.5 39.501s-3.33301 18 -10 22s-18.667 6 -36 6l-24 1v82v0zM234.996 310.999
c-20.667 -11.333 -36.167 -24.833 -46.5 -40.5s-15.5 -34.167 -15.5 -55.5c0 -36.667 14.333 -69.167 43 -97.5s61.334 -42.5 98.001 -42.5c17.333 0 32.666 2.33301 45.999 7s26 12 38 22c-31.333 30.667 -60.333 63.5 -87 98.5s-52 70.833 -76 107.5v1zM316.996 423.999
c26.667 14 46 28.833 58 44.5s18 33.5 18 53.5s-5.16699 35.833 -15.5 47.5s-24.5 17.5 -42.5 17.5c-16.667 0 -30.5 -5.5 -41.5 -16.5s-16.5 -24.833 -16.5 -41.5c0 -4 0.166992 -8 0.5 -12s0.833008 -8 1.5 -12c2 -12 6 -24.167 12 -36.5s14.667 -27.5 26 -45.5v1z" />
    <glyph glyph-name="quotesingle" unicode="'" horiz-adv-x="285" 
d="M190 399h-96l-24 268h144l-24 -268v0z" />
    <glyph glyph-name="parenleft" unicode="(" horiz-adv-x="365" 
d="M345 696l-0.000976562 -78.001c-8.66699 -4.66699 -16.334 -9 -23.001 -13l-19 -11c-10 -7.33301 -18.667 -14.666 -26 -21.999s-14.333 -16 -21 -26c-0.666992 -1.33301 -1.5 -2.66602 -2.5 -3.99902s-1.83301 -2.66602 -2.5 -3.99902
c-16.667 -28 -29.5 -67.333 -38.5 -118s-13.5 -109.334 -13.5 -176.001c0 -119.333 11.167 -208.333 33.5 -267s59.833 -96.667 112.5 -114v-79c-99.333 26.667 -173.666 77.167 -222.999 151.5s-74 173.5 -74 297.5c0 129.333 24.333 231.666 73 306.999
s123.334 127 224.001 155v1z" />
    <glyph glyph-name="parenright" unicode=")" horiz-adv-x="365" 
d="M20 696c101.333 -28.667 176.167 -80.668 224.5 -156.001s72.5 -177.666 72.5 -306.999c0 -124 -24.667 -223.167 -74 -297.5s-123.666 -124.833 -222.999 -151.5v79c52.667 17.333 90.167 55.333 112.5 114s33.5 147.667 33.5 267c0 66.667 -4.5 125.5 -13.5 176.5
s-22.167 90.167 -39.5 117.5c-0.666992 1.33301 -1.5 2.83301 -2.5 4.5s-1.83301 3.16699 -2.5 4.5c-6.66699 10 -13.5 18.667 -20.5 26s-15.833 14.333 -26.5 21l-18 11c-6.66699 4 -14.334 8 -23.001 12v79v0z" />
    <glyph glyph-name="asterisk" unicode="*" horiz-adv-x="461" 
d="M46 535c0 14.667 5.16211 28.0029 15.4951 40.0029s22.166 18 35.499 18c12 0 22.833 -3.5 32.5 -10.5s18.5 -14.5 26.5 -22.5l13.5 -15c4.33301 -4.66699 8.83301 -8.66699 13.5 -12c2.66699 -2 5.5 -3.5 8.5 -4.5s5.83301 -1.5 8.5 -1.5s4.5 0.833008 5.5 2.5
s1.5 4.16699 1.5 7.5v4c0 1.33301 -0.333008 2.66602 -1 3.99902c-1.33301 6 -3.66602 12.333 -6.99902 19s-7 13.334 -11 20.001c-4.66699 8.66699 -9 17.5 -13 26.5s-6 18.5 -6 28.5c0 13.333 5.66699 24.666 17 33.999s25.333 14 42 14c19.333 0 34.333 -4.5 45 -13.5
s16 -21.167 16 -36.5c0 -9.33301 -2 -18.166 -6 -26.499s-8.33301 -16.5 -13 -24.5c0 -0.666992 -0.166992 -1.16699 -0.5 -1.5l-1.5 -1.5c-4 -7.33301 -7.83301 -14.833 -11.5 -22.5s-5.5 -15.834 -5.5 -24.501c0 -4 0.5 -7 1.5 -9s2.83301 -3 5.5 -3h2
c0.666992 0 1.33398 0.333008 2.00098 1c7.33301 1.33301 14.333 5.33301 21 12l22 22c8.66699 8 17.834 15.667 27.501 23s20.5 11 32.5 11c13.333 0 25 -6 35 -18s15 -26.333 15 -43c0 -16 -5.33301 -28.667 -16 -38s-25 -14 -43 -14c-14.667 0 -25.667 0.5 -33 1.5
s-12.666 2.16699 -15.999 3.5c-1.33301 0 -2.5 0.166992 -3.5 0.5s-2.16699 0.833008 -3.5 1.5c-2 0.666992 -4 1.16699 -6 1.5s-5 0.5 -9 0.5c-5.33301 0 -9.5 -0.833008 -12.5 -2.5s-4.5 -4.16699 -4.5 -7.5c0 -4 1.83301 -7.83301 5.5 -11.5s8.5 -7.5 14.5 -11.5
c4.66699 -2 9.5 -4.33301 14.5 -7l15.5 -8c12 -6.66699 23.167 -14.334 33.5 -23.001s15.5 -19.667 15.5 -33c0 -14.667 -6.5 -27.834 -19.5 -39.501s-27.833 -17.5 -44.5 -17.5s-30 8.5 -40 25.5s-16.667 41.833 -20 74.5c-0.666992 8 -2.16699 14.167 -4.5 18.5
s-5.83301 6.5 -10.5 6.5c-2.66699 0 -5.16699 -2 -7.5 -6s-4.16602 -9.66699 -5.49902 -17c-5.33301 -35.333 -13.333 -61 -24 -77s-25 -24 -43 -24c-16 0 -29.833 6 -41.5 18s-17.5 26.333 -17.5 43c0 1.33301 0.166992 2.66602 0.5 3.99902s0.5 3 0.5 5
c2.66699 10 10 19.833 22 29.5s27.333 18.167 46 25.5c5.33301 2 9.83301 4.16699 13.5 6.5l10.5 6.5c2.66699 2 4.66699 4.16699 6 6.5s2 4.5 2 6.5c0 2.66699 -1.5 4.83398 -4.5 6.50098s-7.16699 2.5 -12.5 2.5s-10.833 -0.333008 -16.5 -1s-11.167 -1.66699 -16.5 -3
c-5.33301 -0.666992 -10.833 -1.5 -16.5 -2.5s-11.5 -1.5 -17.5 -1.5c-19.333 0 -34.166 4.66699 -44.499 14s-15.5 22.333 -15.5 39v1z" />
    <glyph glyph-name="plus" unicode="+" horiz-adv-x="571" 
d="M92 383h141v150h104v-150h142v-100h-142v-150h-104v150h-141v100v0z" />
    <glyph glyph-name="comma" unicode="," horiz-adv-x="285" 
d="M62 -157v60.001c28.667 6 51.667 17.833 69 35.5s26.666 38.5 27.999 62.5c-5.33301 -1.33301 -9.83301 -2.5 -13.5 -3.5s-7.16699 -1.83301 -10.5 -2.5c-2.66699 0 -5.16699 -0.166992 -7.5 -0.5s-5.16602 -0.5 -8.49902 -0.5c-22.667 0 -40.667 6.66699 -54 20
s-20 31.666 -20 54.999s8.66699 42.5 26 57.5s38.333 22.5 63 22.5c28.667 0 52.5 -11.333 71.5 -34s28.5 -50.667 28.5 -84c0 -48.667 -16.5 -91.167 -49.5 -127.5s-73.833 -56.5 -122.5 -60.5v0z" />
    <glyph glyph-name="hyphen" unicode="-" horiz-adv-x="291" 
d="M10 306h271v-125h-271v125v0z" />
    <glyph glyph-name="period" unicode="." horiz-adv-x="271" 
d="M135 163c23.333 -0.666992 43.333 -9.33301 60 -26s25 -36.667 25 -60s-8.33301 -43.166 -25 -59.499s-36.667 -24.5 -60 -24.5s-43.333 8.16699 -60 24.5s-25 36.166 -25 59.499s8.33301 43.333 25 60s36.667 25 60 25v1z" />
    <glyph glyph-name="slash" unicode="/" horiz-adv-x="395" 
d="M375 667l-229 -867h-126l229 867h126v0z" />
    <glyph glyph-name="zero" unicode="0" horiz-adv-x="571" 
d="M46 335c0 114.667 19.167 198.167 57.5 250.5s99.5 78.5 183.5 78.5c81.333 0 141.333 -25.333 180 -76s58 -130 58 -238c0 -12 -0.333008 -25.167 -1 -39.5s-1.66699 -28.833 -3 -43.5c-2 -21.333 -4.33301 -42 -7 -62s-5.33398 -37 -8.00098 -51
c-11.333 -52.667 -36.666 -93.167 -75.999 -121.5s-89.333 -42.5 -150 -42.5c-80 0 -139 27.833 -177 83.5s-57 142.5 -57 260.5v1zM204 334l0.000976562 -14.002c0 -67.333 2 -116.166 6 -146.499s11.333 -54.5 22 -72.5c5.33301 -8.66699 12.666 -15.667 21.999 -21
s19.333 -8 30 -8c25.333 0 43.833 8.66699 55.5 26s18.834 46.333 21.501 87c2 30 3.5 57.5 4.5 82.5s1.5 47.5 1.5 67.5c0 94.667 -5.66699 159.334 -17 194.001s-32.333 52 -63 52c-32.667 0 -54.334 -16.5 -65.001 -49.5s-16.667 -99.167 -18 -198.5v1z" />
    <glyph glyph-name="one" unicode="1" horiz-adv-x="571" 
d="M379 656l0.00292969 -527c0 -17.333 4 -29.5 12 -36.5s22 -10.5 42 -10.5l73 1v-83h-400v83h68c20 -0.666992 34 2.5 42 9.5s12 18.833 12 35.5v323h-122v84c1.33301 -0.666992 2.66602 -1 3.99902 -1s2.66602 0.333008 3.99902 1h2.5h2.5
c45.333 5.33301 79.666 15.833 102.999 31.5s42 45.167 56 88.5l101 1v0z" />
    <glyph glyph-name="two" unicode="2" horiz-adv-x="571" 
d="M449 229l78.001 0.00292969v-64c0 -56 -11 -99.167 -33 -129.5s-53.333 -45.5 -94 -45.5c-23.333 0 -46.166 3.33301 -68.499 10s-43.833 14 -64.5 22l-56 22.5c-17.333 7 -33 10.5 -47 10.5c-14.667 0 -24.5 -3.83301 -29.5 -11.5s-8.16699 -22.167 -9.5 -43.5h-87v8v7
c-0.666992 1.33301 -1 2.66602 -1 3.99902v3v3v2c0 30 3.16699 58.667 9.5 86s14.833 50.333 25.5 69c13.333 23.333 31.5 43.666 54.5 60.999s46.833 33.666 71.5 48.999c2.66699 2 5.66699 4 9 6s6.33301 4 9 6c34 20.667 64 42.834 90 66.501s39 54.5 39 92.5
c0 32.667 -10.833 58.834 -32.5 78.501s-50.167 29.5 -85.5 29.5c-27.333 0 -49.666 -5 -66.999 -15s-28.666 -24.333 -33.999 -43c5.33301 1.33301 9.66602 2.33301 12.999 3s6 1 8 1c19.333 0 35.5 -6.83301 48.5 -20.5s19.5 -31.167 19.5 -52.5
c0 -22.667 -8.33301 -41.334 -25 -56.001s-38.334 -22 -65.001 -22c-28.667 0 -51.667 10 -69 30s-26 47 -26 81c0 36 12.333 70 37 102s56 54.667 94 68c16.667 5.33301 34.834 9.5 54.501 12.5s40.834 4.5 63.501 4.5c68.667 0 124.167 -18 166.5 -54s63.5 -83 63.5 -141
c0 -68 -20.167 -116.667 -60.5 -146s-85.5 -54.333 -135.5 -75c-2 -1.33301 -4.16699 -2.5 -6.5 -3.5s-4.5 -1.83301 -6.5 -2.5l-55.5 -25c-18.333 -8.66699 -35.5 -18.334 -51.5 -29.001l-17.5 -12c-5 -3.33301 -9.16699 -6.33301 -12.5 -9
c-5.33301 -5.33301 -9.33301 -10.666 -12 -15.999s-5 -12.666 -7 -21.999c11.333 7.33301 21.666 13 30.999 17s18.666 6.66699 27.999 8c3.33301 0.666992 6.83301 1.16699 10.5 1.5s7.16699 0.5 10.5 0.5c15.333 0 30.166 -1.83301 44.499 -5.5
s28.833 -7.83398 43.5 -12.501s29.167 -8.83398 43.5 -12.501s29.166 -5.5 44.499 -5.5s27.333 6 36 18s13 29 13 51v40v0z" />
    <glyph glyph-name="three" unicode="3" horiz-adv-x="571" 
d="M210 299l0.00195312 82.999c2 -0.666992 3.83301 -1 5.5 -1h5.5c33.333 0.666992 63.833 6.33398 91.5 17.001s41.5 36.334 41.5 77.001c0 31.333 -10.167 56.833 -30.5 76.5s-47.166 29.5 -80.499 29.5c-9.33301 0 -17.333 -0.5 -24 -1.5s-13 -2.5 -19 -4.5
c-4.66699 -2 -9.33398 -4.33301 -14.001 -7s-9.66699 -6 -15 -10l13 -7.5c4 -2.33301 7.66699 -4.83301 11 -7.5c9.33301 -7.33301 15.833 -15 19.5 -23s5.5 -18.333 5.5 -31c0 -23.333 -7.66699 -42.333 -23 -57s-35.333 -22 -60 -22
c-26.667 0 -48.334 8.83301 -65.001 26.5s-25 41.167 -25 70.5c0 46 21.5 83.667 64.5 113s97.833 44 164.5 44c69.333 0 125.833 -15.5 169.5 -46.5s65.5 -71.167 65.5 -120.5c0 -34.667 -9.83301 -64.667 -29.5 -90s-48.5 -44.666 -86.5 -57.999
c41.333 -10.667 73.166 -29.334 95.499 -56.001s33.5 -59.334 33.5 -98.001c0 -61.333 -24.5 -110.833 -73.5 -148.5s-113.5 -56.5 -193.5 -56.5c-67.333 0 -121.333 14.667 -162 44s-61 68.666 -61 117.999c0 29.333 9.66699 54 29 74s42.666 30 69.999 30
c21.333 0 40 -8 56 -24s24 -35.333 24 -58c0 -12 -1.5 -22.167 -4.5 -30.5s-8.5 -16.166 -16.5 -23.499c-4 -3.33301 -8.5 -6.83301 -13.5 -10.5s-10.833 -7.5 -17.5 -11.5l16 -11c4.66699 -3.33301 9.33398 -6 14.001 -8c6.66699 -2.66699 13.5 -4.5 20.5 -5.5
s15.5 -1.5 25.5 -1.5c37.333 0 66.333 11.167 87 33.5s31 52.833 31 91.5c0 46 -14.5 74.333 -43.5 85s-62.833 16 -101.5 16v1z" />
    <glyph glyph-name="four" unicode="4" horiz-adv-x="571" 
d="M453 656v-392h83v-89h-83v-46c0 -17.333 4 -29.5 12 -36.5s22 -10.5 42 -10.5l29 1v-83h-329v83h46c20 -0.666992 34 2.5 42 9.5s12 18.833 12 35.5v47h-259v97l282 384h123v0zM307 264v220l-158 -220h158v0z" />
    <glyph glyph-name="five" unicode="5" horiz-adv-x="571" 
d="M80 327l27.998 336.002l23 6c37.333 -12 74.333 -21 111 -27s73 -9 109 -9c27.333 0 50.166 1.5 68.499 4.5s35.833 8.16699 52.5 15.5c4.66699 2 9.5 4.33301 14.5 7l14.5 8l27 -21c-5.33301 -8 -10.666 -15.333 -15.999 -22s-10.666 -13 -15.999 -19
c-26.667 -29.333 -54.667 -51 -84 -65s-67.333 -21 -114 -21c-18.667 0 -37.334 1.16699 -56.001 3.5s-37.334 4.83301 -56.001 7.5l-12 -106c12.667 4.66699 24.334 8.5 35.001 11.5s21.334 5.5 32.001 7.5c8 1.33301 16.167 2.33301 24.5 3s17.166 1 26.499 1
c72.667 0 130.834 -19.667 174.501 -59s65.5 -92 65.5 -158c0 -70 -23.833 -127.667 -71.5 -173s-108.167 -68 -181.5 -68c-67.333 0 -121.833 14.667 -163.5 44s-62.5 68.333 -62.5 117c0 32 8.5 57.167 25.5 75.5s40.167 27.5 69.5 27.5c23.333 0 42.333 -7.66699 57 -23
s22 -35 22 -59c0 -16.667 -4.16699 -30.834 -12.5 -42.501s-21.833 -21.834 -40.5 -30.501c6.66699 -4 12.667 -7.33301 18 -10s10.333 -5 15 -7c6 -2 12.333 -3.33301 19 -4s14.334 -1 23.001 -1c37.333 0 65.833 12.167 85.5 36.5s29.5 59.833 29.5 106.5
c0 43.333 -9.66699 77 -29 101s-46.333 36 -81 36c-18.667 0 -34.5 -3 -47.5 -9s-23.833 -15 -32.5 -27l-94 6v0z" />
    <glyph glyph-name="six" unicode="6" horiz-adv-x="571" 
d="M195 386l32.5 17.498c9.66699 5 19.167 8.83301 28.5 11.5c8.66699 2.66699 17.667 4.5 27 5.5s19.333 1.5 30 1.5c65.333 0 116.833 -18.833 154.5 -56.5s56.5 -89.167 56.5 -154.5c0 -64.667 -22.333 -117.667 -67 -159s-101.667 -62 -171 -62
c-81.333 0 -142.666 25.5 -183.999 76.5s-62 127.167 -62 228.5c0 96.667 18.5 182.334 55.5 257.001s111.833 112 224.5 112c57.333 0 103 -11.833 137 -35.5s51 -55.834 51 -96.501c0 -24.667 -7.66699 -45 -23 -61s-35.333 -24 -60 -24s-44.334 6.33301 -59.001 19
s-22 29.667 -22 51c0 6 0.5 11.333 1.5 16s2.83301 9.33398 5.5 14.001c2.66699 4 6.16699 8.33301 10.5 13s9.83301 10 16.5 16c-4 1.33301 -7.5 2.33301 -10.5 3s-5.83301 1.33398 -8.5 2.00098s-5.5 1 -8.5 1h-10.5c-50 0 -86.333 -15.5 -109 -46.5
s-34.667 -81.167 -36 -150.5v1zM198 210.998c0 -44 7.66699 -78.166 23 -102.499s36.333 -36.5 63 -36.5c26 0 46.167 12.167 60.5 36.5s21.5 58.166 21.5 101.499c0 37.333 -7.33301 67.5 -22 90.5s-33.667 34.5 -57 34.5c-27.333 0 -49 -11 -65 -33s-24 -52.667 -24 -92v1
z" />
    <glyph glyph-name="seven" unicode="7" horiz-adv-x="571" 
d="M67 397l0.00195312 258.999h83v-33c9.33301 7.33301 18.5 13.833 27.5 19.5s17.833 10.167 26.5 13.5c7.33301 2.66699 14.5 4.66699 21.5 6s14.5 2 22.5 2c16.667 0 32.667 -3 48 -9s30.666 -12.667 45.999 -20s30.666 -14 45.999 -20s31.333 -9 48 -9
c8 0 13.833 2.83301 17.5 8.5s5.5 14.167 5.5 25.5v3.5c0 1 0.333008 2.16699 1 3.5v4v4l85 1c0 -62.667 -9.5 -114.667 -28.5 -156s-40.833 -80.666 -65.5 -117.999l-5.5 -9c-1.66699 -2.66699 -3.5 -5.33398 -5.5 -8.00098c-26 -40.667 -50 -84.834 -72 -132.501
s-33 -109.167 -33 -184.5v-9v-8c0.666992 -4.66699 1.16699 -9.5 1.5 -14.5s0.833008 -10.5 1.5 -16.5h-153c0 6.66699 -0.166992 12.5 -0.5 17.5s-0.5 9.5 -0.5 13.5v7.5v7.5c0 84.667 12.833 149.334 38.5 194.001s55.5 85.334 89.5 122.001l18 18.5l18 19.5
c16 16.667 31.5 34.667 46.5 54s29.167 41 42.5 65c-7.33301 -4 -14.333 -7.33301 -21 -10s-13 -5 -19 -7c-6.66699 -2 -13.334 -3.33301 -20.001 -4s-13.667 -1 -21 -1c-14 0 -27.5 1.66699 -40.5 5s-25.833 7 -38.5 11c-8 2 -15.667 4.16699 -23 6.5
s-14.666 4.16602 -21.999 5.49902c-5.33301 0.666992 -10.333 1.33398 -15 2.00098s-9.66699 1 -15 1c-18 0 -31.167 -5 -39.5 -15s-12.5 -26.333 -12.5 -49v-67h-83v0z" />
    <glyph glyph-name="eight" unicode="8" horiz-adv-x="571" 
d="M140 321c-8 4.66699 -15.498 9.66797 -22.498 15.001s-13.167 10.666 -18.5 15.999c-18 16.667 -30.833 34 -38.5 52s-11.5 39.667 -11.5 65c0 59.333 22.167 106.666 66.5 141.999s103.166 53 176.499 53c62.667 0 113.5 -14.5 152.5 -43.5s58.5 -67.167 58.5 -114.5
c0 -26.667 -4.33301 -49.167 -13 -67.5s-24 -35.833 -46 -52.5c-5.33301 -4 -10.833 -7.83301 -16.5 -11.5l-18.5 -11.5c39.333 -16.667 69 -38.667 89 -66s30 -59.666 30 -96.999c0 -64.667 -22.5 -115.834 -67.5 -153.501s-105.833 -56.5 -182.5 -56.5
c-76 0 -134.333 15.833 -175 47.5s-61 77.167 -61 136.5c0 26 4.5 48.333 13.5 67s24.5 36.334 46.5 53.001c5.33301 4.66699 11.166 9 17.499 13l20.5 13v1zM217.002 282.001c-22.667 -16 -39.333 -32.167 -50 -48.5s-16 -35.166 -16 -56.499c0 -34 11.667 -60.5 35 -79.5
s56.333 -28.5 99 -28.5c33.333 0 60.833 7.66699 82.5 23s32.5 34.666 32.5 57.999s-11 43.5 -33 60.5s-46.333 31.167 -73 42.5c-14 6 -27.833 11.333 -41.5 16l-35.5 12v1zM331.003 400.001c22.667 14.667 39.334 29.832 50.001 45.499s16 31.834 16 48.501
c0 26 -10.5 47 -31.5 63s-48.5 24 -82.5 24c-34.667 0 -62.334 -6.83301 -83.001 -20.5s-31 -31.834 -31 -54.501c0 -10 2.16699 -18.667 6.5 -26s11.833 -14.666 22.5 -21.999l20.5 -11c7.66699 -4 16.5 -8 26.5 -12l14.5 -6l14.5 -6c2 -1.33301 4.16699 -2.5 6.5 -3.5
s4.83301 -1.83301 7.5 -2.5l21.5 -9.5c7 -3 14.167 -5.83301 21.5 -8.5v1z" />
    <glyph glyph-name="nine" unicode="9" horiz-adv-x="571" 
d="M373 268c-8.66699 -6 -17.002 -11.167 -25.002 -15.5s-16.333 -7.83301 -25 -10.5c-12 -4.66699 -24.167 -8.16699 -36.5 -10.5s-25.5 -3.5 -39.5 -3.5c-64.667 0 -114.167 20.833 -148.5 62.5s-51.5 92.834 -51.5 153.501c0 64.667 22.167 117.5 66.5 158.5
s100.833 61.5 169.5 61.5c78.667 0 139.5 -26.833 182.5 -80.5s64.5 -129.834 64.5 -228.501c0 -116.667 -24 -206.667 -72 -270s-116 -95 -204 -95c-56 0 -101.167 11.833 -135.5 35.5s-51.5 54.834 -51.5 93.501c0 24 8 43.833 24 59.5s36 23.5 60 23.5
c21.333 0 39.166 -7 53.499 -21s21.5 -31 21.5 -51c0 -8 -1.16699 -15.333 -3.5 -22s-6.16602 -13 -11.499 -19c-2 -3.33301 -4.33301 -6.33301 -7 -9s-5.66699 -5.33398 -9 -8.00098c6.66699 -2 12.334 -3.5 17.001 -4.5s9.33398 -1.83301 14.001 -2.5h4.5h5.5
c44 0 77.333 16.667 100 50s35 84 37 152v1zM199.998 450c0 -42 8 -75.499 24 -100.499s37.333 -37.5 64 -37.5c26 0 46.5 11.167 61.5 33.5s22.5 53.5 22.5 93.5c0 45.333 -7.83301 80.333 -23.5 105s-37.5 37 -65.5 37c-25.333 0 -45.5 -11.833 -60.5 -35.5
s-22.5 -55.834 -22.5 -96.501v1z" />
    <glyph glyph-name="colon" unicode=":" horiz-adv-x="271" 
d="M135 163c23.333 -0.666992 43.333 -9.33301 60 -26s25 -36.667 25 -60s-8.33301 -43.166 -25 -59.499s-36.667 -24.5 -60 -24.5s-43.333 8.16699 -60 24.5s-25 36.166 -25 59.499s8.33301 43.333 25 60s36.667 25 60 25v1zM135 483.001
c23.333 -0.666992 43.333 -9.33301 60 -26s25 -36.667 25 -60s-8.33301 -43.333 -25 -60s-36.667 -25 -60 -25s-43.333 8.33301 -60 25s-25 36.667 -25 60s8.33301 43.333 25 60s36.667 25 60 25v1z" />
    <glyph glyph-name="semicolon" unicode=";" horiz-adv-x="285" 
d="M62 -157v60.001c28.667 6 51.667 17.833 69 35.5s26.666 38.5 27.999 62.5c-5.33301 -1.33301 -9.83301 -2.5 -13.5 -3.5s-7.16699 -1.83301 -10.5 -2.5c-2.66699 0 -5.16699 -0.166992 -7.5 -0.5s-5.16602 -0.5 -8.49902 -0.5c-22.667 0 -40.667 6.66699 -54 20
s-20 31.666 -20 54.999s8.66699 42.5 26 57.5s38.333 22.5 63 22.5c28.667 0 52.5 -11.333 71.5 -34s28.5 -50.667 28.5 -84c0 -48.667 -16.5 -91.167 -49.5 -127.5s-73.833 -56.5 -122.5 -60.5v0zM130 483.001c23.333 -0.666992 43.333 -9.33301 60 -26s25 -36.667 25 -60
s-8.33301 -43.333 -25 -60s-36.667 -25 -60 -25s-43.333 8.33301 -60 25s-25 36.667 -25 60s8.33301 43.333 25 60s36.667 25 60 25v1z" />
    <glyph glyph-name="less" unicode="&#x3c;" horiz-adv-x="500" 
d="M466 609v-129l-296 -147l296 -147v-128l-433 221v109l433 221v0z" />
    <glyph glyph-name="equal" unicode="=" horiz-adv-x="571" 
d="M92 298h387v-97h-387v97v0zM92 465h387v-97h-387v97v0z" />
    <glyph glyph-name="greater" unicode="&#x3e;" horiz-adv-x="500" 
d="M33 58v129l296 147l-295 147l-1 128l433 -221v-109l-433 -221v0z" />
    <glyph glyph-name="question" unicode="?" horiz-adv-x="547" 
d="M260 163c23.333 -0.666992 43.333 -9.33301 60 -26s25 -36.667 25 -60s-8.33301 -43.166 -25 -59.499s-36.667 -24.5 -60 -24.5s-43.333 8.16699 -60 24.5s-25 36.166 -25 59.499s8.33301 43.333 25 60s36.667 25 60 25v1zM305 206.001l-90.001 0.00292969
c-0.666992 3.33301 -1 6.33301 -1 9v8v1.5v1.5c0 28 7 52.667 21 74s29.333 41.666 46 60.999c1.33301 2 2.66602 3.83301 3.99902 5.5s2.66602 3.16699 3.99902 4.5c15.333 18 29 36.5 41 55.5s18 40.167 18 63.5c0 31.333 -11.167 56.5 -33.5 75.5s-51.5 28.5 -87.5 28.5
c-29.333 0 -52.666 -5.16699 -69.999 -15.5s-27.666 -25.5 -30.999 -45.5c2.66699 0.666992 4.66699 1 6 1h3c24.667 0 43.834 -6.5 57.501 -19.5s20.5 -31.167 20.5 -54.5c0 -22.667 -8.5 -41.167 -25.5 -55.5s-39.167 -21.5 -66.5 -21.5s-49.833 10.833 -67.5 32.5
s-26.5 49.167 -26.5 82.5c0 57.333 22.5 103.166 67.5 137.499s105.167 51.5 180.5 51.5c69.333 0 125.333 -17.167 168 -51.5s64 -79.5 64 -135.5c0 -40.667 -10.5 -73.167 -31.5 -97.5s-44.167 -45.833 -69.5 -64.5l-10.5 -8l-10.5 -8c-21.333 -16 -40 -32.833 -56 -50.5
s-24 -39.834 -24 -66.501v1z" />
    <glyph glyph-name="at" unicode="@" horiz-adv-x="733" 
d="M473 493l89.999 0.000976562l-37 -191c-2.66699 -14.667 -4.5 -25 -5.5 -31s-1.5 -10.667 -1.5 -14c0 -10 2 -17.833 6 -23.5s9.66699 -8.5 17 -8.5c16.667 0 30.667 8.66699 42 26s20.333 36.333 27 57c4 14 7.16699 27.5 9.5 40.5s3.5 23.167 3.5 30.5
c0 67.333 -21.667 121 -65 161s-101.666 60 -174.999 60c-72.667 0 -135.334 -26.333 -188.001 -79s-79 -115.334 -79 -188.001c0 -84.667 24.667 -150.5 74 -197.5s115.666 -70.5 198.999 -70.5c12 0 23.667 0.333008 35 1s22.666 1.66699 33.999 3
c18 2.66699 36.167 6 54.5 10s37.5 9.33301 57.5 16l21 -80c-29.333 -10 -61.666 -17.5 -96.999 -22.5s-71.333 -7.5 -108 -7.5c-106.667 0 -192.834 32 -258.501 96s-98.5 148.333 -98.5 253c0 94.667 34.5 176.167 103.5 244.5s151.5 102.5 247.5 102.5
c93.333 0 170.333 -28 231 -84s91 -127 91 -213c0 -60.667 -16.667 -114.5 -50 -161.5s-72 -70.5 -116 -70.5c-18.667 0 -35.167 5 -49.5 15s-23.833 23 -28.5 39c-13.333 -19.333 -31.166 -34.666 -53.499 -45.999s-46.166 -17 -71.499 -17
c-40.667 0 -74.667 15.167 -102 45.5s-41 67.833 -41 112.5c0 55.333 17.833 102.833 53.5 142.5s78.167 59.5 127.5 59.5h4.5h5.5c16.667 -2 32.834 -7.33301 48.501 -16s27.5 -19.334 35.5 -32.001l7 38v0zM442.999 345.001
c-0.666992 18.667 -6.99902 34.001 -18.999 46.001s-26.667 18 -44 18c-23.333 0 -43.5 -10.333 -60.5 -31s-25.5 -45.334 -25.5 -74.001c0 -20.667 6 -37.5 18 -50.5s27.333 -19.5 46 -19.5c22.667 0 41 8.66699 55 26s23 36.333 27 57
c1.33301 4.66699 2.16602 9.16699 2.49902 13.5s0.5 8.83301 0.5 13.5v1z" />
    <glyph glyph-name="A" unicode="A" horiz-adv-x="841" 
d="M511 210l-249.003 -0.000976562c-2 -5.33301 -4.16699 -10.833 -6.5 -16.5s-4.5 -11.167 -6.5 -16.5c-2 -4 -3.66699 -7.83301 -5 -11.5l-4 -11.5c-3.33301 -8 -6 -16 -8 -24s-3 -15.667 -3 -23c0 -10 3.66699 -16.5 11 -19.5s22.333 -4.5 45 -4.5l29 1v-84h-297v84
c26.667 -0.666992 47.667 2 63 8s28.666 22 39.999 48l8 18c2.66699 6 5.33398 11.667 8.00098 17c0.666992 2 1.33398 3.66699 2.00098 5l2 4l11.5 22c3.66699 7.33301 6.83398 15 9.50098 23l176 438h152l208 -479c4 -10 7.83301 -19 11.5 -27l10.5 -22
c10.667 -20 23 -34.333 37 -43s36.667 -13 68 -13v-83h-370v84h35c20 -0.666992 34.667 1.16602 44 5.49902s14 10.833 14 19.5c0 6.66699 -1.33301 14.334 -4 23.001s-5.66699 17.334 -9 26.001l-4 8c-1.33301 2.66699 -2.66602 5.66699 -3.99902 9l-8 18l-7 16v1z
M472.997 295.999l-94 220l-85 -220h179v0z" />
    <glyph glyph-name="B" unicode="B" horiz-adv-x="777" 
d="M584 351c41.333 -9.33301 77.168 -26.8301 107.501 -52.4971s45.5 -61.834 45.5 -108.501c0 -60.667 -21.5 -107.5 -64.5 -140.5s-103.167 -49.5 -180.5 -49.5h-456v82h52c20 -0.666992 34 2.66602 42 9.99902s12 19.333 12 36v409c0 16.667 -4 28.5 -12 35.5
s-22 10.5 -42 10.5l-52 1v83h452c75.333 -0.666992 132.666 -15.334 171.999 -44.001s59 -70.667 59 -126c0 -35.333 -10.5 -64.333 -31.5 -87s-55.5 -42.667 -103.5 -60v1zM307.002 82.0029h122c44 -0.666992 76.333 7.83301 97 25.5s31 45.5 31 83.5
c0 35.333 -10.333 62 -31 80s-50.667 27 -90 27l-129 1v-217v0zM307.002 385.003l111 -0.000976562c44.667 -0.666992 77 6.83301 97 22.5s30 40.834 30 75.501c0 35.333 -9.5 60.333 -28.5 75s-51.167 22 -96.5 22l-113 1v-196v0z" />
    <glyph glyph-name="C" unicode="C" horiz-adv-x="755" 
d="M694 674l-0.00390625 -274.002h-97c-4 58.667 -21.833 104.5 -53.5 137.5s-74.167 49.5 -127.5 49.5c-60 0 -107.667 -22.667 -143 -68s-53 -106.666 -53 -183.999c0 -82.667 16.833 -146.167 50.5 -190.5s81.834 -66.5 144.501 -66.5c51.333 0 93.333 15.833 126 47.5
s54.334 77.5 65.001 137.5l102 1c-10.667 -91.333 -44.167 -161.666 -100.5 -210.999s-130.166 -74 -221.499 -74c-100 0 -182.667 32.667 -248 98s-98 148 -98 248c0 107.333 32.667 194.5 98 261.5s150 100.5 254 100.5c26.667 0 50.667 -2.16699 72 -6.5
s42.333 -11.5 63 -21.5c10.667 -5.33301 21.334 -11.5 32.001 -18.5s21.667 -14.833 33 -23.5l22 57h80v0z" />
    <glyph glyph-name="D" unicode="D" horiz-adv-x="823" 
d="M37 584l-0.000976562 83.001h442c95.333 -0.666992 169.833 -29 223.5 -85s80.5 -134.333 80.5 -235c0 -104.667 -29.667 -188.667 -89 -252s-138.666 -95 -237.999 -95h-419v82h52c20 -0.666992 34 2.66602 42 9.99902s12 19.333 12 36v409c0 16.667 -4 28.5 -12 35.5
s-22 10.5 -42 10.5l-52 1v0zM307.999 86.001l84.999 0.000976562c40.667 -0.666992 72.334 3 95.001 11s42 22 58 42c20 24.667 34.5 53.667 43.5 87s13.5 74.666 13.5 123.999c0 70 -15 125.833 -45 167.5s-82.333 62.5 -157 62.5l-93 1v-495v0z" />
    <glyph glyph-name="E" unicode="E" horiz-adv-x="781" 
d="M719 667v-260.998h-89c-3.33301 54.667 -12.5 97.334 -27.5 128.001s-54.833 46 -119.5 46l-176 1v-194h68c29.333 -0.666992 49.333 4.66602 60 15.999s16 32 16 62v36h90v-318h-90v40c0 30.667 -5 51 -15 61s-30.333 15 -61 15l-68 1v-214h189
c47.333 -0.666992 81.5 14.666 102.5 45.999s31.5 82.333 31.5 153l94 1l-5 -286h-683v82h52c20 -0.666992 34 2.66602 42 9.99902s12 19.333 12 36v409c0 16.667 -4 28.5 -12 35.5s-22 10.5 -42 10.5l-52 1v83h683v0z" />
    <glyph glyph-name="F" unicode="F" horiz-adv-x="725" 
d="M702 667v-261.998h-95c0 50.667 -6.5 92.5 -19.5 125.5s-49.833 49.5 -110.5 49.5l-169 1v-192h65c28.667 -0.666992 47.5 3.66602 56.5 12.999s13.5 29.333 13.5 60v35h89v-315h-89v39c0 32.667 -4.5 54.167 -13.5 64.5s-28.167 15.5 -57.5 15.5l-64 1v-173
c0 -17.333 4 -29.5 12 -36.5s22.333 -10.5 43 -10.5l70 1v-83h-396v82h52c20 -0.666992 34 2.66602 42 9.99902s12 19.333 12 36v409c0 16.667 -4 28.5 -12 35.5s-22 10.5 -42 10.5l-52 1v83h665v0z" />
    <glyph glyph-name="G" unicode="G" horiz-adv-x="831" 
d="M695 674v-269.002h-90c-5.33301 56 -25.5 100.333 -60.5 133s-79.5 49 -133.5 49c-59.333 0 -106 -23 -140 -69s-51 -109.667 -51 -191c0 -80 16.667 -141.5 50 -184.5s81.333 -64.5 144 -64.5c38.667 0 71 8.16699 97 24.5s39 36.5 39 60.5v55
c0 16.667 -4 28.5 -12 35.5s-22 10.5 -42 10.5l-55 1v83h367v-83c-40.667 -0.666992 -67 -3 -79 -7s-18 -17.667 -18 -41v-217h-95l-21 59c-8 -7.33301 -15.667 -13.833 -23 -19.5l-22 -16.5c-25.333 -15.333 -51.166 -26.5 -77.499 -33.5s-56.5 -10.5 -90.5 -10.5
c-102.667 0 -185.334 31.833 -248.001 95.5s-94 147.834 -94 252.501c0 108 32.5 195 97.5 261s150.833 99 257.5 99c28.667 0 56 -3.5 82 -10.5s51.333 -17.833 76 -32.5c7.33301 -4 14.5 -8.16699 21.5 -12.5s13.833 -9.16602 20.5 -14.499l21 57h79v0z" />
    <glyph glyph-name="H" unicode="H" horiz-adv-x="881" 
d="M573 301h-266v-172c0 -17.333 4 -29.666 12 -36.999s22 -11 42 -11l43 1v-82h-368v82h52c20 -0.666992 34 2.66602 42 9.99902s12 19.333 12 36v409c0 16.667 -4 28.5 -12 35.5s-22 10.5 -42 10.5l-52 1v83h368v-83h-43c-20 -0.666992 -34 -4.5 -42 -11.5
s-12 -19.167 -12 -36.5v-144h266v145c0 16.667 -4 28.5 -12 35.5s-22 10.5 -42 10.5l-43 1v83h368v-83h-52c-20 -0.666992 -34 -4.5 -42 -11.5s-12 -19.167 -12 -36.5v-407c0 -17.333 4 -29.666 12 -36.999s22 -11 42 -11l52 1v-82h-368v82h43
c20 -0.666992 34 2.66602 42 9.99902s12 19.333 12 36v173v0z" />
    <glyph glyph-name="I" unicode="I" horiz-adv-x="441" 
d="M37 584v83h368v-83h-43c-20 -0.666992 -34 -4.5 -42 -11.5s-12 -19.167 -12 -36.5v-407c0 -17.333 4 -29.666 12 -36.999s22 -11 42 -11l43 1v-82h-368v82h52c20 -0.666992 34 2.66602 42 9.99902s12 19.333 12 36v409c0 16.667 -4 28.5 -12 35.5s-22 10.5 -42 10.5
l-52 1v0z" />
    <glyph glyph-name="J" unicode="J" horiz-adv-x="524" 
d="M117 76c1.33301 -2 2.50098 -3.50098 3.50098 -4.50098l2.5 -2.5c5.33301 -4.66699 11.166 -7.66699 17.499 -9s14.833 -2 25.5 -2c30.667 0 50.334 7.66699 59.001 23s13 49.333 13 102v355c0 16.667 -4 28.334 -12 35.001s-22 10 -42 10l-67 1v83h377v-83h-36
c-20.667 -0.666992 -35 -4.33398 -43 -11.001s-12 -18.667 -12 -36v-353c0 -32 -3.16699 -59.167 -9.5 -81.5s-16.833 -41.166 -31.5 -56.499c-18.667 -20.667 -43 -37 -73 -49s-61 -18 -93 -18c-60 0 -107.667 13.333 -143 40s-53 62.667 -53 108
c0 27.333 8.83301 51 26.5 71s38.5 30 62.5 30c27.333 0 49 -7 65 -21s24 -33.333 24 -58c0 -16 -3.33301 -29.167 -10 -39.5s-19.334 -19.833 -38.001 -28.5c-2 -1.33301 -4 -2.33301 -6 -3s-4.33301 -1.66699 -7 -3v1z" />
    <glyph glyph-name="K" unicode="K" horiz-adv-x="835" 
d="M308 354l224.001 182.001c6.66699 4.66699 11.667 9.5 15 14.5s5 9.83301 5 14.5c0 5.33301 -2.16699 9.16602 -6.5 11.499s-12.166 3.5 -23.499 3.5l-61 1v86h355v-86c-23.333 -0.666992 -42.833 -2.5 -58.5 -5.5s-30.834 -8.16699 -45.501 -15.5
c-10 -5.33301 -20.5 -12.166 -31.5 -20.499s-23.167 -18.166 -36.5 -29.499l-112 -94l174 -263c2.66699 -4.66699 5.66699 -9 9 -13l11 -13c7.33301 -8.66699 13.666 -15.834 18.999 -21.501s10.333 -9.83398 15 -12.501c5.33301 -4 11.333 -6.33301 18 -7s15.667 -1 27 -1
l21 1v-86h-365v86h38c12.667 -0.666992 22 0.5 28 3.5s9 7.83301 9 14.5c0 5.33301 -1.33301 10.666 -4 15.999s-5.66699 10.333 -9 15c-2 3.33301 -4 6.33301 -6 9s-3.66699 5.33398 -5 8.00098l-109 163l-95 -78v-108c0 -17.333 4 -29.666 12 -36.999s22 -11 42 -11l43 1
v-82h-368v82h52c20 -0.666992 34 2.66602 42 9.99902s12 19.333 12 36v409c0 16.667 -4 28.5 -12 35.5s-22 10.5 -42 10.5l-52 1v83h368v-83h-43c-20 -0.666992 -34 -4.5 -42 -11.5s-12 -19.167 -12 -36.5v-182v0z" />
    <glyph glyph-name="L" unicode="L" horiz-adv-x="709" 
d="M307 86l138 0.00292969c70 -0.666992 112.667 19.166 128 59.499s23.333 89.166 24 146.499l95 1v-293h-656v82h52c20 -0.666992 34 2.66602 42 9.99902s12 19.333 12 36v409c0 16.667 -4 28.5 -12 35.5s-22 10.5 -42 10.5l-52 1v83h385v-83h-60
c-20 -0.666992 -34 -4.5 -42 -11.5s-12 -19.167 -12 -36.5v-450v0z" />
    <glyph glyph-name="M" unicode="M" horiz-adv-x="1043" 
d="M358 667l166 -409l169 409h314v-83h-52c-20 -0.666992 -34 -4.5 -42 -11.5s-12 -19.167 -12 -36.5v-407c0 -17.333 4 -29.666 12 -36.999s22 -11 42 -11l52 1v-82h-377v82h52c20 -0.666992 34 2.66602 42 9.99902s12 19.333 12 36v379l-212 -507h-75l-207 514v-385
c0 -17.333 4 -29.666 12 -36.999s22 -11 42 -11l47 1v-82h-312v82h52c20 -0.666992 34 2.66602 42 9.99902s12 19.333 12 36v409c0 16.667 -4 28.5 -12 35.5s-22 10.5 -42 10.5l-52 1v83h327v0z" />
    <glyph glyph-name="N" unicode="N" horiz-adv-x="867" 
d="M312 667l327 -458v328c0 16.667 -4 28.5 -12 35.5s-22 10.5 -42 10.5l-47 1v83h299v-83h-39c-20 -0.666992 -34 -4.5 -42 -11.5s-12 -19.167 -12 -36.5v-536h-161l-335 468v-339c0 -17.333 4 -29.666 12 -36.999s22 -11 42 -11l52 1v-82h-317v82h52
c20 -0.666992 34 2.66602 42 9.99902s12 19.333 12 36v409c0 16.667 -4 28.5 -12 35.5s-22 10.5 -42 10.5l-52 1v83h275v0z" />
    <glyph glyph-name="O" unicode="O" horiz-adv-x="825" 
d="M40 331c0 109.333 33.666 196 100.999 260s158.333 96 273 96c110.667 0 200.167 -31.833 268.5 -95.5s102.5 -147.167 102.5 -250.5c0 -114.667 -33.167 -203.667 -99.5 -267s-159.166 -95 -278.499 -95c-112.667 0 -202 31.5 -268 94.5s-99 148.5 -99 256.5v1z
M219.999 336c0 -86 16.499 -152.667 49.499 -200s79.5 -71 139.5 -71c61.333 0 108.833 22.833 142.5 68.5s50.5 110.5 50.5 194.5c0 86 -16.333 153 -49 201s-78.667 72 -138 72c-61.333 0 -109.166 -23.5 -143.499 -70.5s-51.5 -112.167 -51.5 -195.5v1z" />
    <glyph glyph-name="P" unicode="P" horiz-adv-x="718" 
d="M308 292v-162.999c0 -17.333 4 -29.5 12 -36.5s22 -10.5 42 -10.5l63 1v-83h-388v82h52c20 -0.666992 34 2.66602 42 9.99902s12 19.333 12 36v409c0 16.667 -4 28.5 -12 35.5s-22 10.5 -42 10.5l-52 1v83h440c76 -0.666992 133.5 -17.167 172.5 -49.5
s58.5 -79.5 58.5 -141.5s-20.667 -108.333 -62 -139s-104.333 -46 -189 -46l-149 1v0zM308 378.001l83.001 0.00195312c49.333 -0.666992 85.666 7.16602 108.999 23.499s35 41.833 35 76.5c0 37.333 -11.5 63.666 -34.5 78.999s-62.5 23 -118.5 23l-74 1v-203v0z" />
    <glyph glyph-name="Q" unicode="Q" horiz-adv-x="844" 
d="M753 93h91.001c-4.66699 -70 -20.5 -123.167 -47.5 -159.5s-63.5 -54.5 -109.5 -54.5c-32.667 0 -62.5 9.83301 -89.5 29.5s-48.5 47.834 -64.5 84.501c-18.667 -4.66699 -39 -8.33398 -61 -11.001s-44.333 -4 -67 -4c-112 0 -200.833 31.833 -266.5 95.5
s-98.5 150.167 -98.5 259.5s34 195.666 102 258.999s160.333 95 277 95c110 0 198.167 -32.167 264.5 -96.5s99.5 -150.166 99.5 -257.499c0 -64.667 -12 -121.334 -36 -170.001s-62 -92 -114 -130c5.33301 -8 10.166 -14.667 14.499 -20s8.83301 -9.66602 13.5 -12.999
c5.33301 -4 10.833 -7 16.5 -9s11.5 -3 17.5 -3c20 0 34.667 8.16699 44 24.5s14 42.833 14 79.5v1zM480.001 75c-14.667 26.667 -29.501 46.5 -44.501 59.5s-31.167 19.5 -48.5 19.5c-20 0 -35.667 -6 -47 -18s-17.666 -28.667 -18.999 -50
c11.333 -7.33301 24.833 -12.833 40.5 -16.5s33.5 -5.5 53.5 -5.5c6 0 11.333 0.166992 16 0.5s9.33398 0.833008 14.001 1.5c5.33301 0.666992 10.666 1.66699 15.999 3l19 5v1zM558 144c15.333 22 26.667 48.5029 34 79.5029s11 67.167 11 108.5
c0 82 -16.833 147.167 -50.5 195.5s-79.167 72.5 -136.5 72.5c-62.667 0 -111 -23.5 -145 -70.5s-51 -113.5 -51 -199.5c0 -36.667 3.66699 -70.334 11 -101.001s18.666 -59.334 33.999 -86.001c3.33301 6.66699 6.5 12.667 9.5 18s5.83301 10.666 8.5 15.999
c15.333 24 31.333 40.667 48 50s38.667 14 66 14c31.333 0 59.833 -7.83301 85.5 -23.5s50.834 -40.5 75.501 -74.5v1z" />
    <glyph glyph-name="R" unicode="R" horiz-adv-x="814" 
d="M308 309l-0.00292969 -179.995c0 -17.333 4 -29.666 12 -36.999s22 -11 42 -11l52 1v-82h-377v82h52c20 -0.666992 34 2.66602 42 9.99902s12 19.333 12 36v409c0 16.667 -4 28.5 -12 35.5s-22 10.5 -42 10.5l-52 1v83h484c64 -0.666992 113.333 -15.334 148 -44.001
s52 -69.334 52 -122.001c0 -40.667 -12.167 -73.834 -36.5 -99.501s-61.166 -44.167 -110.499 -55.5c36 -12.667 61.5 -27.334 76.5 -44.001s22.5 -39.334 22.5 -68.001v-99v-6c0 -2 0.333008 -4 1 -6v-6v-6c0.666992 -9.33301 2.83398 -18.166 6.50098 -26.499
s11.167 -12.5 22.5 -12.5c10 0 17.333 5.16699 22 15.5s7 25.833 7 46.5v57h79v-56c0 -52.667 -12 -91.334 -36 -116.001s-61.333 -37 -112 -37c-47.333 0 -84.166 10.333 -110.499 31s-40.5 51 -42.5 91l-6 112c-2 37.333 -8.83301 62 -20.5 74s-35.5 18 -71.5 18l-104 1v0
zM307.997 395.005h117c42 -0.666992 73 7 93 23s30 40.667 30 74c0 32.667 -10.167 55.5 -30.5 68.5s-55.5 19.5 -105.5 19.5l-104 1v-186v0z" />
    <glyph glyph-name="S" unicode="S" horiz-adv-x="655" 
d="M601 667l-0.000976562 -240.001h-93c0 0.666992 -0.166992 1.83398 -0.5 3.50098s-0.5 3.16699 -0.5 4.5c-2 14.667 -4.16699 26.834 -6.5 36.501s-5.83301 18.834 -10.5 27.501c-1.33301 3.33301 -3.16602 6.83301 -5.49902 10.5l-7.5 11.5
c-15.333 22 -36.5 40.333 -63.5 55s-55.167 23 -84.5 25h-5.5h-5.5c-40 0 -72.5 -8.16699 -97.5 -24.5s-37.5 -37.833 -37.5 -64.5c0 -29.333 15.5 -50 46.5 -62s67.833 -22 110.5 -30l32.5 -6c11 -2 22.167 -4.33301 33.5 -7c55.333 -12 106.166 -31.5 152.499 -58.5
s69.5 -75.167 69.5 -144.5c0 -72.667 -23.667 -128.334 -71 -167.001s-115 -58 -203 -58h-10c-3.33301 0 -6.66602 0.333008 -9.99902 1c-35.333 1.33301 -69.833 8 -103.5 20s-63.834 29.667 -90.501 53l-21 -53h-79v248h94l8.5 -34.5c2.33301 -9 4.5 -16.833 6.5 -23.5
s4.16699 -12.334 6.5 -17.001s4.83301 -9 7.5 -13c1.33301 -2.66699 2.83301 -5 4.5 -7s3.5 -4.33301 5.5 -7c16.667 -22 41.334 -40 74.001 -54s67 -21 103 -21c37.333 0 67.833 8.16699 91.5 24.5s35.5 36.833 35.5 61.5c0 18 -3.66699 31.833 -11 41.5s-23 18.5 -47 26.5
c-10 3.33301 -21.5 6.66602 -34.5 9.99902l-44.5 11l-101 25c-56.667 12 -103.667 30.667 -141 56s-56 71 -56 137c0 68.667 24.5 123 73.5 163s114.833 60 197.5 60c40.667 0 76.667 -5.16699 108 -15.5s60.333 -27.166 87 -50.499l15 46h78v0z" />
    <glyph glyph-name="T" unicode="T" horiz-adv-x="681" 
d="M424 581l-0.000976562 -451.999c0 -17.333 4 -29.5 12 -36.5s22 -10.5 42 -10.5l64 1v-83h-403v83h66c20 -0.666992 34 2.5 42 9.5s12 18.833 12 35.5v453c-64.667 -0.666992 -104.667 -14.834 -120 -42.501s-24.666 -72.5 -27.999 -134.5l-91 1v262h641v-262h-92
c0.666992 4.66699 1 8.66699 1 12v7c0 52 -9.83301 91.167 -29.5 117.5s-49.167 39.5 -88.5 39.5h-6.5h-6.5c-2.66699 -0.666992 -5.16699 -1 -7.5 -1h-7.5v1z" />
    <glyph glyph-name="U" unicode="U" horiz-adv-x="787" 
d="M13 585l-0.000976562 82h368v-82h-52c-20 -0.666992 -34 -4.5 -42 -11.5s-12 -19.167 -12 -36.5v-302c0 -51.333 12.667 -90.333 38 -117s62 -40 110 -40c37.333 0 68.833 8 94.5 24s41.834 37.333 48.501 64c2.66699 10 4.5 21.333 5.5 34s1.5 27 1.5 43v295
c0 16.667 -4 28.5 -12 35.5s-22 10.5 -42 10.5l-43 1v82h290v-82h-32c-20.667 -0.666992 -35.167 -4.5 -43.5 -11.5s-12.5 -19.167 -12.5 -36.5v-302c0 -94.667 -24 -161 -72 -199s-118 -57 -210 -57c-80 0 -147.667 15.5 -203 46.5s-83 91.833 -83 182.5v330
c0 16.667 -4 28.5 -12 35.5s-22 10.5 -42 10.5l-43 1v0z" />
    <glyph glyph-name="V" unicode="V" horiz-adv-x="762" 
d="M426 170l129.999 333.999c5.33301 12 8.83301 21.333 10.5 28s2.5 12.334 2.5 17.001c0 10.667 -3.16699 18.5 -9.5 23.5s-16.833 7.5 -31.5 7.5l-52 1v86h296v-86c-37.333 -0.666992 -61.833 -7.16699 -73.5 -19.5s-20.834 -28.5 -27.501 -48.5
c-1.33301 -6 -3 -12 -5 -18s-4.33301 -12.333 -7 -19l-190 -476h-150l-205 504l-11 24c-3.33301 7.33301 -6.66602 13.666 -9.99902 18.999c-9.33301 15.333 -20.333 24.666 -33 27.999s-32.667 5 -60 5v87h375v-86h-48c-16.667 -0.666992 -28.334 -2.66699 -35.001 -6
s-10 -9.33301 -10 -18c0 -2.66699 0.333008 -5.66699 1 -9s1.66699 -6.33301 3 -9c0.666992 -1.33301 1.16699 -2.66602 1.5 -3.99902s0.833008 -2.66602 1.5 -3.99902c0.666992 -2 1.33398 -3.83301 2.00098 -5.5s1.33398 -3.5 2.00098 -5.5l133 -350v0z" />
    <glyph glyph-name="W" unicode="W" horiz-adv-x="1045" 
d="M529 376l-135.003 -376.001h-131l-177 505c-2 4 -3.83301 8.16699 -5.5 12.5s-3.16699 8.5 -4.5 12.5c-7.33301 17.333 -16 30 -26 38s-26.667 12 -50 12v87h325v-86h-37c-15.333 -0.666992 -25.666 -2.66699 -30.999 -6s-8 -9.66602 -8 -18.999
c0 -2.66699 0.5 -6.16699 1.5 -10.5s3.5 -12.166 7.5 -23.499l102 -310l112 309c-1.33301 2.66699 -2.66602 5.83398 -3.99902 9.50098s-2.33301 6.83398 -3 9.50098c-5.33301 12.667 -11.5 22.5 -18.5 29.5s-19.833 10.5 -38.5 10.5l-27 1v86h348v-86h-36
c-20.667 -0.666992 -34.5 -2.83398 -41.5 -6.50098s-10.5 -10.834 -10.5 -21.501c0 -2.66699 0.5 -6.5 1.5 -11.5s2.83301 -11.5 5.5 -19.5l105 -310l104 311c3.33301 6.66699 5.5 12.5 6.5 17.5s1.5 9.16699 1.5 12.5c0 11.333 -3 18.666 -9 21.999s-20.333 5 -43 5l-28 1
v86h260v-86h-13c-11.333 -0.666992 -20.5 -3 -27.5 -7s-13.833 -12 -20.5 -24c-2.66699 -5.33301 -5.66699 -11.833 -9 -19.5s-6.66602 -16.5 -9.99902 -26.5l-180 -504h-128l-128 376v0z" />
    <glyph glyph-name="X" unicode="X" horiz-adv-x="765" 
d="M472 361l165.999 -208c4.66699 -6.66699 9.33398 -12.667 14.001 -18s9.33398 -10.333 14.001 -15c11.333 -11.333 23.666 -20 36.999 -26s30.333 -9 51 -9v-85h-382v86h50c11.333 -0.666992 19.833 0.5 25.5 3.5s8.5 7.83301 8.5 14.5c0 3.33301 -1 6.66602 -3 9.99902
s-4.33301 6.66602 -7 9.99902l-3.5 3.5c-1 1 -1.83301 2.16699 -2.5 3.5l-89 115l-93 -107c-1.33301 -2 -3 -4.16699 -5 -6.5s-4 -4.5 -6 -6.5l-5.5 -7.5c-1.66699 -2.33301 -3.16699 -4.83301 -4.5 -7.5c-1.33301 -2 -2.16602 -3.83301 -2.49902 -5.5
s-0.5 -3.16699 -0.5 -4.5c0 -6.66699 1.83301 -11 5.5 -13s11.5 -3 23.5 -3l49 1v-86h-299v86c20.667 -0.666992 37.667 2 51 8s26 14.333 38 25c5.33301 4.66699 10.5 9.83398 15.5 15.501l15.5 17.5l154 170l-164 211l-15 16.5c-4.66699 5 -9.33398 9.16699 -14.001 12.5
c-10.667 8 -22.167 13 -34.5 15s-27.833 3 -46.5 3v87h384v-86h-55c-8.66699 -0.666992 -15.334 -2 -20.001 -4s-7 -5 -7 -9c0 -2.66699 1.16699 -6.5 3.5 -11.5s5.5 -10.167 9.5 -15.5l81 -105l99 106c4.66699 4 8.16699 8.16699 10.5 12.5s3.5 7.83301 3.5 10.5
c0 4.66699 -2.16699 8.33398 -6.5 11.001s-10.166 4 -17.499 4l-48 1v86h304v-86h-26c-10 -0.666992 -18.667 -1.5 -26 -2.5s-14 -3.16699 -20 -6.5c-8 -4 -16.333 -10 -25 -18s-19.667 -19 -33 -33l-152 -160v0z" />
    <glyph glyph-name="Y" unicode="Y" horiz-adv-x="737" 
d="M303 262l-191 262.996c-3.33301 4 -6.33301 7.83301 -9 11.5s-5.66699 6.83398 -9 9.50098c-12 14 -25.167 23.167 -39.5 27.5s-32.5 6.5 -54.5 6.5v87h387v-86h-51c-12.667 -0.666992 -22 -2.5 -28 -5.5s-9 -7.5 -9 -13.5c0 -3.33301 0.833008 -6.66602 2.5 -9.99902
s3.5 -6.33301 5.5 -9c1.33301 -1.33301 2.33301 -2.5 3 -3.5s1.33398 -2.16699 2.00098 -3.5l107 -155l99 163c3.33301 4.66699 5.66602 8.83398 6.99902 12.501s2 6.83398 2 9.50098c0 5.33301 -2 9 -6 11s-11.667 3 -23 3l-49 1v86h288v-86h-19
c-8.66699 -0.666992 -16.167 -1.5 -22.5 -2.5s-12.5 -3.5 -18.5 -7.5c-8.66699 -5.33301 -18 -15 -28 -29s-24 -35 -42 -63l-139 -217v-133c0 -17.333 4 -29.5 12 -36.5s22 -10.5 42 -10.5l62 1v-83h-397v83h62c20 -0.666992 34 2.5 42 9.5s12 18.833 12 35.5v134v0z" />
    <glyph glyph-name="Z" unicode="Z" horiz-adv-x="653" 
d="M623 667l-0.000976562 -81.001l-394 -505h142c76 -0.666992 122 15.833 138 49.5s25.667 84.834 29 153.501l92 1l-7 -285h-599v81l392 500h-144c-61.333 -0.666992 -98.5 -12.5 -111.5 -35.5s-21.167 -55.833 -24.5 -98.5c-0.666992 -2 -1 -3.66699 -1 -5v-4
c-0.666992 -6 -1.16699 -12.333 -1.5 -19s-1.16602 -13.667 -2.49902 -21l-92 1l6 268h578v0z" />
    <glyph glyph-name="bracketleft" unicode="[" horiz-adv-x="364" 
d="M213 597v-716h104v-81h-239v880h239v-83h-104v0z" />
    <glyph glyph-name="backslash" unicode="\" horiz-adv-x="395" 
d="M20 667h126l229 -867h-126l-229 867v0z" />
    <glyph glyph-name="bracketright" unicode="]" horiz-adv-x="364" 
d="M151 597h-103v83h239v-880h-239v81h103v716v0z" />
    <glyph glyph-name="asciicircum" unicode="^" horiz-adv-x="500" 
d="M141 334h-136l160 336h171l160 -336h-136l-109 232l-110 -232v0z" />
    <glyph glyph-name="underscore" unicode="_" horiz-adv-x="500" 
d="M0 -46h500v-117h-500v117v0z" />
    <glyph glyph-name="grave" unicode="`" horiz-adv-x="500" 
d="M357 533l-73.999 0.000976562l-112 106c-8.66699 8 -15.334 15.167 -20.001 21.5s-7 11.166 -7 14.499c0 5.33301 2 9.5 6 12.5s10 4.5 18 4.5l129 1l60 -160v0z" />
    <glyph glyph-name="a" unicode="a" horiz-adv-x="589" 
d="M512 176l67.002 -0.000976562v-57c0 -47.333 -10.167 -81.833 -30.5 -103.5s-52.166 -32.5 -95.499 -32.5c-34 0 -61 5.66699 -81 17s-35.333 29.333 -46 54c-20 -24 -43 -41.833 -69 -53.5s-54.667 -17.5 -86 -17.5c-44.667 0 -80 11.667 -106 35s-39 55.333 -39 96
c0 49.333 15.5 83 46.5 101s65.167 31.333 102.5 40l16.5 4c5.66699 1.33301 11.167 2.33301 16.5 3c30.667 6.66699 57.5 14.834 80.5 24.501s34.5 27.5 34.5 53.5c0 25.333 -9.5 44.666 -28.5 57.999s-46.833 20 -83.5 20c-8.66699 0 -15.834 -0.166992 -21.501 -0.5
s-10.834 -1.16602 -15.501 -2.49902c-3.33301 -0.666992 -6.83301 -1.83398 -10.5 -3.50098l-12.5 -5.5c16 -6 27.833 -13.5 35.5 -22.5s11.5 -20.167 11.5 -33.5c0 -21.333 -7 -38.5 -21 -51.5s-32.333 -19.5 -55 -19.5s-41.334 8.33301 -56.001 25s-22 37.667 -22 63
c0 39.333 17.5 69.833 52.5 91.5s83.833 32.5 146.5 32.5c81.333 0 139.333 -12.667 174 -38s52 -67 52 -125v-221c0 -12.667 1.5 -21.5 4.5 -26.5s8.16699 -7.5 15.5 -7.5c8.66699 0 14.667 3.33301 18 10s5 18.334 5 35.001v58v0zM321.002 222.999
c-4 -2 -7.8291 -3.66699 -11.4961 -5l-11.5 -4l-11.5 -4l-11.5 -4c-4.66699 -2 -9.33398 -3.83301 -14.001 -5.5s-9.66699 -3.16699 -15 -4.5c-0.666992 0 -1.33398 -0.166992 -2.00098 -0.5s-1.33398 -0.5 -2.00098 -0.5c-17.333 -4.66699 -32.833 -11 -46.5 -19
s-20.5 -23 -20.5 -45c0 -16.667 5.16699 -30.167 15.5 -40.5s24.166 -15.5 41.499 -15.5c23.333 0 44 7.5 62 22.5s27 31.833 27 50.5v75v0z" />
    <glyph glyph-name="b" unicode="b" horiz-adv-x="634" 
d="M252 666l-0.00195312 -244.999l19.5 19c6.33301 6 12.5 11.333 18.5 16c16 12.667 32.833 21.5 50.5 26.5s38.5 7.5 62.5 7.5c70.667 0 120.834 -25.167 150.501 -75.5s45.5 -105.833 47.5 -166.5v-8v-8c0 -76.667 -19.5 -137.334 -58.5 -182.001s-91.833 -67 -158.5 -67
c-36.667 0 -68 7 -94 21s-46.667 35.333 -62 64l-26 -68h-98v540c0 16.667 -2.66699 28.167 -8 34.5s-14.666 9.5 -27.999 9.5l-41 1v81h225v0zM249.998 232.001c0 -52 8.33203 -91.668 24.999 -119.001s40.334 -41 71.001 -41c31.333 0 55.333 14.333 72 43
s25 69.334 25 122.001c0 48.667 -8 87.167 -24 115.5s-37.667 42.5 -65 42.5c-33.333 0 -59 -14.167 -77 -42.5s-27 -68.833 -27 -121.5v1z" />
    <glyph glyph-name="c" unicode="c" horiz-adv-x="545" 
d="M414 186h98.002c-4.66699 -61.333 -28 -110.5 -70 -147.5s-94.667 -55.5 -158 -55.5c-79.333 0 -141 22.5 -185 67.5s-66 107.833 -66 188.5c0 76.667 23.667 137.667 71 183s111 68 191 68c59.333 0 107.5 -14 144.5 -42s55.5 -64.333 55.5 -109
c0 -24.667 -7.33301 -44.5 -22 -59.5s-34 -22.5 -58 -22.5c-22.667 0 -41.167 6.66699 -55.5 20s-21.5 30.333 -21.5 51c0 6 0.5 11.5 1.5 16.5s2.5 9.5 4.5 13.5c2.66699 5.33301 6.33398 10.666 11.001 15.999s10.667 11.333 18 18
c-8.66699 4.66699 -16.167 8.33398 -22.5 11.001s-12.5 4.66699 -18.5 6c-2.66699 0 -5.33398 0.166992 -8.00098 0.5s-5.66699 0.5 -9 0.5c-38 0 -68.167 -15.5 -90.5 -46.5s-33.5 -73.167 -33.5 -126.5s10.167 -95 30.5 -125s48.166 -45 83.499 -45
c29.333 0 54.166 11 74.499 33s31.833 50.333 34.5 85v1z" />
    <glyph glyph-name="d" unicode="d" horiz-adv-x="636" 
d="M532 666l0.00292969 -539.997c0 -17.333 2.66699 -29.333 8 -36s14.666 -10 27.999 -10l40 1v-81h-216v55c-20.667 -26 -43.5 -44.5 -68.5 -55.5s-54.833 -16.5 -89.5 -16.5c-60.667 0 -109.334 22.5 -146.001 67.5s-55 104.5 -55 178.5
c0 75.333 19.667 137.666 59 186.999s89.333 74 150 74c19.333 0 36.333 -2.16699 51 -6.5s29 -11.5 43 -21.5c7.33301 -4.66699 14.666 -10.334 21.999 -17.001s14.666 -14.334 21.999 -23.001v118c0 16.667 -2.66699 28.167 -8 34.5s-14.666 9.5 -27.999 9.5l-43 1v81h231
v0zM191.003 227.003c0 -52.667 8.16797 -92.5 24.501 -119.5s40.166 -40.5 71.499 -40.5c30.667 0 55.5 15 74.5 45s28.5 69 28.5 117c0 53.333 -8.5 94 -25.5 122s-41.167 42 -72.5 42s-56 -14.833 -74 -44.5s-27 -70.5 -27 -122.5v1z" />
    <glyph glyph-name="e" unicode="e" horiz-adv-x="563" 
d="M529 220l-343.999 0.000976562c4 -51.333 16 -89.5 36 -114.5s48.667 -37.5 86 -37.5c30 0 55.167 8.16699 75.5 24.5s35.166 40.166 44.499 71.499l96 1c-6.66699 -55.333 -30.334 -99.5 -71.001 -132.5s-91.667 -49.5 -153 -49.5c-86 0 -151.833 22.333 -197.5 67
s-68.5 109 -68.5 193c0 74 22.833 133.667 68.5 179s105.834 68 180.501 68c78 0 138.833 -22.333 182.5 -67s65.5 -107 65.5 -187v-2.5v-3.5c-0.666992 -1.33301 -1 -3 -1 -5v-6v1zM377.001 296.001c0 28.667 -7.83203 54.833 -23.499 78.5s-39.834 35.5 -72.501 35.5
c-28.667 0 -51.167 -9.83301 -67.5 -29.5s-25.5 -48.167 -27.5 -85.5l191 1v0z" />
    <glyph glyph-name="f" unicode="f" horiz-adv-x="389" 
d="M251 477l116.001 -0.00292969v-82h-111v-269c0 -17.333 2.66699 -29.333 8 -36s14.666 -10 27.999 -10l59 1v-81h-321v81h42c13.333 -0.666992 22.666 2.33301 27.999 9s8 18.334 8 35.001v270h-78v82h78v7.5c0 2.33301 0.333008 4.16602 1 5.49902
c0.666992 38 2.83398 65.333 6.50098 82s10.834 31.334 21.501 44.001c1.33301 1.33301 2.66602 2.83301 3.99902 4.5s2.66602 3.16699 3.99902 4.5c15.333 16.667 33.5 29.167 54.5 37.5s42.5 13.5 64.5 15.5c3.33301 0.666992 6.83301 1 10.5 1h10.5
c36.667 0 65.834 -9 87.501 -27s32.5 -42 32.5 -72c0 -19.333 -5.83301 -35.166 -17.5 -47.499s-26.834 -18.5 -45.501 -18.5c-14 0 -25.667 5.16699 -35 15.5s-14 23.5 -14 39.5v7c0 2 0.333008 4 1 6c0.666992 4 1.83398 8.16699 3.50098 12.5s4.16699 9.83301 7.5 16.5
c-2 2 -3.83301 3.33301 -5.5 4s-3.16699 1.33398 -4.5 2.00098h-2.5h-2.5c-14 0 -24 -6.83301 -30 -20.5s-9 -36.167 -9 -67.5v-52v0z" />
    <glyph glyph-name="g" unicode="g" horiz-adv-x="623" 
d="M423 449c2 2 4.00879 4.17285 6.00879 6.50586s4 4.83301 6 7.5c14.667 15.333 29.5 26.333 44.5 33s32.5 10 52.5 10c25.333 0 46.333 -7.33301 63 -22s25 -33.667 25 -57c0 -20 -6 -36.667 -18 -50s-27.333 -20 -46 -20c-15.333 0 -28.333 4.83301 -39 14.5
s-16 21.167 -16 34.5c0 4 0.166992 7.66699 0.5 11s1.16602 6.66602 2.49902 9.99902s3.16602 6.66602 5.49902 9.99902s5.16602 7 8.49902 11c-2.66699 1.33301 -4.83398 2.16602 -6.50098 2.49902s-3.5 0.5 -5.5 0.5h-0.5h-1.5c-8.66699 0 -17.334 -2.66699 -26.001 -8
s-16.667 -13 -24 -23c14.667 -16 25 -32.833 31 -50.5s9 -39.5 9 -65.5c0 -56.667 -20.333 -101.667 -61 -135s-96.334 -50 -167.001 -50c-20.667 0 -40.5 1.5 -59.5 4.5s-36.167 7.5 -51.5 13.5c-9.33301 -4.66699 -16 -9.66699 -20 -15s-6 -12 -6 -20
c0 -12.667 4.66699 -21.834 14 -27.501s23.666 -8.5 42.999 -8.5h2h2l1 0.5c0.666992 0.333008 1.33398 0.5 2.00098 0.5l203 6c1.33301 -0.666992 2.83301 -1 4.5 -1s3.16699 0.333008 4.5 1h4h4c42 0 80.333 -7 115 -21s52 -46.333 52 -97
c0 -53.333 -19.833 -90.5 -59.5 -111.5s-83.167 -34.167 -130.5 -39.5c-21.333 -2.66699 -42.333 -4.16699 -63 -4.5s-39.667 -0.5 -57 -0.5c-89.333 0 -152.833 6.83301 -190.5 20.5s-56.5 37.167 -56.5 70.5c0 17.333 5.16699 31.666 15.5 42.999s27.5 21.666 51.5 30.999
c-22 6.66699 -38.333 16.667 -49 30s-16 31.333 -16 54c0 26 6.66699 46 20 60s29.666 27 48.999 39c2.66699 2 5.5 3.83301 8.5 5.5l9.5 5.5c-24.667 14 -42.834 32.833 -54.501 56.5s-17.5 52.834 -17.5 87.501c0 59.333 20.667 105.666 62 138.999s98.333 50 171 50
c20.667 0 39.167 -1.33301 55.5 -4s32.166 -7.33398 47.499 -14.001c7.33301 -2.66699 15 -6.16699 23 -10.5s16 -9.16602 24 -14.499v1zM162.009 -45.9941c-9.33301 -5.33301 -16.332 -11.332 -20.999 -17.999s-7 -14.334 -7 -23.001c0 -18 11.167 -31.167 33.5 -39.5
s57.166 -12.5 104.499 -12.5c62.667 0 107 3.66699 133 11s39 20.666 39 39.999c0 16.667 -8 27.834 -24 33.501s-48.333 8.5 -97 8.5h-161v0zM184.01 308.007c0 -39.333 7.50098 -70.333 22.501 -93s34.833 -34 59.5 -34c24 0 43.5 11.5 58.5 34.5s22.5 52.833 22.5 89.5
c0 37.333 -7.5 67.333 -22.5 90s-34.833 34 -59.5 34s-44.334 -11 -59.001 -33s-22 -51.667 -22 -89v1z" />
    <glyph glyph-name="h" unicode="h" horiz-adv-x="675" 
d="M256 667v-251.003c22.667 26.667 46.334 45.834 71.001 57.501s53.667 17.5 87 17.5c58.667 0 99.834 -13.833 123.501 -41.5s35.5 -69.167 35.5 -124.5v-199c0 -17.333 2.66699 -29.333 8 -36s15 -10 29 -10l41 1v-81h-292v81h30
c13.333 -0.666992 22.666 2.33301 27.999 9s8 18.334 8 35.001v178c0 32.667 -5.83301 56.5 -17.5 71.5s-31.167 22.5 -58.5 22.5c-32.667 0 -56.334 -10 -71.001 -30s-22 -52.333 -22 -97v-144c0 -17.333 2.66699 -29.333 8 -36s15 -10 29 -10l26 1v-81h-289v81h42
c13.333 -0.666992 22.666 2.33301 27.999 9s8 18.334 8 35.001v416c0 16 -2.66699 27.167 -8 33.5s-14.666 9.5 -27.999 9.5l-42 1v82h226v0z" />
    <glyph glyph-name="i" unicode="i" horiz-adv-x="358" 
d="M257 477l0.000976562 -351.001c0 -17.333 2.66699 -29.333 8 -36s14.666 -10 27.999 -10l42 1v-81h-305v81h43c13.333 -0.666992 22.666 2.33301 27.999 9s8 18.334 8 35.001v226c0 16 -2.66699 27.167 -8 33.5s-14.666 9.5 -27.999 9.5l-43 1v82h227v0zM177.001 689.999
c23.333 -0.666992 43.166 -9.00195 59.499 -25.002s24.5 -35.667 24.5 -59s-8.16699 -43.166 -24.5 -59.499s-36.166 -24.5 -59.499 -24.5c-22.667 0 -42.334 8.33301 -59.001 25s-25 36.334 -25 59.001c0 23.333 8.33301 43 25 59s36.334 24 59.001 24v1z" />
    <glyph glyph-name="j" unicode="j" horiz-adv-x="340" 
d="M267 477v-511.996c0 -56 -15 -100 -45 -132s-71.667 -48 -125 -48c-42.667 0 -76 10 -100 30s-36 47.667 -36 83c0 20.667 6.5 38 19.5 52s28.833 21 47.5 21c17.333 0 31.666 -5.83301 42.999 -17.5s17 -26.834 17 -45.501c0 -10.667 -2.83301 -20.167 -8.5 -28.5
s-13.167 -14.5 -22.5 -18.5c0.666992 -0.666992 1.16699 -1.33398 1.5 -2.00098s0.5 -1.33398 0.5 -2.00098c2.66699 -4 5.5 -6.66699 8.5 -8s7.16699 -2 12.5 -2c14.667 0 24.667 6.16699 30 18.5s8 36.166 8 71.499v414c0 16.667 -2.66699 28.167 -8 34.5
s-14.666 9.5 -27.999 9.5l-57 1v81h242v0zM183 690.004c23.333 -0.666992 43.166 -9 59.499 -25s24.5 -35.667 24.5 -59c0 -22.667 -8.16699 -42.167 -24.5 -58.5s-36.166 -24.5 -59.499 -24.5c-22.667 0 -42.167 8.16699 -58.5 24.5s-24.5 35.833 -24.5 58.5
c0 23.333 8.16699 43 24.5 59s35.833 24 58.5 24v1z" />
    <glyph glyph-name="k" unicode="k" horiz-adv-x="663" 
d="M257 667l-0.000976562 -400.004l133 98c2 1.33301 3.83301 2.83301 5.5 4.5l4.5 4.5c0.666992 1.33301 1.33398 2.83301 2.00098 4.5s1 3.5 1 5.5c0 4.66699 -1.5 7.5 -4.5 8.5s-9.5 1.5 -19.5 1.5l-46 1v82h307v-82c-31.333 -0.666992 -55.833 -3.16699 -73.5 -7.5
s-33.834 -11.166 -48.501 -20.499c-11.333 -6.66699 -23.166 -15.167 -35.499 -25.5s-27.5 -22.166 -45.5 -35.499l131 -183l1.5 -3c0.333008 -0.666992 0.833008 -1.33398 1.5 -2.00098c1.33301 -1.33301 2.5 -2.66602 3.5 -3.99902s1.83301 -2.66602 2.5 -3.99902
c5.33301 -8 11.333 -15.167 18 -21.5s15 -9.5 25 -9.5l20 1v-80h-288v81h25c9.33301 -0.666992 16 0 20 2s6 5.33301 6 10c0 2 -0.333008 3.83301 -1 5.5s-1.66699 3.16699 -3 4.5c-0.666992 1.33301 -1.16699 2.5 -1.5 3.5s-0.833008 1.83301 -1.5 2.5l-78 111l-61 -46v-48
c0 -23.333 4.5 -36.833 13.5 -40.5s22.167 -5.5 39.5 -5.5v-80h-280v81h42c14 -0.666992 23.667 2.33301 29 9s8 18.334 8 35.001v416c0 16 -2.66699 27.167 -8 33.5s-15 9.5 -29 9.5l-42 1v82h227v0z" />
    <glyph glyph-name="l" unicode="l" horiz-adv-x="360" 
d="M257 667v-541.001c0 -17.333 2.66699 -29.333 8 -36s14.333 -10 27 -10l45 1v-81h-307v81h42c14 -0.666992 23.667 2.33301 29 9s8 18.334 8 35.001v416c0 16 -2.66699 27.167 -8 33.5s-15 9.5 -29 9.5l-42 1v82h227v0z" />
    <glyph glyph-name="m" unicode="m" horiz-adv-x="973" 
d="M247 477l-2.99902 -59.001c14.667 12.667 28.167 23.667 40.5 33s24.5 16.666 36.5 21.999c12.667 6 25.667 10.333 39 13s28.333 4 45 4c34 0 62.667 -6.16699 86 -18.5s43 -32.166 59 -59.499l9.5 11c3 3.33301 6.16699 6.33301 9.5 9c22 21.333 44.5 36.333 67.5 45
s50.5 13 82.5 13c44 0 79.667 -12.167 107 -36.5s41 -56.166 41 -95.499v-232c0 -17.333 2.66699 -29.333 8 -36s15 -10 29 -10l42 1v-81h-285v81c20.667 -0.666992 35.5 1.16602 44.5 5.49902s13.5 17.166 13.5 38.499v188c0 32 -5.16699 54.5 -15.5 67.5
s-28.5 19.5 -54.5 19.5c-29.333 0 -51.333 -9.5 -66 -28.5s-22 -47.5 -22 -85.5v-160c0 -17.333 2.66699 -29.333 8 -36s15 -10 29 -10l23 1v-81h-268v81c20 -0.666992 35 0.833008 45 4.5s15 16.834 15 39.501v188c0 30.667 -5.33301 52.834 -16 66.501s-28 20.5 -52 20.5
c-30 0 -52.333 -9.33301 -67 -28s-22 -47.334 -22 -86.001v-160c0 -17.333 2.66699 -29.333 8 -36s14.666 -10 27.999 -10l24 1v-81h-286v81h42c13.333 -0.666992 22.666 2.33301 27.999 9s8 18.334 8 35.001v226c0 16 -2.66699 27.167 -8 33.5s-14.666 9.5 -27.999 9.5
l-42 1v82h217v0z" />
    <glyph glyph-name="n" unicode="n" horiz-adv-x="673" 
d="M250 477l-2.99609 -73.0039c11.333 12.667 22.166 23.834 32.499 33.501s20.5 17.834 30.5 24.501c15.333 10 31.166 17.167 47.499 21.5s34.833 6.5 55.5 6.5c49.333 0 88 -12.333 116 -37s42 -59.334 42 -104.001v-223c0 -17.333 2.66699 -29.333 8 -36s15 -10 29 -10
l42 1v-81h-290v81h27c13.333 -0.666992 22.666 2.33301 27.999 9s8 18.334 8 35.001v176c0 34 -5.5 58.333 -16.5 73s-29.5 22 -55.5 22c-32.667 0 -56.5 -9.66699 -71.5 -29s-22.5 -49.666 -22.5 -90.999v-150c0 -17.333 2.66699 -29.333 8 -36s14.666 -10 27.999 -10l25 1
v-81h-285v81h40c13.333 -0.666992 22.666 2.33301 27.999 9s8 18.334 8 35.001v226c0 16 -2.66699 27.167 -8 33.5s-14.666 9.5 -27.999 9.5l-40 1v82h217v0z" />
    <glyph glyph-name="o" unicode="o" horiz-adv-x="595" 
d="M33 241c3.33301 78.667 28.166 139.833 74.499 183.5s109.833 65.5 190.5 65.5c82.667 0 147.334 -22.667 194.001 -68s70 -107.666 70 -186.999c0 -76.667 -23.833 -137.834 -71.5 -183.501s-111.5 -68.5 -191.5 -68.5c-82.667 0 -147.667 21.833 -195 65.5
s-71 107.5 -71 191.5v1zM191 241.999c0 -58.667 9 -103.333 27 -134s44.333 -46 79 -46s61.167 15.333 79.5 46s27.5 75.334 27.5 134.001c0 51.333 -9.5 92.166 -28.5 122.499s-44.833 45.5 -77.5 45.5c-33.333 0 -59.5 -14.833 -78.5 -44.5s-28.5 -71.167 -28.5 -124.5v1z
" />
    <glyph glyph-name="p" unicode="p" horiz-adv-x="635" 
d="M255 477l-3 -58.001c21.333 24.667 43.833 42.834 67.5 54.501s51.834 17.5 84.501 17.5c63.333 0 112 -21.5 146 -64.5s51 -104.5 51 -184.5c0 -79.333 -18 -142.166 -54 -188.499s-85 -69.5 -147 -69.5c-32.667 0 -60 4.33301 -82 13s-43 23.334 -63 44.001v-116
c0 -16.667 2.66699 -28.334 8 -35.001s14.666 -10 27.999 -10h48v-81h-309v81h40c14 0 23.667 3.16699 29 9.5s8 18.166 8 35.499v426c0 16.667 -2.66699 28.167 -8 34.5s-15 9.5 -29 9.5l-40 1v81h225v0zM253 241.999c0 -9.33301 0.167969 -18.6689 0.500977 -28.002
s1.16602 -19 2.49902 -29c3.33301 -27.333 11.5 -52.666 24.5 -75.999s35.5 -35 67.5 -35c31.333 0 55 14.333 71 43s24 70.667 24 126c0 48.667 -7.66699 86.5 -23 113.5s-37 40.5 -65 40.5c-32.667 0 -57.5 -13.167 -74.5 -39.5s-26.167 -65.166 -27.5 -116.499v1z" />
    <glyph glyph-name="q" unicode="q" horiz-adv-x="630" 
d="M380 477l223.004 -0.000976562v-81h-40c-13.333 -0.666992 -22.5 -4.16699 -27.5 -10.5s-7.5 -18.166 -7.5 -35.499v-425c0 -17.333 2.5 -29.166 7.5 -35.499s14.167 -9.5 27.5 -9.5h40v-81h-307v81h48c13.333 0 22.666 3.33301 27.999 10s8 18.334 8 35.001v117
c-16.667 -20.667 -35.834 -35.5 -57.501 -44.5s-47.834 -13.5 -78.501 -13.5c-66.667 0 -118.5 21.667 -155.5 65s-55.5 104.666 -55.5 183.999c0 77.333 19.167 139.666 57.5 186.999s89.166 71 152.499 71c30 0 56.5 -5.83301 79.5 -17.5s43.167 -29.5 60.5 -53.5l-3 57v0
zM191.004 233.999c0 -55.333 8.33301 -96.334 25 -123.001s41.667 -40 75 -40c29.333 0 52 14.667 68 44s24 70 24 122c0 46.667 -8.33301 84.334 -25 113.001s-38.667 43 -66 43c-32.667 0 -57.667 -13.833 -75 -41.5s-26 -67.167 -26 -118.5v1z" />
    <glyph glyph-name="r" unicode="r" horiz-adv-x="497" 
d="M259 477l-4.99902 -71.001c12 14.667 22.667 27.167 32 37.5s18.666 18.5 27.999 24.5c10 7.33301 20.333 12.333 31 15s22.667 4 36 4c30 0 54 -10.167 72 -30.5s27 -47.5 27 -81.5c0 -26 -7.5 -47 -22.5 -63s-34.833 -24 -59.5 -24c-20.667 0 -37.667 6.83301 -51 20.5
s-20 30.5 -20 50.5c0 2.66699 0.166992 5.5 0.5 8.5s0.833008 5.83301 1.5 8.5c1.33301 6 3.83301 12.167 7.5 18.5s8.83398 13.833 15.501 22.5c-26 0 -45.5 -10.667 -58.5 -32s-22.167 -44.666 -27.5 -69.999c-2.66699 -12.667 -4.5 -25.334 -5.5 -38.001
s-1.5 -23.667 -1.5 -33v-118c0 -17.333 2.66699 -29.333 8 -36s14.666 -10 27.999 -10l57 1v-81h-322v81h45c13.333 -0.666992 22.666 2.33301 27.999 9s8 18.334 8 35.001v226c0 16 -2.66699 27.167 -8 33.5s-14.666 9.5 -27.999 9.5l-45 1v82h229v0z" />
    <glyph glyph-name="s" unicode="s" horiz-adv-x="514" 
d="M462 476l0.000976562 -167.999h-80c-12 33.333 -30.333 58.833 -55 76.5s-54.667 26.5 -90 26.5c-21.333 0 -38.833 -3.83301 -52.5 -11.5s-20.5 -17.834 -20.5 -30.501c0 -17.333 9.5 -29.833 28.5 -37.5s42.167 -14.167 69.5 -19.5c9.33301 -2 19.166 -4 29.499 -6
s20.5 -4.33301 30.5 -7c39.333 -9.33301 75.5 -25 108.5 -47s49.5 -60 49.5 -114c0 -48.667 -17.167 -86.667 -51.5 -114s-82.166 -41 -143.499 -41c-32 0 -59.167 3 -81.5 9s-43.833 16.333 -64.5 31l-10.5 8c-3.66699 2.66699 -7.16699 5.66699 -10.5 9l-9 -40h-76v180h76
c13.333 -40 32.5 -69.667 57.5 -89s58.833 -29 101.5 -29c23.333 0 42 4.16699 56 12.5s21 19.5 21 33.5c0 18 -10 31.167 -30 39.5s-44 15.5 -72 21.5l-26.5 6l-27.5 6c-38.667 9.33301 -74.334 24.333 -107.001 45s-49 56 -49 106s17 88.833 51 116.5
s81.667 41.5 143 41.5c32.667 0 61.167 -4 85.5 -12s47.5 -21 69.5 -39l9 37h71v0z" />
    <glyph glyph-name="t" unicode="t" horiz-adv-x="393" 
d="M225 646v-172h121v-82h-121v-276c0 -18.667 2.16699 -31.834 6.5 -39.501s11.833 -11.5 22.5 -11.5c11.333 0 19.5 4.33301 24.5 13s7.5 23 7.5 43v77h67v-89c0 -41.333 -11 -72.666 -33 -93.999s-54.333 -32 -97 -32c-47.333 0 -83.5 10.5 -108.5 31.5
s-37.5 52.167 -37.5 93.5v284h-71v74c48 11.333 81.5 32 100.5 62s28.5 69 28.5 117l90 1v0z" />
    <glyph glyph-name="u" unicode="u" horiz-adv-x="670" 
d="M563 477v-351c0 -17.333 2.66699 -29.333 8 -36s14.666 -10 27.999 -10l44 1v-81h-228v66c-7.33301 -9.33301 -14.333 -17.5 -21 -24.5s-13.334 -13.5 -20.001 -19.5c-16.667 -14 -34 -24 -52 -30s-38.667 -9 -62 -9c-50.667 0 -89.167 12.333 -115.5 37
s-39.5 61 -39.5 109v221c0 16.667 -2.66699 28.167 -8 34.5s-14.666 9.5 -27.999 9.5l-39 1v82h223v-295c0 -40 5.33301 -67.333 16 -82s30.334 -22 59.001 -22c29.333 0 51.166 10 65.499 30s21.5 50 21.5 90v152c0 16.667 -2.66699 28.167 -8 34.5
s-14.666 9.5 -27.999 9.5l-42 1v82h226v0z" />
    <glyph glyph-name="v" unicode="v" horiz-adv-x="577" 
d="M320 146l87 212.001c0.666992 0.666992 1.16699 1.5 1.5 2.5s0.833008 2.16699 1.5 3.5c1.33301 3.33301 2.5 6.5 3.5 9.5s1.5 6.16699 1.5 9.5c0 4.66699 -1.5 7.66699 -4.5 9s-9.16699 2 -18.5 2l-38 1v82h223v-82h-22c-10.667 -0.666992 -19.167 -2.16699 -25.5 -4.5
s-11.833 -7.83301 -16.5 -16.5c-2 -2.66699 -4 -6 -6 -10s-4 -8.66699 -6 -14l-147 -350h-132l-142 358c-2 4 -3.83301 7.83301 -5.5 11.5s-3.16699 6.83398 -4.5 9.50098c-4 6 -8 10 -12 12s-9 3 -15 3l-36 1v82h299v-82h-38
c-11.333 -0.666992 -19.5 -2.33398 -24.5 -5.00098s-7.5 -7.33398 -7.5 -14.001c0 -2.66699 0.5 -6 1.5 -10s2.83301 -9.33301 5.5 -16l77 -204v0z" />
    <glyph glyph-name="w" unicode="w" horiz-adv-x="863" 
d="M437 269l-100.003 -269.001h-124l-123 361c-0.666992 0.666992 -1.16699 1.66699 -1.5 3s-0.833008 2.66602 -1.5 3.99902c-4 10.667 -8.16699 18 -12.5 22s-10.166 6 -17.499 6l-43 1v80h283v-80h-38c-8.66699 -0.666992 -14.5 -2.16699 -17.5 -4.5
s-4.5 -6.16602 -4.5 -11.499c0 -2 0.333008 -4 1 -6l2 -6c0 -1.33301 0.333008 -2.83301 1 -4.5s1 -3.16699 1 -4.5l67 -205l74 205l4.5 12c1 2.66699 1.5 5 1.5 7v0.5v1.5c0 5.33301 -1.66699 8.83301 -5 10.5s-9.66602 2.5 -18.999 2.5l-28 1v82h274v-82h-34
c-8 -0.666992 -14 -2.16699 -18 -4.5s-6 -6.16602 -6 -11.499v-0.5v-0.5c0 -2 0.333008 -4.16699 1 -6.5s2 -6.5 4 -12.5l67 -204l72 205c2 4.66699 3.33301 8 4 10s1 3.66699 1 5v0.5v1.5c0 6 -2 10.333 -6 13s-10.667 4 -20 4l-27 1v82h208v-82h-22
c-16 -0.666992 -27.667 -6.5 -35 -17.5s-13.666 -23.167 -18.999 -36.5c0 -1.33301 -0.166992 -2.5 -0.5 -3.5s-0.833008 -1.83301 -1.5 -2.5c-0.666992 -2 -1.5 -4.16699 -2.5 -6.5s-1.83301 -4.5 -2.5 -6.5l-119 -322h-127l-91 269v0z" />
    <glyph glyph-name="x" unicode="x" horiz-adv-x="624" 
d="M229 230l-112.002 128.998c-6 6.66699 -11.333 12.167 -16 16.5s-9 7.83301 -13 10.5c-5.33301 3.33301 -11 5.5 -17 6.5s-13.667 1.5 -23 1.5l-27 1v82h311v-82h-34c-6 -0.666992 -10.333 -1.66699 -13 -3s-4 -3.66602 -4 -6.99902c0 -2.66699 2.83301 -7.5 8.5 -14.5
s11.834 -14.167 18.501 -21.5l2 -2l2 -2l17.5 -19c5.66699 -6 9.5 -10.333 11.5 -13l65 60c2.66699 1.33301 4.5 3 5.5 5s1.5 4 1.5 6c0 3.33301 -1.33301 5.83301 -4 7.5s-7.66699 2.5 -15 2.5l-22 1v82h238v-82h-27c-8.66699 -0.666992 -15.834 -1.33398 -21.501 -2.00098
s-10.167 -1.66699 -13.5 -3c-4 -2 -9 -5.33301 -15 -10s-14.667 -12 -26 -22l-113 -100l131 -150c8 -10 16.5 -17.167 25.5 -21.5s19.833 -6.5 32.5 -6.5l27 1v-81h-312v81h34c7.33301 -0.666992 12.5 -0.166992 15.5 1.5s4.5 4.16699 4.5 7.5
c0 1.33301 -3.66699 6.5 -11 15.5l-24 28.5l-1.5 1.5c-0.333008 0.333008 -0.5 0.833008 -0.5 1.5l-20 22.5c-6 7 -10.667 12.167 -14 15.5c-2 -2 -7 -6.5 -15 -13.5s-16.333 -14.833 -25 -23.5c-1.33301 -0.666992 -2.5 -1.66699 -3.5 -3s-1.83301 -2.33301 -2.5 -3
c-9.33301 -8.66699 -17.5 -17 -24.5 -25s-10.5 -13.667 -10.5 -17c0 -2.66699 1.83301 -5 5.5 -7s7.83398 -3 12.501 -3l35 1v-81h-240v81c14.667 -0.666992 27 0 37 2s19.333 5.66699 28 11c6 2.66699 11.833 6.33398 17.5 11.001s11.834 10.334 18.501 17.001l115 108v0z
" />
    <glyph glyph-name="y" unicode="y" horiz-adv-x="584" 
d="M333 153l88.998 208.003l3.5 10.5c1 3 1.5 5.83301 1.5 8.5c0 6 -1.66699 10 -5 12s-9.66602 3 -18.999 3l-38 1v81h219v-81h-19c-9.33301 -0.666992 -16.5 -1.83398 -21.5 -3.50098s-9.5 -5.83398 -13.5 -12.501c-2.66699 -3.33301 -5.16699 -7.33301 -7.5 -12
s-4.83301 -10.334 -7.5 -17.001l-189 -425c-22.667 -50.667 -47 -86.834 -73 -108.501s-58.333 -32.5 -97 -32.5c-45.333 0 -80.833 10.333 -106.5 31s-38.5 49.667 -38.5 87c0 26 8.16699 47.833 24.5 65.5s36.5 26.5 60.5 26.5c19.333 0 35.833 -6.5 49.5 -19.5
s20.5 -28.833 20.5 -47.5c0 -17.333 -4.5 -30.833 -13.5 -40.5s-24.5 -16.834 -46.5 -21.501l5 -6.5c1.33301 -1.66699 3 -3.16699 5 -4.5c3.33301 -3.33301 7.16602 -5.5 11.499 -6.5s9.83301 -1.5 16.5 -1.5c12.667 0 24 2.66699 34 8s19.667 14.333 29 27
c7.33301 9.33301 14.833 21.333 22.5 36s15.834 32.334 24.501 53.001l-170 390c-1.33301 2 -2.5 4 -3.5 6s-1.83301 4 -2.5 6c-5.33301 9.33301 -11.166 15.333 -17.499 18s-16.5 4 -30.5 4l-23 1v81h304v-81h-41c-10.667 -0.666992 -18 -2 -22 -4s-6 -6 -6 -12
c0 -1.33301 0.333008 -3.16602 1 -5.49902s1.66699 -5.5 3 -9.5l87 -212v0z" />
    <glyph glyph-name="z" unicode="z" horiz-adv-x="539" 
d="M513 477v-64.998l-291 -331h90c52.667 -0.666992 85 11.166 97 35.499s18 59.833 18 106.5l86 1v-224h-485v76l284 319h-83c-42.667 -0.666992 -70 -8.33398 -82 -23.001s-19.333 -49.667 -22 -105l-83 1l5 209h466v0z" />
    <glyph glyph-name="braceleft" unicode="{" horiz-adv-x="500" 
d="M244 240c22.667 -15.333 38.333 -31.999 47 -49.999s13 -43.667 13 -77v-122c0 -34.667 5.5 -55 16.5 -61s31.833 -9 62.5 -9h4h4c1.33301 0.666992 3 1 5 1h7v-115h-16c-5.33301 0 -10.666 -0.333008 -15.999 -1c-6 0 -11.667 -0.166992 -17 -0.5
s-10.666 -0.5 -15.999 -0.5c-52.667 0 -93.167 9.16699 -121.5 27.5s-42.5 57.166 -42.5 116.499v155c0 26.667 -4.16699 46.5 -12.5 59.5s-22.5 21.5 -42.5 25.5v111c23.333 4 37.833 12.333 43.5 25s9.5 29.334 11.5 50.001v156c0 51.333 11.667 88 35 110
s62.333 33 117 33c6.66699 0 13.167 -0.166992 19.5 -0.5s12.833 -0.5 19.5 -0.5c2 0 4 -0.166992 6 -0.5s4 -0.5 6 -0.5c4.66699 0 9.16699 -0.166992 13.5 -0.5s8.5 -0.5 12.5 -0.5v-113h-21c-32.667 -0.666992 -53.834 -4.33398 -63.501 -11.001
s-14.5 -22.334 -14.5 -47.001v-11v-123c0 -28.667 -2.5 -50.667 -7.5 -66s-14.833 -29.666 -29.5 -42.999l-10.5 -8.5c-3.66699 -3 -7.83398 -6.16699 -12.501 -9.5v1z" />
    <glyph glyph-name="bar" unicode="|" horiz-adv-x="500" 
d="M185 666h130v-833h-130v833v0z" />
    <glyph glyph-name="braceright" unicode="}" horiz-adv-x="500" 
d="M256 240c-22.667 14.667 -38.166 31.002 -46.499 49.002s-12.5 43.333 -12.5 76v124v0.5v1.5c-2.66699 31.333 -8 50.166 -16 56.499s-29.333 9.5 -64 9.5l-20 1v114c5.33301 -0.666992 10.666 -0.833984 15.999 -0.500977s11 0.833008 17 1.5
c5.33301 0 10.666 0.166992 15.999 0.5s10.666 0.5 15.999 0.5c53.333 0 94 -9.16699 122 -27.5s42 -57.166 42 -116.499v-154c0 -28 4.16699 -48.5 12.5 -61.5s22.5 -21.5 42.5 -25.5v-109c-22.667 -5.33301 -37 -13.833 -43 -25.5s-10 -28.834 -12 -51.501v-154
c0 -52 -11.5 -89 -34.5 -111s-62.167 -33 -117.5 -33h-19.5c-6.33301 0 -12.5 0.333008 -18.5 1c-6.66699 0 -13.167 0.166992 -19.5 0.5s-12.833 0.5 -19.5 0.5v115h7c2 0 3.66699 -0.333008 5 -1h3h2h2h2c34.667 0 55.834 3.5 63.501 10.5s12.834 25.5 15.501 55.5v1.5
v1.5v123c0 27.333 2.5 49 7.5 65s14.833 30.667 29.5 44l10.5 8.5c3.66699 3 7.5 5.83301 11.5 8.5v1z" />
    <glyph glyph-name="asciitilde" unicode="~" horiz-adv-x="667" 
d="M161 560l-71.002 46.999c15.333 36 33.5 68 54.5 96s53.5 42 97.5 42c16.667 0 33 -2.5 49 -7.5s31.667 -10.5 47 -16.5c0.666992 -0.666992 1.5 -1.16699 2.5 -1.5s1.83301 -0.833008 2.5 -1.5c14.667 -5.33301 29.5 -10.333 44.5 -15s30.167 -7 45.5 -7
c10.667 0 19.834 1.5 27.501 4.5s14.834 8.5 21.501 16.5l10.5 13c3.66699 4.66699 7.16699 10.334 10.5 17.001l74 -42c-16 -34 -36 -65 -60 -93s-57 -42 -99 -42c-15.333 0 -30.833 2.66699 -46.5 8s-31.167 11 -46.5 17l-45.5 17c-15 5.33301 -30.167 8 -45.5 8
c-10 0 -18.667 -1.33301 -26 -4s-14 -7.66699 -20 -15c-4.66699 -4.66699 -9 -10.5 -13 -17.5l-14 -24.5v1z" />
    <glyph glyph-name="endash" unicode="&#xa1;" horiz-adv-x="285" 
d="M180 282l45 -351.001c1.33301 -7.33301 2.16602 -14.166 2.49902 -20.499s0.5 -12.5 0.5 -18.5c0 -29.333 -7.33301 -52.166 -22 -68.499s-34.667 -24.5 -60 -24.5c-26.667 0 -48.167 8.5 -64.5 25.5s-24.5 39.5 -24.5 67.5c0 6 0.333008 12.167 1 18.5
s1.33398 13.166 2.00098 20.499l49 351h71v0zM145 493.999c23.333 -0.666992 43.333 -9.33301 60 -26s25 -36.667 25 -60s-8.33301 -43.333 -25 -60s-36.667 -25 -60 -25s-43.333 8.33301 -60 25s-25 36.667 -25 60s8.33301 43.333 25 60s36.667 25 60 25v1z" />
    <glyph glyph-name="cent" unicode="&#xa2;" horiz-adv-x="571" 
d="M342 672l-0.00292969 -93.0039c50.667 -5.33301 91 -20.833 121 -46.5s45 -57.5 45 -95.5c0 -26.667 -7.33301 -47.667 -22 -63s-35 -23 -61 -23c-22.667 0 -40.5 6.5 -53.5 19.5s-19.5 30.5 -19.5 52.5c0 12 2.66699 23 8 33s13.333 19.333 24 28
c-4.66699 2.66699 -8.66699 4.83398 -12 6.50098s-6.66602 3.16699 -9.99902 4.5c-4.66699 2 -9.66699 3.16699 -15 3.5s-11.666 0.5 -18.999 0.5c-38.667 0 -69 -15 -91 -45s-33 -71.667 -33 -125c0 -54 10 -96 30 -126s48.333 -45 85 -45c32.667 0 56.667 11.333 72 34
s27 47.334 35 74.001c0 2 0.333008 4.16699 1 6.5s1.33398 4.5 2.00098 6.5l96 1c-2.66699 -53.333 -20.5 -98.666 -53.5 -135.999s-76.167 -60.666 -129.5 -69.999v-85h-72v86c-72.667 5.33301 -128.167 30.5 -166.5 75.5s-57.5 106.833 -57.5 185.5
c0 67.333 19.667 122.5 59 165.5s94.333 69.167 165 78.5v92h72v0z" />
    <glyph glyph-name="sterling" unicode="&#xa3;" horiz-adv-x="571" 
d="M263 353l138.998 0.00292969v-80h-125c-1.33301 -30.667 -8.5 -57.167 -21.5 -79.5s-29.5 -43.833 -49.5 -64.5c-2 -2.66699 -4.33301 -5.33398 -7 -8.00098l-8 -8c16.667 7.33301 30 12.833 40 16.5s19.667 6.16699 29 7.5c4.66699 0.666992 9.5 1.16699 14.5 1.5
s10.5 0.5 16.5 0.5c11.333 0 22.5 -1.66699 33.5 -5l32.5 -10c10 -4 20.5 -7.66699 31.5 -11s22.167 -5 33.5 -5c13.333 0 23.666 3.66699 30.999 11s11 18 11 32v46h78v-9.5v-8.5c0 -5.33301 -0.166992 -10.5 -0.5 -15.5s-0.5 -9.83301 -0.5 -14.5
c-1.33301 -40 -8.66602 -76.5 -21.999 -109.5s-46.666 -49.5 -99.999 -49.5c-22 0 -42.833 2.5 -62.5 7.5s-38.5 10.833 -56.5 17.5c-4.66699 1.33301 -9.5 2.83301 -14.5 4.5s-9.83301 3.5 -14.5 5.5c-13.333 4 -26.833 7.5 -40.5 10.5s-27.5 4.5 -41.5 4.5
c-19.333 0 -38.166 -4 -56.499 -12s-36.5 -20 -54.5 -36l-23 91c6.66699 4 13 8.5 19 13.5l17 14.5c20.667 19.333 35.834 39 45.501 59s14.5 41.667 14.5 65v5.5v4.5l-2 12c-0.666992 4 -1.66699 9 -3 15l-91 1v80h56c-10.667 16.667 -19.834 34.667 -27.501 54
s-11.5 39.333 -11.5 60c0 58.667 23.333 106.167 70 142.5s107 54.5 181 54.5c63.333 0 114.833 -15.167 154.5 -45.5s59.5 -69.5 59.5 -117.5c0 -29.333 -8.16699 -52.833 -24.5 -70.5s-38.5 -26.5 -66.5 -26.5c-20.667 0 -37.5 6.83301 -50.5 20.5s-19.5 31.5 -19.5 53.5
c0 16.667 4.33301 29 13 37s19 15 31 21c2.66699 1.33301 5.16699 2.66602 7.5 3.99902s4.83301 2.66602 7.5 3.99902c-4 4 -7.83301 7.5 -11.5 10.5s-7.16699 5.5 -10.5 7.5c-8 5.33301 -16.333 8.83301 -25 10.5s-19.667 2.5 -33 2.5c-38.667 0 -69 -9.33301 -91 -28
s-33 -44.667 -33 -78c0 -14.667 2.16699 -29 6.5 -43s8.83301 -27.667 13.5 -41c2 -6 4 -11.667 6 -17l6 -16v1z" />
    <glyph glyph-name="Idieresis" unicode="&#xa4;" horiz-adv-x="667" 
d="M21 137l103.002 102.997c-14.667 20.667 -25.667 42.334 -33 65.001s-11 46.334 -11 71.001c0 17.333 1.5 33.5 4.5 48.5s7.83301 29.833 14.5 44.5c3.33301 7.33301 7 14.833 11 22.5s8.66699 15.167 14 22.5l-104 105l71 71l104 -104l25.5 14
c8.33301 4.66699 16.5 8.66699 24.5 12c14.667 5.33301 29.334 9.33301 44.001 12s30.667 4 48 4c14 0 27.5 -1.16699 40.5 -3.5s25.833 -5.83301 38.5 -10.5c9.33301 -3.33301 18.666 -7.33301 27.999 -12s18.666 -10 27.999 -16l103 103l70 -70l-102 -102
c8.66699 -14.667 16 -28.167 22 -40.5s10.667 -24.5 14 -36.5c3.33301 -10 5.66602 -20.333 6.99902 -31s2 -21.667 2 -33c0 -14 -1 -27.167 -3 -39.5s-5.33301 -24.833 -10 -37.5c-3.33301 -9.33301 -7.5 -19 -12.5 -29s-10.833 -20 -17.5 -30l103 -102l-70 -71l-103 103
c-5.33301 -4 -10.5 -7.5 -15.5 -10.5l-14.5 -8.5c-18 -9.33301 -36 -16.166 -54 -20.499s-37 -6.5 -57 -6.5c-12 0 -23.5 0.666992 -34.5 2s-21.833 3.66602 -32.5 6.99902c-11.333 3.33301 -23 7.83301 -35 13.5s-24.667 12.834 -38 21.501l-103 -101l-70 70v0z
M334.002 512.997c-37.333 -0.666992 -69.333 -14.333 -96 -41s-40 -58.667 -40 -96s13.333 -69.5 40 -96.5s58.667 -40.5 96 -40.5s69.333 13.5 96 40.5s40 59.167 40 96.5s-13.333 69.333 -40 96s-58.667 40 -96 40v1z" />
    <glyph glyph-name="ae" unicode="&#xa5;" horiz-adv-x="571" 
d="M309 334l70.998 138.001c10.667 20 17.834 34.333 21.501 43s5.83398 16 6.50098 22v3.5v2.5c0 13.333 -5 23 -15 29s-27.667 9.33301 -53 10v74h268v-73c-34.667 -2.66699 -60.167 -13.5 -76.5 -32.5s-30.833 -41.833 -43.5 -68.5l-12 -26.5
c-4 -9 -8.33301 -18.167 -13 -27.5l109 1v-81h-151l-31 -63h182v-82h-210v-56c0 -29.333 4 -47.5 12 -54.5s28.667 -10.5 62 -10.5l26 1v-83h-346v83h36c1.33301 -0.666992 2.66602 -1 3.99902 -1h4c26.667 1.33301 42.667 5 48 11s8 23.667 8 53v57h-210v82h182l-36 63
h-146v81h100c-2 2.66699 -4 6 -6 10s-4 7.66699 -6 11c-1.33301 3.33301 -2.83301 6.66602 -4.5 9.99902s-3.5 6.66602 -5.5 9.99902c-13.333 26 -29 50.333 -47 73s-43 35.667 -75 39l-1 74h312v-73c-27.333 -2.66699 -46 -6.66699 -56 -12s-15 -14.666 -15 -27.999
c0 -6 1.33301 -12.833 4 -20.5s7.33398 -17.167 14.001 -28.5l89 -160v0z" />
    <glyph glyph-name="brokenbar" unicode="&#xa6;" 
 />
    <glyph glyph-name="section" unicode="&#xa7;" horiz-adv-x="571" 
d="M370 600l-17.998 7c-5.33301 2 -10.333 3.66699 -15 5c-5.33301 1.33301 -10.666 2.16602 -15.999 2.49902s-11.333 0.5 -18 0.5c-30.667 0 -56.167 -7.16699 -76.5 -21.5s-30.5 -32.166 -30.5 -53.499c0 -22 11.333 -39.167 34 -51.5s49.667 -23.833 81 -34.5l24.5 -8
l25.5 -8c40.667 -14 78.167 -32.333 112.5 -55s51.5 -57.667 51.5 -105c0 -28 -6.33301 -52.5 -19 -73.5s-33.334 -41.5 -62.001 -61.5l-9 -5.5l-9 -5.5c1.33301 -0.666992 2.66602 -1.5 3.99902 -2.5s2.33301 -1.83301 3 -2.5c22.667 -16.667 38.834 -34 48.501 -52
s14.5 -39.667 14.5 -65c0 -57.333 -21.833 -104 -65.5 -140s-100.834 -54 -171.501 -54c-56.667 0 -103.334 12.667 -140.001 38s-55 57.333 -55 96c0 24.667 8 44.834 24 60.501s35.667 23.5 59 23.5c20 0 36.167 -6 48.5 -18s18.5 -28 18.5 -48
c0 -6 -0.5 -11.333 -1.5 -16s-2.5 -9.33398 -4.5 -14.001c-2.66699 -4.66699 -6 -9.33398 -10 -14.001s-9 -10 -15 -16c4.66699 -3.33301 9 -6.16602 13 -8.49902s7.66699 -4.16602 11 -5.49902c6 -2 12 -3.5 18 -4.5s13 -1.5 21 -1.5c38 0 69.5 8 94.5 24
s37.5 36.333 37.5 61c0 18 -4.16699 32.5 -12.5 43.5s-24.833 21.167 -49.5 30.5c-7.33301 3.33301 -15.666 6.33301 -24.999 9l-30 9l-28.5 8.5l-29.5 9.5c-38.667 12.667 -74.167 30.5 -106.5 53.5s-48.5 57.5 -48.5 103.5c0 34 8.5 64 25.5 90s40.5 45 70.5 57
c-20.667 17.333 -36 35.666 -46 54.999s-15 41.666 -15 66.999c0 50.667 20.833 93 62.5 127s93.834 51 156.501 51c55.333 0 100.5 -11.5 135.5 -34.5s52.5 -52.5 52.5 -88.5c0 -24 -7.16699 -43.167 -21.5 -57.5s-33.833 -21.5 -58.5 -21.5c-18 0 -33.167 6 -45.5 18
s-18.5 26.667 -18.5 44c0 6.66699 1.16699 12.5 3.5 17.5s5.16602 10.167 8.49902 15.5l2 2c0.666992 0.666992 1 1.33398 1 2.00098c2 2.66699 3.66699 5.16699 5 7.5s2.66602 4.83301 3.99902 7.5v1zM155.002 293c-0.666992 -2 -1.00195 -3.83301 -1.00195 -5.5v-4.5
c0 -14.667 5.33301 -28.334 16 -41.001s25 -23 43 -31c5.33301 -2 11.333 -4.5 18 -7.5s14 -5.83301 22 -8.5l16.5 -6l16.5 -6c12.667 -4 24.834 -7.33301 36.501 -10s22.167 -4 31.5 -4c16.667 0 31.334 6.83301 44.001 20.5s19 29.167 19 46.5
c0 15.333 -4.5 28.333 -13.5 39s-23.5 20.334 -43.5 29.001c-43.333 18.667 -74.5 31.167 -93.5 37.5s-34.5 9.5 -46.5 9.5c-16.667 0 -31 -5.33301 -43 -16s-19.333 -25 -22 -43v1z" />
    <glyph glyph-name="dieresis" unicode="&#xa8;" horiz-adv-x="500" 
d="M141 670c17.333 -0.666992 32.333 -7.33301 45 -20s19 -27.667 19 -45s-6.33301 -32.166 -19 -44.499s-27.667 -18.5 -45 -18.5s-32.166 6.16699 -44.499 18.5s-18.5 27.166 -18.5 44.499s6.16699 32.333 18.5 45s27.166 19 44.499 19v1zM358 670.001
c17.333 -0.666992 32.166 -7.33301 44.499 -20s18.5 -27.667 18.5 -45s-6.16699 -32.166 -18.5 -44.499s-27.166 -18.5 -44.499 -18.5s-32.166 6.16699 -44.499 18.5s-18.5 27.166 -18.5 44.499s6.16699 32.333 18.5 45s27.166 19 44.499 19v1z" />
    <glyph glyph-name="copyright" unicode="&#xa9;" horiz-adv-x="773" 
d="M390 688c96 -0.666992 178.333 -35.6709 247 -105.004s103 -152.666 103 -249.999s-34.333 -180.666 -103 -249.999s-151 -104 -247 -104c-98.667 0 -182.667 34.333 -252 103s-104 152.334 -104 251.001s34.667 182.334 104 251.001s153.333 103 252 103v1zM389 618.996
c-77.333 -0.666992 -143.168 -28.6689 -197.501 -84.002s-81.5 -122.666 -81.5 -201.999c0 -78.667 27.333 -146 82 -202s120.334 -84 197.001 -84c75.333 0 140 28 194 84s81 123.333 81 202s-27 145.834 -81 201.501s-118.667 83.5 -194 83.5v1zM563.998 526.994
l-0.00195312 -159h-62c0 28.667 -9.16699 53.167 -27.5 73.5s-42.5 30.5 -72.5 30.5c-33.333 0 -59.666 -12.333 -78.999 -37s-29 -58.334 -29 -101.001c0 -45.333 9.33301 -80.166 28 -104.499s45.334 -36.5 80.001 -36.5c34 0 58.5 10.167 73.5 30.5
s25.833 44.833 32.5 73.5l65 1l-1 -4c-6 -51.333 -25.5 -91.333 -58.5 -120s-75.833 -43 -128.5 -43c-58 0 -105.833 18.667 -143.5 56s-56.5 84.333 -56.5 141c0 61.333 18.833 111.166 56.5 149.499s86.5 57.5 146.5 57.5c17.333 0 32.833 -1.66699 46.5 -5
s27.167 -8.66602 40.5 -15.999c4 -2 8.16699 -4.5 12.5 -7.5l13.5 -9.5l12 30h51v0z" />
    <glyph glyph-name="ellipsis" unicode="&#xaa;" horiz-adv-x="381" 
d="M328 352v-57h-275v57h275v0zM294 507l40.998 -0.00390625v-31c0 -25.333 -5.5 -43.833 -16.5 -55.5s-28.167 -17.5 -51.5 -17.5c-16.667 0 -30.5 2.83301 -41.5 8.5s-19.167 14.167 -24.5 25.5c-8.66699 -10.667 -20 -19 -34 -25s-28.667 -9 -44 -9
c-24.667 0 -43.667 6.33301 -57 19s-20 31 -20 55c0 23.333 7.83301 39.5 23.5 48.5s33.167 15.833 52.5 20.5c2.66699 0.666992 5.5 1.33398 8.5 2.00098s5.83301 1.33398 8.5 2.00098c16 3.33301 29.667 7.33301 41 12s17 13 17 25c0 10 -4.16699 18.333 -12.5 25
s-19.166 10 -32.499 10c-3.33301 0 -6.66602 -0.166992 -9.99902 -0.5s-6.66602 -0.833008 -9.99902 -1.5c-1.33301 0 -2.83301 -0.166992 -4.5 -0.5s-3.5 -0.5 -5.5 -0.5l3.5 -3.5c1 -1 2.16699 -1.83301 3.5 -2.5c2.66699 -3.33301 5.16699 -6.83301 7.5 -10.5
s3.5 -8.16699 3.5 -13.5c0 -10.667 -3.83301 -19.5 -11.5 -26.5s-17.167 -10.5 -28.5 -10.5c-12.667 0 -23.334 4.33301 -32.001 13s-13 19.334 -13 32.001c0 21.333 9.33301 37.833 28 49.5s44.334 17.5 77.001 17.5c42 0 72.167 -6.5 90.5 -19.5s27.5 -34.5 27.5 -64.5
v-110c0 -5.33301 0.5 -9.16602 1.5 -11.499s2.83301 -3.5 5.5 -3.5c3.33301 0 5.66602 1.66699 6.99902 5s2 8.33301 2 15v32v0zM195.998 522.996c-1.33301 -1.33301 -2.66699 -2.16797 -4 -2.50098s-2.66602 -0.833008 -3.99902 -1.5
c-3.33301 -0.666992 -6.83301 -1.5 -10.5 -2.5s-7.16699 -2.16699 -10.5 -3.5c-10 -2.66699 -19 -6.33398 -27 -11.001s-12 -11.667 -12 -21c0 -7.33301 2.33301 -13.166 7 -17.499s11 -6.5 19 -6.5c11.333 0 21.166 3.33301 29.499 10s12.5 14.334 12.5 23.001v33v0z" />
    <glyph glyph-name="ydieresis" unicode="&#xab;" horiz-adv-x="467" 
d="M154 413l82.9951 -0.000976562l-64 -120c-0.666992 -1.33301 -1.16699 -2.5 -1.5 -3.5s-0.833008 -1.83301 -1.5 -2.5c-5.33301 -10 -9.66602 -19.667 -12.999 -29s-5 -16.333 -5 -21c0 -8.66699 1.83301 -16.834 5.5 -24.501s7.83398 -15.167 12.501 -22.5
c0.666992 -1.33301 1.33398 -2.5 2.00098 -3.5s1.33398 -2.16699 2.00098 -3.5l63 -109h-83l-95 118c-2 2 -4 4.5 -6 7.5s-3.66699 6.16699 -5 9.5c-3.33301 6 -6 11.833 -8 17.5s-3 10.834 -3 15.501c0 7.33301 1.83301 15.333 5.5 24s8.83398 17.334 15.501 26.001l96 121
v0zM330.995 412.999l82.998 -0.00195312l-64 -120c-6 -12 -10.833 -23 -14.5 -33s-5.5 -17.667 -5.5 -23c0 -8.66699 1.66699 -16.667 5 -24s7.33301 -14.666 12 -21.999v0l1 -1c0.666992 -1.33301 1.33398 -2.5 2.00098 -3.5s1.33398 -2.16699 2.00098 -3.5l62 -109h-83
l-94 118c-1.33301 0.666992 -2.5 1.83398 -3.5 3.50098s-2.16699 3.16699 -3.5 4.5c-4.66699 7.33301 -8.5 14.666 -11.5 21.999s-4.5 14 -4.5 20c0 7.33301 2 15.333 6 24s9.33301 17.334 16 26.001l95 121v0z" />
    <glyph glyph-name="emdash" unicode="&#xac;" 
 />
    <glyph glyph-name="uni00AD" unicode="&#xad;" horiz-adv-x="500" 
 />
    <glyph glyph-name="registered" unicode="&#xae;" horiz-adv-x="773" 
d="M390 688c96 -0.666992 178.333 -35.6709 247 -105.004s103 -152.666 103 -249.999s-34.333 -180.666 -103 -249.999s-151 -104 -247 -104c-98.667 0 -182.667 34.333 -252 103s-104 152.334 -104 251.001s34.667 182.334 104 251.001s153.333 103 252 103v1zM389 618.996
c-77.333 -0.666992 -143.168 -28.6689 -197.501 -84.002s-81.5 -122.666 -81.5 -201.999c0 -78.667 27.333 -146 82 -202s120.334 -84 197.001 -84c75.333 0 140 28 194 84s81 123.333 81 202s-27 145.834 -81 201.501s-118.667 83.5 -194 83.5v1zM340.998 316.994
l-0.00195312 -97.998c0 -9.33301 1.83301 -15.5 5.5 -18.5s10.834 -4.5 21.501 -4.5l20 1v-53h-195v53h19c10.667 -0.666992 18 0.5 22 3.5s6 8.83301 6 17.5v230c0 8.66699 -2 14.5 -6 17.5s-11.333 4.5 -22 4.5l-19 1v53h239
c37.333 -0.666992 66.166 -9.33398 86.499 -26.001s30.5 -40.334 30.5 -71.001c0 -24 -6 -41.667 -18 -53s-27.333 -21.333 -46 -30c-1.33301 -0.666992 -2.83301 -1.33398 -4.5 -2.00098s-3.16699 -1.33398 -4.5 -2.00098h1c0 -1.33301 2.33301 -3.16602 7 -5.49902
s10 -5.83301 16 -10.5c5.33301 -4.66699 10.333 -10.834 15 -18.501s7 -17.167 7 -28.5v-54c0 -11.333 1 -19.666 3 -24.999s5.33301 -8 10 -8s8.16699 2.66699 10.5 8s3.5 13.333 3.5 24v35h51v-34c0 -31.333 -7.16699 -54.166 -21.5 -68.499s-36.166 -21.5 -65.499 -21.5
c-43.333 0 -69.333 11 -78 33s-13.667 49.667 -15 83c0 2.66699 -0.166992 5.5 -0.5 8.5s-0.5 6.16699 -0.5 9.5c-0.666992 20 -4.16699 33.167 -10.5 39.5s-19.166 9.5 -38.499 9.5l-29 1v0zM340.996 370.996l36 0.000976562c23.333 -0.666992 40.333 3.16602 51 11.499
s16 21.5 16 39.5c0 17.333 -5.5 29.333 -16.5 36s-30.167 10 -57.5 10l-29 1v-98v0z" />
    <glyph glyph-name="glyph263" unicode="&#xaf;" 
 />
    <glyph glyph-name="glyph264" unicode="&#xb0;" 
 />
    <glyph glyph-name="mu" unicode="&#xb1;" horiz-adv-x="500" 
d="M56 171h387v-104h-387v104v0zM56 450h141v150h104v-150h142v-100h-142v-150h-104v150h-141v100v0z" />
    <glyph glyph-name="uni00B2" unicode="&#xb2;" 
 />
    <glyph glyph-name="uni00B3" unicode="&#xb3;" 
 />
    <glyph glyph-name="acute" unicode="&#xb4;" horiz-adv-x="500" 
d="M144 533l60.999 160h128c8 -0.666992 14 -2.5 18 -5.5s6 -7.16699 6 -12.5c0 -4 -2.16699 -9.16699 -6.5 -15.5s-11.166 -13.5 -20.499 -21.5l-112 -105h-74v0z" />
    <glyph glyph-name="oslash" unicode="&#xb5;" horiz-adv-x="575" 
d="M63 -173v652.997h129v-244c0 -45.333 8.16699 -79.166 24.5 -101.499s40.833 -33.5 73.5 -33.5c31.333 0 54.666 11.333 69.999 34s23 57.334 23 104.001v241h129v-480h-129v56c-11.333 -23.333 -24.666 -40.166 -39.999 -50.499s-33.333 -15.5 -54 -15.5
c-21.333 0 -39.5 4.5 -54.5 13.5s-29.167 24.5 -42.5 46.5v-223h-129v0z" />
    <glyph glyph-name="paragraph" unicode="&#xb6;" horiz-adv-x="667" 
d="M218 -92l-0.000976562 413.001c-52.667 -0.666992 -97.5 13.166 -134.5 41.499s-55.5 70.833 -55.5 127.5c0 69.333 23.833 116 71.5 140s100.834 36 159.501 36l335 1v-100h-73v-659h-110v659h-83v-659h-110v0z" />
    <glyph glyph-name="glyph265" unicode="&#xb7;" 
 />
    <glyph glyph-name="bullet" unicode="&#xb8;" horiz-adv-x="500" 
d="M288 0l-37.002 -58.0049c4 0.666992 7.16699 1.33398 9.5 2.00098s4.83301 1 7.5 1h5.5h6.5c25.333 0 45.833 -6.33301 61.5 -19s23.5 -29 23.5 -49c0 -27.333 -11.167 -49.666 -33.5 -66.999s-50.833 -26 -85.5 -26c-10 0 -19.333 0.5 -28 1.5s-17 2.16699 -25 3.5
c-9.33301 2 -18.666 4.83301 -27.999 8.5s-19.333 7.83398 -30 12.501l20 45c14 -5.33301 27 -9.16602 39 -11.499s22.667 -3.5 32 -3.5c14.667 0 25.834 2.83301 33.501 8.5s11.5 13.834 11.5 24.501c0 8.66699 -3.66699 16 -11 22s-17 9 -29 9h-2h-3
c-4 0 -8.33301 -0.333008 -13 -1s-11 -2 -19 -4l-19 19l55 82h58v0z" />
    <glyph glyph-name="uni00B9" unicode="&#xb9;" 
 />
    <glyph glyph-name="Agrave" unicode="&#xba;" horiz-adv-x="368" 
d="M316 352v-57h-263v57h263v0zM46 537c2 40 15 71.167 39 93.5s57.333 33.5 100 33.5c43.333 0 77 -11.5 101 -34.5s36 -55.167 36 -96.5c0 -38.667 -12.5 -70 -37.5 -94s-58.167 -36 -99.5 -36c-42.667 0 -76.5 11.5 -101.5 34.5s-37.5 55.833 -37.5 98.5v1zM133 537
c0 -28.667 4.33008 -50.333 12.9971 -65s21.334 -22 38.001 -22s29.334 7.33301 38.001 22s13 36 13 64c0 25.333 -4.5 45.166 -13.5 59.499s-21.5 21.5 -37.5 21.5c-15.333 0 -27.666 -7.16699 -36.999 -21.5s-14 -34.166 -14 -59.499v1z" />
    <glyph glyph-name="Ydieresis" unicode="&#xbb;" horiz-adv-x="467" 
d="M136 413l95.9971 -120.002c7.33301 -9.33301 12.666 -18.333 15.999 -27s5 -16.667 5 -24c0 -6 -1.33301 -12.667 -4 -20s-6.66699 -14.666 -12 -21.999c-0.666992 -1.33301 -1.5 -2.83301 -2.5 -4.5s-2.16699 -3.16699 -3.5 -4.5l-95 -117h-83l63 110
c0.666992 0.666992 1.33398 1.5 2.00098 2.5s1.33398 2.16699 2.00098 3.5c4.66699 7.33301 8.83398 14.833 12.501 22.5s5.5 15.834 5.5 24.501c0 4.66699 -1.66699 11.667 -5 21s-7.66602 19 -12.999 29c-0.666992 0.666992 -1.16699 1.5 -1.5 2.5
s-0.833008 1.83301 -1.5 2.5l-64 121h83v0zM313.997 412.998l94.999 -119.998c7.33301 -9.33301 12.666 -18.333 15.999 -27s5 -16.667 5 -24c0 -4.66699 -0.833008 -9.83398 -2.5 -15.501s-4.16699 -11.5 -7.5 -17.5l-5.5 -9.5
c-1.66699 -3 -3.83398 -5.83301 -6.50098 -8.5l-94 -117h-84l63 110c0.666992 0.666992 1.33398 1.5 2.00098 2.5s1.33398 2.16699 2.00098 3.5l1 1v0c4.66699 7.33301 8.66699 14.666 12 21.999s5 15.333 5 24c0 4.66699 -1.66699 11.667 -5 21s-7.66602 19 -12.999 29
c0 0.666992 -0.166992 1.5 -0.5 2.5s-0.833008 1.83301 -1.5 2.5l-65 121h84v0z" />
    <glyph glyph-name="onequarter" unicode="&#xbc;" 
 />
    <glyph glyph-name="glyph243" unicode="&#xbd;" horiz-adv-x="894" 
d="M802 142l58.001 -0.00292969v-41c0 -34.667 -7.5 -61.167 -22.5 -79.5s-36.167 -27.5 -63.5 -27.5c-14.667 0 -29 1.83301 -43 5.5s-27.667 8.16699 -41 13.5l-36.5 13c-11.667 4 -22.5 6 -32.5 6c-8.66699 0 -14.5 -2.16699 -17.5 -6.5s-4.83301 -12.833 -5.5 -25.5h-62
c-0.666992 3.33301 -1 6.33301 -1 9v7v0.5v1.5c0 45.333 10.5 79.333 31.5 102s43.833 41.334 68.5 56.001c5.33301 2.66699 10.666 5.5 15.999 8.5s10.666 5.83301 15.999 8.5c18.667 10.667 34.667 22 48 34s20 28.333 20 49c0 18 -6.66699 32.5 -20 43.5
s-31 16.5 -53 16.5c-14.667 0 -27.667 -2.33301 -39 -7s-18.666 -11 -21.999 -19c2 0.666992 3.83301 1 5.5 1h3.5c13.333 0 24.5 -4.33301 33.5 -13s13.5 -19.667 13.5 -33c0 -14.667 -5.66699 -26.5 -17 -35.5s-26.333 -13.5 -45 -13.5c-19.333 0 -35 6.33301 -47 19
s-18 29.334 -18 50.001c0 33.333 15.333 60.5 46 81.5s70.334 31.5 119.001 31.5c45.333 0 82.333 -10.833 111 -32.5s43 -50.167 43 -85.5c0 -40.667 -14 -70.167 -42 -88.5s-59 -34.5 -93 -48.5c-18.667 -7.33301 -37 -15.5 -55 -24.5s-33.333 -19.833 -46 -32.5
c9.33301 4 17 6.83301 23 8.5s11.667 2.83398 17 3.50098h3.5h2.5c10 0 19.667 -1.16699 29 -3.5s19 -4.5 29 -6.5c9.33301 -2.66699 18.666 -5.16699 27.999 -7.5s19 -3.5 29 -3.5c9.33301 0 16.333 3.16699 21 9.5s7 15.5 7 27.5v28v0zM597.001 666.997h69l-369 -667h-69
l369 667v0zM258.001 655.997l0.000976562 -314c0 -10 2.16699 -16.833 6.5 -20.5s12.5 -5.5 24.5 -5.5l51 1v-55h-267v55h48c12 -0.666992 20.167 0.833008 24.5 4.5s6.5 10.167 6.5 19.5v187h-79v56c6 0.666992 11.667 1.33398 17 2.00098s10.333 1.66699 15 3
c20 3.33301 36.167 8.66602 48.5 15.999s23.166 24 32.499 50l72 1v0z" />
    <glyph glyph-name="threequarters" unicode="&#xbe;" 
 />
    <glyph glyph-name="oe" unicode="&#xbf;" horiz-adv-x="547" 
d="M229 281l90 -0.000976562c0.666992 -4.66699 1 -8.33398 1 -11.001v-8v-1.5v-1.5c0 -28 -7 -52.667 -21 -74s-29 -41.666 -45 -60.999c-1.33301 -2 -2.66602 -3.66699 -3.99902 -5l-4 -4c-15.333 -18 -29 -36.667 -41 -56s-18 -40.666 -18 -63.999
c0 -30.667 11.167 -55.5 33.5 -74.5s51.166 -28.5 86.499 -28.5c29.333 0 52.833 5.16699 70.5 15.5s27.834 25.166 30.501 44.499h-3.5c-1 0 -1.83301 -0.333008 -2.5 -1h-2h-1c-24.667 0 -43.834 6.66699 -57.501 20s-20.5 31.333 -20.5 54c0 23.333 8.5 42 25.5 56
s39.167 21 66.5 21s49.833 -10.833 67.5 -32.5s26.5 -48.834 26.5 -81.501c0 -57.333 -22.5 -103.166 -67.5 -137.499s-105.167 -51.5 -180.5 -51.5c-69.333 0 -125.333 17.167 -168 51.5s-64 79.5 -64 135.5c0 40 10.5 72 31.5 96s44.167 45.667 69.5 65l10.5 8l10.5 8
c21.333 16 40 32.833 56 50.5s24 39.834 24 66.501v1zM274 493.999c23.333 -0.666992 43.333 -9.33301 60 -26s25 -36.667 25 -60s-8.33301 -43.333 -25 -60s-36.667 -25 -60 -25s-43.333 8.33301 -60 25s-25 36.667 -25 60s8.33301 43.333 25 60s36.667 25 60 25v1z" />
    <glyph glyph-name="currency" unicode="&#xc0;" horiz-adv-x="841" 
d="M511 210l-249.003 -0.000976562c-2 -5.33301 -4.16699 -10.833 -6.5 -16.5s-4.5 -11.167 -6.5 -16.5c-2 -4 -3.66699 -7.83301 -5 -11.5l-4 -11.5c-3.33301 -8 -6 -16 -8 -24s-3 -15.667 -3 -23c0 -10 3.66699 -16.5 11 -19.5s22.333 -4.5 45 -4.5l29 1v-84h-297v84
c26.667 -0.666992 47.667 2 63 8s28.666 22 39.999 48l8 18c2.66699 6 5.33398 11.667 8.00098 17c0.666992 2 1.33398 3.66699 2.00098 5l2 4l11.5 22c3.66699 7.33301 6.83398 15 9.50098 23l176 438h152l208 -479c4 -10 7.83301 -19 11.5 -27l10.5 -22
c10.667 -20 23 -34.333 37 -43s36.667 -13 68 -13v-83h-370v84h35c20 -0.666992 34.667 1.16602 44 5.49902s14 10.833 14 19.5c0 6.66699 -1.33301 14.334 -4 23.001s-5.66699 17.334 -9 26.001l-4 8c-1.33301 2.66699 -2.66602 5.66699 -3.99902 9l-8 18l-7 16v1z
M472.997 295.999l-94 220l-85 -220h179v0zM527.997 697.999l-73.999 0.000976562l-112 106c-8.66699 8 -15.334 15.167 -20.001 21.5s-7 11.166 -7 14.499c0 5.33301 2 9.5 6 12.5s10 4.5 18 4.5l129 1l60 -160v0z" />
    <glyph glyph-name="breve" unicode="&#xc1;" horiz-adv-x="841" 
d="M511 210l-249.003 -0.000976562c-2 -5.33301 -4.16699 -10.833 -6.5 -16.5s-4.5 -11.167 -6.5 -16.5c-2 -4 -3.66699 -7.83301 -5 -11.5l-4 -11.5c-3.33301 -8 -6 -16 -8 -24s-3 -15.667 -3 -23c0 -10 3.66699 -16.5 11 -19.5s22.333 -4.5 45 -4.5l29 1v-84h-297v84
c26.667 -0.666992 47.667 2 63 8s28.666 22 39.999 48l8 18c2.66699 6 5.33398 11.667 8.00098 17c0.666992 2 1.33398 3.66699 2.00098 5l2 4l11.5 22c3.66699 7.33301 6.83398 15 9.50098 23l176 438h152l208 -479c4 -10 7.83301 -19 11.5 -27l10.5 -22
c10.667 -20 23 -34.333 37 -43s36.667 -13 68 -13v-83h-370v84h35c20 -0.666992 34.667 1.16602 44 5.49902s14 10.833 14 19.5c0 6.66699 -1.33301 14.334 -4 23.001s-5.66699 17.334 -9 26.001l-4 8c-1.33301 2.66699 -2.66602 5.66699 -3.99902 9l-8 18l-7 16v1z
M472.997 295.999l-94 220l-85 -220h179v0zM314.997 697.999l60.999 160h128c8 -0.666992 14 -2.5 18 -5.5s6 -7.16699 6 -12.5c0 -4 -2.16699 -9.16699 -6.5 -15.5s-11.166 -13.5 -20.499 -21.5l-112 -105h-74v0z" />
    <glyph glyph-name="tilde" unicode="&#xc2;" horiz-adv-x="841" 
d="M511 210l-249.003 -0.000976562c-2 -5.33301 -4.16699 -10.833 -6.5 -16.5s-4.5 -11.167 -6.5 -16.5c-2 -4 -3.66699 -7.83301 -5 -11.5l-4 -11.5c-3.33301 -8 -6 -16 -8 -24s-3 -15.667 -3 -23c0 -10 3.66699 -16.5 11 -19.5s22.333 -4.5 45 -4.5l29 1v-84h-297v84
c26.667 -0.666992 47.667 2 63 8s28.666 22 39.999 48l8 18c2.66699 6 5.33398 11.667 8.00098 17c0.666992 2 1.33398 3.66699 2.00098 5l2 4l11.5 22c3.66699 7.33301 6.83398 15 9.50098 23l176 438h152l208 -479c4 -10 7.83301 -19 11.5 -27l10.5 -22
c10.667 -20 23 -34.333 37 -43s36.667 -13 68 -13v-83h-370v84h35c20 -0.666992 34.667 1.16602 44 5.49902s14 10.833 14 19.5c0 6.66699 -1.33301 14.334 -4 23.001s-5.66699 17.334 -9 26.001l-4 8c-1.33301 2.66699 -2.66602 5.66699 -3.99902 9l-8 18l-7 16v1z
M472.997 295.999l-94 220l-85 -220h179v0zM358.997 856.999h126l101 -159h-117l-64 91l-63 -91h-86l103 159v0z" />
    <glyph glyph-name="guilsinglleft" unicode="&#xc3;" horiz-adv-x="841" 
d="M511 210l-249.003 -0.000976562c-2 -5.33301 -4.16699 -10.833 -6.5 -16.5s-4.5 -11.167 -6.5 -16.5c-2 -4 -3.66699 -7.83301 -5 -11.5l-4 -11.5c-3.33301 -8 -6 -16 -8 -24s-3 -15.667 -3 -23c0 -10 3.66699 -16.5 11 -19.5s22.333 -4.5 45 -4.5l29 1v-84h-297v84
c26.667 -0.666992 47.667 2 63 8s28.666 22 39.999 48l8 18c2.66699 6 5.33398 11.667 8.00098 17c0.666992 2 1.33398 3.66699 2.00098 5l2 4l11.5 22c3.66699 7.33301 6.83398 15 9.50098 23l176 438h152l208 -479c4 -10 7.83301 -19 11.5 -27l10.5 -22
c10.667 -20 23 -34.333 37 -43s36.667 -13 68 -13v-83h-370v84h35c20 -0.666992 34.667 1.16602 44 5.49902s14 10.833 14 19.5c0 6.66699 -1.33301 14.334 -4 23.001s-5.66699 17.334 -9 26.001l-4 8c-1.33301 2.66699 -2.66602 5.66699 -3.99902 9l-8 18l-7 16v1z
M472.997 295.999l-94 220l-85 -220h179v0zM288.997 714.999l-73.9961 0.000976562c7.33301 43.333 20.666 75.666 39.999 96.999s46.333 32 81 32c15.333 0 30.333 -2.5 45 -7.5l44 -15.5c14.667 -6 29 -11.5 43 -16.5s27.667 -7.5 41 -7.5s23.166 3.5 29.499 10.5
s10.5 18.5 12.5 34.5l76 1c-4.66699 -42 -17.834 -74.833 -39.501 -98.5s-49.167 -35.5 -82.5 -35.5c-16 0 -31.667 2.33301 -47 7s-30.333 10 -45 16l-42.5 15c-13.667 4.66699 -26.834 7 -39.501 7c-13.333 0 -23.333 -3.16699 -30 -9.5s-10.667 -16.5 -12 -30.5v1z" />
    <glyph glyph-name="Adieresis" unicode="&#xc4;" horiz-adv-x="841" 
d="M511 210l-249.003 -0.000976562c-2 -5.33301 -4.16699 -10.833 -6.5 -16.5s-4.5 -11.167 -6.5 -16.5c-2 -4 -3.66699 -7.83301 -5 -11.5l-4 -11.5c-3.33301 -8 -6 -16 -8 -24s-3 -15.667 -3 -23c0 -10 3.66699 -16.5 11 -19.5s22.333 -4.5 45 -4.5l29 1v-84h-297v84
c26.667 -0.666992 47.667 2 63 8s28.666 22 39.999 48l8 18c2.66699 6 5.33398 11.667 8.00098 17c0.666992 2 1.33398 3.66699 2.00098 5l2 4l11.5 22c3.66699 7.33301 6.83398 15 9.50098 23l176 438h152l208 -479c4 -10 7.83301 -19 11.5 -27l10.5 -22
c10.667 -20 23 -34.333 37 -43s36.667 -13 68 -13v-83h-370v84h35c20 -0.666992 34.667 1.16602 44 5.49902s14 10.833 14 19.5c0 6.66699 -1.33301 14.334 -4 23.001s-5.66699 17.334 -9 26.001l-4 8c-1.33301 2.66699 -2.66602 5.66699 -3.99902 9l-8 18l-7 16v1z
M472.997 295.999l-94 220l-85 -220h179v0zM312.997 846.999c17.333 -0.666992 32.333 -7.33301 45 -20s19 -27.667 19 -45s-6.33301 -32.166 -19 -44.499s-27.667 -18.5 -45 -18.5s-32.166 6.16699 -44.499 18.5s-18.5 27.166 -18.5 44.499s6.16699 32.333 18.5 45
s27.166 19 44.499 19v1zM529.997 847c17.333 -0.666992 32.166 -7.33301 44.499 -20s18.5 -27.667 18.5 -45s-6.16699 -32.166 -18.5 -44.499s-27.166 -18.5 -44.499 -18.5s-32.166 6.16699 -44.499 18.5s-18.5 27.166 -18.5 44.499s6.16699 32.333 18.5 45
s27.166 19 44.499 19v1z" />
    <glyph glyph-name="Aring" unicode="&#xc5;" horiz-adv-x="841" 
d="M511 210l-249.003 -0.000976562c-2 -5.33301 -4.16699 -10.833 -6.5 -16.5s-4.5 -11.167 -6.5 -16.5c-2 -4 -3.66699 -7.83301 -5 -11.5l-4 -11.5c-3.33301 -8 -6 -16 -8 -24s-3 -15.667 -3 -23c0 -10 3.66699 -16.5 11 -19.5s22.333 -4.5 45 -4.5l29 1v-84h-297v84
c26.667 -0.666992 47.667 2 63 8s28.666 22 39.999 48l8 18c2.66699 6 5.33398 11.667 8.00098 17c0.666992 2 1.33398 3.66699 2.00098 5l2 4l11.5 22c3.66699 7.33301 6.83398 15 9.50098 23l176 438h152l208 -479c4 -10 7.83301 -19 11.5 -27l10.5 -22
c10.667 -20 23 -34.333 37 -43s36.667 -13 68 -13v-83h-370v84h35c20 -0.666992 34.667 1.16602 44 5.49902s14 10.833 14 19.5c0 6.66699 -1.33301 14.334 -4 23.001s-5.66699 17.334 -9 26.001l-4 8c-1.33301 2.66699 -2.66602 5.66699 -3.99902 9l-8 18l-7 16v1z
M472.997 295.999l-94 220l-85 -220h179v0zM421.997 896.999c28 -0.666992 51.833 -10.832 71.5 -30.499s29.5 -43.5 29.5 -71.5c0 -28.667 -9.83301 -52.834 -29.5 -72.501s-43.5 -29.5 -71.5 -29.5c-28.667 0 -52.834 10 -72.501 30s-29.5 44 -29.5 72
s9.83301 51.833 29.5 71.5s43.834 29.5 72.501 29.5v1zM421.997 844.001c-13.333 -0.666992 -24.833 -5.66699 -34.5 -15s-14.5 -20.666 -14.5 -33.999s4.83301 -24.833 14.5 -34.5s21.167 -14.5 34.5 -14.5s24.666 4.83301 33.999 14.5s14 21.167 14 34.5
s-4.66699 24.666 -14 33.999s-20.666 14 -33.999 14v1z" />
    <glyph glyph-name="Oslash" unicode="&#xc6;" horiz-adv-x="1105" 
d="M500 255l-215.999 0.00195312l-69 -112c-6.66699 -11.333 -11.334 -19.833 -14.001 -25.5s-4 -10.5 -4 -14.5c0 -7.33301 3.16699 -12.5 9.5 -15.5s17.166 -4.5 32.499 -4.5l52 1v-84h-285v84c20.667 -0.666992 36.334 3.33301 47.001 12s20.667 19.334 30 32.001
c3.33301 4.66699 6.66602 9.66699 9.99902 15s7 10.666 11 15.999l238 376c4.66699 6.66699 7.83398 11.834 9.50098 15.501s2.5 6.83398 2.5 9.50098c0 7.33301 -2.83301 12.666 -8.5 15.999s-15.5 5 -29.5 5l-66 1v85h798v-260h-90c0 8 -0.333008 17.5 -1 28.5
s-2 21.833 -4 32.5c-2 16.667 -5.66699 32.5 -11 47.5s-12.333 27.167 -21 36.5c-10 10.667 -23.5 18 -40.5 22s-42.167 6 -75.5 6l-140 1v-191h49c24 -0.666992 40.5 3.5 49.5 12.5s13.5 24.833 13.5 47.5v53h90v-320h-90v46c0 26 -4.5 44.5 -13.5 55.5
s-25.167 16.5 -48.5 16.5l-50 1v-216h139c72 -0.666992 115.667 17.166 131 53.499s23 85.166 23 146.499l90 1v-287h-654v82h52c20 -0.666992 34 2.66602 42 9.99902s12 19.333 12 36v127v0zM500.001 341.002v240h-12l-150 -240h162v0z" />
    <glyph glyph-name="Ccedilla" unicode="&#xc7;" horiz-adv-x="755" 
d="M402 -21l-24.001 -37c3.33301 0.666992 6.33301 1.16699 9 1.5s5 0.833008 7 1.5h6.5h7.5c24.667 0 45 -6.33301 61 -19s24 -29 24 -49c0 -27.333 -11.333 -49.666 -34 -66.999s-51.334 -26 -86.001 -26c-9.33301 0 -18 0.333008 -26 1s-16 2 -24 4
c-10 2 -19.833 4.66699 -29.5 8s-20.167 7.66602 -31.5 12.999l20 45c14 -5.33301 27 -9.16602 39 -11.499s22.667 -3.5 32 -3.5c14.667 0 26 2.83301 34 8.5s12 13.834 12 24.501c0 8.66699 -3.83301 16 -11.5 22s-17.5 9 -29.5 9h-2h-3c-4 0 -8.33301 -0.333008 -13 -1
s-11 -2 -19 -4l-19 19l43 64c-93.333 12 -167.5 49 -222.5 111s-82.5 139.333 -82.5 232c0 107.333 32.667 194.5 98 261.5s150 100.5 254 100.5c26.667 0 50.667 -2.16699 72 -6.5s42.333 -11.5 63 -21.5c10.667 -4.66699 21.334 -10.5 32.001 -17.5
s21.667 -14.833 33 -23.5l22 56h80v-274h-97c-4 58.667 -21.833 104.5 -53.5 137.5s-74.167 49.5 -127.5 49.5c-60 0 -107.667 -22.5 -143 -67.5s-53 -106.167 -53 -183.5c0 -82.667 16.833 -146.334 50.5 -191.001s81.834 -67 144.501 -67c51.333 0 93.333 15.833 126 47.5
s54.334 77.5 65.001 137.5l102 1c-10.667 -88 -42.834 -156.833 -96.501 -206.5s-123.5 -75.834 -209.5 -78.501v0z" />
    <glyph glyph-name="ring" unicode="&#xc8;" horiz-adv-x="781" 
d="M719 667v-260.998h-89c-3.33301 54.667 -12.5 97.334 -27.5 128.001s-54.833 46 -119.5 46l-176 1v-194h68c29.333 -0.666992 49.333 4.66602 60 15.999s16 32 16 62v36h90v-318h-90v40c0 30.667 -5 51 -15 61s-30.333 15 -61 15l-68 1v-214h189
c47.333 -0.666992 81.5 14.666 102.5 45.999s31.5 82.333 31.5 153l94 1l-5 -286h-683v82h52c20 -0.666992 34 2.66602 42 9.99902s12 19.333 12 36v409c0 16.667 -4 28.5 -12 35.5s-22 10.5 -42 10.5l-52 1v83h683v0zM497 698.002l-73.999 0.000976562l-112 106
c-8.66699 8 -15.334 15.167 -20.001 21.5s-7 11.166 -7 14.499c0 5.33301 2 9.5 6 12.5s10 4.5 18 4.5l129 1l60 -160v0z" />
    <glyph glyph-name="Eacute" unicode="&#xc9;" horiz-adv-x="781" 
d="M719 667v-260.998h-89c-3.33301 54.667 -12.5 97.334 -27.5 128.001s-54.833 46 -119.5 46l-176 1v-194h68c29.333 -0.666992 49.333 4.66602 60 15.999s16 32 16 62v36h90v-318h-90v40c0 30.667 -5 51 -15 61s-30.333 15 -61 15l-68 1v-214h189
c47.333 -0.666992 81.5 14.666 102.5 45.999s31.5 82.333 31.5 153l94 1l-5 -286h-683v82h52c20 -0.666992 34 2.66602 42 9.99902s12 19.333 12 36v409c0 16.667 -4 28.5 -12 35.5s-22 10.5 -42 10.5l-52 1v83h683v0zM283 698.002l60.999 160h128
c8 -0.666992 14 -2.5 18 -5.5s6 -7.16699 6 -12.5c0 -4 -2.16699 -9.16699 -6.5 -15.5s-11.166 -13.5 -20.499 -21.5l-112 -105h-74v0z" />
    <glyph glyph-name="macron" unicode="&#xca;" horiz-adv-x="781" 
d="M719 667v-260.998h-89c-3.33301 54.667 -12.5 97.334 -27.5 128.001s-54.833 46 -119.5 46l-176 1v-194h68c29.333 -0.666992 49.333 4.66602 60 15.999s16 32 16 62v36h90v-318h-90v40c0 30.667 -5 51 -15 61s-30.333 15 -61 15l-68 1v-214h189
c47.333 -0.666992 81.5 14.666 102.5 45.999s31.5 82.333 31.5 153l94 1l-5 -286h-683v82h52c20 -0.666992 34 2.66602 42 9.99902s12 19.333 12 36v409c0 16.667 -4 28.5 -12 35.5s-22 10.5 -42 10.5l-52 1v83h683v0zM327 857.002h126l101 -159h-117l-64 91l-63 -91h-86
l103 159v0z" />
    <glyph glyph-name="dotaccent" unicode="&#xcb;" horiz-adv-x="781" 
d="M719 667v-260.998h-89c-3.33301 54.667 -12.5 97.334 -27.5 128.001s-54.833 46 -119.5 46l-176 1v-194h68c29.333 -0.666992 49.333 4.66602 60 15.999s16 32 16 62v36h90v-318h-90v40c0 30.667 -5 51 -15 61s-30.333 15 -61 15l-68 1v-214h189
c47.333 -0.666992 81.5 14.666 102.5 45.999s31.5 82.333 31.5 153l94 1l-5 -286h-683v82h52c20 -0.666992 34 2.66602 42 9.99902s12 19.333 12 36v409c0 16.667 -4 28.5 -12 35.5s-22 10.5 -42 10.5l-52 1v83h683v0zM281 847.002c17.333 -0.666992 32.333 -7.33301 45 -20
s19 -27.667 19 -45s-6.33301 -32.166 -19 -44.499s-27.667 -18.5 -45 -18.5s-32.166 6.16699 -44.499 18.5s-18.5 27.166 -18.5 44.499s6.16699 32.333 18.5 45s27.166 19 44.499 19v1zM498 847.003c17.333 -0.666992 32.166 -7.33301 44.499 -20s18.5 -27.667 18.5 -45
s-6.16699 -32.166 -18.5 -44.499s-27.166 -18.5 -44.499 -18.5s-32.166 6.16699 -44.499 18.5s-18.5 27.166 -18.5 44.499s6.16699 32.333 18.5 45s27.166 19 44.499 19v1z" />
    <glyph glyph-name="caron" unicode="&#xcc;" horiz-adv-x="441" 
d="M37 584v83h368v-83h-43c-20 -0.666992 -34 -4.5 -42 -11.5s-12 -19.167 -12 -36.5v-407c0 -17.333 4 -29.666 12 -36.999s22 -11 42 -11l43 1v-82h-368v82h52c20 -0.666992 34 2.66602 42 9.99902s12 19.333 12 36v409c0 16.667 -4 28.5 -12 35.5s-22 10.5 -42 10.5
l-52 1v0zM327 698l-73.999 0.000976562l-112 106c-8.66699 8 -15.334 15.167 -20.001 21.5s-7 11.166 -7 14.499c0 5.33301 2 9.5 6 12.5s10 4.5 18 4.5l129 1l60 -160v0z" />
    <glyph glyph-name="cedilla" unicode="&#xcd;" horiz-adv-x="441" 
d="M37 584v83h368v-83h-43c-20 -0.666992 -34 -4.5 -42 -11.5s-12 -19.167 -12 -36.5v-407c0 -17.333 4 -29.666 12 -36.999s22 -11 42 -11l43 1v-82h-368v82h52c20 -0.666992 34 2.66602 42 9.99902s12 19.333 12 36v409c0 16.667 -4 28.5 -12 35.5s-22 10.5 -42 10.5
l-52 1v0zM114 698l60.999 160h128c8 -0.666992 14 -2.5 18 -5.5s6 -7.16699 6 -12.5c0 -4 -2.16699 -9.16699 -6.5 -15.5s-11.166 -13.5 -20.499 -21.5l-112 -105h-74v0z" />
    <glyph glyph-name="hungarumlaut" unicode="&#xce;" horiz-adv-x="441" 
d="M37 584v83h368v-83h-43c-20 -0.666992 -34 -4.5 -42 -11.5s-12 -19.167 -12 -36.5v-407c0 -17.333 4 -29.666 12 -36.999s22 -11 42 -11l43 1v-82h-368v82h52c20 -0.666992 34 2.66602 42 9.99902s12 19.333 12 36v409c0 16.667 -4 28.5 -12 35.5s-22 10.5 -42 10.5
l-52 1v0zM158 857h126l101 -159h-117l-64 91l-63 -91h-86l103 159v0z" />
    <glyph glyph-name="ogonek" unicode="&#xcf;" horiz-adv-x="441" 
d="M37 584v83h368v-83h-43c-20 -0.666992 -34 -4.5 -42 -11.5s-12 -19.167 -12 -36.5v-407c0 -17.333 4 -29.666 12 -36.999s22 -11 42 -11l43 1v-82h-368v82h52c20 -0.666992 34 2.66602 42 9.99902s12 19.333 12 36v409c0 16.667 -4 28.5 -12 35.5s-22 10.5 -42 10.5
l-52 1v0zM112 847c17.333 -0.666992 32.333 -7.33301 45 -20s19 -27.667 19 -45s-6.33301 -32.166 -19 -44.499s-27.667 -18.5 -45 -18.5s-32.166 6.16699 -44.499 18.5s-18.5 27.166 -18.5 44.499s6.16699 32.333 18.5 45s27.166 19 44.499 19v1zM329 847.001
c17.333 -0.666992 32.166 -7.33301 44.499 -20s18.5 -27.667 18.5 -45s-6.16699 -32.166 -18.5 -44.499s-27.166 -18.5 -44.499 -18.5s-32.166 6.16699 -44.499 18.5s-18.5 27.166 -18.5 44.499s6.16699 32.333 18.5 45s27.166 19 44.499 19v1z" />
    <glyph glyph-name="glyph232" unicode="&#xd0;" horiz-adv-x="823" 
d="M37 584l-0.000976562 83.001h442c95.333 -0.666992 169.833 -29 223.5 -85s80.5 -134.333 80.5 -235c0 -104.667 -29.667 -188.667 -89 -252s-138.666 -95 -237.999 -95h-419v82h52c20 -0.666992 34 2.66602 42 9.99902s12 19.333 12 36v174h-106v83h106v152
c0 16.667 -4 28.5 -12 35.5s-22 10.5 -42 10.5l-52 1v0zM307.999 86.001l84.999 0.000976562c40.667 -0.666992 72.334 3 95.001 11s42 22 58 42c20 24.667 34.5 53.667 43.5 87s13.5 74.666 13.5 123.999c0 70 -15 125.833 -45 167.5s-82.333 62.5 -157 62.5l-93 1v-196
h134v-83h-134v-216v0z" />
    <glyph glyph-name="Ntilde" unicode="&#xd1;" horiz-adv-x="867" 
d="M312 667l327 -458v328c0 16.667 -4 28.5 -12 35.5s-22 10.5 -42 10.5l-47 1v83h299v-83h-39c-20 -0.666992 -34 -4.5 -42 -11.5s-12 -19.167 -12 -36.5v-536h-161l-335 468v-339c0 -17.333 4 -29.666 12 -36.999s22 -11 42 -11l52 1v-82h-317v82h52
c20 -0.666992 34 2.66602 42 9.99902s12 19.333 12 36v409c0 16.667 -4 28.5 -12 35.5s-22 10.5 -42 10.5l-52 1v83h275v0zM301 715l-73.9961 0.000976562c7.33301 43.333 20.666 75.666 39.999 96.999s46.333 32 81 32c15.333 0 30.333 -2.5 45 -7.5l44 -15.5
c14.667 -6 29 -11.5 43 -16.5s27.667 -7.5 41 -7.5s23.166 3.5 29.499 10.5s10.5 18.5 12.5 34.5l76 1c-4.66699 -42 -17.834 -74.833 -39.501 -98.5s-49.167 -35.5 -82.5 -35.5c-16 0 -31.667 2.33301 -47 7s-30.333 10 -45 16l-42.5 15
c-13.667 4.66699 -26.834 7 -39.501 7c-13.333 0 -23.333 -3.16699 -30 -9.5s-10.667 -16.5 -12 -30.5v1z" />
    <glyph glyph-name="scaron" unicode="&#xd2;" 
 />
    <glyph glyph-name="Lslash" unicode="&#xd3;" horiz-adv-x="825" 
d="M40 331c0 109.333 33.666 196 100.999 260s158.333 96 273 96c110.667 0 200.167 -31.833 268.5 -95.5s102.5 -147.167 102.5 -250.5c0 -114.667 -33.167 -203.667 -99.5 -267s-159.166 -95 -278.499 -95c-112.667 0 -202 31.5 -268 94.5s-99 148.5 -99 256.5v1z
M219.999 336c0 -86 16.499 -152.667 49.499 -200s79.5 -71 139.5 -71c61.333 0 108.833 22.833 142.5 68.5s50.5 110.5 50.5 194.5c0 86 -16.333 153 -49 201s-78.667 72 -138 72c-61.333 0 -109.166 -23.5 -143.499 -70.5s-51.5 -112.167 -51.5 -195.5v1zM306.998 698
l60.999 160h128c8 -0.666992 14 -2.5 18 -5.5s6 -7.16699 6 -12.5c0 -4 -2.16699 -9.16699 -6.5 -15.5s-11.166 -13.5 -20.499 -21.5l-112 -105h-74v0z" />
    <glyph glyph-name="lslash" unicode="&#xd4;" horiz-adv-x="825" 
d="M40 331c0 109.333 33.666 196 100.999 260s158.333 96 273 96c110.667 0 200.167 -31.833 268.5 -95.5s102.5 -147.167 102.5 -250.5c0 -114.667 -33.167 -203.667 -99.5 -267s-159.166 -95 -278.499 -95c-112.667 0 -202 31.5 -268 94.5s-99 148.5 -99 256.5v1z
M219.999 336c0 -86 16.499 -152.667 49.499 -200s79.5 -71 139.5 -71c61.333 0 108.833 22.833 142.5 68.5s50.5 110.5 50.5 194.5c0 86 -16.333 153 -49 201s-78.667 72 -138 72c-61.333 0 -109.166 -23.5 -143.499 -70.5s-51.5 -112.167 -51.5 -195.5v1zM350.998 857h126
l101 -159h-117l-64 91l-63 -91h-86l103 159v0z" />
    <glyph glyph-name="guilsinglright" unicode="&#xd5;" horiz-adv-x="825" 
d="M40 331c0 109.333 33.666 196 100.999 260s158.333 96 273 96c110.667 0 200.167 -31.833 268.5 -95.5s102.5 -147.167 102.5 -250.5c0 -114.667 -33.167 -203.667 -99.5 -267s-159.166 -95 -278.499 -95c-112.667 0 -202 31.5 -268 94.5s-99 148.5 -99 256.5v1z
M219.999 336c0 -86 16.499 -152.667 49.499 -200s79.5 -71 139.5 -71c61.333 0 108.833 22.833 142.5 68.5s50.5 110.5 50.5 194.5c0 86 -16.333 153 -49 201s-78.667 72 -138 72c-61.333 0 -109.166 -23.5 -143.499 -70.5s-51.5 -112.167 -51.5 -195.5v1zM280.998 716
l-73.9961 0.000976562c7.33301 43.333 20.666 75.666 39.999 96.999s46.333 32 81 32c15.333 0 30.333 -2.5 45 -7.5l44 -15.5c14.667 -6 29 -11.5 43 -16.5s27.667 -7.5 41 -7.5s23.166 3.5 29.499 10.5s10.5 18.5 12.5 34.5l76 1
c-4.66699 -42 -17.834 -74.833 -39.501 -98.5s-49.167 -35.5 -82.5 -35.5c-16 0 -31.667 2.33301 -47 7s-30.333 10 -45 16l-42.5 15c-13.667 4.66699 -26.834 7 -39.501 7c-13.333 0 -23.333 -3.16699 -30 -9.5s-10.667 -16.5 -12 -30.5v1z" />
    <glyph glyph-name="Odieresis" unicode="&#xd6;" horiz-adv-x="825" 
d="M40 331c0 109.333 33.666 196 100.999 260s158.333 96 273 96c110.667 0 200.167 -31.833 268.5 -95.5s102.5 -147.167 102.5 -250.5c0 -114.667 -33.167 -203.667 -99.5 -267s-159.166 -95 -278.499 -95c-112.667 0 -202 31.5 -268 94.5s-99 148.5 -99 256.5v1z
M219.999 336c0 -86 16.499 -152.667 49.499 -200s79.5 -71 139.5 -71c61.333 0 108.833 22.833 142.5 68.5s50.5 110.5 50.5 194.5c0 86 -16.333 153 -49 201s-78.667 72 -138 72c-61.333 0 -109.166 -23.5 -143.499 -70.5s-51.5 -112.167 -51.5 -195.5v1zM304.998 847
c17.333 -0.666992 32.333 -7.33301 45 -20s19 -27.667 19 -45s-6.33301 -32.166 -19 -44.499s-27.667 -18.5 -45 -18.5s-32.166 6.16699 -44.499 18.5s-18.5 27.166 -18.5 44.499s6.16699 32.333 18.5 45s27.166 19 44.499 19v1zM521.998 847.001
c17.333 -0.666992 32.166 -7.33301 44.499 -20s18.5 -27.667 18.5 -45s-6.16699 -32.166 -18.5 -44.499s-27.166 -18.5 -44.499 -18.5s-32.166 6.16699 -44.499 18.5s-18.5 27.166 -18.5 44.499s6.16699 32.333 18.5 45s27.166 19 44.499 19v1z" />
    <glyph glyph-name="multiply" unicode="&#xd7;" 
 />
    <glyph glyph-name="plusminus" unicode="&#xd8;" horiz-adv-x="828" 
d="M733 698l53.0039 -54.001l-76 -75c25.333 -29.333 44.666 -63.666 57.999 -102.999s20 -82.666 20 -129.999c0 -111.333 -33.5 -198.833 -100.5 -262.5s-159.167 -95.5 -276.5 -95.5c-43.333 0 -82.333 4.33301 -117 13s-68.334 23.334 -101.001 44.001
c-2.66699 1.33301 -5.33398 2.83301 -8.00098 4.5s-5.33398 3.5 -8.00098 5.5l-86 -85l-51 54l82 83c-5.33301 6.66699 -10.333 13.5 -15 20.5l-14 20.5c-16.667 28 -28.667 56.667 -36 86s-11 61.666 -11 96.999c0 113.333 33.5 202.666 100.5 267.999s158.833 98 275.5 98
c45.333 0 86.5 -5.5 123.5 -16.5s73.167 -28.5 108.5 -52.5l79 80v0zM272.004 138.999c18 -26 38.832 -44.999 62.499 -56.999s51.167 -18 82.5 -18c63.333 0 111 22.667 143 68s48 112.333 48 201c0 12.667 -0.166992 23.667 -0.5 33s-1.5 18.666 -3.5 27.999
c-0.666992 8 -2.16699 16.333 -4.5 25s-5.16602 18.667 -8.49902 30l-319 -310v0zM558.003 525c-12.667 24.667 -30.833 43.335 -54.5 56.002s-52.167 19 -85.5 19c-58.667 0 -105.334 -23.333 -140.001 -70s-52 -110.334 -52 -191.001c0 -24 0.333008 -42.333 1 -55
s2 -24.334 4 -35.001c1.33301 -6 2.83301 -11.833 4.5 -17.5s3.83398 -12.167 6.50098 -19.5l316 313v0z" />
    <glyph glyph-name="Thorn" unicode="&#xd9;" horiz-adv-x="787" 
d="M13 585l-0.000976562 82h368v-82h-52c-20 -0.666992 -34 -4.5 -42 -11.5s-12 -19.167 -12 -36.5v-302c0 -51.333 12.667 -90.333 38 -117s62 -40 110 -40c37.333 0 68.833 8 94.5 24s41.834 37.333 48.501 64c2.66699 10 4.5 21.333 5.5 34s1.5 27 1.5 43v295
c0 16.667 -4 28.5 -12 35.5s-22 10.5 -42 10.5l-43 1v82h290v-82h-32c-20.667 -0.666992 -35.167 -4.5 -43.5 -11.5s-12.5 -19.167 -12.5 -36.5v-302c0 -94.667 -24 -161 -72 -199s-118 -57 -210 -57c-80 0 -147.667 15.5 -203 46.5s-83 91.833 -83 182.5v330
c0 16.667 -4 28.5 -12 35.5s-22 10.5 -42 10.5l-43 1v0zM500.999 698l-73.999 0.000976562l-112 106c-8.66699 8 -15.334 15.167 -20.001 21.5s-7 11.166 -7 14.499c0 5.33301 2 9.5 6 12.5s10 4.5 18 4.5l129 1l60 -160v0z" />
    <glyph glyph-name="Eth" unicode="&#xda;" horiz-adv-x="787" 
d="M13 585l-0.000976562 82h368v-82h-52c-20 -0.666992 -34 -4.5 -42 -11.5s-12 -19.167 -12 -36.5v-302c0 -51.333 12.667 -90.333 38 -117s62 -40 110 -40c37.333 0 68.833 8 94.5 24s41.834 37.333 48.501 64c2.66699 10 4.5 21.333 5.5 34s1.5 27 1.5 43v295
c0 16.667 -4 28.5 -12 35.5s-22 10.5 -42 10.5l-43 1v82h290v-82h-32c-20.667 -0.666992 -35.167 -4.5 -43.5 -11.5s-12.5 -19.167 -12.5 -36.5v-302c0 -94.667 -24 -161 -72 -199s-118 -57 -210 -57c-80 0 -147.667 15.5 -203 46.5s-83 91.833 -83 182.5v330
c0 16.667 -4 28.5 -12 35.5s-22 10.5 -42 10.5l-43 1v0zM287.999 698l60.999 160h128c8 -0.666992 14 -2.5 18 -5.5s6 -7.16699 6 -12.5c0 -4 -2.16699 -9.16699 -6.5 -15.5s-11.166 -13.5 -20.499 -21.5l-112 -105h-74v0z" />
    <glyph glyph-name="eth" unicode="&#xdb;" horiz-adv-x="787" 
d="M13 585l-0.000976562 82h368v-82h-52c-20 -0.666992 -34 -4.5 -42 -11.5s-12 -19.167 -12 -36.5v-302c0 -51.333 12.667 -90.333 38 -117s62 -40 110 -40c37.333 0 68.833 8 94.5 24s41.834 37.333 48.501 64c2.66699 10 4.5 21.333 5.5 34s1.5 27 1.5 43v295
c0 16.667 -4 28.5 -12 35.5s-22 10.5 -42 10.5l-43 1v82h290v-82h-32c-20.667 -0.666992 -35.167 -4.5 -43.5 -11.5s-12.5 -19.167 -12.5 -36.5v-302c0 -94.667 -24 -161 -72 -199s-118 -57 -210 -57c-80 0 -147.667 15.5 -203 46.5s-83 91.833 -83 182.5v330
c0 16.667 -4 28.5 -12 35.5s-22 10.5 -42 10.5l-43 1v0zM331.999 857h126l101 -159h-117l-64 91l-63 -91h-86l103 159v0z" />
    <glyph glyph-name="Udieresis" unicode="&#xdc;" horiz-adv-x="787" 
d="M13 585l-0.000976562 82h368v-82h-52c-20 -0.666992 -34 -4.5 -42 -11.5s-12 -19.167 -12 -36.5v-302c0 -51.333 12.667 -90.333 38 -117s62 -40 110 -40c37.333 0 68.833 8 94.5 24s41.834 37.333 48.501 64c2.66699 10 4.5 21.333 5.5 34s1.5 27 1.5 43v295
c0 16.667 -4 28.5 -12 35.5s-22 10.5 -42 10.5l-43 1v82h290v-82h-32c-20.667 -0.666992 -35.167 -4.5 -43.5 -11.5s-12.5 -19.167 -12.5 -36.5v-302c0 -94.667 -24 -161 -72 -199s-118 -57 -210 -57c-80 0 -147.667 15.5 -203 46.5s-83 91.833 -83 182.5v330
c0 16.667 -4 28.5 -12 35.5s-22 10.5 -42 10.5l-43 1v0zM285.999 847c17.333 -0.666992 32.333 -7.33301 45 -20s19 -27.667 19 -45s-6.33301 -32.166 -19 -44.499s-27.667 -18.5 -45 -18.5s-32.166 6.16699 -44.499 18.5s-18.5 27.166 -18.5 44.499s6.16699 32.333 18.5 45
s27.166 19 44.499 19v1zM502.999 847.001c17.333 -0.666992 32.166 -7.33301 44.499 -20s18.5 -27.667 18.5 -45s-6.16699 -32.166 -18.5 -44.499s-27.166 -18.5 -44.499 -18.5s-32.166 6.16699 -44.499 18.5s-18.5 27.166 -18.5 44.499s6.16699 32.333 18.5 45
s27.166 19 44.499 19v1z" />
    <glyph glyph-name="Yacute" unicode="&#xdd;" 
 />
    <glyph glyph-name="glyph236" unicode="&#xde;" horiz-adv-x="718" 
d="M308 529l169 0.00195312c76 -0.666992 133.5 -16.834 172.5 -48.501s58.5 -78.5 58.5 -140.5c0 -60.667 -20.667 -106.167 -62 -136.5s-104.333 -45.5 -189 -45.5l-149 1v-30c0 -17.333 4 -29.5 12 -36.5s22 -10.5 42 -10.5l52 1v-83h-377v82h52
c20 -0.666992 34 2.66602 42 9.99902s12 19.333 12 36v409c0 16.667 -4 28.5 -12 35.5s-22 10.5 -42 10.5l-52 1v83h377v-83h-52c-20 -0.666992 -34 -4.5 -42 -11.5s-12 -19.167 -12 -36.5v-7v0zM308 245.002h83.001c49.333 -0.666992 85.666 6.83301 108.999 22.5
s35 40.5 35 74.5c0 37.333 -11.5 63.333 -34.5 78s-62.5 22 -118.5 22l-74 1v-198v0z" />
    <glyph glyph-name="germandbls" unicode="&#xdf;" horiz-adv-x="628" 
d="M293 170h72.999v-49c0 -20.667 2.16699 -35.5 6.5 -44.5s11.166 -13.5 20.499 -13.5c13.333 0 23.333 11 30 33s10 54.333 10 97c0 28.667 -2.66699 55.834 -8 81.501s-12 44.167 -20 55.5c-7.33301 11.333 -17.666 19.166 -30.999 23.499s-32.333 6.5 -57 6.5l-17 1v79
c30.667 -0.666992 56.667 4.16602 78 14.499s32 32.833 32 67.5c0 24 -7 43.5 -21 58.5s-32 22.5 -54 22.5c-32 0 -53.5 -8.83301 -64.5 -26.5s-16.5 -51.167 -16.5 -100.5v-476h-221v81h37c13.333 -0.666992 22.666 2.33301 27.999 9s8 18.334 8 35.001v378
c0 54.667 21.833 98.334 65.5 131.001s101.834 49 174.501 49c60.667 0 111.334 -14.167 152.001 -42.5s61 -63.5 61 -105.5c0 -31.333 -9 -57.5 -27 -78.5s-46.333 -37.833 -85 -50.5c46.667 -14.667 82.834 -38 108.501 -70s38.5 -73.333 38.5 -124
c0 -68.667 -16 -123.834 -48 -165.501s-74.333 -62.5 -127 -62.5c-40.667 0 -71.834 10.333 -93.501 31s-32.5 50.667 -32.5 90v65v0z" />
    <glyph glyph-name="agrave" unicode="&#xe0;" horiz-adv-x="589" 
d="M512 176l67.002 -0.000976562v-57c0 -47.333 -10.167 -81.833 -30.5 -103.5s-52.166 -32.5 -95.499 -32.5c-34 0 -61 5.66699 -81 17s-35.333 29.333 -46 54c-20 -24 -43 -41.833 -69 -53.5s-54.667 -17.5 -86 -17.5c-44.667 0 -80 11.667 -106 35s-39 55.333 -39 96
c0 49.333 15.5 83 46.5 101s65.167 31.333 102.5 40l16.5 4c5.66699 1.33301 11.167 2.33301 16.5 3c30.667 6.66699 57.5 14.834 80.5 24.501s34.5 27.5 34.5 53.5c0 25.333 -9.5 44.666 -28.5 57.999s-46.833 20 -83.5 20c-8.66699 0 -15.834 -0.166992 -21.501 -0.5
s-10.834 -1.16602 -15.501 -2.49902c-3.33301 -0.666992 -6.83301 -1.83398 -10.5 -3.50098l-12.5 -5.5c16 -6 27.833 -13.5 35.5 -22.5s11.5 -20.167 11.5 -33.5c0 -21.333 -7 -38.5 -21 -51.5s-32.333 -19.5 -55 -19.5s-41.334 8.33301 -56.001 25s-22 37.667 -22 63
c0 39.333 17.5 69.833 52.5 91.5s83.833 32.5 146.5 32.5c81.333 0 139.333 -12.667 174 -38s52 -67 52 -125v-221c0 -12.667 1.5 -21.5 4.5 -26.5s8.16699 -7.5 15.5 -7.5c8.66699 0 14.667 3.33301 18 10s5 18.334 5 35.001v58v0zM321.002 222.999
c-4 -2 -7.8291 -3.66699 -11.4961 -5l-11.5 -4l-11.5 -4l-11.5 -4c-4.66699 -2 -9.33398 -3.83301 -14.001 -5.5s-9.66699 -3.16699 -15 -4.5c-0.666992 0 -1.33398 -0.166992 -2.00098 -0.5s-1.33398 -0.5 -2.00098 -0.5c-17.333 -4.66699 -32.833 -11 -46.5 -19
s-20.5 -23 -20.5 -45c0 -16.667 5.16699 -30.167 15.5 -40.5s24.166 -15.5 41.499 -15.5c23.333 0 44 7.5 62 22.5s27 31.833 27 50.5v75v0zM374.006 532.999l-73.999 0.000976562l-112 106c-8.66699 8 -15.334 15.167 -20.001 21.5s-7 11.166 -7 14.499
c0 5.33301 2 9.5 6 12.5s10 4.5 18 4.5l129 1l60 -160v0z" />
    <glyph glyph-name="aacute" unicode="&#xe1;" horiz-adv-x="589" 
d="M512 176l67.002 -0.000976562v-57c0 -47.333 -10.167 -81.833 -30.5 -103.5s-52.166 -32.5 -95.499 -32.5c-34 0 -61 5.66699 -81 17s-35.333 29.333 -46 54c-20 -24 -43 -41.833 -69 -53.5s-54.667 -17.5 -86 -17.5c-44.667 0 -80 11.667 -106 35s-39 55.333 -39 96
c0 49.333 15.5 83 46.5 101s65.167 31.333 102.5 40l16.5 4c5.66699 1.33301 11.167 2.33301 16.5 3c30.667 6.66699 57.5 14.834 80.5 24.501s34.5 27.5 34.5 53.5c0 25.333 -9.5 44.666 -28.5 57.999s-46.833 20 -83.5 20c-8.66699 0 -15.834 -0.166992 -21.501 -0.5
s-10.834 -1.16602 -15.501 -2.49902c-3.33301 -0.666992 -6.83301 -1.83398 -10.5 -3.50098l-12.5 -5.5c16 -6 27.833 -13.5 35.5 -22.5s11.5 -20.167 11.5 -33.5c0 -21.333 -7 -38.5 -21 -51.5s-32.333 -19.5 -55 -19.5s-41.334 8.33301 -56.001 25s-22 37.667 -22 63
c0 39.333 17.5 69.833 52.5 91.5s83.833 32.5 146.5 32.5c81.333 0 139.333 -12.667 174 -38s52 -67 52 -125v-221c0 -12.667 1.5 -21.5 4.5 -26.5s8.16699 -7.5 15.5 -7.5c8.66699 0 14.667 3.33301 18 10s5 18.334 5 35.001v58v0zM321.002 222.999
c-4 -2 -7.8291 -3.66699 -11.4961 -5l-11.5 -4l-11.5 -4l-11.5 -4c-4.66699 -2 -9.33398 -3.83301 -14.001 -5.5s-9.66699 -3.16699 -15 -4.5c-0.666992 0 -1.33398 -0.166992 -2.00098 -0.5s-1.33398 -0.5 -2.00098 -0.5c-17.333 -4.66699 -32.833 -11 -46.5 -19
s-20.5 -23 -20.5 -45c0 -16.667 5.16699 -30.167 15.5 -40.5s24.166 -15.5 41.499 -15.5c23.333 0 44 7.5 62 22.5s27 31.833 27 50.5v75v0zM189.006 532.999l60.999 160h128c8 -0.666992 14 -2.5 18 -5.5s6 -7.16699 6 -12.5c0 -4 -2.16699 -9.16699 -6.5 -15.5
s-11.166 -13.5 -20.499 -21.5l-112 -105h-74v0z" />
    <glyph glyph-name="acircumflex" unicode="&#xe2;" horiz-adv-x="589" 
d="M512 176l67.002 -0.000976562v-57c0 -47.333 -10.167 -81.833 -30.5 -103.5s-52.166 -32.5 -95.499 -32.5c-34 0 -61 5.66699 -81 17s-35.333 29.333 -46 54c-20 -24 -43 -41.833 -69 -53.5s-54.667 -17.5 -86 -17.5c-44.667 0 -80 11.667 -106 35s-39 55.333 -39 96
c0 49.333 15.5 83 46.5 101s65.167 31.333 102.5 40l16.5 4c5.66699 1.33301 11.167 2.33301 16.5 3c30.667 6.66699 57.5 14.834 80.5 24.501s34.5 27.5 34.5 53.5c0 25.333 -9.5 44.666 -28.5 57.999s-46.833 20 -83.5 20c-8.66699 0 -15.834 -0.166992 -21.501 -0.5
s-10.834 -1.16602 -15.501 -2.49902c-3.33301 -0.666992 -6.83301 -1.83398 -10.5 -3.50098l-12.5 -5.5c16 -6 27.833 -13.5 35.5 -22.5s11.5 -20.167 11.5 -33.5c0 -21.333 -7 -38.5 -21 -51.5s-32.333 -19.5 -55 -19.5s-41.334 8.33301 -56.001 25s-22 37.667 -22 63
c0 39.333 17.5 69.833 52.5 91.5s83.833 32.5 146.5 32.5c81.333 0 139.333 -12.667 174 -38s52 -67 52 -125v-221c0 -12.667 1.5 -21.5 4.5 -26.5s8.16699 -7.5 15.5 -7.5c8.66699 0 14.667 3.33301 18 10s5 18.334 5 35.001v58v0zM321.002 222.999
c-4 -2 -7.8291 -3.66699 -11.4961 -5l-11.5 -4l-11.5 -4l-11.5 -4c-4.66699 -2 -9.33398 -3.83301 -14.001 -5.5s-9.66699 -3.16699 -15 -4.5c-0.666992 0 -1.33398 -0.166992 -2.00098 -0.5s-1.33398 -0.5 -2.00098 -0.5c-17.333 -4.66699 -32.833 -11 -46.5 -19
s-20.5 -23 -20.5 -45c0 -16.667 5.16699 -30.167 15.5 -40.5s24.166 -15.5 41.499 -15.5c23.333 0 44 7.5 62 22.5s27 31.833 27 50.5v75v0zM206.006 691.999h126l101 -159h-117l-64 91l-63 -91h-86l103 159v0z" />
    <glyph glyph-name="atilde" unicode="&#xe3;" horiz-adv-x="589" 
d="M512 176l67.002 -0.000976562v-57c0 -47.333 -10.167 -81.833 -30.5 -103.5s-52.166 -32.5 -95.499 -32.5c-34 0 -61 5.66699 -81 17s-35.333 29.333 -46 54c-20 -24 -43 -41.833 -69 -53.5s-54.667 -17.5 -86 -17.5c-44.667 0 -80 11.667 -106 35s-39 55.333 -39 96
c0 49.333 15.5 83 46.5 101s65.167 31.333 102.5 40l16.5 4c5.66699 1.33301 11.167 2.33301 16.5 3c30.667 6.66699 57.5 14.834 80.5 24.501s34.5 27.5 34.5 53.5c0 25.333 -9.5 44.666 -28.5 57.999s-46.833 20 -83.5 20c-8.66699 0 -15.834 -0.166992 -21.501 -0.5
s-10.834 -1.16602 -15.501 -2.49902c-3.33301 -0.666992 -6.83301 -1.83398 -10.5 -3.50098l-12.5 -5.5c16 -6 27.833 -13.5 35.5 -22.5s11.5 -20.167 11.5 -33.5c0 -21.333 -7 -38.5 -21 -51.5s-32.333 -19.5 -55 -19.5s-41.334 8.33301 -56.001 25s-22 37.667 -22 63
c0 39.333 17.5 69.833 52.5 91.5s83.833 32.5 146.5 32.5c81.333 0 139.333 -12.667 174 -38s52 -67 52 -125v-221c0 -12.667 1.5 -21.5 4.5 -26.5s8.16699 -7.5 15.5 -7.5c8.66699 0 14.667 3.33301 18 10s5 18.334 5 35.001v58v0zM321.002 222.999
c-4 -2 -7.8291 -3.66699 -11.4961 -5l-11.5 -4l-11.5 -4l-11.5 -4c-4.66699 -2 -9.33398 -3.83301 -14.001 -5.5s-9.66699 -3.16699 -15 -4.5c-0.666992 0 -1.33398 -0.166992 -2.00098 -0.5s-1.33398 -0.5 -2.00098 -0.5c-17.333 -4.66699 -32.833 -11 -46.5 -19
s-20.5 -23 -20.5 -45c0 -16.667 5.16699 -30.167 15.5 -40.5s24.166 -15.5 41.499 -15.5c23.333 0 44 7.5 62 22.5s27 31.833 27 50.5v75v0zM136.006 546.999l-73.9961 0.000976562c7.33301 43.333 20.666 75.666 39.999 96.999s46.333 32 81 32
c15.333 0 30.333 -2.5 45 -7.5l44 -15.5c14.667 -6 29 -11.5 43 -16.5s27.667 -7.5 41 -7.5s23.166 3.5 29.499 10.5s10.5 18.5 12.5 34.5l76 1c-4.66699 -42 -17.834 -74.833 -39.501 -98.5s-49.167 -35.5 -82.5 -35.5c-16 0 -31.667 2.33301 -47 7s-30.333 10 -45 16
l-42.5 15c-13.667 4.66699 -26.834 7 -39.501 7c-13.333 0 -23.333 -3.16699 -30 -9.5s-10.667 -16.5 -12 -30.5v1z" />
    <glyph glyph-name="adieresis" unicode="&#xe4;" horiz-adv-x="589" 
d="M512 176l67.002 -0.000976562v-57c0 -47.333 -10.167 -81.833 -30.5 -103.5s-52.166 -32.5 -95.499 -32.5c-34 0 -61 5.66699 -81 17s-35.333 29.333 -46 54c-20 -24 -43 -41.833 -69 -53.5s-54.667 -17.5 -86 -17.5c-44.667 0 -80 11.667 -106 35s-39 55.333 -39 96
c0 49.333 15.5 83 46.5 101s65.167 31.333 102.5 40l16.5 4c5.66699 1.33301 11.167 2.33301 16.5 3c30.667 6.66699 57.5 14.834 80.5 24.501s34.5 27.5 34.5 53.5c0 25.333 -9.5 44.666 -28.5 57.999s-46.833 20 -83.5 20c-8.66699 0 -15.834 -0.166992 -21.501 -0.5
s-10.834 -1.16602 -15.501 -2.49902c-3.33301 -0.666992 -6.83301 -1.83398 -10.5 -3.50098l-12.5 -5.5c16 -6 27.833 -13.5 35.5 -22.5s11.5 -20.167 11.5 -33.5c0 -21.333 -7 -38.5 -21 -51.5s-32.333 -19.5 -55 -19.5s-41.334 8.33301 -56.001 25s-22 37.667 -22 63
c0 39.333 17.5 69.833 52.5 91.5s83.833 32.5 146.5 32.5c81.333 0 139.333 -12.667 174 -38s52 -67 52 -125v-221c0 -12.667 1.5 -21.5 4.5 -26.5s8.16699 -7.5 15.5 -7.5c8.66699 0 14.667 3.33301 18 10s5 18.334 5 35.001v58v0zM321.002 222.999
c-4 -2 -7.8291 -3.66699 -11.4961 -5l-11.5 -4l-11.5 -4l-11.5 -4c-4.66699 -2 -9.33398 -3.83301 -14.001 -5.5s-9.66699 -3.16699 -15 -4.5c-0.666992 0 -1.33398 -0.166992 -2.00098 -0.5s-1.33398 -0.5 -2.00098 -0.5c-17.333 -4.66699 -32.833 -11 -46.5 -19
s-20.5 -23 -20.5 -45c0 -16.667 5.16699 -30.167 15.5 -40.5s24.166 -15.5 41.499 -15.5c23.333 0 44 7.5 62 22.5s27 31.833 27 50.5v75v0zM160.006 669.999c17.333 -0.666992 32.333 -7.33301 45 -20s19 -27.667 19 -45s-6.33301 -32.166 -19 -44.499
s-27.667 -18.5 -45 -18.5s-32.166 6.16699 -44.499 18.5s-18.5 27.166 -18.5 44.499s6.16699 32.333 18.5 45s27.166 19 44.499 19v1zM377.006 670c17.333 -0.666992 32.166 -7.33301 44.499 -20s18.5 -27.667 18.5 -45s-6.16699 -32.166 -18.5 -44.499
s-27.166 -18.5 -44.499 -18.5s-32.166 6.16699 -44.499 18.5s-18.5 27.166 -18.5 44.499s6.16699 32.333 18.5 45s27.166 19 44.499 19v1z" />
    <glyph glyph-name="aring" unicode="&#xe5;" horiz-adv-x="589" 
d="M512 176l67.002 -0.000976562v-57c0 -47.333 -10.167 -81.833 -30.5 -103.5s-52.166 -32.5 -95.499 -32.5c-34 0 -61 5.66699 -81 17s-35.333 29.333 -46 54c-20 -24 -43 -41.833 -69 -53.5s-54.667 -17.5 -86 -17.5c-44.667 0 -80 11.667 -106 35s-39 55.333 -39 96
c0 49.333 15.5 83 46.5 101s65.167 31.333 102.5 40l16.5 4c5.66699 1.33301 11.167 2.33301 16.5 3c30.667 6.66699 57.5 14.834 80.5 24.501s34.5 27.5 34.5 53.5c0 25.333 -9.5 44.666 -28.5 57.999s-46.833 20 -83.5 20c-8.66699 0 -15.834 -0.166992 -21.501 -0.5
s-10.834 -1.16602 -15.501 -2.49902c-3.33301 -0.666992 -6.83301 -1.83398 -10.5 -3.50098l-12.5 -5.5c16 -6 27.833 -13.5 35.5 -22.5s11.5 -20.167 11.5 -33.5c0 -21.333 -7 -38.5 -21 -51.5s-32.333 -19.5 -55 -19.5s-41.334 8.33301 -56.001 25s-22 37.667 -22 63
c0 39.333 17.5 69.833 52.5 91.5s83.833 32.5 146.5 32.5c81.333 0 139.333 -12.667 174 -38s52 -67 52 -125v-221c0 -12.667 1.5 -21.5 4.5 -26.5s8.16699 -7.5 15.5 -7.5c8.66699 0 14.667 3.33301 18 10s5 18.334 5 35.001v58v0zM321.002 222.999
c-4 -2 -7.8291 -3.66699 -11.4961 -5l-11.5 -4l-11.5 -4l-11.5 -4c-4.66699 -2 -9.33398 -3.83301 -14.001 -5.5s-9.66699 -3.16699 -15 -4.5c-0.666992 0 -1.33398 -0.166992 -2.00098 -0.5s-1.33398 -0.5 -2.00098 -0.5c-17.333 -4.66699 -32.833 -11 -46.5 -19
s-20.5 -23 -20.5 -45c0 -16.667 5.16699 -30.167 15.5 -40.5s24.166 -15.5 41.499 -15.5c23.333 0 44 7.5 62 22.5s27 31.833 27 50.5v75v0zM269.006 735.999c28 -0.666992 51.833 -10.832 71.5 -30.499s29.5 -43.5 29.5 -71.5c0 -28.667 -9.83301 -52.834 -29.5 -72.501
s-43.5 -29.5 -71.5 -29.5c-28.667 0 -52.834 10 -72.501 30s-29.5 44 -29.5 72s9.83301 51.833 29.5 71.5s43.834 29.5 72.501 29.5v1zM269.006 683.001c-13.333 -0.666992 -24.833 -5.66699 -34.5 -15s-14.5 -20.666 -14.5 -33.999s4.83301 -24.833 14.5 -34.5
s21.167 -14.5 34.5 -14.5s24.666 4.83301 33.999 14.5s14 21.167 14 34.5s-4.66699 24.666 -14 33.999s-20.666 14 -33.999 14v1z" />
    <glyph glyph-name="Otilde" unicode="&#xe6;" horiz-adv-x="840" 
d="M807 218l-338.001 -0.000976562c1.33301 -49.333 13 -87 35 -113s53.333 -39 94 -39c25.333 0 46.5 7.66699 63.5 23s31.833 40 44.5 74l101 1c-16 -60.667 -43.333 -106 -82 -136s-88.667 -45 -150 -45c-44 0 -83 7.5 -117 22.5s-64.667 40.167 -92 75.5
c-22 -32 -49.5 -56.333 -82.5 -73s-69.833 -25 -110.5 -25c-44.667 0 -80.167 11.5 -106.5 34.5s-39.5 54.167 -39.5 93.5c0 52 16.167 87.5 48.5 106.5s67.833 32.833 106.5 41.5c6 1.33301 12 2.5 18 3.5s12 2.16699 18 3.5c32 6.66699 59.833 14.834 83.5 24.501
s35.5 27.5 35.5 53.5c0 24 -9.16699 42.833 -27.5 56.5s-44.166 20.5 -77.499 20.5c-6.66699 0 -12.5 -0.166992 -17.5 -0.5s-9.83301 -0.833008 -14.5 -1.5s-9.66699 -1.66699 -15 -3l-19 -5c8.66699 -7.33301 15.667 -14 21 -20s9.33301 -11.667 12 -17
c2 -4 3.5 -8.16699 4.5 -12.5s1.5 -8.83301 1.5 -13.5c0 -18 -7 -33 -21 -45s-31 -18 -51 -18c-24 0 -43.333 7.66699 -58 23s-22 35.333 -22 60c0 38 18.167 68 54.5 90s85.5 33 147.5 33c34.667 0 65.667 -3.33301 93 -10s53 -17.667 77 -33
c9.33301 6 18.333 11.167 27 15.5s17.334 8.16602 26.001 11.499c15.333 6 31.166 10.167 47.499 12.5s34.833 3.5 55.5 3.5c36.667 0 70.167 -6.66699 100.5 -20s55.833 -32.666 76.5 -57.999c23.333 -28 37.333 -58.833 42 -92.5s7 -68.167 7 -103.5v1zM333.999 222.999
c-12.667 -6 -22.666 -10.498 -29.999 -13.498l-19 -7.5c-1.33301 -0.666992 -2.66602 -1.16699 -3.99902 -1.5s-2.33301 -0.5 -3 -0.5c-1.33301 -0.666992 -2.83301 -1.16699 -4.5 -1.5s-3.16699 -0.833008 -4.5 -1.5c-2.66699 -0.666992 -5.5 -1.33398 -8.5 -2.00098
s-6.16699 -1.33398 -9.5 -2.00098c-0.666992 -0.666992 -1.33398 -1 -2.00098 -1h-2c-18.667 -4.66699 -35.334 -10.667 -50.001 -18s-22 -23.333 -22 -48c0 -15.333 5.5 -28 16.5 -38s24.833 -15 41.5 -15c28.667 0 52.667 9.5 72 28.5s29 42.167 29 69.5v52v0z
M659 300.001c0 4 -0.167969 8.33203 -0.500977 12.999s-0.833008 9.33398 -1.5 14.001c-4 22 -12.833 42.167 -26.5 60.5s-33.167 27.5 -58.5 27.5c-31.333 0 -55.666 -9.83301 -72.999 -29.5s-27.333 -48.5 -30 -86.5l190 1v0z" />
    <glyph glyph-name="ccedilla" unicode="&#xe7;" horiz-adv-x="545" 
d="M300 -15l-27.001 -43.0059c3.33301 0.666992 6.33301 1.16699 9 1.5s5 0.833008 7 1.5h6.5h7.5c24.667 0 44.834 -6.33301 60.501 -19s23.5 -29 23.5 -49c0 -27.333 -11.167 -49.666 -33.5 -66.999s-50.833 -26 -85.5 -26c-10 0 -19.333 0.5 -28 1.5s-17 2.16699 -25 3.5
c-9.33301 2 -18.666 4.83301 -27.999 8.5s-19.333 7.83398 -30 12.501l20 45c14 -5.33301 27 -9.16602 39 -11.499s22.667 -3.5 32 -3.5c14.667 0 25.834 2.83301 33.501 8.5s11.5 13.834 11.5 24.501c0 8.66699 -3.66699 16 -11 22s-17 9 -29 9h-2h-3
c-4 0 -8.33301 -0.333008 -13 -1s-11 -2 -19 -4l-19 19l45 68c-68 9.33301 -119.833 35.5 -155.5 78.5s-53.5 101.5 -53.5 175.5c0 76.667 23.667 137.667 71 183s111 68 191 68c59.333 0 107.5 -14 144.5 -42s55.5 -64.333 55.5 -109c0 -24.667 -7.33301 -44.667 -22 -60
s-34 -23 -58 -23c-22.667 0 -41.167 6.83301 -55.5 20.5s-21.5 30.834 -21.5 51.501c0 6 0.5 11.5 1.5 16.5s2.5 9.5 4.5 13.5c2.66699 5.33301 6.33398 10.666 11.001 15.999s10.667 11.333 18 18c-8.66699 4.66699 -16.167 8.33398 -22.5 11.001s-12.5 4.66699 -18.5 6
c-2.66699 0 -5.33398 0.166992 -8.00098 0.5s-5.66699 0.5 -9 0.5c-38 0 -68.167 -15.5 -90.5 -46.5s-33.5 -73.167 -33.5 -126.5s10.167 -95 30.5 -125s48.166 -45 83.499 -45c29.333 0 54.166 10.833 74.499 32.5s31.833 49.834 34.5 84.501l98 1
c-4.66699 -59.333 -25.5 -106.333 -62.5 -141s-86.833 -54.667 -149.5 -60v0z" />
    <glyph glyph-name="egrave" unicode="&#xe8;" horiz-adv-x="563" 
d="M529 220l-343.999 0.000976562c4 -51.333 16 -89.5 36 -114.5s48.667 -37.5 86 -37.5c30 0 55.167 8.16699 75.5 24.5s35.166 40.166 44.499 71.499l96 1c-6.66699 -55.333 -30.334 -99.5 -71.001 -132.5s-91.667 -49.5 -153 -49.5c-86 0 -151.833 22.333 -197.5 67
s-68.5 109 -68.5 193c0 74 22.833 133.667 68.5 179s105.834 68 180.501 68c78 0 138.833 -22.333 182.5 -67s65.5 -107 65.5 -187v-2.5v-3.5c-0.666992 -1.33301 -1 -3 -1 -5v-6v1zM377.001 296.001c0 28.667 -7.83203 54.833 -23.499 78.5s-39.834 35.5 -72.501 35.5
c-28.667 0 -51.167 -9.83301 -67.5 -29.5s-25.5 -48.167 -27.5 -85.5l191 1v0zM388.002 533l-73.999 0.000976562l-112 106c-8.66699 8 -15.334 15.167 -20.001 21.5s-7 11.166 -7 14.499c0 5.33301 2 9.5 6 12.5s10 4.5 18 4.5l129 1l60 -160v0z" />
    <glyph glyph-name="eacute" unicode="&#xe9;" horiz-adv-x="563" 
d="M529 220l-343.999 0.000976562c4 -51.333 16 -89.5 36 -114.5s48.667 -37.5 86 -37.5c30 0 55.167 8.16699 75.5 24.5s35.166 40.166 44.499 71.499l96 1c-6.66699 -55.333 -30.334 -99.5 -71.001 -132.5s-91.667 -49.5 -153 -49.5c-86 0 -151.833 22.333 -197.5 67
s-68.5 109 -68.5 193c0 74 22.833 133.667 68.5 179s105.834 68 180.501 68c78 0 138.833 -22.333 182.5 -67s65.5 -107 65.5 -187v-2.5v-3.5c-0.666992 -1.33301 -1 -3 -1 -5v-6v1zM377.001 296.001c0 28.667 -7.83203 54.833 -23.499 78.5s-39.834 35.5 -72.501 35.5
c-28.667 0 -51.167 -9.83301 -67.5 -29.5s-25.5 -48.167 -27.5 -85.5l191 1v0zM176.002 533l60.999 160h128c8 -0.666992 14 -2.5 18 -5.5s6 -7.16699 6 -12.5c0 -4 -2.16699 -9.16699 -6.5 -15.5s-11.166 -13.5 -20.499 -21.5l-112 -105h-74v0z" />
    <glyph glyph-name="ecircumflex" unicode="&#xea;" horiz-adv-x="563" 
d="M529 220l-343.999 0.000976562c4 -51.333 16 -89.5 36 -114.5s48.667 -37.5 86 -37.5c30 0 55.167 8.16699 75.5 24.5s35.166 40.166 44.499 71.499l96 1c-6.66699 -55.333 -30.334 -99.5 -71.001 -132.5s-91.667 -49.5 -153 -49.5c-86 0 -151.833 22.333 -197.5 67
s-68.5 109 -68.5 193c0 74 22.833 133.667 68.5 179s105.834 68 180.501 68c78 0 138.833 -22.333 182.5 -67s65.5 -107 65.5 -187v-2.5v-3.5c-0.666992 -1.33301 -1 -3 -1 -5v-6v1zM377.001 296.001c0 28.667 -7.83203 54.833 -23.499 78.5s-39.834 35.5 -72.501 35.5
c-28.667 0 -51.167 -9.83301 -67.5 -29.5s-25.5 -48.167 -27.5 -85.5l191 1v0zM220.002 692h126l101 -159h-117l-64 91l-63 -91h-86l103 159v0z" />
    <glyph glyph-name="edieresis" unicode="&#xeb;" horiz-adv-x="563" 
d="M529 220l-343.999 0.000976562c4 -51.333 16 -89.5 36 -114.5s48.667 -37.5 86 -37.5c30 0 55.167 8.16699 75.5 24.5s35.166 40.166 44.499 71.499l96 1c-6.66699 -55.333 -30.334 -99.5 -71.001 -132.5s-91.667 -49.5 -153 -49.5c-86 0 -151.833 22.333 -197.5 67
s-68.5 109 -68.5 193c0 74 22.833 133.667 68.5 179s105.834 68 180.501 68c78 0 138.833 -22.333 182.5 -67s65.5 -107 65.5 -187v-2.5v-3.5c-0.666992 -1.33301 -1 -3 -1 -5v-6v1zM377.001 296.001c0 28.667 -7.83203 54.833 -23.499 78.5s-39.834 35.5 -72.501 35.5
c-28.667 0 -51.167 -9.83301 -67.5 -29.5s-25.5 -48.167 -27.5 -85.5l191 1v0zM174.002 670c17.333 -0.666992 32.333 -7.33301 45 -20s19 -27.667 19 -45s-6.33301 -32.166 -19 -44.499s-27.667 -18.5 -45 -18.5s-32.166 6.16699 -44.499 18.5s-18.5 27.166 -18.5 44.499
s6.16699 32.333 18.5 45s27.166 19 44.499 19v1zM391.002 670.001c17.333 -0.666992 32.166 -7.33301 44.499 -20s18.5 -27.667 18.5 -45s-6.16699 -32.166 -18.5 -44.499s-27.166 -18.5 -44.499 -18.5s-32.166 6.16699 -44.499 18.5s-18.5 27.166 -18.5 44.499
s6.16699 32.333 18.5 45s27.166 19 44.499 19v1z" />
    <glyph glyph-name="igrave" unicode="&#xec;" horiz-adv-x="358" 
d="M257 477l0.000976562 -351.001c0 -17.333 2.66699 -29.333 8 -36s14.666 -10 27.999 -10l42 1v-81h-305v81h43c13.333 -0.666992 22.666 2.33301 27.999 9s8 18.334 8 35.001v226c0 16 -2.66699 27.167 -8 33.5s-14.666 9.5 -27.999 9.5l-43 1v82h227v0zM286.001 532.999
l-73.999 0.000976562l-112 106c-8.66699 8 -15.334 15.167 -20.001 21.5s-7 11.166 -7 14.499c0 5.33301 2 9.5 6 12.5s10 4.5 18 4.5l129 1l60 -160v0z" />
    <glyph glyph-name="iacute" unicode="&#xed;" horiz-adv-x="358" 
d="M257 477l0.000976562 -351.001c0 -17.333 2.66699 -29.333 8 -36s14.666 -10 27.999 -10l42 1v-81h-305v81h43c13.333 -0.666992 22.666 2.33301 27.999 9s8 18.334 8 35.001v226c0 16 -2.66699 27.167 -8 33.5s-14.666 9.5 -27.999 9.5l-43 1v82h227v0zM74.001 532.999
l60.999 160h128c8 -0.666992 14 -2.5 18 -5.5s6 -7.16699 6 -12.5c0 -4 -2.16699 -9.16699 -6.5 -15.5s-11.166 -13.5 -20.499 -21.5l-112 -105h-74v0z" />
    <glyph glyph-name="icircumflex" unicode="&#xee;" horiz-adv-x="358" 
d="M257 477l0.000976562 -351.001c0 -17.333 2.66699 -29.333 8 -36s14.666 -10 27.999 -10l42 1v-81h-305v81h43c13.333 -0.666992 22.666 2.33301 27.999 9s8 18.334 8 35.001v226c0 16 -2.66699 27.167 -8 33.5s-14.666 9.5 -27.999 9.5l-43 1v82h227v0zM118.001 692.999
h126l101 -159h-117l-64 91l-63 -91h-86l103 159v0z" />
    <glyph glyph-name="idieresis" unicode="&#xef;" horiz-adv-x="358" 
d="M257 477l0.000976562 -351.001c0 -17.333 2.66699 -29.333 8 -36s14.666 -10 27.999 -10l42 1v-81h-305v81h43c13.333 -0.666992 22.666 2.33301 27.999 9s8 18.334 8 35.001v226c0 16 -2.66699 27.167 -8 33.5s-14.666 9.5 -27.999 9.5l-43 1v82h227v0zM72.001 669.999
c17.333 -0.666992 32.333 -7.33301 45 -20s19 -27.667 19 -45s-6.33301 -32.166 -19 -44.499s-27.667 -18.5 -45 -18.5s-32.166 6.16699 -44.499 18.5s-18.5 27.166 -18.5 44.499s6.16699 32.333 18.5 45s27.166 19 44.499 19v1zM289.001 670
c17.333 -0.666992 32.166 -7.33301 44.499 -20s18.5 -27.667 18.5 -45s-6.16699 -32.166 -18.5 -44.499s-27.166 -18.5 -44.499 -18.5s-32.166 6.16699 -44.499 18.5s-18.5 27.166 -18.5 44.499s6.16699 32.333 18.5 45s27.166 19 44.499 19v1z" />
    <glyph glyph-name="glyph233" unicode="&#xf0;" horiz-adv-x="595" 
d="M298 491l-32.001 53.001l-89 -37l-27 63l80 35l-38 61h82l26 -30l90 36l27 -64l-66 -28l100 -111c24.667 -28 44.667 -53.167 60 -75.5s27 -44.166 35 -65.499c5.33301 -14.667 9.33301 -29.667 12 -45s4 -31.333 4 -48c0 -76.667 -23.833 -137.834 -71.5 -183.501
s-111.167 -68.5 -190.5 -68.5c-81.333 0 -146.166 21.667 -194.499 65s-72.5 101.666 -72.5 174.999c0 84 23.333 149.5 70 196.5s111.667 70.5 195 70.5v1zM191.999 242.001c0 -58.667 9 -103.333 27 -134s44 -46 78 -46c35.333 0 62 15.333 80 46s27 75.334 27 134.001
c0 51.333 -9.5 92.166 -28.5 122.499s-44.833 45.5 -77.5 45.5s-58.5 -14.833 -77.5 -44.5s-28.5 -71.167 -28.5 -124.5v1z" />
    <glyph glyph-name="ntilde" unicode="&#xf1;" horiz-adv-x="673" 
d="M250 477l-2.99609 -73.0039c11.333 12.667 22.166 23.834 32.499 33.501s20.5 17.834 30.5 24.501c15.333 10 31.166 17.167 47.499 21.5s34.833 6.5 55.5 6.5c49.333 0 88 -12.333 116 -37s42 -59.334 42 -104.001v-223c0 -17.333 2.66699 -29.333 8 -36s15 -10 29 -10
l42 1v-81h-290v81h27c13.333 -0.666992 22.666 2.33301 27.999 9s8 18.334 8 35.001v176c0 34 -5.5 58.333 -16.5 73s-29.5 22 -55.5 22c-32.667 0 -56.5 -9.66699 -71.5 -29s-22.5 -49.666 -22.5 -90.999v-150c0 -17.333 2.66699 -29.333 8 -36s14.666 -10 27.999 -10l25 1
v-81h-285v81h40c13.333 -0.666992 22.666 2.33301 27.999 9s8 18.334 8 35.001v226c0 16 -2.66699 27.167 -8 33.5s-14.666 9.5 -27.999 9.5l-40 1v82h217v0zM205.004 546.996l-73.9961 0.000976562c7.33301 43.333 20.666 75.666 39.999 96.999s46.333 32 81 32
c15.333 0 30.333 -2.5 45 -7.5l44 -15.5c14.667 -6 29 -11.5 43 -16.5s27.667 -7.5 41 -7.5s23.166 3.5 29.499 10.5s10.5 18.5 12.5 34.5l76 1c-4.66699 -42 -17.834 -74.833 -39.501 -98.5s-49.167 -35.5 -82.5 -35.5c-16 0 -31.667 2.33301 -47 7s-30.333 10 -45 16
l-42.5 15c-13.667 4.66699 -26.834 7 -39.501 7c-13.333 0 -23.333 -3.16699 -30 -9.5s-10.667 -16.5 -12 -30.5v1z" />
    <glyph glyph-name="ograve" unicode="&#xf2;" horiz-adv-x="595" 
d="M33 241c3.33301 78.667 28.166 139.833 74.499 183.5s109.833 65.5 190.5 65.5c82.667 0 147.334 -22.667 194.001 -68s70 -107.666 70 -186.999c0 -76.667 -23.833 -137.834 -71.5 -183.501s-111.5 -68.5 -191.5 -68.5c-82.667 0 -147.667 21.833 -195 65.5
s-71 107.5 -71 191.5v1zM191 241.999c0 -58.667 9 -103.333 27 -134s44.333 -46 79 -46s61.167 15.333 79.5 46s27.5 75.334 27.5 134.001c0 51.333 -9.5 92.166 -28.5 122.499s-44.833 45.5 -77.5 45.5c-33.333 0 -59.5 -14.833 -78.5 -44.5s-28.5 -71.167 -28.5 -124.5v1z
M404 533l-73.999 0.000976562l-112 106c-8.66699 8 -15.334 15.167 -20.001 21.5s-7 11.166 -7 14.499c0 5.33301 2 9.5 6 12.5s10 4.5 18 4.5l129 1l60 -160v0z" />
    <glyph glyph-name="oacute" unicode="&#xf3;" horiz-adv-x="595" 
d="M33 241c3.33301 78.667 28.166 139.833 74.499 183.5s109.833 65.5 190.5 65.5c82.667 0 147.334 -22.667 194.001 -68s70 -107.666 70 -186.999c0 -76.667 -23.833 -137.834 -71.5 -183.501s-111.5 -68.5 -191.5 -68.5c-82.667 0 -147.667 21.833 -195 65.5
s-71 107.5 -71 191.5v1zM191 241.999c0 -58.667 9 -103.333 27 -134s44.333 -46 79 -46s61.167 15.333 79.5 46s27.5 75.334 27.5 134.001c0 51.333 -9.5 92.166 -28.5 122.499s-44.833 45.5 -77.5 45.5c-33.333 0 -59.5 -14.833 -78.5 -44.5s-28.5 -71.167 -28.5 -124.5v1z
M192 533l60.999 160h128c8 -0.666992 14 -2.5 18 -5.5s6 -7.16699 6 -12.5c0 -4 -2.16699 -9.16699 -6.5 -15.5s-11.166 -13.5 -20.499 -21.5l-112 -105h-74v0z" />
    <glyph glyph-name="ocircumflex" unicode="&#xf4;" horiz-adv-x="595" 
d="M33 241c3.33301 78.667 28.166 139.833 74.499 183.5s109.833 65.5 190.5 65.5c82.667 0 147.334 -22.667 194.001 -68s70 -107.666 70 -186.999c0 -76.667 -23.833 -137.834 -71.5 -183.501s-111.5 -68.5 -191.5 -68.5c-82.667 0 -147.667 21.833 -195 65.5
s-71 107.5 -71 191.5v1zM191 241.999c0 -58.667 9 -103.333 27 -134s44.333 -46 79 -46s61.167 15.333 79.5 46s27.5 75.334 27.5 134.001c0 51.333 -9.5 92.166 -28.5 122.499s-44.833 45.5 -77.5 45.5c-33.333 0 -59.5 -14.833 -78.5 -44.5s-28.5 -71.167 -28.5 -124.5v1z
M236 692h126l101 -159h-117l-64 91l-63 -91h-86l103 159v0z" />
    <glyph glyph-name="otilde" unicode="&#xf5;" horiz-adv-x="595" 
d="M33 241c3.33301 78.667 28.166 139.833 74.499 183.5s109.833 65.5 190.5 65.5c82.667 0 147.334 -22.667 194.001 -68s70 -107.666 70 -186.999c0 -76.667 -23.833 -137.834 -71.5 -183.501s-111.5 -68.5 -191.5 -68.5c-82.667 0 -147.667 21.833 -195 65.5
s-71 107.5 -71 191.5v1zM191 241.999c0 -58.667 9 -103.333 27 -134s44.333 -46 79 -46s61.167 15.333 79.5 46s27.5 75.334 27.5 134.001c0 51.333 -9.5 92.166 -28.5 122.499s-44.833 45.5 -77.5 45.5c-33.333 0 -59.5 -14.833 -78.5 -44.5s-28.5 -71.167 -28.5 -124.5v1z
M166 547l-73.9961 0.000976562c7.33301 43.333 20.666 75.666 39.999 96.999s46.333 32 81 32c15.333 0 30.333 -2.5 45 -7.5l44 -15.5c14.667 -6 29 -11.5 43 -16.5s27.667 -7.5 41 -7.5s23.166 3.5 29.499 10.5s10.5 18.5 12.5 34.5l76 1
c-4.66699 -42 -17.834 -74.833 -39.501 -98.5s-49.167 -35.5 -82.5 -35.5c-16 0 -31.667 2.33301 -47 7s-30.333 10 -45 16l-42.5 15c-13.667 4.66699 -26.834 7 -39.501 7c-13.333 0 -23.333 -3.16699 -30 -9.5s-10.667 -16.5 -12 -30.5v1z" />
    <glyph glyph-name="odieresis" unicode="&#xf6;" horiz-adv-x="595" 
d="M33 241c3.33301 78.667 28.166 139.833 74.499 183.5s109.833 65.5 190.5 65.5c82.667 0 147.334 -22.667 194.001 -68s70 -107.666 70 -186.999c0 -76.667 -23.833 -137.834 -71.5 -183.501s-111.5 -68.5 -191.5 -68.5c-82.667 0 -147.667 21.833 -195 65.5
s-71 107.5 -71 191.5v1zM191 241.999c0 -58.667 9 -103.333 27 -134s44.333 -46 79 -46s61.167 15.333 79.5 46s27.5 75.334 27.5 134.001c0 51.333 -9.5 92.166 -28.5 122.499s-44.833 45.5 -77.5 45.5c-33.333 0 -59.5 -14.833 -78.5 -44.5s-28.5 -71.167 -28.5 -124.5v1z
M190 670c17.333 -0.666992 32.333 -7.33301 45 -20s19 -27.667 19 -45s-6.33301 -32.166 -19 -44.499s-27.667 -18.5 -45 -18.5s-32.166 6.16699 -44.499 18.5s-18.5 27.166 -18.5 44.499s6.16699 32.333 18.5 45s27.166 19 44.499 19v1zM407 670.001
c17.333 -0.666992 32.166 -7.33301 44.499 -20s18.5 -27.667 18.5 -45s-6.16699 -32.166 -18.5 -44.499s-27.166 -18.5 -44.499 -18.5s-32.166 6.16699 -44.499 18.5s-18.5 27.166 -18.5 44.499s6.16699 32.333 18.5 45s27.166 19 44.499 19v1z" />
    <glyph glyph-name="Aacute" unicode="&#xf7;" 
 />
    <glyph glyph-name="OE" unicode="&#xf8;" horiz-adv-x="595" 
d="M515 510l44.998 -42l-55 -59c8 -12 14.833 -23 20.5 -33s10.834 -20.333 15.501 -31c7.33301 -16.667 12.666 -34.167 15.999 -52.5s5 -38.5 5 -60.5c0 -74.667 -24 -134.834 -72 -180.501s-111 -68.5 -189 -68.5c-32.667 0 -62.667 3.33301 -90 10
s-51.666 17 -72.999 31l-57 -60l-45 43l55 58c-19.333 22.667 -33.666 48.167 -42.999 76.5s-14 60.5 -14 96.5c0 78.667 23.833 140.334 71.5 185.001s113.834 67 198.501 67c29.333 0 56.666 -3.33301 81.999 -10s49 -17 71 -31l58 61v0zM218.998 109
c11.333 -16.667 23.5 -28.6689 36.5 -36.002s28.167 -11 45.5 -11c32 0 57.167 15.333 75.5 46s27.5 72.667 27.5 126c0 6.66699 -0.166992 12.334 -0.5 17.001s-0.5 9.33398 -0.5 14.001l-2 12c-0.666992 4 -1.66699 8.66699 -3 14l-179 -182v0zM377.998 361.998
c-9.33301 16.667 -20.501 28.834 -33.501 36.501s-28.167 11.5 -45.5 11.5c-32.667 0 -58.667 -14.667 -78 -44s-29 -69 -29 -119v-14.5c0 -4.33301 0.333008 -8.5 1 -12.5c0 -6 0.333008 -12.333 1 -19s1.33398 -15.334 2.00098 -26.001l182 187v0z" />
    <glyph glyph-name="ugrave" unicode="&#xf9;" horiz-adv-x="670" 
d="M563 477v-351c0 -17.333 2.66699 -29.333 8 -36s14.666 -10 27.999 -10l44 1v-81h-228v66c-7.33301 -9.33301 -14.333 -17.5 -21 -24.5s-13.334 -13.5 -20.001 -19.5c-16.667 -14 -34 -24 -52 -30s-38.667 -9 -62 -9c-50.667 0 -89.167 12.333 -115.5 37
s-39.5 61 -39.5 109v221c0 16.667 -2.66699 28.167 -8 34.5s-14.666 9.5 -27.999 9.5l-39 1v82h223v-295c0 -40 5.33301 -67.333 16 -82s30.334 -22 59.001 -22c29.333 0 51.166 10 65.499 30s21.5 50 21.5 90v152c0 16.667 -2.66699 28.167 -8 34.5
s-14.666 9.5 -27.999 9.5l-42 1v82h226v0zM442 533l-73.999 0.000976562l-112 106c-8.66699 8 -15.334 15.167 -20.001 21.5s-7 11.166 -7 14.499c0 5.33301 2 9.5 6 12.5s10 4.5 18 4.5l129 1l60 -160v0z" />
    <glyph glyph-name="uacute" unicode="&#xfa;" horiz-adv-x="670" 
d="M563 477v-351c0 -17.333 2.66699 -29.333 8 -36s14.666 -10 27.999 -10l44 1v-81h-228v66c-7.33301 -9.33301 -14.333 -17.5 -21 -24.5s-13.334 -13.5 -20.001 -19.5c-16.667 -14 -34 -24 -52 -30s-38.667 -9 -62 -9c-50.667 0 -89.167 12.333 -115.5 37
s-39.5 61 -39.5 109v221c0 16.667 -2.66699 28.167 -8 34.5s-14.666 9.5 -27.999 9.5l-39 1v82h223v-295c0 -40 5.33301 -67.333 16 -82s30.334 -22 59.001 -22c29.333 0 51.166 10 65.499 30s21.5 50 21.5 90v152c0 16.667 -2.66699 28.167 -8 34.5
s-14.666 9.5 -27.999 9.5l-42 1v82h226v0zM230 533l60.999 160h128c8 -0.666992 14 -2.5 18 -5.5s6 -7.16699 6 -12.5c0 -4 -2.16699 -9.16699 -6.5 -15.5s-11.166 -13.5 -20.499 -21.5l-112 -105h-74v0z" />
    <glyph glyph-name="ucircumflex" unicode="&#xfb;" horiz-adv-x="670" 
d="M563 477v-351c0 -17.333 2.66699 -29.333 8 -36s14.666 -10 27.999 -10l44 1v-81h-228v66c-7.33301 -9.33301 -14.333 -17.5 -21 -24.5s-13.334 -13.5 -20.001 -19.5c-16.667 -14 -34 -24 -52 -30s-38.667 -9 -62 -9c-50.667 0 -89.167 12.333 -115.5 37
s-39.5 61 -39.5 109v221c0 16.667 -2.66699 28.167 -8 34.5s-14.666 9.5 -27.999 9.5l-39 1v82h223v-295c0 -40 5.33301 -67.333 16 -82s30.334 -22 59.001 -22c29.333 0 51.166 10 65.499 30s21.5 50 21.5 90v152c0 16.667 -2.66699 28.167 -8 34.5
s-14.666 9.5 -27.999 9.5l-42 1v82h226v0zM273 692h126l101 -159h-117l-64 91l-63 -91h-86l103 159v0z" />
    <glyph glyph-name="udieresis" unicode="&#xfc;" horiz-adv-x="670" 
d="M563 477v-351c0 -17.333 2.66699 -29.333 8 -36s14.666 -10 27.999 -10l44 1v-81h-228v66c-7.33301 -9.33301 -14.333 -17.5 -21 -24.5s-13.334 -13.5 -20.001 -19.5c-16.667 -14 -34 -24 -52 -30s-38.667 -9 -62 -9c-50.667 0 -89.167 12.333 -115.5 37
s-39.5 61 -39.5 109v221c0 16.667 -2.66699 28.167 -8 34.5s-14.666 9.5 -27.999 9.5l-39 1v82h223v-295c0 -40 5.33301 -67.333 16 -82s30.334 -22 59.001 -22c29.333 0 51.166 10 65.499 30s21.5 50 21.5 90v152c0 16.667 -2.66699 28.167 -8 34.5
s-14.666 9.5 -27.999 9.5l-42 1v82h226v0zM227 670c17.333 -0.666992 32.333 -7.33301 45 -20s19 -27.667 19 -45s-6.33301 -32.166 -19 -44.499s-27.667 -18.5 -45 -18.5s-32.166 6.16699 -44.499 18.5s-18.5 27.166 -18.5 44.499s6.16699 32.333 18.5 45
s27.166 19 44.499 19v1zM444 670.001c17.333 -0.666992 32.166 -7.33301 44.499 -20s18.5 -27.667 18.5 -45s-6.16699 -32.166 -18.5 -44.499s-27.166 -18.5 -44.499 -18.5s-32.166 6.16699 -44.499 18.5s-18.5 27.166 -18.5 44.499s6.16699 32.333 18.5 45
s27.166 19 44.499 19v1z" />
    <glyph glyph-name="yacute" unicode="&#xfd;" 
 />
    <glyph glyph-name="glyph237" unicode="&#xfe;" horiz-adv-x="635" 
d="M255 667l0.000976562 -248.001c20.667 24.667 42.667 42.834 66 54.501s51 17.5 83 17.5c63.333 0 112 -21.5 146 -64.5s51 -104.5 51 -184.5c0 -79.333 -18 -142.166 -54 -188.499s-85 -69.5 -147 -69.5c-32.667 0 -60 4.33301 -82 13s-43 23.334 -63 44.001v-116
c0 -16.667 2.66699 -28.334 8 -35.001s14.666 -10 27.999 -10h48v-81h-309v81h40c14 0 23.667 3.16699 29 9.5s8 18.166 8 35.499v616c0 16.667 -2.66699 28.167 -8 34.5s-15 9.5 -29 9.5l-40 1v81h225v0zM253.001 241.999c0 -9.33301 0.167969 -18.6689 0.500977 -28.002
s1.16602 -19 2.49902 -29c3.33301 -27.333 11.5 -52.666 24.5 -75.999s35.5 -35 67.5 -35c31.333 0 55 14.333 71 43s24 70.667 24 126c0 48.667 -7.66699 86.5 -23 113.5s-37 40.5 -65 40.5c-32.667 0 -57.5 -13.167 -74.5 -39.5s-26.167 -65.166 -27.5 -116.499v1z" />
    <glyph glyph-name="Egrave" unicode="&#xff;" horiz-adv-x="584" 
d="M333 153l88.998 208.003l3.5 10.5c1 3 1.5 5.83301 1.5 8.5c0 6 -1.66699 10 -5 12s-9.66602 3 -18.999 3l-38 1v81h219v-81h-19c-9.33301 -0.666992 -16.5 -1.83398 -21.5 -3.50098s-9.5 -5.83398 -13.5 -12.501c-2.66699 -3.33301 -5.16699 -7.33301 -7.5 -12
s-4.83301 -10.334 -7.5 -17.001l-189 -425c-22.667 -50.667 -47 -86.834 -73 -108.501s-58.333 -32.5 -97 -32.5c-45.333 0 -80.833 10.333 -106.5 31s-38.5 49.667 -38.5 87c0 26 8.16699 47.833 24.5 65.5s36.5 26.5 60.5 26.5c19.333 0 35.833 -6.5 49.5 -19.5
s20.5 -28.833 20.5 -47.5c0 -17.333 -4.5 -30.833 -13.5 -40.5s-24.5 -16.834 -46.5 -21.501l5 -6.5c1.33301 -1.66699 3 -3.16699 5 -4.5c3.33301 -3.33301 7.16602 -5.5 11.499 -6.5s9.83301 -1.5 16.5 -1.5c12.667 0 24 2.66699 34 8s19.667 14.333 29 27
c7.33301 9.33301 14.833 21.333 22.5 36s15.834 32.334 24.501 53.001l-170 390c-1.33301 2 -2.5 4 -3.5 6s-1.83301 4 -2.5 6c-5.33301 9.33301 -11.166 15.333 -17.499 18s-16.5 4 -30.5 4l-23 1v81h304v-81h-41c-10.667 -0.666992 -18 -2 -22 -4s-6 -6 -6 -12
c0 -1.33301 0.333008 -3.16602 1 -5.49902s1.66699 -5.5 3 -9.5l87 -212v0zM210.998 671.003c17.333 -0.666992 32.333 -7.33301 45 -20s19 -27.667 19 -45s-6.33301 -32.166 -19 -44.499s-27.667 -18.5 -45 -18.5s-32.166 6.16699 -44.499 18.5s-18.5 27.166 -18.5 44.499
s6.16699 32.333 18.5 45s27.166 19 44.499 19v1zM427.998 671.004c17.333 -0.666992 32.166 -7.33301 44.499 -20s18.5 -27.667 18.5 -45s-6.16699 -32.166 -18.5 -44.499s-27.166 -18.5 -44.499 -18.5s-32.166 6.16699 -44.499 18.5s-18.5 27.166 -18.5 44.499
s6.16699 32.333 18.5 45s27.166 19 44.499 19v1z" />
    <glyph glyph-name="Abreve" unicode="&#x102;" 
 />
    <glyph glyph-name="abreve" unicode="&#x103;" 
 />
    <glyph glyph-name="Aogonek" unicode="&#x104;" 
 />
    <glyph glyph-name="aogonek" unicode="&#x105;" 
 />
    <glyph glyph-name="Cacute" unicode="&#x106;" 
 />
    <glyph glyph-name="cacute" unicode="&#x107;" 
 />
    <glyph glyph-name="Ccaron" unicode="&#x10c;" 
 />
    <glyph glyph-name="ccaron" unicode="&#x10d;" 
 />
    <glyph glyph-name="Dcaron" unicode="&#x10e;" 
 />
    <glyph glyph-name="dcaron" unicode="&#x10f;" 
 />
    <glyph glyph-name="Dcroat" unicode="&#x110;" 
 />
    <glyph glyph-name="dcroat" unicode="&#x111;" 
 />
    <glyph glyph-name="Eogonek" unicode="&#x118;" 
 />
    <glyph glyph-name="eogonek" unicode="&#x119;" 
 />
    <glyph glyph-name="Ecaron" unicode="&#x11a;" 
 />
    <glyph glyph-name="ecaron" unicode="&#x11b;" 
 />
    <glyph glyph-name="Gbreve" unicode="&#x11e;" 
 />
    <glyph glyph-name="gbreve" unicode="&#x11f;" 
 />
    <glyph glyph-name="Idotaccent" unicode="&#x130;" 
 />
    <glyph glyph-name="thorn" unicode="&#x131;" horiz-adv-x="358" 
d="M257 477l0.000976562 -351.001c0 -17.333 2.66699 -29.333 8 -36s14.666 -10 27.999 -10l42 1v-81h-305v81h43c13.333 -0.666992 22.666 2.33301 27.999 9s8 18.334 8 35.001v226c0 16 -2.66699 27.167 -8 33.5s-14.666 9.5 -27.999 9.5l-43 1v82h227v0z" />
    <glyph glyph-name="Lacute" unicode="&#x139;" 
 />
    <glyph glyph-name="lacute" unicode="&#x13a;" 
 />
    <glyph glyph-name="Lcaron" unicode="&#x13d;" 
 />
    <glyph glyph-name="lcaron" unicode="&#x13e;" 
 />
    <glyph glyph-name="Ldot" unicode="&#x13f;" 
 />
    <glyph glyph-name="ldot" unicode="&#x140;" 
 />
    <glyph glyph-name="glyph225" unicode="&#x141;" horiz-adv-x="709" 
d="M142 244l-106 -59.9971v83l106 59v211c0 16.667 -4 28.5 -12 35.5s-22 10.5 -42 10.5l-52 1v83h385v-83h-60c-20 -0.666992 -34 -4.5 -42 -11.5s-12 -19.167 -12 -36.5v-130l156 87v-82l-156 -88v-237h138c70 -0.666992 112.667 19.166 128 59.499
s23.333 89.166 24 146.499l95 1v-293h-656v82h52c20 -0.666992 34 2.66602 42 9.99902s12 19.333 12 36v116v0z" />
    <glyph glyph-name="glyph226" unicode="&#x142;" horiz-adv-x="360" 
d="M257 422l80 40.999v-82l-80 -42v-213c0 -17.333 2.66699 -29.333 8 -36s14.333 -10 27 -10l45 1v-81h-307v81h42c14 -0.666992 23.667 2.33301 29 9s8 18.334 8 35.001v147l-79 -41v82l79 41v187c0 16 -2.66699 27.167 -8 33.5s-15 9.5 -29 9.5l-42 1v82h227v-245v0z" />
    <glyph glyph-name="Nacute" unicode="&#x143;" 
 />
    <glyph glyph-name="nacute" unicode="&#x144;" 
 />
    <glyph glyph-name="Ncaron" unicode="&#x147;" 
 />
    <glyph glyph-name="ncaron" unicode="&#x148;" 
 />
    <glyph glyph-name="Ohungarumlaut" unicode="&#x150;" 
 />
    <glyph glyph-name="ohungarumlaut" unicode="&#x151;" 
 />
    <glyph glyph-name="fi" unicode="&#x152;" horiz-adv-x="1115" 
d="M1059 667l-0.000976562 -260.997h-95c-0.666992 49.333 -6.66699 90.666 -18 123.999s-48.666 50 -111.999 50l-155 1v-192h51c21.333 -0.666992 36 4.16602 44 14.499s12 28.5 12 54.5v45h92v-320h-92v45c0 26.667 -4 45.167 -12 55.5s-22.333 15.5 -43 15.5l-52 1v-214
h147c63.333 -0.666992 102.333 15.666 117 48.999s22 77.333 22 132v3.5v4.5c-0.666992 1.33301 -1 2.83301 -1 4.5v5.5l95 1l-6 -286h-497c-14.667 -0 -29.167 -0.666992 -43.5 -2l-42.5 -4l-43.5 -4c-14.333 -1.33301 -28.833 -2 -43.5 -2
c-102 0 -184.667 31.167 -248 93.5s-95 143.833 -95 244.5c0 104.667 33.5 189.5 100.5 254.5s154.167 97.5 261.5 97.5c13.333 0 26.333 -0.666992 39 -2l38 -4l38.5 -4c13 -1.33301 25.833 -2 38.5 -2l503 1v0zM512.999 538.003
c-15.333 18.667 -31.332 32.168 -47.999 40.501s-36.334 12.5 -59.001 12.5c-54.667 0 -100.5 -24.667 -137.5 -74s-55.5 -111 -55.5 -185c0 -80.667 17.333 -145.334 52 -194.001s81 -73 139 -73c24 0 45.5 4.16699 64.5 12.5s33.833 19.833 44.5 34.5v426v0z" />
    <glyph glyph-name="fl" unicode="&#x153;" horiz-adv-x="908" 
d="M875 218l-342.996 -0.00195312c3.33301 -49.333 15.666 -86.5 36.999 -111.5s51.333 -37.5 90 -37.5c26 0 48.167 7.66699 66.5 23s32.833 39 43.5 71l100 1c-12 -57.333 -37.333 -101.833 -76 -133.5s-86.667 -47.5 -144 -47.5c-41.333 0 -76.833 5.5 -106.5 16.5
s-54.834 28.167 -75.501 51.5c-18.667 -22 -42.834 -38.833 -72.501 -50.5s-62.834 -17.5 -99.501 -17.5c-81.333 0 -145.166 22.167 -191.499 66.5s-69.5 105.833 -69.5 184.5c0 79.333 23.167 142 69.5 188s109.5 69 189.5 69c37.333 0 72.166 -5.66699 104.499 -17
s57.5 -26.666 75.5 -45.999c22.667 22.667 47 38.834 73 48.501s56.667 14.5 92 14.5c86 0 147 -26 183 -78s54 -117.333 54 -196v1zM192.004 234.998c0 -56 9.00098 -98.834 27.001 -128.501s44.333 -44.5 79 -44.5c32.667 0 57.834 15.333 75.501 46
s26.5 74.334 26.5 131.001c0 40.667 -3.33301 72.167 -10 94.5s-18 40.833 -34 55.5c-6 5.33301 -12.333 9.66602 -19 12.999s-13.334 6 -20.001 8c-2.66699 0 -5.16699 0.166992 -7.5 0.5s-4.5 0.5 -6.5 0.5c-36.667 0 -64.334 -14.667 -83.001 -44
s-28 -73.666 -28 -132.999v1zM724.005 298.997c-1.33301 34 -10.167 61.167 -26.5 81.5s-37.833 30.5 -64.5 30.5c-31.333 0 -55.333 -11.5 -72 -34.5s-25 -49.167 -25 -78.5l188 1v0z" />
    <glyph glyph-name="Racute" unicode="&#x154;" 
 />
    <glyph glyph-name="racute" unicode="&#x155;" 
 />
    <glyph glyph-name="Rcaron" unicode="&#x158;" 
 />
    <glyph glyph-name="rcaron" unicode="&#x159;" 
 />
    <glyph glyph-name="Sacute" unicode="&#x15a;" 
 />
    <glyph glyph-name="sacute" unicode="&#x15b;" 
 />
    <glyph glyph-name="Scedilla" unicode="&#x15e;" 
 />
    <glyph glyph-name="scedilla" unicode="&#x15f;" 
 />
    <glyph glyph-name="glyph227" unicode="&#x160;" horiz-adv-x="655" 
d="M601 667l-0.000976562 -240.001h-93c0 0.666992 -0.166992 1.83398 -0.5 3.50098s-0.5 3.16699 -0.5 4.5c-2 14.667 -4.16699 26.834 -6.5 36.501s-5.83301 18.834 -10.5 27.501c-1.33301 3.33301 -3.16602 6.83301 -5.49902 10.5l-7.5 11.5
c-15.333 22 -36.5 40.333 -63.5 55s-55.167 23 -84.5 25h-5.5h-5.5c-40 0 -72.5 -8.16699 -97.5 -24.5s-37.5 -37.833 -37.5 -64.5c0 -29.333 15.5 -50 46.5 -62s67.833 -22 110.5 -30l32.5 -6c11 -2 22.167 -4.33301 33.5 -7c55.333 -12 106.166 -31.5 152.499 -58.5
s69.5 -75.167 69.5 -144.5c0 -72.667 -23.667 -128.334 -71 -167.001s-115 -58 -203 -58h-10c-3.33301 0 -6.66602 0.333008 -9.99902 1c-35.333 1.33301 -69.833 8 -103.5 20s-63.834 29.667 -90.501 53l-21 -53h-79v248h94l8.5 -34.5c2.33301 -9 4.5 -16.833 6.5 -23.5
s4.16699 -12.334 6.5 -17.001s4.83301 -9 7.5 -13c1.33301 -2.66699 2.83301 -5 4.5 -7s3.5 -4.33301 5.5 -7c16.667 -22 41.334 -40 74.001 -54s67 -21 103 -21c37.333 0 67.833 8.16699 91.5 24.5s35.5 36.833 35.5 61.5c0 18 -3.66699 31.833 -11 41.5s-23 18.5 -47 26.5
c-10 3.33301 -21.5 6.66602 -34.5 9.99902l-44.5 11l-101 25c-56.667 12 -103.667 30.667 -141 56s-56 71 -56 137c0 68.667 24.5 123 73.5 163s114.833 60 197.5 60c40.667 0 76.667 -5.16699 108 -15.5s60.333 -27.166 87 -50.499l15 46h78v0zM375.999 697.999h-126
l-101 159h117l63 -90l64 90h86l-103 -159v0z" />
    <glyph glyph-name="glyph228" unicode="&#x161;" horiz-adv-x="514" 
d="M462 476l0.000976562 -167.999h-80c-12 33.333 -30.333 58.833 -55 76.5s-54.667 26.5 -90 26.5c-21.333 0 -38.833 -3.83301 -52.5 -11.5s-20.5 -17.834 -20.5 -30.501c0 -17.333 9.5 -29.833 28.5 -37.5s42.167 -14.167 69.5 -19.5c9.33301 -2 19.166 -4 29.499 -6
s20.5 -4.33301 30.5 -7c39.333 -9.33301 75.5 -25 108.5 -47s49.5 -60 49.5 -114c0 -48.667 -17.167 -86.667 -51.5 -114s-82.166 -41 -143.499 -41c-32 0 -59.167 3 -81.5 9s-43.833 16.333 -64.5 31l-10.5 8c-3.66699 2.66699 -7.16699 5.66699 -10.5 9l-9 -40h-76v180h76
c13.333 -40 32.5 -69.667 57.5 -89s58.833 -29 101.5 -29c23.333 0 42 4.16699 56 12.5s21 19.5 21 33.5c0 18 -10 31.167 -30 39.5s-44 15.5 -72 21.5l-26.5 6l-27.5 6c-38.667 9.33301 -74.334 24.333 -107.001 45s-49 56 -49 106s17 88.833 51 116.5
s81.667 41.5 143 41.5c32.667 0 61.167 -4 85.5 -12s47.5 -21 69.5 -39l9 37h71v0zM319.001 533.001h-126l-101 159h117l63 -90l64 90h86l-103 -159v0z" />
    <glyph glyph-name="Tcommaaccent" unicode="&#x162;" 
 />
    <glyph glyph-name="tcommaaccent" unicode="&#x163;" 
 />
    <glyph glyph-name="Tcaron" unicode="&#x164;" 
 />
    <glyph glyph-name="tcaron" unicode="&#x165;" 
 />
    <glyph glyph-name="Uring" unicode="&#x16e;" 
 />
    <glyph glyph-name="uring" unicode="&#x16f;" 
 />
    <glyph glyph-name="Uhungarumlaut" unicode="&#x170;" 
 />
    <glyph glyph-name="uhungarumlaut" unicode="&#x171;" 
 />
    <glyph glyph-name="Iacute" unicode="&#x178;" horiz-adv-x="737" 
d="M303 262l-191 262.996c-3.33301 4 -6.33301 7.83301 -9 11.5s-5.66699 6.83398 -9 9.50098c-12 14 -25.167 23.167 -39.5 27.5s-32.5 6.5 -54.5 6.5v87h387v-86h-51c-12.667 -0.666992 -22 -2.5 -28 -5.5s-9 -7.5 -9 -13.5c0 -3.33301 0.833008 -6.66602 2.5 -9.99902
s3.5 -6.33301 5.5 -9c1.33301 -1.33301 2.33301 -2.5 3 -3.5s1.33398 -2.16699 2.00098 -3.5l107 -155l99 163c3.33301 4.66699 5.66602 8.83398 6.99902 12.501s2 6.83398 2 9.50098c0 5.33301 -2 9 -6 11s-11.667 3 -23 3l-49 1v86h288v-86h-19
c-8.66699 -0.666992 -16.167 -1.5 -22.5 -2.5s-12.5 -3.5 -18.5 -7.5c-8.66699 -5.33301 -18 -15 -28 -29s-24 -35 -42 -63l-139 -217v-133c0 -17.333 4 -29.5 12 -36.5s22 -10.5 42 -10.5l62 1v-83h-397v83h62c20 -0.666992 34 2.5 42 9.5s12 18.833 12 35.5v134v0z
M287 846.996c17.333 -0.666992 32.333 -7.33301 45 -20s19 -27.667 19 -45s-6.33301 -32.166 -19 -44.499s-27.667 -18.5 -45 -18.5s-32.166 6.16699 -44.499 18.5s-18.5 27.166 -18.5 44.499s6.16699 32.333 18.5 45s27.166 19 44.499 19v1zM504 846.997
c17.333 -0.666992 32.166 -7.33301 44.499 -20s18.5 -27.667 18.5 -45s-6.16699 -32.166 -18.5 -44.499s-27.166 -18.5 -44.499 -18.5s-32.166 6.16699 -44.499 18.5s-18.5 27.166 -18.5 44.499s6.16699 32.333 18.5 45s27.166 19 44.499 19v1z" />
    <glyph glyph-name="Zacute" unicode="&#x179;" 
 />
    <glyph glyph-name="zacute" unicode="&#x17a;" 
 />
    <glyph glyph-name="Zdotaccent" unicode="&#x17b;" 
 />
    <glyph glyph-name="zdotaccent" unicode="&#x17c;" 
 />
    <glyph glyph-name="Zcaron" unicode="&#x17d;" 
 />
    <glyph glyph-name="zcaron" unicode="&#x17e;" 
 />
    <glyph glyph-name="quotedblright" unicode="&#x192;" horiz-adv-x="571" 
d="M166 458l77.0029 -0.00195312c1.33301 6 2.5 12.667 3.5 20s2.16699 14.666 3.5 21.999l2 17.5c0.666992 5.66699 1.66699 11.5 3 17.5c4 24 9.66699 47.667 17 71s19.333 43.666 36 60.999c20 21.333 43.667 37.166 71 47.499s58 15.5 92 15.5
c33.333 0 60.5 -10.167 81.5 -30.5s31.5 -46.166 31.5 -77.499c0 -23.333 -5.83301 -41.333 -17.5 -54s-28.834 -19 -51.501 -19c-21.333 0 -38.166 5.16699 -50.499 15.5s-18.5 24.5 -18.5 42.5c0 11.333 2.66699 21.333 8 30s13.333 16.334 24 23.001
c-0.666992 1.33301 -1.33398 2.33301 -2.00098 3s-1.66699 1.33398 -3 2.00098c-1.33301 1.33301 -2.66602 2.16602 -3.99902 2.49902s-3.33301 0.5 -6 0.5c-12.667 0 -23.334 -6.16699 -32.001 -18.5s-15 -30.166 -19 -53.499l-25 -138h115l-14 -80h-115l-55 -315
c0 -2 -0.166992 -3.83301 -0.5 -5.5s-0.833008 -3.16699 -1.5 -4.5c-6 -34 -13 -59.333 -21 -76s-20.333 -31.667 -37 -45l-2 -2l-2 -2c-14 -12 -30 -21.833 -48 -29.5s-36.333 -13.167 -55 -16.5l-19.5 -2c-6.33301 -0.666992 -12.833 -1 -19.5 -1
c-36.667 0 -66.5 10 -89.5 30s-34.5 46.333 -34.5 79c0 22.667 6.5 40.834 19.5 54.501s30.833 20.5 53.5 20.5c18.667 0 33.667 -5.66699 45 -17s17 -25.666 17 -42.999c0 -10.667 -2.33301 -20.667 -7 -30s-12.334 -17.333 -23.001 -24
c3.33301 -2 6.16602 -3.5 8.49902 -4.5s4.5 -1.83301 6.5 -2.5c2 0 3.66699 -0.166992 5 -0.5s3 -0.5 5 -0.5c11.333 0 20 3.66699 26 11s11.333 21.333 16 42c1.33301 4 2.5 8.83301 3.5 14.5s2.16699 11.5 3.5 17.5l62 352h-77l14 80v0z" />
    <glyph glyph-name="uni02BA" unicode="&#x2ba;" horiz-adv-x="500" 
d="M51 533l59 155.001h125c7.33301 -0.666992 13 -2.33398 17 -5.00098s6 -7 6 -13c0 -3.33301 -2.16699 -8 -6.5 -14s-10.833 -13 -19.5 -21l-109 -102h-72v0zM243 533.001l59 155.001h125c8 -0.666992 13.833 -2.33398 17.5 -5.00098s5.5 -7 5.5 -13
c0 -3.33301 -2.16699 -8 -6.5 -14s-10.833 -13 -19.5 -21l-109 -102h-72v0z" />
    <glyph glyph-name="arrowright" unicode="&#x2c6;" horiz-adv-x="500" 
d="M118 547l-73.9961 0.000976562c7.33301 43.333 20.666 75.666 39.999 96.999s46.333 32 81 32c15.333 0 30.333 -2.5 45 -7.5l44 -15.5c14.667 -6 29 -11.5 43 -16.5s27.667 -7.5 41 -7.5s23.166 3.5 29.499 10.5s10.5 18.5 12.5 34.5l76 1
c-4.66699 -42 -17.834 -74.833 -39.501 -98.5s-49.167 -35.5 -82.5 -35.5c-16 0 -31.667 2.33301 -47 7s-30.333 10 -45 16l-42.5 15c-13.667 4.66699 -26.834 7 -39.501 7c-13.333 0 -23.333 -3.16699 -30 -9.5s-10.667 -16.5 -12 -30.5v1z" />
    <glyph glyph-name="glyph224" unicode="&#x2c7;" horiz-adv-x="500" 
d="M312 533h-126l-101 159h117l63 -90l64 90h86l-103 -159v0z" />
    <glyph glyph-name="house" unicode="&#x2c9;" horiz-adv-x="500" 
d="M447 646v-83h-394v83h394v0z" />
    <glyph glyph-name="endash" unicode="&#x2d8;" horiz-adv-x="500" 
d="M88 682l97 0.000976562c6 -24.667 13.667 -41.667 23 -51s23 -14 41 -14c18.667 0 32.667 4.5 42 13.5s17 25.833 23 50.5l97 1c-7.33301 -48.667 -24.333 -84.834 -51 -108.501s-63.667 -35.5 -111 -35.5c-46 0 -83 12.167 -111 36.5s-44.667 59.833 -50 106.5v1z" />
    <glyph glyph-name="sfthyphen" unicode="&#x2d9;" horiz-adv-x="500" 
d="M249 670c17.333 -0.666992 32.333 -7.33301 45 -20s19 -27.667 19 -45s-6.33301 -32.166 -19 -44.499s-27.667 -18.5 -45 -18.5s-32.166 6.16699 -44.499 18.5s-18.5 27.166 -18.5 44.499s6.16699 32.333 18.5 45s27.166 19 44.499 19v1z" />
    <glyph glyph-name="filledbox" unicode="&#x2da;" horiz-adv-x="500" 
d="M251 736c28 -0.666992 51.833 -10.832 71.5 -30.499s29.5 -43.5 29.5 -71.5c0 -28.667 -9.83301 -52.834 -29.5 -72.501s-43.5 -29.5 -71.5 -29.5c-28.667 0 -52.834 10 -72.501 30s-29.5 44 -29.5 72s9.83301 51.833 29.5 71.5s43.834 29.5 72.501 29.5v1zM251 683.002
c-13.333 -0.666992 -24.833 -5.66699 -34.5 -15s-14.5 -20.666 -14.5 -33.999s4.83301 -24.833 14.5 -34.5s21.167 -14.5 34.5 -14.5s24.666 4.83301 33.999 14.5s14 21.167 14 34.5s-4.66699 24.666 -14 33.999s-20.666 14 -33.999 14v1z" />
    <glyph glyph-name="glyph223" unicode="&#x2db;" horiz-adv-x="500" 
d="M409 0l90.998 0.000976562c-18.667 -10 -33.667 -19.5 -45 -28.5s-19.666 -17.5 -24.999 -25.5c-3.33301 -5.33301 -5.83301 -10.5 -7.5 -15.5s-2.5 -10.167 -2.5 -15.5c0 -10.667 3.33301 -18.834 10 -24.501s15.334 -8.5 26.001 -8.5c8 0 16.5 0.666992 25.5 2
s17.833 3.33301 26.5 6v-76c-10.667 -4 -21.5 -7 -32.5 -9s-23.167 -3 -36.5 -3c-29.333 0 -54 9.33301 -74 28s-30 41.667 -30 69c0 20 6 38.167 18 54.5s30.667 31.833 56 46.5v0z" />
    <glyph glyph-name="onehalf" unicode="&#x2dc;" horiz-adv-x="500" 
d="M188 692h126l101 -159h-117l-64 91l-63 -91h-86l103 159v0z" />
    <glyph glyph-name="Gamma" unicode="&#x393;" 
 />
    <glyph glyph-name="Theta" unicode="&#x398;" 
 />
    <glyph glyph-name="exclamdown" unicode="&#x3a3;" 
 />
    <glyph glyph-name="Phi" unicode="&#x3a6;" 
 />
    <glyph glyph-name="Atilde" unicode="&#x3a9;" 
 />
    <glyph glyph-name="alpha" unicode="&#x3b1;" 
 />
    <glyph glyph-name="delta" unicode="&#x3b4;" 
 />
    <glyph glyph-name="epsilon" unicode="&#x3b5;" 
 />
    <glyph glyph-name="guillemotleft" unicode="&#x3c0;" 
 />
    <glyph glyph-name="sigma" unicode="&#x3c3;" 
 />
    <glyph glyph-name="tau" unicode="&#x3c4;" 
 />
    <glyph glyph-name="phi" unicode="&#x3c6;" 
 />
    <glyph glyph-name="glyph259" unicode="&#x2013;" horiz-adv-x="571" 
d="M44 306h481v-125h-481v125v0z" />
    <glyph glyph-name="periodcentered" unicode="&#x2014;" horiz-adv-x="760" 
d="M10 306h740v-125h-740v125v0z" />
    <glyph glyph-name="underscoredbl" unicode="&#x2017;" 
 />
    <glyph glyph-name="Acircumflex" unicode="&#x2018;" horiz-adv-x="267" 
d="M219 690l-0.000976562 -58.999c-1.33301 -1.33301 -2.66602 -2.16602 -3.99902 -2.49902s-2.66602 -0.833008 -3.99902 -1.5c-22 -9.33301 -42 -21.666 -60 -36.999s-27 -36 -27 -62c6.66699 2.66699 12.167 4.66699 16.5 6s8.5 2.33301 12.5 3
c2 0.666992 4.16699 1 6.5 1h7.5c21.333 0 38.333 -7 51 -21s19 -32.667 19 -56c0 -22.667 -8.33301 -41.834 -25 -57.501s-37.334 -23.5 -62.001 -23.5c-29.333 0 -53.333 11.167 -72 33.5s-28 51.5 -28 87.5c0 49.333 14.5 90.166 43.5 122.499
s70.833 54.166 125.5 65.499v1z" />
    <glyph glyph-name="Ecircumflex" unicode="&#x2019;" horiz-adv-x="267" 
d="M48 379l0.000976562 59.999c1.33301 0 2.66602 0.166992 3.99902 0.5s2.66602 0.833008 3.99902 1.5c22 8.66699 42 20.667 60 36s27 36 27 62c-6.66699 -2.66699 -12.167 -4.66699 -16.5 -6s-8.5 -2.33301 -12.5 -3c-2 -0.666992 -4 -1 -6 -1h-7
c-21.333 0 -38.5 7.16699 -51.5 21.5s-19.5 33.166 -19.5 56.499c0 22.667 8.33301 41.667 25 57s37.334 23 62.001 23c30 0 54.167 -11.167 72.5 -33.5s27.5 -51.5 27.5 -87.5c0 -49.333 -14.5 -90.166 -43.5 -122.499s-70.833 -54.166 -125.5 -65.499v1z" />
    <glyph glyph-name="Ugrave" unicode="&#x201a;" 
 />
    <glyph glyph-name="quotedblbase" unicode="&#x201c;" horiz-adv-x="510" 
d="M219 690l-0.000976562 -58.999c-1.33301 -1.33301 -2.66602 -2.16602 -3.99902 -2.49902s-2.66602 -0.833008 -3.99902 -1.5c-22 -9.33301 -42 -21.666 -60 -36.999s-27 -36 -27 -62c6.66699 2.66699 12.167 4.66699 16.5 6s8.5 2.33301 12.5 3
c2 0.666992 4.16699 1 6.5 1h7.5c21.333 0 38.333 -7 51 -21s19 -32.667 19 -56c0 -22.667 -8.33301 -41.834 -25 -57.501s-37.334 -23.5 -62.001 -23.5c-29.333 0 -53.333 11.167 -72 33.5s-28 51.5 -28 87.5c0 49.333 14.5 90.166 43.5 122.499
s70.833 54.166 125.5 65.499v1zM461.999 690.001l-0.000976562 -58.9971c-1.33301 -1.33301 -2.66602 -2.16602 -3.99902 -2.49902s-2.66602 -0.833008 -3.99902 -1.5c-22 -8.66699 -42 -20.834 -60 -36.501s-27 -36.5 -27 -62.5c6 2.66699 11.167 4.66699 15.5 6
s8.5 2.33301 12.5 3c2.66699 0.666992 5.16699 1 7.5 1h7.5c21.333 0 38.333 -7 51 -21s19 -32.667 19 -56c0 -22.667 -8.33301 -41.834 -25 -57.501s-37.334 -23.5 -62.001 -23.5c-30 0 -54.167 11.167 -72.5 33.5s-27.5 51.5 -27.5 87.5
c0 49.333 14.5 90.166 43.5 122.499s70.833 54.166 125.5 65.499v1z" />
    <glyph glyph-name="perthousand" unicode="&#x201d;" horiz-adv-x="510" 
d="M48 379l-0.00195312 59.998c0.666992 -0.666992 1.16699 -0.833984 1.5 -0.500977s0.833008 0.5 1.5 0.5c22.667 8.66699 43.667 20.834 63 36.501s29 36.834 29 63.501c-6 -2.66699 -11.167 -4.66699 -15.5 -6s-8.16602 -2.33301 -11.499 -3
c-2.66699 -0.666992 -5.16699 -1 -7.5 -1h-7.5c-21.333 0 -38.5 7.16699 -51.5 21.5s-19.5 33.166 -19.5 56.499c0 22.667 8.33301 41.667 25 57s37.334 23 62.001 23c30 0 54.167 -11.167 72.5 -33.5s27.5 -51.5 27.5 -87.5c0 -49.333 -14.5 -90.166 -43.5 -122.499
s-70.833 -54.166 -125.5 -65.499v1zM290.998 378.998l0.000976562 59.999c1.33301 0 2.66602 0.166992 3.99902 0.5s2.66602 0.833008 3.99902 1.5c22 8.66699 42 20.667 60 36s27 36 27 62c-6 -2.66699 -11.167 -4.66699 -15.5 -6s-8.5 -2.33301 -12.5 -3
c-2.66699 -0.666992 -5.16699 -1 -7.5 -1h-7.5c-20.667 0 -37.5 7.16699 -50.5 21.5s-19.5 33.166 -19.5 56.499c0 22.667 8.33301 41.667 25 57s37.334 23 62.001 23c29.333 0 53.333 -11.167 72 -33.5s28 -51.5 28 -87.5c0 -49.333 -14.5 -90.166 -43.5 -122.499
s-70.833 -54.166 -125.5 -65.499v1z" />
    <glyph glyph-name="dotlessi" unicode="&#x201e;" horiz-adv-x="510" 
d="M48 -157l-0.000976562 59.998c0.666992 0 1.16699 0.166992 1.5 0.5s0.833008 0.5 1.5 0.5c22.667 8.66699 43.667 20.834 63 36.501s29 36.5 29 62.5l-16.5 -5c-4.33301 -1.33301 -8.5 -2 -12.5 -2c-2 -0.666992 -4 -1 -6 -1h-7c-21.333 0 -38.5 6.83301 -51.5 20.5
s-19.5 32.167 -19.5 55.5c0 22.667 8.33301 41.667 25 57s37.334 23 62.001 23c30 0 54.167 -11.167 72.5 -33.5s27.5 -51.5 27.5 -87.5c0 -48.667 -14.5 -89.167 -43.5 -121.5s-70.833 -54.166 -125.5 -65.499v0zM290.999 -157.002l0.000976562 60
c1.33301 0.666992 2.66602 1.16699 3.99902 1.5s2.66602 0.833008 3.99902 1.5c22 8.66699 42 20.667 60 36s27 35.666 27 60.999l-16.5 -5c-4.33301 -1.33301 -8.5 -2 -12.5 -2c-2 -0.666992 -4.16699 -1 -6.5 -1h-7.5c-20.667 0 -37.5 6.83301 -50.5 20.5
s-19.5 32.167 -19.5 55.5c0 22.667 8.33301 41.667 25 57s37.334 23 62.001 23c29.333 0 53.333 -11.167 72 -33.5s28 -51.5 28 -87.5c0 -48.667 -14.5 -89.167 -43.5 -121.5s-70.833 -54.166 -125.5 -65.499v0z" />
    <glyph glyph-name="dagger" unicode="&#x2020;" horiz-adv-x="571" 
d="M260 407l-19.5049 -8.49902l-21.5 -9.5c-2 -0.666992 -3.83301 -1.5 -5.5 -2.5s-3.16699 -1.83301 -4.5 -2.5l-35.5 -17c-11 -5.33301 -19.167 -8 -24.5 -8c-18.667 0 -34.167 7.16699 -46.5 21.5s-18.5 32.833 -18.5 55.5s5.66699 40.834 17 54.501s26.333 20.5 45 20.5
c8.66699 0 18.167 -2.5 28.5 -7.5l34.5 -17.5c7.33301 -4 15.333 -7.66699 24 -11s17.667 -6.33301 27 -9c0 16.667 -2.16699 31.834 -6.5 45.501s-9.16602 26.834 -14.499 39.501c-1.33301 2 -2.5 4 -3.5 6s-1.83301 4.33301 -2.5 7c-4.66699 10 -8.5 20.333 -11.5 31
s-4.5 22 -4.5 34c0 18.667 6 33 18 43s28.667 15 50 15c22 0 38.833 -5 50.5 -15s17.5 -24.333 17.5 -43c0 -12 -1.5 -23.5 -4.5 -34.5s-6.83301 -21.833 -11.5 -32.5c-0.666992 -2 -1.5 -4 -2.5 -6s-1.83301 -4 -2.5 -6c-5.33301 -12.667 -10.166 -25.834 -14.499 -39.501
s-6.5 -28.5 -6.5 -44.5c5.33301 1.33301 11 3.16602 17 5.49902s12 4.83301 18 7.5c2.66699 1.33301 5.5 2.66602 8.5 3.99902s6.16699 2.66602 9.5 3.99902l34.5 16.5c11 5 19.833 7.5 26.5 7.5c18.667 0 33.667 -6.83301 45 -20.5s17 -31.834 17 -54.501
s-6 -41.167 -18 -55.5s-27.667 -21.5 -47 -21.5c-5.33301 0 -13.5 2.66699 -24.5 8l-35.5 17l-4 2l-4 2l-22.5 10c-7.66699 3.33301 -14.5 6 -20.5 8c0 -31.333 1 -62.833 3 -94.5s4.33301 -63.5 7 -95.5l2 -23l2 -24c0.666992 -16.667 2.5 -34 5.5 -52l9.5 -55
c0 -2.66699 0.333008 -5.5 1 -8.5s1.33398 -5.83301 2.00098 -8.5c4.66699 -26 8.83398 -50.667 12.501 -74s5.5 -44.333 5.5 -63c0 -26 -6.66699 -46.667 -20 -62s-31.666 -23 -54.999 -23c-22.667 0 -40.834 7.66699 -54.501 23s-20.5 36 -20.5 62c0 8 0.5 17.333 1.5 28
s2.83301 22.667 5.5 36c12.667 71.333 22.834 143.333 30.501 216s11.5 145.334 11.5 218.001v1z" />
    <glyph glyph-name="Uacute" unicode="&#x2021;" horiz-adv-x="571" 
d="M199 254c8.66699 9.33301 16.1641 18.6689 22.4971 28.002s11.833 18.333 16.5 27c7.33301 14.667 12.666 29.5 15.999 44.5s5.33301 32.167 6 51.5c-8.66699 -2.66699 -17.167 -5.83398 -25.5 -9.50098l-24.5 -10.5l-35 -18c-10.667 -5.33301 -19.667 -8 -27 -8
c-18.667 0 -34.167 7.16699 -46.5 21.5s-18.5 32.5 -18.5 54.5s5.83301 40.167 17.5 54.5s26.5 21.5 44.5 21.5c10 0 20.333 -2.5 31 -7.5s21.667 -10.5 33 -16.5c8 -4.66699 16.333 -9 25 -13s17.334 -7 26.001 -9c0 16.667 -2.16699 31.834 -6.5 45.501
s-9.16602 27.167 -14.499 40.5c-2 3.33301 -3.66699 6.66602 -5 9.99902l-4 10c-3.33301 9.33301 -6.33301 18.833 -9 28.5s-4 19.5 -4 29.5c0 18.667 6.16699 33 18.5 43s29.833 15 52.5 15c21.333 0 38 -5 50 -15s18 -24.333 18 -43c0 -10 -1.16699 -19.5 -3.5 -28.5
s-5.16602 -18.167 -8.49902 -27.5l-4.5 -11c-1.66699 -4 -3.5 -8 -5.5 -12c-4.66699 -12 -9.16699 -24.833 -13.5 -38.5s-6.83301 -29.167 -7.5 -46.5c8.66699 2 17.334 5 26.001 9s17 8.33301 25 13c11.333 6 22.333 11.5 33 16.5s21 7.5 31 7.5
c18 0 32.833 -7.16699 44.5 -21.5s17.5 -32.5 17.5 -54.5s-6 -40.167 -18 -54.5s-27.667 -21.5 -47 -21.5c-6.66699 0 -15.5 2.5 -26.5 7.5l-34.5 15.5l-27.5 13.5c-9 4.33301 -16.833 7.5 -23.5 9.5c0.666992 -19.333 2.5 -36.5 5.5 -51.5s7.83301 -29.833 14.5 -44.5
c4.66699 -8.66699 10 -17.667 16 -27s13 -19 21 -29c-8 -10 -14.833 -19.333 -20.5 -28s-10.834 -17.334 -15.501 -26.001c-7.33301 -14 -12.5 -28.667 -15.5 -44s-4.83301 -33 -5.5 -53c6 2 11.333 3.66699 16 5s8.66699 2.66602 12 3.99902
c2.66699 0.666992 5.16699 1.5 7.5 2.5s4.83301 2.16699 7.5 3.5c0.666992 0 1.33398 0.166992 2.00098 0.5s1.33398 0.833008 2.00098 1.5c2.66699 1.33301 5.5 3 8.5 5s5.83301 3.66699 8.5 5c8 4.66699 16 9 24 13s16 6 24 6c19.333 0 35 -7 47 -21s18 -32.333 18 -55
c0 -22 -5.83301 -39.833 -17.5 -53.5s-26.5 -20.5 -44.5 -20.5c-10 0 -20.333 2.33301 -31 7s-21.667 10 -33 16l-25 12c-8.66699 4 -17.334 7 -26.001 9c0.666992 -16.667 3.16699 -31.834 7.5 -45.501s8.83301 -26.834 13.5 -39.501c2.66699 -4.66699 5 -9.5 7 -14.5
s3.66699 -9.83301 5 -14.5c2.66699 -8 5 -16 7 -24s3 -16.333 3 -25c0 -18.667 -6 -33 -18 -43s-28.667 -15 -50 -15c-22.667 0 -40.167 4.83301 -52.5 14.5s-18.5 24.167 -18.5 43.5c0 10.667 1.33301 20.834 4 30.501s5.66699 19.167 9 28.5l4 10l4 10
c6 12.667 11.167 25.834 15.5 39.501s6.5 28.5 6.5 44.5c-8.66699 -2 -17.167 -5 -25.5 -9l-24.5 -12c-11.333 -6 -22.333 -11.333 -33 -16s-21.334 -7 -32.001 -7c-18 0 -32.833 6.83301 -44.5 20.5s-17.5 31.5 -17.5 53.5c0 22.667 6.16699 41 18.5 55s27.833 21 46.5 21
c6.66699 0 15.667 -2.5 27 -7.5s23 -10.5 35 -16.5l27 -13c8.66699 -4 16.334 -7 23.001 -9c-0.666992 20 -2.66699 37.667 -6 53s-9 30 -17 44c-4.66699 8.66699 -10 17.334 -16 26.001s-13.333 18 -22 28v1z" />
    <glyph glyph-name="glyph262" unicode="&#x2022;" horiz-adv-x="600" 
d="M198 286c0 26 9.33301 48.334 28 67.001s41.334 28 68.001 28c27.333 0 50.5 -9.33301 69.5 -28s28.5 -41.334 28.5 -68.001s-9.5 -49.334 -28.5 -68.001s-42.167 -28 -69.5 -28c-26.667 0 -49.334 9.33301 -68.001 28s-28 41.334 -28 68.001v1z" />
    <glyph glyph-name="fraction" unicode="&#x2026;" horiz-adv-x="813" 
d="M135 163c23.333 -0.666992 43.333 -9.33301 60 -26s25 -36.667 25 -60s-8.33301 -43.166 -25 -59.499s-36.667 -24.5 -60 -24.5s-43.333 8.16699 -60 24.5s-25 36.166 -25 59.499s8.33301 43.333 25 60s36.667 25 60 25v1zM406 163.001
c23.333 -0.666992 43.333 -9.33301 60 -26s25 -36.667 25 -60s-8.33301 -43.166 -25 -59.499s-36.667 -24.5 -60 -24.5s-43.333 8.16699 -60 24.5s-25 36.166 -25 59.499s8.33301 43.333 25 60s36.667 25 60 25v1zM677 163.002c23.333 -0.666992 43.333 -9.33301 60 -26
s25 -36.667 25 -60s-8.33301 -43.166 -25 -59.499s-36.667 -24.5 -60 -24.5s-43.333 8.16699 -60 24.5s-25 36.166 -25 59.499s8.33301 43.333 25 60s36.667 25 60 25v1z" />
    <glyph glyph-name="circumflex" unicode="&#x2030;" horiz-adv-x="1072" 
d="M453 168c0 44.667 7 84.167 21 118.5s48.333 51.5 103 51.5c41.333 0 71.5 -13.5 90.5 -40.5s28.5 -70.5 28.5 -130.5v-1.5v-1.5c0 -42.667 -6.16699 -81.5 -18.5 -116.5s-47.166 -52.5 -104.499 -52.5c-52.667 0 -85.834 17.5 -99.501 52.5s-20.5 73.833 -20.5 116.5
v1.5v1.5v1zM538 169l1 -63.001c0.666992 -20 4 -35.333 10 -46s14 -16 24 -16c12 0 21 5 27 15s9.33301 24.333 10 43v74c0 46.667 -2.33301 77.834 -7 93.501s-14.667 23.5 -30 23.5c-11.333 0 -19.833 -4.83301 -25.5 -14.5s-8.5 -24.167 -8.5 -43.5l-1 -66v0z
M796 167.999c0 44.667 7 84.168 21 118.501s48 51.5 102 51.5c42 0 72.333 -13.5 91 -40.5s28 -70.5 28 -130.5c0 -46.667 -3.16699 -80.334 -9.5 -101.001s-19.166 -37.667 -38.499 -51c-10.667 -6.66699 -22.167 -11.667 -34.5 -15s-25.5 -5 -39.5 -5
c-52.667 0 -85.834 17.833 -99.501 53.5s-20.5 75.167 -20.5 118.5v1zM880 169l0.000976562 -7.50098v-8.5v-20c0 -7.33301 0.333008 -14.666 1 -21.999c1.33301 -16.667 4.5 -32 9.5 -46s13.5 -21 25.5 -21s21 5 27 15s9 24.333 9 43v18c0 6 0.333008 12.333 1 19v18v18
c0 47.333 -2.33301 78.833 -7 94.5s-14.667 23.5 -30 23.5c-11.333 0 -19.833 -4.83301 -25.5 -14.5s-8.83398 -24.167 -9.50098 -43.5l-1 -66v0zM517.001 666.999h67l-369 -667h-67l369 667v0zM33.001 500.999c0 44.667 7.16699 84.168 21.5 118.501s48.5 51.5 102.5 51.5
c41.333 0 71.5 -13.5 90.5 -40.5s28.5 -70.5 28.5 -130.5c0 -44 -6.5 -83.833 -19.5 -119.5s-47.5 -53.5 -103.5 -53.5c-51.333 0 -84 17.167 -98 51.5s-21.333 72.166 -22 113.499v4v4v1zM118.001 502l2 -63c0.666992 -19.333 3.83398 -34.5 9.50098 -45.5
s13.834 -16.5 24.501 -16.5c11.333 0 20 5 26 15s9.33301 24.667 10 44v73c0 47.333 -2.33301 78.666 -7 93.999s-14.667 23 -30 23c-10.667 0 -18.834 -4.66699 -24.501 -14s-8.83398 -23.666 -9.50098 -42.999l-1 -67v0z" />
    <glyph glyph-name="Igrave" unicode="&#x2039;" horiz-adv-x="290" 
d="M154 413l82.9951 -0.000976562l-64 -120c-0.666992 -1.33301 -1.16699 -2.5 -1.5 -3.5s-0.833008 -1.83301 -1.5 -2.5c-5.33301 -10 -9.66602 -19.667 -12.999 -29s-5 -16.333 -5 -21c0 -8.66699 1.83301 -16.834 5.5 -24.501s7.83398 -15.167 12.501 -22.5
c0.666992 -1.33301 1.33398 -2.5 2.00098 -3.5s1.33398 -2.16699 2.00098 -3.5l63 -109h-83l-95 118c-2 2 -4 4.5 -6 7.5s-3.66699 6.16699 -5 9.5c-3.33301 6 -6 11.833 -8 17.5s-3 10.834 -3 15.501c0 7.33301 1.83301 15.333 5.5 24s8.83398 17.334 15.501 26.001l96 121
v0z" />
    <glyph glyph-name="Oacute" unicode="&#x203a;" horiz-adv-x="290" 
d="M136 413l95.9971 -120.002c7.33301 -9.33301 12.666 -18.333 15.999 -27s5 -16.667 5 -24c0 -6 -1.33301 -12.667 -4 -20s-6.66699 -14.666 -12 -21.999c-0.666992 -1.33301 -1.5 -2.83301 -2.5 -4.5s-2.16699 -3.16699 -3.5 -4.5l-95 -117h-83l63 110
c0.666992 0.666992 1.33398 1.5 2.00098 2.5s1.33398 2.16699 2.00098 3.5c4.66699 7.33301 8.83398 14.833 12.501 22.5s5.5 15.834 5.5 24.501c0 4.66699 -1.66699 11.667 -5 21s-7.66602 19 -12.999 29c-0.666992 0.666992 -1.16699 1.5 -1.5 2.5
s-0.833008 1.83301 -1.5 2.5l-64 121h83v0z" />
    <glyph glyph-name="exclamdbl" unicode="&#x203c;" 
 />
    <glyph glyph-name="uni207F" unicode="&#x207f;" 
 />
    <glyph glyph-name="franc" unicode="&#x20a3;" 
 />
    <glyph glyph-name="peseta" unicode="&#x20a7;" 
 />
    <glyph glyph-name="trademark" unicode="&#x2122;" horiz-adv-x="1034" 
d="M258 612v-249c0 -9.33301 2.16699 -15.666 6.5 -18.999s11.833 -5 22.5 -5l42 1v-53h-248v53h42c11.333 -0.666992 19 0.666016 23 3.99902s6 9.33301 6 18v250h-12c-30.667 -0.666992 -50 -10.5 -58 -29.5s-12 -42.167 -12 -69.5l-61 1v153h391v-153h-62l1 3v11
c0 28 -5.5 49 -16.5 63s-28.167 21 -51.5 21h-6c-2 0 -4.33301 -0.333008 -7 -1v1zM626 667l97 -224l99 224h194v-53h-35c-10.667 -0.666992 -18.167 -2.5 -22.5 -5.5s-6.5 -9.16699 -6.5 -18.5v-227c0 -9.33301 2.16699 -15.666 6.5 -18.999s11.833 -5 22.5 -5l35 1v-53
h-233v53h35c11.333 -0.666992 19 0.666016 23 3.99902s6 9.33301 6 18v197l-122 -272h-49l-119 275v-199c0 -9.33301 2.16699 -15.666 6.5 -18.999s11.833 -5 22.5 -5l31 1v-53h-193v53h34c11.333 -0.666992 19 0.666016 23 3.99902s6 9.33301 6 18v229
c0 8.66699 -2 14.5 -6 17.5s-11.667 4.5 -23 4.5l-34 1v53h202v0z" />
    <glyph glyph-name="arrowleft" unicode="&#x2190;" 
 />
    <glyph glyph-name="arrowup" unicode="&#x2191;" 
 />
    <glyph glyph-name="glyph257" unicode="&#x2192;" horiz-adv-x="500" 
 />
    <glyph glyph-name="arrowdown" unicode="&#x2193;" 
 />
    <glyph glyph-name="arrowboth" unicode="&#x2194;" 
 />
    <glyph glyph-name="arrowupdn" unicode="&#x2195;" 
 />
    <glyph glyph-name="arrowupdnbse" unicode="&#x21a8;" 
 />
    <glyph glyph-name="questiondown" unicode="&#x2202;" 
 />
    <glyph glyph-name="quoteright" unicode="&#x2206;" 
 />
    <glyph glyph-name="florin" unicode="&#x220f;" 
 />
    <glyph glyph-name="minus" unicode="&#x2212;" 
 />
    <glyph glyph-name="Icircumflex" unicode="&#x2215;" horiz-adv-x="119" 
d="M210 667h69l-370 -667h-69l370 667v0z" />
    <glyph glyph-name="Ucircumflex" unicode="&#x2219;" horiz-adv-x="271" 
d="M135 329c23.333 -0.666992 43.333 -9.33301 60 -26s25 -36.667 25 -60s-8.33301 -43.333 -25 -60s-36.667 -25 -60 -25s-43.333 8.33301 -60 25s-25 36.667 -25 60s8.33301 43.333 25 60s36.667 25 60 25v1z" />
    <glyph glyph-name="quotedblleft" unicode="&#x221a;" 
 />
    <glyph glyph-name="yen" unicode="&#x221e;" 
 />
    <glyph glyph-name="orthogonal" unicode="&#x221f;" 
 />
    <glyph glyph-name="intersection" unicode="&#x2229;" 
 />
    <glyph glyph-name="guillemotright" unicode="&#x222b;" 
 />
    <glyph glyph-name="quoteleft" unicode="&#x2248;" 
 />
    <glyph glyph-name="AE" unicode="&#x2260;" 
 />
    <glyph glyph-name="equivalence" unicode="&#x2261;" 
 />
    <glyph glyph-name="ordfeminine" unicode="&#x2264;" 
 />
    <glyph glyph-name="ordmasculine" unicode="&#x2265;" 
 />
    <glyph glyph-name="glyph258" unicode="&#x2302;" 
 />
    <glyph glyph-name="revlogicalnot" unicode="&#x2310;" 
 />
    <glyph glyph-name="integraltp" unicode="&#x2320;" 
 />
    <glyph glyph-name="integralbt" unicode="&#x2321;" 
 />
    <glyph glyph-name="SF100000" unicode="&#x2500;" 
 />
    <glyph glyph-name="SF110000" unicode="&#x2502;" 
 />
    <glyph glyph-name="SF010000" unicode="&#x250c;" 
 />
    <glyph glyph-name="SF030000" unicode="&#x2510;" 
 />
    <glyph glyph-name="SF020000" unicode="&#x2514;" 
 />
    <glyph glyph-name="SF040000" unicode="&#x2518;" 
 />
    <glyph glyph-name="SF080000" unicode="&#x251c;" 
 />
    <glyph glyph-name="SF090000" unicode="&#x2524;" 
 />
    <glyph glyph-name="SF060000" unicode="&#x252c;" 
 />
    <glyph glyph-name="SF070000" unicode="&#x2534;" 
 />
    <glyph glyph-name="SF050000" unicode="&#x253c;" 
 />
    <glyph glyph-name="SF430000" unicode="&#x2550;" 
 />
    <glyph glyph-name="SF240000" unicode="&#x2551;" 
 />
    <glyph glyph-name="SF510000" unicode="&#x2552;" 
 />
    <glyph glyph-name="SF520000" unicode="&#x2553;" 
 />
    <glyph glyph-name="SF390000" unicode="&#x2554;" 
 />
    <glyph glyph-name="SF220000" unicode="&#x2555;" 
 />
    <glyph glyph-name="SF210000" unicode="&#x2556;" 
 />
    <glyph glyph-name="SF250000" unicode="&#x2557;" 
 />
    <glyph glyph-name="SF500000" unicode="&#x2558;" 
 />
    <glyph glyph-name="SF490000" unicode="&#x2559;" 
 />
    <glyph glyph-name="SF380000" unicode="&#x255a;" 
 />
    <glyph glyph-name="SF280000" unicode="&#x255b;" 
 />
    <glyph glyph-name="SF270000" unicode="&#x255c;" 
 />
    <glyph glyph-name="SF260000" unicode="&#x255d;" 
 />
    <glyph glyph-name="SF360000" unicode="&#x255e;" 
 />
    <glyph glyph-name="SF370000" unicode="&#x255f;" 
 />
    <glyph glyph-name="SF420000" unicode="&#x2560;" 
 />
    <glyph glyph-name="SF190000" unicode="&#x2561;" 
 />
    <glyph glyph-name="SF200000" unicode="&#x2562;" 
 />
    <glyph glyph-name="SF230000" unicode="&#x2563;" 
 />
    <glyph glyph-name="SF470000" unicode="&#x2564;" 
 />
    <glyph glyph-name="SF480000" unicode="&#x2565;" 
 />
    <glyph glyph-name="SF410000" unicode="&#x2566;" 
 />
    <glyph glyph-name="SF450000" unicode="&#x2567;" 
 />
    <glyph glyph-name="SF460000" unicode="&#x2568;" 
 />
    <glyph glyph-name="SF400000" unicode="&#x2569;" 
 />
    <glyph glyph-name="SF540000" unicode="&#x256a;" 
 />
    <glyph glyph-name="SF530000" unicode="&#x256b;" 
 />
    <glyph glyph-name="SF440000" unicode="&#x256c;" 
 />
    <glyph glyph-name="upblock" unicode="&#x2580;" 
 />
    <glyph glyph-name="dnblock" unicode="&#x2584;" 
 />
    <glyph glyph-name="block" unicode="&#x2588;" 
 />
    <glyph glyph-name="lfblock" unicode="&#x258c;" 
 />
    <glyph glyph-name="rtblock" unicode="&#x2590;" 
 />
    <glyph glyph-name="ltshade" unicode="&#x2591;" 
 />
    <glyph glyph-name="shade" unicode="&#x2592;" 
 />
    <glyph glyph-name="dkshade" unicode="&#x2593;" 
 />
    <glyph glyph-name="glyph261" unicode="&#x25a0;" horiz-adv-x="500" 
 />
    <glyph glyph-name="filledrect" unicode="&#x25ac;" 
 />
    <glyph glyph-name="triagup" unicode="&#x25b2;" 
 />
    <glyph glyph-name="triagrt" unicode="&#x25ba;" 
 />
    <glyph glyph-name="triagdn" unicode="&#x25bc;" 
 />
    <glyph glyph-name="triaglf" unicode="&#x25c4;" 
 />
    <glyph glyph-name="Edieresis" unicode="&#x25ca;" 
 />
    <glyph glyph-name="circle" unicode="&#x25cb;" 
 />
    <glyph glyph-name="invbullet" unicode="&#x25d8;" 
 />
    <glyph glyph-name="invcircle" unicode="&#x25d9;" 
 />
    <glyph glyph-name="smileface" unicode="&#x263a;" 
 />
    <glyph glyph-name="invsmileface" unicode="&#x263b;" 
 />
    <glyph glyph-name="sun" unicode="&#x263c;" 
 />
    <glyph glyph-name="female" unicode="&#x2640;" 
 />
    <glyph glyph-name="male" unicode="&#x2642;" 
 />
    <glyph glyph-name="spade" unicode="&#x2660;" 
 />
    <glyph glyph-name="club" unicode="&#x2663;" 
 />
    <glyph glyph-name="heart" unicode="&#x2665;" 
 />
    <glyph glyph-name="diamond" unicode="&#x2666;" 
 />
    <glyph glyph-name="musicalnote" unicode="&#x266a;" 
 />
    <glyph glyph-name="musicalnotedbl" unicode="&#x266b;" 
 />
    <glyph glyph-name="Scaron" unicode="&#xf000;" 
 />
    <glyph glyph-name="Ocircumflex" unicode="&#xf001;" horiz-adv-x="670" 
d="M30 0l-0.00292969 80.998h24c25.333 -0.666992 40.5 1.83301 45.5 7.5s7.5 22.167 7.5 49.5v27v230h-77v82h77c0 38 4.5 70.333 13.5 97s30.833 50 65.5 70c21.333 11.333 44.333 20 69 26s51.334 9 80.001 9c64.667 0 116.5 -9.16699 155.5 -27.5s58.5 -42.5 58.5 -72.5
c0 -18.667 -6 -34.167 -18 -46.5s-27.333 -18.5 -46 -18.5s-33.667 5.66699 -45 17s-17 26 -17 44v4v3l2 8c0.666992 2.66699 1.33398 5.66699 2.00098 9c-16.667 6.66699 -31.167 11.334 -43.5 14.001s-24.166 4 -35.499 4c-43.333 0 -70.333 -14.167 -81 -42.5
s-16 -61.166 -16 -98.499l318 1v-298v-48c0 -22 2.66699 -36 8 -42s17.333 -9 36 -9l34 1v-81h-617v0zM254.997 394.998l0.000976562 -226.999l1 -30c0 -23.333 2 -38.833 6 -46.5s12 -11.5 24 -11.5l92 1c19.333 -0.666992 31.166 2.16602 35.499 8.49902
s6.83301 22.833 7.5 49.5v34v162c0 20.667 -1.5 35 -4.5 43s-9.16699 12.333 -18.5 13c-2.66699 0 -5.66699 0.166992 -9 0.5s-6.33301 0.833008 -9 1.5c-3.33301 0 -6.5 0.166992 -9.5 0.5s-6.16699 0.5 -9.5 0.5l-106 1v0z" />
    <glyph glyph-name="Ograve" unicode="&#xf002;" horiz-adv-x="674" 
d="M651 0l-620.999 -0.000976562v81h28c22 -0.666992 36 2.5 42 9.5s9 21.5 9 43.5v30v231h-78v82h82c0 37.333 4.5 69.833 13.5 97.5s30.833 50.834 65.5 69.501c21.333 11.333 44.666 20 69.999 26s52 9 80 9c12 0 23.167 -0.5 33.5 -1.5s20.5 -2.5 30.5 -4.5
c6 -1.33301 12 -2.83301 18 -4.5s12 -3.5 18 -5.5l129 17v-554c0 -17.333 2.66699 -29.333 8 -36s14.333 -10 27 -10l45 1v-81v0zM423.001 394.999h-166v-227v-34c0 -22.667 2.5 -37.334 7.5 -44.001s15.5 -10 31.5 -10l90 1c14 -0.666992 23.667 2.33301 29 9
s8 18.334 8 35.001v270v0zM257.001 476.999h165.999v2.5v3.5c-0.666992 4.66699 -1 9.5 -1 14.5s-0.333008 10.167 -1 15.5c-2 26 -8 49.833 -18 71.5s-31 32.5 -63 32.5c-32.667 0 -54.167 -11.167 -64.5 -33.5s-16.166 -46.833 -17.499 -73.5
c-0.666992 -6 -1 -11.833 -1 -17.5v-16.5v1z" />
    <glyph glyph-name="glyph1" horiz-adv-x="0" 
 />
    <glyph glyph-name="glyph2" 
 />
    <glyph glyph-name="degree" horiz-adv-x="500" 
d="M96 509c0 40.667 15 75.833 45 105.5s66.333 44.5 109 44.5s79.167 -14.833 109.5 -44.5s45.5 -65.167 45.5 -106.5c0 -42.667 -15 -78.834 -45 -108.501s-66.667 -44.5 -110 -44.5c-42.667 0 -79 14.833 -109 44.5s-45 65.834 -45 108.501v1zM173 508.999
c0 -22 7.66699 -40.5 23 -55.5s33.333 -22.5 54 -22.5c21.333 0 39.5 7.66699 54.5 23s22.5 33.333 22.5 54s-7.5 38.334 -22.5 53.001s-33.167 22 -54.5 22c-20.667 0 -38.667 -7.33301 -54 -22s-23 -32.334 -23 -53.001v1z" />
    <glyph glyph-name="bullet" horiz-adv-x="600" 
d="M198 286c0 26 9.33301 48.334 28 67.001s41.334 28 68.001 28c27.333 0 50.5 -9.33301 69.5 -28s28.5 -41.334 28.5 -68.001s-9.5 -49.334 -28.5 -68.001s-42.167 -28 -69.5 -28c-26.667 0 -49.334 9.33301 -68.001 28s-28 41.334 -28 68.001v1z" />
    <glyph glyph-name="daggerdbl" horiz-adv-x="571" 
d="M44 306h481v-125h-481v125v0z" />
    </font>
</defs>
</svg>
