<?xml version="1.0" encoding="utf-8"?>
<!-- Generator: Adobe Illustrator 16.0.0, SVG Export Plug-In . SVG Version: 6.00 Build 0)  -->
<!DOCTYPE svg PUBLIC "-//W3C//DTD SVG 1.1//EN" "http://www.w3.org/Graphics/SVG/1.1/DTD/svg11.dtd">
<svg version="1.1" id="Layer_1" xmlns="http://www.w3.org/2000/svg" xmlns:xlink="http://www.w3.org/1999/xlink" x="0px" y="0px"
	 width="85.5px" height="85.5px" viewBox="0 0 85.5 85.5" enable-background="new 0 0 85.5 85.5" xml:space="preserve">
<g>
	<g>
		<g>
			<g>
				<circle fill="none" stroke="#E1DD1D" stroke-miterlimit="10" cx="42.7" cy="42.7" r="42.2"/>
			</g>
			<g>
				<circle fill="none" stroke="#E1DD1D" stroke-miterlimit="10" cx="42.7" cy="42.7" r="38.2"/>
			</g>
		</g>
	</g>
	<path fill="#E1DD1D" d="M66.9,28.2c0,0.9-0.7,1.6-1.6,1.6h-1.7v1.7c0,0.9-0.7,1.6-1.6,1.6c-0.9,0-1.6-0.7-1.6-1.6v-1.7h-1.7
		c-0.9,0-1.6-0.7-1.6-1.6c0-0.9,0.7-1.6,1.6-1.6h1.7v-1.7c0-0.9,0.7-1.6,1.6-1.6s1.6,0.7,1.6,1.6v1.7h1.7
		C66.2,26.6,66.9,27.3,66.9,28.2z M58.9,36.9v4.2v15.2c0,2.5-2.1,4.6-4.6,4.6H31.1c-2.5,0-4.6-2.1-4.6-4.6V41.2V37
		c0-2.5,2.1-4.6,4.6-4.6h1.5v1.8v2.7c0,1.8,1.5,3.3,3.3,3.3s3.3-1.5,3.3-3.3v-2.7v-1.8h7.2v1.8v2.7c0,1.8,1.5,3.3,3.3,3.3
		c1.8,0,3.3-1.5,3.3-3.3v-2.7v-1.8h1.2C56.8,32.4,58.9,34.4,58.9,36.9z M57.5,40.8H27.9v15.6c0,1.8,1.4,3.2,3.2,3.2h23.2
		c1.8,0,3.2-1.4,3.2-3.2V40.8z M35.9,38.9c1.1,0,2-0.9,2-2v-2.7v-1.8v-2.3c0-1.1-0.9-2-2-2s-2,0.9-2,2v2.3v1.8v2.7
		C33.9,38,34.9,38.9,35.9,38.9z M49.8,38.9c1.1,0,2-0.9,2-2v-2.7v-1.8v-2.3c0-1.1-0.9-2-2-2s-2,0.9-2,2v2.3v1.8v2.7
		C47.8,38,48.7,38.9,49.8,38.9z M50.1,45c-0.6-0.6-1.6-0.6-2.2,0l-7.2,7.2L37.5,49c-0.6-0.6-1.6-0.6-2.2,0c-0.6,0.6-0.6,1.6,0,2.2
		l4.3,4.3c0.3,0.3,0.7,0.5,1.1,0.5s0.8-0.2,1.1-0.5l8.3-8.3C50.7,46.6,50.7,45.6,50.1,45z"/>
</g>
</svg>
