<?xml version="1.0" encoding="utf-8"?>
<!-- Generator: Adobe Illustrator 16.0.0, SVG Export Plug-In . SVG Version: 6.00 Build 0)  -->
<!DOCTYPE svg PUBLIC "-//W3C//DTD SVG 1.1//EN" "http://www.w3.org/Graphics/SVG/1.1/DTD/svg11.dtd">
<svg version="1.1" id="Layer_1" xmlns="http://www.w3.org/2000/svg" xmlns:xlink="http://www.w3.org/1999/xlink" x="0px" y="0px"
	 width="85.5px" height="85.5px" viewBox="0 0 85.5 85.5" enable-background="new 0 0 85.5 85.5" xml:space="preserve">
<g>
	<g>
		<g>
			<g>
				<circle fill="none" stroke="#027AB7" stroke-miterlimit="10" cx="42.7" cy="42.7" r="42.2"/>
			</g>
			<g>
				<circle fill="none" stroke="#027AB7" stroke-miterlimit="10" cx="42.7" cy="42.7" r="38.2"/>
			</g>
		</g>
	</g>
	<g>
		<g>
			
				<path fill="none" stroke="#027AB7" stroke-width="1.5" stroke-linecap="round" stroke-linejoin="round" stroke-miterlimit="10" d="
				M35.9,30.3C35.9,30.3,35.9,30.3,35.9,30.3C35.9,30.3,35.9,30.3,35.9,30.3z"/>
			
				<ellipse fill="none" stroke="#027AB7" stroke-width="1.5" stroke-linecap="round" stroke-linejoin="round" stroke-miterlimit="10" cx="37" cy="42.7" rx="3.3" ry="13"/>
			
				<path fill="none" stroke="#027AB7" stroke-width="1.5" stroke-linecap="round" stroke-linejoin="round" stroke-miterlimit="10" d="
				M57.6,36.9L57.6,36.9c-11.5,0-16.6-4.6-19.3-6.6c-0.3-0.2-0.6-0.4-0.8-0.5c1.6,1,2.8,6.4,2.8,12.9c0,7.2-1.5,13-3.3,13
				c0,0,0.4,0.1,1.3-0.5c2.8-2,7.8-6.7,19.3-6.7c0.7,0,1.3-2.6,1.3-5.8C58.9,39.5,58.3,36.9,57.6,36.9z"/>
			
				<path fill="none" stroke="#027AB7" stroke-width="1.5" stroke-linecap="round" stroke-linejoin="round" stroke-miterlimit="10" d="
				M37.1,29.7C37,29.7,37,29.7,37.1,29.7C37,29.7,37.1,29.7,37.1,29.7z"/>
			
				<path fill="none" stroke="#027AB7" stroke-width="1.5" stroke-linecap="round" stroke-linejoin="round" stroke-miterlimit="10" d="
				M61.2,37.2h-3c0.4,1.1,0.7,3.2,0.7,5.5c0,2.3-0.3,4.4-0.7,5.5v0h3c2,0,3.6-2.5,3.6-5.5C64.8,39.7,63.2,37.2,61.2,37.2z"/>
			
				<path fill="none" stroke="#027AB7" stroke-width="1.5" stroke-linecap="round" stroke-linejoin="round" stroke-miterlimit="10" d="
				M55.8,48.7l-3.6,0.5c0,0.9-1,0.9-1,1.8c0,0.9,1,0.9,1,1.8c0,0.9-1,0.9-1,1.8c0,0.9,1,0.9,1,1.8c0,0.9-1,0.9-1,1.8
				c0,0.7,1,1.2,1,1.2s2.4,1.3,3.5,0.7C57.3,59.3,55.8,48.7,55.8,48.7z"/>
			
				<line fill="none" stroke="#027AB7" stroke-width="1.5" stroke-linecap="round" stroke-linejoin="round" stroke-miterlimit="10" x1="28.8" y1="43.2" x2="18.3" y2="43.2"/>
			
				<line fill="none" stroke="#027AB7" stroke-width="1.5" stroke-linecap="round" stroke-linejoin="round" stroke-miterlimit="10" x1="31.1" y1="32.3" x2="29.3" y2="27.1"/>
			
				<line fill="none" stroke="#027AB7" stroke-width="1.5" stroke-linecap="round" stroke-linejoin="round" stroke-miterlimit="10" x1="31.1" y1="54.2" x2="29.3" y2="59.4"/>
			
				<line fill="none" stroke="#027AB7" stroke-width="1.5" stroke-linecap="round" stroke-linejoin="round" stroke-miterlimit="10" x1="29.3" y1="38.2" x2="23.1" y2="34.2"/>
			
				<line fill="none" stroke="#027AB7" stroke-width="1.5" stroke-linecap="round" stroke-linejoin="round" stroke-miterlimit="10" x1="29.3" y1="48.3" x2="23" y2="52.3"/>
		</g>
	</g>
</g>
</svg>
