<?xml version="1.0" encoding="utf-8"?>
<!-- Generator: Adobe Illustrator 16.0.0, SVG Export Plug-In . SVG Version: 6.00 Build 0)  -->
<!DOCTYPE svg PUBLIC "-//W3C//DTD SVG 1.1//EN" "http://www.w3.org/Graphics/SVG/1.1/DTD/svg11.dtd">
<svg version="1.1" id="Layer_1" xmlns="http://www.w3.org/2000/svg" xmlns:xlink="http://www.w3.org/1999/xlink" x="0px" y="0px"
	 width="85.5px" height="85.5px" viewBox="0 0 85.5 85.5" enable-background="new 0 0 85.5 85.5" xml:space="preserve">
<g>
	<g>
		<g>
			<g>
				<circle fill="none" stroke="#74C045" stroke-miterlimit="10" cx="42.7" cy="42.7" r="42.2"/>
			</g>
			<g>
				<circle fill="none" stroke="#74C045" stroke-miterlimit="10" cx="42.7" cy="42.7" r="38.2"/>
			</g>
		</g>
	</g>
	<g>
		
			<circle fill="none" stroke="#74C045" stroke-linecap="round" stroke-linejoin="round" stroke-miterlimit="10" cx="42.7" cy="42.7" r="16.9"/>
		<path fill="none" stroke="#74C045" stroke-linecap="round" stroke-linejoin="round" stroke-miterlimit="10" d="M43.8,25.9
			c0,0,2.7,8.6-4.2,16.9c-5.3,6.4-12.1,7.1-12.1,7.1"/>
		<path fill="none" stroke="#74C045" stroke-linecap="round" stroke-linejoin="round" stroke-miterlimit="10" d="M58.1,35.7
			c0,0-1.2,10.3-12.4,15.9c-8.6,4.3-16.2,1.7-16.2,1.7"/>
		<path fill="none" stroke="#74C045" stroke-linecap="round" stroke-linejoin="round" stroke-miterlimit="10" d="M31.2,30.5
			c0,0-5.5,7.5-1.6,17.8c3,8,9.5,10.9,9.5,10.9"/>
		<path fill="none" stroke="#74C045" stroke-linecap="round" stroke-linejoin="round" stroke-miterlimit="10" d="M50.5,57.7
			c0,0-10.3-0.6-16.5-11.3c-4.8-8.3-2.7-15.9-2.7-15.9"/>
		<path fill="none" stroke="#74C045" stroke-linecap="round" stroke-linejoin="round" stroke-miterlimit="10" d="M58.3,36.4
			c-3.1,1.4-7.4,2.5-12.6,1.9c-9.6-1.2-14.6-7.4-14.6-7.4"/>
	</g>
</g>
</svg>
