<?xml version="1.0" encoding="utf-8"?>
<!-- Generator: Adobe Illustrator 16.0.0, SVG Export Plug-In . SVG Version: 6.00 Build 0)  -->
<!DOCTYPE svg PUBLIC "-//W3C//DTD SVG 1.1//EN" "http://www.w3.org/Graphics/SVG/1.1/DTD/svg11.dtd">
<svg version="1.1" id="Layer_1" xmlns="http://www.w3.org/2000/svg" xmlns:xlink="http://www.w3.org/1999/xlink" x="0px" y="0px"
	 width="85.5px" height="85.5px" viewBox="0 0 85.5 85.5" enable-background="new 0 0 85.5 85.5" xml:space="preserve">
<g>
	<g>
		<g>
			<g>
				<circle fill="none" stroke="#F17796" stroke-miterlimit="10" cx="42.75" cy="42.75" r="42.226"/>
			</g>
			<g>
				<circle fill="none" stroke="#F17796" stroke-miterlimit="10" cx="42.749" cy="42.75" r="38.219"/>
			</g>
		</g>
	</g>
	<g>
		<path fill-rule="evenodd" clip-rule="evenodd" fill="none" stroke="#F17796" stroke-miterlimit="10" d="M47.428,37.181
			c0.349,0.187,0.769,0.318,1.26,0.376c0.185,0.021,5.187,0.522,6.582,1.319c3.44,1.964,4.224,3.772,4.539,6.804
			c0.413,3.945-0.513,7.574-2.971,10.73c-2.262,2.904-5.298,4.59-8.866,5.35c-3.052,0.652-6.098,0.521-9.136-0.123
			c-2.504-0.529-4.83-1.516-6.933-2.938c-3.574-2.422-6.237-5.592-7.597-9.766c-0.897-2.754-1.093-5.561-0.687-8.421
			c0.78-5.471,3.765-9.362,8.622-11.831c1.781-0.906,3.705-1.466,5.727-1.642c1.585-0.138,3.158-0.171,4.712,0.216
			c1.154,0.287,2.197,0.8,3.015,1.691c0.643,0.701,0.88,1.482,0.911,2.301"/>
		
			<circle fill-rule="evenodd" clip-rule="evenodd" fill="none" stroke="#F17796" stroke-miterlimit="10" cx="40.741" cy="55.789" r="2.832"/>
		
			<circle fill-rule="evenodd" clip-rule="evenodd" fill="none" stroke="#F17796" stroke-miterlimit="10" cx="33.267" cy="51.713" r="2.831"/>
		
			<circle fill-rule="evenodd" clip-rule="evenodd" fill="none" stroke="#F17796" stroke-miterlimit="10" cx="30.097" cy="44.238" r="2.831"/>
		
			<circle fill-rule="evenodd" clip-rule="evenodd" fill="none" stroke="#F17796" stroke-miterlimit="10" cx="49.687" cy="54.656" r="2.832"/>
		
			<circle fill-rule="evenodd" clip-rule="evenodd" fill="none" stroke="#F17796" stroke-miterlimit="10" cx="53.085" cy="46.277" r="2.831"/>
		<g>
			<path fill-rule="evenodd" clip-rule="evenodd" fill="none" stroke="#F17796" stroke-miterlimit="10" d="M43.178,38.251
				c0.873-2.154,2.232-4.901,3.909-7.811c3.577-6.202,7.245-10.787,8.194-10.24c0.947,0.547-1.184,6.019-4.761,12.221
				c-1.679,2.911-3.378,5.467-4.807,7.302"/>
			
				<rect x="42.844" y="38.945" transform="matrix(0.8665 0.4991 -0.4991 0.8665 25.4893 -16.8805)" fill-rule="evenodd" clip-rule="evenodd" fill="none" stroke="#F17796" stroke-miterlimit="10" width="2.929" height="0.552"/>
			<polygon fill-rule="evenodd" clip-rule="evenodd" fill="none" stroke="#F17796" stroke-miterlimit="10" points="43.462,42.941 
				41.514,41.817 42.895,38.74 45.432,40.205 			"/>
			<path fill-rule="evenodd" clip-rule="evenodd" fill="none" stroke="#F17796" stroke-miterlimit="10" d="M41.514,41.817
				c0,0-2.401,0.874-2.784,2.288c-0.346,1.287,0.156,1.152-0.038,2.709c-0.057,0.455-0.601,2.004-0.601,2.004
				s1.975,0.646,3.479-0.275c1.505-0.92,2.328-2.385,2.121-3.992c-0.209-1.605-0.209-1.605-0.209-1.605"/>
		</g>
	</g>
</g>
</svg>
