<?xml version="1.0" encoding="utf-8"?>
<!-- Generator: Adobe Illustrator 16.0.0, SVG Export Plug-In . SVG Version: 6.00 Build 0)  -->
<!DOCTYPE svg PUBLIC "-//W3C//DTD SVG 1.1//EN" "http://www.w3.org/Graphics/SVG/1.1/DTD/svg11.dtd">
<svg version="1.1" id="Layer_1" xmlns="http://www.w3.org/2000/svg" xmlns:xlink="http://www.w3.org/1999/xlink" x="0px" y="0px"
	 width="85.5px" height="85.5px" viewBox="0 0 85.5 85.5" enable-background="new 0 0 85.5 85.5" xml:space="preserve">
<g>
	<g>
		<g>
			<g>
				<circle fill="none" stroke="#2669B3" stroke-miterlimit="10" cx="42.7" cy="42.7" r="42.2"/>
			</g>
			<g>
				<circle fill="none" stroke="#2669B3" stroke-miterlimit="10" cx="42.7" cy="42.7" r="38.2"/>
			</g>
		</g>
	</g>
	<g>
		<path fill="none" stroke="#2669B3" stroke-linecap="round" stroke-linejoin="round" stroke-miterlimit="10" d="M51,35.3
			C50.9,35.3,50.9,35.3,51,35.3c0.6-6-3.3-9-5.5-9.8"/>
		<path fill="none" stroke="#2669B3" stroke-linecap="round" stroke-linejoin="round" stroke-miterlimit="10" d="M45.4,25.5
			c-0.8-0.3-1.7-0.4-2.4-0.4c-0.2,0-0.3,0-0.5,0c-0.2,0-0.3,0-0.5,0c-0.8,0-1.6,0.1-2.4,0.4l0,0l0,0c-2.2,0.8-6.1,3.8-5.5,9.8
			c0,0,0,0,0,0.1"/>
		<path fill="none" stroke="#2669B3" stroke-linecap="round" stroke-linejoin="round" stroke-miterlimit="10" d="M51,37.3
			c-0.6,2.4-1.5,2.5-1.7,2.5c0,0,0,0,0,0s-0.1,2.2-2.2,4.6c0,0,0,0,0,0.1c-1.6,1.6-3.2,2.4-4.8,2.3c-2-0.1-3.6-1.5-4.4-2.3
			c0,0,0,0,0,0c-2.1-2.4-2.2-4.7-2.2-4.7s0,0,0,0c-0.2,0-1.2-0.1-1.7-2.5c-0.4-1.8,0-2.1,0.3-2.1c0.2,0,0.3,0.1,0.3,0.1c0,0,0,0,0,0
			l0.1,0.1l0.7,2.3c0,0-0.5-6.5,3-7c0,0,3.7,3.8,8.3,4.7c0,0-1-1.8-1.8-3.5c0,0,2.7,3,5,3.5c0,0,0.4-0.5,0.8-1.2
			c0,0.4-0.1,0.8-0.2,1.2c0,0,0.1-0.1,0.3-0.1C51,35.2,51.4,35.5,51,37.3z"/>
		<path fill="#2669B3" d="M60.6,54.8c-1.7-4.4-4.5-5.4-6.7-5.8c-1.9-0.3-4.2-1-5.1-1.5l-4.4,7.4L43.8,52c0.8-0.4,1.3-1.3,1.3-2.2
			c0-0.1,0-0.2,0-0.3c-0.8,0.2-1.6,0.3-2.5,0.3c-0.9,0-1.8-0.1-2.6-0.4c0,0.1,0,0.2,0,0.3c0,1,0.5,1.8,1.3,2.2l-0.7,2.9l-4.4-7.4
			C35.3,48,32.9,48.7,31,49c-2.3,0.4-5.1,1.4-6.7,5.8c-0.3,0.7-0.2,1.5,0.3,2.2c1.7,2.5,10.6,3,17.9,3c7.2,0,16.2-0.5,17.9-3
			C60.8,56.4,60.9,55.6,60.6,54.8z"/>
	</g>
</g>
</svg>
