<?xml version="1.0" encoding="utf-8"?>
<!-- Generator: Adobe Illustrator 16.0.0, SVG Export Plug-In . SVG Version: 6.00 Build 0)  -->
<!DOCTYPE svg PUBLIC "-//W3C//DTD SVG 1.1//EN" "http://www.w3.org/Graphics/SVG/1.1/DTD/svg11.dtd">
<svg version="1.1" id="Layer_1" xmlns="http://www.w3.org/2000/svg" xmlns:xlink="http://www.w3.org/1999/xlink" x="0px" y="0px"
	 width="85.5px" height="85.5px" viewBox="0 0 85.5 85.5" enable-background="new 0 0 85.5 85.5" xml:space="preserve">
<g>
	<g>
		<g>
			<g>
				<circle fill="none" stroke="#844FA0" stroke-miterlimit="10" cx="42.7" cy="42.7" r="42.2"/>
			</g>
			<g>
				<circle fill="none" stroke="#844FA0" stroke-miterlimit="10" cx="42.7" cy="42.7" r="38.2"/>
			</g>
		</g>
	</g>
	<g id="Your_Icon">
		<g>
			<path fill="none" stroke="#844FA0" stroke-width="1.5" stroke-miterlimit="10" d="M29.8,23.3c-0.6,0.1-0.6,0.5-0.6,1.4
				c0,0.9-0.1,1.6-0.9,2.1c-0.1,0.1-0.3,0.1-0.4,0.2c0,0,0,0,0,0c-0.8,0.4-1.5,0.1-2.2-0.4c-0.7-0.5-1.1-0.7-1.5-0.3
				c-0.4,0.5-0.1,0.2-0.7,0.9c0,0,0,0,0,0c-0.6,0.8-0.4,0.4-0.7,0.9c-0.4,0.5,0,0.8,0.6,1.4c0.6,0.6,1,1.3,0.8,2.1
				c0,0.1-0.1,0.3-0.1,0.5c0,0,0,0,0,0c-0.3,0.8-1,1.1-1.8,1.3c-0.8,0.2-1.3,0.3-1.2,0.9c0.1,0.6,0,0.2,0.1,1.2c0,0,0,0,0,0
				c0.1,1,0.1,0.6,0.1,1.2c0.1,0.6,0.5,0.6,1.4,0.6c0.9,0,1.6,0.1,2.1,0.9c0.1,0.1,0.1,0.3,0.2,0.4c0,0,0,0,0,0
				c0.4,0.8,0.1,1.5-0.4,2.2c-0.5,0.7-0.7,1.1-0.3,1.5c0.5,0.4,0.2,0.1,0.9,0.7c0,0,0,0,0,0c0,0,0,0,0,0c0.8,0.6,0.4,0.4,0.9,0.7
				c0.5,0.4,0.8,0,1.4-0.6c0.6-0.6,1.3-1.1,2.1-0.8c0.1,0,0.3,0.1,0.4,0.1c0,0,0,0,0,0c0.8,0.3,1.1,1,1.3,1.8
				c0.2,0.8,0.3,1.3,0.9,1.2c0.6-0.1,0.2,0,1.2-0.1c0,0,0,0,0,0c0,0,0,0,0,0c1-0.1,0.6-0.1,1.2-0.1c0.6-0.1,0.6-0.5,0.6-1.4
				c0-0.9,0.1-1.6,0.9-2.1l0,0c0.1-0.1,0.3-0.1,0.4-0.2c0,0,0,0,0,0c0.8-0.4,1.5-0.1,2.2,0.4c0.7,0.5,1.1,0.7,1.5,0.3
				c0.4-0.5,0.1-0.2,0.7-0.9c0,0,0,0,0,0c0,0,0,0,0,0c0.6-0.8,0.4-0.4,0.7-0.9c0.4-0.5,0-0.8-0.6-1.4c-0.6-0.6-1.1-1.3-0.8-2.1
				c0-0.1,0.1-0.3,0.1-0.4c0,0,0,0,0,0c0.3-0.8,1-1.1,1.8-1.3c0.8-0.2,1.3-0.3,1.2-0.9c-0.1-0.6,0-0.2-0.1-1.2c0,0,0,0,0,0
				c0,0,0,0,0,0c-0.1-1-0.1-0.6-0.1-1.2c-0.1-0.6-0.5-0.6-1.4-0.6s-1.6-0.1-2.1-0.9c0,0,0,0,0,0c-0.1-0.1-0.1-0.3-0.2-0.4
				c0,0,0,0,0,0c-0.4-0.8-0.1-1.5,0.4-2.2c0.5-0.7,0.7-1.1,0.3-1.5c-0.5-0.4-0.2-0.1-0.9-0.7c0,0,0,0,0,0c0,0,0,0,0,0
				c-0.8-0.6-0.4-0.4-0.9-0.7c-0.5-0.4-0.8,0-1.4,0.6c-0.6,0.6-1.3,1.1-2.1,0.8c-0.1,0-0.3-0.1-0.4-0.1c0,0,0,0,0,0
				c-0.8-0.3-1.1-1-1.3-1.8c-0.2-0.8-0.3-1.3-0.9-1.2c-0.6,0.1-0.2,0-1.2,0.1C30,23.3,30.4,23.2,29.8,23.3z M36.4,33.8
				c0.3,2.3-1.4,4.4-3.7,4.7c-2.3,0.3-4.4-1.4-4.7-3.7c-0.3-2.3,1.4-4.4,3.7-4.7C34,29.8,36.1,31.5,36.4,33.8z"/>
			<path fill="none" stroke="#844FA0" stroke-width="1.5" stroke-miterlimit="10" d="M44,39c-0.7,0.3-0.5,0.8-0.2,1.8
				c0.3,1,0.3,1.9-0.4,2.6c-0.1,0.1-0.3,0.2-0.4,0.4c0,0,0,0,0,0c-0.8,0.7-1.7,0.6-2.7,0.2c-1-0.3-1.5-0.5-1.8,0.1
				c-0.3,0.7-0.1,0.2-0.6,1.3c0,0,0,0,0,0c-0.5,1.1-0.3,0.6-0.6,1.3c-0.3,0.7,0.2,0.9,1.1,1.4c0.9,0.5,1.6,1.1,1.6,2.1
				c0,0.2,0,0.4,0,0.6c0,0,0,0,0,0c-0.1,1-0.8,1.6-1.7,2.1c-0.9,0.4-1.4,0.7-1.2,1.4c0.3,0.7,0.1,0.2,0.5,1.3c0,0,0,0,0,0
				c0.4,1.1,0.2,0.6,0.5,1.3c0.3,0.7,0.8,0.5,1.8,0.2c1-0.3,1.9-0.3,2.6,0.4c0.1,0.1,0.2,0.3,0.4,0.4c0,0,0,0,0,0
				c0.7,0.7,0.6,1.7,0.2,2.7c-0.3,1-0.5,1.5,0.1,1.8c0.7,0.3,0.2,0.1,1.3,0.6c0,0,0,0,0,0c0,0,0,0,0,0c1.1,0.5,0.6,0.3,1.3,0.6
				c0.7,0.3,0.9-0.2,1.4-1.1c0.5-0.9,1.1-1.6,2.1-1.6c0.2,0,0.4,0,0.5,0c0,0,0,0,0,0c1,0.1,1.6,0.8,2.1,1.7c0.4,0.9,0.7,1.4,1.4,1.2
				c0.7-0.3,0.2-0.1,1.3-0.5c0,0,0,0,0,0c0,0,0,0,0,0c1.1-0.4,0.6-0.2,1.3-0.5c0.7-0.3,0.5-0.8,0.2-1.8c-0.3-1-0.3-1.9,0.4-2.6l0,0
				c0.1-0.1,0.3-0.2,0.4-0.4c0,0,0,0,0,0c0.7-0.7,1.7-0.6,2.7-0.2c1,0.3,1.5,0.5,1.8-0.1c0.3-0.7,0.1-0.2,0.6-1.3c0,0,0,0,0,0
				c0,0,0,0,0,0c0.5-1.1,0.3-0.6,0.6-1.3c0.3-0.7-0.2-0.9-1.1-1.4c-0.9-0.5-1.6-1.1-1.6-2.1c0-0.2,0-0.4,0-0.5c0,0,0,0,0,0
				c0.1-1,0.8-1.6,1.7-2.1c0.9-0.4,1.4-0.7,1.2-1.4c-0.3-0.7-0.1-0.2-0.5-1.3c0,0,0,0,0,0c0,0,0,0,0,0c-0.4-1.1-0.2-0.6-0.5-1.3
				c-0.3-0.7-0.8-0.5-1.8-0.2c-1,0.3-1.9,0.3-2.6-0.4c0,0,0,0,0,0c-0.1-0.1-0.2-0.3-0.4-0.4c0,0,0,0,0,0c-0.7-0.7-0.6-1.7-0.2-2.7
				c0.3-1,0.5-1.5-0.1-1.8c-0.7-0.3-0.2-0.1-1.3-0.6c0,0,0,0,0,0c0,0,0,0,0,0c-1.1-0.5-0.6-0.3-1.3-0.6c-0.7-0.3-0.9,0.2-1.4,1.1
				c-0.5,0.9-1.1,1.6-2.1,1.6c-0.2,0-0.4,0-0.5,0c0,0,0,0,0,0c-1-0.1-1.6-0.8-2.1-1.7c-0.4-0.9-0.7-1.4-1.4-1.2
				c-0.7,0.3-0.2,0.1-1.3,0.5C44.3,38.9,44.7,38.7,44,39z M54.7,49.1c1,2.6-0.3,5.5-2.9,6.5c-2.6,1-5.5-0.3-6.5-2.9
				c-1-2.6,0.3-5.5,2.9-6.5C50.9,45.2,53.8,46.5,54.7,49.1z"/>
		</g>
	</g>
</g>
</svg>
