<?xml version="1.0" encoding="utf-8"?>
<!-- Generator: Adobe Illustrator 16.0.0, SVG Export Plug-In . SVG Version: 6.00 Build 0)  -->
<!DOCTYPE svg PUBLIC "-//W3C//DTD SVG 1.1//EN" "http://www.w3.org/Graphics/SVG/1.1/DTD/svg11.dtd">
<svg version="1.1" id="Layer_1" xmlns="http://www.w3.org/2000/svg" xmlns:xlink="http://www.w3.org/1999/xlink" x="0px" y="0px"
	 width="85.5px" height="85.5px" viewBox="0 0 85.5 85.5" enable-background="new 0 0 85.5 85.5" xml:space="preserve">
<g>
	<g>
		<g>
			<g>
				<circle fill="none" stroke="#6252A3" stroke-miterlimit="10" cx="42.7" cy="42.7" r="42.2"/>
			</g>
			<g>
				<circle fill="none" stroke="#6252A3" stroke-miterlimit="10" cx="42.7" cy="42.7" r="38.2"/>
			</g>
		</g>
	</g>
	<g>
		<path fill="none" stroke="#6252A3" stroke-miterlimit="10" d="M60.9,52.1c0,2.3-1.9,4.2-4.2,4.2H30.8c-2.3,0-4.2-1.9-4.2-4.2V36.3
			c0-2.3,1.9-4.2,4.2-4.2h25.9c2.3,0,4.2,1.9,4.2,4.2V52.1z"/>
		<path fill="none" stroke="#6252A3" stroke-miterlimit="10" d="M39.9,32.1v-2.5c0-0.5,0.4-0.9,0.9-0.9h5.8c0.5,0,0.9,0.4,0.9,0.9
			v2.5"/>
		<line fill="none" stroke="#6252A3" stroke-miterlimit="10" x1="45.7" y1="40.3" x2="60.9" y2="40.3"/>
		<line fill="none" stroke="#6252A3" stroke-miterlimit="10" x1="26.6" y1="40.3" x2="42" y2="40.3"/>
		<path fill="none" stroke="#6252A3" stroke-miterlimit="10" d="M45.5,40.3c0,1-0.8,1.8-1.8,1.8l0,0c-1,0-1.8-0.8-1.8-1.8l0,0
			c0-1,0.8-1.8,1.8-1.8l0,0C44.7,38.5,45.5,39.3,45.5,40.3L45.5,40.3z"/>
	</g>
</g>
</svg>
