<?xml version="1.0" encoding="utf-8"?>
<!-- Generator: Adobe Illustrator 16.0.0, SVG Export Plug-In . SVG Version: 6.00 Build 0)  -->
<!DOCTYPE svg PUBLIC "-//W3C//DTD SVG 1.1//EN" "http://www.w3.org/Graphics/SVG/1.1/DTD/svg11.dtd">
<svg version="1.1" id="Layer_1" xmlns="http://www.w3.org/2000/svg" xmlns:xlink="http://www.w3.org/1999/xlink" x="0px" y="0px"
	 width="85.5px" height="85.5px" viewBox="0 0 85.5 85.5" enable-background="new 0 0 85.5 85.5" xml:space="preserve">
<g>
	<g>
		<g>
			<g>
				<circle fill="none" stroke="#F0D314" stroke-miterlimit="10" cx="42.7" cy="42.7" r="42.2"/>
			</g>
			<g>
				<circle fill="none" stroke="#F0D314" stroke-miterlimit="10" cx="42.7" cy="42.7" r="38.2"/>
			</g>
		</g>
	</g>
	<path fill="#FEEB8C" stroke="#F0D314" stroke-miterlimit="10" d="M43,51.3c0.1-0.4,0.3-1,0.2-1.6c-0.1-0.9-0.6-1.8-1.2-2.3
		c-0.5-0.3-1-0.4-1.5-0.2c-1,0.3-0.9,1.7-0.9,2.6c0,0.1,0,0.3,0,0.4c0,1.1-1.1,1.9-1.9,2.3c-0.2-0.1-0.4-0.1-0.5-0.1h-4.7
		c-0.2,0-0.3,0.1-0.4,0.2c-0.1,0.2-0.4,0.5,0.5,7c0,0.3,0.3,0.4,0.5,0.4H37c0,0,0.1,0,0.3,0c0.1,0,0.1,0,0.2,0
		c0.4,0,0.6-0.3,0.6-0.6l0.6,0.3c0.1,0,0.1,0,0.2,0h5.5c0.4,0,1.5,0,1.9-0.8c0.2-0.4,0.1-0.9-0.1-1.2c0.3-0.3,0.5-0.6,0.6-1
		c0-0.3,0-0.6-0.1-0.8c0.3-0.3,0.4-0.5,0.5-0.8c0.1-0.3,0.1-0.7,0-0.9c0.4-0.2,0.9-0.7,0.9-1.3c0-0.8-0.5-1.6-1.7-1.6L43,51.3
		L43,51.3z M36.7,59h-3.2c-0.3-2.3-0.5-4.7-0.6-5.6h3.7V59z M46.9,52.9c0,0.4-0.6,0.5-0.6,0.5c-0.2,0-0.3,0.2-0.4,0.3
		c-0.1,0.2,0,0.3,0,0.5c0.1,0.1,0.2,0.4,0.1,0.7c0,0.2-0.2,0.3-0.4,0.4c-0.1,0.1-0.2,0.2-0.3,0.4c0,0.2,0,0.3,0.1,0.4
		c0,0,0.2,0.2,0.2,0.4c0,0.2-0.2,0.4-0.5,0.6c-0.1,0.1-0.2,0.2-0.2,0.3s0,0.3,0.1,0.4c0.1,0.2,0.3,0.5,0.2,0.6
		c0,0.1-0.3,0.2-0.9,0.2H39l-0.7-0.3c-0.1,0-0.1,0-0.2,0h-0.3v-4.7c0,0,0.1,0,0.1,0c0,0,0,0,0,0c1-0.5,2.7-1.6,2.7-3.4
		c0-0.1,0-0.3,0-0.4c0-1.2,0.1-1.5,0.2-1.6c0.2-0.1,0.5,0,0.7,0.1c0.4,0.3,0.7,0.9,0.8,1.5c0.1,0.9-0.4,1.8-0.4,1.8
		c-0.1,0.2-0.1,0.4,0,0.5c0.1,0.2,0.3,0.3,0.4,0.3h4C46.7,52.4,46.9,52.6,46.9,52.9z M60.7,43c-1.1-2-2.3-4.3-2.5-4.9
		c0.8-2.1,1-4.3,0.6-6.5c-1.2-7-7.7-11.7-14.7-10.5c-3.4,0.6-6.3,2.4-8.3,5.2s-2.8,6.2-2.2,9.5c0.4,2.4,1.4,4.6,3,6.4
		c-1,0.2-2,0.5-2.9,1c-2.2,1.1-4,2.7-5.3,4.8l-5.4,1.1c-0.2,0-0.3,0.2-0.4,0.4c-0.1,0.2,0,0.4,0.1,0.5c1.6,1.6,3.4,3.4,3.8,3.9
		c-0.1,2.2,0.3,4.4,1.3,6.4c2.2,4.4,6.6,7.2,11.5,7.2l0,0c2,0,3.8-0.4,5.6-1.3c3.1-1.5,5.4-4.1,6.5-7.3s0.9-6.7-0.6-9.8
		c-0.5-1-1.2-2-1.9-2.8c2.2-0.5,4.2-1.5,5.8-3l5.5,0.5c0.2,0,0.4-0.1,0.5-0.2C60.8,43.4,60.8,43.2,60.7,43z M49.9,49.5
		c1.4,2.8,1.6,6,0.6,9c-1,3-3.1,5.4-6,6.7c-1.6,0.8-3.4,1.2-5.2,1.2l0,0c-4.5,0-8.6-2.5-10.6-6.6c-0.9-1.9-1.3-3.9-1.2-6
		c0-0.3,0-0.4-3.4-3.9l4.5-0.9c0.2,0,0.4-0.1,0.4-0.3c1.2-2,2.9-3.6,5-4.6c1.6-0.8,3.4-1.2,5.2-1.2C43.9,42.9,47.9,45.5,49.9,49.5z
		 M54.7,42.2c-0.2-0.1-0.4,0-0.5,0.1c-1.7,1.6-3.8,2.6-6.1,3c0,0,0,0,0,0c-2.3-2.2-5.4-3.5-8.8-3.5c-0.5,0-1,0-1.5,0.1
		c-1.7-1.7-2.8-3.9-3.2-6.3c-0.5-3.1,0.2-6.2,2-8.8c1.8-2.6,4.5-4.2,7.6-4.8c6.4-1.1,12.5,3.3,13.5,9.7c0.3,2,0.1,4.1-0.6,6.1
		c-0.1,0.3-0.1,0.4,2.2,4.7L54.7,42.2z M43.3,31.8c0.5,0,0.8-0.4,0.8-0.8s-0.4-0.8-0.8-0.8c-0.5,0-0.8,0.4-0.8,0.8
		S42.8,31.8,43.3,31.8z M49,31.8c0.5,0,0.8-0.4,0.8-0.8s-0.4-0.8-0.8-0.8s-0.8,0.4-0.8,0.8S48.5,31.8,49,31.8z M51.3,34.4
		c-0.3,0-0.5,0.2-0.5,0.5c0,1.8-2.2,4.1-4.8,4.1c-2.6,0-4.8-2.2-4.8-4.1c0-0.3-0.2-0.5-0.5-0.5c-0.3,0-0.5,0.2-0.5,0.5
		c0,2.3,2.6,5.1,5.8,5.1s5.8-2.8,5.8-5.1C51.8,34.7,51.6,34.4,51.3,34.4z"/>
</g>
</svg>
