<?xml version="1.0" encoding="utf-8"?>
<!-- Generator: Adobe Illustrator 16.0.0, SVG Export Plug-In . SVG Version: 6.00 Build 0)  -->
<!DOCTYPE svg PUBLIC "-//W3C//DTD SVG 1.1//EN" "http://www.w3.org/Graphics/SVG/1.1/DTD/svg11.dtd">
<svg version="1.1" id="Layer_1" xmlns="http://www.w3.org/2000/svg" xmlns:xlink="http://www.w3.org/1999/xlink" x="0px" y="0px"
	 width="85.5px" height="85.5px" viewBox="0 0 85.5 85.5" enable-background="new 0 0 85.5 85.5" xml:space="preserve">
<g>
	<g>
		<g>
			<g>
				<circle fill="none" stroke="#92D4D3" stroke-miterlimit="10" cx="42.7" cy="42.7" r="42.2"/>
			</g>
			<g>
				<circle fill="none" stroke="#92D4D3" stroke-miterlimit="10" cx="42.7" cy="42.7" r="38.2"/>
			</g>
		</g>
	</g>
	<g>
		<g>
			<path fill="#92D4D3" d="M58.6,44.8H60c1.3,0,2.5-1.1,2.5-2.5v-2.7c0-1.3-1.2-2.2-2.5-2.2h-2.9c0-0.1,0-0.1,0-0.2
				c-0.2-0.8-0.6-1.8-1.2-3c-1.6-2.8-4-4.2-7.1-4.2H33.8c-3.1,0-5.5,1.4-7.1,4.2c-1.2,2-1.4,3.9-1.4,4l-0.1,0.7h5.7l0.2-0.4
				c0,0,0.2-0.9,0.7-1.7c0.4-0.7,1-1.5,1.7-1.5h15.6c0.7,0,1.3,0.9,1.7,1.6c0.5,0.8,0.7,1.6,0.7,1.6l0.2,0.5h5.7h0.1H60
				c0.5,0,1.1,0.2,1.1,0.7v2.7c0,0.5-0.6,1-1.1,1h-1.4c-1.3,0-2.4,0.9-2.4,2.2c0,1.3,1.1,2.2,2.4,2.2H60c0.5,0,0.9,0.6,0.9,1.1
				c0,0.5-0.4,1.1-0.9,1.1h-1.1v1.5H60c1.3,0,2.4-1.3,2.4-2.6c0-1.3-1.1-2.6-2.4-2.6h-1.4c-0.5,0-0.9-0.2-0.9-0.7
				S58.1,44.8,58.6,44.8z M52.7,37.5c-0.1,0-0.4-0.9-0.7-1.5c-1-1.8-2.2-2.2-3-2.2H33.5c-0.8,0-2,0.4-3,2.2
				c-0.3,0.5-0.5,1.5-0.7,1.5h-2.9c0.2-0.7,0.5-1.5,1.1-2.6c1.3-2.3,3.3-3.3,5.8-3.3h14.8c2.6,0,4.5,1,5.8,3.3
				c0.6,1,0.9,1.8,1.1,2.6H52.7z"/>
			<rect x="24.9" y="40.4" fill="#92D4D3" width="5.9" height="1.5"/>
			<rect x="51.5" y="40.4" fill="#92D4D3" width="5.9" height="1.5"/>
			<path fill="#92D4D3" d="M55.2,47.9c-0.5-2.1-2.7-3.8-4.9-3.8H49c0,0,0-0.1,0-0.1c-0.4-3.9-3.7-6.9-7.7-6.9s-7.3,3-7.7,6.9
				c0,0,0,0.1,0,0.1c0,0,0,0,0,0c0,0.1,0,0.2,0,0.3c0-0.1,0-0.2,0-0.3c0,0,0,0,0,0h-1.3c-2.2,0-4.4,1.7-4.9,3.8l-1.2,5
				c-0.3,1.1-0.1,2.3,0.6,3.1c0.6,0.8,1.6,1.3,2.8,1.3h23.5c1.1,0,2.1-0.6,2.8-1.4c0.6-0.8,0.8-2,0.6-3.1L55.2,47.9z M49.3,44.7
				c0,0,0,0.1,0,0.1c0,0.1,0,0.2-0.1,0.4C49.2,45.1,49.3,44.9,49.3,44.7z M49.1,44.5c0,0.1,0,0.1,0,0.2
				C49.1,44.6,49.1,44.6,49.1,44.5z M41.3,38.5c3.4,0,6.2,2.8,6.2,6.2c0,3.4-2.8,6.2-6.2,6.2c-3.4,0-6.2-2.8-6.2-6.2
				C35.1,41.3,37.9,38.5,41.3,38.5z M55,54.4c-0.1,0.3-0.2,0.5-0.3,0.7c-0.4,0.4-0.9,0.8-1.6,0.8H29.6c-0.7,0-1.2-0.4-1.6-0.8
				c-0.1-0.2-0.2-0.4-0.3-0.7c0-0.2-0.1-0.4-0.1-0.6c0-0.2,0-0.3,0.1-0.5l1.2-5c0.4-1.5,1.9-2.7,3.5-2.7h1.3c0,0,0-0.3,0.1-0.5
				c0,0.1,0,0.2,0,0.4c0.4,3.9,3.6,7,7.6,7c4,0,7.3-3,7.7-6.8h1.2c1.5,0,3.1,1.2,3.5,2.7l1.2,5c0,0.2,0.1,0.3,0.1,0.5
				C55.1,54,55,54.2,55,54.4z"/>
			<circle fill="#92D4D3" cx="41.3" cy="40.5" r="1"/>
			<circle fill="#92D4D3" cx="41.3" cy="49" r="1"/>
			<circle fill="#92D4D3" cx="45.6" cy="44.7" r="1"/>
			<circle fill="#92D4D3" cx="37.1" cy="44.7" r="1"/>
			<circle fill="#92D4D3" cx="44.3" cy="47.7" r="1"/>
			<circle fill="#92D4D3" cx="38.3" cy="41.7" r="1"/>
			<circle fill="#92D4D3" cx="38.3" cy="47.7" r="1"/>
			<circle fill="#92D4D3" cx="44.3" cy="41.7" r="1"/>
		</g>
	</g>
</g>
</svg>
