<?xml version="1.0" encoding="utf-8"?>
<!-- Generator: Adobe Illustrator 16.0.0, SVG Export Plug-In . SVG Version: 6.00 Build 0)  -->
<!DOCTYPE svg PUBLIC "-//W3C//DTD SVG 1.1//EN" "http://www.w3.org/Graphics/SVG/1.1/DTD/svg11.dtd">
<svg version="1.1" id="Layer_1" xmlns="http://www.w3.org/2000/svg" xmlns:xlink="http://www.w3.org/1999/xlink" x="0px" y="0px"
	 width="85.5px" height="85.5px" viewBox="0 0 85.5 85.5" enable-background="new 0 0 85.5 85.5" xml:space="preserve">
<g>
	<g>
		<g>
			<g>
				<circle fill="none" stroke="#FBAD18" stroke-miterlimit="10" cx="42.7" cy="42.7" r="42.2"/>
			</g>
			<g>
				<circle fill="none" stroke="#FBAD18" stroke-miterlimit="10" cx="42.7" cy="42.7" r="38.2"/>
			</g>
		</g>
	</g>
	<g>
		<g>
			<path fill="#FBAD18" d="M27,55.1c-0.1,0.1-0.2,0.2-0.2,0.4c0,0.1-0.1,0.2-0.1,0.3l-1.1,5.7l5.7-1.1c0.1,0,0.2,0,0.3-0.1
				c0.1,0,0.3-0.1,0.4-0.2c0.7-0.7,0.1-2.4-1.3-3.8C29.4,55,27.7,54.4,27,55.1z"/>
			<path fill="#FBAD18" d="M54.8,32.3c2.2,2.2,3.1,4.9,2,6l3.6-3.6c1.6-1.6,1.1-4.7-1-6.9c-2.2-2.2-5.3-2.7-6.9-1l-3.6,3.6
				C50,29.2,52.6,30.1,54.8,32.3z"/>
			<path fill="#FBAD18" d="M63.8,55.1L51.9,43.2l3.5-3.5c1.1-1.1,0.2-3.8-2-6c-0.2-0.2-0.3-0.3-0.5-0.5l-5.5,5.5L46,37.3l5.2-5.2
				c-1.5-0.9-3-1-3.7-0.3L44,35.3L32.1,23.4l-9.7,9.7L34.3,45l-6.5,6.5c0.7-0.7,2.2-0.6,3.7,0.3l4.8-4.8l1.5,1.5L33.2,53
				c0.2,0.1,0.3,0.3,0.5,0.5c2.2,2.2,3.1,4.9,2,6l6.5-6.5l11.9,11.9L63.8,55.1z M32.1,25.5l2.8,2.8l-4.3,4.3l1.1,1.1l4.3-4.3
				l2.8,2.8l-5.2,5.2l1.1,1.1l5.2-5.2l2.8,2.8l-4.3,4.3l1.1,1.1l4.3-4.3l2.8,2.8L41.1,45l1.1,1.1l5.2-5.2l2.8,2.8l-4.3,4.3l1.1,1.1
				l4.3-4.3l2.8,2.8l-5.2,5.2l1.1,1.1l5.2-5.2l2.8,2.8l-4.3,4.3l1.1,1.1l4.3-4.3l2.8,2.8l-7.6,7.6L24.5,33.1L32.1,25.5z"/>
		</g>
	</g>
</g>
</svg>
