<?xml version="1.0" encoding="utf-8"?>
<!-- Generator: Adobe Illustrator 16.0.0, SVG Export Plug-In . SVG Version: 6.00 Build 0)  -->
<!DOCTYPE svg PUBLIC "-//W3C//DTD SVG 1.1//EN" "http://www.w3.org/Graphics/SVG/1.1/DTD/svg11.dtd">
<svg version="1.1" id="Layer_1" xmlns="http://www.w3.org/2000/svg" xmlns:xlink="http://www.w3.org/1999/xlink" x="0px" y="0px"
	 width="200px" height="160px" viewBox="0 0 200 160" enable-background="new 0 0 200 160" xml:space="preserve">
<g>
	<path fill="#F26F70" d="M73.3,78.4c0,0-45,13.9-50.7,29.4c-2.8,7.7-6.9,51.9-6.9,51.9l168.5,0.3c0,0-0.9-16.1-1.4-28
		c-0.5-11.9-1.3-22.1-14.8-32.5c-13.5-10.4-58.9-24.4-58.9-24.4l3,1.9c0,0-32.2,15-33.6,15S73.3,78.4,73.3,78.4z"/>
	<path fill="#DFE4EA" d="M100.4,65.5c-22,1.4-32,13.7-34.8,31c-0.5,3.1-0.8,11.8-0.8,11.8l11-4.9l0.9-1.6l8.6-9.9
		c0,0,1.9-9,4.4-11.4C92.1,78.1,104.4,65.3,100.4,65.5z"/>
	<path fill="#D3A852" d="M73.8,104.3c0,0-3.3-0.5-0.8-12.2c1.2-5.8,2.1-9.9,8.4-16.4c6.3-6.5,12.5-6.6,12.5-6.6s-2.7,6.7-2.9,8.5
		c-0.2,1.8-3.5,5.2-4,7.3c-0.5,2.1-1.2,7.3-1.2,7.3L73.8,104.3z"/>
	<path fill="#D3A852" d="M73,102.4c0,0,4.1,9.3,12.2,11.7c2.3,0.7,10.8,4.7,13.8,18.2c1.5,6.9,3.5,16.3,3.5,16.3l-0.5-5.3
		c0,0,4.7-15.9-6.5-29.9c-5.4-6.8-11.1-13.7-11.1-17.5c0-3.8,1.5-3.6,1.5-3.6L73,102.4z"/>
	<path fill="#DFE4EA" d="M103.2,62.8c14.1-2.4,32.2,8.3,36.6,31.7c0.9,4.7,0.4,10.8,0.4,10.8l-6.2-5.9l-3.1,3.2l-18-15.2
		c0,0-1.9-9-4.4-11.4C106,73.7,99.3,63.5,103.2,62.8z"/>
	<path fill="#D3A852" d="M132.1,101.6c0,0,2,0.4,2.6-3.4c0.8-5.9-5.2-19.1-10.1-25.1c-5.7-7-16.1-7.3-19.5-6c-3,1.1,8.6,7.2,8.8,9
		c0.2,1.8,3.5,5.2,4,7.3c0.5,2.1-0.8,12.1-0.8,12.1L132.1,101.6z"/>
	<path fill="#D3A852" d="M132.1,101.6c0,0-8.6,7.1-13.4,14c-6.1,8.7-7.9,11.1-12.9,22.1c-3,6.5-3.3,10.8-3.3,10.8l-0.8-4.5
		c0,0,0.4-18.5,9.2-29.9c5.3-6.8,8.9-14.3,8.9-18.1c0-3.8-1.5-3.6-1.5-3.6L132.1,101.6z"/>
	<path fill="#DDA29F" d="M87.7,50.8v28.4c0,0-3.1,1.8-4.6,8.5c-3.7,16.7-4.7,14.2,12.9,30.6c8,7.5,6.3,27.1,6.3,27.1
		s0.8-21.4,11.8-30.9c14.5-12.5,7.9-35.4,7.9-35.4v-25v-3.4H87.7z"/>
	<path fill="#EBA9A1" d="M127.1,68.3c-0.9,2.2-5.6,18.9-22.8,18.9c-16.3,0-22.8-12-25.2-18.6c-1.4-3.6-2.3-3.1-2.9-52.2l55.9,1.3
		C132.1,17.7,130.3,60.9,127.1,68.3z"/>
	<g>
		<path fill="#3D3131" d="M79.1,32l-0.3,10.3c0,0,0.4,3-2.1,3c-1.2,0-0.8,0-0.8,0V40c0,0-0.1,3.3,0-1.2c0-0.5-2.2-3.1-2.2-3.1v-6.3
			c0,0-0.1-9.7,0-11.2c0.2-6.6,3.5-14.7,24.7-14.7l14.7,0.3c0,0,0.5,0,0.9,0c4.3,0.1,16.8,1.6,19.2,8.3c1.5,4.1,1.8,7.4,1.6,16.9
			c-0.1,3.9-0.2,9.1-0.2,9.1l-2.1,2.3l-0.2,1.6l-0.1,3.5c0,0,0.4,0-0.5,0c-2.9-0.1-2.8-3.5-2.8-3.5V40v-8c0,0,0.3-3.3-1.1-3.3
			c-1.7,0-0.2-0.1-1.6-0.1c-2.9-0.1-2.5-3.4-2.5-3.4s0-0.7,0-1.9c0-4-1.7-4.9-4.5-4.9c-0.9,0-22.2,0-28.6,0c-0.5,0-2.6,0-2.8,0
			c-7.7,0-0.2,10.9-7.2,10.9C79.1,29.3,79.1,32,79.1,32z"/>
	</g>
	<path fill="#010101" d="M105.8,53c0.1,0.9,0.8,1.6,1.6,1.6c0.8,0.1,1.5-0.6,1.4-1.5c-0.1-0.9-0.8-1.6-1.6-1.6
		C106.4,51.5,105.8,52.2,105.8,53L105.8,53z"/>
	<path fill="#F26F70" d="M96.1,56.3c0-4.2,3.4-7.5,7.5-7.5c4.2,0,7.5,3.4,7.5,7.5c0,4.2-3.4,7.5-7.5,7.5
		C99.5,63.8,96.1,60.4,96.1,56.3L96.1,56.3z"/>
</g>
</svg>
