<?xml version="1.0" encoding="utf-8"?>
<!-- Generator: Adobe Illustrator 16.0.0, SVG Export Plug-In . SVG Version: 6.00 Build 0)  -->
<!DOCTYPE svg PUBLIC "-//W3C//DTD SVG 1.1//EN" "http://www.w3.org/Graphics/SVG/1.1/DTD/svg11.dtd">
<svg version="1.1" id="Layer_1" xmlns="http://www.w3.org/2000/svg" xmlns:xlink="http://www.w3.org/1999/xlink" x="0px" y="0px"
	 width="200px" height="160px" viewBox="0 0 200 160" enable-background="new 0 0 200 160" xml:space="preserve">
<g>
	<path fill="#3D3131" d="M75,85.8c0,0-42.1,12.7-47.4,26.7c-2.7,7-6.5,47.2-6.5,47.2l157.8,0.3c0,0-0.9-14.6-1.3-25.4
		s-1.2-20.1-13.9-29.5c-12.7-9.4-62.9-26.2-62.9-26.2L75,85.8z"/>
	<path fill="#DDA29F" d="M82,57.1v25.8c0,0-8.7,12.3,5.2,20c5.6,3.1,20.3,4,27.1-0.8c9.8-7,2.9-19.2,2.9-19.2V60.1v-3.1H82z"/>
	<path fill="#EBA9A1" d="M123.2,49.4c0,18-10.5,32.6-23.3,32.6S76.5,67.5,76.5,49.4c0-8.9-2-24.7,2.2-30.6c4.2-6,14.7-2.1,21.2-2.1
		c5.6,0,12-2.3,16,2.2C121.1,25,123.2,39.2,123.2,49.4z"/>
	<path fill="#EBA9A1" d="M79.3,51.7c0,1.8-1.5,3.3-3.3,3.3l0,0c-1.8,0-3.3-1.5-3.3-3.3V39c0-1.8,1.5-3.3,3.3-3.3l0,0
		c1.8,0,3.3,1.5,3.3,3.3V51.7z"/>
	<path fill="#EBA9A1" d="M127.2,51.7c0,1.8-1.5,3.3-3.3,3.3l0,0c-1.8,0-3.3-1.5-3.3-3.3V39c0-1.8,1.5-3.3,3.3-3.3l0,0
		c1.8,0,3.3,1.5,3.3,3.3V51.7z"/>
	<path fill="#3D3131" d="M72.7,40.8V29v-9.4c0,0,0.5-5.1,8.3-9.7c7.4-4.3,15.5-7.7,15.5-7.7s7.7-0.2,11.4,3.2
		c3.7,3.3,4.5,4.9,4.5,4.9s14-5.6,13.8,14.7c0,5.8,0.4,8.9,0.4,11.7c0,1.8,0.1,2.1-0.4,2.6c-0.3,0.3-3.5,9.7-3.5,9.7l-3,0.3v-8.9
		c0,0,0.2,0.2,0,0c-1.9-1.7-1.8-5.1-1.8-5.1v-6.1v-0.9c0,0-1.2-4-5.7-4.1c-5-0.1-7.3,0-7.3,0s-1.2-0.1-2.5,1
		C100.3,26.9,98.5,28,92,28c-2.6,0-10-1.4-10.5,1.6c-0.5,3.3-0.6,3.3-3,7.8c-0.2,0.3,0,12.4,0,12.4s-0.8-0.2-1.8-0.4
		C75.7,49.2,72.7,40.8,72.7,40.8z"/>
</g>
</svg>
