<?xml version="1.0" encoding="utf-8"?>
<!-- Generator: Adobe Illustrator 16.0.0, SVG Export Plug-In . SVG Version: 6.00 Build 0)  -->
<!DOCTYPE svg PUBLIC "-//W3C//DTD SVG 1.1//EN" "http://www.w3.org/Graphics/SVG/1.1/DTD/svg11.dtd">
<svg version="1.1" id="Layer_1" xmlns="http://www.w3.org/2000/svg" xmlns:xlink="http://www.w3.org/1999/xlink" x="0px" y="0px"
	 width="200px" height="160px" viewBox="0 0 200 160" enable-background="new 0 0 200 160" xml:space="preserve">
<g>
	<path fill="#F26F70" d="M49,114.3c0,0-8.4,5-12.2,9.9c-3.8,5-4.2,35.2-4.2,35.2l134.7-0.1c0,0-0.8-11.8-1.1-20.6
		c-0.4-8.8-0.4-17.9-11.4-25.6c-11.1-7.6-34.3-22.5-34.3-22.5l-20.7-6.9c0,0-6.4,5.5-20,10.3C73.3,96.2,49,114.3,49,114.3z"/>
	<path fill="#3D3131" d="M70.6,105.7"/>
	<path fill="#DDA29F" d="M81.1,75.3L82,96.6l2.4,10.6c0,0,0.8,5.2-1.6,28.3c-0.4,3.8-0.5,12.1-0.5,12.1s27.1-39.9,26.6-43.2
		c-2.8-18.3,7.2-19.6,7.2-19.6l0.3-13.2l0.3-4.8L81.1,75.3z"/>
	<path fill="#DFE4EA" d="M83,146.2C82.6,150,83,146.2,83,146.2s27.6-43.5,25.3-39.6c-1.9,3.3-5.7,6.4-13.2,7
		c-6.4,0.5-9.6-4.5-11-7.9C83.5,104.1,84.4,134.7,83,146.2z"/>
	<path fill="#EBA9A1" d="M95.5,46.3l-0.5,0l-26.5,0.6L73,74l1.9,7.9c0,0,12.1,11.7,15.6,13c1.6,0.6,10.8,0.2,12.5-0.4
		c3-1.1,14.2-13.3,14.2-13.3l1.7-8.2l3.2-27.3L95.5,46.3z"/>
	<path fill="#EBA9A1" d="M73.6,61.1c0,1.8-1.4,3.3-3.2,3.4c0,0-2-0.1-2.3-3.1l-2.1-10.4c0-1.8,1.4-3.3,3.2-3.4l0.8,0
		c1.8,0,3.3,1.4,3.4,3.2L73.6,61.1z"/>
	<path fill="#EBA9A1" d="M117.3,60.1c0,1.8,1.5,3.3,3.4,3.2c0,0,2-0.2,2.2-3.2l1.6-10.5c0-1.8-1.5-3.3-3.4-3.2l-0.8,0
		c-1.8,0-3.3,1.5-3.2,3.4L117.3,60.1z"/>
	<g>
		<path fill="#95613E" d="M70.3,47.1l-0.5-22.5C69.6,12.3,92.7,0.7,91.6,1.9l5.6-0.1c1.8,0,22.5,9.5,22.7,21.8l0.5,22.5"/>
		<path fill="#95613E" d="M137.4,45.9c0,1.3-1,2.3-2.2,2.3l-79.7,1.7c-1.3,0-2.3-1-2.3-2.2l0,0c0-1.3,1-2.3,2.2-2.3l79.7-1.7
			C136.4,43.6,137.4,44.6,137.4,45.9L137.4,45.9z"/>
	</g>
	<polygon fill="#3D3131" points="69.3,49.6 71.8,61.7 73,61.7 72.7,49.5 	"/>
	<polygon fill="#3D3131" points="120.4,48.3 118.4,60 117.2,60 117,48.4 	"/>
	<polyline fill="none" stroke="#D4595F" stroke-miterlimit="10" points="109.2,92.4 108.4,107.1 82.4,147.6 	"/>
	<g>
		<path fill="none" stroke="#DFE4EA" stroke-width="1.5" stroke-miterlimit="10" d="M116.9,88.5l38.2,27.2c0,0,7.6,5.2,8.4,17.8
			c1.2,18.5,1.8,26.1,1.8,26.1"/>
		<path fill="none" stroke="#DFE4EA" stroke-width="1.5" stroke-miterlimit="10" d="M114.6,90.2l36.4,25.7c0,0,8.7,6,9.6,18.6
			c1.3,18.5,1.8,24.8,1.8,24.8"/>
		<path fill="none" stroke="#DFE4EA" stroke-width="1.5" stroke-miterlimit="10" d="M111,90.4l38.4,28.3c0,0,6.6,4.6,7.6,14.6
			c1.6,16.4,1.8,25.7,1.8,25.7"/>
	</g>
	<g>
		<path fill="none" stroke="#DFE4EA" stroke-width="1.5" stroke-miterlimit="10" d="M82,94.3l-39.4,25c0,0-7,4.8-7.8,16.5
			c-1.1,17.2-1.7,24.2-1.7,24.2"/>
		<path fill="none" stroke="#DFE4EA" stroke-width="1.5" stroke-miterlimit="10" d="M82.4,95.4l-36,24.1c0,0-8,5.5-8.9,17.2
			c-1.2,17.2-1.7,23-1.7,23"/>
		<path fill="none" stroke="#DFE4EA" stroke-width="1.5" stroke-miterlimit="10" d="M82.8,96.5l-35,25.6c0,0-6.1,4.3-7,13.5
			c-1.5,15.2-1.7,23.9-1.7,23.9"/>
	</g>
	<polyline fill="none" stroke="#D4595F" stroke-miterlimit="10" points="82.4,92.8 84.4,108.3 82.4,147.6 81.2,159.4 	"/>
</g>
</svg>
