<?xml version="1.0" encoding="utf-8"?>
<!-- Generator: Adobe Illustrator 16.0.0, SVG Export Plug-In . SVG Version: 6.00 Build 0)  -->
<!DOCTYPE svg PUBLIC "-//W3C//DTD SVG 1.1//EN" "http://www.w3.org/Graphics/SVG/1.1/DTD/svg11.dtd">
<svg version="1.1" id="Layer_1" xmlns="http://www.w3.org/2000/svg" xmlns:xlink="http://www.w3.org/1999/xlink" x="0px" y="0px"
	 width="200px" height="160px" viewBox="0 0 200 160" enable-background="new 0 0 200 160" xml:space="preserve">
<g>
	<path fill="#70B8C9" d="M81.9,76.2c0,0-29.1,14.9-45.8,24.1c-7.2,4-12,15.2-12.2,20.3c-0.4,8.1-0.9,39.2-0.9,39.2l154,0.3
		c0,0-0.9-15.9-1.4-27.7c-0.5-11.8-1.3-21.8-14.6-32.1c-13.4-10.2-53.2-24.1-53.2-24.1H81.9z"/>
	<path fill="#DDA29F" d="M114.4,76.8c0,9.4-17,18.9-17,18.9s-17-9.5-17-18.9c0-9.4,7.6-17,17-17C106.8,59.8,114.4,67.4,114.4,76.8z"
		/>
	<path fill="#EBA9A1" d="M78.5,45.6c0.5,2.2-0.8,4.4-2.9,4.9l0,0c-2.1,0.5-4.2-0.8-4.8-3l-2.2-9.3c-0.5-2.2,0.8-4.4,2.9-4.9l0,0
		c2.1-0.5,4.2,0.8,4.8,3L78.5,45.6z"/>
	<path fill="#EBA9A1" d="M115.2,45.6c-0.5,2.2,0.8,4.4,2.9,4.9l0,0c2.1,0.5,4.2-0.8,4.8-3l2.2-9.3c0.5-2.2-0.8-4.4-2.9-4.9l0,0
		c-2.1-0.5-4.2,0.8-4.8,3L115.2,45.6z"/>
	<polygon fill="#DDA29F" points="80.3,49.4 80.3,78.4 114,78.4 114,52.9 114,49.4 	"/>
	<path fill="#EBA9A1" d="M120.2,54.4c0,10.2-14.4,21.2-15.1,21.2H90.2c-0.9,0-15.8-11-15.8-21.2l-1.7-27.6
		c0-10.2,6.7-18.5,16.6-18.5h14.8c9.9,0,17.9,8.3,17.9,18.5L120.2,54.4z"/>
	
		<line fill-rule="evenodd" clip-rule="evenodd" fill="none" stroke="#A5A4A4" stroke-miterlimit="10" x1="90.2" y1="59.8" x2="90.2" y2="70.3"/>
	<g>
		<g>
			<path fill-rule="evenodd" clip-rule="evenodd" fill="#3F403F" d="M87.7,70.5c0-4.3,0.4-7.9,2.3-11c0.1-0.2,6.4-2.5,7.4-2.5
				c0.6,0,6.9,1.5,7.6,2.4c1,1.3,1.5,3,1.8,4.7c0.5,3.2,0.5,4.7,0.4,7.9c-0.2,7.8-12.5,6.2-15.9,5.1C89,76.4,87.3,73.2,87.7,70.5z
				 M97.4,58.2c-0.8,1.5-6.3,0.4-6.9,4.4c-0.1,0.8-0.2,1.7-0.2,2.6c0,2,0.3,4,2,4.6c1.8,0.7,11.1,0.8,11.8-1.7
				c0.5-1.8,0.4-3.9,0.3-5.9C104.1,59.4,98.6,59.7,97.4,58.2z"/>
		</g>
		<path fill="#3F403F" d="M74.8,39.6c0,0-0.4,19.8,8.8,23.5c6.5,2.6,5.8,3.9,5.8,3.9l0.7,9.8c0,0-15.4-11.6-16.1-19.8
			c-0.7-8.2-1.9-17.2-1.9-17.2l0.4-1.4L74.8,39.6z"/>
		<path fill="#3F403F" d="M119.1,38.4c0,0,0.9,18.7-8.2,23.5c-6.1,3.3-5.8,3.9-5.8,3.9l-0.8,11c0,0,15.2-11.6,15.8-19.8
			c0.7-8.2,1.4-18,1.4-18l0.2-1.2L119.1,38.4z"/>
		<path fill="#3F403F" d="M69.6,31.5v-9.6l0,0c0,0,0.9-19.4,24.7-19.4c21.5,0,24,8,24,8s5.4,3.3,5.4,7.9c0,6.5,0.1,7.9,0,11.1
			c0,2-0.1,3.1-1,3.6c-0.8,0.4-1.2,0.2-1.2,1.3c0,0.9,0,3.9,0,4.1c0,0.7-2.4,1-2.4,1V27.6c0,0,0.1-1-0.1-1.4
			c-0.2-0.3-0.4-0.4-1.1-0.9c-1.3-1-2.1-3-2.1-6.8l-3.7,1.1h-11.9c0,0-13.8,0-16.4,0c-6.2,0-3.8,2.2-8.9,2.2c-1.9,0,0,7.6,0,7.6
			v10.2c0,0-1.9,0-2.2,0c-1,0,0-5.2-1.5-6C69.7,32.9,69.6,31.5,69.6,31.5z"/>
	</g>
	<ellipse fill="#EBA9A1" cx="79.7" cy="25.4" rx="6.2" ry="6.4"/>
</g>
</svg>
