<?xml version="1.0" encoding="utf-8"?>
<!-- Generator: Adobe Illustrator 16.0.0, SVG Export Plug-In . SVG Version: 6.00 Build 0)  -->
<!DOCTYPE svg PUBLIC "-//W3C//DTD SVG 1.1//EN" "http://www.w3.org/Graphics/SVG/1.1/DTD/svg11.dtd">
<svg version="1.1" id="Layer_1" xmlns="http://www.w3.org/2000/svg" xmlns:xlink="http://www.w3.org/1999/xlink" x="0px" y="0px"
	 width="200px" height="160px" viewBox="0 0 200 160" enable-background="new 0 0 200 160" xml:space="preserve">
<g>
	<path fill="#357BBF" d="M75.6,85.3c0,0-41.1,12.7-46.3,26.9c-2.6,7-6.3,47.5-6.3,47.5l154.1,0.3c0,0-0.9-14.7-1.3-25.6
		c-0.4-10.9-1.2-20.2-13.6-29.7c-12.4-9.5-61.4-26.3-61.4-26.3L75.6,85.3z"/>
	<g>
		<defs>
			<path id="SVGID_3_" d="M75.6,85.3c0,0-41.1,12.7-46.3,26.9c-2.6,7-6.3,47.5-6.3,47.5l154.1,0.3c0,0-0.9-14.7-1.3-25.6
				c-0.4-10.9-1.2-20.2-13.6-29.7c-12.4-9.5-53.9-22.3-53.9-22.3L75.6,85.3z"/>
		</defs>
		<clipPath id="SVGID_2_">
			<use xlink:href="#SVGID_3_"  overflow="visible"/>
		</clipPath>
		<g clip-path="url(#SVGID_2_)">
			<rect x="17.1" y="60.6" fill="#4C94D0" width="1" height="129.2"/>
			<rect x="21.3" y="60.6" fill="#4C94D0" width="1" height="129.2"/>
			<rect x="25.6" y="60.6" fill="#4C94D0" width="1" height="129.2"/>
			<rect x="29.8" y="60.6" fill="#4C94D0" width="1" height="129.2"/>
			<rect x="34" y="60.6" fill="#4C94D0" width="1" height="129.2"/>
			<rect x="38.2" y="60.6" fill="#4C94D0" width="1" height="129.2"/>
			<rect x="42.5" y="60.6" fill="#4C94D0" width="1" height="129.2"/>
			<rect x="46.7" y="60.6" fill="#4C94D0" width="1" height="129.2"/>
			<rect x="50.9" y="60.6" fill="#4C94D0" width="1" height="129.2"/>
			<rect x="55.1" y="60.6" fill="#4C94D0" width="1" height="129.2"/>
			<rect x="59.4" y="60.6" fill="#4C94D0" width="1" height="129.2"/>
			<rect x="63.6" y="60.6" fill="#4C94D0" width="1" height="129.2"/>
			<rect x="67.8" y="60.6" fill="#4C94D0" width="1" height="129.2"/>
			<rect x="72" y="60.6" fill="#4C94D0" width="1" height="129.2"/>
			<rect x="76.3" y="60.6" fill="#4C94D0" width="1" height="129.2"/>
			<rect x="80.5" y="60.6" fill="#4C94D0" width="1" height="129.2"/>
			<rect x="84.7" y="60.6" fill="#4C94D0" width="1" height="129.2"/>
			<rect x="88.9" y="60.6" fill="#4C94D0" width="1" height="129.2"/>
			<rect x="93.2" y="60.6" fill="#4C94D0" width="1" height="129.2"/>
			<rect x="97.4" y="60.6" fill="#4C94D0" width="1" height="129.2"/>
			<rect x="101.6" y="60.6" fill="#4C94D0" width="1" height="129.2"/>
			<rect x="105.8" y="60.6" fill="#4C94D0" width="1" height="129.2"/>
			<rect x="110.1" y="60.6" fill="#4C94D0" width="1" height="129.2"/>
			<rect x="114.3" y="60.6" fill="#4C94D0" width="1" height="129.2"/>
			<rect x="118.5" y="60.6" fill="#4C94D0" width="1" height="129.2"/>
			<rect x="122.7" y="60.6" fill="#4C94D0" width="1" height="129.2"/>
			<rect x="127" y="60.6" fill="#4C94D0" width="1" height="129.2"/>
			<rect x="131.2" y="60.6" fill="#4C94D0" width="1" height="129.2"/>
			<rect x="135.4" y="60.6" fill="#4C94D0" width="1" height="129.2"/>
			<rect x="139.6" y="60.6" fill="#4C94D0" width="1" height="129.2"/>
			<rect x="143.9" y="60.6" fill="#4C94D0" width="1" height="129.2"/>
			<rect x="148.1" y="60.6" fill="#4C94D0" width="1" height="129.2"/>
			<rect x="152.3" y="60.6" fill="#4C94D0" width="1" height="129.2"/>
			<rect x="156.5" y="60.6" fill="#4C94D0" width="1" height="129.2"/>
			<rect x="160.7" y="60.6" fill="#4C94D0" width="1" height="129.2"/>
			<rect x="165" y="60.6" fill="#4C94D0" width="1" height="129.2"/>
			<rect x="169.2" y="60.6" fill="#4C94D0" width="1" height="129.2"/>
			<rect x="173.4" y="60.6" fill="#4C94D0" width="1" height="129.2"/>
			<rect x="177.6" y="60.6" fill="#4C94D0" width="1" height="129.2"/>
			<rect x="181.9" y="60.6" fill="#4C94D0" width="1" height="129.2"/>
		</g>
	</g>
	<path fill="#DFE4EA" d="M96,71.2c12.9-2.2,29.5,7.6,33.5,29c0.8,4.3,0.4,9.9,0.4,9.9l-5.7-5.4l-2.3-0.8l-17.1-10.2
		c0,0-1.7-8.2-4-10.4C98.5,81.2,92.4,71.8,96,71.2z"/>
	<rect x="99.7" y="117.9" fill="#2176A6" width="4.6" height="42"/>
	<path fill="#DFE4EA" d="M101.3,73.3c-20.1,1.2-29.3,12.5-31.9,28.4c-0.5,2.8-0.7,10.8-0.7,10.8l10-4.5l0.9-1.5l7.9-9.1
		c0,0,1.7-8.2,4-10.4C93.8,84.8,105,73.1,101.3,73.3z"/>
	<path fill="#2176A6" d="M78.3,109c0,0-2.7-1.8-2.7-10.8c0-5.4,1.8-9.4,7.5-15.3c5.8-5.9,11.4-6.1,11.4-6.1s-2.4,6.1-2.7,7.8
		c-0.2,1.7-3.2,4.7-3.6,6.6c-0.4,1.9-1.1,6.6-1.1,6.6L78.3,109z"/>
	<path fill="#2176A6" d="M76.7,106.1c0,0,1.3,4.4,9.4,8.3c2,1,15.9,4.6,15.9,4.6s-17-15.2-17-18.7s1.4-3.3,1.4-3.3L76.7,106.1z"/>
	<path fill="#2176A6" d="M124,104.4c0,0-0.8,4.3-8.1,8.8c-1.8,1.1-14.6,5.9-14.6,5.9s14.6-16,14.3-19.3c-0.3-3.3-1.6-3-1.6-3
		L124,104.4z"/>
	<path fill="#2176A6" d="M122.1,106.5c0,0,2.1,0.4,2.4-3.1c0.7-10.5-4.8-17.5-9.2-22.9c-5.2-6.4-14.7-6.7-17.8-5.5
		c-2.7,1,7.9,6.6,8.1,8.2c0.2,1.7,3.2,4.7,3.6,6.6c0.4,1.9-0.7,11-0.7,11L122.1,106.5z"/>
	<path fill="#DDA29F" d="M85.7,60.1v25.9c0,0-13.4,15.3,9.2,28.4c6.1,3.5,7.2,4.6,7.2,4.6s3.3-3.2,9.3-8.1
		c14.3-11.6,5.6-24.9,5.6-24.9V63.2v-3.1H85.7z"/>
	<path fill="#EBA9A1" d="M125.7,48.7c0,18.1-10.5,32.8-23.5,32.8c-13,0-23.5-14.7-23.5-32.8c0-9-2-24.8,2.2-30.8
		c4.3-6,14.8-2.1,21.3-2.1c5.6,0,12.1-2.4,16.1,2.2C123.6,24.1,125.7,38.4,125.7,48.7z"/>
	<path fill="#EBA9A1" d="M80.9,51c0,1.8-1.5,3.3-3.3,3.3l0,0c-1.8,0-3.3-1.5-3.3-3.3V38.2c0-1.8,1.5-3.3,3.3-3.3l0,0
		c1.8,0,3.3,1.5,3.3,3.3V51z"/>
	<path fill="#EBA9A1" d="M129.7,51c0,1.8-1.5,3.3-3.3,3.3l0,0c-1.8,0-3.3-1.5-3.3-3.3V38.2c0-1.8,1.5-3.3,3.3-3.3l0,0
		c1.8,0,3.3,1.5,3.3,3.3V51z"/>
	<path fill="#3D3131" d="M74.9,40V28.2v-9.4c0,0-0.1-6.4,8.3-9.8c8.4-3.4,21.2-5.9,21.2-5.9s7.7-0.2,11.5,3.2
		c3.7,3.4,5.7,7.7,5.7,7.7s6.4,0.7,7.1,10.1c0.4,5.8,0.4,10.7,0.4,13.5c0,1.8,0.1,2.1-0.4,2.6c-0.3,0.3-0.6,0.2-1.5,0.6
		c-0.7,0.3-1.4,1-1.6,2.2c-0.3,2.6-0.3,2.6-0.3,2.6h-1.9v-4.7c0,0,0.5-3.3-3.1-3.3c-2.1,0-1.9-2.7-1.9-2.7v-6.2v-6.7
		c0,0,0.7-4.4-3.9-4.5c-5.1-0.1-7.4,0-7.4,0s-1.2-0.1-2.5,1c-2.1,1.7-4,1.6-10.6,1.6c-2.7,0-3.9-3.5-7.4-2.3
		C83.6,19,84,22.5,84,26.5c0,7.5,0.4,8.2-2.7,10.1c-1.5,0.9-1.6,3.6-1.6,3.6v5.6c0,0,0.3,0.2-0.7,0c-1-0.2-1.5-3.2-2.9-3.9
		C74.8,41.3,74.9,40,74.9,40z"/>
	<rect x="22.9" fill="none" width="154.1" height="160"/>
	<path fill="#010101" d="M121.9,43.2h-1.4c-0.3-4-3.7-7.1-7.7-7.1c-3.4,0-6.3,2.2-7.3,5.2c-0.7-0.9-1.9-1.5-3.1-1.5
		c-1.3,0-2.4,0.6-3.1,1.5c-1.1-3-3.9-5.2-7.3-5.2c-4.1,0-7.4,3.1-7.7,7.1h-1.4v1.4H84c0.3,4,3.7,7.1,7.7,7.1c4.3,0,7.8-3.5,7.8-7.8
		l0,0c0-1.5,1.2-2.7,2.7-2.7c1.5,0,2.7,1.2,2.7,2.7h0c0,4.3,3.5,7.8,7.8,7.8c4.1,0,7.4-3.1,7.7-7.1h1.4V43.2z M91.8,50.3
		c-3.5,0-6.4-2.9-6.4-6.4c0-3.5,2.9-6.4,6.4-6.4c3.5,0,6.4,2.9,6.4,6.4C98.2,47.4,95.3,50.3,91.8,50.3z M112.8,50.3
		c-3.5,0-6.4-2.9-6.4-6.4c0-3.5,2.9-6.4,6.4-6.4c3.5,0,6.4,2.9,6.4,6.4C119.2,47.4,116.3,50.3,112.8,50.3z"/>
</g>
</svg>
