<?xml version="1.0" encoding="utf-8"?>
<!-- Generator: Adobe Illustrator 16.0.0, SVG Export Plug-In . SVG Version: 6.00 Build 0)  -->
<!DOCTYPE svg PUBLIC "-//W3C//DTD SVG 1.1//EN" "http://www.w3.org/Graphics/SVG/1.1/DTD/svg11.dtd">
<svg version="1.1" id="Layer_1" xmlns="http://www.w3.org/2000/svg" xmlns:xlink="http://www.w3.org/1999/xlink" x="0px" y="0px"
	 width="200px" height="160px" viewBox="0 0 200 160" enable-background="new 0 0 200 160" xml:space="preserve">
<g>
	<path fill="#F26F70" d="M72.9,77.2c0,0-45.6,14.1-51.4,29.8c-2.9,7.8-7,52.7-7,52.7l171,0.3c0,0-0.9-16.3-1.4-28.4
		c-0.5-12.1-1.3-22.4-15-33c-13.7-10.5-68.2-29.2-68.2-29.2L72.9,77.2z"/>
	<path fill="#DFE4EA" d="M95.5,61.5c14.3-2.5,32.7,8.4,37.1,32.2c0.9,4.7,0.7,8.7-1.4,10.5c-2.1,1.9-9.5,0.1-9.5,0.1l2.6-6.4
		l-19-11.3c0,0-1.9-9.1-4.4-11.6C98.4,72.5,91.5,62.2,95.5,61.5z"/>
	<rect x="96.6" y="113.3" fill="#2176A6" width="9.7" height="23.3"/>
	<path fill="#DFE4EA" d="M101.5,63.8c-22.3,1.4-33.8,18.1-35.3,31c-0.4,3.1-0.2,6.4,1.4,9c2.4,4,13.6,3.1,13.6,3.1l-3.7-6.2l8.8-10
		c0,0,1.9-9.1,4.4-11.6C93.1,76.6,105.5,63.6,101.5,63.8z"/>
	<path fill="#2176A6" d="M76,103.4c0,0-3-2-3-12c0-6,2-10.4,8.4-17c6.4-6.6,12.7-6.7,12.7-6.7s-2.7,6.8-2.9,8.7
		c-0.2,1.8-3.6,5.3-4,7.4c-0.5,2.1-1.2,7.4-1.2,7.4L76,103.4z"/>
	<path fill="#2176A6" d="M74.2,100.2c0,0,0.5,4.8,10.5,9.3c2.2,1,17.6,5.1,17.6,5.1S83.4,97.7,83.4,93.8c0-3.9,1.5-3.7,1.5-3.7
		L74.2,100.2z"/>
	<path fill="#2176A6" d="M126.6,98.3c0,0,0,4.1-9,9.8c-2,1.2-16.2,6.5-16.2,6.5s16.2-17.8,15.8-21.5c-0.4-3.7-1.8-3.3-1.8-3.3
		L126.6,98.3z"/>
	<path fill="#2176A6" d="M124.6,100.7c0,0,2.4,0.4,2.6-3.4c0.8-11.7-5.3-19.4-10.2-25.4c-5.8-7.1-16.3-7.4-19.8-6.1
		c-3,1.2,8.7,7.3,9,9.1s3.6,5.3,4,7.4c0.5,2.1-0.8,12.2-0.8,12.2L124.6,100.7z"/>
	<path fill="#DDA29F" d="M84.2,49.2V78c0,0-14.8,16.9,10.2,31.5c6.7,3.9,8,5.1,8,5.1s3.7-3.5,10.3-8.9c15.9-12.9,6.3-27.6,6.3-27.6
		V52.6v-3.4H84.2z"/>
	<path fill="#565656" d="M121.9,87.4c-0.1,0-0.1,0-0.2,0c-0.5-0.2-0.8-0.8-0.6-1.3c0.6-1.6,1.1-3.3,1.4-4.9
		c1.6-8.3-0.5-20.1-8.8-26.5c-0.4-0.3-0.5-1-0.2-1.4c0.3-0.4,1-0.5,1.4-0.2c9,6.9,11.3,19.3,9.5,28.4c-0.3,1.8-0.8,3.6-1.5,5.3
		C122.9,87.3,122.4,87.5,121.9,87.4z"/>
	<path fill="#565656" d="M79.5,90.2c-0.4,0.1-0.9-0.1-1.1-0.5c-1.4-2.8-2.4-5.8-2.9-8.9c-1.5-8.9,0.7-21.2,11.2-28.7
		c0.4-0.3,1.1-0.2,1.4,0.2c0.3,0.5,0.2,1.1-0.2,1.4c-9.8,7-11.8,18.4-10.4,26.7c0.5,2.9,1.4,5.7,2.7,8.4c0.2,0.5,0.1,1.1-0.4,1.3
		C79.7,90.2,79.6,90.2,79.5,90.2z"/>
	<path fill="#565656" d="M85.9,96.4c0.8,2.4,1,4.6-1.8,5.3l-2,0.5c-2.9,0.7-3.9-1.1-4.7-3.6l-4.2-13.1c-0.8-2.4-1-4.6,1.8-5.3l2-0.5
		c2.9-0.7,3.9,1.1,4.7,3.6L85.9,96.4z"/>
	<path fill="#565656" d="M113.7,97c-0.7,2.5-1,4.6,1.9,5.3l2,0.5c2.9,0.7,3.9-1.2,4.6-3.6l4-13.2c0.7-2.5,1-4.6-1.9-5.3l-2.1-0.5
		c-2.9-0.7-3.9,1.2-4.6,3.6L113.7,97z"/>
	<path fill="#3D3131" d="M130.6,33.9c0,5.8-4.5,21.8-4.5,21.8s-15.5,10-27.3,10c-12.8,0-29.1-12.7-29.1-12.7s-2.7-14.3-2.7-19.1
		c0-17.5,14.2-31.8,31.8-31.8S130.6,16.3,130.6,33.9z"/>
	<path fill="#EBA9A1" d="M125.7,66.6c-9.6,7-40.9,5.5-51.3,0c-1.9-1-2.9-15.6-2.9-15.6l4,4.4V39.6h48.1v14.1l4-5
		C127.7,48.7,128.2,64.9,125.7,66.6z"/>
	<path fill="#EBA9A1" d="M75.6,62.8c0.1,1.4-0.8,2.6-2.2,2.8l0,0c-1.4,0.2-2.6-0.8-2.8-2.2L69,48.4c-0.1-1.4,0.8-2.6,2.2-2.8l0,0
		c1.4-0.2,2.6,0.8,2.8,2.2L75.6,62.8z"/>
	<path fill="#EBA9A1" d="M124,62.8c-0.1,1.4,0.8,2.6,2.2,2.8l0,0c1.4,0.2,2.6-0.8,2.8-2.2l1.6-14.9c0.1-1.4-0.8-2.6-2.2-2.8l0,0
		c-1.4-0.2-2.6,0.8-2.8,2.2L124,62.8z"/>
	<path fill="#EBA9A1" d="M126.1,65.6c0,4.2-12.1,26.2-25.7,25.7C85.7,90.7,75.6,74,73.8,65.6"/>
	<path fill="#EBA9A1" d="M124,64.5c0,6.6-5.4,12-12,12H87.6c-6.6,0-12-5.4-12-12V40.1c0-6.6,5.4-12,12-12H112c6.6,0,12,5.4,12,12
		V64.5z"/>
	<path fill="#3D3131" d="M114.2,30.2c-1.4,2.6-7.5,4.6-15,4.6c-7.9,0-14.4-2.2-15.2-5.1c-0.1-0.2-0.1-1-1.7-0.4
		c-0.7,0.3,9.8-6,16.9-6c7.2,0,19.9,6.8,17.2,5.6C115,28.3,114.4,29.8,114.2,30.2z"/>
	<g>
		<path fill-rule="evenodd" clip-rule="evenodd" fill="#706363" d="M88.5,69.2c0.2-0.3,0.3-0.7,0.6-0.8c4.8-3,13-2.5,18.4-1.6
			c7.5,1.3,4.1,16.1,3.1,19.5c-1.3,4.4-8.6,4.8-15.3,4.3C86.2,90,86,72.7,88.5,69.2z M100.1,68.4c-1.4,2.6-5.5,2.6-7.5,1.9
			c-2.2-0.7-3,0.4-3.4,2.2c-0.2,0.9,1.3,9.6,2.1,11.3c1.4,3.5,16.2,3,17,0c0.6-2,2.1-9.7,2-11.9c-0.1-1.8-1.3-2.5-3.1-1.9
			C105.1,70.9,101.8,71,100.1,68.4z"/>
	</g>
	<path fill-rule="evenodd" clip-rule="evenodd" fill="#3D3131" d="M113.2,31.4c0,0,2.4-2.8,5.6-1.2c3.2,1.7,3.3-1.1,3.3-1.1l-4.5-4
		l-5.9-1c0,0-1.9,2.6-1.8,3S113.2,31.4,113.2,31.4z"/>
	<path fill-rule="evenodd" clip-rule="evenodd" fill="#3D3131" d="M85.8,31.7c0,0-2.4-2.8-5.6-1.2c-3.2,1.7-3.3-1.1-3.3-1.1l4.5-4
		l5.9-1c0,0,1.9,2.6,1.8,3S85.8,31.7,85.8,31.7z"/>
	<g>
		<path fill="#706363" d="M101.1,49.5h-3C96.6,49.6,82,47.4,76,49.9l0.6,2.2c0,0,1.3-1.4,3.1,3.8c2.6,7.3,16.1,5.3,17.6-0.5
			c0.5-1.9,0.6-1.5,0.8-3.2c0,0,1.4-2.1,3,0c0,0,0.3,1.3,0.8,3.2c1.4,5.7,15,7.8,17.6,0.5c1.8-5.2,3.1-3.8,3.1-3.8l0.6-2.2
			C117.1,47.4,102.6,49.6,101.1,49.5z M78.1,51c-0.6,0-1.1-0.2-1.1-0.5c0-0.3,0.5-0.5,1.1-0.5c0.6,0,1.1,0.2,1.1,0.5
			S78.7,51,78.1,51z M96.8,53.6c0,2.5-2.1,5-6,5.8c-6.2,1.3-8.5-1.2-8.5-1.2c-1.8-1.5-2-5.7-2-5.7c0-1.9,2-2.5,2-2.5
			c4.3-1,9.7-0.2,9.7-0.2c3.3,0.4,4.4,1.7,4.4,1.7C96.9,52.1,96.8,53.6,96.8,53.6z M116.9,58.3c0,0-2.8,2.2-8.5,1.2
			c-3.8-0.6-6-3.5-6-6c0,0-0.1-1.5,0.4-2.1c0,0,1-1.3,4.4-1.7c0,0,5.4-0.9,9.7,0.2c0,0,2,0.6,2,2.5
			C118.9,52.5,118.7,56.7,116.9,58.3z M121,51c-0.6,0-1.1-0.2-1.1-0.5c0-0.3,0.5-0.5,1.1-0.5c0.6,0,1.1,0.2,1.1,0.5S121.6,51,121,51
			z"/>
	</g>
</g>
</svg>
