<?xml version="1.0" encoding="utf-8"?>
<!-- Generator: Adobe Illustrator 16.0.0, SVG Export Plug-In . SVG Version: 6.00 Build 0)  -->
<!DOCTYPE svg PUBLIC "-//W3C//DTD SVG 1.1//EN" "http://www.w3.org/Graphics/SVG/1.1/DTD/svg11.dtd">
<svg version="1.1" id="Layer_1" xmlns="http://www.w3.org/2000/svg" xmlns:xlink="http://www.w3.org/1999/xlink" x="0px" y="0px"
	 width="200px" height="160px" viewBox="0 0 200 160" enable-background="new 0 0 200 160" xml:space="preserve">
<g>
	<path fill="#3D3131" d="M73.3,78.3c0,0-45,13.9-50.7,29.4c-2.8,7.7-6.9,52-6.9,52l168.8,0.3c0,0-0.9-16.1-1.4-28
		c-0.5-11.9-1.3-22.1-14.8-32.5c-13.6-10.4-67.3-28.9-67.3-28.9L73.3,78.3z"/>
	<path fill="#DFE4EA" d="M95.6,62.8c14.1-2.4,32.3,8.3,36.6,31.8c0.9,4.7,0.6,8.6-1.4,10.4c-2.1,1.9-9.4,0.1-9.4,0.1l2.5-6.3
		l-18.7-11.1c0,0-1.9-9-4.4-11.4C98.4,73.7,91.7,63.5,95.6,62.8z"/>
	<rect x="96.7" y="113.9" fill="#DFE4EA" width="9.6" height="23"/>
	<path fill="#DFE4EA" d="M101.4,65.1c-22,1.4-33.4,17.8-34.9,30.6c-0.4,3.1-0.2,6.3,1.3,8.8c2.4,3.9,13.5,3.1,13.5,3.1l-3.7-6.1
		l8.7-9.9c0,0,1.9-9,4.4-11.4C93.2,77.7,105.4,64.8,101.4,65.1z"/>
	<path fill="#493E3E" d="M76.3,104.2c0,0-3-2-3-11.8c0-5.9,1.9-10.3,8.2-16.8c6.3-6.5,12.5-6.6,12.5-6.6s-2.7,6.7-2.9,8.6
		c-0.2,1.8-3.5,5.2-4,7.3C86.7,86.8,86,92,86,92L76.3,104.2z"/>
	<path fill="#493E3E" d="M74.5,101c0,0,0.5,4.8,10.3,9.1c2.2,1,17.4,5,17.4,5S83.6,98.5,83.6,94.7c0-3.8,1.5-3.6,1.5-3.6L74.5,101z"
		/>
	<path fill="#493E3E" d="M126.2,99.1c0,0,0,4-8.9,9.6c-1.9,1.2-16,6.4-16,6.4s16-17.6,15.6-21.2c-0.4-3.6-1.8-3.3-1.8-3.3
		L126.2,99.1z"/>
	<path fill="#493E3E" d="M124.2,101.5c0,0,2.3,0.4,2.6-3.4c0.8-11.5-5.2-19.1-10.1-25.1c-5.7-7-16.1-7.3-19.5-6
		c-3,1.1,8.6,7.2,8.8,9c0.2,1.8,3.5,5.2,4,7.3c0.5,2.1-0.8,12.1-0.8,12.1L124.2,101.5z"/>
	<path fill="#DDA29F" d="M84.4,50.7v28.4c0,0-14.7,16.7,10,31.1c6.6,3.9,7.8,5,7.8,5s3.6-3.5,10.2-8.8c15.6-12.7,6.2-27.3,6.2-27.3
		V54v-3.4H84.4z"/>
	<path fill="#3D3131" d="M130.2,35.5c0,5.7-4.4,21.5-4.4,21.5s-15.3,9.9-26.9,9.9c-12.6,0-28.7-12.5-28.7-12.5s-2.6-14.1-2.6-18.8
		c0-17.3,14-31.3,31.3-31.3S130.2,18.2,130.2,35.5z"/>
	<path fill="#EBA9A1" d="M124.4,67.7c-9.5,6.9-39.3,5.6-49.6,0.2c-1.9-1-2.9-15.4-2.9-15.4l4.5,5.2l0.8-16.4l46.1,0v13.9l4-5
		C127.3,50.2,126.8,66,124.4,67.7z"/>
	<path fill="#EBA9A1" d="M75.9,64.1c0.1,1.4-0.8,2.6-2.2,2.7l0,0C72.3,67,71.1,66,71,64.6l-1.6-14.7c-0.1-1.4,0.8-2.6,2.2-2.7l0,0
		c1.4-0.1,2.6,0.8,2.7,2.2L75.9,64.1z"/>
	<path fill="#EBA9A1" d="M123.7,64.1c-0.1,1.4,0.8,2.6,2.2,2.7l0,0c1.4,0.1,2.6-0.8,2.7-2.2l1.6-14.7c0.1-1.4-0.8-2.6-2.2-2.7l0,0
		c-1.4-0.1-2.6,0.8-2.7,2.2L123.7,64.1z"/>
	<path fill="#EBA9A1" d="M125.5,65.2c0,4.1-11.6,27.5-25.1,27c-14.5-0.5-24.5-17-26.3-25.4"/>
	<path fill="#EBA9A1" d="M123,65.8c0,6.5-5.1,11.8-11.3,11.8H88.6c-6.3,0-11.3-5.3-11.3-11.8V41.7c0-6.5,5.1-11.8,11.3-11.8h23.1
		c6.3,0,11.3,5.3,11.3,11.8V65.8z"/>
	<path fill="#3D3131" d="M107,27.3c-0.7,2.6-3.8,4.6-7.6,4.6c-4,0-7.3-2.2-7.7-5.1c0-0.2-0.1-1-0.8-0.4c-0.4,0.3,5-5.9,8.5-5.9
		c3.6,0,10,6.7,8.7,5.5C107.4,25.5,107.1,26.9,107,27.3z"/>
	<g>
		<path fill-rule="evenodd" clip-rule="evenodd" fill="#3D3131" d="M88.6,72c0.2-0.3,0.3-0.7,0.6-0.8c2.7-1.7,8.3-3.7,10.4-3.8
			c2.8-0.1,8.6,2.4,10.5,3.8c1.6,1.1,1.3,4.7,1.4,9.2c0,1.1,1.3-1.2,1,4c-0.2,2.8-2.5,4.2-3,4.7c-2.5,2.5-8.5,2.1-14.2,1.9
			c-1.7-0.1-3.1-0.7-4.1-1.8c-0.9-0.9-2.6-2.2-3.1-3.5c-0.5-1.4,0.2-2.9,0-4.4C87.5,76.6,87.9,73.1,88.6,72z M100.1,69.6
			c-2.5,1.8-8.7,1.8-9.4,2.1c-1.6,0.6-1.5,1.8-1.6,3.4c-0.1,0.9-0.5,4.6,0.3,6.4c1.4,3.5,19.9,3,20.7,0c0.6-2,0.1-5.6,0-7.7
			c0-0.7-0.1-1.9-3-2.1C105.1,71.6,100.9,70.3,100.1,69.6z"/>
	</g>
	<path fill="#3D3131" d="M123.5,50.7c0,0-0.2,13.6-1.4,18.7c-0.9,3.9-4.6,6.3-7.3,8.3c-2.4,1.7-3,1.8-3.7,2.5c0,0-0.2,3.8-0.6,4.9
		c-0.5,1.5-3.9,5.3-3.9,5.3s15.2-4.9,18.5-21.9c0.6-3.3,0.2-8.6,0.2-8.6v-9.7L123.5,50.7z"/>
	<path fill="#3D3131" d="M76.3,51.7c0,0,0.2,13.6,1.4,18.7c0.9,3.9,4.4,6.7,7.3,8.3c1.5,0.8,2.5,1.6,3.2,2.3c0,0,0.7,4,1,5
		c0.5,1.5,4.5,4.4,4.5,4.4s-18.8-6.8-19.2-21.1c-0.1-3.4-0.2-8.6-0.2-8.6v-9.7L76.3,51.7z"/>
	<g>
		<ellipse fill="#3D3131" cx="95.3" cy="7.2" rx="5.9" ry="4.4"/>
		<ellipse fill="#3D3131" cx="87.4" cy="9.4" rx="5.9" ry="4.4"/>
		
			<ellipse transform="matrix(0.9103 -0.4141 0.4141 0.9103 1.3085 34.1979)" fill="#3D3131" cx="79.5" cy="14.1" rx="5.9" ry="4.4"/>
		
			<ellipse transform="matrix(0.7252 -0.6885 0.6885 0.7252 6.5604 56.9314)" fill="#3D3131" cx="74.6" cy="20.2" rx="5.9" ry="4.4"/>
		
			<ellipse transform="matrix(0.2492 -0.9685 0.9685 0.2492 26.3535 90.2747)" fill="#3D3131" cx="71.4" cy="28.1" rx="5.9" ry="4.4"/>
		
			<ellipse transform="matrix(2.407946e-002 -0.9997 0.9997 2.407946e-002 31.7191 105.5479)" fill="#3D3131" cx="69.9" cy="36.5" rx="5.9" ry="4.4"/>
		
			<ellipse transform="matrix(2.407946e-002 -0.9997 0.9997 2.407946e-002 27.2741 110.3676)" fill="#3D3131" cx="70.2" cy="41.2" rx="5.9" ry="4.4"/>
	</g>
	<g>
		<ellipse fill="#3D3131" cx="103.7" cy="6.9" rx="5.9" ry="4.4"/>
		<ellipse fill="#3D3131" cx="111.6" cy="9.1" rx="5.9" ry="4.4"/>
		
			<ellipse transform="matrix(-0.9103 -0.414 0.414 -0.9103 222.5571 75.8998)" fill="#3D3131" cx="119.5" cy="13.8" rx="5.9" ry="4.4"/>
		
			<ellipse transform="matrix(-0.7252 -0.6886 0.6886 -0.7252 200.9037 120.1859)" fill="#3D3131" cx="124.4" cy="20" rx="5.9" ry="4.4"/>
		
			<ellipse transform="matrix(-0.2494 -0.9684 0.9684 -0.2494 132.459 158.4596)" fill="#3D3131" cx="127.6" cy="27.9" rx="5.9" ry="4.4"/>
		
			<ellipse transform="matrix(-2.407942e-002 -0.9997 0.9997 -2.407942e-002 95.962 166.24)" fill="#3D3131" cx="129.1" cy="36.3" rx="5.9" ry="4.4"/>
		
			<ellipse transform="matrix(-2.407942e-002 -0.9997 0.9997 -2.407942e-002 91.0238 170.7943)" fill="#3D3131" cx="128.9" cy="41" rx="5.9" ry="4.4"/>
	</g>
	<path fill="#F18121" d="M119.3,45c-1.1-0.8-2.1-1-2.1-1.1c0,0-2.1-0.5-4.8-0.6c-1.7,0-3.8,0.1-5.7,0.7l0-0.3
		c-0.1,0-5.8,0.4-6.5,0.4s-6.4-0.4-6.5-0.4l0,0.2c-1.6-0.6-3.6-0.8-6-0.8c-2.6,0.1-4.8,0.6-4.9,0.6c-0.1,0-1.1,0.2-2.1,1.1
		c-1,0.8-2.1,2.3-2.1,5v1.5l0,0v-0.1c0,0,0.1,2.3,1.1,4.5c0.9,2.1,2.8,4.5,6.6,4.5c2.7,0,5.1-1.8,6.7-3.3c1.6-1.5,2.7-3.1,2.8-3.3
		l0.1-0.1c0.1-0.1,1.9-2.3,1.9-5.2h0.1v-1.3c0-0.4,0.4-0.6,0.7-0.7c0,0,1-0.3,1.6-0.3c0.5,0,1.6,0.3,1.6,0.3
		c0.6,0.2,0.8,0.5,0.8,0.7v1.3h0c0,2.9,1.8,5,1.9,5.1l0.1,0c0,0.1,1.1,1.7,2.8,3.4c1.6,1.5,4,3.3,6.6,3.3c3.8,0,5.6-2.4,6.5-4.5
		c1-2.2,1-4.5,1-4.5h0v-1.4C121.4,47.3,120.3,45.8,119.3,45z M104.2,45.3c-0.7,0.5-1.2,1.1-1.4,1.9c0-0.8-0.8-1.1-1-1.2l0,0
		c0,0-1-0.3-1.6-0.3S98.5,46,98.5,46c-0.5,0.1-1,0.5-1,1.1c-0.3-0.7-0.8-1.4-1.5-1.9c-0.5-0.4-1-0.7-1.6-0.9
		c1.6,0.1,5.2,0.3,5.8,0.3c0.6,0,4.3-0.2,5.8-0.3C105.4,44.6,104.8,44.9,104.2,45.3z"/>
</g>
</svg>
