<?xml version="1.0" encoding="utf-8"?>
<!-- Generator: Adobe Illustrator 16.0.0, SVG Export Plug-In . SVG Version: 6.00 Build 0)  -->
<!DOCTYPE svg PUBLIC "-//W3C//DTD SVG 1.1//EN" "http://www.w3.org/Graphics/SVG/1.1/DTD/svg11.dtd">
<svg version="1.1" id="Layer_1" xmlns="http://www.w3.org/2000/svg" xmlns:xlink="http://www.w3.org/1999/xlink" x="0px" y="0px"
	 width="200px" height="160px" viewBox="0 0 200 160" enable-background="new 0 0 200 160" xml:space="preserve">
<g>
	<path fill="#5694BF" d="M81.7,71.2c0,0-29.4,15.8-46.3,25.5c-7.2,4.2-12.1,16.1-12.3,21.5c-0.4,8.6-0.9,41.5-0.9,41.5l155.6,0.3
		c0,0-0.9-16.8-1.4-29.3c-0.5-12.5-1.3-23.1-14.8-34c-13.5-10.9-53.8-25.5-53.8-25.5H81.7z"/>
	<path fill="#DDA29F" d="M114.7,74.1c0,10.3-17.6,20.7-17.6,20.7S79.4,84.4,79.4,74.1s7.9-18.6,17.6-18.6
		C106.8,55.5,114.7,63.8,114.7,74.1z"/>
	<polygon fill="#DDA29F" points="79.6,42.6 79.6,74.4 114.6,74.4 114.6,46.4 114.6,42.6 	"/>
	<g>
		<path fill="#337B9B" d="M86.7,60.6c14.7-4.1,37.7,0.1,43.6,28.8c1,5,0.8,12.9,0.8,12.9l-10.6,2.3l2-7l-21-9.9
			c0,0-2.9-9.4-5.8-11.7C92.7,73.7,82.6,61.8,86.7,60.6z"/>
		<rect x="92.9" y="113.2" fill="#054F68" width="10.2" height="46.4"/>
		<path fill="#337B9B" d="M100,59.2c-23.4,1.4-35.6,19-37.2,32.6c-0.4,3.3-0.6,9.4-0.6,9.4l16.3,3.3l-3.9-6.5l9.2-10.6
			c0,0,2-9.6,4.6-12.2C91.2,72.6,104.3,58.9,100,59.2z"/>
		<path fill="#337B9B" d="M71.2,103.9c0,0-3.2-2.1-3.2-12.6c0-6.3,2.1-11,8.8-17.9c6.7-6.9,13.3-7.1,13.3-7.1s-2.8,7.2-3.1,9.1
			c-0.2,1.9-3.7,5.5-4.2,7.7c-0.5,2.2-1.2,7.7-1.2,7.7L71.2,103.9z"/>
		<path fill="#337B9B" d="M69.3,100.5c0,0,0.5,5.1,11,9.7c2.3,1,18.6,5.4,18.6,5.4S79,97.8,79,93.8c0-4.1,1.6-3.9,1.6-3.9
			L69.3,100.5z"/>
		<path fill="#337B9B" d="M124.4,98.4c0,0,0,4.3-9.5,10.3c-2.1,1.3-17,6.9-17,6.9S115,96.9,114.6,93c-0.4-3.8-1.9-3.5-1.9-3.5
			L124.4,98.4z"/>
		<path fill="#337B9B" d="M122.3,101c0,0,2.5,0.5,2.8-3.6c0.8-12.3-5.6-20.4-10.8-26.8c-6.1-7.5-17.2-7.8-20.8-6.4
			c-3.2,1.2,9.2,7.7,9.4,9.6c0.2,1.9,3.7,5.5,4.2,7.7c0.5,2.2-0.9,12.9-0.9,12.9L122.3,101z"/>
		<path fill="#DDA29F" d="M79.8,46.8v30.3c0,0-15.6,17.8,10.7,33.1c7.1,4.1,7.4,5.3,7.4,5.3s4.8-3.7,11.8-9.4
			c16.7-13.6,6.6-29.1,6.6-29.1V50.4v-3.6H79.8z"/>
	</g>
	<g>
		<path fill="#EBA9A1" d="M76.2,48.2c0.3,2.4-1.3,4.7-3.6,5l0,0c-2.2,0.3-4.3-1.4-4.6-3.9L66.9,39c-0.3-2.4,1.3-4.7,3.6-5l0,0
			c2.2-0.3,4.3,1.4,4.6,3.9L76.2,48.2z"/>
		<path fill="#EBA9A1" d="M117.6,48.5c-0.1,2.5,1.6,4.6,3.8,4.8l0,0c2.3,0.2,4.2-1.7,4.3-4.1l0.6-10.5c0.1-2.5-1.6-4.6-3.8-4.8l0,0
			c-2.3-0.2-4.2,1.7-4.3,4.1L117.6,48.5z"/>
		<path fill="#EBA9A1" d="M121,53.1c-1.2,18.7-13.2,23.6-13.9,24c-4.2,2.4-14.9,1.5-18.9-0.3c-0.9-0.4-12.6-4.3-14.8-23.7l-1.8-28.2
			c0-11.2,7-20.3,17.2-20.3h15.4c10.2,0,18.6,9.1,18.6,20.3L121,53.1z"/>
		<path fill="#3D3131" d="M69.5,32.1c0,0-1.6-8.6-0.9-14.5c1.1-8.9,8.8-15.3,27.9-15.3c29.3,0,29.3,13.8,29.3,18.8
			c0,7.1-1.2,6.3-1.2,9.8c0,2.2-0.1,3.4-1.1,3.9c-0.8,0.4-1.2,0.2-1.2,1.4c0,0.9,0,10.1,0,10.3c0,0.8-2.5,0.6-2.5,0.6V33.7
			c0,0,0.1-1.1-0.2-1.5c-0.2-0.3-4.4,0-4.4-3c0-1.6-0.2-6.1-0.2-7.4c0-5.1-3.5-4.9-3.5-4.9h-11.3c0,0-10.6,0-13.3,0
			c-6.6,0-8.3,1-8.3,4.4c0,2.6,0,5.4,0,7c0,4-4.7,4.9-4.7,4.9l-0.4,14.3c0,0-1.6,0-1.9,0c-0.2,0,0.1-11.4-1.5-11.8
			C69.2,35.4,69.5,32.1,69.5,32.1z"/>
	</g>
	<path fill="#3D3131" d="M110.7,33.1c-5,0.3-9.2,0.5-10.9,2.2c-0.5,0.5-3,0.4-3,0.4s-2.3,0.1-2.8-0.4c-1.7-1.8-5.9-1.9-10.9-2.2
		c-5-0.3-11.1,1.3-11.1,1.3v5c0,0,2-0.5,2.3,1.7c0.3,2.2,1.9,4.5,5.3,4.6c3.4,0,9.1,0.1,9.1,0.1s4.2,0.8,5.5-6
		c0.3-1.2,1.1-1.2,2.6-1.1H97c1.5-0.1,2.4-0.1,2.6,1.1c1.3,6.8,5.5,6,5.5,6s5.4-0.1,8.9-0.1c3.4,0,5.3-2.3,5.5-4.5
		c0.3-2.2,2.3-1.7,2.3-1.7v-5C121.8,34.4,115.7,32.8,110.7,33.1z M73.5,38.4c-0.3,0-0.5-0.2-0.5-0.5c0-0.3,0.2-0.5,0.5-0.5
		c0.2,0,0.5,0.2,0.5,0.5C73.9,38.2,73.7,38.4,73.5,38.4z M73.5,36.2c-0.3,0-0.5-0.2-0.5-0.5c0-0.3,0.2-0.5,0.5-0.5
		c0.2,0,0.5,0.2,0.5,0.5C73.9,36,73.7,36.2,73.5,36.2z M92.7,40.5c-1,3.6-2,3.9-4.8,4c-2.8,0.2-8.3-0.2-8.3-0.2s-3.8,0.4-4-3.8
		c-0.2-4.2-0.5-4.4,2.5-5.2c0,0,6.4-1.3,12.4,0.1C91.8,35.9,93.8,36.9,92.7,40.5z M118.2,40.5c-0.2,4.2-4,3.8-4,3.8
		s-5.4,0.4-8.3,0.2c-2.8-0.2-3.8-0.4-4.8-4c-1-3.6,0.9-4.6,2.1-5c6-1.4,12.4-0.1,12.4-0.1C118.7,36.1,118.4,36.3,118.2,40.5z
		 M120.4,38.4c-0.3,0-0.5-0.2-0.5-0.5c0-0.3,0.2-0.5,0.5-0.5c0.2,0,0.5,0.2,0.5,0.5C120.9,38.2,120.7,38.4,120.4,38.4z M120.4,36.2
		c-0.3,0-0.5-0.2-0.5-0.5c0-0.3,0.2-0.5,0.5-0.5c0.2,0,0.5,0.2,0.5,0.5C120.9,36,120.7,36.2,120.4,36.2z"/>
	<circle fill="#EBA9A1" cx="82.2" cy="21.6" r="4.6"/>
	<circle fill="#EBA9A1" cx="111.8" cy="21.5" r="4.6"/>
	<path fill="#EBA9A1" d="M115.6,19.3c0,2.2-9,3.4-18.9,3.4S78,22.4,78,20.2c0-2.2,5-6.4,18.7-6.4C111,13.7,115.6,17.2,115.6,19.3z"
		/>
</g>
</svg>
