<?xml version="1.0" encoding="utf-8"?>
<!-- Generator: Adobe Illustrator 16.0.0, SVG Export Plug-In . SVG Version: 6.00 Build 0)  -->
<!DOCTYPE svg PUBLIC "-//W3C//DTD SVG 1.1//EN" "http://www.w3.org/Graphics/SVG/1.1/DTD/svg11.dtd">
<svg version="1.1" id="Layer_1" xmlns="http://www.w3.org/2000/svg" xmlns:xlink="http://www.w3.org/1999/xlink" x="0px" y="0px"
	 width="200px" height="160px" viewBox="0 0 200 160" enable-background="new 0 0 200 160" xml:space="preserve">
<g>
	<path fill="#4C94D0" d="M74.8,80.3c0,0-36.5,13.6-42.1,28.7c-2.8,7.5-6.7,50.7-6.7,50.7l148,0.3c0,0-0.9-15.7-1.4-27.3
		c-0.5-11.6-0.9-22-14.5-31.7c-20.5-14.6-48.4-23.8-48.4-23.8L98.8,71L74.8,80.3z"/>
	<path fill="#FFFFFF" d="M82.6,82.5c0,0.2,0,0.5,0,0.7v-1.4C82.6,82,82.6,82.3,82.6,82.5z"/>
	<path fill="#DDA29F" d="M80.9,61.6v18.9V82c0.5,7.4,8.4,13.3,18,13.3c9.7,0,17.5-5.9,18-13.4v-1.5V61.6H80.9z"/>
	<path fill="none" stroke="#2174A4" stroke-width="3" stroke-linecap="round" stroke-linejoin="round" stroke-miterlimit="10" d="
		M80.5,80.3C81,87.9,89,93.9,98.8,93.9c9.8,0,17.8-6,18.3-13.6"/>
	<path fill="#E09F9A" d="M78.7,46.7c0.4,1.8-0.5,3.5-2.1,3.9l0,0c-1.6,0.3-3.2-0.9-3.6-2.7l-3-12.8c-0.4-1.8,0.5-3.5,2.1-3.9l0,0
		c1.6-0.3,3.2,0.9,3.6,2.7L78.7,46.7z"/>
	<path fill="#E09F9A" d="M119.3,46.8c-0.4,1.8,0.5,3.5,2.1,3.9l0,0c1.6,0.3,3.2-0.9,3.6-2.7l3-12.8c0.4-1.8-0.5-3.5-2.1-3.9l0,0
		c-1.6-0.3-3.2,0.9-3.6,2.7L119.3,46.8z"/>
	<path fill="#EBA9A1" d="M123.8,27.2c0,0.3,0,10.4,0,10.7c-0.5,12.5-11.4,12.7-24.7,12.7c-13.4,0-24.4-0.3-24.7-13
		c0-0.2,0-10.2,0-10.4c0-12.9,11.1-23.4,24.7-23.4C112.8,3.8,123.8,14.3,123.8,27.2z"/>
	<path fill="#EBA9A1" d="M121.2,39.1c4.8,12.5-6.2,37.8-22.1,37.8C86,76.9,71.6,51.5,77,39.1"/>
	<path fill="#706363" d="M102.9,74c0,0-1.5,0.8-3.6,0.8c-2.6,0-3.6-0.8-3.6-0.8v-2.9h7.2V74z"/>
	<circle fill="#3D3131" cx="76.9" cy="48.6" r="1"/>
</g>
</svg>
