<?xml version="1.0" encoding="utf-8"?>
<!-- Generator: Adobe Illustrator 16.0.0, SVG Export Plug-In . SVG Version: 6.00 Build 0)  -->
<!DOCTYPE svg PUBLIC "-//W3C//DTD SVG 1.1//EN" "http://www.w3.org/Graphics/SVG/1.1/DTD/svg11.dtd">
<svg version="1.1" id="Layer_1" xmlns="http://www.w3.org/2000/svg" xmlns:xlink="http://www.w3.org/1999/xlink" x="0px" y="0px"
	 width="200px" height="160px" viewBox="0 0 200 160" enable-background="new 0 0 200 160" xml:space="preserve">
<g>
	<path fill="#49C1BD" d="M85.2,76.3c0,0-46.7,13.8-51.6,27c-2.4,6.6-5.9,56.4-5.9,56.4l144.6,0.3c0,0-0.8-25.6-1.2-35.9
		c-0.4-10.2-1.1-19-12.7-27.9c-11.6-8.9-50.6-20.9-50.6-20.9L85.2,76.3z"/>
	<path fill="#DDA29F" d="M113.9,85.6c0,0-2.5,5-17,5c-11.4,0-14.2-5-14.2-5v-27h31.1V85.6z"/>
	<path fill="#EBA9A1" d="M119.6,57.7c0,6.7-13.1,14.8-14.3,15.1c-2.9,0.7-10.7,0.4-13.7,0c-2.3-0.3-14-8.4-14-15.1l-1.1-34.6
		c0-6.7,5.9-12.9,13.1-12.9h17.9c7.2,0,13.1,6.1,13.1,12.9L119.6,57.7z"/>
	<path fill="#EBA9A1" d="M121,48c0,1.8,1.2,3.3,2.6,3.3c0,0,1.6-0.2,1.7-3.2l1.2-10.6c0-1.8-1.2-3.3-2.6-3.3l-0.6,0
		c-1.4,0-2.5,1.5-2.5,3.4L121,48z"/>
	<path fill="#EBA9A1" d="M76.2,48c0,1.8-1.2,3.3-2.6,3.3c0,0-1.6-0.2-1.7-3.2l-1.2-10.6c0-1.8,1.2-3.3,2.6-3.3l0.6,0
		c1.4,0,2.5,1.5,2.5,3.4L76.2,48z"/>
	<path fill="#D8D8D8" d="M120.2,16c0,0-1.2-2.6-3.7-5.7C109.7,2,97.9,2.3,97.8,2.3C97.7,2.3,86,2,79.1,10.4c-2.5,3-3.7,5.7-3.7,5.7
		c-4,1.7-3.7,6.7-3.7,6.7s0.1,4.8,0.1,8.1S71.8,34,73,35.7c0.7,1,1.7,2,1.8,2.7c0.2,0.8,0,8,0,8s-0.2,0.2,0.4,0.7
		c1.3,1,2.4,0.7,2.4,0.7v-8.9c0,0-0.1-5.2,0-8.1c0.1-1.8,1.2-2.5,1.8-3.1c1.8-1.7,2-3,1.9-5c0-1.1-1-2.6-1.1-4.6
		c-0.1-1.2,1.6-4.4,3.5-5.5c3.7-2.2,6.6-2.2,9.4-0.9c2.7,1.3,6.8,1.3,9.5,0c2.8-1.3,5.7-1.3,9.4,0.9c1.9,1.1,3.5,4.3,3.5,5.5
		c-0.1,2-1,3.5-1.1,4.6c-0.1,1.9,0.1,3.3,1.9,5c0.6,0.6,1.7,1.3,1.8,3.1c0.1,2.9,0,8.1,0,8.1v8.9c0,0,1.1,0.3,2.4-0.7
		c0.5-0.4,0.4-0.7,0.4-0.7s-0.2-7.2,0-8c0.1-0.6,1.1-1.7,1.8-2.7c1.2-1.6,1.1-1.6,1.1-4.9s0.1-8.1,0.1-8.1S124.2,17.8,120.2,16z"/>
	<g>
		<g>
			<circle fill="#EAC05C" cx="40.4" cy="140.3" r="1.9"/>
			<circle fill="#EAC05C" cx="44.1" cy="140.8" r="1.9"/>
			<circle fill="#EAC05C" cx="45" cy="144.5" r="1.9"/>
			<circle fill="#EAC05C" cx="41.6" cy="146.2" r="1.9"/>
			<circle fill="#EAC05C" cx="38.8" cy="143.7" r="1.9"/>
		</g>
		<circle fill="#F26F70" cx="41.8" cy="143.3" r="2.3"/>
	</g>
	<g>
		<g>
			<circle fill="#EAC05C" cx="153.8" cy="131.6" r="2.1"/>
			<circle fill="#EAC05C" cx="157.9" cy="132.1" r="2.1"/>
			<circle fill="#EAC05C" cx="158.8" cy="136.2" r="2.1"/>
			<circle fill="#EAC05C" cx="155.1" cy="138.1" r="2.1"/>
			<circle fill="#EAC05C" cx="152" cy="135.3" r="2.1"/>
		</g>
		<circle fill="#F26F70" cx="155.4" cy="134.9" r="2.6"/>
	</g>
	<g>
		<g>
			<circle fill="#EAC05C" cx="50.3" cy="93.2" r="2.1"/>
			<circle fill="#EAC05C" cx="54.4" cy="93.7" r="2.1"/>
			<circle fill="#EAC05C" cx="55.3" cy="97.8" r="2.1"/>
			<circle fill="#EAC05C" cx="51.6" cy="99.7" r="2.1"/>
			<circle fill="#EAC05C" cx="48.4" cy="96.9" r="2.1"/>
		</g>
		<circle fill="#F26F70" cx="51.8" cy="96.5" r="2.6"/>
	</g>
	<g>
		<g>
			<circle fill="#EAC05C" cx="141.8" cy="91.5" r="2.1"/>
			<circle fill="#EAC05C" cx="145.9" cy="92" r="2.1"/>
			<circle fill="#EAC05C" cx="146.8" cy="96.1" r="2.1"/>
			<circle fill="#EAC05C" cx="143.1" cy="98" r="2.1"/>
			<circle fill="#EAC05C" cx="140" cy="95.2" r="2.1"/>
		</g>
		<circle fill="#F26F70" cx="143.4" cy="94.8" r="2.6"/>
	</g>
	<g>
		<g>
			<circle fill="#EAC05C" cx="112.3" cy="120.7" r="2.1"/>
			<circle fill="#EAC05C" cx="116.4" cy="121.2" r="2.1"/>
			<circle fill="#EAC05C" cx="117.4" cy="125.3" r="2.1"/>
			<circle fill="#EAC05C" cx="113.6" cy="127.2" r="2.1"/>
			<circle fill="#EAC05C" cx="110.5" cy="124.4" r="2.1"/>
		</g>
		<circle fill="#F26F70" cx="113.9" cy="124" r="2.6"/>
	</g>
	<g>
		<g>
			<circle fill="#EAC05C" cx="78.4" cy="145.9" r="1.9"/>
			<circle fill="#EAC05C" cx="82.1" cy="146.3" r="1.9"/>
			<circle fill="#EAC05C" cx="82.9" cy="150" r="1.9"/>
			<path fill="#EAC05C" d="M77.7,151.7c0-1,0.8-1.9,1.9-1.9c1,0,1.9,0.8,1.9,1.9"/>
			<circle fill="#EAC05C" cx="76.7" cy="149.2" r="1.9"/>
		</g>
		<circle fill="#F26F70" cx="79.8" cy="148.9" r="2.3"/>
	</g>
	<g>
		<g>
			<circle fill="#EAC05C" cx="72.7" cy="111.7" r="2.1"/>
			<circle fill="#EAC05C" cx="76.8" cy="112.2" r="2.1"/>
			<circle fill="#EAC05C" cx="77.7" cy="116.3" r="2.1"/>
			<circle fill="#EAC05C" cx="74" cy="118.2" r="2.1"/>
			<circle fill="#EAC05C" cx="70.9" cy="115.4" r="2.1"/>
		</g>
		<circle fill="#F26F70" cx="74.3" cy="115" r="2.6"/>
	</g>
	<g>
		<g>
			<circle fill="#EAC05C" cx="119.3" cy="145.7" r="1.9"/>
			<circle fill="#EAC05C" cx="123.1" cy="146.1" r="1.9"/>
			<circle fill="#EAC05C" cx="123.9" cy="149.8" r="1.9"/>
			<circle fill="#EAC05C" cx="120.5" cy="151.5" r="1.9"/>
			<circle fill="#EAC05C" cx="117.7" cy="149" r="1.9"/>
		</g>
		<circle fill="#F26F70" cx="120.8" cy="148.7" r="2.3"/>
	</g>
	<path fill="#999999" d="M92.9,2.8l2.7,8.6l-5.2-8c0,0,0.7-0.2,1-0.3C92.3,2.8,92.9,2.8,92.9,2.8z"/>
	<path fill="#999999" d="M81.2,7.9l1.7,5.4l-3.2-5c0,0,0.5-0.1,0.6-0.2C80.9,7.9,81.2,7.9,81.2,7.9z"/>
	<g>
		<polyline fill="#F26F70" points="100.4,36.1 102.2,41 104.3,44.1 106.9,45 110.1,45.3 112.9,44.8 114.8,42.9 115.3,39 115.4,35.2 
			113.2,33.6 109.2,33.7 103.8,34 101.1,35.9 		"/>
		<polyline fill="#F26F70" points="96.2,36.1 94.4,41 92.3,44.1 89.7,45 86.5,45.3 83.7,44.8 81.8,42.9 81.3,39 81.2,35.2 
			83.4,33.6 87.4,33.7 92.8,34 95.5,35.9 		"/>
		<path fill="#49C1BD" d="M103.2,33.6c-1.5,0.4-3.2,0.8-4.8,0.7c-0.9,0-1.8-0.2-2.6-0.4c-5.6-1.3-10.7-1.8-17-0.4l0.4,2.6
			c0.4,0,1,0.2,1.1,0.9c0.2,6,1.8,8.9,7.5,8.7c7-0.2,8.9-5.8,9.3-8c0.2-1.1,0.8-1.3,1.5-1.3c1.2,0,1.3,0.8,1.5,1.3
			c2.4,6.1,3.9,7.5,8.9,7.9c7.7,0.7,6.8-5,7.9-8.4c0.2-0.6,0.4-1,1.1-1l0.3-2.6C113.8,32.8,109.2,32.1,103.2,33.6z M80.8,35.2
			c-0.6,0-1-0.1-1-0.3s0.5-0.3,1-0.3s1,0.1,1,0.3S81.3,35.2,80.8,35.2z M95,39.2c-1.1,3.2-2.8,5.5-7.1,5.6c-4.3,0-5.5-0.8-6.1-5.8
			c0-3.4-0.2-5.3,6.2-5.3C92.3,34.1,96.8,34.1,95,39.2z M115.3,39c-0.6,5-1.8,5.8-6.1,5.8c-4.3-0.1-6-2.4-7.1-5.6
			c-1.7-5.1,2.8-5.1,7.1-5.5C115.6,33.7,115.3,35.7,115.3,39z M116.4,35.4c-0.6,0-1-0.1-1-0.3c0-0.1,0.5-0.3,1-0.3
			c0.6,0,1,0.1,1,0.3C117.4,35.3,117,35.4,116.4,35.4z"/>
	</g>
</g>
</svg>
